<svg fill="none" height="70" viewBox="0 0 70 70" width="70" xmlns="http://www.w3.org/2000/svg"><g fill="#0e2d45"><path d="m22.3795 55.664-.0116.0116c-.4017.3993-.4035 1.0485-.0041 1.4501.2004.2015.4637.3024.727.3024.2614 0 .523-.0994.723-.2983l.0116-.0116c.4017-.3993.4035-1.0485.0041-1.4501-.399-.4015-1.0483-.4034-1.45-.0041z"/><path d="m30.748 52.3833-.0116.0117c-.4005.4004-.4005 1.0497 0 1.45.2001.2002.4626.3004.725.3004s.5249-.1001.725-.3004l.0116-.0116c.4005-.4005.4005-1.0497 0-1.4501-.4003-.4004-1.0496-.4004-1.45 0z"/><path d="m32.0218 35.3819c0-2.057-1.6734-3.7305-3.7305-3.7305-2.0591 0-3.7342 1.6734-3.7342 3.7305 0 2.0591 1.6752 3.7343 3.7342 3.7343 2.0571 0 3.7305-1.6752 3.7305-3.7343zm-5.4139 0c0-.9262.7552-1.6798 1.6834-1.6798.9262 0 1.6798.7535 1.6798 1.6798 0 .9283-.7535 1.6835-1.6798 1.6835-.9282 0-1.6834-.7552-1.6834-1.6835z"/><path d="m38.9247 53.7607c-2.854 0-5.1759 2.3219-5.1759 5.1761 0 2.8562 2.3219 5.1798 5.1759 5.1798 2.8562 0 5.1797-2.3236 5.1797-5.1798 0-2.854-2.3235-5.1761-5.1797-5.1761zm0 8.3053c-1.7232 0-3.1251-1.4037-3.1251-3.1291 0-1.7232 1.4019-3.1252 3.1251-3.1252 1.7254 0 3.1289 1.402 3.1289 3.1252 0 1.7254-1.4035 3.1291-3.1289 3.1291z"/><path d="m15.5221 57.7139c-1.9587 0-3.5521 1.5918-3.5521 3.5484 0 1.9587 1.5934 3.5522 3.5521 3.5522 1.9586 0 3.5521-1.5935 3.5521-3.5522 0-1.9568-1.5935-3.5484-3.5521-3.5484zm0 5.0497c-.8279 0-1.5013-.6735-1.5013-1.5015 0-.8258.6734-1.4976 1.5013-1.4976.8278 0 1.5013.6718 1.5013 1.4976 0 .828-.6735 1.5015-1.5013 1.5015z"/><path d="m55.3334 52.9375-.0116.0117c-.4004.4004-.4004 1.0497 0 1.45.2002.2002.4627.3004.725.3004.2624 0 .5249-.1001.7251-.3004l.0116-.0116c.4004-.4005.4004-1.0497 0-1.4501-.4003-.4004-1.0496-.4004-1.4501 0z"/><path d="m57.5211 60.7675-.0116.0117c-.4017.3992-.4035 1.0484-.0041 1.45.2004.2015.4637.3024.727.3024.2615 0 .523-.0994.723-.2983l.0116-.0116c.4017-.3992.4035-1.0485.0041-1.4501-.3992-.4015-1.0485-.4034-1.45-.0041z"/><path d="m57.6319 48.3938c1.8967 0 3.4398-1.5432 3.4398-3.4399 0-1.8989-1.5431-3.4436-3.4398-3.4436-1.8989 0-3.4437 1.5447-3.4437 3.4436 0 1.8967 1.5448 3.4399 3.4437 3.4399zm0-4.8328c.7659 0 1.3891.6248 1.3891 1.3929 0 .7659-.6232 1.3891-1.3891 1.3891-.7679 0-1.3929-.6232-1.3929-1.3891 0-.7681.6248-1.3929 1.3929-1.3929z"/><path d="m64.6574 4.95291h-14.0522c-2.1361 0-3.8738 1.83695-3.8738 4.09473 0 1.98616 1.3474 3.64546 3.1275 4.01396v33.8843l-10.7458-14.1498c-1.3775-1.8114-2.8065-5.5196-2.8137-8.59l-.0401-16.04057c2.069-.20358 3.6908-1.95317 3.6908-4.07477.0001-2.25558-1.8369-4.09076-4.0946-4.09076h-15.1334c-2.258 0-4.0948 1.83518-4.0948 4.0909 0 2.12146 1.6219 3.87119 3.6908 4.07476v16.04044c-.0072 3.0674-1.4747 6.777-2.8504 8.5905l-3.4259 4.5112c-.3424.451-.2544 1.0943.1965 1.4368.1854.1408.4033.2089.6195.2089.3097 0 .6156-.1397.8173-.4052l3.4263-4.5118c1.5043-1.9832 3.1034-5.9114 3.2201-9.4457h3.4812c.5663 0 1.0254-.4591 1.0254-1.0254s-.4591-1.0254-1.0254-1.0254h-3.4698l.0086-3.4176h3.4613c.5663 0 1.0254-.4591 1.0254-1.0253 0-.5663-.4591-1.0254-1.0254-1.0254h-3.4561l.0086-3.4176h3.4475c.5663 0 1.0254-.4591 1.0254-1.0254s-.4591-1.0254-1.0254-1.0254h-3.4424l.0086-3.41754h11.8398v16.02454c.0085 3.633 1.7116 7.7752 3.2717 9.8267l7.2347 9.5267c-2.4433-.7847-4.8408-.9152-7.3446-.4188-2.6155.5183-5.0894 1.6509-7.7652 3.042-5.3881-3.8707-13.4049-3.0271-18.7596-1.2223l2.0047-2.6102c.3449-.4491.2604-1.093-.1887-1.4379-.4494-.3448-1.0929-.2604-1.4379.1887l-6.22422 8.1043c-1.59387 2.0779-2.78961 4.9358-3.28071 7.8406-.52896 3.1288-.21478 6.0795.88457 8.3083 1.04454 2.1175 3.29766 4.6416 8.10056 4.6416h35.1693c2.5807 0 4.7372-.7688 6.3152-2.2308 1.4032 1.3785 3.325 2.2308 5.4427 2.2308 4.2858 0 7.7725-3.4867 7.7725-7.7727v-34.3097c0-.5663-.4591-1.0254-1.0254-1.0254s-1.0254.4591-1.0254 1.0254v6.5919c-1.5401.7478-3.776.6647-5.1525-.2558-1.73-1.1546-4.2272-1.4057-6.2908-.7532v-3.9531h3.4313c.5663 0 1.0254-.4591 1.0254-1.0254s-.4591-1.0254-1.0254-1.0254h-3.4313v-3.4214h3.4313c.5663 0 1.0254-.4591 1.0254-1.0254s-.4591-1.0254-1.0254-1.0254h-3.4313v-3.4175h3.4313c.5663 0 1.0254-.4591 1.0254-1.0254s-.4591-1.0254-1.0254-1.0254h-3.4313v-3.4174h11.4433v10.0469c0 .5663.4591 1.0254 1.0254 1.0254s1.0254-.4591 1.0254-1.0254v-10.1239c1.7801-.3685 3.1274-2.0279 3.1274-4.01393 0-2.25791-1.7378-4.09486-3.8738-4.09486zm-43.9353 1.18207c-1.1272 0-2.044-.91697-2.044-2.04408 0-1.12492.917-2.04012 2.044-2.04012h15.1334c1.1271 0 2.0439.9152 2.0439 2.04012 0 1.12711-.917 2.04408-2.0439 2.04408zm-14.09547 44.32312 1.65566-2.1556c4.11671-2.369 13.35991-4.4025 19.24671-1.0159-.077.0413-.153.0819-.2305.1234-5.9456 3.185-12.6528 6.7741-22.82478 7.1948.54236-1.5727 1.28611-3.0167 2.15291-4.1467zm39.24677 17.4911h-35.1693c-3.00983 0-5.1164-1.1769-6.26128-3.4979-1.07433-2.178-1.13463-5.0458-.54797-7.7741 11.02395-.3122 18.41065-4.2659 24.37185-7.4593 6.8512-3.6701 11.8165-6.3285 19.0102-2.2806l2.5818 3.3997v11.8904c0 1.429.3894 2.7681 1.0649 3.9199-1.2092 1.1963-2.9041 1.8019-5.0502 1.8019zm11.1878-31.9903c1.1048.7389 2.523 1.1083 3.9422 1.1081.8018 0 1.6038-.1182 2.3495-.3542v25.5145c0 3.155-2.5668 5.7219-5.7217 5.7219s-5.7217-2.5667-5.7217-5.7219v-26.5236c1.5392-.7468 3.775-.6636 5.1517.2552zm7.5962-24.871h-14.0522c-1.0053 0-1.823-.9152-1.823-2.04013 0-1.12711.8179-2.04394 1.823-2.04394h14.0522c1.0053 0 1.8231.91697 1.8231 2.04394 0 1.12483-.8179 2.04013-1.8231 2.04013z"/></g></svg>