<svg width="24" height="22" viewBox="0 0 24 22" fill="none" xmlns="http://www.w3.org/2000/svg">
<g filter="url(#filter0_d)">
<path d="M16.0605 7.43849L15.5301 7.96881L16.0605 7.43848C15.7792 7.15718 15.3976 6.99915 14.9998 6.99915H9.37481C8.97699 6.99915 8.59546 7.15718 8.31415 7.43848L8.84448 7.96881L8.31415 7.43848C8.03285 7.71979 7.87481 8.10132 7.87481 8.49915C7.87481 8.89697 8.03285 9.2785 8.31415 9.5598C8.59546 9.84111 8.97699 9.99915 9.37481 9.99915C8.97699 9.99915 8.59546 10.1572 8.31415 10.4385C8.03285 10.7198 7.87481 11.1013 7.87481 11.4991C7.87481 11.897 8.03285 12.2785 8.31415 12.5598C8.59546 12.8411 8.97698 12.9991 9.37481 12.9991H14.9998C15.3976 12.9991 15.7792 12.8411 16.0605 12.5598C16.3418 12.2785 16.4998 11.897 16.4998 11.4991C16.4998 11.1013 16.3418 10.7198 16.0605 10.4385C15.7792 10.1572 15.3976 9.99915 14.9998 9.99915C15.3976 9.99915 15.7792 9.84111 16.0605 9.55981C16.3418 9.2785 16.4998 8.89697 16.4998 8.49915C16.4998 8.10132 16.3418 7.71979 16.0605 7.43849ZM6.2793 3.52845C7.8963 1.91144 10.0887 1.00184 12.3754 0.999146C14.6628 0.999258 16.8564 1.90795 18.4738 3.52535C20.0913 5.14285 21 7.33665 21 9.62415C21 11.9116 20.0913 14.1054 18.4738 15.7229C16.8563 17.3404 14.6625 18.2491 12.375 18.2491H4.46959C4.27882 18.2489 4.09591 18.1731 3.96101 18.0382C3.82618 17.9034 3.75031 17.7206 3.75 17.5299V9.62458C3.75269 7.3378 4.6623 5.14545 6.2793 3.52845Z" stroke="white" stroke-width="1.5"/>
</g>
<defs>
<filter id="filter0_d" x="-1" y="0.249146" width="26.75" height="26.75" filterUnits="userSpaceOnUse" color-interpolation-filters="sRGB">
<feFlood flood-opacity="0" result="BackgroundImageFix"/>
<feColorMatrix in="SourceAlpha" type="matrix" values="0 0 0 0 0 0 0 0 0 0 0 0 0 0 0 0 0 0 127 0"/>
<feOffset dy="4"/>
<feGaussianBlur stdDeviation="2"/>
<feColorMatrix type="matrix" values="0 0 0 0 0 0 0 0 0 0 0 0 0 0 0 0 0 0 0.25 0"/>
<feBlend mode="normal" in2="BackgroundImageFix" result="effect1_dropShadow"/>
<feBlend mode="normal" in="SourceGraphic" in2="effect1_dropShadow" result="shape"/>
</filter>
</defs>
</svg>
