<svg width="19" height="19" viewBox="0 0 19 19" fill="none" xmlns="http://www.w3.org/2000/svg">
<path d="M13.0605 7.43861L12.5301 7.96894L13.0605 7.43861C12.7792 7.1573 12.3976 6.99927 11.9998 6.99927H6.37481C5.97699 6.99927 5.59546 7.1573 5.31415 7.43861L5.84448 7.96894L5.31415 7.43861C5.03285 7.71991 4.87481 8.10144 4.87481 8.49927C4.87481 8.89709 5.03285 9.27862 5.31415 9.55993C5.59546 9.84123 5.97699 9.99927 6.37481 9.99927C5.97699 9.99927 5.59546 10.1573 5.31415 10.4386C5.03285 10.7199 4.87481 11.1014 4.87481 11.4993C4.87481 11.8971 5.03285 12.2786 5.31415 12.5599C5.59546 12.8412 5.97698 12.9993 6.37481 12.9993H11.9998C12.3976 12.9993 12.7792 12.8412 13.0605 12.5599C13.3418 12.2786 13.4998 11.8971 13.4998 11.4993C13.4998 11.1014 13.3418 10.7199 13.0605 10.4386C12.7792 10.1573 12.3976 9.99927 11.9998 9.99927C12.3976 9.99927 12.7792 9.84124 13.0605 9.55993C13.3418 9.27862 13.4998 8.89709 13.4998 8.49927C13.4998 8.10144 13.3418 7.71991 13.0605 7.43861ZM3.2793 3.52857C4.8963 1.91157 7.08865 1.00196 9.37542 0.999268C11.6628 0.99938 13.8564 1.90807 15.4738 3.52547C17.0913 5.14297 18 7.33678 18 9.62427C18 11.9118 17.0913 14.1056 15.4738 15.7231C13.8563 17.3406 11.6625 18.2493 9.375 18.2493H1.46959C1.27882 18.2491 1.09591 18.1732 0.961009 18.0383C0.826185 17.9035 0.75031 17.7207 0.75 17.5301V9.6247C0.752689 7.33792 1.6623 5.14557 3.2793 3.52857Z" stroke="white" stroke-width="1.5"/>
</svg>
