<?xml version="1.0" encoding="utf-8"?>
<!-- Generator: Adobe Illustrator 16.0.2, SVG Export Plug-In . SVG Version: 6.00 Build 0)  -->
<!DOCTYPE svg PUBLIC "-//W3C//DTD SVG 1.1//EN" "http://www.w3.org/Graphics/SVG/1.1/DTD/svg11.dtd">
<svg version="1.1" id="body_1" xmlns="http://www.w3.org/2000/svg" xmlns:xlink="http://www.w3.org/1999/xlink" x="0px" y="0px"
	 width="77px" height="58px" viewBox="0 0 77 58" enable-background="new 0 0 77 58" xml:space="preserve">
<g transform="matrix(0.07519531 0 0 0.07552084 0 0)">
	<g transform="matrix(1.896076 0 0 1.896076 128 0)">
	</g>
	<path fill="#7AA869" d="M688.392,385.04V120.22c0-31.364-25.507-56.883-56.87-56.883l0,0H396.839
		c-31.364,0-56.883,25.519-56.883,56.883l0,0v227.799h-15.727c-31.364,0-56.883,25.519-56.883,56.877l0,0v2.534
		c0,11.095,3.208,21.465,8.727,30.22c-13.916,10.384-22.948,26.961-22.948,45.621l0,0v2.522c0,18.672,9.033,35.25,22.948,45.634
		c-5.52,8.754-8.727,19.125-8.727,30.22l0,0v2.534c0,31.358,25.52,56.871,56.883,56.871l0,0h15.786
		c0.805,22.06,14.221,40.94,33.247,49.629c1.76,19.914,7.74,57.246,28,86.353c3.682,5.289,9.584,8.121,15.578,8.121
		c3.74,0,7.513-1.099,10.818-3.388c8.591-5.987,10.708-17.806,4.727-26.405c-12.89-18.517-18.208-42.866-20.403-59.534l0,0h156.773
		c0.519,0.776,1.039,1.552,1.545,2.302c5.961,8.612,17.779,10.759,26.377,4.797c8.623-5.961,10.779-17.767,4.805-26.379
		c-22.598-32.677-16.649-68.043,18.182-108.09c5.805-5.043,23.325-22.254,21.26-45.569c-1.571-17.715-13.468-32.612-35.39-44.25
		c-0.649-0.362-1.325-0.659-2.026-0.931c-0.883-0.336-21.61-8.677-18.468-29.767c1.922-12.776,28-15.698,45.065-14.547
		c43.909,2.974,75.273,14.806,90.702,34.177c10.909,13.707,14.429,31.526,10.753,54.491c-0.779,4.888-1.558,9.931-2.351,15.09
		c-10.922,70.513-24.507,158.288-94.559,217.396c-8,6.763-9.013,18.711-2.26,26.728c3.74,4.435,9.104,6.724,14.494,6.724
		c4.312,0,8.662-1.461,12.221-4.474c80.909-68.25,96.325-167.857,107.572-240.581c0.792-5.082,1.558-10.073,2.338-14.909
		c5.364-33.595-0.87-61.888-18.546-84.077C736.367,406.228,715.587,393.219,688.392,385.04z M396.839,101.263h234.67
		c10.468,0,18.961,8.502,18.961,18.957l0,0v15.685H377.878V120.22C377.878,109.765,386.385,101.263,396.839,101.263z
		 M310.014,504.762c-10.461,0-18.961-8.509-18.961-18.97l0,0v-2.522c0-10.461,8.5-18.957,18.961-18.957l0,0h14.221h14.214v40.448
		h-14.214H310.014z M305.274,404.896c0-10.448,8.5-18.957,18.961-18.957l0,0h14.214v40.448h-14.214
		c-10.461,0-18.961-8.509-18.961-18.957l0,0V404.896z M338.449,583.137h-14.214c-10.461,0-18.961-8.509-18.961-18.97l0,0v-2.522
		c0-10.461,8.5-18.957,18.961-18.957l0,0h14.214V583.137z M396.839,637.913c-10.455,0-18.961-8.509-18.961-18.97l0,0v-15.685h173.41
		c-1.61,12.646-0.818,24.259,1.39,34.655l0,0H396.839z M547.535,422.327c-5.922,39.634,23.572,62.922,41.013,70.228
		c10.312,5.625,14.312,10.707,14.597,13.629c0.403,4.073-4.831,10.772-8.494,13.746c-0.909,0.724-1.753,1.526-2.519,2.392
		c-13.247,15.039-22.727,29.431-29.26,43.021l0,0H377.878V173.825H650.47v203.463c-5.74-0.724-11.662-1.319-17.792-1.733
		C584.938,372.329,552.34,390.245,547.535,422.327z"/>
	<g transform="matrix(1.896076 0 0 1.896076 128 0)">
	</g>
	<path fill="#FFFFFF" d="M780.159,399.905c-3.26-4.099-9.221-4.784-13.325-1.513c-4.091,3.272-4.779,9.22-1.506,13.319
		c14.52,18.246,30.208,50.211,22.416,98.883c-0.818,5.172,2.701,10.034,7.87,10.862c0.519,0.078,1.013,0.116,1.507,0.116
		c4.584,0,8.61-3.323,9.351-7.991C815.341,458.081,797.055,421.125,780.159,399.905z"/>
	<g transform="matrix(1.896076 0 0 1.896076 128 0)">
	</g>
	<path fill="#FFFFFF" d="M631.535,41.012c41.818,0,75.844,34.021,75.844,75.84c0,5.237,4.234,9.485,9.481,9.485
		c5.221,0,9.481-4.248,9.481-9.485c0-52.274-42.546-94.804-94.806-94.804c-5.247,0-9.481,4.248-9.481,9.485
		S626.288,41.012,631.535,41.012z"/>
	<g transform="matrix(1.896076 0 0 1.896076 128 0)">
	</g>
	<path fill="#FFFFFF" d="M678.795,18.628c21.468,5.909,39.195,20.922,48.637,41.198c1.61,3.453,5.013,5.483,8.597,5.483
		c1.338,0,2.701-0.284,4-0.886c4.74-2.211,6.805-7.849,4.584-12.595c-11.779-25.332-33.935-44.095-60.779-51.485
		c-5.052-1.397-10.273,1.578-11.649,6.627C670.782,12.014,673.743,17.238,678.795,18.628z"/>
	<g transform="matrix(1.896076 0 0 1.896076 128 0)">
	</g>
	<path fill="#FFFFFF" d="M317.865,639.297c-38.955-3.259-69.468-36.453-69.468-75.556l0,0v-2.534c0-7.177,1.026-14.341,3.058-21.271
		l0,0l1.357-4.629l-2.935-3.815c-10.273-13.371-15.701-29.302-15.701-46.125l0,0v-2.522c0-16.81,5.429-32.767,15.701-46.125l0,0
		l2.935-3.815l-1.357-4.629c-2.032-6.931-3.058-14.095-3.058-21.284l0,0v-2.522c0-37.235,27.747-69.478,64.539-74.993
		c5.175-0.776,8.74-5.606,7.961-10.784c-0.773-5.179-5.571-8.754-10.779-7.972c-46,6.905-80.682,47.205-80.682,93.75l0,0v2.522
		c0,7.422,0.87,14.793,2.597,22.009c-11.02,15.879-16.818,34.396-16.818,53.845l0,0v2.522c0,19.435,5.799,37.952,16.818,53.832
		c-1.727,7.216-2.597,14.599-2.597,22.009l0,0v2.534c0,48.879,38.15,90.375,86.851,94.448c0.266,0.013,0.532,0.026,0.799,0.026
		c4.877,0,9.026-3.75,9.435-8.69C326.962,644.314,323.086,639.724,317.865,639.297z"/>
</g>
</svg>
