<svg width="42" height="52" viewBox="0 0 42 52" fill="none" xmlns="http://www.w3.org/2000/svg">
<g filter="url(#filter0_d)">
<g filter="url(#filter1_d)">
<rect x="4" width="28" height="42" rx="5.11111" fill="white"/>
<rect x="4.16667" y="0.166667" width="27.6667" height="41.6667" rx="4.94445" stroke="white" stroke-width="0.333333"/>
</g>
<rect x="4.16667" y="0.166667" width="27.6667" height="39.6667" rx="4.5" fill="#C9DAF4" stroke="white" stroke-width="0.333333"/>
<g clip-path="url(#clip0)">
<path d="M22.0417 25.3333C21.8663 25.3333 21.6988 25.2596 21.5826 25.1317L19.0842 22.425C18.9772 22.3108 18.9167 22.1592 18.9167 22C18.9167 21.8408 18.9772 21.6892 19.0859 21.5737L21.5842 18.8671C21.6988 18.7404 21.8663 18.6667 22.0417 18.6667C22.3863 18.6667 22.6667 18.9471 22.6667 19.2917V24.7083C22.6667 25.0529 22.3863 25.3333 22.0417 25.3333ZM22.0417 19.0833C21.9826 19.0833 21.9292 19.1062 21.8922 19.1479L19.3905 21.8579C19.353 21.8975 19.3334 21.9475 19.3334 22C19.3334 22.0525 19.353 22.1025 19.3888 22.1404L21.8905 24.8504C22.0055 24.9779 22.2501 24.8821 22.2501 24.7083V19.2917C22.2501 19.1767 22.1563 19.0833 22.0417 19.0833Z" fill="#0C53C7"/>
<path d="M13.2917 25.3333C12.9472 25.3333 12.6667 25.0529 12.6667 24.7083V19.2917C12.6667 18.9471 12.9472 18.6667 13.2917 18.6667C13.4676 18.6667 13.6347 18.7404 13.7509 18.8687L16.2488 21.575C16.3563 21.6887 16.4167 21.8404 16.4167 22C16.4167 22.1596 16.3563 22.3112 16.2467 22.4267L13.7488 25.1333C13.6347 25.2596 13.4676 25.3333 13.2917 25.3333ZM13.2917 19.0833C13.1772 19.0833 13.0834 19.1767 13.0834 19.2917V24.7083C13.0834 24.8821 13.3313 24.9746 13.4405 24.8525L15.9426 22.1421C15.9805 22.1025 16.0001 22.0525 16.0001 22C16.0001 21.9475 15.9805 21.8975 15.9447 21.86L13.4426 19.1496C13.4038 19.1062 13.3509 19.0833 13.2917 19.0833Z" fill="#0C53C7"/>
<path d="M17.6668 24.9167C17.5518 24.9167 17.4585 24.8233 17.4585 24.7083V19.2917C17.4585 19.1767 17.5518 19.0833 17.6668 19.0833C17.7818 19.0833 17.8752 19.1767 17.8752 19.2917V24.7083C17.8752 24.8233 17.7818 24.9167 17.6668 24.9167Z" fill="#0C53C7"/>
<path d="M21.2083 18.6667H18.2916C18.1766 18.6667 18.0833 18.5733 18.0833 18.4583C18.0833 18.3433 18.1766 18.25 18.2916 18.25H20.9999V15.5417C20.9999 15.4267 21.0933 15.3333 21.2083 15.3333C21.3233 15.3333 21.4166 15.4267 21.4166 15.5417V18.4583C21.4166 18.5733 21.3233 18.6667 21.2083 18.6667Z" fill="#0C53C7"/>
<path d="M21.2084 18.6667C21.1225 18.6667 21.0425 18.6133 21.0121 18.5279C20.51 17.1154 19.1659 16.1667 17.6667 16.1667C16.1675 16.1667 14.8234 17.1154 14.3213 18.5279C14.2829 18.6362 14.1634 18.6929 14.0554 18.6546C13.9467 18.6162 13.8904 18.4971 13.9288 18.3887C14.4896 16.8104 15.9917 15.75 17.6667 15.75C19.3417 15.75 20.8438 16.8104 21.4046 18.3887C21.4434 18.4971 21.3867 18.6162 21.2779 18.655C21.255 18.6629 21.2317 18.6667 21.2084 18.6667Z" fill="#0C53C7"/>
</g>
</g>
<defs>
<filter id="filter0_d" x="0" y="0" width="36" height="50" filterUnits="userSpaceOnUse" color-interpolation-filters="sRGB">
<feFlood flood-opacity="0" result="BackgroundImageFix"/>
<feColorMatrix in="SourceAlpha" type="matrix" values="0 0 0 0 0 0 0 0 0 0 0 0 0 0 0 0 0 0 127 0"/>
<feOffset dy="4"/>
<feGaussianBlur stdDeviation="2"/>
<feColorMatrix type="matrix" values="0 0 0 0 0 0 0 0 0 0 0 0 0 0 0 0 0 0 0.25 0"/>
<feBlend mode="normal" in2="BackgroundImageFix" result="effect1_dropShadow"/>
<feBlend mode="normal" in="SourceGraphic" in2="effect1_dropShadow" result="shape"/>
</filter>
<filter id="filter1_d" x="4" y="0" width="38" height="52" filterUnits="userSpaceOnUse" color-interpolation-filters="sRGB">
<feFlood flood-opacity="0" result="BackgroundImageFix"/>
<feColorMatrix in="SourceAlpha" type="matrix" values="0 0 0 0 0 0 0 0 0 0 0 0 0 0 0 0 0 0 127 0"/>
<feOffset dx="5" dy="5"/>
<feGaussianBlur stdDeviation="2.5"/>
<feColorMatrix type="matrix" values="0 0 0 0 0 0 0 0 0 0 0 0 0 0 0 0 0 0 0.1 0"/>
<feBlend mode="normal" in2="BackgroundImageFix" result="effect1_dropShadow"/>
<feBlend mode="normal" in="SourceGraphic" in2="effect1_dropShadow" result="shape"/>
</filter>
<clipPath id="clip0">
<rect width="10" height="10" fill="white" transform="translate(12.6667 15.3333)"/>
</clipPath>
</defs>
</svg>
