<svg width="53" height="55" viewBox="0 0 53 55" fill="none" xmlns="http://www.w3.org/2000/svg">
<g filter="url(#filter0_d)">
<rect width="23.3834" height="35.0751" rx="4.2684" transform="matrix(-0.95275 -0.303755 -0.303755 0.95275 49.0298 14.1028)" fill="white"/>
<rect x="-0.174889" y="0.0903318" width="23.105" height="34.7967" rx="4.12921" transform="matrix(-0.95275 -0.303755 -0.303755 0.95275 48.7157 14.054)" stroke="white" stroke-width="0.278374"/>
</g>
<g filter="url(#filter1_d)">
<rect x="4.40527" y="14.1028" width="23.3834" height="35.0751" rx="4.2684" transform="rotate(-17.6832 4.40527 14.1028)" fill="white"/>
<rect x="4.58016" y="14.1932" width="23.105" height="34.7967" rx="4.12921" transform="rotate(-17.6832 4.58016 14.1932)" stroke="white" stroke-width="0.278374"/>
</g>
<rect x="-0.166667" y="0.166667" width="27.6667" height="39.6667" rx="4.5" transform="matrix(-1 0 0 1 40.6668 7)" fill="#2196F5" stroke="white" stroke-width="0.333333"/>
<g clip-path="url(#clip0)">
<path d="M23.6745 28.9408L26.5897 28.846C26.7046 28.8423 26.8009 28.9325 26.8047 29.0475C26.8084 29.1624 26.7181 29.2587 26.6032 29.2625L23.8963 29.3505L23.9844 32.0574C23.9881 32.1723 23.8978 32.2687 23.7829 32.2724C23.668 32.2761 23.5716 32.1859 23.5679 32.071L23.4731 29.1558C23.4693 29.0409 23.5596 28.9446 23.6745 28.9408Z" fill="white"/>
<path d="M23.6744 28.9408C23.7602 28.938 23.8419 28.9887 23.8751 29.0731C24.4228 30.4686 25.7971 31.3731 27.2955 31.3244C28.7939 31.2756 30.1065 30.2837 30.5624 28.8556C30.5972 28.7461 30.7148 28.6856 30.824 28.7204C30.9339 28.7551 30.994 28.8724 30.9592 28.9819C30.45 30.5777 28.9832 31.6864 27.309 31.7408C25.6349 31.7953 24.0992 30.7843 23.4873 29.225C23.4451 29.118 23.4978 28.997 23.6053 28.9548C23.6279 28.9461 23.6511 28.9416 23.6744 28.9408Z" fill="white"/>
</g>
<g clip-path="url(#clip1)">
<path d="M30.6694 24.4988L27.7533 24.4421C27.6383 24.4399 27.5468 24.3447 27.5491 24.2298C27.5513 24.1148 27.6465 24.0233 27.7614 24.0255L30.4693 24.0782L30.5219 21.3704C30.5242 21.2554 30.6193 21.1639 30.7343 21.1661C30.8493 21.1684 30.9408 21.2635 30.9385 21.3785L30.8818 24.2946C30.8796 24.4096 30.7844 24.5011 30.6694 24.4988Z" fill="white"/>
<path d="M30.6695 24.4988C30.5837 24.4972 30.5048 24.4423 30.476 24.3563C30.0015 22.9343 28.676 21.9596 27.1772 21.9304C25.6783 21.9013 24.3159 22.8237 23.7865 24.2262C23.746 24.3337 23.6254 24.3881 23.5182 24.3476C23.4102 24.3072 23.3563 24.1869 23.3967 24.0794C23.9882 22.5123 25.5106 21.4813 27.1853 21.5138C28.86 21.5464 30.3411 22.6358 30.8712 24.2248C30.9078 24.3338 30.8488 24.4519 30.7393 24.4885C30.7163 24.496 30.6929 24.4993 30.6695 24.4988Z" fill="white"/>
</g>
<defs>
<filter id="filter0_d" x="13.0151" y="8.09373" width="39.0966" height="46.6844" filterUnits="userSpaceOnUse" color-interpolation-filters="sRGB">
<feFlood flood-opacity="0" result="BackgroundImageFix"/>
<feColorMatrix in="SourceAlpha" type="matrix" values="0 0 0 0 0 0 0 0 0 0 0 0 0 0 0 0 0 0 127 0"/>
<feOffset dy="4.17561"/>
<feGaussianBlur stdDeviation="2.0878"/>
<feColorMatrix type="matrix" values="0 0 0 0 0 0 0 0 0 0 0 0 0 0 0 0 0 0 0.1 0"/>
<feBlend mode="normal" in2="BackgroundImageFix" result="effect1_dropShadow"/>
<feBlend mode="normal" in="SourceGraphic" in2="effect1_dropShadow" result="shape"/>
</filter>
<filter id="filter1_d" x="1.32341" y="8.09372" width="39.0966" height="46.6844" filterUnits="userSpaceOnUse" color-interpolation-filters="sRGB">
<feFlood flood-opacity="0" result="BackgroundImageFix"/>
<feColorMatrix in="SourceAlpha" type="matrix" values="0 0 0 0 0 0 0 0 0 0 0 0 0 0 0 0 0 0 127 0"/>
<feOffset dy="4.17561"/>
<feGaussianBlur stdDeviation="2.0878"/>
<feColorMatrix type="matrix" values="0 0 0 0 0 0 0 0 0 0 0 0 0 0 0 0 0 0 0.1 0"/>
<feBlend mode="normal" in2="BackgroundImageFix" result="effect1_dropShadow"/>
<feBlend mode="normal" in="SourceGraphic" in2="effect1_dropShadow" result="shape"/>
</filter>
<clipPath id="clip0">
<rect width="10" height="10" fill="white" transform="translate(32.3198 31.9947) rotate(178.137)"/>
</clipPath>
<clipPath id="clip1">
<rect width="10" height="10" fill="white" transform="translate(22.1945 21) rotate(1.11445)"/>
</clipPath>
</defs>
</svg>
