<svg width="54" height="54" viewBox="0 0 54 54" fill="none" xmlns="http://www.w3.org/2000/svg">
<g filter="url(#filter0_d)">
<g filter="url(#filter1_d)">
<rect width="23.3834" height="35.0751" rx="4.2684" transform="matrix(-0.95275 -0.303755 -0.303755 0.95275 48.6245 13.1028)" fill="white"/>
<rect x="-0.174889" y="0.0903318" width="23.105" height="34.7967" rx="4.12921" transform="matrix(-0.95275 -0.303755 -0.303755 0.95275 48.3104 13.054)" stroke="white" stroke-width="0.278374"/>
</g>
<g filter="url(#filter2_d)">
<rect x="4" y="13.1028" width="23.3834" height="35.0751" rx="4.2684" transform="rotate(-17.6832 4 13.1028)" fill="white"/>
<rect x="4.17489" y="13.1932" width="23.105" height="34.7967" rx="4.12921" transform="rotate(-17.6832 4.17489 13.1932)" stroke="white" stroke-width="0.278374"/>
</g>
<rect x="-0.166667" y="0.166667" width="27.6667" height="39.6667" rx="4.5" transform="matrix(-1 0 0 1 40.2615 6)" fill="#2196F5" stroke="white" stroke-width="0.333333"/>
<g clip-path="url(#clip0)">
<path d="M23.2693 27.9408L26.1844 27.846C26.2993 27.8423 26.3956 27.9325 26.3994 28.0475C26.4031 28.1624 26.3129 28.2587 26.1979 28.2625L23.491 28.3505L23.5791 31.0574C23.5828 31.1723 23.4926 31.2687 23.3776 31.2724C23.2627 31.2761 23.1664 31.1859 23.1626 31.071L23.0678 28.1558C23.0641 28.0409 23.1543 27.9446 23.2693 27.9408Z" fill="white"/>
<path d="M23.2692 27.9408C23.3549 27.938 23.4366 27.9887 23.4698 28.0731C24.0175 29.4686 25.3919 30.3731 26.8902 30.3244C28.3886 30.2756 29.7012 29.2837 30.1571 27.8556C30.1919 27.7461 30.3096 27.6856 30.4187 27.7204C30.5286 27.7551 30.5887 27.8724 30.5539 27.9819C30.0447 29.5777 28.5779 30.6864 26.9038 30.7408C25.2297 30.7953 23.6939 29.7843 23.082 28.225C23.0398 28.118 23.0926 27.997 23.2 27.9548C23.2226 27.9461 23.2458 27.9416 23.2692 27.9408Z" fill="white"/>
</g>
<g clip-path="url(#clip1)">
<path d="M30.2642 23.4988L27.3481 23.4421C27.2331 23.4399 27.1416 23.3447 27.1438 23.2298C27.146 23.1148 27.2412 23.0233 27.3562 23.0255L30.064 23.0782L30.1167 20.3704C30.1189 20.2554 30.214 20.1639 30.329 20.1661C30.444 20.1684 30.5355 20.2635 30.5332 20.3785L30.4765 23.2946C30.4743 23.4096 30.3791 23.5011 30.2642 23.4988Z" fill="white"/>
<path d="M30.2643 23.4988C30.1784 23.4972 30.0995 23.4423 30.0708 23.3563C29.5962 21.9343 28.2708 20.9596 26.7719 20.9304C25.273 20.9013 23.9106 21.8237 23.3812 23.2262C23.3408 23.3337 23.2201 23.3881 23.1129 23.3476C23.005 23.3072 22.951 23.1869 22.9915 23.0794C23.5829 21.5123 25.1053 20.4813 26.78 20.5138C28.4547 20.5464 29.9359 21.6358 30.4659 23.2248C30.5025 23.3338 30.4435 23.4519 30.3341 23.4885C30.311 23.496 30.2876 23.4993 30.2643 23.4988Z" fill="white"/>
</g>
</g>
<defs>
<filter id="filter0_d" x="1.09375" y="6" width="50.437" height="48" filterUnits="userSpaceOnUse" color-interpolation-filters="sRGB">
<feFlood flood-opacity="0" result="BackgroundImageFix"/>
<feColorMatrix in="SourceAlpha" type="matrix" values="0 0 0 0 0 0 0 0 0 0 0 0 0 0 0 0 0 0 127 0"/>
<feOffset dy="4"/>
<feGaussianBlur stdDeviation="2"/>
<feColorMatrix type="matrix" values="0 0 0 0 0 0 0 0 0 0 0 0 0 0 0 0 0 0 0.25 0"/>
<feBlend mode="normal" in2="BackgroundImageFix" result="effect1_dropShadow"/>
<feBlend mode="normal" in="SourceGraphic" in2="effect1_dropShadow" result="shape"/>
</filter>
<filter id="filter1_d" x="12.6098" y="7.09373" width="39.0966" height="46.6844" filterUnits="userSpaceOnUse" color-interpolation-filters="sRGB">
<feFlood flood-opacity="0" result="BackgroundImageFix"/>
<feColorMatrix in="SourceAlpha" type="matrix" values="0 0 0 0 0 0 0 0 0 0 0 0 0 0 0 0 0 0 127 0"/>
<feOffset dy="4.17561"/>
<feGaussianBlur stdDeviation="2.0878"/>
<feColorMatrix type="matrix" values="0 0 0 0 0 0 0 0 0 0 0 0 0 0 0 0 0 0 0.1 0"/>
<feBlend mode="normal" in2="BackgroundImageFix" result="effect1_dropShadow"/>
<feBlend mode="normal" in="SourceGraphic" in2="effect1_dropShadow" result="shape"/>
</filter>
<filter id="filter2_d" x="0.918141" y="7.09372" width="39.0966" height="46.6844" filterUnits="userSpaceOnUse" color-interpolation-filters="sRGB">
<feFlood flood-opacity="0" result="BackgroundImageFix"/>
<feColorMatrix in="SourceAlpha" type="matrix" values="0 0 0 0 0 0 0 0 0 0 0 0 0 0 0 0 0 0 127 0"/>
<feOffset dy="4.17561"/>
<feGaussianBlur stdDeviation="2.0878"/>
<feColorMatrix type="matrix" values="0 0 0 0 0 0 0 0 0 0 0 0 0 0 0 0 0 0 0.1 0"/>
<feBlend mode="normal" in2="BackgroundImageFix" result="effect1_dropShadow"/>
<feBlend mode="normal" in="SourceGraphic" in2="effect1_dropShadow" result="shape"/>
</filter>
<clipPath id="clip0">
<rect width="10" height="10" fill="white" transform="translate(31.9146 30.9947) rotate(178.137)"/>
</clipPath>
<clipPath id="clip1">
<rect width="10" height="10" fill="white" transform="translate(21.7892 20) rotate(1.11445)"/>
</clipPath>
</defs>
</svg>
