<svg width="54" height="57" viewBox="0 0 54 57" fill="none" xmlns="http://www.w3.org/2000/svg">
<g filter="url(#filter0_d)">
<g filter="url(#filter1_d)">
<rect x="13" y="5" width="28" height="42" rx="5.11111" fill="white"/>
<rect x="13.1667" y="5.16667" width="27.6667" height="41.6667" rx="4.94445" stroke="white" stroke-width="0.333333"/>
</g>
<rect x="13.1667" y="5.16667" width="27.6667" height="39.6667" rx="4.5" fill="#C9DAF4" stroke="white" stroke-width="0.333333"/>
<g clip-path="url(#clip0)">
<path d="M31.0417 30.3333C30.8663 30.3333 30.6988 30.2596 30.5826 30.1316L28.0842 27.425C27.9772 27.3108 27.9167 27.1591 27.9167 27C27.9167 26.8408 27.9772 26.6891 28.0859 26.5737L30.5842 23.8671C30.6988 23.7404 30.8663 23.6666 31.0417 23.6666C31.3863 23.6666 31.6667 23.9471 31.6667 24.2916V29.7083C31.6667 30.0529 31.3863 30.3333 31.0417 30.3333ZM31.0417 24.0833C30.9826 24.0833 30.9292 24.1062 30.8922 24.1479L28.3905 26.8579C28.353 26.8975 28.3334 26.9475 28.3334 27C28.3334 27.0525 28.353 27.1025 28.3888 27.1404L30.8905 29.8504C31.0055 29.9779 31.2501 29.8821 31.2501 29.7083V24.2916C31.2501 24.1766 31.1563 24.0833 31.0417 24.0833Z" fill="#0C53C7"/>
<path d="M22.2917 30.3333C21.9472 30.3333 21.6667 30.0529 21.6667 29.7083V24.2916C21.6667 23.9471 21.9472 23.6666 22.2917 23.6666C22.4676 23.6666 22.6347 23.7404 22.7509 23.8687L25.2488 26.575C25.3563 26.6887 25.4167 26.8404 25.4167 27C25.4167 27.1596 25.3563 27.3112 25.2467 27.4266L22.7488 30.1333C22.6347 30.2596 22.4676 30.3333 22.2917 30.3333ZM22.2917 24.0833C22.1772 24.0833 22.0834 24.1766 22.0834 24.2916V29.7083C22.0834 29.8821 22.3313 29.9746 22.4405 29.8525L24.9426 27.1421C24.9805 27.1025 25.0001 27.0525 25.0001 27C25.0001 26.9475 24.9805 26.8975 24.9447 26.86L22.4426 24.1496C22.4038 24.1062 22.3509 24.0833 22.2917 24.0833Z" fill="#0C53C7"/>
<path d="M26.6668 29.9166C26.5518 29.9166 26.4585 29.8233 26.4585 29.7083V24.2916C26.4585 24.1766 26.5518 24.0833 26.6668 24.0833C26.7818 24.0833 26.8752 24.1766 26.8752 24.2916V29.7083C26.8752 29.8233 26.7818 29.9166 26.6668 29.9166Z" fill="#0C53C7"/>
<path d="M30.2083 23.6666H27.2916C27.1766 23.6666 27.0833 23.5733 27.0833 23.4583C27.0833 23.3433 27.1766 23.25 27.2916 23.25H29.9999V20.5416C29.9999 20.4266 30.0933 20.3333 30.2083 20.3333C30.3233 20.3333 30.4166 20.4266 30.4166 20.5416V23.4583C30.4166 23.5733 30.3233 23.6666 30.2083 23.6666Z" fill="#0C53C7"/>
<path d="M30.2084 23.6666C30.1225 23.6666 30.0425 23.6133 30.0121 23.5279C29.51 22.1154 28.1659 21.1666 26.6667 21.1666C25.1675 21.1666 23.8234 22.1154 23.3213 23.5279C23.2829 23.6362 23.1634 23.6929 23.0554 23.6546C22.9467 23.6162 22.8904 23.4971 22.9288 23.3887C23.4896 21.8104 24.9917 20.75 26.6667 20.75C28.3417 20.75 29.8438 21.8104 30.4046 23.3887C30.4434 23.4971 30.3867 23.6162 30.2779 23.655C30.255 23.6629 30.2317 23.6666 30.2084 23.6666Z" fill="#0C53C7"/>
</g>
</g>
<defs>
<filter id="filter0_d" x="9" y="5" width="36" height="50" filterUnits="userSpaceOnUse" color-interpolation-filters="sRGB">
<feFlood flood-opacity="0" result="BackgroundImageFix"/>
<feColorMatrix in="SourceAlpha" type="matrix" values="0 0 0 0 0 0 0 0 0 0 0 0 0 0 0 0 0 0 127 0"/>
<feOffset dy="4"/>
<feGaussianBlur stdDeviation="2"/>
<feColorMatrix type="matrix" values="0 0 0 0 0 0 0 0 0 0 0 0 0 0 0 0 0 0 0.25 0"/>
<feBlend mode="normal" in2="BackgroundImageFix" result="effect1_dropShadow"/>
<feBlend mode="normal" in="SourceGraphic" in2="effect1_dropShadow" result="shape"/>
</filter>
<filter id="filter1_d" x="13" y="5" width="38" height="52" filterUnits="userSpaceOnUse" color-interpolation-filters="sRGB">
<feFlood flood-opacity="0" result="BackgroundImageFix"/>
<feColorMatrix in="SourceAlpha" type="matrix" values="0 0 0 0 0 0 0 0 0 0 0 0 0 0 0 0 0 0 127 0"/>
<feOffset dx="5" dy="5"/>
<feGaussianBlur stdDeviation="2.5"/>
<feColorMatrix type="matrix" values="0 0 0 0 0 0 0 0 0 0 0 0 0 0 0 0 0 0 0.1 0"/>
<feBlend mode="normal" in2="BackgroundImageFix" result="effect1_dropShadow"/>
<feBlend mode="normal" in="SourceGraphic" in2="effect1_dropShadow" result="shape"/>
</filter>
<clipPath id="clip0">
<rect width="10" height="10" fill="white" transform="translate(21.6667 20.3333)"/>
</clipPath>
</defs>
</svg>
