<svg width="48" height="58" viewBox="0 0 48 58" fill="none" xmlns="http://www.w3.org/2000/svg">
<g filter="url(#filter0_d)">
<rect width="28" height="42" rx="5.11111" transform="matrix(-0.95275 -0.303755 -0.303755 0.95275 43.4348 8.50513)" fill="white"/>
<rect x="-0.209418" y="0.108166" width="27.6667" height="41.6667" rx="4.94445" transform="matrix(-0.95275 -0.303755 -0.303755 0.95275 43.0587 8.44663)" stroke="white" stroke-width="0.333333"/>
</g>
<rect x="-0.166667" y="0.166667" width="27.6667" height="39.6667" rx="4.5" transform="matrix(-1 0 0 1 30.6667 3.00002)" fill="#0AD1A5" stroke="white" stroke-width="0.333333"/>
<g clip-path="url(#clip0)">
<path d="M21.0206 22.6031L18.5373 24.1327C18.4394 24.1931 18.3109 24.1625 18.2506 24.0646C18.1903 23.9667 18.2208 23.8383 18.3187 23.778L20.6247 22.3576L19.2043 20.0516C19.144 19.9537 19.1745 19.8253 19.2724 19.765C19.3703 19.7046 19.4988 19.7352 19.5591 19.8331L21.0887 22.3164C21.1491 22.4143 21.1185 22.5428 21.0206 22.6031Z" fill="white"/>
<path d="M21.0207 22.603C20.9476 22.648 20.8516 22.6446 20.7809 22.5878C19.6126 21.6485 17.9705 21.5456 16.6941 22.3319C15.4176 23.1181 14.7707 24.6309 15.084 26.0969C15.1082 26.2092 15.0361 26.3202 14.9241 26.3441C14.8114 26.3685 14.7011 26.2966 14.6769 26.1842C14.3266 24.5462 15.0494 22.8556 16.4756 21.9771C17.9017 21.0986 19.7368 21.2137 21.0421 22.2635C21.1319 22.3354 21.1461 22.4666 21.0739 22.5566C21.0585 22.5753 21.0406 22.5908 21.0207 22.603Z" fill="white"/>
</g>
<defs>
<filter id="filter0_d" x="0.309814" y="1.30965" width="46.8154" height="55.9013" filterUnits="userSpaceOnUse" color-interpolation-filters="sRGB">
<feFlood flood-opacity="0" result="BackgroundImageFix"/>
<feColorMatrix in="SourceAlpha" type="matrix" values="0 0 0 0 0 0 0 0 0 0 0 0 0 0 0 0 0 0 127 0"/>
<feOffset dy="5"/>
<feGaussianBlur stdDeviation="2.5"/>
<feColorMatrix type="matrix" values="0 0 0 0 0 0 0 0 0 0 0 0 0 0 0 0 0 0 0.1 0"/>
<feBlend mode="normal" in2="BackgroundImageFix" result="effect1_dropShadow"/>
<feBlend mode="normal" in="SourceGraphic" in2="effect1_dropShadow" result="shape"/>
</filter>
<clipPath id="clip0">
<rect width="10" height="10" fill="white" transform="translate(12 24.2446) rotate(-31.6318)"/>
</clipPath>
</defs>
</svg>
