<svg width="38" height="52" viewBox="0 0 38 52" fill="none" xmlns="http://www.w3.org/2000/svg">
<g filter="url(#filter0_d)">
<rect width="28" height="42" rx="5.11111" fill="white"/>
<rect x="0.166667" y="0.166667" width="27.6667" height="41.6667" rx="4.94445" stroke="white" stroke-width="0.333333"/>
</g>
<rect x="0.166667" y="0.166667" width="27.6667" height="39.6667" rx="4.5" fill="#C9DAF4" stroke="white" stroke-width="0.333333"/>
<g clip-path="url(#clip0)">
<path d="M18.0417 25.3333C17.8663 25.3333 17.6988 25.2596 17.5826 25.1317L15.0842 22.425C14.9772 22.3108 14.9167 22.1592 14.9167 22C14.9167 21.8408 14.9772 21.6892 15.0859 21.5737L17.5842 18.8671C17.6988 18.7404 17.8663 18.6667 18.0417 18.6667C18.3863 18.6667 18.6667 18.9471 18.6667 19.2917V24.7083C18.6667 25.0529 18.3863 25.3333 18.0417 25.3333ZM18.0417 19.0833C17.9826 19.0833 17.9292 19.1062 17.8922 19.1479L15.3905 21.8579C15.353 21.8975 15.3334 21.9475 15.3334 22C15.3334 22.0525 15.353 22.1025 15.3888 22.1404L17.8905 24.8504C18.0055 24.9779 18.2501 24.8821 18.2501 24.7083V19.2917C18.2501 19.1767 18.1563 19.0833 18.0417 19.0833Z" fill="#0C53C7"/>
<path d="M9.29175 25.3333C8.94716 25.3333 8.66675 25.0529 8.66675 24.7083V19.2917C8.66675 18.9471 8.94716 18.6667 9.29175 18.6667C9.46758 18.6667 9.63466 18.7404 9.75091 18.8687L12.2488 21.575C12.3563 21.6887 12.4167 21.8404 12.4167 22C12.4167 22.1596 12.3563 22.3112 12.2467 22.4267L9.74883 25.1333C9.63466 25.2596 9.46758 25.3333 9.29175 25.3333ZM9.29175 19.0833C9.17716 19.0833 9.08341 19.1767 9.08341 19.2917V24.7083C9.08341 24.8821 9.33133 24.9746 9.4405 24.8525L11.9426 22.1421C11.9805 22.1025 12.0001 22.0525 12.0001 22C12.0001 21.9475 11.9805 21.8975 11.9447 21.86L9.44258 19.1496C9.40383 19.1062 9.35091 19.0833 9.29175 19.0833Z" fill="#0C53C7"/>
<path d="M13.6668 24.9167C13.5518 24.9167 13.4585 24.8233 13.4585 24.7083V19.2917C13.4585 19.1767 13.5518 19.0833 13.6668 19.0833C13.7818 19.0833 13.8752 19.1767 13.8752 19.2917V24.7083C13.8752 24.8233 13.7818 24.9167 13.6668 24.9167Z" fill="#0C53C7"/>
<path d="M17.2083 18.6667H14.2916C14.1766 18.6667 14.0833 18.5733 14.0833 18.4583C14.0833 18.3433 14.1766 18.25 14.2916 18.25H16.9999V15.5417C16.9999 15.4267 17.0933 15.3333 17.2083 15.3333C17.3233 15.3333 17.4166 15.4267 17.4166 15.5417V18.4583C17.4166 18.5733 17.3233 18.6667 17.2083 18.6667Z" fill="#0C53C7"/>
<path d="M17.2084 18.6667C17.1225 18.6667 17.0425 18.6133 17.0121 18.5279C16.51 17.1154 15.1659 16.1667 13.6667 16.1667C12.1675 16.1667 10.8234 17.1154 10.3213 18.5279C10.2829 18.6362 10.1634 18.6929 10.0554 18.6546C9.94669 18.6162 9.89044 18.4971 9.92878 18.3887C10.4896 16.8104 11.9917 15.75 13.6667 15.75C15.3417 15.75 16.8438 16.8104 17.4046 18.3887C17.4434 18.4971 17.3867 18.6162 17.2779 18.655C17.255 18.6629 17.2317 18.6667 17.2084 18.6667Z" fill="#0C53C7"/>
</g>
<defs>
<filter id="filter0_d" x="0" y="0" width="38" height="52" filterUnits="userSpaceOnUse" color-interpolation-filters="sRGB">
<feFlood flood-opacity="0" result="BackgroundImageFix"/>
<feColorMatrix in="SourceAlpha" type="matrix" values="0 0 0 0 0 0 0 0 0 0 0 0 0 0 0 0 0 0 127 0"/>
<feOffset dx="5" dy="5"/>
<feGaussianBlur stdDeviation="2.5"/>
<feColorMatrix type="matrix" values="0 0 0 0 0 0 0 0 0 0 0 0 0 0 0 0 0 0 0.1 0"/>
<feBlend mode="normal" in2="BackgroundImageFix" result="effect1_dropShadow"/>
<feBlend mode="normal" in="SourceGraphic" in2="effect1_dropShadow" result="shape"/>
</filter>
<clipPath id="clip0">
<rect width="10" height="10" fill="white" transform="translate(8.66675 15.3333)"/>
</clipPath>
</defs>
</svg>
