<svg width="56" height="57" viewBox="0 0 56 57" fill="none" xmlns="http://www.w3.org/2000/svg">
<g filter="url(#filter0_d)">
<g filter="url(#filter1_d)">
<rect x="18" y="5" width="28" height="42" rx="5.11111" fill="white"/>
<rect x="18.1667" y="5.16667" width="27.6667" height="41.6667" rx="4.94445" stroke="white" stroke-width="0.333333"/>
</g>
<rect x="18.1667" y="5.16667" width="27.6667" height="39.6667" rx="4.5" fill="#C9DAF4" stroke="white" stroke-width="0.333333"/>
<g clip-path="url(#clip0)">
<path d="M36.0417 30.3333C35.8663 30.3333 35.6988 30.2596 35.5826 30.1317L33.0842 27.425C32.9772 27.3108 32.9167 27.1592 32.9167 27C32.9167 26.8408 32.9772 26.6892 33.0859 26.5737L35.5842 23.8671C35.6988 23.7404 35.8663 23.6667 36.0417 23.6667C36.3863 23.6667 36.6667 23.9471 36.6667 24.2917V29.7083C36.6667 30.0529 36.3863 30.3333 36.0417 30.3333ZM36.0417 24.0833C35.9826 24.0833 35.9292 24.1062 35.8922 24.1479L33.3905 26.8579C33.353 26.8975 33.3334 26.9475 33.3334 27C33.3334 27.0525 33.353 27.1025 33.3888 27.1404L35.8905 29.8504C36.0055 29.9779 36.2501 29.8821 36.2501 29.7083V24.2917C36.2501 24.1767 36.1563 24.0833 36.0417 24.0833Z" fill="#0C53C7"/>
<path d="M27.2917 30.3333C26.9472 30.3333 26.6667 30.0529 26.6667 29.7083V24.2917C26.6667 23.9471 26.9472 23.6667 27.2917 23.6667C27.4676 23.6667 27.6347 23.7404 27.7509 23.8687L30.2488 26.575C30.3563 26.6887 30.4167 26.8404 30.4167 27C30.4167 27.1596 30.3563 27.3112 30.2467 27.4267L27.7488 30.1333C27.6347 30.2596 27.4676 30.3333 27.2917 30.3333ZM27.2917 24.0833C27.1772 24.0833 27.0834 24.1767 27.0834 24.2917V29.7083C27.0834 29.8821 27.3313 29.9746 27.4405 29.8525L29.9426 27.1421C29.9805 27.1025 30.0001 27.0525 30.0001 27C30.0001 26.9475 29.9805 26.8975 29.9447 26.86L27.4426 24.1496C27.4038 24.1062 27.3509 24.0833 27.2917 24.0833Z" fill="#0C53C7"/>
<path d="M31.6668 29.9167C31.5518 29.9167 31.4585 29.8233 31.4585 29.7083V24.2917C31.4585 24.1767 31.5518 24.0833 31.6668 24.0833C31.7818 24.0833 31.8752 24.1767 31.8752 24.2917V29.7083C31.8752 29.8233 31.7818 29.9167 31.6668 29.9167Z" fill="#0C53C7"/>
<path d="M35.2083 23.6667H32.2916C32.1766 23.6667 32.0833 23.5733 32.0833 23.4583C32.0833 23.3433 32.1766 23.25 32.2916 23.25H34.9999V20.5417C34.9999 20.4267 35.0933 20.3333 35.2083 20.3333C35.3233 20.3333 35.4166 20.4267 35.4166 20.5417V23.4583C35.4166 23.5733 35.3233 23.6667 35.2083 23.6667Z" fill="#0C53C7"/>
<path d="M35.2084 23.6667C35.1225 23.6667 35.0425 23.6133 35.0121 23.5279C34.51 22.1154 33.1659 21.1667 31.6667 21.1667C30.1675 21.1667 28.8234 22.1154 28.3213 23.5279C28.2829 23.6362 28.1634 23.6929 28.0554 23.6546C27.9467 23.6162 27.8904 23.4971 27.9288 23.3887C28.4896 21.8104 29.9917 20.75 31.6667 20.75C33.3417 20.75 34.8438 21.8104 35.4046 23.3887C35.4434 23.4971 35.3867 23.6162 35.2779 23.655C35.255 23.6629 35.2317 23.6667 35.2084 23.6667Z" fill="#0C53C7"/>
</g>
</g>
<defs>
<filter id="filter0_d" x="14" y="5" width="36" height="50" filterUnits="userSpaceOnUse" color-interpolation-filters="sRGB">
<feFlood flood-opacity="0" result="BackgroundImageFix"/>
<feColorMatrix in="SourceAlpha" type="matrix" values="0 0 0 0 0 0 0 0 0 0 0 0 0 0 0 0 0 0 127 0"/>
<feOffset dy="4"/>
<feGaussianBlur stdDeviation="2"/>
<feColorMatrix type="matrix" values="0 0 0 0 0 0 0 0 0 0 0 0 0 0 0 0 0 0 0.25 0"/>
<feBlend mode="normal" in2="BackgroundImageFix" result="effect1_dropShadow"/>
<feBlend mode="normal" in="SourceGraphic" in2="effect1_dropShadow" result="shape"/>
</filter>
<filter id="filter1_d" x="18" y="5" width="38" height="52" filterUnits="userSpaceOnUse" color-interpolation-filters="sRGB">
<feFlood flood-opacity="0" result="BackgroundImageFix"/>
<feColorMatrix in="SourceAlpha" type="matrix" values="0 0 0 0 0 0 0 0 0 0 0 0 0 0 0 0 0 0 127 0"/>
<feOffset dx="5" dy="5"/>
<feGaussianBlur stdDeviation="2.5"/>
<feColorMatrix type="matrix" values="0 0 0 0 0 0 0 0 0 0 0 0 0 0 0 0 0 0 0.1 0"/>
<feBlend mode="normal" in2="BackgroundImageFix" result="effect1_dropShadow"/>
<feBlend mode="normal" in="SourceGraphic" in2="effect1_dropShadow" result="shape"/>
</filter>
<clipPath id="clip0">
<rect width="10" height="10" fill="white" transform="translate(26.6667 20.3333)"/>
</clipPath>
</defs>
</svg>
