<svg width="35" height="35" viewBox="0 0 35 35" fill="none" xmlns="http://www.w3.org/2000/svg">
<path fill-rule="evenodd" clip-rule="evenodd" d="M8.35096 14.5551L16.5328 8.1915C16.8611 7.93617 17.3208 7.93617 17.649 8.1915L25.8309 14.5551C26.0523 14.7274 26.1818 14.9922 26.1818 15.2727V25.2727C26.1818 26.779 24.9608 28 23.4545 28H19.8182H14.3636H10.7273C9.22104 28 8 26.779 8 25.2727V15.2727C8 14.9922 8.12952 14.7274 8.35096 14.5551ZM15.2727 26.1818H18.9091V18.9091H15.2727V26.1818ZM20.7273 26.1818V18C20.7273 17.4979 20.3203 17.0909 19.8182 17.0909H14.3636C13.8616 17.0909 13.4545 17.4979 13.4545 18V26.1818H10.7273C10.2252 26.1818 9.81818 25.7748 9.81818 25.2727V15.7173L17.0909 10.0608L24.3636 15.7173V25.2727C24.3636 25.7748 23.9566 26.1818 23.4545 26.1818H20.7273Z" fill="#102B44"/>
</svg>
