<svg width="297" height="182" viewBox="0 0 297 182" fill="none" xmlns="http://www.w3.org/2000/svg">
<path fill-rule="evenodd" clip-rule="evenodd" d="M200 182C310.457 182 400 92.4569 400 -18C400 -128.457 310.457 -218 200 -218C89.5431 -218 0 -128.457 0 -18C0 92.4569 89.5431 182 200 182Z" fill="#145FD8"/>
<mask id="mask0" mask-type="alpha" maskUnits="userSpaceOnUse" x="0" y="-218" width="400" height="400">
<path fill-rule="evenodd" clip-rule="evenodd" d="M200 182C310.457 182 400 92.4569 400 -18C400 -128.457 310.457 -218 200 -218C89.5431 -218 0 -128.457 0 -18C0 92.4569 89.5431 182 200 182Z" fill="white"/>
</mask>
<g mask="url(#mask0)">
<path fill-rule="evenodd" clip-rule="evenodd" d="M348.605 175.144C346.291 216.125 289.211 244.678 259.587 225.719C223.368 202.544 227.687 214.131 192.285 210.621C156.888 207.11 120.586 186.741 110.752 134.905C109.515 128.368 109.026 121.866 109.209 115.495C110.453 71.3392 143.657 33.5278 179.182 35.0441C236.725 37.5025 241.732 95.4425 256.871 100.614C272.013 105.785 309.15 91.5812 341.106 146.324C346.924 156.288 349.121 166.025 348.605 175.144Z" fill="#0E57CB"/>
<path fill-rule="evenodd" clip-rule="evenodd" d="M308.348 199.609C304.642 199.609 304.642 169.979 308.348 169.979H239.523C235.817 169.979 235.817 199.609 239.523 199.609H308.348Z" fill="#EBEBE9"/>
<path fill-rule="evenodd" clip-rule="evenodd" d="M238.045 174.918H307.046C307.311 174.918 307.525 174.733 307.525 174.506C307.525 174.279 307.311 174.095 307.046 174.095H238.045C237.781 174.095 237.567 174.279 237.567 174.506C237.567 174.733 237.781 174.918 238.045 174.918Z" fill="#F8F7F6"/>
<path fill-rule="evenodd" clip-rule="evenodd" d="M238.045 180.679H307.045C307.311 180.679 307.525 180.495 307.525 180.267C307.525 180.04 307.311 179.856 307.045 179.856H238.045C237.781 179.856 237.567 180.04 237.567 180.267C237.567 180.495 237.781 180.679 238.045 180.679Z" fill="#F8F7F6"/>
<path fill-rule="evenodd" clip-rule="evenodd" d="M238.045 178.21H307.045C307.311 178.21 307.525 178.026 307.525 177.798C307.525 177.571 307.311 177.387 307.045 177.387H238.045C237.781 177.387 237.567 177.571 237.567 177.798C237.567 178.026 237.781 178.21 238.045 178.21Z" fill="#F8F7F6"/>
<path fill-rule="evenodd" clip-rule="evenodd" d="M240.036 199.609C236.365 199.609 236.365 169.979 240.036 169.979H164.599C160.929 169.979 160.929 199.609 164.599 199.609H240.036Z" fill="#FF7B5D"/>
<path fill-rule="evenodd" clip-rule="evenodd" d="M164.606 197.475H236.348C235.632 195.085 235.1 191.183 235.1 184.794C235.1 178.416 235.632 174.504 236.348 172.113H164.606C162.701 175.505 162.701 194.092 164.606 197.475ZM164.053 168.333H239.777C240.824 168.333 241.682 169.184 241.682 170.223C241.682 171.055 241.139 171.754 240.395 172.01C238.405 175.137 238.405 194.452 240.395 197.579C241.139 197.834 241.682 198.543 241.682 199.365C241.682 200.414 240.824 201.255 239.777 201.255H164.053C162.891 201.255 159.377 201.255 159.377 184.794C159.377 168.333 162.891 168.333 164.053 168.333Z" fill="#ED6D51"/>
<path fill-rule="evenodd" clip-rule="evenodd" d="M175.062 197.475C175.325 198.997 175.636 200.291 176.013 201.255H183.246C182.87 200.291 182.559 198.997 182.295 197.475C181.145 190.587 181.145 179.002 182.295 172.113C182.559 170.593 182.87 169.297 183.246 168.333H176.013C175.636 169.297 175.325 170.593 175.062 172.113C173.902 179.002 173.902 190.587 175.062 197.475Z" fill="white" fill-opacity="0.19"/>
<path opacity="0.1" fill-rule="evenodd" clip-rule="evenodd" d="M217.86 197.475C218.124 198.997 218.435 200.291 218.811 201.255H226.044C225.667 200.291 225.356 198.997 225.092 197.475C223.943 190.587 223.943 179.002 225.092 172.113C225.356 170.593 225.667 169.297 226.044 168.333H218.811C218.435 169.297 218.124 170.593 217.86 172.113C216.7 179.002 216.7 190.587 217.86 197.475Z" fill="white"/>
<path opacity="0.1" fill-rule="evenodd" clip-rule="evenodd" d="M184.971 197.475C185.244 198.997 185.566 200.291 185.957 201.255H190.653C190.263 200.291 189.941 198.997 189.666 197.475C188.475 190.587 188.475 179.002 189.666 172.113C189.941 170.593 190.263 169.297 190.653 168.333H185.957C185.566 169.297 185.244 170.593 184.971 172.113C183.768 179.002 183.768 190.587 184.971 197.475Z" fill="white"/>
<path opacity="0.1" fill-rule="evenodd" clip-rule="evenodd" d="M191.555 197.475C191.828 198.997 192.15 200.291 192.542 201.255H197.237C196.847 200.291 196.525 198.997 196.251 197.475C195.059 190.587 195.059 179.002 196.251 172.113C196.525 170.593 196.847 169.297 197.237 168.333H192.542C192.15 169.297 191.828 170.593 191.555 172.113C190.352 179.002 190.352 190.587 191.555 197.475Z" fill="white"/>
<path fill-rule="evenodd" clip-rule="evenodd" d="M239.76 201.255H308.092C309.143 201.255 309.995 200.409 309.995 199.366C309.995 198.321 309.143 197.476 308.092 197.476H240.319C238.412 194.087 238.412 175.502 240.319 172.113H308.092C309.143 172.113 309.995 171.266 309.995 170.223C309.995 169.179 309.143 168.333 308.092 168.333H239.76C238.607 168.333 235.097 168.333 235.097 184.795C235.097 201.255 238.607 201.255 239.76 201.255Z" fill="#E8674B"/>
<path fill-rule="evenodd" clip-rule="evenodd" d="M252.963 191.379C252.939 191.379 252.913 191.375 252.886 191.364L249.661 190.311L249.501 190.285L249.341 190.311L246.116 191.364C246.087 191.375 246.061 191.379 246.036 191.379C245.973 191.379 245.924 191.351 245.897 191.332C245.86 191.307 245.797 191.247 245.797 191.142V189.982H253.204V191.142C253.204 191.247 253.14 191.307 253.103 191.332C253.076 191.351 253.026 191.379 252.963 191.379ZM245.797 189.014H253.204V187.039H245.797V189.014ZM245.797 186.07H253.204V184.096H245.797V186.07ZM245.797 183.127H253.204V181.153H245.797V183.127ZM245.797 180.184H253.204V178.21H245.797V180.184Z" fill="#D5D5D3"/>
<path fill-rule="evenodd" clip-rule="evenodd" d="M245.797 180.679H253.204V179.856H245.797V180.679Z" fill="#E0E0DF"/>
<path fill-rule="evenodd" clip-rule="evenodd" d="M253.204 177.926H245.797V177.796L245.948 177.671H253.053L253.204 177.796V177.926Z" fill="#E0E0DF"/>
<path fill-rule="evenodd" clip-rule="evenodd" d="M253.712 191.379H251.491L249.501 190.711L247.51 191.379H245.29C245.088 191.161 244.974 190.874 244.974 190.575V189.43H245.936V190.575C245.936 190.678 245.997 190.737 246.033 190.762C246.059 190.781 246.106 190.808 246.166 190.808C246.191 190.808 246.216 190.804 246.243 190.793L249.347 189.754L249.501 189.729L249.655 189.754L252.759 190.793C252.785 190.804 252.81 190.808 252.833 190.808C252.894 190.808 252.942 190.781 252.968 190.762C253.003 190.737 253.065 190.678 253.065 190.575V189.43H254.027V190.575C254.027 190.875 253.912 191.162 253.712 191.379ZM253.065 188.475H254.027V186.526H253.065V188.475ZM244.974 188.475H245.936V186.526H244.974V188.475ZM253.065 185.57H254.027V183.623H253.065V185.57ZM244.974 185.57H245.936V183.623H244.974V185.57ZM253.065 182.667H254.027V180.719H253.065V182.667ZM244.974 182.667H245.936V180.719H244.974V182.667ZM253.065 179.763H254.027V177.815H253.065V179.763ZM244.974 179.763H245.936V177.815H244.974V179.763ZM253.674 176.859H245.327C245.525 176.677 245.791 176.564 246.082 176.564H252.92C253.211 176.564 253.476 176.677 253.674 176.859Z" fill="#D5D5D3"/>
<path fill-rule="evenodd" clip-rule="evenodd" d="M253.065 180.856H254.027V179.856H253.065V180.856ZM244.974 180.856H245.936V179.856H244.974V180.856Z" fill="#E0E0DF"/>
<path fill-rule="evenodd" clip-rule="evenodd" d="M254.027 178.21H253.065V178.081L252.92 177.956H246.082L245.936 178.081V178.21H244.974V178.081C244.974 177.807 245.11 177.56 245.327 177.387H253.674C253.891 177.56 254.027 177.807 254.027 178.081V178.21Z" fill="#E0E0DF"/>
<path fill-rule="evenodd" clip-rule="evenodd" d="M254.027 177.998V190.68C254.027 191.157 253.54 191.494 253.069 191.342L249.913 190.321L246.756 191.342C246.286 191.494 245.797 191.157 245.797 190.68V177.998C245.797 177.66 246.083 177.387 246.435 177.387H253.39C253.742 177.387 254.027 177.66 254.027 177.998Z" fill="#E8674B"/>
<path fill-rule="evenodd" clip-rule="evenodd" d="M252.92 177.496L253.065 177.637V190.22C253.065 190.322 253.004 190.379 252.969 190.404C252.932 190.429 252.855 190.467 252.757 190.434L249.655 189.421C249.555 189.389 249.449 189.389 249.347 189.421L246.243 190.434C246.148 190.467 246.07 190.429 246.034 190.404C245.998 190.379 245.936 190.322 245.936 190.22V177.637L246.082 177.496H252.92ZM246.169 191.379C246.298 191.379 246.427 191.358 246.551 191.317L249.501 190.354L252.45 191.317C252.819 191.436 253.22 191.377 253.53 191.161C253.842 190.944 254.027 190.592 254.027 190.22V177.637C254.027 177.046 253.531 176.564 252.92 176.564H246.082C245.471 176.564 244.974 177.046 244.974 177.637V190.22C244.974 190.593 245.161 190.944 245.472 191.161C245.678 191.304 245.923 191.379 246.169 191.379Z" fill="#E8674B"/>
<path fill-rule="evenodd" clip-rule="evenodd" d="M172.546 148.58H298.317C305.108 148.58 305.108 166.687 298.317 166.687H172.546V148.58Z" fill="#4FB270"/>
<path fill-rule="evenodd" clip-rule="evenodd" d="M298.442 168.333H172.411C171.577 168.333 170.9 167.669 170.9 166.851C170.9 166.031 171.577 165.368 172.411 165.368H298.442C300.775 165.368 302.034 161.595 302.034 158.045C302.034 154.496 300.775 150.723 298.442 150.723H172.411C171.577 150.723 170.9 150.059 170.9 149.241C170.9 148.421 171.577 147.757 172.411 147.757H298.442C302.987 147.757 305.056 153.09 305.056 158.045C305.056 163 302.987 168.333 298.442 168.333Z" fill="#4FB270"/>
<path fill-rule="evenodd" clip-rule="evenodd" d="M135.509 166.687C142.302 166.687 142.302 148.58 135.509 148.58H222.596C229.388 148.58 229.388 166.687 222.596 166.687H135.509Z" fill="#F8F7F6"/>
<path fill-rule="evenodd" clip-rule="evenodd" d="M224.842 155.079H140.003C139.793 155.079 139.624 154.933 139.624 154.753C139.624 154.572 139.793 154.428 140.003 154.428H224.842C225.051 154.428 225.221 154.572 225.221 154.753C225.221 154.933 225.051 155.079 224.842 155.079Z" fill="#EBEBE9"/>
<path fill-rule="evenodd" clip-rule="evenodd" d="M224.842 161.663H140.003C139.793 161.663 139.624 161.517 139.624 161.337C139.624 161.158 139.793 161.012 140.003 161.012H224.842C225.051 161.012 225.221 161.158 225.221 161.337C225.221 161.517 225.051 161.663 224.842 161.663Z" fill="#EBEBE9"/>
<path fill-rule="evenodd" clip-rule="evenodd" d="M224.021 152.61H139.177C138.97 152.61 138.801 152.464 138.801 152.284C138.801 152.105 138.97 151.958 139.177 151.958H224.021C224.229 151.958 224.398 152.105 224.398 152.284C224.398 152.464 224.229 152.61 224.021 152.61Z" fill="#EBEBE9"/>
<path fill-rule="evenodd" clip-rule="evenodd" d="M224.02 157.548H140.003C139.794 157.548 139.624 157.402 139.624 157.222C139.624 157.043 139.794 156.896 140.003 156.896H224.02C224.229 156.896 224.398 157.043 224.398 157.222C224.398 157.402 224.229 157.548 224.02 157.548Z" fill="#EBEBE9"/>
<path fill-rule="evenodd" clip-rule="evenodd" d="M224.02 159.194H140.003C139.794 159.194 139.624 159.048 139.624 158.868C139.624 158.688 139.794 158.543 140.003 158.543H224.02C224.229 158.543 224.398 158.688 224.398 158.868C224.398 159.048 224.229 159.194 224.02 159.194Z" fill="#EBEBE9"/>
<path fill-rule="evenodd" clip-rule="evenodd" d="M224.021 164.133H139.177C138.97 164.133 138.801 163.988 138.801 163.807C138.801 163.627 138.97 163.481 139.177 163.481H224.021C224.229 163.481 224.398 163.627 224.398 163.807C224.398 163.988 224.229 164.133 224.021 164.133Z" fill="#EBEBE9"/>
<path fill-rule="evenodd" clip-rule="evenodd" d="M222.714 168.333H135.376C134.54 168.333 133.863 167.669 133.863 166.851C133.863 166.031 134.54 165.368 135.376 165.368H222.714C225.049 165.368 226.309 161.595 226.309 158.045C226.309 154.496 225.049 150.723 222.714 150.723H135.376C134.54 150.723 133.863 150.059 133.863 149.241C133.863 148.421 134.54 147.757 135.376 147.757H222.714C227.264 147.757 229.336 153.09 229.336 158.045C229.336 163 227.264 168.333 222.714 168.333Z" fill="#70BC81"/>
<path fill-rule="evenodd" clip-rule="evenodd" d="M218.636 158.457H216.394L215.881 158.289H215.631L215.117 158.457H212.875V156.929H218.636V158.457ZM212.875 156.178H218.636V154.651H212.875V156.178ZM218.636 153.902H212.875V152.809L212.993 152.695H218.52L218.636 152.809V153.902Z" fill="#E0E0DF"/>
<path fill-rule="evenodd" clip-rule="evenodd" d="M212.875 155.079H218.636V154.428H212.875V155.079Z" fill="#D5D5D3"/>
<path fill-rule="evenodd" clip-rule="evenodd" d="M212.875 157.548H218.636V156.896H212.875V157.548Z" fill="#D5D5D3"/>
<path fill-rule="evenodd" clip-rule="evenodd" d="M218.388 159.141L216.394 158.457H218.636V158.959L218.558 159.115L218.388 159.141ZM213.124 159.141L212.955 159.115L212.875 158.959V158.457H215.117L213.124 159.141Z" fill="#D5D5D3"/>
<path fill-rule="evenodd" clip-rule="evenodd" d="M213.031 160.103C212.829 160.103 212.628 160.044 212.46 159.93C212.285 159.811 212.158 159.643 212.096 159.453H215.238L213.343 160.054C213.242 160.087 213.135 160.103 213.031 160.103ZM218.48 160.103C218.374 160.103 218.269 160.087 218.168 160.054L216.273 159.453H219.416C219.353 159.643 219.227 159.811 219.05 159.93C218.883 160.044 218.682 160.103 218.48 160.103ZM218.672 158.712H219.46V157.2H218.672V158.712ZM216.402 158.712H215.109L215.629 158.546H215.882L216.402 158.712ZM212.052 158.712H212.839V157.2H212.052V158.712ZM218.672 156.458H219.46V154.948H218.672V156.458ZM212.052 156.458H212.839V154.948H212.052V156.458ZM219.46 154.207H218.672V153.126L218.553 153.014H212.958L212.839 153.126V154.207H212.052V153.126C212.052 152.969 212.098 152.822 212.176 152.695H219.335C219.414 152.822 219.46 152.969 219.46 153.126V154.207Z" fill="#E0E0DF"/>
<path fill-rule="evenodd" clip-rule="evenodd" d="M218.672 155.133H219.46V154.342H218.672V155.133ZM212.052 155.133H212.839V154.342H212.052V155.133Z" fill="#D5D5D3"/>
<path fill-rule="evenodd" clip-rule="evenodd" d="M219.459 152.47H212.875C213.02 152.247 213.288 152.098 213.594 152.098H218.74C219.046 152.098 219.314 152.247 219.459 152.47Z" fill="#D5D5D3"/>
<path fill-rule="evenodd" clip-rule="evenodd" d="M218.672 157.603H219.46V156.811H218.672V157.603ZM212.052 157.603H212.839V156.811H212.052V157.603Z" fill="#D5D5D3"/>
<path fill-rule="evenodd" clip-rule="evenodd" d="M219.416 159.194H216.273L215.755 159.05L215.238 159.194H212.096C212.067 159.117 212.052 159.037 212.052 158.956V158.543H212.839V158.956L212.919 159.084L213.091 159.106L215.109 158.543H216.402L218.42 159.106L218.592 159.084L218.672 158.956V158.543H219.46V158.956C219.46 159.037 219.445 159.117 219.416 159.194Z" fill="#D5D5D3"/>
<path fill-rule="evenodd" clip-rule="evenodd" d="M212.077 159.502C212.077 159.911 212.488 160.198 212.882 160.068L215.538 159.193L218.194 160.068C218.59 160.198 219 159.911 219 159.502V152.931C219 152.641 218.76 152.407 218.464 152.407H212.613C212.316 152.407 212.077 152.641 212.077 152.931V159.502Z" fill="#70BC81"/>
<path fill-rule="evenodd" clip-rule="evenodd" d="M215.756 158.445L215.882 158.466L218.421 159.314L218.593 159.288L218.672 159.134V152.77L218.553 152.652H212.958L212.839 152.77V159.134L212.92 159.288L213.09 159.314L215.629 158.466L215.756 158.445ZM213.031 160.103C212.829 160.103 212.629 160.041 212.46 159.921C212.204 159.74 212.052 159.446 212.052 159.134V152.77C212.052 152.274 212.459 151.872 212.958 151.872H218.553C219.053 151.872 219.46 152.274 219.46 152.77V159.134C219.46 159.445 219.306 159.739 219.052 159.921C218.797 160.103 218.468 160.152 218.169 160.052L215.756 159.247L213.342 160.052C213.241 160.086 213.135 160.103 213.031 160.103Z" fill="#4FB270"/>
<path fill-rule="evenodd" clip-rule="evenodd" d="M296.137 160.103H237.434C236.149 160.103 235.097 158.992 235.097 157.634C235.097 156.276 236.149 155.165 237.434 155.165H296.137C297.42 155.165 298.472 156.276 298.472 157.634C298.472 158.992 297.42 160.103 296.137 160.103Z" fill="#70BC81"/>
<path fill-rule="evenodd" clip-rule="evenodd" d="M161.846 145.288H195.898C200.569 142.748 204.049 136.999 204.061 129.503L220.206 72.037H317.402L301.258 129.503C301.246 136.999 297.764 142.748 293.094 145.288H161.846Z" fill="#47498C"/>
<path fill-rule="evenodd" clip-rule="evenodd" d="M293.61 147.757H238.194C237.141 147.757 236.288 146.901 236.288 145.844C236.288 144.787 237.141 143.93 238.194 143.93H293.106C297.289 141.418 299.873 136.129 299.883 129.993C299.883 129.819 299.907 129.646 299.954 129.478L315.449 74.218H222.023L206.308 130.267C206.215 137.888 202.716 144.484 197.133 147.526C196.854 147.678 196.541 147.757 196.224 147.757H162.106C161.054 147.757 160.2 146.901 160.2 145.844C160.2 144.787 161.054 143.93 162.106 143.93H195.72C199.902 141.418 202.488 136.129 202.498 129.993C202.498 129.819 202.522 129.646 202.57 129.478L218.746 71.7859C218.977 70.9612 219.727 70.3909 220.581 70.3909H317.965C318.562 70.3909 319.124 70.6713 319.485 71.1487C319.845 71.6261 319.961 72.2461 319.799 72.8231L303.692 130.267C303.601 137.887 300.101 144.484 294.519 147.526C294.24 147.678 293.927 147.757 293.61 147.757Z" fill="#102B44"/>
<path fill-rule="evenodd" clip-rule="evenodd" d="M204.077 137.881C201.5 135.038 219.156 73.6831 224.307 73.6831H316.579L298.885 137.64L204.077 137.881Z" fill="#F8F7F6"/>
<path fill-rule="evenodd" clip-rule="evenodd" d="M211.7 127.181L211.634 127.177C211.377 127.141 211.198 126.899 211.234 126.637C213.231 111.747 218.05 95.5971 225.968 77.2618C226.072 77.0189 226.348 76.9095 226.587 77.0161C226.823 77.1236 226.932 77.4067 226.826 77.6495C218.946 95.9014 214.149 111.968 212.164 126.766C212.132 127.007 211.931 127.181 211.7 127.181Z" fill="#EBEBE9"/>
<path fill-rule="evenodd" clip-rule="evenodd" d="M214.169 127.181L214.105 127.177C213.848 127.141 213.668 126.9 213.703 126.637C215.697 111.669 220.516 95.5183 228.437 77.2606C228.543 77.0178 228.819 76.9093 229.057 77.0168C229.294 77.1243 229.401 77.4074 229.296 77.6502C221.411 95.8235 216.615 111.889 214.633 126.766C214.6 127.007 214.4 127.181 214.169 127.181Z" fill="#EBEBE9"/>
<path fill-rule="evenodd" clip-rule="evenodd" d="M217.461 127.181L217.397 127.177C217.139 127.142 216.96 126.9 216.995 126.638C218.983 111.597 223.803 95.4463 231.729 77.2596C231.834 77.0178 232.115 76.9093 232.349 77.0168C232.587 77.1253 232.693 77.4084 232.588 77.6512C224.697 95.7515 219.902 111.818 217.924 126.765C217.893 127.006 217.692 127.181 217.461 127.181Z" fill="#EBEBE9"/>
<path fill-rule="evenodd" clip-rule="evenodd" d="M219.93 127.181L219.867 127.177C219.609 127.142 219.429 126.9 219.464 126.638C221.418 111.736 226.377 95.1224 234.199 77.259C234.306 77.0161 234.583 76.9106 234.819 77.0161C235.056 77.1246 235.162 77.4087 235.056 77.6506C227.27 95.4296 222.338 111.955 220.394 126.765C220.363 127.006 220.161 127.181 219.93 127.181Z" fill="#EBEBE9"/>
<path fill-rule="evenodd" clip-rule="evenodd" d="M223.223 127.181L223.159 127.177C222.902 127.142 222.722 126.901 222.756 126.639C224.707 111.662 229.665 95.0479 237.491 77.2585C237.597 77.0166 237.876 76.9091 238.112 77.0176C238.349 77.126 238.455 77.4101 238.348 77.652C230.559 95.3559 225.626 111.88 223.687 126.765C223.656 127.006 223.454 127.181 223.223 127.181Z" fill="#EBEBE9"/>
<path fill-rule="evenodd" clip-rule="evenodd" d="M226.515 127.181L226.452 127.177C226.196 127.143 226.013 126.902 226.048 126.639C227.993 111.593 232.952 94.9791 240.784 77.2581C240.891 77.0162 241.169 76.9087 241.406 77.0181C241.641 77.1275 241.747 77.4116 241.64 77.6535C233.845 95.2882 228.913 111.811 226.98 126.765C226.949 127.005 226.747 127.181 226.515 127.181Z" fill="#EBEBE9"/>
<path fill-rule="evenodd" clip-rule="evenodd" d="M228.984 127.181L228.922 127.177C228.665 127.143 228.484 126.902 228.517 126.64C230.458 111.521 235.416 94.9069 243.254 77.2568C243.361 77.0159 243.641 76.9084 243.876 77.0187C244.112 77.1281 244.216 77.4122 244.109 77.6531C236.309 95.2169 231.377 111.74 229.449 126.764C229.418 127.005 229.216 127.181 228.984 127.181Z" fill="#EBEBE9"/>
<path fill-rule="evenodd" clip-rule="evenodd" d="M232.276 127.181L232.215 127.177C231.956 127.143 231.776 126.903 231.809 126.64C233.746 111.451 238.703 94.8369 246.546 77.2558C246.654 77.0159 246.936 76.9084 247.168 77.0188C247.405 77.1291 247.508 77.4132 247.401 77.6541C239.596 95.1478 234.664 111.67 232.741 126.764C232.71 127.005 232.508 127.181 232.276 127.181Z" fill="#EBEBE9"/>
<path fill-rule="evenodd" clip-rule="evenodd" d="M234.745 127.181L234.684 127.178C234.427 127.144 234.245 126.903 234.278 126.641C236.208 111.385 241.166 94.7696 249.016 77.2557C249.125 77.0138 249.405 76.9092 249.638 77.0186C249.874 77.13 249.978 77.4141 249.869 77.655C242.059 95.0815 237.127 111.604 235.21 126.763C235.179 127.005 234.977 127.181 234.745 127.181Z" fill="#EBEBE9"/>
<path fill-rule="evenodd" clip-rule="evenodd" d="M238.062 127.181L237.997 127.178C237.727 127.144 237.535 126.903 237.571 126.64C239.099 115.052 242.285 103.215 247.312 90.4524C247.409 90.2045 247.696 90.0815 247.948 90.1757C248.203 90.2708 248.331 90.5485 248.234 90.7964C243.236 103.486 240.068 115.251 238.55 126.762C238.519 127.004 238.305 127.181 238.062 127.181Z" fill="#EBEBE9"/>
<path fill-rule="evenodd" clip-rule="evenodd" d="M241.329 127.181L241.269 127.178C241.013 127.144 240.83 126.904 240.862 126.641C242.78 111.248 247.74 94.6325 255.601 77.254C255.71 77.0131 255.988 76.9085 256.224 77.0198C256.46 77.1312 256.561 77.4162 256.453 77.6571C248.632 94.9464 243.701 111.467 241.795 126.762C241.764 127.004 241.563 127.181 241.329 127.181Z" fill="#EBEBE9"/>
<path fill-rule="evenodd" clip-rule="evenodd" d="M243.798 127.181L243.739 127.178C243.481 127.145 243.3 126.905 243.332 126.642C245.242 111.186 250.202 94.5687 258.071 77.2538C258.179 77.0119 258.461 76.9083 258.695 77.0206C258.929 77.1329 259.031 77.4179 258.922 77.6579C251.094 94.8835 246.162 111.405 244.263 126.762C244.233 127.004 244.031 127.181 243.798 127.181Z" fill="#EBEBE9"/>
<path fill-rule="evenodd" clip-rule="evenodd" d="M247.09 127.181L247.031 127.178C246.774 127.145 246.592 126.905 246.624 126.642C248.529 111.115 253.488 94.4984 261.362 77.2511C261.473 77.0111 261.753 76.9094 261.985 77.0198C262.221 77.1311 262.324 77.4171 262.214 77.6571C254.381 94.8133 249.449 111.334 247.555 126.761C247.526 127.004 247.323 127.181 247.09 127.181Z" fill="#EBEBE9"/>
<path fill-rule="evenodd" clip-rule="evenodd" d="M249.56 127.181L249.5 127.178C249.243 127.145 249.061 126.906 249.093 126.643C250.991 111.052 255.95 94.4347 263.831 77.2519C263.941 77.012 264.222 76.9083 264.456 77.0206C264.691 77.1329 264.793 77.4189 264.682 77.6589C256.842 94.7504 251.911 111.271 250.024 126.761C249.995 127.004 249.792 127.181 249.56 127.181Z" fill="#EBEBE9"/>
<path fill-rule="evenodd" clip-rule="evenodd" d="M252.852 127.181L252.793 127.178C252.536 127.146 252.352 126.906 252.385 126.643C254.276 110.99 259.235 94.3721 267.125 77.2506C267.235 77.0116 267.518 76.908 267.75 77.0212C267.984 77.1335 268.085 77.4195 267.974 77.6595C260.128 94.6888 255.196 111.208 253.317 126.761C253.287 127.004 253.085 127.181 252.852 127.181Z" fill="#EBEBE9"/>
<path fill-rule="evenodd" clip-rule="evenodd" d="M255.321 127.181L255.264 127.178C255.005 127.146 254.822 126.907 254.854 126.643C256.74 110.923 261.699 94.3041 269.594 77.25C269.706 77.0101 269.987 76.9083 270.22 77.0216C270.454 77.1348 270.554 77.4208 270.443 77.6608C262.591 94.6209 257.66 111.14 255.787 126.761C255.757 127.004 255.555 127.181 255.321 127.181Z" fill="#EBEBE9"/>
<path fill-rule="evenodd" clip-rule="evenodd" d="M258.631 127.181L258.571 127.178C258.303 127.146 258.114 126.91 258.146 126.651C259.446 116.275 262.172 105.482 266.251 94.5706C266.342 94.3244 266.622 94.2004 266.875 94.2866C267.128 94.3765 267.259 94.6482 267.166 94.8934C263.113 105.738 260.405 116.46 259.113 126.765C259.084 127.005 258.873 127.181 258.631 127.181Z" fill="#EBEBE9"/>
<path fill-rule="evenodd" clip-rule="evenodd" d="M261.905 127.181L261.848 127.178C261.59 127.147 261.407 126.908 261.438 126.644C263.308 110.8 268.267 94.1802 276.179 77.2489C276.29 77.0089 276.568 76.9081 276.805 77.0223C277.039 77.1366 277.139 77.4226 277.027 77.6616C269.16 94.4998 264.229 111.018 262.37 126.76C262.342 127.003 262.139 127.181 261.905 127.181Z" fill="#EBEBE9"/>
<path fill-rule="evenodd" clip-rule="evenodd" d="M264.374 127.181L264.317 127.178C264.06 127.147 263.876 126.908 263.908 126.645C265.772 110.733 270.732 94.1141 278.649 77.2481C278.761 77.0081 279.046 76.9083 279.275 77.0225C279.509 77.1367 279.608 77.4237 279.496 77.6627C271.623 94.4337 266.692 110.952 264.839 126.759C264.811 127.003 264.608 127.181 264.374 127.181Z" fill="#EBEBE9"/>
<path fill-rule="evenodd" clip-rule="evenodd" d="M267.667 127.181L267.611 127.178C267.354 127.147 267.169 126.909 267.2 126.645C269.057 110.673 274.017 94.053 281.942 77.2476C282.055 77.0086 282.338 76.9069 282.568 77.024C282.802 77.1382 282.9 77.4252 282.787 77.6642C274.907 94.3745 269.977 110.892 268.132 126.759C268.103 127.002 267.901 127.181 267.667 127.181Z" fill="#EBEBE9"/>
<path fill-rule="evenodd" clip-rule="evenodd" d="M270.135 127.181L270.08 127.178C269.822 127.147 269.638 126.908 269.669 126.646C271.52 110.611 276.48 93.9901 284.411 77.2458C284.525 77.0078 284.804 76.908 285.037 77.0232C285.271 77.1384 285.369 77.4253 285.256 77.6643C277.37 94.3126 272.439 110.829 270.6 126.758C270.573 127.002 270.37 127.181 270.135 127.181Z" fill="#EBEBE9"/>
<path fill-rule="evenodd" clip-rule="evenodd" d="M273.428 127.181L273.372 127.178C273.116 127.147 272.931 126.909 272.961 126.646C274.804 110.549 279.764 93.9281 287.704 77.244C287.817 77.005 288.102 76.91 288.331 77.0223C288.564 77.1384 288.662 77.4254 288.548 77.6644C280.655 94.2506 275.725 110.768 273.894 126.758C273.866 127.002 273.663 127.181 273.428 127.181Z" fill="#EBEBE9"/>
<path fill-rule="evenodd" clip-rule="evenodd" d="M276.72 127.181L276.665 127.178C276.408 127.147 276.224 126.909 276.253 126.646C278.088 110.49 283.049 93.8689 290.996 77.2445C291.11 77.0055 291.392 76.9085 291.624 77.0237C291.857 77.1399 291.954 77.4268 291.839 77.6649C283.939 94.1923 279.008 110.709 277.186 126.757C277.158 127.002 276.955 127.181 276.72 127.181Z" fill="#EBEBE9"/>
<path fill-rule="evenodd" clip-rule="evenodd" d="M279.19 127.181L279.134 127.178C278.877 127.148 278.692 126.91 278.722 126.646C280.551 110.431 285.511 93.8091 293.465 77.2445C293.58 77.0056 293.862 76.9077 294.095 77.0247C294.327 77.1418 294.422 77.4288 294.309 77.6668C286.401 94.1335 281.47 110.65 279.656 126.757C279.627 127.001 279.425 127.181 279.19 127.181Z" fill="#EBEBE9"/>
<path fill-rule="evenodd" clip-rule="evenodd" d="M282.482 127.181L282.428 127.178C282.17 127.148 281.985 126.91 282.014 126.647C283.835 110.37 288.795 93.7479 296.759 77.2424C296.873 77.0044 297.157 76.9084 297.387 77.0245C297.62 77.1416 297.715 77.4296 297.6 77.6666C289.686 94.0732 284.756 110.589 282.948 126.756C282.92 127.001 282.717 127.181 282.482 127.181Z" fill="#EBEBE9"/>
<path fill-rule="evenodd" clip-rule="evenodd" d="M284.951 127.181L284.897 127.178C284.639 127.148 284.454 126.911 284.483 126.647C286.296 110.313 291.256 93.6907 299.227 77.2421C299.343 77.004 299.626 76.9081 299.856 77.0252C300.089 77.1422 300.184 77.4311 300.069 77.6682C292.145 94.017 287.216 110.532 285.417 126.756C285.389 127.001 285.187 127.181 284.951 127.181Z" fill="#EBEBE9"/>
<path fill-rule="evenodd" clip-rule="evenodd" d="M288.227 127.181L288.176 127.179C287.927 127.149 287.748 126.916 287.775 126.656C288.542 119.578 289.902 112.395 291.819 105.303C291.887 105.052 292.135 104.906 292.38 104.976C292.621 105.047 292.761 105.308 292.694 105.559C290.789 112.601 289.439 119.735 288.678 126.763C288.651 127.003 288.455 127.181 288.227 127.181Z" fill="#EBEBE9"/>
<path fill-rule="evenodd" clip-rule="evenodd" d="M314.991 73.0184C311.055 75.2952 305.39 86.8943 300.633 103.177C291.518 134.382 292.11 131.448 297.188 134.698C302.051 137.812 300.314 135.229 300.314 135.229L316.579 72.8601L314.991 73.0184Z" fill="#DADAD5"/>
<path fill-rule="evenodd" clip-rule="evenodd" d="M146.208 145.288C146.208 145.288 151.048 140.255 153.221 136.067C153.489 135.55 154.047 135.26 154.626 135.328C159.462 135.9 181.351 138.212 206.372 136.445C221.673 135.363 272.913 127.953 295.811 133.094C298.652 133.733 300.136 136.902 298.797 139.477C297.476 142.018 295.564 144.719 293.219 145.288H146.208Z" fill="#FFFFFE"/>
<path fill-rule="evenodd" clip-rule="evenodd" d="M240.211 134.708C240.068 138.531 238.806 143.665 238.39 145.288H293.222C295.565 144.72 297.476 142.024 298.797 139.485C300.145 136.893 298.631 133.727 295.77 133.087C282.925 130.213 261.196 131.275 241.881 132.962C240.96 133.042 240.245 133.788 240.211 134.708Z" fill="#DADAD5"/>
<path fill-rule="evenodd" clip-rule="evenodd" d="M293.351 147.757H140.297C139.016 147.757 137.978 146.836 137.978 145.7C137.978 144.564 139.016 143.642 140.297 143.642H293.351C294.631 143.642 295.67 144.564 295.67 145.7C295.67 146.836 294.631 147.757 293.351 147.757Z" fill="#102B44"/>
<path fill-rule="evenodd" clip-rule="evenodd" d="M237.835 147.757C236.777 147.757 235.92 146.901 235.92 145.844C235.92 144.787 236.777 143.93 237.835 143.93H292.988C297.189 141.418 299.785 136.129 299.795 129.993C299.795 129.819 299.819 129.645 299.866 129.478L316.114 71.7855C316.401 70.7684 317.457 70.1781 318.475 70.4622C319.493 70.7483 320.085 71.8046 319.799 72.8226L303.621 130.267C303.529 137.887 300.014 144.483 294.407 147.526C294.127 147.678 293.813 147.757 293.494 147.757H237.835Z" fill="#102B44"/>
<path fill-rule="evenodd" clip-rule="evenodd" d="M182.636 88.5295C183.194 92.919 183.344 97.2017 183.187 101.619C183.09 103.82 182.891 106.04 182.489 108.293C182.278 109.422 182.021 110.559 181.664 111.716C181.307 112.889 180.827 114.031 180.293 115.085C179.219 117.202 177.919 119.116 176.443 120.872C174.975 122.632 173.327 124.232 171.51 125.639C169.694 127.043 167.714 128.285 165.53 129.178C163.348 130.045 160.941 130.617 158.491 130.442C157.552 130.374 156.844 129.56 156.913 128.623C156.973 127.78 157.641 127.125 158.458 127.052L158.5 127.048C160.311 126.883 162.094 126.285 163.749 125.367C165.411 124.462 166.983 123.316 168.404 121.984C171.224 119.318 173.661 116.086 175.202 112.672C175.583 111.816 175.88 110.981 176.105 110.119C176.334 109.243 176.508 108.305 176.645 107.345C176.91 105.417 177.056 103.412 177.122 101.383C177.206 99.356 177.207 97.3037 177.147 95.2467C177.125 93.2012 177.023 91.0984 176.927 89.1062L176.924 89.0271C176.847 87.4486 178.068 86.1084 179.651 86.0322C181.155 85.9597 182.446 87.0664 182.636 88.5295Z" fill="#E59779"/>
<path fill-rule="evenodd" clip-rule="evenodd" d="M181.59 81.9407C183.507 81.4592 184.719 87.4961 185.527 90.7194C186.098 92.9977 186.405 98.0026 186.536 100.743C186.584 101.745 185.727 102.563 184.707 102.485L176.651 101.87C175.797 101.805 175.13 101.129 175.085 100.289C174.855 95.9944 174.803 83.6515 181.59 81.9407Z" fill="#318FB8"/>
<path fill-rule="evenodd" clip-rule="evenodd" d="M163.492 179.637C164.679 181.993 166.672 187.263 166.672 187.263L170.077 186.457C170.077 186.457 168.471 180.07 167.827 178.21L163.492 179.637Z" fill="#F3B89E"/>
<path fill-rule="evenodd" clip-rule="evenodd" d="M176.661 182.928C177.619 185.284 179.134 190.556 179.134 190.556L182.422 189.749C182.422 189.749 181.352 183.361 180.875 181.502L176.661 182.928Z" fill="#F3B89E"/>
<path fill-rule="evenodd" clip-rule="evenodd" d="M206.064 86.5626C205.117 81.9341 201.073 78.6214 196.406 78.6214L196.219 78.6233L187.481 78.7881C187.043 78.7968 186.612 78.906 186.223 79.1101L181.35 81.6534V81.6543C177.861 83.476 176.017 87.4653 176.866 91.3558C181.078 110.676 180.531 126.505 180.525 126.663C180.493 127.501 180.826 128.312 181.435 128.882C181.965 129.377 182.66 129.65 183.376 129.65C183.482 129.65 183.589 129.643 183.697 129.632L205.891 127.097C207.259 126.941 208.321 125.824 208.417 124.441C209.601 107.26 207.451 93.3347 206.064 86.5626Z" fill="#42B8EB"/>
<path fill-rule="evenodd" clip-rule="evenodd" d="M183.086 128.829L180.565 128.827C178.89 128.842 177.22 128.889 175.548 128.971C172.201 129.14 168.85 129.419 165.473 129.896C162.099 130.366 158.701 131.008 155.267 131.975C151.84 132.939 148.356 134.225 144.896 136.23L144.246 136.592C143.933 136.772 143.632 136.982 143.347 137.225C140.875 139.328 140.566 143.048 142.658 145.535C142.82 145.728 143.089 146.108 143.314 146.424L144.02 147.443C144.489 148.141 144.961 148.844 145.421 149.568C146.351 151.002 147.251 152.481 148.144 153.971C149.918 156.958 151.612 160.027 153.252 163.136C154.886 166.251 156.453 169.415 157.963 172.615C159.477 175.815 160.913 179.059 162.323 182.325L168.209 180.35C167.331 176.827 166.418 173.303 165.416 169.796C164.416 166.29 163.349 162.793 162.196 159.31C161.035 155.829 159.805 152.36 158.456 148.905C157.987 147.719 157.506 146.533 157.009 145.348C157.607 145.151 158.214 144.964 158.834 144.791C161.517 144.034 164.374 143.482 167.288 143.078C170.202 142.667 173.186 142.416 176.183 142.265C177.682 142.191 179.185 142.149 180.685 142.135L182.927 142.137L182.95 142.138C184.128 142.153 185.108 141.231 185.166 140.048L185.715 128.898C184.734 128.856 183.953 128.842 183.086 128.829Z" fill="#0B2034"/>
<path fill-rule="evenodd" clip-rule="evenodd" d="M209.808 124.063C209.747 123.286 209.371 122.57 208.769 122.075C208.167 121.581 207.393 121.35 206.616 121.438L182.726 124.139C181.236 124.308 180.125 125.59 180.175 127.087L180.274 130.099C178.118 130.595 175.959 131.131 173.79 131.763C170.408 132.755 167.014 133.876 163.55 135.43L163.009 135.66C162.796 135.752 162.585 135.858 162.379 135.978C159.501 137.643 158.523 141.323 160.191 144.194C160.342 144.454 160.558 144.883 160.744 145.253L161.322 146.425L162.457 148.84C163.208 150.466 163.93 152.124 164.644 153.788C166.065 157.123 167.409 160.516 168.707 163.936C170.005 167.357 171.234 170.815 172.428 174.291C173.619 177.769 174.749 181.275 175.854 184.794L182.083 183.396C181.538 179.693 180.964 175.987 180.322 172.288C179.677 168.589 178.991 164.89 178.224 161.195C177.457 157.5 176.634 153.807 175.714 150.114C175.333 148.601 174.938 147.088 174.523 145.572C175.506 145.248 176.501 144.935 177.51 144.639C180.459 143.776 183.536 143.075 186.623 142.416C189.718 141.76 192.866 141.216 196.02 140.716C196.945 140.572 197.881 140.433 198.817 140.299L202.535 140.102C203.496 140.052 204.416 139.832 205.278 139.477L205.448 139.458L205.443 139.406C206.542 138.925 207.534 138.213 208.35 137.282C209.84 135.582 210.56 133.407 210.379 131.156L209.808 124.063Z" fill="#122F4A"/>
<path fill-rule="evenodd" clip-rule="evenodd" d="M180.026 122.815C180.014 123.859 179.987 125.798 179.954 126.938C179.949 127.078 180.063 127.187 180.204 127.181C182.65 127.055 201.806 126.035 209.392 124.494C209.504 124.471 209.579 124.381 209.581 124.267C209.588 123.742 209.59 122.173 209.403 120.155C209.334 119.402 208.652 118.86 207.907 118.963C203.746 119.541 190.75 121.29 180.74 122.048C180.338 122.078 180.032 122.41 180.026 122.815Z" fill="#318FB8"/>
<path fill-rule="evenodd" clip-rule="evenodd" d="M187.573 86.0288C186.637 86.0288 185.699 85.696 184.951 85.0188C179.729 80.292 179.182 72.8564 179.136 72.0244C179.02 69.878 180.67 68.0439 182.822 67.9272C184.973 67.8162 186.803 69.447 186.929 71.5866C187.019 72.9799 187.782 77.0685 190.196 79.2558C191.792 80.6997 191.911 83.1614 190.464 84.7532C189.694 85.5997 188.635 86.0288 187.573 86.0288Z" fill="#F3B89E"/>
<path fill-rule="evenodd" clip-rule="evenodd" d="M186.031 76.1523C186.031 76.1523 176.669 78.4517 182.937 83.3047C188.304 87.4606 189.937 78.4183 186.031 76.1523Z" fill="#CF835F"/>
<path fill-rule="evenodd" clip-rule="evenodd" d="M185.372 67.9357C185.4 68.6108 185.462 69.4322 185.521 70.1814L185.735 72.456C185.816 73.1984 185.901 73.9399 186.002 74.6314C186.1 75.3209 186.212 75.9863 186.313 76.5178L186.412 77.033C187.126 80.755 184.723 84.3565 181.046 85.0788C177.807 85.7153 174.659 83.902 173.468 80.9177C173.052 79.8796 172.734 78.9494 172.434 78.0336C172.138 77.1207 171.881 76.2453 171.631 75.368C171.383 74.4937 171.154 73.6318 170.934 72.767C170.713 71.8878 170.509 71.077 170.3 70.1159L170.258 69.9243C169.348 65.7498 171.955 61.6186 176.081 60.698C180.207 59.7764 184.289 62.415 185.199 66.5905C185.294 67.0267 185.351 67.5043 185.372 67.9357Z" fill="#F3B89E"/>
<path fill-rule="evenodd" clip-rule="evenodd" d="M178.323 74.2055C178.384 74.4242 178.611 74.5521 178.83 74.4909C179.048 74.4296 179.176 74.2028 179.115 73.9834C179.054 73.7647 178.826 73.6368 178.608 73.6987C178.389 73.7593 178.261 73.9868 178.323 74.2055Z" fill="#212744"/>
<path fill-rule="evenodd" clip-rule="evenodd" d="M172.561 75.8514C172.622 76.07 172.849 76.1978 173.069 76.1372C173.288 76.0754 173.415 75.8487 173.354 75.63C173.293 75.4107 173.065 75.2829 172.846 75.3448C172.627 75.406 172.5 75.6327 172.561 75.8514Z" fill="#212744"/>
<path fill-rule="evenodd" clip-rule="evenodd" d="M176.865 72.037L176.661 71.7487C176.757 71.7056 179.047 70.6778 180.776 71.5907L180.548 71.8676C179.024 71.063 176.888 72.0273 176.865 72.037Z" fill="#212744"/>
<path fill-rule="evenodd" clip-rule="evenodd" d="M180.174 79.4444L179.953 79.1692C181.283 78.3417 182.073 76.9894 182.081 76.9753L182.423 77.1287C182.389 77.1867 181.58 78.5697 180.174 79.4444Z" fill="#212744"/>
<path fill-rule="evenodd" clip-rule="evenodd" d="M170.43 73.6831L170.077 73.5885C170.081 73.5715 170.582 71.8388 172.546 72.0558L172.505 72.4176C170.838 72.2318 170.448 73.6233 170.43 73.6831Z" fill="#212744"/>
<path fill-rule="evenodd" clip-rule="evenodd" d="M177.484 78.6214H175.603L175.651 78.3909C175.967 76.8825 175.753 75.3512 175.015 73.839L175.414 73.6831C176.15 75.1915 176.387 76.7209 176.122 78.2321H177.484V78.6214Z" fill="#CF835F"/>
<path fill-rule="evenodd" clip-rule="evenodd" d="M188.156 67.4214C188.097 64.0864 188.024 62.5917 186.295 62.5369L187.634 61.7596C187.634 61.7596 186.978 61.4621 186.246 61.8937C186.817 60.6976 186.14 59.8205 186.14 59.8205L185.495 62.0758C184.405 59.6032 181.115 57.5183 176.011 59.9527C171.358 62.1727 168.306 62.1022 168.306 62.1022C168.306 62.1022 168.882 62.8354 170.032 63.4041C168.081 63.5803 166.212 63.4413 166.212 63.4413C166.692 64.3272 167.588 64.9732 168.657 65.3599C167.159 65.4999 165.962 65.4832 165.962 65.4832C166.642 66.6226 167.99 67.3176 169.503 67.5682C168.365 68.1408 167.549 68.4805 167.549 68.4805C169.864 70.5968 175.861 68.9278 179.183 65.8503C181.077 69.5787 184.385 73.8113 185.852 73.6802C188.227 73.4668 188.252 72.7473 188.156 67.4214Z" fill="#102B44"/>
<path fill-rule="evenodd" clip-rule="evenodd" d="M183.246 73.0594C183.979 70.7356 185.18 69.4276 186.558 71.2449C188.558 73.8823 186.368 78.1661 184.912 76.6642C183.456 75.1622 183.246 73.0594 183.246 73.0594Z" fill="#F3B89E"/>
<path opacity="0.2" fill-rule="evenodd" clip-rule="evenodd" d="M180.131 183.148C176.381 163.235 171.934 148.811 170.196 143.534C169.798 142.327 170.426 141.004 171.624 140.523C185.192 135.072 204.425 132.963 204.618 132.942L204.645 133.177C204.451 133.198 185.251 135.302 171.714 140.742C170.633 141.178 170.066 142.371 170.425 143.461C172.165 148.743 176.615 163.177 180.367 183.106L180.131 183.148Z" fill="#4E536C"/>
<path fill-rule="evenodd" clip-rule="evenodd" d="M209.475 97.2063C208.468 92.7402 207.055 88.5817 205.16 84.4223C204.537 83.0645 202.947 82.388 201.514 82.9164C200.017 83.4687 199.255 85.1189 199.814 86.6028L199.851 86.7032C200.552 88.5674 201.285 90.5797 201.881 92.55C202.512 94.5261 203.079 96.5145 203.512 98.4992C203.929 100.482 204.28 102.46 204.369 104.352C204.472 106.225 204.298 108.061 203.727 109.244C203.639 109.457 203.315 110.004 203.062 110.427L202.252 111.747C201.704 112.617 201.132 113.466 200.539 114.289C199.368 115.951 198.068 117.485 196.673 118.879C193.91 121.619 190.537 123.584 186.693 124.172C185.415 123.941 183.79 123.767 181.92 123.175C181.614 123.078 181.27 123.079 180.921 123.142C179.042 123.481 177.058 127.242 177.564 129.066C177.879 130.197 179.463 129.383 181.221 129.129C185.03 128.577 189.648 128.561 189.709 127.649C189.718 127.526 189.713 127.423 189.715 127.31C191.115 127.091 192.499 126.726 193.821 126.212C196.071 125.3 198.122 124 199.956 122.516C201.802 121.035 203.394 119.326 204.865 117.567C205.591 116.678 206.278 115.768 206.935 114.847L207.901 113.457C208.225 112.967 208.496 112.611 208.898 111.86C209.604 110.522 209.957 109.171 210.167 107.885C210.367 106.596 210.438 105.346 210.393 104.142C210.319 101.725 209.978 99.4318 209.475 97.2063Z" fill="#F3B89E"/>
<path fill-rule="evenodd" clip-rule="evenodd" d="M199.143 78.6266C197.237 78.4074 198.39 85.1834 198.574 88.5883C198.758 91.9952 199.807 98.3745 199.807 98.3745L209.381 96.7671C210.049 96.6555 210.503 96.0036 210.388 95.31C209.742 91.3812 207.137 79.5462 199.143 78.6266Z" fill="#42B8EB"/>
<path fill-rule="evenodd" clip-rule="evenodd" d="M175.015 183.239L175.702 185.617L183.246 184.429L182.798 181.502L175.015 183.239Z" fill="#102B44"/>
<path fill-rule="evenodd" clip-rule="evenodd" d="M161.023 180.488L161.802 183.148L169.254 181.499L168.691 178.21L161.023 180.488Z" fill="#102B44"/>
<path fill-rule="evenodd" clip-rule="evenodd" d="M189.309 128.004L189.275 128.003C188.998 127.983 188.787 127.737 188.806 127.451C188.883 126.274 188.69 125.449 188.217 124.929C187.704 124.364 186.807 124.101 185.395 124.101C185.116 124.101 184.892 123.87 184.892 123.584C184.892 123.298 185.116 123.066 185.395 123.066C187.105 123.066 188.235 123.433 188.953 124.221C189.627 124.963 189.907 126.042 189.812 127.521C189.794 127.794 189.572 128.004 189.309 128.004Z" fill="#212744"/>
<path fill-rule="evenodd" clip-rule="evenodd" d="M189.829 123.498C189.863 124.011 188.792 124.539 187.436 124.678C186.081 124.817 184.953 124.515 184.92 124.001L184.892 123.568L189.801 123.066L189.829 123.498Z" fill="#F8F7F6"/>
<path fill-rule="evenodd" clip-rule="evenodd" d="M189.829 123.674C189.863 124.112 188.786 124.564 187.422 124.683C186.06 124.802 184.926 124.543 184.892 124.104C184.859 123.665 185.936 123.213 187.299 123.095C188.662 122.976 189.795 123.235 189.829 123.674Z" fill="#212744"/>
<path fill-rule="evenodd" clip-rule="evenodd" d="M189.006 123.336C189.028 123.549 188.123 123.786 186.987 123.864C185.852 123.942 184.913 123.832 184.892 123.619C184.872 123.406 185.775 123.169 186.911 123.091C188.048 123.013 188.985 123.122 189.006 123.336Z" fill="#F8F7F6"/>
<path fill-rule="evenodd" clip-rule="evenodd" d="M137.155 134.839C137.285 135.727 138.121 136.347 139.014 136.217L194.189 128.207C195.081 128.079 195.704 127.246 195.574 126.358L137.155 134.839Z" fill="#4FB270"/>
<path fill-rule="evenodd" clip-rule="evenodd" d="M176.661 129.12C176.918 130.018 177.798 130.588 178.722 130.454L194.209 128.191C195.088 128.064 195.703 127.238 195.574 126.358L176.661 129.12Z" fill="#16A85D"/>
<path fill-rule="evenodd" clip-rule="evenodd" d="M176.148 129.215L139.385 134.557C137.794 134.789 136.107 133.71 135.636 132.16L128.226 107.809C127.754 106.26 128.669 104.803 130.26 104.571L167.023 99.2286C168.615 98.998 170.302 100.076 170.773 101.625L178.184 125.978C178.654 127.527 177.739 128.984 176.148 129.215Z" fill="#4FB270"/>
<path fill-rule="evenodd" clip-rule="evenodd" d="M138.562 134.557C136.97 134.789 135.284 133.709 134.813 132.161L127.402 107.809C126.931 106.259 127.847 104.803 129.437 104.571L166.201 99.2288C167.792 98.9973 169.479 100.077 169.95 101.626L177.361 125.977C177.831 127.526 176.916 128.983 175.325 129.215L138.562 134.557Z" fill="#70BC81"/>
<path opacity="0.1" fill-rule="evenodd" clip-rule="evenodd" d="M138.246 133.51L138.262 133.626L138.246 133.51L175.065 128.172C175.547 128.102 175.946 127.854 176.188 127.476C176.434 127.091 176.49 126.616 176.344 126.139L168.922 101.811C168.619 100.817 167.543 100.128 166.517 100.277L129.699 105.614C129.216 105.685 128.817 105.932 128.575 106.31C128.328 106.696 128.273 107.171 128.419 107.647L135.84 131.975C136.144 132.969 137.219 133.657 138.246 133.51ZM137.968 133.765C136.934 133.765 135.918 133.044 135.613 132.043L128.191 107.715C128.026 107.172 128.091 106.628 128.374 106.184C128.654 105.746 129.112 105.461 129.664 105.381L166.483 100.043C167.614 99.8764 168.814 100.641 169.15 101.743L176.571 126.071C176.737 126.614 176.673 127.159 176.388 127.602C176.109 128.04 175.651 128.325 175.098 128.405L138.279 133.743C138.176 133.758 138.072 133.765 137.968 133.765Z" fill="#FFFFFE"/>
</g>
</svg>
