<svg width="15" height="15" viewBox="0 0 15 15" fill="none" xmlns="http://www.w3.org/2000/svg">
<path fill-rule="evenodd" clip-rule="evenodd" d="M7.66315 5.66617C7.99078 5.66617 8.25526 5.4013 8.25526 5.07406V0.899722C8.25526 0.57288 7.99078 0.307617 7.66315 0.307617C7.33552 0.307617 7.07104 0.57288 7.07104 0.899722V5.07406C7.07104 5.4013 7.33552 5.66617 7.66315 5.66617Z" fill="#102B44"/>
<path d="M7.66315 5.66617C7.99078 5.66617 8.25526 5.4013 8.25526 5.07406V0.899722C8.25526 0.57288 7.99078 0.307617 7.66315 0.307617C7.33552 0.307617 7.07104 0.57288 7.07104 0.899722V5.07406C7.07104 5.4013 7.33552 5.66617 7.66315 5.66617" stroke="#102B44" stroke-width="0.5"/>
<path fill-rule="evenodd" clip-rule="evenodd" d="M10.1026 2.30389C9.79866 2.18665 9.45524 2.34297 9.34077 2.64928C9.22629 2.95481 9.38024 3.29665 9.68419 3.41192C11.6934 4.16863 12.9408 6.03652 12.9408 8.28771C12.9408 11.1973 10.5723 13.5645 7.66314 13.5645C4.75393 13.5645 2.3855 11.1973 2.3855 8.28771C2.3855 6.16205 3.65261 4.25349 5.6105 3.42573C5.9105 3.29784 6.05261 2.95086 5.92629 2.64968C5.79998 2.34849 5.45261 2.20757 5.14866 2.33468C2.75261 3.34836 1.20129 5.68521 1.20129 8.28771C1.20129 11.8506 4.10261 14.7488 7.66314 14.7488C11.2276 14.7488 14.125 11.8506 14.125 8.28771C14.125 5.53126 12.5855 3.23823 10.1026 2.30389Z" fill="#102B44"/>
<path d="M10.1026 2.30389C9.79866 2.18665 9.45524 2.34297 9.34077 2.64928C9.22629 2.95481 9.38024 3.29665 9.68419 3.41192C11.6934 4.16863 12.9408 6.03652 12.9408 8.28771C12.9408 11.1973 10.5723 13.5645 7.66314 13.5645C4.75393 13.5645 2.3855 11.1973 2.3855 8.28771C2.3855 6.16205 3.65261 4.25349 5.6105 3.42573C5.9105 3.29784 6.05261 2.95086 5.92629 2.64968C5.79998 2.34849 5.45261 2.20757 5.14866 2.33468C2.75261 3.34836 1.20129 5.68521 1.20129 8.28771C1.20129 11.8506 4.10261 14.7488 7.66314 14.7488C11.2276 14.7488 14.125 11.8506 14.125 8.28771C14.125 5.53126 12.5855 3.23823 10.1026 2.30389" stroke="#102B44" stroke-width="0.5"/>
</svg>
