<svg width="312" height="260" viewBox="0 0 312 260" fill="none" xmlns="http://www.w3.org/2000/svg">
<path fill-rule="evenodd" clip-rule="evenodd" d="M311.486 182.187C308.478 235.463 234.274 272.581 195.763 247.934C148.678 217.807 154.292 232.87 108.27 228.307C62.2539 223.743 15.0621 197.263 2.27773 129.876C0.669271 121.379 0.0338192 112.926 0.271001 104.644C1.88918 47.241 45.0546 -1.91384 91.237 0.0573087C166.043 3.25324 172.551 78.5753 192.232 85.2982C211.917 92.0203 260.195 73.5555 301.738 144.721C309.301 157.674 312.157 170.333 311.486 182.187Z" fill="#0E57CB"/>
<path fill-rule="evenodd" clip-rule="evenodd" d="M39.8114 257.86C44.6027 257.86 44.6027 219.342 39.8114 219.342H182.802C187.594 219.342 187.594 257.86 182.802 257.86H39.8114Z" fill="#F8F7F6"/>
<path fill-rule="evenodd" clip-rule="evenodd" d="M184.707 225.761H41.5005C41.1575 225.761 40.8813 225.522 40.8813 225.226C40.8813 224.93 41.1575 224.691 41.5005 224.691H184.707C185.05 224.691 185.326 224.93 185.326 225.226C185.326 225.522 185.05 225.761 184.707 225.761Z" fill="#EBEBE9"/>
<path fill-rule="evenodd" clip-rule="evenodd" d="M184.707 233.251H41.4993C41.1575 233.251 40.8813 233.011 40.8813 232.716C40.8813 232.42 41.1575 232.181 41.4993 232.181H184.707C185.05 232.181 185.326 232.42 185.326 232.716C185.326 233.011 185.05 233.251 184.707 233.251Z" fill="#EBEBE9"/>
<path fill-rule="evenodd" clip-rule="evenodd" d="M184.707 243.951H41.4993C41.1575 243.951 40.8813 243.712 40.8813 243.416C40.8813 243.12 41.1575 242.881 41.4993 242.881H184.707C185.05 242.881 185.326 243.12 185.326 243.416C185.326 243.712 185.05 243.951 184.707 243.951Z" fill="#EBEBE9"/>
<path fill-rule="evenodd" clip-rule="evenodd" d="M184.707 251.44H41.5005C41.1575 251.44 40.8813 251.202 40.8813 250.905C40.8813 250.61 41.1575 250.37 41.5005 250.37H184.707C185.05 250.37 185.326 250.61 185.326 250.905C185.326 251.202 185.05 251.44 184.707 251.44Z" fill="#EBEBE9"/>
<path fill-rule="evenodd" clip-rule="evenodd" d="M184.707 228.971H41.4993C41.1575 228.971 40.8813 228.732 40.8813 228.436C40.8813 228.14 41.1575 227.901 41.4993 227.901H184.707C185.05 227.901 185.326 228.14 185.326 228.436C185.326 228.732 185.05 228.971 184.707 228.971Z" fill="#EBEBE9"/>
<path fill-rule="evenodd" clip-rule="evenodd" d="M184.707 236.461H41.4993C41.1575 236.461 40.8813 236.221 40.8813 235.926C40.8813 235.631 41.1575 235.391 41.4993 235.391H184.707C185.05 235.391 185.326 235.631 185.326 235.926C185.326 236.221 185.05 236.461 184.707 236.461Z" fill="#EBEBE9"/>
<path fill-rule="evenodd" clip-rule="evenodd" d="M184.707 240.741H41.4993C41.1575 240.741 40.8813 240.501 40.8813 240.206C40.8813 239.91 41.1575 239.671 41.4993 239.671H184.707C185.05 239.671 185.326 239.91 185.326 240.206C185.326 240.501 185.05 240.741 184.707 240.741Z" fill="#EBEBE9"/>
<path fill-rule="evenodd" clip-rule="evenodd" d="M184.707 248.23H41.4993C41.1575 248.23 40.8813 247.992 40.8813 247.696C40.8813 247.4 41.1575 247.161 41.4993 247.161H184.707C185.05 247.161 185.326 247.4 185.326 247.696C185.326 247.992 185.05 248.23 184.707 248.23Z" fill="#EBEBE9"/>
<path fill-rule="evenodd" clip-rule="evenodd" d="M182.116 257.86C186.935 257.86 186.935 219.342 182.116 219.342H252.329C257.148 219.342 257.148 257.86 252.329 257.86H182.116Z" fill="#42B8EB"/>
<path fill-rule="evenodd" clip-rule="evenodd" d="M251.307 255.086H186.889C187.815 251.978 188.508 246.905 188.508 238.601C188.508 230.309 187.815 225.223 186.889 222.115H251.307C253.776 226.525 253.776 250.687 251.307 255.086ZM252.023 217.202H182.445C181.088 217.202 179.976 218.307 179.976 219.659C179.976 220.74 180.681 221.649 181.643 221.98C184.223 226.046 184.223 251.155 181.643 255.221C180.681 255.552 179.976 256.473 179.976 257.543C179.976 258.907 181.088 260 182.445 260H252.023C253.528 260 258.083 260 258.083 238.601C258.083 217.202 253.528 217.202 252.023 217.202Z" fill="#318FB8"/>
<path opacity="0.1" fill-rule="evenodd" clip-rule="evenodd" d="M238.776 255.086C238.437 257.064 238.037 258.747 237.551 260H219.564C220.05 258.747 220.449 257.064 220.789 255.086C222.267 246.13 222.267 231.071 220.789 222.115C220.449 220.138 220.05 218.455 219.564 217.202H237.551C238.037 218.455 238.437 220.138 238.776 222.115C240.266 231.071 240.266 246.13 238.776 255.086Z" fill="white"/>
<path fill-rule="evenodd" clip-rule="evenodd" d="M182.448 260H39.0854C37.7131 260 36.6016 258.901 36.6016 257.543C36.6016 256.187 37.7131 255.087 39.0854 255.087H181.718C184.208 250.681 184.208 226.521 181.718 222.115H39.0854C37.7131 222.115 36.6016 221.014 36.6016 219.658C36.6016 218.301 37.7131 217.202 39.0854 217.202H182.448C183.953 217.202 188.536 217.202 188.536 238.602C188.536 260 183.953 260 182.448 260Z" fill="#318FB8"/>
<path fill-rule="evenodd" clip-rule="evenodd" d="M174.314 246.091C174.283 246.091 174.248 246.086 174.211 246.074L170.019 244.775L169.811 244.744L169.603 244.775L165.41 246.074C165.375 246.086 165.341 246.091 165.31 246.091C165.228 246.091 165.163 246.057 165.127 246.034C165.078 246.002 164.997 245.929 164.997 245.799V244.37H174.626V245.799C174.626 245.929 174.543 246.002 174.495 246.034C174.46 246.057 174.397 246.091 174.314 246.091ZM164.997 243.175H174.626V240.741H164.997V243.175Z" fill="#E0E0DF"/>
<path fill-rule="evenodd" clip-rule="evenodd" d="M164.997 243.951H174.626V242.881H164.997V243.951Z" fill="#D5D5D3"/>
<path fill-rule="evenodd" clip-rule="evenodd" d="M164.997 239.671H174.626V237.252H164.997V239.671ZM164.997 236.065H174.626V233.647H164.997V236.065ZM164.997 232.46H174.626V230.041H164.997V232.46Z" fill="#E0E0DF"/>
<path fill-rule="evenodd" clip-rule="evenodd" d="M164.997 233.251H174.626V232.181H164.997V233.251Z" fill="#D5D5D3"/>
<path fill-rule="evenodd" clip-rule="evenodd" d="M174.626 229.671H164.997V229.503L165.192 229.341H174.429L174.626 229.503V229.671Z" fill="#D5D5D3"/>
<path fill-rule="evenodd" clip-rule="evenodd" d="M164.997 236.461H174.626V235.391H164.997V236.461Z" fill="#D5D5D3"/>
<path fill-rule="evenodd" clip-rule="evenodd" d="M164.997 240.741H174.626V239.671H164.997V240.741Z" fill="#D5D5D3"/>
<path fill-rule="evenodd" clip-rule="evenodd" d="M175.286 247.16H172.399L169.811 246.279L167.224 247.16H164.337C164.076 246.873 163.927 246.494 163.927 246.096V244.583H165.178V246.096C165.178 246.234 165.257 246.312 165.303 246.346C165.338 246.37 165.401 246.405 165.479 246.405C165.51 246.405 165.542 246.4 165.576 246.387L169.611 245.012L169.811 244.979L170.012 245.012L174.046 246.387C174.081 246.4 174.115 246.405 174.145 246.405C174.225 246.405 174.285 246.37 174.319 246.346C174.365 246.312 174.445 246.234 174.445 246.096V244.583H175.696V246.096C175.696 246.494 175.546 246.873 175.286 247.16ZM174.445 243.318H175.696V240.741H174.445V243.318ZM163.927 243.318H165.178V240.741H163.927V243.318Z" fill="#E0E0DF"/>
<path fill-rule="evenodd" clip-rule="evenodd" d="M174.445 243.951H175.696V242.881H174.445V243.951ZM163.927 243.951H165.178V242.881H163.927V243.951Z" fill="#D5D5D3"/>
<path fill-rule="evenodd" clip-rule="evenodd" d="M174.626 239.671H175.696V237.252H174.626V239.671ZM174.626 236.065H175.696V233.647H174.626V236.065ZM174.626 232.46H175.696V230.041H174.626V232.46Z" fill="#E0E0DF"/>
<path fill-rule="evenodd" clip-rule="evenodd" d="M174.626 233.251H175.696V232.181H174.626V233.251Z" fill="#D5D5D3"/>
<path fill-rule="evenodd" clip-rule="evenodd" d="M175.696 228.602H164.997C165.25 228.396 165.59 228.271 165.963 228.271H174.729C175.103 228.271 175.442 228.396 175.696 228.602Z" fill="#E0E0DF"/>
<path fill-rule="evenodd" clip-rule="evenodd" d="M175.696 228.971H174.445V228.803L174.255 228.641H165.366L165.178 228.803V228.971H163.927V228.803C163.927 228.447 164.103 228.126 164.386 227.901H175.236C175.519 228.126 175.696 228.447 175.696 228.803V228.971Z" fill="#D5D5D3"/>
<path fill-rule="evenodd" clip-rule="evenodd" d="M174.626 236.461H175.696V235.391H174.626V236.461Z" fill="#D5D5D3"/>
<path fill-rule="evenodd" clip-rule="evenodd" d="M174.626 240.741H175.696V239.671H174.626V240.741Z" fill="#D5D5D3"/>
<path fill-rule="evenodd" clip-rule="evenodd" d="M166.114 247.591C165.8 247.591 165.489 247.505 165.228 247.34C165.143 247.288 165.065 247.227 164.997 247.161H167.818L166.598 247.52C166.441 247.567 166.278 247.591 166.114 247.591ZM174.577 247.591C174.415 247.591 174.251 247.567 174.093 247.52L172.875 247.161H175.696C175.626 247.227 175.549 247.288 175.464 247.34C175.203 247.504 174.893 247.591 174.577 247.591Z" fill="#D5D5D3"/>
<path fill-rule="evenodd" clip-rule="evenodd" d="M163.927 239.671H164.997V237.252H163.927V239.671ZM163.927 236.065H164.997V233.647H163.927V236.065ZM163.927 232.46H164.997V230.041H163.927V232.46Z" fill="#E0E0DF"/>
<path fill-rule="evenodd" clip-rule="evenodd" d="M163.927 233.251H164.997V232.181H163.927V233.251Z" fill="#D5D5D3"/>
<path fill-rule="evenodd" clip-rule="evenodd" d="M163.927 236.461H164.997V235.391H163.927V236.461Z" fill="#D5D5D3"/>
<path fill-rule="evenodd" clip-rule="evenodd" d="M163.927 240.741H164.997V239.671H163.927V240.741Z" fill="#D5D5D3"/>
<path fill-rule="evenodd" clip-rule="evenodd" d="M163.927 228.695V245.184C163.927 245.803 164.561 246.24 165.174 246.042L169.276 244.715L173.38 246.042C173.992 246.24 174.626 245.803 174.626 245.184V228.695C174.626 228.257 174.256 227.901 173.798 227.901H164.754C164.297 227.901 163.927 228.257 163.927 228.695Z" fill="#42B8EB"/>
<path fill-rule="evenodd" clip-rule="evenodd" d="M165.367 229.113L165.178 229.296V245.656C165.178 245.788 165.258 245.862 165.304 245.893C165.352 245.927 165.452 245.977 165.578 245.934L169.611 244.617C169.741 244.575 169.88 244.575 170.012 244.617L174.047 245.934C174.171 245.977 174.272 245.927 174.32 245.893C174.366 245.862 174.445 245.788 174.445 245.656V229.296L174.257 229.113H165.367ZM174.142 247.161C173.974 247.161 173.808 247.135 173.647 247.082L169.811 245.83L165.979 247.082C165.498 247.237 164.978 247.158 164.575 246.878C164.168 246.597 163.927 246.139 163.927 245.656V229.296C163.927 228.526 164.574 227.901 165.367 227.901H174.257C175.052 227.901 175.696 228.526 175.696 229.296V245.656C175.696 246.14 175.455 246.597 175.049 246.878C174.781 247.064 174.464 247.161 174.142 247.161Z" fill="#43ABD9"/>
<path fill-rule="evenodd" clip-rule="evenodd" d="M259.153 213.992C254.335 213.992 254.335 175.473 259.153 175.473H169.68C164.862 175.473 164.862 213.992 169.68 213.992H259.153Z" fill="#EBEBE9"/>
<path fill-rule="evenodd" clip-rule="evenodd" d="M167.759 181.893H257.46C257.804 181.893 258.083 181.653 258.083 181.358C258.083 181.063 257.804 180.823 257.46 180.823H167.759C167.415 180.823 167.136 181.063 167.136 181.358C167.136 181.653 167.415 181.893 167.759 181.893Z" fill="#F8F7F6"/>
<path fill-rule="evenodd" clip-rule="evenodd" d="M167.759 189.383H257.459C257.804 189.383 258.083 189.144 258.083 188.848C258.083 188.552 257.804 188.313 257.459 188.313H167.759C167.415 188.313 167.136 188.552 167.136 188.848C167.136 189.144 167.415 189.383 167.759 189.383Z" fill="#F8F7F6"/>
<path fill-rule="evenodd" clip-rule="evenodd" d="M167.759 201.152H257.459C257.804 201.152 258.083 200.913 258.083 200.617C258.083 200.321 257.804 200.083 257.459 200.083H167.759C167.415 200.083 167.136 200.321 167.136 200.617C167.136 200.913 167.415 201.152 167.759 201.152Z" fill="#F8F7F6"/>
<path fill-rule="evenodd" clip-rule="evenodd" d="M167.759 208.642H257.46C257.804 208.642 258.083 208.402 258.083 208.107C258.083 207.811 257.804 207.572 257.46 207.572H167.759C167.415 207.572 167.136 207.811 167.136 208.107C167.136 208.402 167.415 208.642 167.759 208.642Z" fill="#F8F7F6"/>
<path fill-rule="evenodd" clip-rule="evenodd" d="M167.759 186.173H257.459C257.804 186.173 258.083 185.933 258.083 185.638C258.083 185.343 257.804 185.103 257.459 185.103H167.759C167.415 185.103 167.136 185.343 167.136 185.638C167.136 185.933 167.415 186.173 167.759 186.173Z" fill="#F8F7F6"/>
<path fill-rule="evenodd" clip-rule="evenodd" d="M167.759 193.663H257.459C257.804 193.663 258.083 193.424 258.083 193.128C258.083 192.832 257.804 192.593 257.459 192.593H167.759C167.415 192.593 167.136 192.832 167.136 193.128C167.136 193.424 167.415 193.663 167.759 193.663Z" fill="#F8F7F6"/>
<path fill-rule="evenodd" clip-rule="evenodd" d="M167.759 197.942H257.459C257.804 197.942 258.083 197.704 258.083 197.407C258.083 197.112 257.804 196.872 257.459 196.872H167.759C167.415 196.872 167.136 197.112 167.136 197.407C167.136 197.704 167.415 197.942 167.759 197.942Z" fill="#F8F7F6"/>
<path fill-rule="evenodd" clip-rule="evenodd" d="M167.759 205.432H257.459C257.804 205.432 258.083 205.192 258.083 204.897C258.083 204.601 257.804 204.362 257.459 204.362H167.759C167.415 204.362 167.136 204.601 167.136 204.897C167.136 205.192 167.415 205.432 167.759 205.432Z" fill="#F8F7F6"/>
<path fill-rule="evenodd" clip-rule="evenodd" d="M170.346 213.992C165.575 213.992 165.575 175.473 170.346 175.473H72.279C67.5074 175.473 67.5074 213.992 72.279 213.992H170.346Z" fill="#FF7B5D"/>
<path fill-rule="evenodd" clip-rule="evenodd" d="M72.2873 211.218H165.552C164.622 208.11 163.93 203.038 163.93 194.732C163.93 186.441 164.622 181.355 165.552 178.247H72.2873C69.8108 182.657 69.8108 206.82 72.2873 211.218ZM71.5691 173.333H170.01C171.372 173.333 172.486 174.439 172.486 175.79C172.486 176.871 171.78 177.78 170.813 178.113C168.227 182.178 168.227 207.287 170.813 211.353C171.78 211.685 172.486 212.606 172.486 213.675C172.486 215.038 171.372 216.132 170.01 216.132H71.5691C70.0584 216.132 65.4904 216.132 65.4904 194.732C65.4904 173.333 70.0584 173.333 71.5691 173.333Z" fill="#ED6D51"/>
<path fill-rule="evenodd" clip-rule="evenodd" d="M85.8804 211.218C86.2222 213.196 86.6264 214.879 87.1175 216.132H96.5192C96.0305 214.879 95.6263 213.196 95.2833 211.218C93.7891 202.263 93.7891 187.202 95.2833 178.247C95.6263 176.27 96.0305 174.586 96.5192 173.333H87.1175C86.6264 174.586 86.2222 176.27 85.8804 178.247C84.3727 187.202 84.3727 202.263 85.8804 211.218Z" fill="white" fill-opacity="0.19"/>
<path opacity="0.1" fill-rule="evenodd" clip-rule="evenodd" d="M141.518 211.218C141.861 213.196 142.265 214.879 142.754 216.132H152.157C151.667 214.879 151.263 213.196 150.92 211.218C149.426 202.263 149.426 187.202 150.92 178.247C151.263 176.27 151.667 174.586 152.157 173.333H142.754C142.265 174.586 141.861 176.27 141.518 178.247C140.011 187.202 140.011 202.263 141.518 211.218Z" fill="white"/>
<path opacity="0.1" fill-rule="evenodd" clip-rule="evenodd" d="M98.7621 211.218C99.1166 213.196 99.5358 214.879 100.044 216.132H106.149C105.642 214.879 105.223 213.196 104.866 211.218C103.317 202.263 103.317 187.202 104.866 178.247C105.223 176.27 105.642 174.586 106.149 173.333H100.044C99.5358 174.586 99.1166 176.27 98.7621 178.247C97.1981 187.202 97.1981 202.263 98.7621 211.218Z" fill="white"/>
<path opacity="0.1" fill-rule="evenodd" clip-rule="evenodd" d="M107.322 211.218C107.676 213.196 108.096 214.879 108.605 216.132H114.708C114.202 214.879 113.782 213.196 113.427 211.218C111.877 202.263 111.877 187.202 113.427 178.247C113.782 176.27 114.202 174.586 114.708 173.333H108.605C108.096 174.586 107.676 176.27 107.322 178.247C105.758 187.202 105.758 202.263 107.322 211.218Z" fill="white"/>
<path fill-rule="evenodd" clip-rule="evenodd" d="M169.988 216.132H258.819C260.186 216.132 261.293 215.031 261.293 213.675C261.293 212.318 260.186 211.219 258.819 211.219H170.715C168.235 206.813 168.235 182.652 170.715 178.246H258.819C260.186 178.246 261.293 177.146 261.293 175.79C261.293 174.433 260.186 173.333 258.819 173.333H169.988C168.489 173.333 163.927 173.333 163.927 194.733C163.927 216.132 168.489 216.132 169.988 216.132Z" fill="#E8674B"/>
<path fill-rule="evenodd" clip-rule="evenodd" d="M187.152 203.292C187.121 203.292 187.087 203.287 187.052 203.273L182.859 201.904L182.651 201.871L182.443 201.904L178.251 203.273C178.213 203.287 178.179 203.292 178.147 203.292C178.065 203.292 178.001 203.257 177.966 203.232C177.918 203.199 177.836 203.121 177.836 202.985V201.477H187.466V202.985C187.466 203.121 187.382 203.199 187.334 203.232C187.299 203.257 187.234 203.292 187.152 203.292ZM177.836 200.218H187.466V197.651H177.836V200.218ZM177.836 196.391H187.466V193.825H177.836V196.391ZM177.836 192.565H187.466V189.999H177.836V192.565ZM177.836 188.739H187.466V186.173H177.836V188.739Z" fill="#D5D5D3"/>
<path fill-rule="evenodd" clip-rule="evenodd" d="M177.836 189.383H187.466V188.313H177.836V189.383Z" fill="#E0E0DF"/>
<path fill-rule="evenodd" clip-rule="evenodd" d="M177.836 201.152H187.466V200.083H177.836V201.152Z" fill="#E0E0DF"/>
<path fill-rule="evenodd" clip-rule="evenodd" d="M187.466 185.803H177.836V185.635L178.032 185.473H187.269L187.466 185.635V185.803Z" fill="#E0E0DF"/>
<path fill-rule="evenodd" clip-rule="evenodd" d="M177.836 193.663H187.466V192.593H177.836V193.663Z" fill="#E0E0DF"/>
<path fill-rule="evenodd" clip-rule="evenodd" d="M177.836 197.942H187.466V196.872H177.836V197.942Z" fill="#E0E0DF"/>
<path fill-rule="evenodd" clip-rule="evenodd" d="M188.125 203.292H185.239L182.651 202.425L180.063 203.292H177.177C176.915 203.009 176.766 202.636 176.766 202.247V200.759H178.017V202.247C178.017 202.381 178.096 202.458 178.143 202.491C178.176 202.515 178.238 202.55 178.316 202.55C178.348 202.55 178.38 202.545 178.417 202.532L182.451 201.18L182.651 201.148L182.851 201.18L186.886 202.532C186.92 202.545 186.953 202.55 186.983 202.55C187.062 202.55 187.124 202.515 187.158 202.491C187.204 202.458 187.284 202.381 187.284 202.247V200.759H188.536V202.247C188.536 202.637 188.386 203.01 188.125 203.292ZM187.284 199.517H188.536V196.984H187.284V199.517ZM176.766 199.517H178.017V196.984H176.766V199.517ZM187.284 195.741H188.536V193.21H187.284V195.741ZM176.766 195.741H178.017V193.21H176.766V195.741ZM187.284 191.967H188.536V189.435H187.284V191.967ZM176.766 191.967H178.017V189.435H176.766V191.967ZM187.284 188.192H188.536V185.66H187.284V188.192ZM176.766 188.192H178.017V185.66H176.766V188.192ZM188.076 184.417H177.225C177.483 184.18 177.828 184.033 178.206 184.033H187.095C187.475 184.033 187.819 184.18 188.076 184.417Z" fill="#D5D5D3"/>
<path fill-rule="evenodd" clip-rule="evenodd" d="M187.284 189.383H188.536V188.313H187.284V189.383ZM176.766 189.383H178.017V188.313H176.766V189.383Z" fill="#E0E0DF"/>
<path fill-rule="evenodd" clip-rule="evenodd" d="M187.284 201.151H188.536V200.082H187.284V201.151ZM176.766 201.151H178.017V200.082H176.766V201.151Z" fill="#E0E0DF"/>
<path fill-rule="evenodd" clip-rule="evenodd" d="M188.536 186.173H187.284V186.005L187.095 185.842H178.206L178.017 186.005V186.173H176.766V186.005C176.766 185.649 176.943 185.328 177.225 185.103H188.076C188.358 185.328 188.536 185.649 188.536 186.005V186.173Z" fill="#E0E0DF"/>
<path fill-rule="evenodd" clip-rule="evenodd" d="M187.284 193.663H188.536V192.593H187.284V193.663ZM176.766 193.663H178.017V192.593H176.766V193.663Z" fill="#E0E0DF"/>
<path fill-rule="evenodd" clip-rule="evenodd" d="M187.284 197.942H188.536V196.872H187.284V197.942ZM176.766 197.942H178.017V196.872H176.766V197.942Z" fill="#E0E0DF"/>
<path fill-rule="evenodd" clip-rule="evenodd" d="M177.884 204.791C177.569 204.791 177.258 204.706 176.997 204.541C176.913 204.488 176.835 204.427 176.766 204.362H179.587L178.368 204.722C178.21 204.769 178.046 204.791 177.884 204.791ZM186.348 204.791C186.184 204.791 186.02 204.768 185.863 204.722L184.645 204.362H187.466C187.396 204.427 187.319 204.488 187.233 204.541C186.973 204.706 186.661 204.791 186.348 204.791Z" fill="#E0E0DF"/>
<path fill-rule="evenodd" clip-rule="evenodd" d="M188.536 185.898V202.385C188.536 203.004 187.902 203.442 187.29 203.244L183.186 201.917L179.083 203.244C178.471 203.442 177.836 203.004 177.836 202.385V185.898C177.836 185.458 178.208 185.103 178.666 185.103H187.707C188.164 185.103 188.536 185.458 188.536 185.898Z" fill="#E8674B"/>
<path fill-rule="evenodd" clip-rule="evenodd" d="M187.095 185.245L187.284 185.429V201.786C187.284 201.918 187.206 201.992 187.159 202.025C187.112 202.058 187.012 202.107 186.884 202.065L182.851 200.748C182.722 200.705 182.583 200.705 182.451 200.748L178.417 202.065C178.293 202.107 178.191 202.058 178.144 202.025C178.097 201.992 178.017 201.918 178.017 201.786V185.429L178.206 185.245H187.095ZM178.32 203.292C178.488 203.292 178.656 203.266 178.817 203.212L182.651 201.961L186.485 203.212C186.965 203.367 187.486 203.29 187.889 203.009C188.294 202.728 188.536 202.27 188.536 201.786V185.429C188.536 184.659 187.89 184.033 187.095 184.033H178.206C177.412 184.033 176.766 184.659 176.766 185.429V201.786C176.766 202.271 177.009 202.728 177.414 203.009C177.682 203.195 178 203.292 178.32 203.292Z" fill="#E8674B"/>
<path fill-rule="evenodd" clip-rule="evenodd" d="M82.6097 147.654H246.112C254.94 147.654 254.94 171.193 246.112 171.193H82.6097V147.654Z" fill="#4FB270"/>
<path fill-rule="evenodd" clip-rule="evenodd" d="M246.275 173.333H82.4345C81.3498 173.333 80.4698 172.47 80.4698 171.406C80.4698 170.341 81.3498 169.479 82.4345 169.479H246.275C249.308 169.479 250.944 164.574 250.944 159.959C250.944 155.345 249.308 150.44 246.275 150.44H82.4345C81.3498 150.44 80.4698 149.577 80.4698 148.513C80.4698 147.447 81.3498 146.584 82.4345 146.584H246.275C252.184 146.584 254.873 153.518 254.873 159.959C254.873 166.4 252.184 173.333 246.275 173.333Z" fill="#4FB270"/>
<path fill-rule="evenodd" clip-rule="evenodd" d="M34.4615 171.193C43.292 171.193 43.292 147.654 34.4615 147.654H147.675C156.504 147.654 156.504 171.193 147.675 171.193H34.4615Z" fill="#F8F7F6"/>
<path fill-rule="evenodd" clip-rule="evenodd" d="M150.594 156.102H40.3033C40.0306 156.102 39.8114 155.913 39.8114 155.678C39.8114 155.444 40.0306 155.256 40.3033 155.256H150.594C150.867 155.256 151.087 155.444 151.087 155.678C151.087 155.913 150.867 156.102 150.594 156.102Z" fill="#EBEBE9"/>
<path fill-rule="evenodd" clip-rule="evenodd" d="M150.594 164.662H40.3033C40.0306 164.662 39.8114 164.473 39.8114 164.238C39.8114 164.005 40.0306 163.816 40.3033 163.816H150.594C150.867 163.816 151.087 164.005 151.087 164.238C151.087 164.473 150.867 164.662 150.594 164.662Z" fill="#EBEBE9"/>
<path fill-rule="evenodd" clip-rule="evenodd" d="M149.527 152.893H39.2303C38.9605 152.893 38.7415 152.703 38.7415 152.469C38.7415 152.236 38.9605 152.045 39.2303 152.045H149.527C149.798 152.045 150.017 152.236 150.017 152.469C150.017 152.703 149.798 152.893 149.527 152.893Z" fill="#EBEBE9"/>
<path fill-rule="evenodd" clip-rule="evenodd" d="M149.526 159.313H40.3041C40.0323 159.313 39.8114 159.123 39.8114 158.889C39.8114 158.656 40.0323 158.465 40.3041 158.465H149.526C149.797 158.465 150.017 158.656 150.017 158.889C150.017 159.123 149.797 159.313 149.526 159.313Z" fill="#EBEBE9"/>
<path fill-rule="evenodd" clip-rule="evenodd" d="M149.526 161.452H40.3041C40.0323 161.452 39.8114 161.263 39.8114 161.028C39.8114 160.794 40.0323 160.606 40.3041 160.606H149.526C149.797 160.606 150.017 160.794 150.017 161.028C150.017 161.263 149.797 161.452 149.526 161.452Z" fill="#EBEBE9"/>
<path fill-rule="evenodd" clip-rule="evenodd" d="M149.527 167.872H39.2303C38.9605 167.872 38.7415 167.684 38.7415 167.45C38.7415 167.215 38.9605 167.025 39.2303 167.025H149.527C149.798 167.025 150.017 167.215 150.017 167.45C150.017 167.684 149.798 167.872 149.527 167.872Z" fill="#EBEBE9"/>
<path fill-rule="evenodd" clip-rule="evenodd" d="M147.828 173.333H34.2887C33.2026 173.333 32.3217 172.47 32.3217 171.406C32.3217 170.341 33.2026 169.479 34.2887 169.479H147.828C150.864 169.479 152.502 164.574 152.502 159.959C152.502 155.345 150.864 150.44 147.828 150.44H34.2887C33.2026 150.44 32.3217 149.577 32.3217 148.513C32.3217 147.447 33.2026 146.584 34.2887 146.584H147.828C153.743 146.584 156.437 153.518 156.437 159.959C156.437 166.4 153.743 173.333 147.828 173.333Z" fill="#70BC81"/>
<path fill-rule="evenodd" clip-rule="evenodd" d="M142.527 160.494H139.613L138.945 160.276H138.62L137.952 160.494H135.038V158.507H142.527V160.494ZM135.038 157.532H142.527V155.546H135.038V157.532ZM142.527 154.572H135.038V153.152L135.191 153.004H142.375L142.527 153.152V154.572Z" fill="#E0E0DF"/>
<path fill-rule="evenodd" clip-rule="evenodd" d="M135.038 156.102H142.527V155.256H135.038V156.102Z" fill="#D5D5D3"/>
<path fill-rule="evenodd" clip-rule="evenodd" d="M135.038 159.313H142.527V158.465H135.038V159.313Z" fill="#D5D5D3"/>
<path fill-rule="evenodd" clip-rule="evenodd" d="M142.204 161.226L139.613 160.494H142.527V161.031L142.425 161.198L142.204 161.226ZM135.361 161.226L135.141 161.198L135.038 161.031V160.494H137.952L135.361 161.226Z" fill="#D5D5D3"/>
<path fill-rule="evenodd" clip-rule="evenodd" d="M135.24 162.634C134.978 162.634 134.716 162.557 134.498 162.41C134.27 162.255 134.105 162.036 134.025 161.788H138.11L135.646 162.57C135.514 162.613 135.376 162.634 135.24 162.634ZM142.324 162.634C142.187 162.634 142.05 162.613 141.919 162.57L139.454 161.788H143.541C143.459 162.036 143.295 162.255 143.065 162.41C142.847 162.557 142.586 162.634 142.324 162.634ZM142.573 160.825H143.597V158.86H142.573V160.825ZM139.622 160.825H137.941L138.618 160.609H138.946L139.622 160.825ZM133.968 160.825H134.991V158.86H133.968V160.825ZM142.573 157.896H143.597V155.932H142.573V157.896ZM133.968 157.896H134.991V155.932H133.968V157.896ZM143.597 154.969H142.573V153.564L142.419 153.418H135.146L134.991 153.564V154.969H133.968V153.564C133.968 153.36 134.027 153.169 134.129 153.004H143.436C143.538 153.169 143.597 153.36 143.597 153.564V154.969Z" fill="#E0E0DF"/>
<path fill-rule="evenodd" clip-rule="evenodd" d="M142.573 155.99H143.597V155.144H142.573V155.99ZM133.968 155.99H134.991V155.144H133.968V155.99Z" fill="#D5D5D3"/>
<path fill-rule="evenodd" clip-rule="evenodd" d="M143.597 152.71H135.038C135.226 152.422 135.574 152.228 135.973 152.228H142.663C143.06 152.228 143.408 152.422 143.597 152.71Z" fill="#D5D5D3"/>
<path fill-rule="evenodd" clip-rule="evenodd" d="M142.573 159.201H143.597V158.354H142.573V159.201ZM133.968 159.201H134.991V158.354H133.968V159.201Z" fill="#D5D5D3"/>
<path fill-rule="evenodd" clip-rule="evenodd" d="M143.541 161.452H139.454L138.782 161.265L138.11 161.452H134.025C133.987 161.352 133.968 161.249 133.968 161.143V160.606H134.991V161.143L135.095 161.31L135.318 161.337L137.941 160.606H139.622L142.246 161.337L142.47 161.31L142.573 161.143V160.606H143.597V161.143C143.597 161.249 143.578 161.352 143.541 161.452Z" fill="#D5D5D3"/>
<path fill-rule="evenodd" clip-rule="evenodd" d="M134 161.852C134 162.384 134.534 162.758 135.047 162.589L138.5 161.451L141.952 162.589C142.467 162.758 143 162.384 143 161.852V153.31C143 152.934 142.688 152.63 142.303 152.63H134.697C134.311 152.63 134 152.934 134 153.31V161.852Z" fill="#70BC81"/>
<path fill-rule="evenodd" clip-rule="evenodd" d="M138.783 160.479L138.947 160.506L142.247 161.608L142.471 161.575L142.573 161.375V153.1L142.419 152.948H135.146L134.991 153.1V161.375L135.095 161.575L135.317 161.608L138.618 160.506L138.783 160.479ZM135.24 162.633C134.978 162.633 134.718 162.553 134.498 162.398C134.166 162.162 133.968 161.779 133.968 161.375V153.1C133.968 152.456 134.497 151.934 135.146 151.934H142.419C143.068 151.934 143.597 152.456 143.597 153.1V161.375C143.597 161.778 143.398 162.161 143.067 162.398C142.736 162.633 142.308 162.697 141.92 162.568L138.783 161.521L135.645 162.568C135.513 162.612 135.376 162.633 135.24 162.633Z" fill="#4FB270"/>
<path fill-rule="evenodd" clip-rule="evenodd" d="M243.278 162.634H166.965C165.294 162.634 163.927 161.19 163.927 159.424C163.927 157.659 165.294 156.214 166.965 156.214H243.278C244.946 156.214 246.313 157.659 246.313 159.424C246.313 161.19 244.946 162.634 243.278 162.634Z" fill="#70BC81"/>
<path fill-rule="evenodd" clip-rule="evenodd" d="M68.7003 143.374H112.968C119.04 140.073 123.563 132.598 123.579 122.854L144.568 48.1481H270.923L249.935 122.854C249.92 132.598 245.394 140.073 239.322 143.374H68.7003Z" fill="#47498C"/>
<path fill-rule="evenodd" clip-rule="evenodd" d="M239.993 146.584H167.952C166.583 146.584 165.475 145.471 165.475 144.097C165.475 142.724 166.583 141.609 167.952 141.609H239.337C244.775 138.343 248.135 131.467 248.147 123.491C248.147 123.264 248.18 123.039 248.24 122.822L268.383 50.9834H146.93L126.5 123.846C126.38 133.755 121.831 142.329 114.573 146.283C114.21 146.481 113.804 146.584 113.391 146.584H69.0379C67.6703 146.584 66.5603 145.471 66.5603 144.097C66.5603 142.724 67.6703 141.609 69.0379 141.609H112.736C118.173 138.343 121.534 131.467 121.547 123.491C121.547 123.264 121.578 123.039 121.64 122.822L142.67 47.8217C142.97 46.7495 143.945 46.0082 145.055 46.0082H271.655C272.43 46.0082 273.161 46.3727 273.63 46.9933C274.099 47.614 274.25 48.42 274.039 49.17L253.1 123.848C252.981 133.753 248.431 142.329 241.174 146.283C240.811 146.481 240.405 146.584 239.993 146.584Z" fill="#102B44"/>
<path fill-rule="evenodd" clip-rule="evenodd" d="M123.6 133.745C120.25 130.049 143.202 50.2881 149.899 50.2881H269.853L246.851 133.432L123.6 133.745Z" fill="#F8F7F6"/>
<path fill-rule="evenodd" clip-rule="evenodd" d="M133.509 119.835L133.424 119.83C133.091 119.783 132.857 119.469 132.904 119.128C135.501 99.7712 141.765 78.7763 152.058 54.9403C152.194 54.6246 152.553 54.4824 152.863 54.6209C153.17 54.7606 153.312 55.1287 153.174 55.4444C142.93 79.1718 136.694 100.058 134.113 119.296C134.071 119.61 133.81 119.835 133.509 119.835Z" fill="#EBEBE9"/>
<path fill-rule="evenodd" clip-rule="evenodd" d="M136.72 119.835L136.636 119.83C136.302 119.783 136.068 119.47 136.113 119.128C138.705 99.6701 144.97 78.6738 155.268 54.9388C155.406 54.6231 155.765 54.4821 156.074 54.6218C156.382 54.7616 156.521 55.1296 156.384 55.4453C146.134 79.0705 139.9 99.9558 137.323 119.296C137.281 119.61 137.02 119.835 136.72 119.835Z" fill="#EBEBE9"/>
<path fill-rule="evenodd" clip-rule="evenodd" d="M140.999 119.835L140.916 119.83C140.581 119.784 140.348 119.47 140.393 119.129C142.978 99.5765 149.244 78.5802 159.548 54.9375C159.685 54.6231 160.05 54.4821 160.354 54.6219C160.663 54.7628 160.801 55.1309 160.664 55.4466C150.406 78.977 144.172 99.8635 141.602 119.295C141.562 119.608 141.299 119.835 140.999 119.835Z" fill="#EBEBE9"/>
<path fill-rule="evenodd" clip-rule="evenodd" d="M144.209 119.835L144.127 119.83C143.792 119.784 143.558 119.47 143.603 119.129C146.144 99.7571 152.59 78.1592 162.758 54.9367C162.898 54.621 163.258 54.4837 163.565 54.621C163.873 54.762 164.011 55.1313 163.873 55.4457C153.751 78.5584 147.339 100.042 144.812 119.295C144.771 119.608 144.509 119.835 144.209 119.835Z" fill="#EBEBE9"/>
<path fill-rule="evenodd" clip-rule="evenodd" d="M148.489 119.835L148.406 119.83C148.073 119.784 147.839 119.471 147.882 119.13C150.42 99.66 156.864 78.0622 167.039 54.936C167.177 54.6216 167.539 54.4818 167.846 54.6228C168.153 54.7638 168.291 55.1331 168.152 55.4476C158.026 78.4627 151.614 99.9445 149.094 119.294C149.052 119.608 148.79 119.835 148.489 119.835Z" fill="#EBEBE9"/>
<path fill-rule="evenodd" clip-rule="evenodd" d="M152.769 119.835L152.688 119.83C152.354 119.785 152.117 119.472 152.163 119.13C154.691 99.5704 161.137 77.9729 171.319 54.9355C171.458 54.6211 171.819 54.4813 172.127 54.6236C172.434 54.7658 172.57 55.1351 172.432 55.4495C162.298 78.3746 155.887 99.8549 153.374 119.294C153.333 119.607 153.071 119.835 152.769 119.835Z" fill="#EBEBE9"/>
<path fill-rule="evenodd" clip-rule="evenodd" d="M155.979 119.835L155.898 119.83C155.565 119.785 155.329 119.472 155.372 119.132C157.896 99.4779 164.341 77.879 174.53 54.9338C174.67 54.6206 175.033 54.4809 175.339 54.6244C175.645 54.7666 175.781 55.1359 175.641 55.4491C165.502 78.282 159.09 99.7624 156.584 119.293C156.543 119.607 156.28 119.835 155.979 119.835Z" fill="#EBEBE9"/>
<path fill-rule="evenodd" clip-rule="evenodd" d="M160.259 119.835L160.179 119.83C159.843 119.785 159.609 119.474 159.652 119.132C162.169 99.3868 168.614 77.7879 178.81 54.9326C178.95 54.6206 179.317 54.4809 179.618 54.6244C179.926 54.7679 180.06 55.1372 179.921 55.4504C169.775 78.1922 163.363 99.6713 160.863 119.293C160.823 119.607 160.56 119.835 160.259 119.835Z" fill="#EBEBE9"/>
<path fill-rule="evenodd" clip-rule="evenodd" d="M163.469 119.835L163.389 119.832C163.055 119.787 162.819 119.474 162.862 119.133C165.371 99.3007 171.816 77.7005 182.021 54.9324C182.163 54.618 182.527 54.482 182.829 54.6242C183.136 54.769 183.271 55.1383 183.13 55.4515C172.977 78.106 166.565 99.5852 164.073 119.291C164.033 119.607 163.77 119.835 163.469 119.835Z" fill="#EBEBE9"/>
<path fill-rule="evenodd" clip-rule="evenodd" d="M167.78 119.835L167.697 119.832C167.345 119.787 167.096 119.474 167.142 119.132C169.129 104.068 173.27 88.6801 179.805 72.0882C179.932 71.7659 180.304 71.606 180.633 71.7284C180.964 71.8521 181.13 72.2131 181.004 72.5354C174.506 89.0324 170.388 104.326 168.415 119.291C168.374 119.606 168.097 119.835 167.78 119.835Z" fill="#EBEBE9"/>
<path fill-rule="evenodd" clip-rule="evenodd" d="M172.028 119.835L171.95 119.832C171.617 119.787 171.378 119.475 171.421 119.133C173.914 99.1224 180.362 77.5223 190.581 54.9302C190.722 54.617 191.085 54.481 191.391 54.6258C191.698 54.7705 191.83 55.1411 191.689 55.4542C181.522 77.9303 175.111 99.4069 172.634 119.29C172.593 119.606 172.332 119.835 172.028 119.835Z" fill="#EBEBE9"/>
<path fill-rule="evenodd" clip-rule="evenodd" d="M175.238 119.835L175.161 119.832C174.825 119.788 174.589 119.476 174.631 119.134C177.115 99.0416 183.563 77.4393 193.792 54.9299C193.933 54.6155 194.299 54.4808 194.603 54.6267C194.908 54.7727 195.04 55.1433 194.899 55.4552C184.723 77.8485 178.311 99.3261 175.842 119.29C175.803 119.606 175.541 119.835 175.238 119.835Z" fill="#EBEBE9"/>
<path fill-rule="evenodd" clip-rule="evenodd" d="M179.518 119.835L179.441 119.832C179.106 119.788 178.869 119.476 178.911 119.134C181.388 98.9498 187.835 77.348 198.07 54.9264C198.214 54.6145 198.578 54.4822 198.881 54.6257C199.188 54.7705 199.321 55.1423 199.178 55.4542C188.995 77.7572 182.583 99.2343 180.122 119.289C180.084 119.605 179.82 119.835 179.518 119.835Z" fill="#EBEBE9"/>
<path fill-rule="evenodd" clip-rule="evenodd" d="M182.727 119.835L182.65 119.832C182.316 119.788 182.079 119.477 182.121 119.135C184.588 98.8678 191.035 77.2651 201.281 54.9275C201.424 54.6156 201.789 54.4808 202.093 54.6268C202.398 54.7728 202.531 55.1446 202.387 55.4565C192.195 77.6756 185.785 99.1523 183.332 119.289C183.294 119.605 183.03 119.835 182.727 119.835Z" fill="#EBEBE9"/>
<path fill-rule="evenodd" clip-rule="evenodd" d="M187.008 119.835L186.931 119.832C186.597 119.789 186.358 119.477 186.401 119.135C188.859 98.7865 195.306 77.1837 205.563 54.9258C205.705 54.6151 206.073 54.4804 206.375 54.6276C206.68 54.7736 206.81 55.1454 206.666 55.4573C196.466 77.5954 190.055 99.071 187.612 119.289C187.573 119.605 187.31 119.835 187.008 119.835Z" fill="#EBEBE9"/>
<path fill-rule="evenodd" clip-rule="evenodd" d="M190.217 119.835L190.143 119.832C189.807 119.789 189.569 119.479 189.61 119.135C192.062 98.6993 198.509 77.0954 208.772 54.925C208.918 54.6131 209.283 54.4808 209.585 54.628C209.891 54.7753 210.02 55.1471 209.876 55.459C199.669 77.5071 193.259 98.9826 190.823 119.289C190.784 119.605 190.521 119.835 190.217 119.835Z" fill="#EBEBE9"/>
<path fill-rule="evenodd" clip-rule="evenodd" d="M194.52 119.835L194.443 119.832C194.094 119.79 193.848 119.483 193.89 119.146C195.579 105.657 199.123 91.6271 204.426 77.4418C204.544 77.1218 204.908 76.9605 205.237 77.0725C205.567 77.1895 205.737 77.5427 205.616 77.8614C200.348 91.9594 196.826 105.899 195.147 119.295C195.109 119.606 194.835 119.835 194.52 119.835Z" fill="#EBEBE9"/>
<path fill-rule="evenodd" clip-rule="evenodd" d="M198.777 119.835L198.702 119.832C198.368 119.79 198.129 119.48 198.17 119.137C200.601 98.5396 207.048 76.9343 217.332 54.9235C217.478 54.6116 217.838 54.4806 218.147 54.6291C218.451 54.7775 218.58 55.1493 218.435 55.46C208.208 77.3498 201.797 98.824 199.381 119.288C199.344 119.603 199.081 119.835 198.777 119.835Z" fill="#EBEBE9"/>
<path fill-rule="evenodd" clip-rule="evenodd" d="M201.987 119.835L201.912 119.832C201.578 119.79 201.338 119.48 201.38 119.138C203.803 98.4535 210.251 76.8483 220.543 54.9225C220.69 54.6106 221.06 54.4808 221.358 54.6293C221.662 54.7778 221.79 55.1508 221.644 55.4615C211.41 77.2638 205 98.738 202.591 119.286C202.554 119.603 202.291 119.835 201.987 119.835Z" fill="#EBEBE9"/>
<path fill-rule="evenodd" clip-rule="evenodd" d="M206.267 119.835L206.194 119.832C205.86 119.79 205.619 119.481 205.659 119.138C208.074 98.3751 214.522 76.7689 224.825 54.9219C224.971 54.6112 225.34 54.479 225.639 54.6312C225.943 54.7797 226.07 55.1527 225.923 55.4634C215.68 77.1869 209.27 98.6596 206.872 119.286C206.834 119.602 206.571 119.835 206.267 119.835Z" fill="#EBEBE9"/>
<path fill-rule="evenodd" clip-rule="evenodd" d="M209.476 119.835L209.404 119.832C209.068 119.792 208.829 119.481 208.869 119.139C211.276 98.2937 217.724 76.6871 228.034 54.9196C228.182 54.6102 228.545 54.4804 228.849 54.6301C229.153 54.7799 229.28 55.1529 229.133 55.4636C218.881 77.1064 212.471 98.5782 210.08 119.285C210.045 119.602 209.781 119.835 209.476 119.835Z" fill="#EBEBE9"/>
<path fill-rule="evenodd" clip-rule="evenodd" d="M213.757 119.835L213.683 119.832C213.35 119.792 213.111 119.482 213.149 119.139C215.545 98.2135 221.993 76.6065 232.315 54.9172C232.462 54.6065 232.832 54.483 233.13 54.629C233.433 54.7799 233.56 55.153 233.412 55.4637C223.152 77.0257 216.742 98.4979 214.362 119.285C214.326 119.602 214.062 119.835 213.757 119.835Z" fill="#EBEBE9"/>
<path fill-rule="evenodd" clip-rule="evenodd" d="M218.037 119.835L217.964 119.832C217.63 119.792 217.391 119.482 217.428 119.14C219.814 98.1376 226.263 76.5296 236.595 54.9178C236.744 54.6071 237.11 54.4811 237.412 54.6308C237.714 54.7818 237.84 55.1549 237.691 55.4643C227.421 76.95 221.011 98.422 218.642 119.284C218.605 119.602 218.342 119.835 218.037 119.835Z" fill="#EBEBE9"/>
<path fill-rule="evenodd" clip-rule="evenodd" d="M221.247 119.835L221.175 119.832C220.84 119.793 220.599 119.484 220.639 119.14C223.016 98.0606 229.464 76.4518 239.805 54.9179C239.954 54.6072 240.32 54.48 240.623 54.6322C240.925 54.7844 241.049 55.1574 240.901 55.4669C230.622 76.8736 224.211 98.3451 221.852 119.284C221.816 119.601 221.552 119.835 221.247 119.835Z" fill="#EBEBE9"/>
<path fill-rule="evenodd" clip-rule="evenodd" d="M225.526 119.835L225.457 119.832C225.121 119.793 224.88 119.484 224.918 119.142C227.286 97.9815 233.734 76.3722 244.086 54.9151C244.235 54.6057 244.604 54.4809 244.903 54.6319C245.206 54.7841 245.329 55.1584 245.18 55.4666C234.891 76.7952 228.482 98.266 226.132 119.283C226.096 119.601 225.832 119.835 225.526 119.835Z" fill="#EBEBE9"/>
<path fill-rule="evenodd" clip-rule="evenodd" d="M228.736 119.835L228.667 119.832C228.331 119.793 228.09 119.485 228.128 119.142C230.485 97.9069 236.933 76.2979 247.295 54.9147C247.446 54.6053 247.814 54.4805 248.113 54.6327C248.416 54.7849 248.539 55.1605 248.39 55.4687C238.089 76.7221 231.681 98.1914 229.342 119.283C229.306 119.601 229.043 119.835 228.736 119.835Z" fill="#EBEBE9"/>
<path fill-rule="evenodd" clip-rule="evenodd" d="M232.995 119.835L232.928 119.833C232.605 119.794 232.372 119.49 232.407 119.153C233.404 109.952 235.173 100.613 237.665 91.3942C237.753 91.0675 238.076 90.8784 238.393 90.9693C238.707 91.0614 238.889 91.4003 238.802 91.7269C236.326 100.881 234.57 110.156 233.581 119.291C233.547 119.605 233.292 119.835 232.995 119.835Z" fill="#EBEBE9"/>
<path fill-rule="evenodd" clip-rule="evenodd" d="M267.788 49.4239C262.672 52.3838 255.307 67.4626 249.124 88.6307C237.273 129.197 238.043 125.383 244.645 129.607C250.967 133.656 248.708 130.297 248.708 130.297L269.853 49.2181L267.788 49.4239Z" fill="#DADAD5"/>
<path fill-rule="evenodd" clip-rule="evenodd" d="M48.3711 143.374C48.3711 143.374 54.6621 136.832 57.4874 131.388C57.8361 130.716 58.5607 130.338 59.3139 130.426C65.6012 131.17 94.0557 134.176 126.584 131.878C146.476 130.472 213.087 120.839 242.854 127.522C246.548 128.352 248.476 132.472 246.737 135.82C245.019 139.124 242.534 142.634 239.485 143.374H48.3711Z" fill="#FFFFFE"/>
<path fill-rule="evenodd" clip-rule="evenodd" d="M170.574 129.62C170.389 134.591 168.747 141.265 168.206 143.374H239.489C242.535 142.635 245.019 139.131 246.736 135.83C248.488 132.46 246.52 128.345 242.802 127.514C226.102 123.777 197.855 125.157 172.745 127.35C171.548 127.454 170.618 128.424 170.574 129.62Z" fill="#DADAD5"/>
<path fill-rule="evenodd" clip-rule="evenodd" d="M239.657 146.584H40.6861C39.0205 146.584 37.6715 145.387 37.6715 143.909C37.6715 142.433 39.0205 141.235 40.6861 141.235H239.657C241.321 141.235 242.672 142.433 242.672 143.909C242.672 145.387 241.321 146.584 239.657 146.584Z" fill="#102B44"/>
<path fill-rule="evenodd" clip-rule="evenodd" d="M167.485 146.584C166.11 146.584 164.997 145.471 164.997 144.097C164.997 142.724 166.11 141.609 167.485 141.609H239.184C244.646 138.343 248.021 131.467 248.033 123.491C248.033 123.264 248.065 123.039 248.126 122.821L269.248 47.8211C269.622 46.499 270.994 45.7315 272.318 46.1009C273.641 46.4728 274.411 47.846 274.039 49.1694L253.007 123.848C252.888 133.753 248.318 142.328 241.029 146.283C240.665 146.481 240.257 146.584 239.842 146.584H167.485Z" fill="#102B44"/>
<path fill-rule="evenodd" clip-rule="evenodd" d="M95.727 69.5884C96.4518 75.2947 96.647 80.8623 96.4431 86.6045C96.3175 89.4657 96.0577 92.3517 95.5355 95.2811C95.262 96.7482 94.9275 98.2266 94.4637 99.7309C93.9987 101.256 93.3746 102.741 92.6808 104.11C91.2846 106.862 89.5949 109.35 87.6764 111.633C85.7679 113.922 83.6257 116.001 81.2634 117.831C78.9023 119.655 76.3286 121.27 73.4889 122.431C70.6529 123.559 67.5234 124.302 64.338 124.074C63.1171 123.986 62.197 122.928 62.2865 121.71C62.3649 120.614 63.2327 119.763 64.2957 119.668L64.3505 119.663C66.7041 119.448 69.0216 118.67 71.1738 117.477C73.3347 116.301 75.3775 114.81 77.2251 113.079C80.8916 109.613 84.0596 105.411 86.0626 100.974C86.5575 99.861 86.9441 98.7755 87.2363 97.6553C87.5347 96.5153 87.761 95.2959 87.9388 94.0481C88.2832 91.5425 88.4734 88.9354 88.558 86.2984C88.6674 83.6628 88.6686 80.9949 88.5915 78.3208C88.5629 75.6615 88.4299 72.9279 88.3056 70.3381L88.3006 70.2353C88.2011 68.1832 89.7889 66.441 91.8466 66.3418C93.8011 66.2477 95.4795 67.6863 95.727 69.5884Z" fill="#E59779"/>
<path fill-rule="evenodd" clip-rule="evenodd" d="M94.3674 61.023C96.8587 60.397 98.4341 68.245 99.4851 72.4353C100.227 75.397 100.626 81.9034 100.796 85.4666C100.859 86.7688 99.7454 87.8318 98.419 87.7299L87.9457 86.9308C86.8358 86.8462 85.9687 85.9673 85.9099 84.8762C85.6108 79.2928 85.5433 63.247 94.3674 61.023Z" fill="#318FB8"/>
<path fill-rule="evenodd" clip-rule="evenodd" d="M70.8402 188.028C72.3834 191.09 74.9731 197.942 74.9731 197.942L79.3999 196.895C79.3999 196.895 77.3119 188.591 76.4757 186.173L70.8402 188.028Z" fill="#F3B89E"/>
<path fill-rule="evenodd" clip-rule="evenodd" d="M87.9595 192.306C89.2044 195.369 91.1747 202.222 91.1747 202.222L95.4492 201.173C95.4492 201.173 94.057 192.87 93.4379 190.453L87.9595 192.306Z" fill="#F3B89E"/>
<path fill-rule="evenodd" clip-rule="evenodd" d="M126.184 67.0314C124.953 61.0144 119.694 56.7078 113.628 56.7078L113.384 56.7103L102.026 56.9246C101.456 56.9358 100.896 57.0778 100.39 57.3432L94.0555 60.6494V60.6506C89.5191 63.0188 87.1223 68.2049 88.2261 73.2626C93.702 98.3794 92.99 118.957 92.9826 119.162C92.9405 120.251 93.3732 121.305 94.1655 122.046C94.854 122.69 95.7576 123.045 96.6883 123.045C96.8268 123.045 96.9652 123.037 97.1061 123.022L125.959 119.727C127.736 119.524 129.117 118.071 129.242 116.273C130.781 93.9383 127.986 75.8351 126.184 67.0314Z" fill="#42B8EB"/>
<path fill-rule="evenodd" clip-rule="evenodd" d="M96.3117 121.978L93.0344 121.975C90.8569 121.995 88.6856 122.056 86.5118 122.162C82.1617 122.382 77.8056 122.745 73.415 123.364C69.028 123.976 64.6116 124.81 60.1473 126.067C55.6916 127.32 51.1621 128.992 46.6646 131.599L45.8204 132.07C45.4124 132.303 45.0217 132.576 44.6506 132.893C41.4372 135.627 41.0353 140.462 43.7547 143.695C43.9661 143.946 44.3151 144.441 44.6075 144.851L45.5255 146.176C46.1362 147.083 46.7494 147.997 47.3478 148.938C48.5558 150.803 49.7268 152.726 50.8869 154.662C53.1934 158.545 55.3954 162.535 57.5274 166.577C59.6521 170.626 61.6882 174.74 63.6519 178.9C65.6205 183.06 67.4871 187.276 69.3193 191.523L76.9712 188.955C75.8308 184.375 74.6438 179.794 73.3412 175.235C72.0411 170.676 70.6538 166.131 69.1546 161.603C67.6456 157.078 66.0469 152.568 64.2921 148.076C63.6826 146.534 63.0572 144.993 62.412 143.452C63.1886 143.196 63.9788 142.953 64.7837 142.728C68.2723 141.744 71.9858 141.027 75.7743 140.502C79.5628 139.967 83.4422 139.641 87.3376 139.444C89.2865 139.349 91.2403 139.293 93.1905 139.276L96.1053 139.278L96.1348 139.28C97.6659 139.299 98.9402 138.101 99.0163 136.562L99.7291 122.068C98.4535 122.012 97.4385 121.995 96.3117 121.978Z" fill="#0B2034"/>
<path fill-rule="evenodd" clip-rule="evenodd" d="M131.05 115.782C130.971 114.772 130.482 113.84 129.7 113.197C128.917 112.555 127.911 112.255 126.901 112.37L95.8436 115.881C93.9062 116.1 92.4625 117.768 92.5274 119.712L92.6558 123.628C89.8532 124.273 87.0469 124.97 84.2269 125.792C79.831 127.081 75.4177 128.539 70.9146 130.559L70.2115 130.858C69.9347 130.977 69.6604 131.116 69.3924 131.271C65.6511 133.436 64.3794 138.22 66.5487 141.953C66.7444 142.29 67.0249 142.849 67.2668 143.329L68.0185 144.853L69.4946 147.993C70.4708 150.105 71.4096 152.261 72.3371 154.425C74.1847 158.76 75.9313 163.171 77.6194 167.617C79.3061 172.064 80.9044 176.559 82.4565 181.078C84.0049 185.6 85.4736 190.157 86.9097 194.733L95.0083 192.915C94.2989 188.101 93.5534 183.283 92.7181 178.474C91.8803 173.666 90.9877 168.856 89.9916 164.053C88.9942 159.25 87.9246 154.449 86.7277 149.648C86.2328 147.682 85.7192 145.714 85.1793 143.743C86.4584 143.323 87.7513 142.916 89.0628 142.531C92.8964 141.409 96.897 140.498 100.91 139.641C104.933 138.788 109.026 138.08 113.127 137.431C114.328 137.244 115.545 137.062 116.762 136.888L121.595 136.633C122.845 136.567 124.041 136.282 125.161 135.82L125.383 135.796L125.375 135.728C126.804 135.102 128.094 134.177 129.155 132.967C131.091 130.757 132.028 127.929 131.792 125.003L131.05 115.782Z" fill="#122F4A"/>
<path fill-rule="evenodd" clip-rule="evenodd" d="M92.3337 114.159C92.3176 115.516 92.2829 118.037 92.2396 119.519C92.2334 119.702 92.382 119.844 92.5654 119.835C95.7453 119.672 120.647 118.346 130.509 116.342C130.656 116.312 130.752 116.195 130.755 116.047C130.765 115.364 130.767 113.325 130.524 110.701C130.434 109.722 129.548 109.018 128.579 109.152C123.17 109.903 106.275 112.177 93.2616 113.162C92.7388 113.201 92.3411 113.633 92.3337 114.159Z" fill="#318FB8"/>
<path fill-rule="evenodd" clip-rule="evenodd" d="M102.145 66.3374C100.929 66.3374 99.7085 65.9048 98.7358 65.0245C91.948 58.8796 91.2365 49.2133 91.1769 48.1318C91.026 45.3414 93.1706 42.9571 95.9684 42.8053C98.7649 42.6611 101.144 44.7811 101.308 47.5626C101.424 49.3739 102.416 54.689 105.555 57.5325C107.63 59.4096 107.785 62.6098 105.903 64.6792C104.902 65.7796 103.526 66.3374 102.145 66.3374Z" fill="#F3B89E"/>
<path fill-rule="evenodd" clip-rule="evenodd" d="M100.14 53.498C100.14 53.498 87.9702 56.4873 96.1186 62.7961C103.095 68.1988 105.218 56.4438 100.14 53.498Z" fill="#CF835F"/>
<path fill-rule="evenodd" clip-rule="evenodd" d="M99.2838 42.8165C99.3197 43.694 99.4013 44.7619 99.478 45.7359L99.7551 48.6928C99.8603 49.658 99.9716 50.6219 100.103 51.5208C100.23 52.4171 100.376 53.2822 100.507 53.9732L100.636 54.643C101.564 59.4815 98.4401 64.1635 93.6601 65.1024C89.4491 65.9299 85.3568 63.5726 83.808 59.693C83.2674 58.3435 82.8542 57.1342 82.4645 55.9437C82.0798 54.7569 81.7458 53.6189 81.4204 52.4785C81.0976 51.3418 80.8007 50.2213 80.5137 49.0971C80.2267 47.9542 79.9619 46.9001 79.6898 45.6507L79.6353 45.4016C78.4527 39.9747 81.841 34.6042 87.205 33.4074C92.569 32.2093 97.876 35.6395 99.0587 41.0676C99.1824 41.6347 99.2566 42.2556 99.2838 42.8165Z" fill="#F3B89E"/>
<path fill-rule="evenodd" clip-rule="evenodd" d="M90.1194 50.9671C90.199 51.2515 90.4945 51.4177 90.7788 51.3381C91.063 51.2585 91.2291 50.9636 91.1495 50.6784C91.07 50.3941 90.7744 50.2279 90.4902 50.3083C90.206 50.3871 90.0398 50.6828 90.1194 50.9671Z" fill="#212744"/>
<path fill-rule="evenodd" clip-rule="evenodd" d="M82.6297 53.1067C82.7085 53.391 83.0043 53.5571 83.2895 53.4784C83.574 53.3979 83.7393 53.1032 83.6597 52.819C83.581 52.534 83.2852 52.3678 82.9999 52.4483C82.7155 52.5278 82.5501 52.8225 82.6297 53.1067Z" fill="#212744"/>
<path fill-rule="evenodd" clip-rule="evenodd" d="M88.2248 48.1481L87.9595 47.7734C88.0836 47.7172 91.0608 46.3811 93.3093 47.568L93.0122 47.9279C91.0318 46.8819 88.2539 48.1354 88.2248 48.1481Z" fill="#212744"/>
<path fill-rule="evenodd" clip-rule="evenodd" d="M92.5257 57.7778L92.2394 57.4199C93.9673 56.3442 94.9952 54.5862 95.005 54.5679L95.4493 54.7673C95.4052 54.8428 94.354 56.6406 92.5257 57.7778Z" fill="#212744"/>
<path fill-rule="evenodd" clip-rule="evenodd" d="M79.8596 50.288L79.3999 50.165C79.4058 50.1429 80.0567 47.8904 82.6098 48.1726L82.557 48.6428C80.3897 48.4013 79.8819 50.2103 79.8596 50.288Z" fill="#212744"/>
<path fill-rule="evenodd" clip-rule="evenodd" d="M89.0295 56.7078H86.5835L86.646 56.4081C87.0571 54.4473 86.7793 52.4566 85.8196 50.4907L86.3377 50.2881C87.2947 52.2489 87.603 54.2371 87.2585 56.2017H89.0295V56.7078Z" fill="#CF835F"/>
<path fill-rule="evenodd" clip-rule="evenodd" d="M102.903 42.1478C102.826 37.8123 102.731 35.8692 100.483 35.7979L102.225 34.7875C102.225 34.7875 101.372 34.4007 100.42 34.9619C101.162 33.4069 100.282 32.2667 100.282 32.2667L99.4432 35.1986C98.0267 31.9842 93.7498 29.2737 87.1145 32.4385C81.0657 35.3245 77.0977 35.2329 77.0977 35.2329C77.0977 35.2329 77.8461 36.186 79.3416 36.9254C76.8051 37.1544 74.3753 36.9737 74.3753 36.9737C74.9994 38.1253 76.1647 38.9652 77.5548 39.4678C75.6071 39.6498 74.05 39.6282 74.05 39.6282C74.9341 41.1094 76.6871 42.0129 78.6535 42.3386C77.1743 43.083 76.1132 43.5246 76.1132 43.5246C79.1231 46.2758 86.9199 44.1061 91.2383 40.1054C93.6995 44.9524 98.0004 50.4547 99.9078 50.2842C102.996 50.0068 103.028 49.0715 102.903 42.1478Z" fill="#102B44"/>
<path fill-rule="evenodd" clip-rule="evenodd" d="M96.5192 49.4773C97.473 46.4563 99.0335 44.7559 100.825 47.1184C103.425 50.5469 100.578 56.116 98.6852 54.1634C96.7925 52.2109 96.5192 49.4773 96.5192 49.4773Z" fill="#F3B89E"/>
<path opacity="0.2" fill-rule="evenodd" clip-rule="evenodd" d="M92.4698 192.593C87.596 166.705 81.814 147.955 79.5548 141.094C79.0381 139.525 79.8538 137.806 81.4112 137.18C99.0499 130.093 124.053 127.352 124.303 127.325L124.338 127.63C124.087 127.657 99.1262 130.393 81.5288 137.465C80.1227 138.031 79.3859 139.583 79.8525 140.999C82.1143 147.866 87.9 166.63 92.7775 192.537L92.4698 192.593Z" fill="#4E536C"/>
<path fill-rule="evenodd" clip-rule="evenodd" d="M94.0969 198.26C93.0962 199.348 91.2904 200.274 90.2821 200.662C90.0125 200.767 89.8207 200.976 89.7492 201.249C89.2563 203.108 86.9514 209.747 84.3493 211.559C81.4474 213.579 88.7748 213.567 91.1299 210.065C93.4875 206.563 95.2406 204.484 96.9085 203.208C98.2416 202.187 97.5493 200.007 95.4187 198.168C95.0287 197.83 94.4456 197.88 94.0969 198.26Z" fill="#102B44"/>
<path fill-rule="evenodd" clip-rule="evenodd" d="M74.6342 197.504C74.349 197.547 74.1138 197.712 73.98 197.966C73.0706 199.694 69.2877 205.748 66.3392 206.958C63.0492 208.306 70.1696 209.935 73.2745 206.998C76.3781 204.06 78.5635 202.395 80.4799 201.506C82.0148 200.795 81.8472 198.482 80.206 196.186C79.9045 195.763 79.3265 195.683 78.9012 195.98C77.6753 196.834 75.705 197.345 74.6342 197.504Z" fill="#102B44"/>
<path fill-rule="evenodd" clip-rule="evenodd" d="M130.618 80.8682C129.309 75.0622 127.471 69.6562 125.008 64.249C124.198 62.4838 122.131 61.6044 120.268 62.2913C118.322 63.0093 117.332 65.1545 118.058 67.0837L118.107 67.2141C119.018 69.6376 119.971 72.2537 120.745 74.815C121.565 77.3839 122.302 79.9689 122.865 82.5489C123.408 85.1265 123.865 87.6978 123.98 90.1573C124.114 92.592 123.887 94.9795 123.145 96.5173C123.031 96.7943 122.61 97.5049 122.281 98.0552L121.228 99.7706C120.515 100.902 119.771 102.005 119 103.076C117.478 105.236 115.789 107.23 113.975 109.042C110.383 112.605 105.998 115.159 101.001 115.924C99.3396 115.623 97.2272 115.397 94.7964 114.627C94.3978 114.502 93.9515 114.503 93.4977 114.585C91.0543 115.025 88.4756 119.914 89.1338 122.285C89.5425 123.756 91.6022 122.698 93.8876 122.367C98.8394 121.651 104.842 121.629 104.922 120.443C104.933 120.284 104.927 120.15 104.93 120.003C106.75 119.718 108.549 119.244 110.268 118.576C113.192 117.39 115.859 115.7 118.243 113.771C120.643 111.846 122.712 109.624 124.624 107.337C125.568 106.182 126.461 104.999 127.316 103.802L128.572 101.994C128.992 101.357 129.345 100.895 129.867 99.9184C130.786 98.1781 131.245 96.4229 131.517 94.7509C131.777 93.0752 131.869 91.4504 131.811 89.884C131.715 86.7425 131.271 83.7613 130.618 80.8682Z" fill="#F3B89E"/>
<path fill-rule="evenodd" clip-rule="evenodd" d="M117.186 56.7146C114.708 56.4296 116.207 65.2384 116.446 69.6648C116.686 74.0938 118.049 82.3868 118.049 82.3868L130.495 80.2972C131.363 80.1522 131.954 79.3047 131.805 78.403C130.964 73.2956 127.578 57.9101 117.186 56.7146Z" fill="#42B8EB"/>
<path fill-rule="evenodd" clip-rule="evenodd" d="M85.8196 192.711L86.7125 195.802L96.5192 194.257L95.9372 190.453L85.8196 192.711Z" fill="#102B44"/>
<path fill-rule="evenodd" clip-rule="evenodd" d="M67.6304 189.135L68.6425 192.593L78.33 190.449L77.5987 186.173L67.6304 189.135Z" fill="#102B44"/>
<path fill-rule="evenodd" clip-rule="evenodd" d="M104.402 120.905L104.357 120.904C103.997 120.878 103.724 120.558 103.748 120.187C103.848 118.656 103.597 117.583 102.982 116.907C102.315 116.174 101.149 115.832 99.3137 115.832C98.951 115.832 98.6591 115.532 98.6591 115.159C98.6591 114.787 98.951 114.486 99.3137 114.486C101.537 114.486 103.006 114.963 103.938 115.988C104.815 116.952 105.179 118.354 105.055 120.277C105.032 120.632 104.743 120.905 104.402 120.905Z" fill="#212744"/>
<path fill-rule="evenodd" clip-rule="evenodd" d="M105.078 115.047C105.121 115.714 103.729 116.4 101.966 116.582C100.205 116.762 98.7393 116.369 98.6958 115.702L98.6591 115.139L105.041 114.486L105.078 115.047Z" fill="#F8F7F6"/>
<path fill-rule="evenodd" clip-rule="evenodd" d="M105.078 115.276C105.122 115.846 103.722 116.434 101.949 116.588C100.178 116.743 98.7039 116.406 98.6601 115.835C98.6162 115.265 100.016 114.677 101.789 114.523C103.56 114.369 105.034 114.705 105.078 115.276Z" fill="#212744"/>
<path fill-rule="evenodd" clip-rule="evenodd" d="M104.008 114.837C104.036 115.114 102.86 115.422 101.384 115.523C99.9071 115.625 98.6869 115.482 98.6595 115.204C98.6334 114.927 99.8076 114.619 101.284 114.519C102.762 114.417 103.981 114.559 104.008 114.837Z" fill="#F8F7F6"/>
<path fill-rule="evenodd" clip-rule="evenodd" d="M36.6016 129.791C36.7708 130.945 37.8567 131.751 39.018 131.583L110.745 121.169C111.905 121.002 112.716 119.919 112.546 118.765L36.6016 129.791Z" fill="#4FB270"/>
<path fill-rule="evenodd" clip-rule="evenodd" d="M87.9595 122.356C88.2931 123.523 89.4376 124.264 90.6382 124.09L110.771 121.149C111.915 120.983 112.713 119.91 112.546 118.765L87.9595 122.356Z" fill="#16A85D"/>
<path fill-rule="evenodd" clip-rule="evenodd" d="M87.2927 122.479L39.5004 129.424C37.4316 129.725 35.2395 128.324 34.6264 126.309L24.9932 94.6515C24.3801 92.6379 25.5693 90.7434 27.638 90.4424L75.4303 83.4972C77.4991 83.1974 79.6924 84.5992 80.3043 86.6129L89.9388 118.271C90.5506 120.285 89.3602 122.179 87.2927 122.479Z" fill="#4FB270"/>
<path fill-rule="evenodd" clip-rule="evenodd" d="M38.4304 129.424C36.3616 129.725 34.1695 128.322 33.5564 126.309L23.9232 94.6518C23.3101 92.6369 24.5005 90.7436 26.568 90.4426L74.3616 83.4975C76.4291 83.1964 78.6225 84.5995 79.2343 86.6131L88.8688 118.27C89.4807 120.284 88.2902 122.178 86.2227 122.479L38.4304 129.424Z" fill="#70BC81"/>
<path opacity="0.1" fill-rule="evenodd" clip-rule="evenodd" d="M38.0197 128.062L38.0407 128.213L38.0197 128.062L85.8838 121.123C86.5114 121.032 87.0291 120.711 87.3441 120.218C87.6641 119.718 87.737 119.1 87.5467 118.481L77.899 86.8541C77.5049 85.5617 76.1052 84.6658 74.7721 84.8597L26.908 91.7979C26.2804 91.89 25.7615 92.2115 25.4477 92.7025C25.1264 93.2044 25.0548 93.8218 25.245 94.4416L34.8915 126.068C35.2868 127.359 36.6841 128.254 38.0197 128.062ZM37.6589 128.395C36.3135 128.395 34.9928 127.457 34.5962 126.156L24.9485 94.53C24.7336 93.823 24.8176 93.1161 25.1857 92.5392C25.5502 91.9697 26.1457 91.5991 26.8635 91.4947L74.7276 84.5565C76.1978 84.3393 77.7582 85.3334 78.1943 86.7658L87.842 118.392C88.0582 119.098 87.9742 119.806 87.6048 120.383C87.2416 120.952 86.6461 121.323 85.927 121.426L38.0629 128.366C37.9283 128.385 37.7936 128.395 37.6589 128.395Z" fill="#FFFFFE"/>
</svg>
