<svg width="35" height="35" viewBox="0 0 35 35" fill="none" xmlns="http://www.w3.org/2000/svg">
<path fill-rule="evenodd" clip-rule="evenodd" d="M9.9 12.8H26.1C26.5971 12.8 27 12.3971 27 11.9C27 11.4029 26.5971 11 26.1 11H9.9C9.40294 11 9 11.4029 9 11.9C9 12.3971 9.40294 12.8 9.9 12.8ZM16.65 18.2H26.1C26.5971 18.2 27 17.7971 27 17.3C27 16.8029 26.5971 16.4 26.1 16.4H16.65C16.1529 16.4 15.75 16.8029 15.75 17.3C15.75 17.7971 16.1529 18.2 16.65 18.2ZM26.1 23.6H12.1374C11.6403 23.6 11.2374 23.1971 11.2374 22.7C11.2374 22.2029 11.6403 21.8 12.1374 21.8H26.1C26.5971 21.8 27 22.2029 27 22.7C27 23.1971 26.5971 23.6 26.1 23.6Z" fill="#102B44"/>
<mask id="mask0" mask-type="alpha" maskUnits="userSpaceOnUse" x="9" y="11" width="18" height="13">
<path fill-rule="evenodd" clip-rule="evenodd" d="M9.9 12.8H26.1C26.5971 12.8 27 12.3971 27 11.9C27 11.4029 26.5971 11 26.1 11H9.9C9.40294 11 9 11.4029 9 11.9C9 12.3971 9.40294 12.8 9.9 12.8ZM16.65 18.2H26.1C26.5971 18.2 27 17.7971 27 17.3C27 16.8029 26.5971 16.4 26.1 16.4H16.65C16.1529 16.4 15.75 16.8029 15.75 17.3C15.75 17.7971 16.1529 18.2 16.65 18.2ZM26.1 23.6H12.1374C11.6403 23.6 11.2374 23.1971 11.2374 22.7C11.2374 22.2029 11.6403 21.8 12.1374 21.8H26.1C26.5971 21.8 27 22.2029 27 22.7C27 23.1971 26.5971 23.6 26.1 23.6Z" fill="white"/>
</mask>
<g mask="url(#mask0)">
</g>
</svg>
