<svg width="35" height="35" viewBox="0 0 35 35" fill="none" xmlns="http://www.w3.org/2000/svg">
<path fill-rule="evenodd" clip-rule="evenodd" d="M10.9 13.8H27.1C27.5971 13.8 28 13.3971 28 12.9C28 12.4029 27.5971 12 27.1 12H10.9C10.4029 12 10 12.4029 10 12.9C10 13.3971 10.4029 13.8 10.9 13.8ZM17.65 19.2H27.1C27.5971 19.2 28 18.7971 28 18.3C28 17.8029 27.5971 17.4 27.1 17.4H17.65C17.1529 17.4 16.75 17.8029 16.75 18.3C16.75 18.7971 17.1529 19.2 17.65 19.2ZM27.1 24.6H13.1374C12.6403 24.6 12.2374 24.1971 12.2374 23.7C12.2374 23.2029 12.6403 22.8 13.1374 22.8H27.1C27.5971 22.8 28 23.2029 28 23.7C28 24.1971 27.5971 24.6 27.1 24.6Z" fill="#97BCF7"/>
<path fill-rule="evenodd" clip-rule="evenodd" d="M9.9 12.8H26.1C26.5971 12.8 27 12.3971 27 11.9C27 11.4029 26.5971 11 26.1 11H9.9C9.40294 11 9 11.4029 9 11.9C9 12.3971 9.40294 12.8 9.9 12.8ZM16.65 18.2H26.1C26.5971 18.2 27 17.7971 27 17.3C27 16.8029 26.5971 16.4 26.1 16.4H16.65C16.1529 16.4 15.75 16.8029 15.75 17.3C15.75 17.7971 16.1529 18.2 16.65 18.2ZM26.1 23.6H12.1374C11.6403 23.6 11.2374 23.1971 11.2374 22.7C11.2374 22.2029 11.6403 21.8 12.1374 21.8H26.1C26.5971 21.8 27 22.2029 27 22.7C27 23.1971 26.5971 23.6 26.1 23.6Z" fill="#145FD8"/>
</svg>
