<svg width="35" height="35" viewBox="0 0 35 35" fill="none" xmlns="http://www.w3.org/2000/svg">
<path d="M17.5 0C7.83501 0 0 7.83501 0 17.5C0 27.165 7.83501 35 17.5 35C27.165 35 35 27.165 35 17.5C35 7.83501 27.165 0 17.5 0ZM17.5 32.8125C9.04313 32.8125 2.1875 25.9569 2.1875 17.5C2.1875 9.04313 9.04313 2.1875 17.5 2.1875C25.9569 2.1875 32.8125 9.04313 32.8125 17.5C32.8125 25.9569 25.9569 32.8125 17.5 32.8125Z" fill="white"/>
<path d="M14.5361 17.1828L16.0892 15.6297L13.5736 13.125L16.0892 10.6203L14.5361 9.06717L12.0314 11.5828L9.52668 9.06717L7.97355 10.6203L10.4892 13.125L7.97355 15.6297L9.52668 17.1828L12.0314 14.6672L14.5361 17.1828Z" fill="white"/>
<path d="M25.4733 9.06717L22.9686 11.5828L20.4639 9.06717L18.9108 10.6203L21.4264 13.125L18.9108 15.6297L20.4639 17.1828L22.9686 14.6672L25.4733 17.1828L27.0264 15.6297L24.5108 13.125L27.0264 10.6203L25.4733 9.06717Z" fill="white"/>
<path d="M24.0625 21.875H10.9375V24.0625H24.0625V21.875Z" fill="white"/>
</svg>
