<?xml version="1.0" encoding="iso-8859-1"?>
<!-- Generator: Adobe Illustrator 19.0.1, SVG Export Plug-In . SVG Version: 6.00 Build 0)  -->
<svg version="1.1" xmlns="http://www.w3.org/2000/svg" xmlns:xlink="http://www.w3.org/1999/xlink" x="0px" y="0px"
	 viewBox="0 0 128 128" style="enable-background:new 0 0 128 128;" xml:space="preserve">
<g id="_x31_4">
	<path id="icon_13_" style="fill:#231F20;" d="M64.002,128C28.712,128,0,99.29,0,64.001C0,28.712,28.712,0,64.002,0
		C99.29,0,128,28.712,128,64.001C128,99.29,99.29,128,64.002,128z M64.002,9.276c-30.176,0-54.726,24.55-54.726,54.726
		c0,30.174,24.551,54.723,54.726,54.723c30.174,0,54.723-24.549,54.723-54.723C118.725,33.826,94.176,9.276,64.002,9.276z
		 M53.741,61.588c0.772-1.091,0.513-2.603-0.579-3.375L29.999,41.834c-1.091-0.773-2.602-0.512-3.375,0.579
		c-0.772,1.092-0.513,2.603,0.579,3.375l23.163,16.379c0.425,0.301,0.913,0.444,1.396,0.444
		C52.521,62.611,53.269,62.255,53.741,61.588z M29.935,62.167L53.1,45.788c1.092-0.772,1.351-2.283,0.579-3.375
		c-0.773-1.091-2.283-1.353-3.375-0.579L27.139,58.213c-1.092,0.772-1.351,2.283-0.579,3.375c0.472,0.667,1.22,1.023,1.979,1.023
		C29.022,62.611,29.51,62.467,29.935,62.167z M96.648,61.588c0.772-1.091,0.513-2.603-0.579-3.375L72.906,41.834
		c-1.091-0.773-2.602-0.512-3.375,0.579c-0.772,1.092-0.513,2.603,0.579,3.375l23.163,16.379c0.424,0.301,0.913,0.444,1.396,0.444
		C95.428,62.611,96.177,62.255,96.648,61.588z M72.842,62.167l23.165-16.379c1.092-0.772,1.351-2.283,0.579-3.375
		c-0.772-1.091-2.284-1.353-3.375-0.579L70.046,58.213c-1.092,0.772-1.351,2.283-0.579,3.375c0.472,0.667,1.22,1.023,1.979,1.023
		C71.929,62.611,72.417,62.467,72.842,62.167z M88.139,85.91v-0.015c0-2.152-1.744-3.896-3.896-3.896h-46.45
		c-2.152,0-3.896,1.744-3.896,3.896v0.015c0,2.152,1.744,3.896,3.896,3.896h46.45C86.395,89.805,88.139,88.061,88.139,85.91z"/>
</g>
<g id="Layer_1">
</g>
</svg>
