<svg enable-background="new 0 0 128 128" viewBox="0 0 128 128" xmlns="http://www.w3.org/2000/svg"><path d="m64.002 128c-35.29 0-64.002-28.71-64.002-63.999s28.712-64.001 64.002-64.001c35.288 0 63.998 28.712 63.998 64.001s-28.71 63.999-63.998 63.999zm0-118.724c-30.176 0-54.726 24.55-54.726 54.726 0 30.174 24.551 54.723 54.726 54.723 30.174 0 54.723-24.549 54.723-54.723 0-30.176-24.549-54.726-54.723-54.726zm-10.261 52.312c.772-1.091.513-2.603-.579-3.375l-23.163-16.379c-1.091-.773-2.602-.512-3.375.579-.772 1.092-.513 2.603.579 3.375l23.163 16.379c.425.301.913.444 1.396.444.759 0 1.507-.356 1.979-1.023zm-23.806.579 23.165-16.379c1.092-.772 1.351-2.283.579-3.375-.773-1.091-2.283-1.353-3.375-.579l-23.165 16.379c-1.092.772-1.351 2.283-.579 3.375.472.667 1.22 1.023 1.979 1.023.483 0 .971-.144 1.396-.444zm66.713-.579c.772-1.091.513-2.603-.579-3.375l-23.163-16.379c-1.091-.773-2.602-.512-3.375.579-.772 1.092-.513 2.603.579 3.375l23.163 16.379c.424.301.913.444 1.396.444.759 0 1.508-.356 1.979-1.023zm-23.806.579 23.165-16.379c1.092-.772 1.351-2.283.579-3.375-.772-1.091-2.284-1.353-3.375-.579l-23.165 16.379c-1.092.772-1.351 2.283-.579 3.375.472.667 1.22 1.023 1.979 1.023.483 0 .971-.144 1.396-.444zm15.297 23.743v-.015c0-2.152-1.744-3.896-3.896-3.896h-46.45c-2.152 0-3.896 1.744-3.896 3.896v.015c0 2.152 1.744 3.896 3.896 3.896h46.45c2.152-.001 3.896-1.745 3.896-3.896z" fill="#231f20"/></svg>