<svg width="35" height="35" viewBox="0 0 35 35" fill="none" xmlns="http://www.w3.org/2000/svg">
<path d="M17.5 0C7.83501 0 0 7.83501 0 17.5C0 27.165 7.83501 35 17.5 35C27.165 35 35 27.165 35 17.5C35 7.83501 27.165 0 17.5 0ZM17.5 32.8125C9.04313 32.8125 2.1875 25.9569 2.1875 17.5C2.1875 9.04313 9.04313 2.1875 17.5 2.1875C25.9569 2.1875 32.8125 9.04313 32.8125 17.5C32.8125 25.9569 25.9569 32.8125 17.5 32.8125Z" fill="white"/>
<path d="M12.0312 14.2188C13.2394 14.2188 14.2188 13.2394 14.2188 12.0312C14.2188 10.8231 13.2394 9.84375 12.0312 9.84375C10.8231 9.84375 9.84375 10.8231 9.84375 12.0312C9.84375 13.2394 10.8231 14.2188 12.0312 14.2188Z" fill="white"/>
<path d="M22.9688 14.2188C24.1769 14.2188 25.1562 13.2394 25.1562 12.0312C25.1562 10.8231 24.1769 9.84375 22.9688 9.84375C21.7606 9.84375 20.7812 10.8231 20.7812 12.0312C20.7812 13.2394 21.7606 14.2188 22.9688 14.2188Z" fill="white"/>
<path d="M25.1562 20.7812H9.84375V22.9688H25.1562V20.7812Z" fill="white"/>
</svg>
