<svg enable-background="new 0 0 128 128" viewBox="0 0 128 128" xmlns="http://www.w3.org/2000/svg"><path d="m48.232 24.246-24.394 13.171c20.981-2.931 32.928-13.171 32.928-13.171zm45.505 59.084-2.208 2.078 1.484 2.838c-27.974 10.351-55.3.742-59.418-.835l1.874-3.562-2.208-2.096-5.881 9.442 2.449 1.781 1.781-1.781.427-.816c29.681 14.785 55.485 4.267 62.516.816l2.597 3.339 2.467-1.762zm-15.267-59.084h-8.533s11.947 10.24 32.928 13.171zm0 0h-8.533s11.947 10.24 32.928 13.171zm13.059 61.162 1.484 2.838c-27.974 10.351-55.3.742-59.418-.835l1.874-3.562-2.208-2.096-5.881 9.442 2.449 1.781 1.781-1.781.427-.816c29.681 14.785 55.485 4.267 62.516.816l2.597 3.339 2.467-1.762-5.881-9.442zm-43.297-61.162-24.394 13.171c20.981-2.931 32.928-13.171 32.928-13.171zm15.768-24.246c-35.283 0-64 28.717-64 64 0 35.302 28.717 64 64 64s64-28.698 64-64c0-35.283-28.717-64-64-64zm0 118.725c-30.182 0-54.725-24.543-54.725-54.725 0-30.163 24.543-54.725 54.725-54.725s54.725 24.562 54.725 54.725c0 30.182-24.543 54.725-54.725 54.725zm14.47-94.479h-8.533s11.947 10.24 32.928 13.171zm13.059 61.162 1.484 2.838c-27.974 10.351-55.3.742-59.418-.835l1.874-3.562-2.208-2.096-5.881 9.442 2.449 1.781 1.781-1.781.427-.816c29.681 14.785 55.485 4.267 62.516.816l2.597 3.339 2.467-1.762-5.881-9.442zm-43.297-61.162-24.394 13.171c20.981-2.931 32.928-13.171 32.928-13.171zm0 0-24.394 13.171c20.981-2.931 32.928-13.171 32.928-13.171zm45.505 59.084-2.208 2.078 1.484 2.838c-27.974 10.351-55.3.742-59.418-.835l1.874-3.562-2.208-2.096-5.881 9.442 2.449 1.781 1.781-1.781.427-.816c29.681 14.785 55.485 4.267 62.516.816l2.597 3.339 2.467-1.762zm-15.267-59.084h-8.533s11.947 10.24 32.928 13.171zm-30.238 0-24.394 13.171c20.981-2.931 32.928-13.171 32.928-13.171zm30.238 0h-8.533s11.947 10.24 32.928 13.171zm15.267 59.084-2.208 2.078 1.484 2.838c-27.974 10.351-55.3.742-59.418-.835l1.874-3.562-2.208-2.096-5.881 9.442 2.449 1.781 1.781-1.781.427-.816c29.681 14.785 55.485 4.267 62.516.816l2.597 3.339 2.467-1.762zm12.002-30.275c-3.339-7.624-10.963-12.577-19.46-12.577s-16.139 4.953-19.459 12.577l-.204.501.074.519c1.336 8.719 10.926 13.06 20.165 13.06.464 0 .928-.019 1.391-.037 8.422-.408 17.141-4.638 17.642-13.19l.019-.445zm-9.479 8.385c-.074-5.454-4.508-9.832-9.98-9.832-5.343 0-9.702 4.174-9.962 9.461-2.987-1.558-5.194-3.896-5.862-7.031 2.838-5.992 8.997-9.85 15.824-9.85 6.864 0 13.041 3.896 15.861 9.943-.372 3.376-2.709 5.788-5.881 7.309zm-36.378-8.385c-3.321-7.624-10.963-12.577-19.46-12.577-8.478 0-16.121 4.953-19.46 12.577l-.167.408.019.445c.501 8.552 9.22 12.781 17.642 13.19.464.019.928.037 1.391.037 9.238 0 18.829-4.341 20.165-13.06l.093-.519zm-9.498 8.014c-.26-5.287-4.619-9.461-9.962-9.461-5.454 0-9.888 4.378-9.98 9.813-3.172-1.503-5.51-3.914-5.881-7.29 2.82-6.048 8.997-9.943 15.861-9.943 6.827 0 12.986 3.859 15.824 9.85-.668 3.117-2.894 5.454-5.862 7.031z" fill="#231f20"/></svg>