<?xml version="1.0" encoding="iso-8859-1"?>
<!-- Generator: Adobe Illustrator 19.0.1, SVG Export Plug-In . SVG Version: 6.00 Build 0)  -->
<svg version="1.1" xmlns="http://www.w3.org/2000/svg" xmlns:xlink="http://www.w3.org/1999/xlink" x="0px" y="0px"
	 viewBox="0 0 128 128" style="enable-background:new 0 0 128 128;" xml:space="preserve">
<g id="_x31_3">
	<path id="icon_29_" style="fill:#231F20;" d="M48.232,24.246L23.838,37.417c20.981-2.931,32.928-13.171,32.928-13.171H48.232z
		 M93.737,83.33l-2.208,2.078l1.484,2.838c-27.974,10.351-55.3,0.742-59.418-0.835l1.874-3.562l-2.208-2.096l-5.881,9.442
		l2.449,1.781l1.781-1.781l0.427-0.816c29.681,14.785,55.485,4.267,62.516,0.816l2.597,3.339l2.467-1.762L93.737,83.33z
		 M78.47,24.246h-8.533c0,0,11.947,10.24,32.928,13.171L78.47,24.246z M78.47,24.246h-8.533c0,0,11.947,10.24,32.928,13.171
		L78.47,24.246z M91.529,85.408l1.484,2.838c-27.974,10.351-55.3,0.742-59.418-0.835l1.874-3.562l-2.208-2.096l-5.881,9.442
		l2.449,1.781l1.781-1.781l0.427-0.816c29.681,14.785,55.485,4.267,62.516,0.816l2.597,3.339l2.467-1.762l-5.881-9.442
		L91.529,85.408z M48.232,24.246L23.838,37.417c20.981-2.931,32.928-13.171,32.928-13.171H48.232z M64,0C28.717,0,0,28.717,0,64
		c0,35.302,28.717,64,64,64s64-28.698,64-64C128,28.717,99.283,0,64,0z M64,118.725C33.818,118.725,9.275,94.182,9.275,64
		C9.275,33.837,33.818,9.275,64,9.275S118.725,33.837,118.725,64C118.725,94.182,94.182,118.725,64,118.725z M78.47,24.246h-8.533
		c0,0,11.947,10.24,32.928,13.171L78.47,24.246z M91.529,85.408l1.484,2.838c-27.974,10.351-55.3,0.742-59.418-0.835l1.874-3.562
		l-2.208-2.096l-5.881,9.442l2.449,1.781l1.781-1.781l0.427-0.816c29.681,14.785,55.485,4.267,62.516,0.816l2.597,3.339l2.467-1.762
		l-5.881-9.442L91.529,85.408z M48.232,24.246L23.838,37.417c20.981-2.931,32.928-13.171,32.928-13.171H48.232z M48.232,24.246
		L23.838,37.417c20.981-2.931,32.928-13.171,32.928-13.171H48.232z M93.737,83.33l-2.208,2.078l1.484,2.838
		c-27.974,10.351-55.3,0.742-59.418-0.835l1.874-3.562l-2.208-2.096l-5.881,9.442l2.449,1.781l1.781-1.781l0.427-0.816
		c29.681,14.785,55.485,4.267,62.516,0.816l2.597,3.339l2.467-1.762L93.737,83.33z M78.47,24.246h-8.533
		c0,0,11.947,10.24,32.928,13.171L78.47,24.246z M48.232,24.246L23.838,37.417c20.981-2.931,32.928-13.171,32.928-13.171H48.232z
		 M78.47,24.246h-8.533c0,0,11.947,10.24,32.928,13.171L78.47,24.246z M93.737,83.33l-2.208,2.078l1.484,2.838
		c-27.974,10.351-55.3,0.742-59.418-0.835l1.874-3.562l-2.208-2.096l-5.881,9.442l2.449,1.781l1.781-1.781l0.427-0.816
		c29.681,14.785,55.485,4.267,62.516,0.816l2.597,3.339l2.467-1.762L93.737,83.33z M105.739,53.055
		c-3.339-7.624-10.963-12.577-19.46-12.577S70.14,45.431,66.82,53.055l-0.204,0.501l0.074,0.519
		c1.336,8.719,10.926,13.06,20.165,13.06c0.464,0,0.928-0.019,1.391-0.037c8.422-0.408,17.141-4.638,17.642-13.19l0.019-0.445
		L105.739,53.055z M96.26,61.44c-0.074-5.454-4.508-9.832-9.98-9.832c-5.343,0-9.702,4.174-9.962,9.461
		c-2.987-1.558-5.194-3.896-5.862-7.031c2.838-5.992,8.997-9.85,15.824-9.85c6.864,0,13.041,3.896,15.861,9.943
		C101.769,57.507,99.432,59.919,96.26,61.44z M59.882,53.055c-3.321-7.624-10.963-12.577-19.46-12.577
		c-8.478,0-16.121,4.953-19.46,12.577l-0.167,0.408l0.019,0.445c0.501,8.552,9.22,12.781,17.642,13.19
		c0.464,0.019,0.928,0.037,1.391,0.037c9.238,0,18.829-4.341,20.165-13.06l0.093-0.519L59.882,53.055z M50.384,61.069
		c-0.26-5.287-4.619-9.461-9.962-9.461c-5.454,0-9.888,4.378-9.98,9.813c-3.172-1.503-5.51-3.914-5.881-7.29
		c2.82-6.048,8.997-9.943,15.861-9.943c6.827,0,12.986,3.859,15.824,9.85C55.578,57.155,53.352,59.492,50.384,61.069z"/>
</g>
<g id="Layer_1">
</g>
</svg>
