<?xml version="1.0" encoding="UTF-8"?>
<svg width="250px" height="178px" viewBox="0 0 250 178" version="1.1"
    xmlns="http://www.w3.org/2000/svg">
    <title>Illustration</title>
    <g id="Page-1" stroke="none" stroke-width="1" fill="none" fill-rule="evenodd">
        <g id="29-Profile_Schedule_Set" transform="translate(-63.000000, -198.000000)">
            <g id="Modal" transform="translate(29.000000, 159.000000)">
                <g id="Illustration" transform="translate(34.000000, 39.000000)">
                    <path
                        d="M208.335602,161.702006 C208.274355,161.554262 208.196991,161.412966 208.102436,161.28134 C207.653295,160.652758 206.877507,160.315903 206.108703,160.315903 C205.571454,160.315903 205.037966,160.480301 204.62106,160.823603 C206.401504,158.412428 209.15437,147.726003 200.694305,143.015938 C197.104943,141.017908 193.806769,140.252865 190.948603,140.252865 C185.36336,140.252865 181.455408,143.173352 180.318589,145.523818 C179.709885,143.089004 177.575931,141.067335 175.446275,139.84563 L175.446275,37.9837034 C175.446275,35.0933023 173.103331,32.7503582 170.21293,32.7503582 L156.580766,32.7503582 C155.889864,31.8929083 154.830408,31.344914 153.64255,31.344914 L131.279549,31.344914 C131.279549,29.6880372 131.279549,26.5402937 131.279549,25.5152221 C131.279549,22.5528295 128.878044,20.1518625 125.915652,20.1518625 C123.026325,20.1518625 120.66995,22.4367837 120.55659,25.2987106 C120.55659,25.2997851 120.55659,25.3008596 120.55659,25.3019341 C120.55659,25.3056948 120.556053,25.3094556 120.556053,25.3132163 C120.556053,25.3148281 120.556053,25.3159026 120.556053,25.3175143 C120.555516,25.3212751 120.555516,25.3250358 120.555516,25.3282593 C120.555516,25.3298711 120.555516,25.3314828 120.555516,25.3325573 C120.554979,25.3400788 120.554979,25.3476003 120.554441,25.3551218 C120.554441,25.3561963 120.554441,25.3572708 120.554441,25.357808 C120.554441,25.3604943 120.554441,25.3637178 120.554441,25.366404 C120.554441,25.3690903 120.554441,25.3712393 120.553904,25.3739255 C120.553904,25.3760745 120.553904,25.379298 120.553904,25.3819842 C120.553904,25.3846705 120.553904,25.3868195 120.553904,25.3895057 C120.553904,25.392192 120.553904,25.3948782 120.553367,25.3975645 C120.553367,25.4002507 120.553367,25.4034742 120.553367,25.4061605 C120.553367,25.4083095 120.553367,25.4109957 120.553367,25.4131447 C120.553367,25.4169054 120.553367,25.4206662 120.55283,25.4238897 C120.55283,25.4260387 120.55283,25.4281877 120.55283,25.4303367 C120.55283,25.4351719 120.55283,25.4394699 120.55283,25.4448424 C120.55283,25.4464542 120.55283,25.4486032 120.55283,25.4502149 C120.55283,25.4534384 120.55283,25.4571991 120.55283,25.4604226 C120.55283,25.4625716 120.552292,25.4647206 120.552292,25.4668696 C120.552292,25.4706304 120.552292,25.4738539 120.552292,25.4770774 C120.552292,25.4792264 120.552292,25.4813754 120.552292,25.4829871 C120.552292,25.4867479 120.552292,25.4899713 120.552292,25.4937321 C120.552292,25.4953438 120.552292,25.4974928 120.552292,25.4991046 C120.552292,25.5044771 120.552292,25.5098496 120.552292,25.5152221 L120.552292,31.344914 L96.1515043,31.344914 C94.9663324,31.344914 93.9068768,31.8929083 93.2148997,32.7503582 L79.5832736,32.7503582 C76.6928725,32.7503582 74.3499284,35.0933023 74.3499284,37.9837034 L74.3499284,98.2313754 L64.286712,109.07038 C61.469914,102.852794 59.3875358,96.3053367 58.1583095,89.5821991 L57.4217407,89.7170487 C58.683202,96.6067335 60.8279011,103.306769 63.7354943,109.664577 L62.7071991,110.771848 C61.4548711,110.147027 59.8898639,109.655981 57.9036533,109.655981 C56.9188754,109.655981 55.8309456,109.776325 54.6253582,110.061605 C51.8751791,110.709527 50.9693768,111.439112 50.991404,113.474212 C50.9989255,114.150609 51.1085244,114.972063 51.2874284,115.979943 C51.5995702,117.739971 52.2093481,119.743374 52.7992479,121.443768 L50.4971347,123.923711 C50.4450215,123.87106 50.41601,123.841511 50.41601,123.841511 L49.6262536,123.529907 L48.7569842,124.471168 C48.9084885,124.735494 49.0744986,125.000358 49.2523281,125.264685 L47.4847779,127.168159 C47.3714183,127.213288 47.2682665,127.277221 47.1849928,127.36533 C47.0979585,127.457736 47.0399355,127.566798 47.0044771,127.686067 L42.0950931,132.974212 C36.0870344,130.755372 29.8409742,129.176934 23.5025072,128.306053 C29.1382521,123.815186 33.2143625,119.491404 31.2668338,114.186605 C27.1993195,103.109599 34.6826648,93.3488539 44.9016834,85.1665473 C55.142192,76.967586 66.3255731,78.6169413 61.5848854,56.4070559 C56.262894,31.4717049 74.5266834,32.346884 84.8929083,22.6957378 C100.042801,8.59079513 107.708811,0.581482808 124.325931,0.166726361 C124.691798,0.157593123 125.059814,0.15275788 125.4375,0.15275788 C148.834706,0.15275788 193.824499,17.6622493 199.647744,39.594914 C202.342049,49.7419413 202.163682,61.6441619 212.039936,67.8993553 C216.374463,70.6446991 221.229585,71.8309456 226.100287,73.5571275 C236.011461,77.0696633 240.131089,84.7281519 240.017192,92.2469556 C239.738897,110.631626 227.095809,111.182307 231.073066,125.450036 C233.850645,135.413861 243.031698,140.517729 239.479405,150.328976 C236.359062,158.947529 221.917801,161.287249 208.335602,161.702006 M206.303188,82.1300143 L199.497851,119.812142 L204.344914,120.687321 L210.887536,84.4606017 L210.890222,84.461139 L211.1524,83.0094914 L211.149713,83.0089542 L211.150251,83.0057307 L211.873926,78.9989255 C211.880372,78.9618553 211.883596,78.9247851 211.884134,78.8877149 C211.88467,78.5895415 211.671383,78.3241404 211.367299,78.269341 L207.756447,77.6171203 C207.71884,77.6101361 207.681232,77.6069126 207.644162,77.6069126 C207.345989,77.6069126 207.081662,77.8202006 207.026862,78.1237464 L206.303188,82.1300143 M29.3977436,160.895057 C17.5261461,160.895057 0.0816618911,159.987643 3.40239971,149.246956 C6.07037966,140.618732 15.4378582,134.609062 22.6842765,128.951289 C29.1124642,129.779191 35.4466332,131.340974 41.5428009,133.568947 L36.2874284,139.229405 L35.5583811,140.019162 L35.4998209,139.9649 L33.0875716,142.559814 L30.6780086,145.156877 L39.1396848,153.016834 L43.5510387,148.384133 L43.9754656,147.927471 L51.0859599,140.268446 C51.4002507,140.127686 51.7183023,139.988001 52.0460244,139.842944 C51.6205229,143.337751 50.6679799,151.254119 50.4186963,153.166189 C49.5102077,153.420845 48.7430158,153.964004 48.4238897,154.846168 C47.8753582,156.362285 48.8219914,158.398997 47.631447,159.48639 C47.1210602,159.951648 46.3828797,160.047815 45.6957378,160.11336 C43.3952364,160.331483 41.060351,160.579692 38.7593123,160.852615 C34.2453438,160.878403 31.0019699,160.895057 29.3977436,160.895057 M58.7627149,154.962213 C58.5472779,154.962213 58.3334527,154.946096 58.1260745,154.913861 C56.8651504,154.715616 55.70899,154.135924 54.5205946,153.657235 C55.2770415,151.406698 57.394341,146.495702 59.1081662,142.271848 C60.2342407,142.993374 61.3436605,143.74015 62.435351,144.51164 C61.1255372,145.506626 60.3137536,147.219914 60.8477794,148.802113 C61.2700573,150.053904 62.3295129,151.143983 62.241404,152.461855 C62.1355659,154.047278 60.392192,154.962213 58.7627149,154.962213 M69.8526146,145.527579 C68.5154011,145.527579 67.1996777,144.289219 65.8157235,143.825036 C65.4810172,143.712751 65.1404011,143.660638 64.8024713,143.660638 C64.2217049,143.660638 63.6479226,143.814291 63.1214183,144.080766 C61.8997135,143.21096 60.6575931,142.373388 59.3934456,141.565903 C59.5207736,141.248388 59.6454155,140.936246 59.7662966,140.631089 L63.7037966,141.55462 C63.9509312,135.726003 63.2294054,131.614434 63.1504298,131.186246 L63.1515043,131.034742 C63.1558023,130.952543 63.1568768,130.866046 63.1547278,130.776325 L63.1536533,130.747314 C63.1504298,130.62106 63.1472063,130.500179 63.1439828,130.381984 C63.1171203,128.973854 63.1869628,127.967586 63.3040831,127.106375 L66.6108524,123.543875 C68.1226719,123.419771 69.6087034,123.104405 71.0157593,122.599391 C72.0779011,124.167085 73.1910817,125.702543 74.3499284,127.200394 L74.3499284,137.497314 C73.4661533,138.355301 72.8160817,139.401862 72.5383238,140.640222 C72.1482808,142.379835 72.2847421,144.687858 70.6380731,145.371239 C70.3748209,145.480301 70.1131805,145.527579 69.8526146,145.527579 M74.3499284,125.967944 C73.0723496,124.27937 71.8554799,122.546203 70.7009312,120.772206 C70.9878223,119.885745 71.2209885,119.092228 71.4536175,118.327185 L74.3499284,115.207378 L74.3499284,125.967944 M70.7116762,122.148102 C69.9106375,121.926218 69.1772923,121.737106 68.4648997,121.546383 L69.5544413,120.37303 C69.9326648,120.96884 70.3194842,121.561426 70.7116762,122.148102 M70.1953797,119.985673 C70.157235,119.925501 70.1190903,119.865867 70.0809456,119.805695 L70.1282235,119.754656 C70.1502507,119.83202 70.1722779,119.908847 70.1953797,119.985673 M125.915652,28.5931232 C124.25394,28.5931232 122.907056,27.2462393 122.907056,25.58399 C122.907056,24.0592765 124.040652,22.7999642 125.510566,22.6017192 C125.495523,22.6081662 125.479943,22.6140759 125.463825,22.6205229 C125.612643,22.5979585 125.760924,22.5748567 125.915652,22.5748567 C126.120344,22.5748567 126.320201,22.5952722 126.513073,22.6339542 C127.888968,22.9111748 128.925322,24.1264327 128.925322,25.58399 C128.925322,26.4994628 128.408489,27.4068768 127.763789,27.9586318 C127.764327,27.9586318 127.764327,27.9586318 127.764864,27.9586318 C127.254477,28.3561963 126.613001,28.5931232 125.915652,28.5931232"
                        id="Fill-4" fill="#EDF7FA"></path>
                    <path
                        d="M243.915473,120.858703 C235.370523,140.747672 218.895774,156.992479 199.151325,165.795308 L199.456483,166.478689 C219.369628,157.597958 235.97654,141.227436 244.603152,121.154191 L243.915473,120.858703"
                        id="Fill-5" fill="#C4E6F0"></path>
                    <path
                        d="M241.739076,126.321991 C244.737464,123.826468 246.789219,120.220451 247.403832,116.368374 C247.554262,115.42389 247.584885,114.348317 246.950394,113.633238 C246.775788,113.436605 246.545308,113.274355 246.283668,113.24803 C245.862464,113.20505 245.491762,113.515043 245.210244,113.831483 C243.719377,115.507163 243.201468,117.825394 242.945738,120.054441 C242.68947,122.282951 242.201648,123.918338 241.739076,126.321991"
                        id="Fill-6" fill="#C4E6F0"></path>
                    <path
                        d="M237.662428,133.12894 C239.425143,129.649176 239.878582,125.525251 238.914756,121.745165 C238.678367,120.81841 238.280265,119.819126 237.413682,119.414577 C237.175681,119.30283 236.899534,119.245344 236.649176,119.324857 C236.245702,119.452722 236.028116,119.884133 235.895415,120.285996 C235.191082,122.416189 235.635387,124.749463 236.283847,126.896848 C236.932844,129.044771 237.133775,130.738718 237.662428,133.12894"
                        id="Fill-7" fill="#C4E6F0"></path>
                    <path
                        d="M231.662966,141.502507 C233.837751,138.263968 234.792443,134.22654 234.297636,130.356734 C234.176755,129.408489 233.903295,128.367837 233.093123,127.860136 C232.870702,127.720989 232.603152,127.629656 232.345272,127.678009 C231.928904,127.755372 231.660279,128.157235 231.479226,128.539756 C230.520236,130.567872 230.675501,132.937679 231.056948,135.14846 C231.438395,137.359241 231.430874,139.065544 231.662966,141.502507"
                        id="Fill-8" fill="#C4E6F0"></path>
                    <path
                        d="M224.768446,148.839721 C226.943231,145.601182 227.897923,141.563754 227.403116,137.693947 C227.282235,136.745702 227.008775,135.70505 226.198603,135.19735 C225.975645,135.057665 225.708632,134.96687 225.450215,135.014685 C225.034384,135.092586 224.765759,135.494448 224.584706,135.87697 C223.625179,137.904549 223.780981,140.274893 224.162428,142.485673 C224.543875,144.696454 224.535817,146.402758 224.768446,148.839721"
                        id="Fill-9" fill="#C4E6F0"></path>
                    <path
                        d="M214.44144,157.307307 C216.939649,154.311605 218.307486,150.39452 218.216153,146.494628 C218.194126,145.538861 218.030265,144.475107 217.276504,143.886282 C217.069663,143.72457 216.813395,143.606375 216.551218,143.627328 C216.129477,143.661712 215.821096,144.032951 215.601361,144.395057 C214.437142,146.3125 214.346347,148.686067 214.496777,150.924248 C214.646669,153.162966 214.462393,154.859062 214.44144,157.307307"
                        id="Fill-10" fill="#C4E6F0"></path>
                    <path
                        d="M206.350466,162.715795 C208.808381,160.04889 210.395415,156.328438 210.731734,152.446812 C210.813933,151.495344 210.786533,150.419771 210.203617,149.743374 C210.043517,149.557486 209.836676,149.408668 209.609957,149.397385 C209.245165,149.379656 208.941619,149.710602 208.7149,150.043159 C207.514148,151.803725 207.184277,154.148281 207.075752,156.388073 C206.966691,158.628403 206.628761,160.28904 206.350466,162.715795"
                        id="Fill-11" fill="#C4E6F0"></path>
                    <path
                        d="M235.619807,136.126791 C239.576648,136.779011 243.845093,135.960244 247.402758,133.866046 C248.274713,133.352973 249.178367,132.659384 249.363181,131.692335 C249.413682,131.426397 249.400788,131.140043 249.256268,130.920308 C249.023639,130.566798 248.533668,130.486748 248.094735,130.480301 C245.76952,130.445917 243.534563,131.591332 241.539756,132.879656 C239.544413,134.16798 237.890222,134.881447 235.619807,136.126791"
                        id="Fill-12" fill="#C4E6F0"></path>
                    <path
                        d="M230.772206,142.462572 C234.458811,144.040473 238.799248,144.264506 242.75394,143.080408 C243.723138,142.789756 244.766476,142.332557 245.176397,141.4375 C245.289219,141.19144 245.345093,140.909921 245.257521,140.662249 C245.116225,140.263073 244.659026,140.068589 244.234599,139.957378 C241.984599,139.36909 239.540652,139.948245 237.296024,140.722958 C235.05086,141.497135 233.274176,141.795308 230.772206,142.462572"
                        id="Fill-13" fill="#C4E6F0"></path>
                    <path
                        d="M223.530623,149.851898 C226.827185,152.135745 231.035458,153.223138 235.147027,152.854047 C236.15437,152.763789 237.268087,152.523639 237.848854,151.729047 C238.008954,151.510387 238.119628,151.24606 238.083632,150.986032 C238.024534,150.56644 237.615688,150.284384 237.221884,150.090974 C235.135208,149.063754 232.625179,149.142192 230.270953,149.452185 C227.916189,149.762178 226.115867,149.698782 223.530623,149.851898"
                        id="Fill-14" fill="#C4E6F0"></path>
                    <path
                        d="M213.400788,158.385029 C217.121239,159.880731 221.465974,160.007521 225.393266,158.735852 C226.35548,158.424248 227.38861,157.94341 227.778653,157.039756 C227.886103,156.79101 227.93553,156.508417 227.842049,156.262894 C227.692156,155.866941 227.230659,155.682665 226.804083,155.581125 C224.541189,155.042801 222.111211,155.675681 219.884312,156.500358 C217.656877,157.324499 215.887178,157.661891 213.400788,158.385029"
                        id="Fill-15" fill="#C4E6F0"></path>
                    <path
                        d="M205.209885,163.275609 C207.859062,166.285817 211.681053,168.355301 215.760387,168.987643 C216.760208,169.142371 217.898639,169.178367 218.654011,168.546562 C218.86139,168.37303 219.033309,168.143087 219.060709,167.881984 C219.104764,167.460781 218.775967,167.088467 218.440186,166.805874 C216.662428,165.306411 214.207199,164.777758 211.8476,164.511282 C209.487464,164.244807 207.755372,163.749463 205.209885,163.275609"
                        id="Fill-16" fill="#C4E6F0"></path>
                    <path
                        d="M195.712393,78.972063 C195.607092,78.9661533 195.520057,78.8828797 195.512536,78.7748926 L195.437321,77.7063037 C195.428725,77.5897206 195.516834,77.4881805 195.633954,77.4801218 C195.749463,77.4688395 195.85154,77.5596347 195.860136,77.676755 L195.935351,78.7453438 C195.94341,78.8619269 195.855838,78.963467 195.738718,78.9715258 L195.712393,78.972063"
                        id="Fill-17" fill="#5895BF"></path>
                    <polyline id="Fill-18" fill="#C4E6F0"
                        points="200.512715 127.5351 197.688395 127.733883 194.546024 82.1977077 195.957915 82.0983166 197.370344 81.9994628 200.512715 127.5351"></polyline>
                    <polyline id="Fill-19" fill="#C4E6F0"
                        points="195.979405 78.3171562 195.408847 78.3574499 194.546024 82.1977077 197.370344 81.9994628 195.979405 78.3171562"></polyline>
                    <path
                        d="M57.4217407,89.7170487 C62.469735,117.288682 81.6763968,141.851182 107.217228,153.398818 L107.525609,152.716511 C82.2168696,141.280086 63.1541905,116.901862 58.1583095,89.5821991 L57.4217407,89.7170487"
                        id="Fill-20" fill="#C4E6F0"></path>
                    <path
                        d="M59.0614255,95.3936246 C56.6953797,92.2920845 55.4989255,88.3191261 55.7589542,84.4272923 C55.8228868,83.4731375 56.0329513,82.4179799 56.8108883,81.8624642 C57.0247135,81.7093481 57.2858166,81.6024355 57.5469198,81.6352077 C57.9665115,81.6873209 58.2587751,82.0719914 58.4623926,82.4432307 C59.5428009,84.409563 59.5304441,86.7842049 59.2833095,89.0143266 C59.0356375,91.2439112 59.1463109,92.9469914 59.0614255,95.3936246"
                        id="Fill-21" fill="#C4E6F0"></path>
                    <path
                        d="M61.5182665,102.938216 C60.5759312,99.1527579 61.0530086,95.0309814 62.8356017,91.5614255 C63.2723854,90.7109599 63.8837751,89.8255731 64.8180516,89.6241046 C65.0748567,89.5687679 65.3574499,89.5736032 65.5836318,89.7073782 C65.9489613,89.9217407 66.0639327,90.3907593 66.1042264,90.8125 C66.3159026,93.0458453 65.3628223,95.2211676 64.2512536,97.1697708 C63.1402221,99.1189112 62.5664398,100.725824 61.5182665,102.938216"
                        id="Fill-22" fill="#C4E6F0"></path>
                    <path
                        d="M65.4992837,112.438395 C64.101361,108.796383 64.0707378,104.647744 65.41601,100.985852 C65.7453438,100.088109 66.2439112,99.1344914 67.1470272,98.8207378 C67.3952364,98.7342407 67.6756805,98.7052292 67.9169054,98.8094556 C68.3053367,98.9781519 68.4772564,99.4294413 68.5685888,99.842586 C69.0515759,102.033489 68.3714183,104.309277 67.5069842,106.379298 C66.6420129,108.449319 66.2691619,110.114792 65.4992837,112.438395"
                        id="Fill-23" fill="#C4E6F0"></path>
                    <path
                        d="M70.5843481,121.127865 C69.1864255,117.48639 69.1563395,113.337213 70.5010745,109.675322 C70.8309456,108.778116 71.3289756,107.824499 72.2320917,107.510208 C72.4803009,107.423711 72.7612822,107.394699 73.0019699,107.499463 C73.3904011,107.667622 73.5623209,108.118911 73.6536533,108.532593 C74.1366404,110.723496 73.4564828,112.998746 72.5920487,115.069305 C71.7270774,117.139327 71.3542264,118.804262 70.5843481,121.127865"
                        id="Fill-24" fill="#C4E6F0"></path>
                    <path
                        d="M78.7634312,131.684814 C76.9958811,128.207736 76.5359957,124.084348 77.4944484,120.30265 C77.7292264,119.375895 78.1262536,118.376074 78.9917622,117.969914 C79.2297636,117.858166 79.5059097,117.800143 79.7568052,117.879119 C80.1602794,118.006447 80.3784026,118.437321 80.5116404,118.839183 C81.2191977,120.968302 80.7786533,123.302113 80.1328797,125.450573 C79.487106,127.599033 79.288861,129.294054 78.7634312,131.684814"
                        id="Fill-25" fill="#C4E6F0"></path>
                    <path
                        d="M85.4446633,138.761461 C83.6438037,135.613718 82.9260387,131.633238 83.4638252,127.774176 C83.5954513,126.82808 83.8624642,125.785817 84.5807665,125.256089 C84.7784742,125.110494 85.0132521,125.01164 85.2367479,125.051397 C85.5967049,125.115867 85.8185888,125.50591 85.9652579,125.880372 C86.7431948,127.864434 86.5422636,130.223496 86.1489971,132.43159 C85.7557307,134.639148 85.7148997,136.333632 85.4446633,138.761461"
                        id="Fill-26" fill="#C4E6F0"></path>
                    <path
                        d="M62.8409742,106.315365 C58.8379298,106.069305 54.8595989,104.318947 51.8585244,101.484957 C51.1230301,100.790294 50.3966691,99.9124284 50.4321275,98.9287249 C50.441798,98.6584885 50.5186246,98.3818052 50.7082736,98.1996777 C51.0139685,97.9068768 51.5093123,97.9385745 51.9385745,98.0299069 C54.213288,98.5145057 56.1361032,100.130014 57.7940544,101.830408 C59.4520057,103.530802 60.905265,104.595093 62.8409742,106.315365"
                        id="Fill-27" fill="#C4E6F0"></path>
                    <path
                        d="M66.1536533,113.573066 C62.2080946,114.289219 57.926755,113.539219 54.3357808,111.503582 C53.4557665,111.004477 52.5408309,110.325931 52.340437,109.361569 C52.2856375,109.096705 52.2936963,108.809814 52.4344556,108.58793 C52.6611748,108.230659 53.1500716,108.143087 53.5890043,108.129119 C55.9131447,108.057128 58.1663682,109.166547 60.1821275,110.422099 C62.1978868,111.67765 63.8633596,112.364255 66.1536533,113.573066"
                        id="Fill-28" fill="#C4E6F0"></path>
                    <path
                        d="M71.5653653,122.390938 C67.8422278,123.881805 63.4980301,124.003761 59.5723496,122.727256 C58.6101361,122.414577 57.5780802,121.932665 57.1891117,121.027937 C57.0821991,120.779728 57.0327722,120.497135 57.1262536,120.251074 C57.2766834,119.855659 57.7381805,119.67192 58.1652937,119.570917 C60.4281877,119.035279 62.8576289,119.671383 65.08399,120.498209 C67.310351,121.325573 69.0795129,121.665115 71.5653653,122.390938"
                        id="Fill-29" fill="#C4E6F0"></path>
                    <path
                        d="M79.5376074,132.967765 C75.5770057,133.595809 71.3133954,132.751254 67.7691619,130.635566 C66.8998926,130.11712 66.0005372,129.418696 65.8216332,128.450573 C65.7727436,128.184097 65.7872493,127.897744 65.9328438,127.679083 C66.1676218,127.326648 66.6581304,127.249821 67.097063,127.24606 C69.4228152,127.225645 71.6502507,128.384491 73.6375358,129.684635 C75.6253582,130.985315 77.2747135,131.708453 79.5376074,132.967765"
                        id="Fill-30" fill="#C4E6F0"></path>
                    <path
                        d="M86.4321275,139.561426 C83.1780086,141.905444 78.9912249,143.070201 74.8732092,142.7774 C73.864255,142.705408 72.7462393,142.486211 72.150967,141.702364 C71.987106,141.486927 71.8710602,141.224212 71.9027579,140.963646 C71.9537966,140.54298 72.3572708,140.25394 72.7473138,140.053009 C74.8151862,138.987643 77.3257521,139.019878 79.6858883,139.285817 C82.0454871,139.552292 83.844735,139.455587 86.4321275,139.561426"
                        id="Fill-31" fill="#C4E6F0"></path>
                    <path
                        d="M8.31554441,128.346884 C9.54906877,128.290473 10.7825931,128.262536 12.0161175,128.262536 C38.5299069,128.260387 64.844914,141.160279 80.9263968,162.270415 L81.5216691,161.816977 C65.2870702,140.513431 38.7716691,127.516297 12.0161175,127.514148 C10.7713109,127.514148 9.5265043,127.542622 8.28169771,127.599033 L8.31554441,128.346884"
                        id="Fill-32" fill="#C4E6F0"></path>
                    <path
                        d="M14.1812321,127.92192 C10.6278653,126.312321 6.48782235,126.039398 2.75340258,127.167085 C1.8379298,127.443768 0.856912607,127.885387 0.490508596,128.768087 C0.389505731,129.010924 0.343839542,129.289219 0.434097421,129.536354 C0.579691977,129.933918 1.02023639,130.132163 1.42747135,130.247135 C3.58613897,130.857987 5.89792264,130.312679 8.01522206,129.570738 C10.1319842,128.828797 11.8162607,128.554262 14.1812321,127.92192"
                        id="Fill-33" fill="#C4E6F0"></path>
                    <path
                        d="M22.0852436,128.620881 C18.1842765,128.55265 14.275788,129.943589 11.2945917,132.460064 C10.5644699,133.076827 9.83864613,133.871418 9.85261461,134.827185 C9.85637536,135.0899 9.92460602,135.363897 10.1051218,135.55462 C10.3968481,135.861927 10.879298,135.869448 11.2988897,135.813574 C13.5231017,135.518087 15.4287249,134.100824 17.0780802,132.579871 C18.7274355,131.058918 20.1645774,130.139148 22.0852436,128.620881"
                        id="Fill-34" fill="#C4E6F0"></path>
                    <path
                        d="M32.2365688,130.366404 C28.3737464,129.82217 24.3244986,130.724212 21.0580229,132.857629 C20.2575215,133.380372 19.4403653,134.080408 19.3372135,135.030802 C19.3087393,135.291905 19.3431232,135.57235 19.4994628,135.783489 C19.7508954,136.124105 20.2290473,136.190186 20.6523997,136.186426 C22.8959527,136.164936 24.9606017,134.991046 26.7834885,133.683381 C28.6063754,132.375716 30.1450573,131.63861 32.2365688,130.366404"
                        id="Fill-35" fill="#C4E6F0"></path>
                    <path
                        d="M41.8463467,133.36909 C37.9840616,132.824857 33.9342765,133.727436 30.6683381,135.860852 C29.8672994,136.383596 29.0501433,137.083095 28.9469914,138.034026 C28.9185172,138.295129 28.9529011,138.575573 29.1092407,138.786712 C29.3606734,139.127328 29.8388252,139.19341 30.2621777,139.189649 C32.5057307,139.168159 34.5703797,137.994269 36.3932665,136.686605 C38.2161533,135.37894 39.7548352,134.641834 41.8463467,133.36909"
                        id="Fill-36" fill="#C4E6F0"></path>
                    <path
                        d="M53.9709885,138.968302 C50.1855301,138.026504 46.0642908,138.505193 42.594735,140.288324 C41.7442693,140.725107 40.8588825,141.336497 40.6579513,142.271311 C40.6026146,142.528116 40.6079871,142.810709 40.7412249,143.036891 C40.9561246,143.401683 41.424606,143.517192 41.8463467,143.556948 C44.079692,143.768087 46.2550143,142.81447 48.2036175,141.702901 C50.1522206,140.590795 51.7591332,140.017013 53.9709885,138.968302"
                        id="Fill-37" fill="#C4E6F0"></path>
                    <path
                        d="M62.3676576,143.888968 C58.8954155,142.840795 54.8553009,143.035817 51.2159742,144.426755 C50.3236032,144.767371 49.3683739,145.26164 49.0132521,146.080946 C48.91601,146.306053 48.8724928,146.556948 48.961139,146.765938 C49.1045845,147.102256 49.5349212,147.230659 49.9324857,147.289756 C52.0406519,147.602436 54.2944126,146.876074 56.3574499,145.997135 C58.4204871,145.117658 60.0623209,144.697529 62.3676576,143.888968"
                        id="Fill-38" fill="#C4E6F0"></path>
                    <path
                        d="M25.6729943,129.151146 C24.5340258,125.306053 21.9348138,121.822529 18.4991046,119.534921 C17.6566977,118.974033 16.6386103,118.463109 15.6876791,118.71884 C15.4265759,118.789219 15.1740688,118.925681 15.0397564,119.151862 C14.8227077,119.515043 14.9645415,119.991046 15.1504298,120.38861 C16.133596,122.496239 18.1391476,124.007521 20.1688754,125.240509 C22.1986032,126.474033 23.5621418,127.651146 25.6729943,129.151146"
                        id="Fill-39" fill="#C4E6F0"></path>
                    <path
                        d="M33.4894341,130.748926 C33.3008596,126.743195 31.6085244,122.739613 28.8180516,119.698245 C28.1341332,118.952543 27.2670129,118.213288 26.2827722,118.234778 C26.0125358,118.240688 25.7347779,118.313216 25.5499642,118.500179 C25.2523281,118.801576 25.2770415,119.297457 25.3624642,119.727794 C25.8142908,122.009491 27.4013252,123.955408 29.077543,125.637536 C30.7537607,127.320201 31.7970989,128.788503 33.4894341,130.748926"
                        id="Fill-40" fill="#C4E6F0"></path>
                    <path
                        d="M43.297457,134.041189 C43.9142192,130.078976 43.0567693,125.818052 40.9314112,122.279191 C40.4102794,121.41207 39.7086318,120.514327 38.7399713,120.338646 C38.474033,120.290294 38.1871418,120.305874 37.9690186,120.452006 C37.6171203,120.687858 37.5419054,121.178367 37.5397564,121.617299 C37.525788,123.943052 38.6916189,126.167264 39.9976719,128.150788 C41.3031877,130.134312 42.0316977,131.782056 43.297457,134.041189"
                        id="Fill-41" fill="#C4E6F0"></path>
                    <path
                        d="M55.3946991,139.434097 C55.1174785,135.433739 53.3364971,131.46884 50.4788682,128.489792 C49.7782951,127.75967 48.8955946,127.040294 47.9118911,127.083811 C47.6416547,127.09563 47.3655086,127.174069 47.1849928,127.36533 C46.894341,127.673173 46.9303367,128.168517 47.0248926,128.596705 C47.5272206,130.867658 49.157235,132.778116 50.8705229,134.422636 C52.5838109,136.067156 53.659384,137.512357 55.3946991,139.434097"
                        id="Fill-42" fill="#C4E6F0"></path>
                    <path
                        d="M63.368553,144.671203 C64.9217407,140.973854 65.1167622,136.631805 63.9058023,132.685709 C63.6092407,131.718123 63.1445201,130.678546 62.2467765,130.273997 C62.0001791,130.162787 61.7186605,130.109062 61.4715258,130.198245 C61.0734241,130.342228 60.8816261,130.800501 60.773639,131.226003 C60.1998567,133.479764 60.7951289,135.919413 61.5848854,138.159205 C62.3746418,140.398997 62.6846347,142.173532 63.368553,144.671203"
                        id="Fill-43" fill="#C4E6F0"></path>
                    <path
                        d="M96.3841332,139.766655 C92.3467049,135.990867 86.6438037,134.065365 81.1445201,134.620881 C77.4197708,134.996956 73.3581662,136.987464 72.5383238,140.640222 C72.1482808,142.379835 72.2847421,144.687858 70.6380731,145.371239 C69.0263252,146.040115 67.469914,144.380014 65.8157235,143.825036 C63.0612464,142.901504 59.9188754,146.049785 60.8477794,148.802113 C61.2700573,150.053904 62.3295129,151.143983 62.241404,152.461855 C62.1215974,154.256805 59.9032951,155.192693 58.1260745,154.913861 C56.3488539,154.635029 54.780086,153.597063 53.036712,153.153832 C51.2938754,152.710064 49.0363539,153.154907 48.4238897,154.846168 C47.8753582,156.362285 48.8219914,158.398997 47.631447,159.48639 C47.1210602,159.951648 46.3828797,160.047815 45.6957378,160.11336 C30.6017192,161.546203 13.9792264,164.25394 15.6683381,166.935351 C16.1298352,167.668159 17.3101719,167.434993 18.1762178,167.421562 C50.3026504,166.918696 79.4844198,166.43947 111.59957,167.424785 L96.3841332,139.766655"
                        id="Fill-44" fill="#C4E6F0"></path>
                    <polyline id="Fill-45" fill="#8FCAE4"
                        points="186.717765 89.3033668 196.241583 126.648639 194.429979 127.110673 182.64649 90.3418696"></polyline>
                    <path
                        d="M173.30265,72.1092407 C170.241404,72.8898639 168.595272,76.8402579 169.634312,80.9142192 C170.673352,84.9887178 174.010208,87.6685172 177.071454,86.887894 C180.132701,86.1072708 181.778295,82.1568768 180.739255,78.0823782 C179.700215,74.0078797 176.363897,71.3286175 173.30265,72.1092407 Z M177.904728,90.1554441 C173.041547,91.3959527 167.865688,87.6239255 166.366762,81.7474928 C164.868374,75.8715974 167.606196,70.0816619 172.469377,68.8416905 C177.332557,67.6011819 182.508417,71.3732092 184.006805,77.2491046 C185.505731,83.1255372 182.767908,88.9154728 177.904728,90.1554441 L177.904728,90.1554441 Z"
                        id="Fill-46" fill="#9FD7EB"></path>
                    <path
                        d="M182.911891,79.7768625 C183.069842,80.3963109 185.807665,91.1321633 185.807665,91.1321633 C185.953259,91.7032593 185.608345,92.284563 185.037249,92.4301576 C184.466153,92.5757521 183.885387,92.2308381 183.739255,91.6597421 L183.412607,90.3773281 C183.412607,90.3773281 181.891655,87.1339542 177.687679,88.4711676 C177.687679,88.4711676 182.702364,87.844735 182.872672,87.8570917 C183.042443,87.8694484 182.75394,79.157414 182.911891,79.7768625"
                        id="Fill-47" fill="#C2E5F0"></path>
                    <path
                        d="M185.453617,94.0639327 C183.982629,94.4389327 182.481017,93.5476361 182.106017,92.0766476 C182.106017,92.0766476 181.932486,91.183202 181.584885,90.6894699 C181.040115,89.9163682 179.92962,89.6257163 177.897206,90.1436246 L177.382521,87.2731017 C178.45111,86.9314112 179.219377,86.4161891 180.078438,86.476361 C180.538861,86.4199499 180.921383,86.3742837 181.241046,86.3366762 C181.237822,85.4571991 181.22063,84.2972779 181.207199,83.4086676 C181.194305,82.4641834 182.419771,81.4020415 182.416547,80.7234957 C182.412249,79.5066261 181.163682,78.2768625 182.674427,78.0743195 L184.160458,77.877149 L187.44144,90.7157951 C187.81644,92.1867837 186.924606,93.6889327 185.453617,94.0639327"
                        id="Fill-48" fill="#9FD7EB"></path>
                    <polyline id="Fill-49" fill="#8FCAE4"
                        points="188.119986 88.9648997 188.147923 127.505552 190.01755 127.50394 192.321275 88.9616762"></polyline>
                    <path
                        d="M191.131265,76.6124642 C191.134491,80.8175143 193.707915,84.2365688 196.866941,84.2344208 C200.025967,84.2317335 202.594556,80.8089183 202.591335,76.6044054 C202.588646,72.3993553 200.015222,68.9803009 196.855659,68.9824488 C193.696633,68.9845989 191.128044,72.407414 191.131265,76.6124642 Z M187.758951,76.6151504 C187.754656,70.5506805 191.834527,65.6138968 196.85351,65.610134 C201.871956,65.6063754 205.959348,70.5372493 205.96365,76.6017192 C205.967944,82.6661891 201.888073,87.6029728 196.869628,87.6067351 C191.850645,87.609957 187.763252,82.6796203 187.758951,76.6151504 L187.758951,76.6151504 Z"
                        id="Fill-50" fill="#9FD7EB"></path>
                    <path
                        d="M189.446454,78.7926218 C189.446991,79.4319484 189.45505,90.5111032 189.45505,90.5111032 C189.455587,91.1010029 189.933739,91.5780802 190.523102,91.5780802 C191.112464,91.5770057 191.590079,91.0993911 191.589542,90.5094914 L191.588467,89.1862464 C191.588467,89.1862464 192.25788,85.6672636 196.662249,85.9208453 C196.662249,85.9208453 191.649176,86.5564112 191.486927,86.6106734 C191.325215,86.6649355 189.445917,78.1532951 189.446454,78.7926218"
                        id="Fill-51" fill="#C2E5F0"></path>
                    <path
                        d="M190.524176,93.2639692 C192.042443,93.262894 193.276504,92.0266834 193.27543,90.5089542 C193.27543,90.5089542 193.222242,89.5999284 193.436605,89.0358166 C193.772385,88.1515043 194.776504,87.594914 196.873926,87.5933023 L196.661175,84.6846347 C195.54101,84.6180158 194.669592,84.3096347 193.851898,84.5804083 C193.392013,84.640043 193.010029,84.6905444 192.690365,84.7335244 C192.476003,83.8809097 192.205229,82.7526862 191.997851,81.8887894 C191.776504,80.9700931 190.325931,80.2448066 190.160996,79.5872135 C189.86336,78.4063395 190.768087,76.9058023 189.254656,77.0841691 L187.765938,77.2609241 L187.769162,90.5127149 C187.770236,92.0309814 189.006447,93.265043 190.524176,93.2639692"
                        id="Fill-52" fill="#9FD7EB"></path>
                    <path
                        d="M204.344914,120.687321 L199.497851,119.812142 L207.026862,78.1237464 C207.088109,77.7820559 207.415294,77.5553367 207.756447,77.6171203 L211.367299,78.269341 C211.708453,78.3311246 211.935709,78.6577722 211.873926,78.9989255 L204.344914,120.687321"
                        id="Fill-53" fill="#8FCAE4"></path>
                    <path
                        d="M211.150251,83.0057307 L206.303188,82.1300143 L207.026862,78.1237464 C207.088109,77.7820559 207.415294,77.5553367 207.756447,77.6171203 L211.367299,78.269341 C211.708453,78.3311246 211.935709,78.6577722 211.873926,78.9989255 L211.150251,83.0057307"
                        id="Fill-54" fill="#E57487"></path>
                    <polyline id="Fill-55" fill="#9FC5DB"
                        points="210.890222 84.461139 210.887536 84.4606017 211.149713 83.0089542 211.1524 83.0094914 210.890222 84.461139"></polyline>
                    <polyline id="Fill-56" fill="#71B0D4"
                        points="210.887536 84.4606017 206.042622 83.5854226 206.304799 82.1343123 211.149713 83.0089542 210.887536 84.4606017"></polyline>
                    <polyline id="Fill-57" fill="#C4E6F0"
                        points="208.141117 130.246597 200.231196 127.12894 217.099212 84.3327364 225.009133 87.450394 208.141117 130.246597"></polyline>
                    <polyline id="Fill-58" fill="#CDEAF1"
                        points="221.716332 88.1627865 224.323603 89.1905444 224.5976 88.4942693 221.990867 87.4665115"></polyline>
                    <polyline id="Fill-59" fill="#CDEAF1"
                        points="220.840079 90.3859241 223.44735 91.4131447 223.721884 90.7168696 221.114613 89.689649"></polyline>
                    <polyline id="Fill-60" fill="#CDEAF1"
                        points="219.963825 92.6085244 222.571096 93.6362822 222.84563 92.9400072 220.23836 91.9122493"></polyline>
                    <polyline id="Fill-61" fill="#CDEAF1"
                        points="217.812679 94.3287966 221.694842 95.8588825 221.969377 95.1631447 218.086676 93.6325215"></polyline>
                    <polyline id="Fill-62" fill="#CDEAF1"
                        points="218.211855 97.0542622 220.818589 98.0820201 221.093123 97.385745 218.485852 96.3585244"></polyline>
                    <polyline id="Fill-63" fill="#CDEAF1"
                        points="217.335602 99.2773997 219.942872 100.305158 220.21687 99.6088825 217.610136 98.5811246"></polyline>
                    <polyline id="Fill-64" fill="#CDEAF1"
                        points="216.459348 101.500537 219.066619 102.527758 219.340616 101.831483 216.733883 100.804262"></polyline>
                    <polyline id="Fill-65" fill="#CDEAF1"
                        points="214.307665 103.220809 218.190365 104.750895 218.4649 104.05462 214.582199 102.524534"></polyline>
                    <polyline id="Fill-66" fill="#CDEAF1"
                        points="214.706841 105.946275 217.314112 106.974033 217.588646 106.277758 214.981375 105.25"></polyline>
                    <polyline id="Fill-67" fill="#CDEAF1"
                        points="213.831125 108.169413 216.437858 109.196633 216.712393 108.500358 214.105122 107.473138"></polyline>
                    <polyline id="Fill-68" fill="#CDEAF1"
                        points="212.954871 110.392013 215.561605 111.419771 215.836139 110.723496 213.229405 109.695738"></polyline>
                    <polyline id="Fill-69" fill="#CDEAF1"
                        points="210.803188 112.112285 214.685351 113.642371 214.959885 112.946633 211.077722 111.41601"></polyline>
                    <polyline id="Fill-70" fill="#CDEAF1"
                        points="211.202364 114.837751 213.809635 115.865509 214.083632 115.169234 211.476898 114.141476"></polyline>
                    <polyline id="Fill-71" fill="#CDEAF1"
                        points="210.32611 117.060888 212.933381 118.088646 213.207915 117.392371 210.600645 116.364613"></polyline>
                    <polyline id="Fill-72" fill="#CDEAF1"
                        points="209.449857 119.284026 212.057128 120.311246 212.331662 119.614971 209.724391 118.587751"></polyline>
                    <polyline id="Fill-73" fill="#CDEAF1"
                        points="207.298711 121.004298 211.180874 122.534384 211.455408 121.838109 207.572708 120.308023"></polyline>
                    <polyline id="Fill-74" fill="#CDEAF1"
                        points="207.697887 123.729764 210.30462 124.756984 210.579155 124.061246 207.972421 123.033489"></polyline>
                    <polyline id="Fill-75" fill="#CDEAF1"
                        points="206.821633 125.952364 209.428367 126.980122 209.702901 126.283847 207.096168 125.256626"></polyline>
                    <polyline id="Fill-76" fill="#CDEAF1"
                        points="205.94538 128.175501 208.55265 129.203259 208.826648 128.506984 206.219914 127.479226"></polyline>
                    <path
                        d="M213.922457,169.316977 L174.479226,169.316977 L167.853868,109.647923 C167.76952,108.889327 168.363718,108.225824 169.127149,108.225824 L219.274534,108.225824 C220.037966,108.225824 220.632163,108.889327 220.547815,109.647923 L213.922457,169.316977"
                        id="Fill-77" fill="#9FD7EB"></path>
                    <path
                        d="M164.461139,171.917264 C188.219377,172.240688 211.977077,172.564649 235.734778,172.888183 C236.532056,172.898818 239.044771,172.121418 234.714542,169.328797 C231.046741,166.963825 219.453976,169.09187 219.453976,169.09187 C219.453976,169.09187 222.152579,168.00985 222.140222,166.613539 C222.127865,165.217228 221.069484,163.99015 219.79889,163.410996 C218.528295,162.831841 217.081483,162.789936 215.687321,162.869986 C212.850645,163.032235 210.041368,163.660817 207.40616,164.722958 C208.524713,164.035279 208.86533,162.349391 208.102436,161.28134 C207.339542,160.213288 205.634312,159.988718 204.62106,160.823603 C206.401504,158.412428 209.15437,147.726003 200.694305,143.015938 C190.090079,137.113181 182.036712,141.970989 180.318589,145.523818 C179.44717,142.036533 175.445738,139.395953 172.81053,138.741583 C166.799785,137.249105 162.88485,137.691798 157.273818,140.311963 C155.288682,141.239255 152.63091,144.405265 151.311426,146.154011 C149.244628,148.892908 148.922815,152.534921 148.808918,155.964183 C148.723496,158.538145 148.711676,161.114792 148.773997,163.689291 L164.461139,171.917264"
                        id="Fill-78" fill="#CDEAF1"></path>
                    <path
                        d="M178.344198,175.715079 C178.344198,176.946991 154.415652,177.945201 124.898102,177.945201 C95.3805516,177.945201 71.4520057,176.946991 71.4520057,175.715079 C71.4520057,174.483703 95.3805516,173.485494 124.898102,173.485494 C154.415652,173.485494 178.344198,174.483703 178.344198,175.715079"
                        id="Fill-79" fill="#B0DDE7"></path>
                    <path
                        d="M125.915652,28.5931232 C124.25394,28.5931232 122.907056,27.2462393 122.907056,25.58399 C122.907056,23.9222779 124.25394,22.5748567 125.915652,22.5748567 C127.577901,22.5748567 128.925322,23.9222779 128.925322,25.58399 C128.925322,27.2462393 127.577901,28.5931232 125.915652,28.5931232 M125.915652,20.1518625 C122.953797,20.1518625 120.552292,22.5528295 120.552292,25.5152221 L120.552292,32.3893266 L131.279549,32.3893266 C131.279549,32.3893266 131.279549,26.9297994 131.279549,25.5152221 C131.279549,22.5528295 128.878044,20.1518625 125.915652,20.1518625"
                        id="Fill-80" fill="#FF7B5D"></path>
                    <path
                        d="M127.763789,27.9586318 C128.408489,27.4068768 128.925322,26.4994628 128.925322,25.58399 C128.925322,26.5488897 128.470809,27.4079513 127.764864,27.9586318 C127.764327,27.9586318 127.764327,27.9586318 127.763789,27.9586318 M126.513073,22.6339542 C126.320201,22.5952722 126.120344,22.5748567 125.915652,22.5748567 C125.760924,22.5748567 125.612643,22.5979585 125.463825,22.6205229 C125.479943,22.6140759 125.495523,22.6081662 125.510566,22.6017192 C125.643266,22.58399 125.778653,22.5748567 125.915652,22.5748567 C126.120344,22.5748567 126.320201,22.5952722 126.513073,22.6339542"
                        id="Fill-81" fill="#C79DA0"></path>
                    <path
                        d="M122.190903,31.344914 L120.552292,31.344914 L120.552292,25.5152221 C120.552292,25.5098496 120.552292,25.5044771 120.552292,25.4991046 C120.552292,25.4974928 120.552292,25.4953438 120.552292,25.4937321 C120.552292,25.4905086 120.552292,25.4867479 120.552292,25.4829871 C120.552292,25.4813754 120.552292,25.4792264 120.552292,25.4770774 C120.552292,25.4738539 120.552292,25.4706304 120.552292,25.4668696 C120.552292,25.4647206 120.55283,25.4625716 120.55283,25.4604226 C120.55283,25.4571991 120.55283,25.4534384 120.55283,25.4502149 C120.55283,25.4486032 120.55283,25.4464542 120.55283,25.4448424 C120.55283,25.4400072 120.55283,25.4351719 120.55283,25.4303367 C120.55283,25.4281877 120.55283,25.4260387 120.55283,25.4238897 C120.553367,25.4206662 120.553367,25.4169054 120.553367,25.4131447 C120.553367,25.4109957 120.553367,25.4083095 120.553367,25.4061605 C120.553367,25.4034742 120.553367,25.4002507 120.553367,25.3975645 C120.553367,25.3948782 120.553904,25.392192 120.553904,25.3895057 C120.553904,25.3868195 120.553904,25.3846705 120.553904,25.3819842 C120.553904,25.379298 120.553904,25.3766117 120.553904,25.3739255 C120.554441,25.3712393 120.554441,25.3690903 120.554441,25.366404 C120.554441,25.3637178 120.554441,25.3604943 120.554441,25.357808 C120.554441,25.3567335 120.554441,25.3561963 120.554441,25.3551218 C120.554979,25.3476003 120.554979,25.3400788 120.555516,25.3325573 C120.555516,25.3314828 120.555516,25.3298711 120.555516,25.3282593 C120.555516,25.3250358 120.555516,25.3212751 120.556053,25.3175143 C120.556053,25.3164398 120.556053,25.3148281 120.556053,25.3132163 C120.556053,25.3094556 120.55659,25.3056948 120.55659,25.3019341 C120.55659,25.3008596 120.55659,25.2997851 120.55659,25.2987106 C120.650072,22.9428725 122.26558,20.9813754 124.445738,20.3608524 C123.000537,21.3214542 122.190903,22.963288 122.190903,24.8286175 L122.190903,31.344914 M127.764864,27.9586318 C128.470809,27.4079513 128.925322,26.5488897 128.925322,25.58399 C128.925322,24.1264327 127.888968,22.9111748 126.513073,22.6339542 C126.320201,22.5952722 126.120344,22.5748567 125.915652,22.5748567 C125.778653,22.5748567 125.643266,22.58399 125.510566,22.6017192 C125.918338,22.4378582 125.965079,22.3277221 126.684993,22.3277221 C128.346705,22.3277221 129.694126,23.6751433 129.694126,25.3373926 C129.694126,26.8438395 128.925322,27.6604585 127.764864,27.9586318"
                        id="Fill-82" fill="#102B44" opacity="0.1"></path>
                    <path
                        d="M170.21293,175.690365 L79.5832736,175.690365 C76.6928725,175.690365 74.3499284,173.347421 74.3499284,170.45702 L74.3499284,37.9837034 C74.3499284,35.0933023 76.6928725,32.7503582 79.5832736,32.7503582 L170.21293,32.7503582 C173.103331,32.7503582 175.446275,35.0933023 175.446275,37.9837034 L175.446275,170.45702 C175.446275,173.347421 173.103331,175.690365 170.21293,175.690365"
                        id="Fill-83" fill="#437DB3"></path>
                    <polygon id="Fill-84" fill="#C4E6F0"
                        points="80.2091691 170.084169 169.587034 170.084169 169.587034 38.3565544 80.2091691 38.3565544"></polygon>
                    <polygon id="Fill-85" fill="#FFFFFE"
                        points="83.6459527 166.060172 166.150251 166.060172 166.150251 42.3805516 83.6459527 42.3805516"></polygon>
                    <path
                        d="M157.41404,35.116404 L157.41404,40.4888968 L92.3800143,40.4888968 L92.3800143,35.116404 C92.3800143,33.0318768 94.0723496,31.344914 96.1515043,31.344914 L153.64255,31.344914 C155.727077,31.344914 157.41404,33.0318768 157.41404,35.116404"
                        id="Fill-86" fill="#FF7B5D"></path>
                    <path
                        d="M157.41404,40.4888968 L92.3800143,40.4888968 L92.3800143,35.116404 C92.3800143,33.0318768 94.0723496,31.344914 96.1515043,31.344914 L96.6726361,31.344914 C95.6733524,32.3012178 94.894341,33.7625358 94.894341,35.2560888 L94.894341,39.1457736 L157.41404,39.1457736 L157.41404,40.4888968"
                        id="Fill-87" fill="#102B44" opacity="0.1"></path>
                    <path
                        d="M119.928009,56.3672994 L106.526325,56.3672994 C106.063216,56.3672994 105.687679,55.9922994 105.687679,55.5291905 C105.687679,55.0660817 106.063216,54.6905444 106.526325,54.6905444 L119.928009,54.6905444 C120.391117,54.6905444 120.766117,55.0660817 120.766117,55.5291905 C120.766117,55.9922994 120.391117,56.3672994 119.928009,56.3672994"
                        id="Fill-88" fill="#D8E7ED"></path>
                    <path
                        d="M160.192693,60.640043 L150.002686,60.640043 C149.539577,60.640043 149.16404,60.2645057 149.16404,59.8013968 C149.16404,59.338288 149.539577,58.963288 150.002686,58.963288 L160.192693,58.963288 C160.655802,58.963288 161.03134,59.338288 161.03134,59.8013968 C161.03134,60.2645057 160.655802,60.640043 160.192693,60.640043"
                        id="Fill-89" fill="#D8E7ED"></path>
                    <path
                        d="M145.587034,60.640043 L106.526325,60.640043 C106.063216,60.640043 105.687679,60.2645057 105.687679,59.8013968 C105.687679,59.338288 106.063216,58.963288 106.526325,58.963288 L145.587034,58.963288 C146.050143,58.963288 146.425681,59.338288 146.425681,59.8013968 C146.425681,60.2645057 146.050143,60.640043 145.587034,60.640043"
                        id="Fill-90" fill="#D8E7ED"></path>
                    <path
                        d="M160.192693,64.9127865 L106.526325,64.9127865 C106.063216,64.9127865 105.687679,64.5372493 105.687679,64.0741404 C105.687679,63.6110315 106.063216,63.2360315 106.526325,63.2360315 L160.192693,63.2360315 C160.655802,63.2360315 161.03134,63.6110315 161.03134,64.0741404 C161.03134,64.5372493 160.655802,64.9127865 160.192693,64.9127865"
                        id="Fill-91" fill="#D8E7ED"></path>
                    <path
                        d="M160.192693,69.1855301 L143.134491,69.1855301 C142.67192,69.1855301 142.296383,68.8099928 142.296383,68.346884 C142.296383,67.8837751 142.67192,67.5082378 143.134491,67.5082378 L160.192693,67.5082378 C160.655802,67.5082378 161.03134,67.8837751 161.03134,68.346884 C161.03134,68.8099928 160.655802,69.1855301 160.192693,69.1855301"
                        id="Fill-92" fill="#D8E7ED"></path>
                    <path
                        d="M138.88861,69.1855301 L106.526325,69.1855301 C106.063216,69.1855301 105.687679,68.8099928 105.687679,68.346884 C105.687679,67.8837751 106.063216,67.5082378 106.526325,67.5082378 L138.88861,67.5082378 C139.351719,67.5082378 139.727256,67.8837751 139.727256,68.346884 C139.727256,68.8099928 139.351719,69.1855301 138.88861,69.1855301"
                        id="Fill-93" fill="#D8E7ED"></path>
                    <path
                        d="M160.192693,56.3672994 L124.325931,56.3672994 C123.862822,56.3672994 123.487285,55.9922994 123.487285,55.5291905 C123.487285,55.0660817 123.862822,54.6905444 124.325931,54.6905444 L160.192693,54.6905444 C160.655802,54.6905444 161.03134,55.0660817 161.03134,55.5291905 C161.03134,55.9922994 160.655802,56.3672994 160.192693,56.3672994"
                        id="Fill-94" fill="#D8E7ED"></path>
                    <path
                        d="M119.928009,87.081841 L106.526325,87.081841 C106.063216,87.081841 105.687679,86.7063037 105.687679,86.2431948 C105.687679,85.780086 106.063216,85.405086 106.526325,85.405086 L119.928009,85.405086 C120.391117,85.405086 120.766117,85.780086 120.766117,86.2431948 C120.766117,86.7063037 120.391117,87.081841 119.928009,87.081841"
                        id="Fill-95" fill="#D8E7ED"></path>
                    <path
                        d="M160.192693,91.3545845 L150.002686,91.3545845 C149.539577,91.3545845 149.16404,90.9790473 149.16404,90.5159384 C149.16404,90.0528295 149.539577,89.6772923 150.002686,89.6772923 L160.192693,89.6772923 C160.655802,89.6772923 161.03134,90.0528295 161.03134,90.5159384 C161.03134,90.9790473 160.655802,91.3545845 160.192693,91.3545845"
                        id="Fill-96" fill="#D8E7ED"></path>
                    <path
                        d="M145.587034,91.3545845 L106.526325,91.3545845 C106.063216,91.3545845 105.687679,90.9790473 105.687679,90.5159384 C105.687679,90.0528295 106.063216,89.6772923 106.526325,89.6772923 L145.587034,89.6772923 C146.050143,89.6772923 146.425681,90.0528295 146.425681,90.5159384 C146.425681,90.9790473 146.050143,91.3545845 145.587034,91.3545845"
                        id="Fill-97" fill="#D8E7ED"></path>
                    <path
                        d="M160.192693,95.6273281 L106.526325,95.6273281 C106.063216,95.6273281 105.687679,95.2517908 105.687679,94.7886819 C105.687679,94.3255731 106.063216,93.9500358 106.526325,93.9500358 L160.192693,93.9500358 C160.655802,93.9500358 161.03134,94.3255731 161.03134,94.7886819 C161.03134,95.2517908 160.655802,95.6273281 160.192693,95.6273281"
                        id="Fill-98" fill="#D8E7ED"></path>
                    <path
                        d="M160.192693,99.8995344 L143.134491,99.8995344 C142.67192,99.8995344 142.296383,99.5245344 142.296383,99.0614255 C142.296383,98.5983166 142.67192,98.2227794 143.134491,98.2227794 L160.192693,98.2227794 C160.655802,98.2227794 161.03134,98.5983166 161.03134,99.0614255 C161.03134,99.5245344 160.655802,99.8995344 160.192693,99.8995344"
                        id="Fill-99" fill="#D8E7ED"></path>
                    <path
                        d="M138.88861,99.8995344 L106.526325,99.8995344 C106.063216,99.8995344 105.687679,99.5245344 105.687679,99.0614255 C105.687679,98.5983166 106.063216,98.2227794 106.526325,98.2227794 L138.88861,98.2227794 C139.351719,98.2227794 139.727256,98.5983166 139.727256,99.0614255 C139.727256,99.5245344 139.351719,99.8995344 138.88861,99.8995344"
                        id="Fill-100" fill="#D8E7ED"></path>
                    <path
                        d="M160.192693,87.081841 L124.325931,87.081841 C123.862822,87.081841 123.487285,86.7063037 123.487285,86.2431948 C123.487285,85.780086 123.862822,85.405086 124.325931,85.405086 L160.192693,85.405086 C160.655802,85.405086 161.03134,85.780086 161.03134,86.2431948 C161.03134,86.7063037 160.655802,87.081841 160.192693,87.081841"
                        id="Fill-101" fill="#D8E7ED"></path>
                    <path
                        d="M119.928009,116.721884 L106.526325,116.721884 C106.063216,116.721884 105.687679,116.346347 105.687679,115.883238 C105.687679,115.420129 106.063216,115.044592 106.526325,115.044592 L119.928009,115.044592 C120.391117,115.044592 120.766117,115.420129 120.766117,115.883238 C120.766117,116.346347 120.391117,116.721884 119.928009,116.721884"
                        id="Fill-102" fill="#D8E7ED"></path>
                    <path
                        d="M160.192693,120.99409 L150.002686,120.99409 C149.539577,120.99409 149.16404,120.61909 149.16404,120.155981 C149.16404,119.692872 149.539577,119.317335 150.002686,119.317335 L160.192693,119.317335 C160.655802,119.317335 161.03134,119.692872 161.03134,120.155981 C161.03134,120.61909 160.655802,120.99409 160.192693,120.99409"
                        id="Fill-103" fill="#D8E7ED"></path>
                    <path
                        d="M145.587034,120.99409 L106.526325,120.99409 C106.063216,120.99409 105.687679,120.61909 105.687679,120.155981 C105.687679,119.692872 106.063216,119.317335 106.526325,119.317335 L145.587034,119.317335 C146.050143,119.317335 146.425681,119.692872 146.425681,120.155981 C146.425681,120.61909 146.050143,120.99409 145.587034,120.99409"
                        id="Fill-104" fill="#D8E7ED"></path>
                    <path
                        d="M160.192693,125.266834 L106.526325,125.266834 C106.063216,125.266834 105.687679,124.891297 105.687679,124.428725 C105.687679,123.965616 106.063216,123.590079 106.526325,123.590079 L160.192693,123.590079 C160.655802,123.590079 161.03134,123.965616 161.03134,124.428725 C161.03134,124.891297 160.655802,125.266834 160.192693,125.266834"
                        id="Fill-105" fill="#D8E7ED"></path>
                    <path
                        d="M160.192693,129.539577 L143.134491,129.539577 C142.67192,129.539577 142.296383,129.16404 142.296383,128.700931 C142.296383,128.237822 142.67192,127.862285 143.134491,127.862285 L160.192693,127.862285 C160.655802,127.862285 161.03134,128.237822 161.03134,128.700931 C161.03134,129.16404 160.655802,129.539577 160.192693,129.539577"
                        id="Fill-106" fill="#D8E7ED"></path>
                    <path
                        d="M138.88861,129.539577 L106.526325,129.539577 C106.063216,129.539577 105.687679,129.16404 105.687679,128.700931 C105.687679,128.237822 106.063216,127.862285 106.526325,127.862285 L138.88861,127.862285 C139.351719,127.862285 139.727256,128.237822 139.727256,128.700931 C139.727256,129.16404 139.351719,129.539577 138.88861,129.539577"
                        id="Fill-107" fill="#D8E7ED"></path>
                    <path
                        d="M160.192693,116.721884 L124.325931,116.721884 C123.862822,116.721884 123.487285,116.346347 123.487285,115.883238 C123.487285,115.420129 123.862822,115.044592 124.325931,115.044592 L160.192693,115.044592 C160.655802,115.044592 161.03134,115.420129 161.03134,115.883238 C161.03134,116.346347 160.655802,116.721884 160.192693,116.721884"
                        id="Fill-108" fill="#D8E7ED"></path>
                    <path
                        d="M119.928009,146.898639 L106.526325,146.898639 C106.063216,146.898639 105.687679,146.523102 105.687679,146.06053 C105.687679,145.596884 106.063216,145.221884 106.526325,145.221884 L119.928009,145.221884 C120.391117,145.221884 120.766117,145.596884 120.766117,146.06053 C120.766117,146.523102 120.391117,146.898639 119.928009,146.898639"
                        id="Fill-109" fill="#D8E7ED"></path>
                    <path
                        d="M160.192693,151.171383 L150.002686,151.171383 C149.539577,151.171383 149.16404,150.795845 149.16404,150.332736 C149.16404,149.869628 149.539577,149.494628 150.002686,149.494628 L160.192693,149.494628 C160.655802,149.494628 161.03134,149.869628 161.03134,150.332736 C161.03134,150.795845 160.655802,151.171383 160.192693,151.171383"
                        id="Fill-110" fill="#D8E7ED"></path>
                    <path
                        d="M145.587034,151.171383 L106.526325,151.171383 C106.063216,151.171383 105.687679,150.795845 105.687679,150.332736 C105.687679,149.869628 106.063216,149.494628 106.526325,149.494628 L145.587034,149.494628 C146.050143,149.494628 146.425681,149.869628 146.425681,150.332736 C146.425681,150.795845 146.050143,151.171383 145.587034,151.171383"
                        id="Fill-111" fill="#D8E7ED"></path>
                    <path
                        d="M160.192693,155.444126 L106.526325,155.444126 C106.063216,155.444126 105.687679,155.068589 105.687679,154.60548 C105.687679,154.142371 106.063216,153.766834 106.526325,153.766834 L160.192693,153.766834 C160.655802,153.766834 161.03134,154.142371 161.03134,154.60548 C161.03134,155.068589 160.655802,155.444126 160.192693,155.444126"
                        id="Fill-112" fill="#D8E7ED"></path>
                    <path
                        d="M160.192693,159.71687 L143.134491,159.71687 C142.67192,159.71687 142.296383,159.341332 142.296383,158.878223 C142.296383,158.415115 142.67192,158.039577 143.134491,158.039577 L160.192693,158.039577 C160.655802,158.039577 161.03134,158.415115 161.03134,158.878223 C161.03134,159.341332 160.655802,159.71687 160.192693,159.71687"
                        id="Fill-113" fill="#D8E7ED"></path>
                    <path
                        d="M138.88861,159.71687 L106.526325,159.71687 C106.063216,159.71687 105.687679,159.341332 105.687679,158.878223 C105.687679,158.415115 106.063216,158.039577 106.526325,158.039577 L138.88861,158.039577 C139.351719,158.039577 139.727256,158.415115 139.727256,158.878223 C139.727256,159.341332 139.351719,159.71687 138.88861,159.71687"
                        id="Fill-114" fill="#D8E7ED"></path>
                    <path
                        d="M160.192693,146.898639 L124.325931,146.898639 C123.862822,146.898639 123.487285,146.523102 123.487285,146.06053 C123.487285,145.596884 123.862822,145.221884 124.325931,145.221884 L160.192693,145.221884 C160.655802,145.221884 161.03134,145.596884 161.03134,146.06053 C161.03134,146.523102 160.655802,146.898639 160.192693,146.898639"
                        id="Fill-115" fill="#D8E7ED"></path>
                    <path
                        d="M100.871777,66.5256089 L100.871777,66.2150788 L90.8445559,66.2150788 C90.392192,66.2140043 90.0263252,65.8486748 90.025788,65.3963109 L90.025788,55.3690903 C90.0263252,54.9167264 90.392192,54.5513968 90.8445559,54.5503223 L100.871777,54.5503223 C101.323603,54.5513968 101.68947,54.9167264 101.690544,55.3690903 L101.690544,65.3963109 C101.68947,65.8481375 101.323603,66.2140043 100.871777,66.2150788 L100.871777,66.8366762 C101.667443,66.836139 102.311605,66.1919771 102.311605,65.3963109 L102.311605,55.3690903 C102.311605,54.5734241 101.667443,53.9292622 100.871777,53.9287249 L90.8445559,53.9287249 C90.0488897,53.9292622 89.4047278,54.5734241 89.4041905,55.3690903 L89.4041905,65.3963109 C89.4047278,66.1919771 90.0488897,66.836139 90.8445559,66.8366762 L100.871777,66.8366762 L100.871777,66.5256089"
                        id="Fill-116" fill="#2D8CA4"></path>
                    <path
                        d="M100.871777,97.1402221 L100.871777,96.829692 L90.8445559,96.829692 C90.392192,96.8286175 90.0263252,96.4627507 90.025788,96.0109241 L90.025788,85.9837034 C90.0263252,85.5313395 90.392192,85.1654728 90.8445559,85.1649355 L100.871777,85.1649355 C101.323603,85.1654728 101.68947,85.5313395 101.690544,85.9837034 L101.690544,96.0109241 C101.68947,96.4627507 101.323603,96.8286175 100.871777,96.829692 L100.871777,97.4512894 C101.667443,97.4507521 102.311605,96.8065903 102.311605,96.0109241 L102.311605,85.9837034 C102.311605,85.1880372 101.667443,84.5438754 100.871777,84.5433381 L90.8445559,84.5433381 C90.0488897,84.5438754 89.4047278,85.1880372 89.4041905,85.9837034 L89.4041905,96.0109241 C89.4047278,96.8065903 90.0488897,97.4507521 90.8445559,97.4512894 L100.871777,97.4512894 L100.871777,97.1402221"
                        id="Fill-117" fill="#2D8CA4"></path>
                    <path
                        d="M100.871777,127.754835 L100.871777,127.444305 L90.8445559,127.444305 C90.392192,127.443231 90.0263252,127.077364 90.025788,126.625537 L90.025788,116.598317 C90.0263252,116.145953 90.392192,115.780623 90.8445559,115.779549 L100.871777,115.779549 C101.323603,115.780623 101.68947,116.145953 101.690544,116.598317 L101.690544,126.625537 C101.68947,127.077364 101.323603,127.443231 100.871777,127.444305 L100.871777,128.065365 C101.667443,128.065365 102.311605,127.421203 102.311605,126.625537 L102.311605,116.598317 C102.311605,115.80265 101.667443,115.158489 100.871777,115.157951 L90.8445559,115.157951 C90.0488897,115.158489 89.4047278,115.80265 89.4041905,116.598317 L89.4041905,126.625537 C89.4047278,127.421203 90.0488897,128.065365 90.8445559,128.065365 L100.871777,128.065365 L100.871777,127.754835"
                        id="Fill-118" fill="#2D8CA4"></path>
                    <path
                        d="M100.871777,158.369448 L100.871777,158.058918 L90.8445559,158.058918 C90.392192,158.057844 90.0263252,157.691977 90.025788,157.24015 L90.025788,147.21293 C90.0263252,146.760566 90.392192,146.395236 90.8445559,146.394162 L100.871777,146.394162 C101.323603,146.395236 101.68947,146.760566 101.690544,147.21293 L101.690544,157.24015 C101.68947,157.691977 101.323603,158.057844 100.871777,158.058918 L100.871777,158.679979 C101.667443,158.679979 102.311605,158.035817 102.311605,157.24015 L102.311605,147.21293 C102.311605,146.417264 101.667443,145.773102 100.871777,145.772564 L90.8445559,145.772564 C90.0488897,145.773102 89.4047278,146.417264 89.4041905,147.21293 L89.4041905,157.24015 C89.4047278,158.035817 90.0488897,158.679979 90.8445559,158.679979 L100.871777,158.679979 L100.871777,158.369448"
                        id="Fill-119" fill="#2D8CA4"></path>
                    <path
                        d="M90.5093123,58.8144699 L95.1404011,64.4066977 C95.3311246,64.6371777 95.618553,64.7612822 95.9172636,64.7424785 C96.215437,64.7236748 96.4851361,64.5641117 96.6452364,64.3110673 L105.556053,50.2517908 C105.831125,49.8171562 105.702185,49.2412249 105.26755,48.965616 C104.832378,48.6900072 104.256984,48.8194842 103.981375,49.2541189 L95.7577006,62.2297636 L91.9448424,57.625 C91.6165831,57.22851 91.0288324,57.1737106 90.6323424,57.5019699 C90.2358524,57.8302292 90.1805158,58.4179799 90.5093123,58.8144699"
                        id="Fill-120" fill="#EEA03A"></path>
                    <path
                        d="M90.5093123,89.1744269 L95.1404011,94.7666547 C95.3311246,94.9971347 95.618553,95.1217765 95.9172636,95.1024355 C96.215437,95.0836318 96.4851361,94.9240688 96.6452364,94.6715616 L105.556053,80.6122851 C105.831662,80.1771132 105.702185,79.6011819 105.26755,79.3255731 C104.832378,79.0499642 104.256984,79.1794413 103.981375,79.6140759 L95.7577006,92.5897206 L91.9448424,87.9854943 C91.6165831,87.5890043 91.0288324,87.5336676 90.6323424,87.8619269 C90.2358524,88.1901862 90.1805158,88.777937 90.5093123,89.1744269"
                        id="Fill-121" fill="#EEA03A"></path>
                    <path
                        d="M70.4994628,175.932665 C70.4994628,176.534921 63.7376433,177.023818 55.3957736,177.023818 C47.0549785,177.023818 40.2936963,176.534921 40.2936963,175.932665 C40.2936963,175.329871 47.0549785,174.840974 55.3957736,174.840974 C63.7376433,174.840974 70.4994628,175.329871 70.4994628,175.932665"
                        id="Fill-122" fill="#B0DDE7"></path>
                    <path
                        d="M57.9627507,113.504835 C58.0261461,113.811067 58.1862464,114.073245 58.4049069,114.267729 C58.6429083,114.491225 58.9641834,114.637357 59.3042622,114.676039 C60.1934097,114.768446 61.5693052,114.958095 63.0225645,115.152579 C65.3553009,115.463646 67.8975645,115.784384 68.9666905,115.725824 C69.2095272,115.716153 70.1916189,115.745165 70.8572708,115.463646 L70.9158309,115.443768 L70.9255014,115.434097 C71.0856017,115.293338 71.090437,114.918875 71.0420845,114.54495 C70.9985673,114.13664 70.8916547,113.723496 70.881447,113.616583 C70.7745344,112.508238 69.8563754,112.139148 69.4088467,112.026862 C69.2632521,111.988181 69.16601,111.97851 69.16601,111.97851 C69.1122851,111.964004 69.0590974,111.944663 69.0005372,111.924785 C66.8133954,111.230122 64.3393625,111.059814 62.7453438,110.792264 C61.9776146,110.661175 61.1803367,110.700394 60.4416189,110.909384 C59.9360673,111.050143 59.454692,111.273639 59.0173711,111.575036 C58.3323782,112.051576 57.7924427,112.697887 57.9627507,113.504835"
                        id="Fill-123" fill="#FFFFFE"></path>
                    <path
                        d="M68.6797994,114.549785 C68.7383596,114.709885 68.8162607,114.846347 68.9032951,114.96293 C68.9473496,115.016117 68.9908668,115.065007 69.0349212,115.108524 C69.6033309,115.657593 70.4881805,115.556053 70.653116,115.53134 L70.6579513,115.53134 C70.7213467,115.511999 70.7847421,115.487822 70.8572708,115.463646 L70.9255014,115.434097 C72.3250358,114.841511 75.2901146,112.668875 77.3166189,111.118374 L77.3364971,111.108703 C78.5463825,110.175501 79.4215616,109.475466 79.4215616,109.475466 L79.2415831,109.198245 L78.5222063,108.143625 C78.5222063,108.143625 74.0168338,110.272744 71.8877149,111.016297 C70.9545129,111.34187 70.0406519,111.638431 69.4088467,112.026862 C69.3261103,112.075752 69.2535817,112.124105 69.1805158,112.17783 C69.1805158,112.17783 68.2231375,113.271132 68.6797994,114.549785"
                        id="Fill-124" fill="#3EA0C1"></path>
                    <path
                        d="M63.0225645,115.152579 C65.3553009,115.463646 67.8975645,115.784384 68.9666905,115.725824 C69.2095272,115.716153 70.1916189,115.745165 70.8572708,115.463646 L70.9158309,115.443768 L70.9255014,115.434097 C72.3250358,114.841511 75.2901146,112.668875 77.3166189,111.118374 C77.0254298,111.29298 73.1857092,113.524176 71.0420845,114.54495 C70.5026862,114.802292 70.0702006,114.982271 69.8316619,115.035458 C69.6226719,115.079513 69.3508238,115.103689 69.0349212,115.108524 L68.9140401,115.109062 C66.9375,115.100466 65.1344914,114.028653 64.0847063,112.35351 C63.568947,111.530981 63.1391476,111.054979 63.1391476,111.054979 C63.1391476,111.054979 63.0660817,113.45111 63.0225645,115.152579"
                        id="Fill-125" fill="#2E8CA4"></path>
                    <path
                        d="M69.8767908,111.777042 C69.8767908,111.777042 69.528116,112.029011 68.5030444,111.777042 C67.4779728,111.525072 68.5562321,112.779011 68.5562321,112.779011 L70.1695917,112.677471 L70.3065903,112.261103 L69.8767908,111.777042"
                        id="Fill-126" fill="#FFFFFE"></path>
                    <path
                        d="M53.5621418,123.526146 C53.9946275,124.64846 54.0977794,125.872851 53.836139,127.049427 C53.3171562,129.38485 53.9075931,129.541189 53.9075931,129.541189 C53.9075931,129.541189 57.0730659,131.550501 59.7050501,132.371418 C61.5918696,132.958632 63.1998567,132.859241 63.1547278,130.776325 L63.1536533,130.747314 C63.1504298,130.62106 63.1472063,130.500179 63.1439828,130.381984 C63.0553367,125.700394 64.0315186,125.462393 64.2722063,120.220451 C64.5204155,114.842586 64.4672278,111.658309 62.7448066,110.791189 C60.8681948,109.84563 58.286712,109.196096 54.6253582,110.061605 C51.8751791,110.709527 50.9693768,111.439112 50.991404,113.474212 C50.9989255,114.150609 51.1085244,114.972063 51.2874284,115.979943 C51.7419413,118.54101 52.8261103,121.615688 53.5621418,123.526146"
                        id="Fill-127" fill="#3EA0C1"></path>
                    <path
                        d="M53.5621418,123.526146 C53.9946275,124.64846 54.0977794,125.872851 53.836139,127.049427 C53.3171562,129.38485 53.9075931,129.541189 53.9075931,129.541189 C53.9075931,129.541189 57.0730659,131.550501 59.7050501,132.371418 L62.1651146,132.138252 L63.1493553,131.364613 L63.1536533,130.747314 C63.1504298,130.62106 63.1472063,130.500179 63.1439828,130.381984 C62.5825573,130.435709 61.303904,130.501254 59.4299785,130.285279 C57.9815544,130.120344 56.6652937,129.707199 55.7879656,129.37303 C55.1481017,129.130731 54.7725645,128.469377 54.8923711,127.795666 C55.0513968,126.874821 55.2399713,125.554799 55.2329871,124.529728 C55.2254656,123.499284 54.7483883,121.756984 54.357808,120.500358 C54.0601719,119.535996 53.9586318,118.527042 54.030086,117.521311 C54.1520415,115.781698 54.0273997,114.125895 54.0273997,114.125895 L52.0777221,113.069663 L50.991404,113.474212 C50.9989255,114.150609 51.1085244,114.972063 51.2874284,115.979943 C51.7419413,118.54101 52.8261103,121.615688 53.5621418,123.526146"
                        id="Fill-128" fill="#2E8CA4"></path>
                    <path
                        d="M62.3692693,104.366225 C62.0093123,104.511282 62.1597421,105.730838 62.0898997,106.12303 C62.0254298,106.520595 61.7406877,108.046383 60.9348138,108.2774 C60.1343123,108.508417 59.6346705,108.572887 59.6346705,108.707199 C59.629298,108.766297 59.650788,109.045666 59.6722779,109.325036 C59.6830229,109.443231 59.6937679,109.561426 59.6991404,109.65813 L59.7045129,109.733345 L59.7098854,109.797815 C59.7206304,109.89452 59.6991404,110.292085 59.640043,110.367299 L59.1135387,110.716511 C59.0436963,110.797099 58.9469914,110.850824 58.8395415,110.856196 L58.2861748,110.899176 L58.1679799,110.888431 L57.8563754,110.797099 C57.8133954,110.609062 57.7811605,110.464004 57.775788,110.458632 C57.765043,110.442514 56.7926218,109.80856 56.22851,109.437858 C56.1962751,108.857629 56.1479226,108.186067 56.1049427,108.014148 C56.0673352,107.86909 55.6536533,107.068589 55.2238539,106.117658 C55.1862464,106.03707 55.148639,105.956483 55.116404,105.875895 C55.0196991,105.660996 54.9283668,105.440723 54.8370344,105.220451 L54.7994269,105.134491 C54.4931948,104.35548 54.2514327,103.587213 54.2460602,103.071454 C54.2460602,101.663861 54.2944126,100.191798 55.1647564,99.4665115 C56.0243553,98.7465974 61.4881805,96.1570559 61.6708453,100.401325 L61.6815903,100.47654 C61.7621777,100.766655 62.3531519,102.931769 62.627149,103.329334 C62.9172636,103.753761 62.7292264,104.22654 62.3692693,104.366225"
                        id="Fill-129" fill="#F0A980"></path>
                    <path
                        d="M59.640043,110.367299 L59.5863181,110.630552 C59.5487106,110.818589 59.3821633,110.947529 59.1941261,110.942156 L58.2593123,110.904549 L58.1679799,110.888431 L57.8563754,110.797099 C57.8133954,110.609062 57.7811605,110.464004 57.775788,110.458632 C57.765043,110.442514 56.7926218,109.80856 56.22851,109.437858 C56.1962751,108.857629 56.1479226,108.186067 56.1049427,108.014148 C56.0673352,107.86909 55.6536533,107.068589 55.2238539,106.117658 C55.1862464,106.03707 55.148639,105.956483 55.116404,105.875895 C55.0196991,105.660996 54.9283668,105.440723 54.8370344,105.220451 C54.8155444,105.161354 54.8047994,105.102256 54.8101719,105.037787 L54.8477794,104.618732 C54.8638968,104.436067 55.0035817,104.285638 55.1862464,104.26952 C55.6482808,104.215795 56.4756447,104.124463 56.5186246,104.129835 C56.5777221,104.135208 57.0827364,105.102256 57.0827364,105.155981 C57.0827364,105.198961 56.8517192,105.90813 56.7872493,106.10154 L56.7657593,106.198245 C56.7603868,106.413145 56.7281519,107.294234 56.7550143,108.10548 C56.7711318,108.691082 57.0934814,109.212213 57.5877507,109.480838 L57.6575931,109.518446 C57.9101003,109.647385 58.7804441,110.093302 59.640043,110.367299"
                        id="Fill-130" fill="#E89772"></path>
                    <path
                        d="M62.6002865,104.753044 C63.77149,105.816798 62.5035817,108.121597 62.1275072,108.449319 C61.7514327,108.777042 59.0651862,109.59366 57.5232808,108.110852 C57.2277937,107.836855 57.0182665,107.509133 56.8624642,107.170666 L56.8570917,107.159921 C56.8141117,107.063216 56.4702722,106.23048 56.4971347,105.048532 L56.0565903,105.155981 C56.0565903,105.155981 55.9760029,106.525967 56.1318052,107.374821 C56.1264327,107.707915 55.7234957,107.879835 55.487106,107.648818 C54.7886819,106.966511 53.7303009,105.467586 53.3703438,102.45899 C52.8169771,97.8332736 57.4534384,97.5162966 58.495702,97.6237464 C59.2424785,97.7043338 60.5318768,97.6613539 60.8757163,97.4625716 C63.4813754,95.9582736 63.2396132,98.6391476 62.8689112,99.6491762 C62.7453438,99.9930158 62.4659742,100.428188 62.4068768,100.58399 C62.3477794,100.739792 62.4713467,101.427471 62.4713467,101.739076 C62.4659742,102.050681 62.1919771,102.217228 62.1919771,102.217228 C62.1919771,102.217228 61.9287249,101.352256 61.89649,101.228689 C61.8696275,101.137357 61.7621777,100.750537 61.7138252,100.578617 C61.6977077,100.524893 61.6547278,100.481913 61.6063754,100.460423 C61.4452006,100.401325 61.2840258,100.36909 61.2840258,100.36909 C61.112106,100.320738 60.4405444,100.28313 59.9140401,100.256268 C59.5702006,100.24015 59.2639685,100.503403 59.2532235,100.852615 C59.1887536,102.297815 58.4473496,102.561067 58.1088825,102.604047 C58.0121777,102.614792 57.9369628,102.690007 57.9262178,102.786712 C57.7005731,104.54889 58.3775072,105.537428 58.6676218,105.585781 C58.9684814,105.639506 59.8871777,104.849749 59.8871777,104.849749 C59.8871777,104.849749 61.4344556,103.689291 62.6002865,104.753044"
                        id="Fill-131" fill="#0E0F25"></path>
                    <path
                        d="M56.6373567,103.870344 C56.6373567,103.870344 56.5659026,103.079513 55.9598854,103.189649 C55.2394341,103.320201 54.8848496,104.999105 55.9915831,105.406877 C56.2338825,105.49606 56.4922994,105.30856 56.4971347,105.050681 C56.5041189,104.723496 56.5342049,104.268446 56.6373567,103.870344"
                        id="Fill-132" fill="#E89772"></path>
                    <path
                        d="M60.2041547,112.009133 C60.2041547,112.009133 63.0569484,121.360494 62.4863897,125.840616 L61.4349928,127.752686 L60.2863539,125.667622 C60.2863539,125.667622 61.2206304,116.711139 59.4315903,112.167085 L60.2041547,112.009133"
                        id="Fill-133" fill="#1C3749"></path>
                    <path
                        d="M60.4018625,111.21293 L60.3868195,111.335423 C60.3583453,111.567514 60.2970989,111.794234 60.2041547,112.009133 L59.4315903,112.167085 L58.7589542,111.665831 L59.5304441,110.769162 L59.6502507,110.799785 C59.9269341,110.870165 60.1815903,111.008775 60.3905802,111.202722 L60.4018625,111.21293"
                        id="Fill-134" fill="#182D39"></path>
                    <path
                        d="M56.2064828,109.068768 C56.2064828,109.068768 56.0136103,109.299785 55.6450573,109.854226 C55.6450573,109.854226 56.1823066,110.055695 56.6233883,110.324857 C57.025788,110.570917 58.9614971,111.938216 58.9614971,111.938216 L59.5304441,110.769162 C59.5304441,110.769162 57.3008596,109.375 56.2064828,109.068768"
                        id="Fill-135" fill="#2E8CA4"></path>
                    <path
                        d="M59.5304441,110.769162 C59.5304441,110.769162 60.2079155,111.000716 60.4158309,111.506268 C60.4158309,111.506268 60.743553,110.503223 60.4674069,109.952006 C60.4674069,109.952006 60.2691619,109.430337 59.6626074,109.184814 L59.5304441,110.769162"
                        id="Fill-136" fill="#2E8CA4"></path>
                    <path
                        d="M62.5449499,172.800501 C62.5449499,172.800501 62.8130372,173.487106 62.7791905,173.93947 C62.7458811,174.391834 61.3055158,174.425143 61.137894,174.190903 C60.9708095,173.956125 60.8869986,171.879656 60.8869986,171.879656"
                        id="Fill-137" fill="#F0A980"></path>
                    <path
                        d="M60.7575215,174.589542 C60.7575215,175.061246 60.8886103,175.828976 60.8886103,175.828976 L62.5487106,175.828976 L62.6303725,175.551755 C62.6303725,175.551755 63.168159,175.828976 63.5909742,175.828976 L64.9921203,175.828976 C66.0177292,175.828976 66.6001074,175.698424 66.6258954,175.517908 C66.7338825,174.76361 65.5089542,174.797994 65.1898281,174.797994 C64.2738181,174.797994 63.2820559,174.369269 63.0660817,173.904549 C62.9092049,173.567156 62.97851,173.481734 62.788861,173.544592 C62.788861,173.544592 62.618553,173.581662 62.5046562,173.790115 C62.3300501,174.110852 61.9985673,174.325752 61.6391476,174.262357 C61.4333811,174.226361 61.2270774,174.147923 61.0782593,173.991583 C61.0782593,173.991583 60.7575215,174.118374 60.7575215,174.589542"
                        id="Fill-138" fill="#343532"></path>
                    <path
                        d="M46.3968481,171.235494 C46.3968481,171.235494 46.0895415,172.450215 45.8912966,172.857987 C45.6925143,173.265759 44.3424069,172.763431 44.273639,172.483524 C44.2048711,172.203617 44.8963109,170.243732 44.8963109,170.243732"
                        id="Fill-139" fill="#F0A980"></path>
                    <path
                        d="M43.7723854,172.71293 C43.5977794,173.150788 43.3388252,173.999642 43.3388252,173.999642 L44.597063,174.750179 L44.8436605,174.563754 C44.8436605,174.563754 45.1214183,175.013968 45.5055516,175.255193 C45.7913682,175.434635 46.4226361,175.696275 46.7514327,175.77149 C47.9006089,176.033668 48.7886819,175.906877 48.8794771,175.748926 C49.2593123,175.088646 47.7362106,174.725466 47.439649,174.607271 C46.5891834,174.268266 46.1991404,173.443589 46.1706662,172.93159 C46.1497135,172.560351 46.2458811,172.506626 46.0465616,172.494807 C46.0465616,172.494807 45.8741046,172.465795 45.6914398,172.617837 C45.4104585,172.850466 45.0231017,172.927292 44.7125716,172.735494 C44.5347421,172.625895 44.3724928,172.47654 44.2913682,172.276683 C44.2913682,172.276683 43.9469914,172.275072 43.7723854,172.71293"
                        id="Fill-140" fill="#343532"></path>
                    <path
                        d="M52.2292264,138.863001 C52.2292264,138.863001 49.9738539,133.462034 53.9075931,129.541189 C53.9075931,129.541189 57.2643266,131.043875 59.9521848,131.225466 C62.068947,131.368374 63.1434456,131.149176 63.1434456,131.149176 C63.1434456,131.149176 63.9648997,135.391834 63.7037966,141.55462 L52.2292264,138.863001"
                        id="Fill-141" fill="#263358"></path>
                    <path
                        d="M60.6892908,173.321633 C60.7575215,173.326468 60.8257521,173.326468 60.8886103,173.326468 C62.2886819,173.340974 63.0854226,173.176039 63.0854226,173.176039 L63.0854226,172.772564 C63.0080587,166.5899 63.756447,156.485315 63.9020415,153.291905 C63.911712,153.06841 63.9068768,152.864255 63.8827006,152.679441 C63.6398639,150.34187 61.2238539,150.648102 60.2084527,152.796024 C59.969914,153.296741 59.780265,153.850645 59.6346705,154.448603 C59.454692,155.16798 59.3332736,155.950752 59.2602077,156.781877 C58.7890401,162.118374 60.2761461,169.336318 60.6892908,173.321633"
                        id="Fill-142" fill="#263358"></path>
                    <path
                        d="M56.4998209,141.354764 C56.5094914,141.418159 56.5239971,141.485852 56.5385029,141.554083 C57.0730659,144.368195 58.8083811,151.97457 59.6346705,154.443768 L59.6346705,154.448603 C59.7560888,154.794054 60.1692335,155.085244 60.6989613,155.22654 C61.9142192,155.556948 63.7274355,155.105122 63.8827006,152.679441 C63.9020415,152.412428 63.8972063,152.120702 63.8730301,151.804799 C63.7698782,150.540652 63.6812321,145.142908 63.7037966,141.55462 C63.7161533,139.517908 63.224033,138.284384 63.1923352,137.908847 C63.1101361,136.859062 62.9204871,135.327901 62.3660458,135.133417 C59.6008238,134.176039 55.7756089,137.417801 56.4998209,141.354764"
                        id="Fill-143" fill="#263358"></path>
                    <path
                        d="M59.2602077,156.781877 C58.7890401,162.118374 60.2761461,169.336318 60.6892908,173.321633 C60.7575215,173.326468 60.8257521,173.326468 60.8886103,173.326468 C60.8886103,173.326468 60.5436963,167.012715 59.9795845,162.638431 C59.5422636,159.260745 60.3202006,156.368732 60.6989613,155.22654 C60.8107092,154.885924 60.8886103,154.701648 60.8886103,154.701648 L60.2084527,152.796024 C59.4498567,150.317156 59.4305158,144.533668 59.4305158,144.533668 C61.2775788,140.460244 61.5349212,135.332736 61.5349212,135.332736 L59.9554083,135.551397 L57.1267908,138.944126 L56.5385029,141.554083 C57.0730659,144.368195 58.8083811,151.97457 59.6346705,154.443768 L59.6346705,154.448603 C59.454692,155.16798 59.3332736,155.950752 59.2602077,156.781877"
                        id="Fill-144" fill="#1C2743"></path>
                    <path
                        d="M59.0807665,152.552113 C59.0807665,152.552113 59.5551576,154.691977 59.2602077,156.781877 C58.9657951,158.871777 60.2616404,154.942872 60.2616404,154.942872 L59.5728868,153.525072 L59.0807665,152.552113"
                        id="Fill-145" fill="#1C2743"></path>
                    <path
                        d="M50.9903295,152.63861 C52.8626433,150.877507 55.4666905,151.710781 54.2503582,154.444305 C52.9496777,157.366941 48.9272923,165.48048 46.7465974,171.264506 L46.5961676,171.64058 C46.5961676,171.64058 45.719914,171.489076 44.3133954,170.901325 C45.351361,167.147027 46.105659,160.676934 48.2627149,156.168338 C48.9557665,154.718302 50.0195201,153.551397 50.9903295,152.63861"
                        id="Fill-146" fill="#263358"></path>
                    <path
                        d="M61.5370702,135.334348 C61.900788,130.985852 56.4815544,133.873567 53.8823424,135.309635 C52.7879656,135.913503 52.3877149,137.122851 52.2410458,138.260745 C52.0933023,139.399176 50.6889327,151.116046 50.4068768,153.253761 C49.7713109,158.073424 53.980659,155.437679 54.3787607,154.102615 C55.3823424,150.730838 61.3393625,137.703617 61.5370702,135.334348"
                        id="Fill-147" fill="#263358"></path>
                    <path
                        d="M50.7797278,150.266655 C50.7797278,150.266655 50.6083453,152.573066 48.6710244,155.416726 C48.6710244,155.416726 51.8407951,153.953259 51.9949857,153.737822 C52.148639,153.522385 52.702543,151.288503 52.6407593,151.052113 C52.5795129,150.815186 50.7797278,150.266655 50.7797278,150.266655"
                        id="Fill-148" fill="#263358"></path>
                    <polyline id="Fill-149" fill="#F6BD5E"
                        points="93.568947 85.5313395 89.8780444 98.4790473 43.9754656 147.927471 43.5510387 148.384133 39.1396848 153.016834 30.6780086 145.156877 35.3741046 140.217944 36.2874284 139.229405 81.4163682 90.6190903 93.568947 85.5313395"></polyline>
                    <polyline id="Fill-150" fill="#FF7B5D"
                        points="41.5492479 150.419771 39.1396848 153.016834 30.6780086 145.156877 33.0875716 142.559814 41.5492479 150.419771"></polyline>
                    <polyline id="Fill-151" fill="#FCE5C0"
                        points="43.9614971 147.824857 41.5492479 150.419771 33.0875716 142.559814 35.4998209 139.9649 43.9614971 147.824857"></polyline>
                    <polyline id="Fill-152" fill="#FCE5C0"
                        points="81.4163682 90.6190903 89.8780444 98.4790473 93.568947 85.5313395 81.4163682 90.6190903"></polyline>
                    <polyline id="Fill-153" fill="#F6BD5E"
                        points="89.219914 87.3520774 92.2924427 90.0087751 93.568947 85.5313395 89.219914 87.3520774"></polyline>
                    <path
                        d="M39.1396848,153.016834 L39.1396848,153.016834 L41.5492479,150.419771 L43.9614971,147.824857 L41.6781877,145.703797 L55.2098854,131.480122 C55.4715258,131.695021 55.6235673,131.813216 55.6235673,131.813216 L55.8153653,131.588646 C55.8153653,131.588646 55.9496777,131.889506 56.2344198,132.276325 C56.3848496,132.48048 56.6642192,132.60942 56.8898639,132.684635 L57.3142908,132.227973 L57.3411533,131.921741 L56.073245,130.572708 L88.1416547,96.8656877 L89.8780444,98.4790473 L39.1396848,153.016834"
                        id="Fill-154" fill="#EB8B35"></path>
                    <polyline id="Fill-155" fill="#E15C3F"
                        points="39.1396848 153.016834 39.1396848 153.016834 36.7935172 150.837751 39.2358524 148.270774 41.5492479 150.419771 39.1396848 153.016834"></polyline>
                    <polyline id="Fill-156" fill="#F1A84E"
                        points="41.5492479 150.419771 41.5492479 150.419771 39.2358524 148.270774 41.6781877 145.703797 43.9614971 147.824857 41.5492479 150.419771"></polyline>
                    <polyline id="Fill-157" fill="#F1A84E"
                        points="89.8780444 98.4790473 89.8780444 98.4790473 88.1416547 96.8662249 88.1416547 96.8656877 91.678904 89.4779728 92.2924427 90.0087751 93.568947 85.5313395 89.8780444 98.4790473"></polyline>
                    <polyline id="Fill-158" fill="#EB8B35"
                        points="92.2924427 90.0087751 91.678904 89.4779728 93.568947 85.5313395 92.2924427 90.0087751"></polyline>
                    <path
                        d="M49.2523281,125.264685 C49.0744986,125.000358 48.9084885,124.735494 48.7569842,124.471168 L49.6262536,123.529907 L50.41601,123.841511 C50.41601,123.841511 50.4450215,123.87106 50.4971347,123.923711 L49.2523281,125.264685"
                        id="Fill-159" fill="#BFCED3"></path>
                    <path
                        d="M55.2098854,131.480122 C54.1095989,130.577006 51.0693052,127.9649 49.2523281,125.264685 L50.4971347,123.923711 C50.9086676,124.338467 52.7428367,126.191977 52.8766117,126.382701 C53.0270415,126.602973 54.6602794,129.068947 54.6602794,129.068947 L56.073245,130.572708 L55.2098854,131.480122"
                        id="Fill-160" fill="#C89E4F"></path>
                    <path
                        d="M56.8898639,132.684635 C56.6642192,132.60942 56.3848496,132.48048 56.2344198,132.276325 C55.9496777,131.889506 55.8153653,131.588646 55.8153653,131.588646 L55.6235673,131.813216 C55.6235673,131.813216 55.4715258,131.695021 55.2098854,131.480122 L56.073245,130.572708 L57.3411533,131.921741 L57.3142908,132.227973 L56.8898639,132.684635"
                        id="Fill-161" fill="#C5772F"></path>
                    <path
                        d="M55.1658309,130.945559 L56.6771132,129.688395 C56.6771132,129.688395 57.1224928,130.425501 57.4491404,130.527042 C57.5254298,130.550681 57.7688037,130.480301 57.8483166,130.480301 C58.2791905,130.479226 58.5402937,130.616225 59.0694842,130.858524 C59.4251433,131.021848 59.8941619,131.170129 59.9129656,131.3125 C59.9323066,131.455408 59.6846347,131.679979 59.4364255,131.661712 C59.4058023,131.659563 59.3638968,131.649893 59.3139327,131.635924 C59.3112464,131.676218 59.3069484,131.720272 59.2854585,131.786354 C59.1828438,132.102794 57.6989613,134.174427 56.224212,131.921741 C55.890043,131.411354 55.1658309,130.945559 55.1658309,130.945559"
                        id="Fill-162" fill="#F3B699"></path>
                    <path
                        d="M54.4023997,116.207199 C53.9027579,117.743732 53.3708811,120.172099 52.3662249,122.229764 C52.344735,122.278116 52.323245,122.321096 52.301755,122.358703 L52.2856375,122.385566 C52.2856375,122.385566 52.2641476,122.476898 52.2104226,122.611211 C52.0277579,123.035638 51.5334885,123.900609 50.41601,123.841511 C50.3622851,123.841511 50.2172278,123.846884 50.034563,123.857629 C49.8142908,123.868374 49.5402937,123.873746 49.2877865,123.857629 C48.9761819,123.836139 48.7021848,123.777042 48.6108524,123.621239 L48.6054799,123.615867 C48.594735,123.583632 48.5786175,123.529907 48.5678725,123.460064 L48.551755,123.374105 L48.5356375,123.282772 C48.5248926,123.196812 48.5195201,123.110852 48.5141476,123.024893 L48.5087751,122.895953 C48.4980301,122.347958 48.594735,121.810709 48.6108524,121.638789 C48.7720272,119.908847 50.4804799,114.493374 51.0607092,112.236927 C51.1466691,111.903832 51.3347063,111.608345 51.592586,111.404191 C51.8182307,111.216153 52.0976003,111.097958 52.4038324,111.081841 L52.4145774,111.076468 L52.5435172,111.076468 C53.3010387,111.097958 53.8221705,111.694305 54.1713825,112.408847 C54.4023997,112.881626 54.558202,113.392013 54.6172994,113.907772 C54.7193768,114.670666 54.6387894,115.465795 54.4023997,116.207199"
                        id="Fill-163" fill="#3EA0C1"></path>
                    <path
                        d="M57.0026862,130.401325 L56.0571275,131.255552 L56.051755,131.260924 L55.8046203,131.475824 C55.8046203,131.475824 53.8866404,129.810351 52.3930874,128.402758 C51.0123567,127.09187 49.6047636,125.630552 48.7290473,123.879119 C48.6860673,123.798532 48.6430874,123.707199 48.6054799,123.626612 L48.6054799,123.615867 C48.594735,123.583632 48.5786175,123.529907 48.5678725,123.460064 L48.551755,123.374105 L48.5356375,123.282772 C48.5248926,123.196812 48.5195201,123.110852 48.5141476,123.024893 L48.5087751,122.895953 C48.5141476,122.568231 48.594735,122.197529 48.8579871,121.885924 L48.9278295,121.805337 C49.0299069,121.703259 49.1534742,121.611927 49.303904,121.53134 C49.3952364,121.482987 49.4919413,121.440007 49.5832736,121.413145 C50.6900072,121.026325 51.7215258,121.703259 51.7215258,121.703259 C51.7806232,121.762357 51.8450931,121.826827 51.9041905,121.896669 C52.0331304,122.036354 52.1674427,122.192156 52.301755,122.358703 C52.672457,122.831483 53.043159,123.40634 53.3332736,124.083274 C54.2465974,126.194663 57.0026862,130.401325 57.0026862,130.401325"
                        id="Fill-164" fill="#3EA0C1"></path>
                    <path
                        d="M79.5166547,109.641476 C79.5166547,109.641476 81.8198424,108.038324 81.9229943,106.812321 C82.0363539,105.45899 81.0848854,104.808381 80.45899,105.555158 C79.4736748,106.729585 79.7390759,108.851182 79.7390759,108.851182 L79.5166547,109.641476"
                        id="Fill-165" fill="#F3B699"></path>
                    <path
                        d="M56.0571275,131.255552 L56.051755,131.260924 L55.8046203,131.475824 C55.8046203,131.475824 53.8866404,129.810351 52.3930874,128.402758 C51.0123567,127.09187 49.6047636,125.630552 48.7290473,123.879119 C48.6860673,123.798532 48.6430874,123.707199 48.6054799,123.626612 L48.6054799,123.615867 C48.594735,123.583632 48.5786175,123.529907 48.5678725,123.460064 L48.551755,123.374105 L48.5356375,123.282772 C48.5248926,123.196812 48.5195201,123.110852 48.5141476,123.024893 L48.5087751,122.895953 C48.4980301,122.347958 48.594735,121.810709 48.6108524,121.638789 C48.7720272,119.908847 50.4804799,114.493374 51.0607092,112.236927 C51.1466691,111.903832 51.3347063,111.608345 51.592586,111.404191 C51.8182307,111.216153 52.0976003,111.097958 52.4038324,111.081841 L52.4145774,111.076468 L52.5435172,111.076468 C52.1835602,111.656698 51.6731734,112.827901 51.0983166,115.175681 C50.3354226,118.307844 49.7981734,120.198961 49.5832736,121.413145 C49.4758238,121.971884 49.4435888,122.390938 49.4865688,122.71866 C49.5134312,122.922815 49.7122135,123.325752 50.034563,123.857629 C51.3508238,126.038861 54.6925143,130.320738 56.0571275,131.255552"
                        id="Fill-166" fill="#2E8CA4"></path>
                </g>
            </g>
        </g>
    </g>
</svg>