<svg enable-background="new 0 0 128 128" viewBox="0 0 128 128" xmlns="http://www.w3.org/2000/svg"><path d="m65.111 104.674c-14.035 0-26.869-8.277-32.693-21.088-.523-1.149-.015-2.508 1.135-3.029 1.145-.524 2.507-.015 3.03 1.135 5.084 11.181 16.282 18.408 28.529 18.408 12.243 0 23.442-7.227 28.529-18.408.524-1.153 1.889-1.659 3.03-1.135 1.15.524 1.659 1.88 1.135 3.029-5.831 12.811-18.663 21.088-32.695 21.088zm31.817-72.072h-16.158c-5.38 0-9.962 3.339-11.78 8.07h-9.98c-1.818-4.73-6.4-8.07-11.78-8.07h-16.158c-6.993 0-12.651 5.658-12.651 12.633v11.075c0 6.975 5.658 12.652 12.651 12.652h16.158c6.994 0 12.652-5.677 12.652-12.652v-9.22c0-.352 8.237-.352 8.237 0v9.22c0 6.975 5.658 12.652 12.652 12.652h16.157c6.975 0 12.652-5.677 12.652-12.652v-11.075c-.001-6.975-5.677-12.633-12.652-12.633zm31.072 31.399c0-35.29-28.71-64.001-63.999-64.001-35.29 0-64.001 28.711-64.001 64.001 0 35.289 28.711 63.999 64.001 63.999 35.289 0 63.999-28.71 63.999-63.999zm-9.275 0c0 30.174-24.549 54.723-54.724 54.723-30.176 0-54.726-24.549-54.726-54.723 0-30.176 24.55-54.726 54.726-54.726 30.175.001 54.724 24.551 54.724 54.726z" fill="#231f20"/></svg>