<svg width="43" height="43" viewBox="0 0 43 43" fill="none" xmlns="http://www.w3.org/2000/svg">
<g filter="url(#filter0_d)">
<path d="M21.5 0C11.835 0 4 7.83501 4 17.5C4 27.165 11.835 35 21.5 35C31.165 35 39 27.165 39 17.5C39 7.83501 31.165 0 21.5 0ZM21.5 32.8125C13.0431 32.8125 6.1875 25.9569 6.1875 17.5C6.1875 9.04313 13.0431 2.1875 21.5 2.1875C29.9569 2.1875 36.8125 9.04313 36.8125 17.5C36.8125 25.9569 29.9569 32.8125 21.5 32.8125Z" fill="white"/>
<path d="M32.4375 9.84375H10.5625C9.95841 9.84375 9.46875 10.3334 9.46875 10.9375V14.2188C9.46875 16.031 10.9378 17.5 12.75 17.5H17.125C18.9372 17.5 20.4062 16.031 20.4062 14.2188V12.0312H22.5938V14.2188C22.5938 16.031 24.0628 17.5 25.875 17.5H30.25C32.0622 17.5 33.5312 16.031 33.5312 14.2188V10.9375C33.5312 10.3334 33.0416 9.84375 32.4375 9.84375Z" fill="white"/>
<path d="M21.5 26.25C17.8757 26.25 14.9375 23.3118 14.9375 19.6875H12.75C12.75 24.52 16.6675 28.4375 21.5 28.4375C26.3325 28.4375 30.25 24.52 30.25 19.6875H28.0625C28.0625 23.3118 25.1243 26.25 21.5 26.25Z" fill="white"/>
</g>
<defs>
<filter id="filter0_d" x="0" y="0" width="43" height="43" filterUnits="userSpaceOnUse" color-interpolation-filters="sRGB">
<feFlood flood-opacity="0" result="BackgroundImageFix"/>
<feColorMatrix in="SourceAlpha" type="matrix" values="0 0 0 0 0 0 0 0 0 0 0 0 0 0 0 0 0 0 127 0"/>
<feOffset dy="4"/>
<feGaussianBlur stdDeviation="2"/>
<feColorMatrix type="matrix" values="0 0 0 0 0 0 0 0 0 0 0 0 0 0 0 0 0 0 0.25 0"/>
<feBlend mode="normal" in2="BackgroundImageFix" result="effect1_dropShadow"/>
<feBlend mode="normal" in="SourceGraphic" in2="effect1_dropShadow" result="shape"/>
</filter>
</defs>
</svg>
