<svg width="35" height="35" viewBox="0 0 35 35" fill="none" xmlns="http://www.w3.org/2000/svg">
<path d="M17.5 0C7.83501 0 0 7.83501 0 17.5C0 27.165 7.83501 35 17.5 35C27.165 35 35 27.165 35 17.5C35 7.83501 27.165 0 17.5 0ZM17.5 32.8125C9.04313 32.8125 2.1875 25.9569 2.1875 17.5C2.1875 9.04313 9.04313 2.1875 17.5 2.1875C25.9569 2.1875 32.8125 9.04313 32.8125 17.5C32.8125 25.9569 25.9569 32.8125 17.5 32.8125Z" fill="white"/>
<path d="M28.4375 9.84375H6.5625C5.95841 9.84375 5.46875 10.3334 5.46875 10.9375V14.2188C5.46875 16.031 6.93779 17.5 8.75 17.5H13.125C14.9372 17.5 16.4062 16.031 16.4062 14.2188V12.0312H18.5938V14.2188C18.5938 16.031 20.0628 17.5 21.875 17.5H26.25C28.0622 17.5 29.5312 16.031 29.5312 14.2188V10.9375C29.5312 10.3334 29.0416 9.84375 28.4375 9.84375Z" fill="white"/>
<path d="M17.5 26.25C13.8757 26.25 10.9375 23.3118 10.9375 19.6875H8.75C8.75 24.52 12.6675 28.4375 17.5 28.4375C22.3325 28.4375 26.25 24.52 26.25 19.6875H24.0625C24.0625 23.3118 21.1243 26.25 17.5 26.25Z" fill="white"/>
</svg>
