<svg fill="none" height="725" viewBox="0 0 375 725" width="375" xmlns="http://www.w3.org/2000/svg"><g clip-rule="evenodd" fill-rule="evenodd" opacity=".3" stroke="#fff" stroke-width="80"><path d="m545 494c112.666 0 204-91.334 204-204s-91.334-204-204-204-204 91.334-204 204 91.334 204 204 204z" opacity=".05"/><path d="m113 266c62.408 0 113-50.592 113-113 0-62.4082-50.592-113-113-113-62.4082 0-113 50.5918-113 113 0 62.408 50.5918 113 113 113z" opacity=".1"/><path d="m225 811c83.947 0 152-68.053 152-152s-68.053-152-152-152-152 68.053-152 152 68.053 152 152 152z" opacity=".15"/></g></svg>