<svg width="375" height="331" viewBox="0 0 375 331" fill="none" xmlns="http://www.w3.org/2000/svg">
<g clip-path="url(#clip0)">
<rect width="375" height="331" fill="white"/>
<path fill-rule="evenodd" clip-rule="evenodd" d="M187.5 329C440.723 329 646 123.723 646 -129.5C646 -382.723 440.723 -588 187.5 -588C-65.7226 -588 -271 -382.723 -271 -129.5C-271 123.723 -65.7226 329 187.5 329Z" fill="#145FD8"/>
<mask id="mask0" mask-type="alpha" maskUnits="userSpaceOnUse" x="-271" y="-588" width="917" height="917">
<path fill-rule="evenodd" clip-rule="evenodd" d="M187.5 329C440.723 329 646 123.723 646 -129.5C646 -382.723 440.723 -588 187.5 -588C-65.7226 -588 -271 -382.723 -271 -129.5C-271 123.723 -65.7226 329 187.5 329Z" fill="white"/>
</mask>
<g mask="url(#mask0)">
<path opacity="0.1" fill-rule="evenodd" clip-rule="evenodd" d="M334 378C385.362 378 427 336.362 427 285C427 233.638 385.362 192 334 192C282.638 192 241 233.638 241 285C241 336.362 282.638 378 334 378Z" stroke="white" stroke-width="70"/>
<path opacity="0.1" fill-rule="evenodd" clip-rule="evenodd" d="M63 134C69.0751 134 74 129.075 74 123C74 116.925 69.0751 112 63 112C56.9249 112 52 116.925 52 123C52 129.075 56.9249 134 63 134Z" stroke="white" stroke-width="10"/>
<path opacity="0.1" fill-rule="evenodd" clip-rule="evenodd" d="M116.5 82C146.047 82 170 58.0472 170 28.5C170 -1.04723 146.047 -25 116.5 -25C86.9528 -25 63 -1.04723 63 28.5C63 58.0472 86.9528 82 116.5 82Z" stroke="white" stroke-width="50"/>
<path fill-rule="evenodd" clip-rule="evenodd" d="M181.724 331C266.776 331 335.724 321.15 335.724 309C335.724 296.85 266.776 287 181.724 287C96.672 287 27.7239 296.85 27.7239 309C27.7239 321.15 96.672 331 181.724 331Z" fill="#102B44" fill-opacity="0.2"/>
<path fill-rule="evenodd" clip-rule="evenodd" d="M208.733 305H228.591L228.724 299H214.144C208.253 301.533 208.733 305 208.733 305" fill="#3D4252"/>
<path fill-rule="evenodd" clip-rule="evenodd" d="M253.637 236.535C251.514 221.497 250.807 175 250.807 175H213.724V196.342L214.547 299H229.295L231.842 194.456C231.842 222.911 243.381 267.327 255.051 297.044L268.724 292.116C264.656 279.047 255.288 248.243 253.637 236.535" fill="#E8849D"/>
<path fill-rule="evenodd" clip-rule="evenodd" d="M253.573 295.97C249.44 300.304 251.021 303 251.021 303L268.724 297.053C268.724 297.053 268.013 294.749 266.887 291L253.573 295.97" fill="#3D4252"/>
<path fill-rule="evenodd" clip-rule="evenodd" d="M223.281 114C223.281 114 222.716 131.185 223.281 136C225.681 156.503 217.846 158 211.374 158C204.901 158 185.724 156.358 185.724 156.358V150.024L206.34 147.913C206.34 147.913 205.66 119.604 223.281 114" fill="#F0B2AF"/>
<path fill-rule="evenodd" clip-rule="evenodd" d="M210.724 196V198H252.724L252.689 196H210.724" fill="#FDE9E2"/>
<path fill-rule="evenodd" clip-rule="evenodd" d="M252.724 196L250.29 131.1C250.29 120.659 242.023 112.097 231.722 112.002C231.588 112.001 231.455 112 231.32 112C217.863 112 213.349 122.665 213.349 134.041C213.349 145.417 210.724 195.834 210.724 195.834L252.724 196" fill="#EB94A6"/>
<path fill-rule="evenodd" clip-rule="evenodd" d="M234.724 112L235.791 118.414C237.798 130.473 241.291 142.208 245.841 153.539C254.019 173.906 253.755 196 253.755 196H260.724C260.724 111.151 234.724 112 234.724 112" fill="#F0B2AF"/>
<path fill-rule="evenodd" clip-rule="evenodd" d="M203.724 143.58L226.346 148L229.724 114.038C229.724 114.038 205.832 111.697 203.724 143.58" fill="#EB94A6"/>
<path fill-rule="evenodd" clip-rule="evenodd" d="M255.724 143.58L233.101 148L229.724 114.038C229.724 114.038 253.616 111.697 255.724 143.58" fill="#EB94A6"/>
<path fill-rule="evenodd" clip-rule="evenodd" d="M228.725 143H238.717C238.717 143 239.122 153 233.824 153C228.527 153 228.725 143 228.725 143" fill="#E8849D"/>
<path fill-rule="evenodd" clip-rule="evenodd" d="M227.676 112V112.003C226.733 112.039 218.724 112.575 218.724 120.071C218.724 127.558 226.813 138.908 227.772 140C228.731 138.908 236.724 127.558 236.724 120.071C236.724 112.575 228.619 112.037 227.676 112Z" stroke="#201E2B" stroke-width="0.621"/>
<path fill-rule="evenodd" clip-rule="evenodd" d="M222.724 146H232.724V140H222.724V146Z" fill="#FFFFFE"/>
<path d="M228.224 139V141" stroke="#201E2B" stroke-width="0.621"/>
<path fill-rule="evenodd" clip-rule="evenodd" d="M224.724 144H226.724V142H224.724V144Z" fill="#F7CEC1"/>
<path fill-rule="evenodd" clip-rule="evenodd" d="M227.724 141.794H231.724V141.206H227.724V141.794Z" fill="#FDE9E2"/>
<path fill-rule="evenodd" clip-rule="evenodd" d="M227.724 141.794H231.724V141.206H227.724V141.794Z" fill="#FDE9E2"/>
<path fill-rule="evenodd" clip-rule="evenodd" d="M227.724 143.794H231.724V143.206H227.724V143.794Z" fill="#FDE9E2"/>
<path fill-rule="evenodd" clip-rule="evenodd" d="M227.724 143.794H231.724V143.206H227.724V143.794Z" fill="#FDE9E2"/>
<path fill-rule="evenodd" clip-rule="evenodd" d="M224.724 143.794H226.724V143.206H224.724V143.794Z" fill="#F7CEC1"/>
<path fill-rule="evenodd" clip-rule="evenodd" d="M190.341 167H211.86C213.688 167 215.048 165.287 214.656 163.477L207.903 132.28C207.615 130.949 206.452 130 205.107 130H183.589C181.76 130 180.4 131.713 180.792 133.523L187.545 164.72C187.833 166.052 188.996 167 190.341 167" fill="#102B44"/>
<path fill-rule="evenodd" clip-rule="evenodd" d="M226.725 125V125C230.037 125 232.724 122.362 232.724 119.108V109H220.724V119.108C220.724 122.362 223.41 125 226.725 125" fill="#EC9A9A"/>
<path fill-rule="evenodd" clip-rule="evenodd" d="M216.724 100.754C216.724 107.946 220.243 112 225.766 112C231.29 112 236.724 107.946 236.724 100.754C236.724 93.5629 236.724 86 226.723 86C216.724 86 216.724 93.5629 216.724 100.754" fill="#F0B2AF"/>
<path fill-rule="evenodd" clip-rule="evenodd" d="M240.724 98.37C240.724 101.698 236.724 102 236.724 102V96.1919C236.724 96.1919 240.724 95.0424 240.724 98.37" fill="#F0B2AF"/>
<path fill-rule="evenodd" clip-rule="evenodd" d="M238.724 99.5803C238.724 101.798 236.724 102 236.724 102V98.1279C236.724 98.1279 238.724 97.3617 238.724 99.5803" fill="#EC9A9A"/>
<path fill-rule="evenodd" clip-rule="evenodd" d="M222.724 97C222.724 97.5518 222.276 98 221.724 98C221.172 98 220.724 97.5518 220.724 97C220.724 96.4476 221.172 96 221.724 96C222.276 96 222.724 96.4476 222.724 97" fill="#FFFFFE"/>
<path fill-rule="evenodd" clip-rule="evenodd" d="M229.724 96.9996C229.724 97.5523 229.276 98 228.724 98C228.172 98 227.724 97.5523 227.724 96.9996C227.724 96.4477 228.172 96 228.724 96C229.276 96 229.724 96.4477 229.724 96.9996" fill="#201E2B"/>
<path fill-rule="evenodd" clip-rule="evenodd" d="M222.724 96.9996C222.724 97.5523 222.277 98 221.724 98C221.172 98 220.724 97.5523 220.724 96.9996C220.724 96.4477 221.172 96 221.724 96C222.277 96 222.724 96.4477 222.724 96.9996" fill="#201E2B"/>
<path fill-rule="evenodd" clip-rule="evenodd" d="M227.724 107C225.724 109.25 223.724 107 223.724 107H227.724" fill="#FFFFFE"/>
<path fill-rule="evenodd" clip-rule="evenodd" d="M226.724 98V104C222.224 104 226.724 98 226.724 98" fill="#E78287"/>
<path fill-rule="evenodd" clip-rule="evenodd" d="M233.724 103C233.724 104.657 232.381 106 230.724 106C229.067 106 227.724 104.657 227.724 103C227.724 101.343 229.067 100 230.724 100C232.381 100 233.724 101.343 233.724 103" fill="#EC9A9A"/>
<path fill-rule="evenodd" clip-rule="evenodd" d="M220.412 100C221.689 100 222.724 101.343 222.724 103C222.724 104.657 221.689 106 220.412 106C219.969 106 219.559 105.83 219.207 105.548C218.915 104.199 218.754 102.663 218.724 100.964C219.146 100.374 219.743 100 220.412 100" fill="#EC9A9A"/>
<path fill-rule="evenodd" clip-rule="evenodd" d="M254.468 196.681C254.468 196.681 251.597 206.892 253.222 207.778C254.846 208.664 255.232 205.215 255.232 205.215C255.232 205.215 255.892 212.322 257.167 211.989C258.444 211.656 258.224 209.821 258.224 209.821C258.224 209.821 258.482 210.583 259.142 210.41C259.801 210.238 259.812 208.915 259.977 208.873C260.559 210.041 261.715 209.13 261.292 207.65C262.377 208.721 262.886 207.403 262.678 205.19C262.47 202.977 261.973 196 261.973 196" fill="#F0B2AF"/>
<path fill-rule="evenodd" clip-rule="evenodd" d="M193.513 146.248C193.035 145.148 187.63 149.004 187.63 149.004C187.63 149.004 189.859 146.636 188.323 146.032C187.263 145.615 184.255 149.403 182.49 151.791C181.657 152.919 181.491 154.428 182.053 155.725C183.009 157.929 185.656 158.688 187.563 157.304C189.224 156.098 190.99 154.819 191.775 154.26C193.459 153.06 194.108 151.902 192.743 151.788C194.029 151.187 194.027 149.819 192.874 150.12C192.813 149.978 193.743 149.166 193.497 148.597C193.251 148.029 192.566 148.31 192.566 148.31C192.566 148.31 193.989 147.349 193.513 146.248" fill="#F0B2AF"/>
<path fill-rule="evenodd" clip-rule="evenodd" d="M229.931 85.0045C228.742 83.8293 227.907 82.2493 227.751 80.4981C227.629 79.1206 227.871 77.4948 229.329 76.5001C232.245 74.51 241.13 78.6959 239.534 84.8671C238.218 89.9508 232.951 87.9919 229.931 85.0045" fill="#2C609D"/>
<path fill-rule="evenodd" clip-rule="evenodd" d="M239.711 91.8583C239.261 81.8425 227.363 76.5953 219.072 82.4424C217.455 83.5821 216.152 84.9575 215.63 86.5847C213.093 94.5081 211.095 93.6996 211.908 96.4257C212.72 99.1523 217.12 98.354 218.068 93.8991C219.016 89.4443 228.423 92.7889 232.959 88.3334C232.959 93.3876 235.66 98.9131 238.716 95.9117C239.479 95.1615 239.793 93.6713 239.711 91.8583" fill="#2C609D"/>
<path d="M228.724 80.0251C228.724 80.0251 235.123 79.2728 238.724 86" stroke="#102B44" stroke-width="0.621"/>
<path fill-rule="evenodd" clip-rule="evenodd" d="M221.111 116C221.111 116 222.455 121.453 226.647 121.453C230.84 121.453 232.321 116 232.321 116C232.321 116 234.977 122.028 226.647 130C218.541 122.106 221.111 116 221.111 116" fill="#FDE9E2"/>
<path fill-rule="evenodd" clip-rule="evenodd" d="M212.724 181.492L220.224 174L222.724 176.496L215.212 184L212.724 181.492" fill="#E8849D"/>
<path fill-rule="evenodd" clip-rule="evenodd" d="M248.724 181.492L241.223 174L238.724 176.496L246.236 184L248.724 181.492" fill="#E8849D"/>
<path fill-rule="evenodd" clip-rule="evenodd" d="M112.724 230H160.724V184H118.18L112.724 230" fill="#F7CEC1"/>
<path fill-rule="evenodd" clip-rule="evenodd" d="M138.724 170H118.724L119.535 298H134.677L138.724 170" fill="#102B44"/>
<path fill-rule="evenodd" clip-rule="evenodd" d="M119.354 297C112.147 299.533 112.735 303 112.735 303H135.509L135.724 297H119.354" fill="#0C2339"/>
<path fill-rule="evenodd" clip-rule="evenodd" d="M156.189 171.117L138.724 170L143.159 298H158.724L156.189 171.117" fill="#102B44"/>
<path fill-rule="evenodd" clip-rule="evenodd" d="M159.109 297H142.724L143.018 303H165.712C165.712 303 166.3 299.533 159.109 297" fill="#0C2339"/>
<path fill-rule="evenodd" clip-rule="evenodd" d="M156.638 136.428C156.638 136.428 164.057 102 140.109 102C128.098 102 121.004 107.814 121.521 122.615C122.1 139.238 119.724 175 119.724 175H157.312L156.638 136.428Z" fill="#42B8EB"/>
<path fill-rule="evenodd" clip-rule="evenodd" d="M131.724 104C131.724 104 107.724 107.138 107.724 154.421C107.724 172.38 122.104 183 122.104 183L127.765 177.353C127.765 177.353 104.812 154.127 131.724 127.28V104" fill="#FDE9E2"/>
<path fill-rule="evenodd" clip-rule="evenodd" d="M146.724 104C146.724 104 170.724 107.138 170.724 154.421C170.724 172.38 156.344 183 156.344 183L150.683 177.353C150.683 177.353 173.636 154.127 146.724 127.28V104" fill="#FDE9E2"/>
<path fill-rule="evenodd" clip-rule="evenodd" d="M138.676 102V102.003C137.734 102.04 129.724 102.575 129.724 110.071C129.724 117.558 137.812 128.908 138.772 130C139.732 128.908 147.724 117.558 147.724 110.071C147.724 102.575 139.619 102.037 138.676 102Z" stroke="#201E2B" stroke-width="0.621"/>
<path fill-rule="evenodd" clip-rule="evenodd" d="M133.724 138H143.724V132H133.724V138Z" fill="#FFFFFE"/>
<path d="M139.224 130V132" stroke="#201E2B" stroke-width="0.621"/>
<path fill-rule="evenodd" clip-rule="evenodd" d="M135.724 134H137.724V132H135.724V134Z" fill="#F7CEC1"/>
<path fill-rule="evenodd" clip-rule="evenodd" d="M138.724 133.794H142.724V133.206H138.724V133.794Z" fill="#FDE9E2"/>
<path fill-rule="evenodd" clip-rule="evenodd" d="M138.724 133.793H142.724V133.207H138.724V133.793Z" fill="#FDE9E2"/>
<path fill-rule="evenodd" clip-rule="evenodd" d="M138.724 133.794H142.724V133.206H138.724V133.794Z" fill="#FDE9E2"/>
<path fill-rule="evenodd" clip-rule="evenodd" d="M138.724 135.794H142.724V135.206H138.724V135.794Z" fill="#FDE9E2"/>
<path fill-rule="evenodd" clip-rule="evenodd" d="M135.724 135.794H137.724V135.206H135.724V135.794Z" fill="#F7CEC1"/>
<path fill-rule="evenodd" clip-rule="evenodd" d="M130.724 104V230H110.724L120.724 117.733L129.701 104.2" fill="#FDE9E2"/>
<path fill-rule="evenodd" clip-rule="evenodd" d="M146.323 104L144.724 230H168.724L158.737 117.554L146.323 104" fill="#FDE9E2"/>
<path fill-rule="evenodd" clip-rule="evenodd" d="M130.877 170L126.724 104.519L132.724 102L130.877 170" fill="#F7CEC1"/>
<path fill-rule="evenodd" clip-rule="evenodd" d="M151.725 141H159.718C159.718 141 160.043 151 155.805 151C151.565 151 151.725 141 151.725 141" fill="#F7CEC1"/>
<path fill-rule="evenodd" clip-rule="evenodd" d="M146.851 170L151.724 105.388L145.724 102L146.851 170" fill="#F7CEC1"/>
<path d="M125.797 117.831L125.025 117.751L125.025 117.756L125.797 117.831ZM128.446 112.513L128.629 111.759L128.628 111.759L128.446 112.513ZM129.289 118.515L128.531 118.349L128.527 118.366L128.524 118.383L129.289 118.515ZM129.289 129.952C129.061 129.211 129.061 129.211 129.062 129.21C129.063 129.21 129.063 129.21 129.064 129.21C129.065 129.209 129.066 129.209 129.067 129.209C129.069 129.208 129.071 129.208 129.072 129.207C129.075 129.207 129.077 129.206 129.077 129.206C129.079 129.205 129.077 129.206 129.072 129.207C129.06 129.21 129.036 129.214 129.001 129.218C128.93 129.226 128.82 129.229 128.687 129.207C128.44 129.165 128.053 129.023 127.658 128.516C126.818 127.441 125.909 124.685 126.57 117.907L125.025 117.756C124.36 124.583 125.197 127.887 126.435 129.472C127.078 130.295 127.813 130.632 128.427 130.737C128.725 130.787 128.981 130.781 129.168 130.761C129.262 130.751 129.34 130.737 129.399 130.724C129.429 130.718 129.453 130.712 129.473 130.707C129.483 130.704 129.492 130.702 129.499 130.699C129.503 130.698 129.506 130.697 129.509 130.696C129.511 130.696 129.512 130.696 129.514 130.695C129.514 130.695 129.515 130.695 129.516 130.695C129.517 130.694 129.518 130.694 129.289 129.952ZM125.797 117.831C126.569 117.911 126.569 117.911 126.569 117.911C126.569 117.911 126.569 117.911 126.569 117.911C126.569 117.911 126.569 117.911 126.569 117.911C126.569 117.911 126.569 117.91 126.569 117.909C126.57 117.907 126.57 117.904 126.57 117.899C126.571 117.889 126.573 117.875 126.575 117.855C126.58 117.816 126.587 117.757 126.597 117.682C126.616 117.531 126.646 117.315 126.689 117.057C126.774 116.537 126.908 115.859 127.099 115.204C127.294 114.534 127.532 113.957 127.797 113.591C128.061 113.226 128.2 113.252 128.264 113.267L128.628 111.759C127.669 111.527 126.965 112.094 126.54 112.68C126.116 113.265 125.82 114.048 125.609 114.769C125.394 115.506 125.249 116.25 125.157 116.805C125.112 117.084 125.079 117.318 125.058 117.483C125.047 117.566 125.039 117.631 125.034 117.677C125.031 117.7 125.029 117.718 125.028 117.73C125.027 117.737 125.026 117.741 125.026 117.745C125.026 117.747 125.026 117.748 125.026 117.749C125.026 117.75 125.026 117.75 125.025 117.751C125.025 117.751 125.025 117.751 125.025 117.751C125.025 117.751 125.025 117.751 125.797 117.831ZM128.264 113.267C128.38 113.295 128.556 113.405 128.698 113.882C128.838 114.349 128.881 114.986 128.86 115.675C128.838 116.352 128.757 117.022 128.678 117.528C128.64 117.78 128.602 117.988 128.575 118.132C128.561 118.203 128.55 118.259 128.542 118.296C128.538 118.315 128.535 118.329 128.533 118.338C128.532 118.342 128.532 118.345 128.531 118.347C128.531 118.348 128.531 118.349 128.531 118.349C128.531 118.349 128.531 118.349 128.531 118.349C128.531 118.349 128.531 118.349 128.531 118.349C128.531 118.349 128.531 118.349 129.289 118.515C130.047 118.68 130.047 118.68 130.047 118.68C130.047 118.68 130.047 118.68 130.047 118.68C130.047 118.679 130.048 118.679 130.048 118.678C130.048 118.677 130.048 118.676 130.049 118.674C130.049 118.671 130.05 118.666 130.052 118.66C130.054 118.648 130.058 118.631 130.062 118.609C130.071 118.565 130.084 118.502 130.099 118.423C130.129 118.263 130.17 118.037 130.212 117.765C130.296 117.223 130.387 116.485 130.411 115.724C130.435 114.975 130.396 114.142 130.185 113.437C129.978 112.742 129.536 111.978 128.629 111.759L128.264 113.267ZM128.524 118.383C127.367 125.092 125.764 127.487 124.677 128.283C124.166 128.657 123.76 128.686 123.511 128.658C123.377 128.643 123.272 128.609 123.205 128.581C123.172 128.568 123.15 128.556 123.14 128.551C123.134 128.548 123.132 128.547 123.134 128.547C123.134 128.548 123.136 128.549 123.138 128.55C123.14 128.551 123.141 128.552 123.143 128.553C123.143 128.553 123.144 128.554 123.145 128.555C123.146 128.555 123.147 128.555 123.147 128.556C123.148 128.556 123.148 128.557 122.724 129.206C122.299 129.856 122.3 129.856 122.301 129.857C122.301 129.857 122.302 129.858 122.303 129.858C122.304 129.859 122.305 129.86 122.307 129.86C122.309 129.862 122.312 129.864 122.316 129.866C122.322 129.87 122.33 129.875 122.338 129.88C122.356 129.891 122.378 129.903 122.405 129.918C122.458 129.946 122.529 129.981 122.616 130.017C122.79 130.088 123.035 130.166 123.335 130.2C123.954 130.271 124.754 130.151 125.594 129.535C127.21 128.352 128.889 125.4 130.054 118.647L128.524 118.383ZM128.446 112.513C129.22 112.46 129.22 112.46 129.22 112.46C129.22 112.461 129.221 112.461 129.221 112.461C129.221 112.461 129.221 112.461 129.221 112.461C129.221 112.461 129.22 112.46 129.22 112.459C129.22 112.456 129.22 112.451 129.22 112.444C129.219 112.429 129.218 112.404 129.217 112.371C129.215 112.305 129.213 112.203 129.215 112.071C129.218 111.808 129.235 111.425 129.292 110.964C129.405 110.039 129.673 108.817 130.283 107.606C130.891 106.4 131.837 105.205 133.319 104.306C134.803 103.407 136.87 102.776 139.766 102.776V101.224C136.64 101.224 134.283 101.907 132.515 102.979C130.746 104.052 129.614 105.484 128.897 106.907C128.183 108.324 127.879 109.731 127.751 110.776C127.687 111.301 127.667 111.74 127.663 112.051C127.661 112.207 127.663 112.331 127.665 112.419C127.667 112.462 127.668 112.497 127.67 112.522C127.67 112.534 127.671 112.544 127.671 112.551C127.671 112.555 127.672 112.558 127.672 112.561C127.672 112.562 127.672 112.563 127.672 112.564C127.672 112.564 127.672 112.565 127.672 112.565C127.672 112.566 127.672 112.566 128.446 112.513ZM139.766 102.776C142.578 102.776 144.352 103.71 145.543 105.116C146.767 106.562 147.448 108.592 147.868 110.905C148.29 113.222 148.431 115.68 148.663 117.992C148.888 120.235 149.203 122.409 150.049 123.903L151.399 123.139C150.74 121.973 150.437 120.128 150.207 117.837C149.984 115.616 149.832 113.025 149.395 110.627C148.958 108.225 148.216 105.871 146.727 104.113C145.205 102.316 142.975 101.224 139.766 101.224V102.776Z" fill="#DF5057"/>
<path fill-rule="evenodd" clip-rule="evenodd" d="M120.724 129C120.724 129.552 121.171 130 121.723 130C122.276 130 122.724 129.552 122.724 129C122.724 128.448 122.276 128 121.723 128C121.171 128 120.724 128.448 120.724 129" fill="#1D2621"/>
<path fill-rule="evenodd" clip-rule="evenodd" d="M149.724 122C149.724 123.105 150.619 124 151.724 124C152.829 124 153.724 123.105 153.724 122C153.724 120.896 152.829 120 151.724 120C150.619 120 149.724 120.896 149.724 122" fill="#1D2621"/>
<path fill-rule="evenodd" clip-rule="evenodd" d="M150.724 124C150.724 124.552 151.171 125 151.724 125C152.276 125 152.724 124.552 152.724 124C152.724 123.447 152.276 123 151.724 123C151.171 123 150.724 123.447 150.724 124" fill="#DDDAD2"/>
<path fill-rule="evenodd" clip-rule="evenodd" d="M128.724 129C128.724 129.553 129.172 130 129.723 130C130.276 130 130.724 129.553 130.724 129C130.724 128.448 130.276 128 129.723 128C129.172 128 128.724 128.448 128.724 129" fill="#1D2621"/>
<path fill-rule="evenodd" clip-rule="evenodd" d="M139.725 112V112C143.037 112 145.724 109.362 145.724 106.107V96H133.724V106.107C133.724 109.362 136.41 112 139.725 112" fill="#EC9A9A"/>
<path fill-rule="evenodd" clip-rule="evenodd" d="M129.724 88.7543C129.724 95.9458 133.243 100 138.766 100C144.289 100 149.724 95.9458 149.724 88.7543C149.724 81.5633 149.724 74 139.724 74C129.724 74 129.724 81.5633 129.724 88.7543" fill="#F0B2AF"/>
<path fill-rule="evenodd" clip-rule="evenodd" d="M151.724 88.37C151.724 91.6976 147.724 92 147.724 92V86.1919C147.724 86.1919 151.724 85.0424 151.724 88.37" fill="#F0B2AF"/>
<path fill-rule="evenodd" clip-rule="evenodd" d="M151.724 87.5797C151.724 89.7981 149.724 90 149.724 90V86.1281C149.724 86.1281 151.724 85.3613 151.724 87.5797" fill="#EC9A9A"/>
<path fill-rule="evenodd" clip-rule="evenodd" d="M142.724 87.0003C142.724 87.5523 142.276 88 141.724 88C141.172 88 140.724 87.5523 140.724 87.0003C140.724 86.4477 141.172 86 141.724 86C142.276 86 142.724 86.4477 142.724 87.0003" fill="#FFFFFE"/>
<path fill-rule="evenodd" clip-rule="evenodd" d="M135.724 87.0003C135.724 87.5523 135.276 88 134.724 88C134.172 88 133.724 87.5523 133.724 87.0003C133.724 86.4477 134.172 86 134.724 86C135.276 86 135.724 86.4477 135.724 87.0003" fill="#FFFFFE"/>
<path fill-rule="evenodd" clip-rule="evenodd" d="M142.724 87.0004C142.724 87.5523 142.277 88 141.723 88C141.172 88 140.724 87.5523 140.724 87.0004C140.724 86.4477 141.172 86 141.723 86C142.277 86 142.724 86.4477 142.724 87.0004" fill="#201E2B"/>
<path fill-rule="evenodd" clip-rule="evenodd" d="M135.724 87.0004C135.724 87.5523 135.275 88 134.723 88C134.171 88 133.724 87.5523 133.724 87.0004C133.724 86.4477 134.171 86 134.723 86C135.275 86 135.724 86.4477 135.724 87.0004" fill="#201E2B"/>
<path fill-rule="evenodd" clip-rule="evenodd" d="M138.724 86V92C134.224 92 138.724 86 138.724 86" fill="#E78287"/>
<path fill-rule="evenodd" clip-rule="evenodd" d="M146.724 90.9997C146.724 92.6567 145.381 94 143.724 94C142.068 94 140.724 92.6567 140.724 90.9997C140.724 89.3427 142.068 88 143.724 88C145.381 88 146.724 89.3427 146.724 90.9997" fill="#EC9A9A"/>
<path fill-rule="evenodd" clip-rule="evenodd" d="M131.412 88C132.689 88 133.724 89.3427 133.724 90.9997C133.724 92.6567 132.689 94 131.412 94C130.969 94 130.559 93.8295 130.207 93.5485C129.915 92.1985 129.754 90.6627 129.724 88.9637C130.146 88.3743 130.743 88 131.412 88" fill="#EC9A9A"/>
<path fill-rule="evenodd" clip-rule="evenodd" d="M150.147 86.7588C150.147 86.7588 149.602 88.4854 148.192 87.8658C146.781 87.2461 146.972 79.7722 139.156 79.2951C136.179 86.0164 130.093 86.9592 128.313 85.197C126.532 83.4347 128.445 72 138.855 72C149.265 72 152.103 80.2882 150.147 86.7588" fill="#102B44"/>
<path fill-rule="evenodd" clip-rule="evenodd" d="M121.724 182.492L129.225 175L131.724 177.497L124.212 185L121.724 182.492" fill="#F7CEC1"/>
<path fill-rule="evenodd" clip-rule="evenodd" d="M159.724 182.492L152.223 175L149.724 177.497L157.235 185L159.724 182.492" fill="#F7CEC1"/>
<path fill-rule="evenodd" clip-rule="evenodd" d="M146.724 173H131.724V175H146.692L146.724 173" fill="#0B1F33"/>
<path fill-rule="evenodd" clip-rule="evenodd" d="M146.174 104.344L145.666 104C145.666 109.188 139.725 110.912 139.725 110.912C139.725 110.912 133.782 109.188 133.782 104L133.273 104.344C130.268 106.379 129.801 110.468 132.509 112.826C134.089 114.202 136.404 114.699 139.725 112.466C143.043 114.699 145.359 114.202 146.939 112.826C149.647 110.468 149.18 106.379 146.174 104.344" fill="#33A3D4"/>
<path d="M129.028 173.787L121.498 181.787L121.95 182.213L129.48 174.213L129.028 173.787ZM151.967 174.213L159.498 182.213L159.95 181.787L152.42 173.787L151.967 174.213Z" fill="#102B44"/>
<path fill-rule="evenodd" clip-rule="evenodd" d="M139.787 94.4957H137.661C137.661 94.4957 135.929 94.6011 135.929 93.4028C135.929 92.6249 136.758 92.4553 138.724 92.4509C140.69 92.4553 141.518 92.6249 141.518 93.4028C141.518 94.6011 139.787 94.4957 139.787 94.4957ZM144.724 95.2832C144.724 93.4701 143.4 92 141.767 92H135.681C134.048 92 132.724 93.4701 132.724 95.2832C132.724 98.9397 135.354 101.965 138.645 101.999V102C138.671 102 138.697 102 138.724 102C138.75 102 138.776 102 138.803 102V101.999C142.094 101.965 144.724 98.9397 144.724 95.2832V95.2832Z" fill="#102B44"/>
</g>
</g>
<defs>
<clipPath id="clip0">
<rect width="375" height="331" fill="white"/>
</clipPath>
</defs>
</svg>
