<svg width="154" height="168" viewBox="0 0 154 168" fill="none" xmlns="http://www.w3.org/2000/svg">
<path fill-rule="evenodd" clip-rule="evenodd" d="M76.8426 168C119.005 168 153.185 163.155 153.185 157.178C153.185 151.202 119.005 146.356 76.8426 146.356C34.6797 146.356 0.5 151.202 0.5 157.178C0.5 163.155 34.6797 168 76.8426 168Z" fill="#0E57CB" fill-opacity="0.3"/>
<path fill-rule="evenodd" clip-rule="evenodd" d="M95.7467 158.531H109.178L109.267 154.473H99.4063C95.4215 156.186 95.7467 158.531 95.7467 158.531" fill="#3D4252"/>
<path fill-rule="evenodd" clip-rule="evenodd" d="M125.932 112.224C124.47 102.053 123.983 70.6041 123.983 70.6041H98.4457V85.0388L99.0126 154.473H109.169L110.923 83.7634C110.923 103.009 118.87 133.05 126.906 153.15L136.322 149.817C133.52 140.977 127.069 120.143 125.932 112.224" fill="#E8849D"/>
<path fill-rule="evenodd" clip-rule="evenodd" d="M126.074 152.423C123.279 155.354 124.348 157.178 124.348 157.178L136.322 153.156C136.322 153.156 135.841 151.597 135.08 149.062L126.074 152.423" fill="#3D4252"/>
<path fill-rule="evenodd" clip-rule="evenodd" d="M106.262 28.6698C106.262 28.6698 105.881 40.2927 106.262 43.5497C107.886 57.4169 102.586 58.4296 98.2088 58.4296C93.8313 58.4296 80.8604 57.3191 80.8604 57.3191V53.0347L94.8041 51.6069C94.8041 51.6069 94.3442 32.4601 106.262 28.6698" fill="#F0B2AF"/>
<path fill-rule="evenodd" clip-rule="evenodd" d="M97.093 84.1313V85.4841H125.5L125.476 84.1313H97.093" fill="#FDE9E2"/>
<path fill-rule="evenodd" clip-rule="evenodd" d="M125.5 84.1314L123.854 40.2358C123.854 33.1739 118.262 27.3829 111.295 27.3184C111.205 27.3176 111.115 27.3171 111.023 27.3171C101.922 27.3171 98.8685 34.5303 98.8685 42.2247C98.8685 49.9187 97.093 84.0189 97.093 84.0189L125.5 84.1314" fill="#EB94A6"/>
<path fill-rule="evenodd" clip-rule="evenodd" d="M113.326 27.3173L114.047 31.6551C115.405 39.8113 117.768 47.7486 120.845 55.4128C126.376 69.1878 126.198 84.1314 126.198 84.1314H130.911C130.911 26.7431 113.326 27.3173 113.326 27.3173" fill="#F0B2AF"/>
<path fill-rule="evenodd" clip-rule="evenodd" d="M93.0349 48.6765L108.336 51.666L110.62 28.6958C110.62 28.6958 94.461 27.1121 93.0349 48.6765" fill="#EB94A6"/>
<path fill-rule="evenodd" clip-rule="evenodd" d="M128.206 48.6765L112.904 51.666L110.62 28.6958C110.62 28.6958 126.78 27.1121 128.206 48.6765" fill="#EB94A6"/>
<path fill-rule="evenodd" clip-rule="evenodd" d="M109.268 47.6079H116.026C116.026 47.6079 116.301 54.3715 112.717 54.3715C109.134 54.3715 109.268 47.6079 109.268 47.6079" fill="#E8849D"/>
<path fill-rule="evenodd" clip-rule="evenodd" d="M108.559 27.3171V27.3188C107.921 27.3438 102.504 27.7059 102.504 32.776C102.504 37.8399 107.975 45.5163 108.623 46.2552C109.273 45.5163 114.678 37.8399 114.678 32.776C114.678 27.7059 109.196 27.3421 108.559 27.3171Z" stroke="#201E2B" stroke-width="0.621"/>
<path fill-rule="evenodd" clip-rule="evenodd" d="M105.209 50.3134H111.973V46.2552H105.209V50.3134Z" fill="#FFFFFE"/>
<path d="M109.267 44.9025V46.2552" stroke="#201E2B" stroke-width="0.621"/>
<path fill-rule="evenodd" clip-rule="evenodd" d="M106.562 48.9606H107.915V47.6079H106.562V48.9606Z" fill="#F7CEC1"/>
<path fill-rule="evenodd" clip-rule="evenodd" d="M109.268 47.7295H111.973V47.4863H109.268V47.7295Z" fill="#FDE9E2"/>
<path fill-rule="evenodd" clip-rule="evenodd" d="M109.268 47.7293H111.973V47.4865H109.268V47.7293Z" fill="#FDE9E2"/>
<path fill-rule="evenodd" clip-rule="evenodd" d="M109.268 49.082H111.973V48.8393H109.268V49.082Z" fill="#FDE9E2"/>
<path fill-rule="evenodd" clip-rule="evenodd" d="M109.268 49.082H111.973V48.8393H109.268V49.082Z" fill="#FDE9E2"/>
<path fill-rule="evenodd" clip-rule="evenodd" d="M106.562 49.082H107.915V48.8393H106.562V49.082Z" fill="#F7CEC1"/>
<path fill-rule="evenodd" clip-rule="evenodd" d="M83.3071 63.8405H97.8614C99.0977 63.8405 100.018 62.7129 99.7528 61.5221L95.1852 40.9917C94.9902 40.1159 94.2034 39.4916 93.2937 39.4916H78.7399C77.5031 39.4916 76.5829 40.6192 76.848 41.81L81.4161 62.3404C81.6106 63.2166 82.3975 63.8405 83.3071 63.8405" fill="#102B44"/>
<path fill-rule="evenodd" clip-rule="evenodd" d="M107.915 35.4335V35.4335C110.156 35.4335 111.973 33.6491 111.973 31.4483V24.6117H103.857V31.4483C103.857 33.6491 105.674 35.4335 107.915 35.4335" fill="#EC9A9A"/>
<path fill-rule="evenodd" clip-rule="evenodd" d="M101.151 19.7108C101.151 24.575 103.532 27.3172 107.267 27.3172C111.003 27.3172 114.678 24.575 114.678 19.7108C114.678 14.847 114.678 9.73181 107.914 9.73181C101.151 9.73181 101.151 14.847 101.151 19.7108" fill="#F0B2AF"/>
<path fill-rule="evenodd" clip-rule="evenodd" d="M117.384 18.0983C117.384 20.349 114.678 20.5535 114.678 20.5535V16.6252C114.678 16.6252 117.384 15.8477 117.384 18.0983" fill="#F0B2AF"/>
<path fill-rule="evenodd" clip-rule="evenodd" d="M116.031 18.917C116.031 20.417 114.678 20.5536 114.678 20.5536V17.9346C114.678 17.9346 116.031 17.4164 116.031 18.917" fill="#EC9A9A"/>
<path fill-rule="evenodd" clip-rule="evenodd" d="M105.209 17.1717C105.209 17.5449 104.907 17.8481 104.533 17.8481C104.16 17.8481 103.857 17.5449 103.857 17.1717C103.857 16.7981 104.16 16.4954 104.533 16.4954C104.907 16.4954 105.209 16.7981 105.209 17.1717" fill="#FFFFFE"/>
<path fill-rule="evenodd" clip-rule="evenodd" d="M110.62 17.1715C110.62 17.5453 110.317 17.8481 109.944 17.8481C109.57 17.8481 109.268 17.5453 109.268 17.1715C109.268 16.7982 109.57 16.4954 109.944 16.4954C110.317 16.4954 110.62 16.7982 110.62 17.1715" fill="#201E2B"/>
<path fill-rule="evenodd" clip-rule="evenodd" d="M105.209 17.1715C105.209 17.5453 104.907 17.8481 104.533 17.8481C104.16 17.8481 103.857 17.5453 103.857 17.1715C103.857 16.7982 104.16 16.4954 104.533 16.4954C104.907 16.4954 105.209 16.7982 105.209 17.1715" fill="#201E2B"/>
<path fill-rule="evenodd" clip-rule="evenodd" d="M108.205 24C106.853 25.509 105.5 24 105.5 24H108.205" fill="#FFFFFE"/>
<path fill-rule="evenodd" clip-rule="evenodd" d="M107.915 17.8481V21.9063C104.871 21.9063 107.915 17.8481 107.915 17.8481" fill="#E78287"/>
<path fill-rule="evenodd" clip-rule="evenodd" d="M113.326 21.2301C113.326 22.3504 112.417 23.259 111.296 23.259C110.176 23.259 109.268 22.3504 109.268 21.2301C109.268 20.1089 110.176 19.2008 111.296 19.2008C112.417 19.2008 113.326 20.1089 113.326 21.2301" fill="#EC9A9A"/>
<path fill-rule="evenodd" clip-rule="evenodd" d="M103.646 19.2008C104.509 19.2008 105.209 20.1089 105.209 21.2297C105.209 22.3504 104.509 23.259 103.646 23.259C103.346 23.259 103.069 23.1436 102.83 22.9536C102.633 22.0409 102.524 21.0017 102.504 19.8526C102.789 19.454 103.193 19.2008 103.646 19.2008" fill="#EC9A9A"/>
<path fill-rule="evenodd" clip-rule="evenodd" d="M126.68 84.592C126.68 84.592 124.738 91.4982 125.837 92.0976C126.936 92.697 127.196 90.3642 127.196 90.3642C127.196 90.3642 127.643 95.1706 128.506 94.9454C129.369 94.7203 129.22 93.4792 129.22 93.4792C129.22 93.4792 129.395 93.9947 129.841 93.878C130.287 93.7613 130.294 92.8668 130.406 92.8383C130.8 93.6278 131.581 93.012 131.295 92.0111C132.029 92.735 132.373 91.8439 132.233 90.3469C132.092 88.8504 131.756 84.1313 131.756 84.1313" fill="#F0B2AF"/>
<path fill-rule="evenodd" clip-rule="evenodd" d="M84.7757 50.4813C84.4524 49.7372 80.7972 52.3452 80.7972 52.3452C80.7972 52.3452 82.3046 50.7438 81.2658 50.3348C80.5486 50.0529 78.5139 52.6147 77.3207 54.2305C76.7572 54.9932 76.6444 56.0138 77.0248 56.8909C77.6717 58.3816 79.4618 58.8951 80.7515 57.959C81.8753 57.1431 83.0694 56.2784 83.6007 55.8999C84.7395 55.0885 85.1783 54.3052 84.2551 54.2284C85.1247 53.8215 85.1239 52.8966 84.344 53.1C84.3023 53.0039 84.9317 52.4545 84.7649 52.0699C84.5986 51.6856 84.1356 51.8755 84.1356 51.8755C84.1356 51.8755 85.0981 51.2259 84.7757 50.4813" fill="#F0B2AF"/>
<path fill-rule="evenodd" clip-rule="evenodd" d="M110.76 9.05842C109.956 8.26357 109.392 7.19493 109.286 6.0105C109.204 5.07876 109.367 3.97916 110.353 3.30638C112.325 1.96038 118.335 4.79152 117.255 8.96552C116.365 12.4039 112.803 11.079 110.76 9.05842" fill="#2C609D"/>
<path fill-rule="evenodd" clip-rule="evenodd" d="M117.375 13.6941C117.071 6.91977 109.023 3.3708 103.415 7.32553C102.322 8.0964 101.441 9.02663 101.088 10.1272C99.3718 15.4863 98.0204 14.9394 98.57 16.7832C99.1193 18.6275 102.095 18.0875 102.737 15.0744C103.378 12.0613 109.74 14.3235 112.808 11.3099C112.808 14.7284 114.635 18.4656 116.702 16.4356C117.218 15.9282 117.431 14.9203 117.375 13.6941" fill="#2C609D"/>
<path d="M109.268 5.69058C109.268 5.69058 113.596 5.18176 116.031 9.73174" stroke="#102B44" stroke-width="0.621"/>
<path fill-rule="evenodd" clip-rule="evenodd" d="M104.118 30.0226C104.118 30.0226 105.027 33.711 107.863 33.711C110.698 33.711 111.7 30.0226 111.7 30.0226C111.7 30.0226 113.497 34.0995 107.863 39.4916C102.38 34.1524 104.118 30.0226 104.118 30.0226" fill="#FDE9E2"/>
<path fill-rule="evenodd" clip-rule="evenodd" d="M98.4457 74.3186L103.519 69.2515L105.209 70.9399L100.128 76.0151L98.4457 74.3186" fill="#E8849D"/>
<path fill-rule="evenodd" clip-rule="evenodd" d="M122.795 74.3186L117.721 69.2515L116.031 70.9399L121.112 76.0151L122.795 74.3186" fill="#E8849D"/>
<path fill-rule="evenodd" clip-rule="evenodd" d="M30.8098 107.128H63.275V76.015H34.5001L30.8098 107.128" fill="#F7CEC1"/>
<path fill-rule="evenodd" clip-rule="evenodd" d="M48.3951 66.546H34.8679L35.4165 153.12H45.658L48.3951 66.546" fill="#102B44"/>
<path fill-rule="evenodd" clip-rule="evenodd" d="M35.0993 153.12C30.4368 154.833 30.8172 157.178 30.8172 157.178H45.5505L45.6897 153.12H35.0993" fill="#0C2339"/>
<path fill-rule="evenodd" clip-rule="evenodd" d="M60.2079 67.3013L48.3951 66.546L51.3947 153.12H61.9223L60.2079 67.3013" fill="#102B44"/>
<path fill-rule="evenodd" clip-rule="evenodd" d="M61.7007 153.12H51.1005L51.2907 157.178H65.973C65.973 157.178 66.3529 154.833 61.7007 153.12" fill="#0C2339"/>
<path fill-rule="evenodd" clip-rule="evenodd" d="M59.8353 44.1585C59.8353 44.1585 64.853 20.5536 48.6553 20.5536C40.532 20.5536 35.7339 24.5395 36.0834 34.6874C36.4753 46.0846 34.8679 70.6042 34.8679 70.6042H60.2911L59.8353 44.1585Z" fill="#42B8EB"/>
<path fill-rule="evenodd" clip-rule="evenodd" d="M42.9842 21.9062C42.9842 21.9062 26.7516 24.0552 26.7516 56.4406C26.7516 68.7409 36.4775 76.015 36.4775 76.015L40.3064 72.1471C40.3064 72.1471 24.7819 56.2392 42.9842 37.8514V21.9062" fill="#FDE9E2"/>
<path fill-rule="evenodd" clip-rule="evenodd" d="M53.806 21.9062C53.806 21.9062 70.0386 24.0552 70.0386 56.4406C70.0386 68.7409 60.3127 76.015 60.3127 76.015L56.4838 72.1471C56.4838 72.1471 72.0083 56.2392 53.806 37.8514V21.9062" fill="#FDE9E2"/>
<path fill-rule="evenodd" clip-rule="evenodd" d="M47.6867 20.5536V20.5557C47.0491 20.5807 41.6315 20.9427 41.6315 26.0128C41.6315 31.0765 47.1022 38.7528 47.7513 39.4917C48.4005 38.7528 53.806 31.0765 53.806 26.0128C53.806 20.9427 48.3242 20.5786 47.6867 20.5536Z" stroke="#201E2B" stroke-width="0.621"/>
<path fill-rule="evenodd" clip-rule="evenodd" d="M44.3369 44.9025H51.1005V40.8444H44.3369V44.9025Z" fill="#FFFFFE"/>
<path d="M48.3951 39.4916V40.8443" stroke="#201E2B" stroke-width="0.621"/>
<path fill-rule="evenodd" clip-rule="evenodd" d="M45.6896 42.1971H47.0424V40.8444H45.6896V42.1971Z" fill="#F7CEC1"/>
<path fill-rule="evenodd" clip-rule="evenodd" d="M48.3951 42.3186H51.1005V42.0754H48.3951V42.3186Z" fill="#FDE9E2"/>
<path fill-rule="evenodd" clip-rule="evenodd" d="M48.3951 42.3182H51.1005V42.0758H48.3951V42.3182Z" fill="#FDE9E2"/>
<path fill-rule="evenodd" clip-rule="evenodd" d="M48.3951 42.3184H51.1005V42.0756H48.3951V42.3184Z" fill="#FDE9E2"/>
<path fill-rule="evenodd" clip-rule="evenodd" d="M48.3951 43.6712H51.1005V43.4284H48.3951V43.6712Z" fill="#FDE9E2"/>
<path fill-rule="evenodd" clip-rule="evenodd" d="M45.6896 43.6712H47.0424V43.4284H45.6896V43.6712Z" fill="#F7CEC1"/>
<path fill-rule="evenodd" clip-rule="evenodd" d="M42.9842 21.9062V107.128H29.457L36.2208 31.1944L42.2926 22.0412" fill="#FDE9E2"/>
<path fill-rule="evenodd" clip-rule="evenodd" d="M53.5351 21.9062L52.4532 107.128H68.6859L61.9311 31.0739L53.5351 21.9062" fill="#FDE9E2"/>
<path fill-rule="evenodd" clip-rule="evenodd" d="M43.0875 66.5461L40.2788 22.2573L44.337 20.5536L43.0875 66.5461" fill="#F7CEC1"/>
<path fill-rule="evenodd" clip-rule="evenodd" d="M56.5119 46.2552H61.9184C61.9184 46.2552 62.1383 53.0188 59.2716 53.0188C56.4042 53.0188 56.5119 46.2552 56.5119 46.2552" fill="#F7CEC1"/>
<path fill-rule="evenodd" clip-rule="evenodd" d="M53.2153 66.5461L56.5114 22.8448L52.4532 20.5536L53.2153 66.5461" fill="#F7CEC1"/>
<path d="M39.6521 31.2612L38.8802 31.1814L38.8797 31.186L39.6521 31.2612ZM41.4438 27.6641L41.6261 26.9098L41.6259 26.9098L41.4438 27.6641ZM42.0138 31.7234L41.2557 31.5576L41.252 31.5745L41.2491 31.5916L42.0138 31.7234ZM42.0138 39.4595C41.7853 38.7179 41.7862 38.7176 41.7871 38.7173C41.7874 38.7172 41.7882 38.717 41.7888 38.7168C41.7899 38.7165 41.791 38.7161 41.7921 38.7158C41.7941 38.7152 41.7961 38.7146 41.7978 38.7141C41.8014 38.7131 41.8043 38.7123 41.8066 38.7117C41.8112 38.7105 41.8135 38.71 41.8136 38.71C41.8138 38.7099 41.8061 38.7116 41.7918 38.7132C41.7628 38.7163 41.7123 38.7183 41.6491 38.7076C41.5406 38.6891 41.3359 38.6248 41.1083 38.3335C40.6049 37.689 39.9786 35.9134 40.4244 31.3365L38.8797 31.186C38.4292 35.8113 38.9837 38.1348 39.8853 39.2889C40.3602 39.8969 40.914 40.1567 41.3884 40.2375C41.6167 40.2764 41.8137 40.2719 41.9593 40.2561C42.0324 40.2482 42.0938 40.2372 42.1413 40.227C42.1651 40.2219 42.1855 40.2168 42.2024 40.2124C42.2109 40.2102 42.2184 40.2081 42.2251 40.2062C42.2284 40.2052 42.2315 40.2043 42.2344 40.2034C42.2358 40.203 42.2372 40.2026 42.2385 40.2022C42.2392 40.202 42.2402 40.2017 42.2405 40.2016C42.2414 40.2013 42.2423 40.201 42.0138 39.4595ZM39.6521 31.2612C40.424 31.3411 40.4239 31.3412 40.4239 31.3413C40.4239 31.3413 40.4239 31.3414 40.4239 31.3414C40.4239 31.3415 40.4239 31.3415 40.4239 31.3414C40.4239 31.3413 40.424 31.341 40.424 31.3404C40.4242 31.3393 40.4244 31.3372 40.4247 31.3342C40.4253 31.3283 40.4264 31.3189 40.4279 31.3062C40.4308 31.2807 40.4354 31.2422 40.4418 31.1925C40.4547 31.093 40.4748 30.9497 40.503 30.7781C40.5599 30.432 40.648 29.9844 40.7734 29.5548C40.9034 29.1097 41.0543 28.7525 41.208 28.5403C41.2432 28.4917 41.2731 28.4585 41.2959 28.437C41.3187 28.4156 41.3306 28.4093 41.3301 28.4096C41.3283 28.4105 41.3163 28.4162 41.2969 28.4187C41.2878 28.4199 41.2794 28.4201 41.2724 28.4197C41.2691 28.4195 41.2664 28.4192 41.2645 28.419C41.2626 28.4187 41.2616 28.4184 41.2616 28.4184L41.6259 26.9098C40.8318 26.7181 40.2643 27.1974 39.951 27.6299C39.639 28.0608 39.4285 28.6237 39.2836 29.1198C39.1343 29.6313 39.0342 30.1456 38.9716 30.5262C38.94 30.718 38.9175 30.8791 38.9027 30.9934C38.8953 31.0505 38.8898 31.0961 38.8861 31.1281C38.8843 31.1441 38.8829 31.1567 38.8819 31.1657C38.8814 31.1701 38.881 31.1737 38.8807 31.1763C38.8806 31.1777 38.8805 31.1787 38.8804 31.1796C38.8803 31.18 38.8803 31.1804 38.8803 31.1807C38.8803 31.1808 38.8802 31.181 38.8802 31.1811C38.8802 31.1812 38.8802 31.1814 39.6521 31.2612ZM41.2614 28.4184C41.262 28.4185 41.2584 28.4174 41.2547 28.415C41.2518 28.4132 41.2563 28.4152 41.2667 28.4279C41.2909 28.4572 41.3331 28.5266 41.3734 28.6617C41.4563 28.9392 41.4867 29.3383 41.4724 29.795C41.4585 30.239 41.4045 30.6815 41.3525 31.0178C41.3268 31.1846 41.302 31.3223 41.2839 31.4172C41.2748 31.4646 41.2675 31.5012 41.2625 31.5252C41.2601 31.5372 41.2582 31.546 41.257 31.5515C41.2565 31.5543 41.2561 31.5562 41.2558 31.5572C41.2557 31.5577 41.2557 31.558 41.2556 31.5581C41.2556 31.5581 41.2556 31.5581 41.2557 31.558C41.2557 31.558 41.2557 31.5579 41.2557 31.5579C41.2557 31.5578 41.2557 31.5576 42.0138 31.7234C42.7719 31.8892 42.7719 31.8891 42.772 31.8889C42.772 31.8888 42.772 31.8887 42.7721 31.8885C42.7721 31.8882 42.7722 31.8878 42.7723 31.8874C42.7725 31.8866 42.7727 31.8856 42.773 31.8843C42.7735 31.8817 42.7743 31.8783 42.7752 31.874C42.777 31.8653 42.7796 31.8532 42.7827 31.8379C42.789 31.8072 42.7978 31.7634 42.8083 31.7083C42.8294 31.5982 42.8574 31.4423 42.8864 31.2547C42.9439 30.8822 43.007 30.3726 43.0236 29.8437C43.0399 29.3274 43.0143 28.7325 42.8605 28.2176C42.7095 27.7121 42.3678 27.0892 41.6261 26.9098L41.2614 28.4184ZM41.2491 31.5916C40.4677 36.1225 39.3955 37.6521 38.746 38.128C38.4539 38.342 38.2432 38.3468 38.1343 38.3344C38.0707 38.3272 38.0222 38.3111 37.9945 38.2997C37.9809 38.2941 37.9736 38.2902 37.9735 38.2901C37.9735 38.2901 37.9754 38.2912 37.9793 38.2935C37.9813 38.2947 37.9838 38.2962 37.9869 38.2982C37.9884 38.2991 37.9901 38.3002 37.9919 38.3013C37.9928 38.3019 37.9938 38.3025 37.9947 38.3031C37.9952 38.3035 37.996 38.3039 37.9962 38.3041C37.997 38.3046 37.9978 38.3051 37.5734 38.9548C37.149 39.6044 37.1498 39.605 37.1506 39.6055C37.1509 39.6057 37.1517 39.6062 37.1523 39.6066C37.1534 39.6073 37.1546 39.6081 37.1559 39.6089C37.1584 39.6105 37.1611 39.6122 37.164 39.614C37.1698 39.6177 37.1765 39.6218 37.184 39.6262C37.1989 39.6351 37.2171 39.6456 37.2385 39.6571C37.2812 39.68 37.337 39.7075 37.405 39.7354C37.5404 39.791 37.7284 39.8502 37.9584 39.8764C38.4367 39.931 39.0416 39.8354 39.6633 39.3799C40.8415 38.5166 41.9895 36.4305 42.7785 31.8553L41.2491 31.5916ZM41.4438 27.6641C42.2179 27.6109 42.218 27.6113 42.218 27.6117C42.218 27.6118 42.218 27.6121 42.218 27.6123C42.2181 27.6127 42.2181 27.6129 42.2181 27.6131C42.2181 27.6134 42.2181 27.6133 42.2181 27.6128C42.218 27.6117 42.2178 27.609 42.2176 27.6048C42.2172 27.5962 42.2165 27.5814 42.2159 27.5606C42.2146 27.519 42.2135 27.4539 42.2146 27.3688C42.2168 27.1981 42.2281 26.9487 42.265 26.6472C42.3391 26.0404 42.5142 25.2445 42.9105 24.4581C43.3037 23.6779 43.9137 22.9079 44.8699 22.3282C45.827 21.7479 47.1787 21.3296 49.0998 21.3296V19.7776C46.9487 19.7776 45.3072 20.2481 44.0653 21.001C42.8223 21.7546 42.0273 22.7621 41.5246 23.7596C41.025 24.7509 40.8132 25.7325 40.7244 26.459C40.6798 26.8241 40.6656 27.1302 40.6627 27.3484C40.6613 27.4577 40.6627 27.5454 40.6646 27.6079C40.6656 27.6392 40.6667 27.6643 40.6676 27.6826C40.668 27.6918 40.6685 27.6993 40.6688 27.7051C40.669 27.708 40.6691 27.7105 40.6693 27.7125C40.6693 27.7135 40.6694 27.7145 40.6694 27.7152C40.6695 27.7156 40.6695 27.7162 40.6695 27.7164C40.6696 27.7168 40.6696 27.7173 41.4438 27.6641ZM49.0998 21.3296C50.9373 21.3296 52.0634 21.9354 52.8155 22.8236C53.601 23.7512 54.051 25.0717 54.333 26.6215C54.6158 28.1755 54.7092 29.8162 54.8678 31.3951C55.0193 32.9042 55.2342 34.4282 55.8361 35.4916L57.1868 34.7272C56.7708 33.9921 56.5684 32.7974 56.412 31.24C56.2626 29.7525 56.1575 27.979 55.8599 26.3437C55.5616 24.7042 55.0495 23.0602 53.9999 21.8206C52.9168 20.5416 51.3347 19.7776 49.0998 19.7776V21.3296Z" fill="#DF5057"/>
<path fill-rule="evenodd" clip-rule="evenodd" d="M36.2206 38.815C36.2206 39.1887 36.5231 39.4916 36.8967 39.4916C37.2704 39.4916 37.5734 39.1887 37.5734 38.815C37.5734 38.4419 37.2704 38.1389 36.8967 38.1389C36.5231 38.1389 36.2206 38.4419 36.2206 38.815" fill="#1D2621"/>
<path fill-rule="evenodd" clip-rule="evenodd" d="M55.1587 34.081C55.1587 34.8281 55.7644 35.4335 56.5114 35.4335C57.2588 35.4335 57.8641 34.8281 57.8641 34.081C57.8641 33.3338 57.2588 32.728 56.5114 32.728C55.7644 32.728 55.1587 33.3338 55.1587 34.081" fill="#1D2621"/>
<path fill-rule="evenodd" clip-rule="evenodd" d="M56.5114 34.757C56.5114 35.1305 56.8139 35.4334 57.1876 35.4334C57.5609 35.4334 57.8641 35.1305 57.8641 34.757C57.8641 34.3832 57.5609 34.0807 57.1876 34.0807C56.8139 34.0807 56.5114 34.3832 56.5114 34.757" fill="#DDDAD2"/>
<path fill-rule="evenodd" clip-rule="evenodd" d="M41.6315 38.8155C41.6315 39.1892 41.9345 39.4916 42.3076 39.4916C42.6813 39.4916 42.9843 39.1892 42.9843 38.8155C42.9843 38.4419 42.6813 38.1389 42.3076 38.1389C41.9345 38.1389 41.6315 38.4419 41.6315 38.8155" fill="#1D2621"/>
<path fill-rule="evenodd" clip-rule="evenodd" d="M48.3955 27.3171V27.3171C50.6362 27.3171 52.4532 25.5328 52.4532 23.3316V16.4954H44.3369V23.3316C44.3369 25.5328 46.154 27.3171 48.3955 27.3171" fill="#EC9A9A"/>
<path fill-rule="evenodd" clip-rule="evenodd" d="M41.6315 11.5947C41.6315 16.4588 44.0117 19.2008 47.7474 19.2008C51.4826 19.2008 55.1587 16.4588 55.1587 11.5947C55.1587 6.73099 55.1587 1.61548 48.3949 1.61548C41.6315 1.61548 41.6315 6.73099 41.6315 11.5947" fill="#F0B2AF"/>
<path fill-rule="evenodd" clip-rule="evenodd" d="M56.5114 11.3348C56.5114 13.5854 53.806 13.79 53.806 13.79V9.86161C53.806 9.86161 56.5114 9.08414 56.5114 11.3348" fill="#F0B2AF"/>
<path fill-rule="evenodd" clip-rule="evenodd" d="M56.5114 10.8003C56.5114 12.3007 55.1587 12.4373 55.1587 12.4373V9.81846C55.1587 9.81846 56.5114 9.29983 56.5114 10.8003" fill="#EC9A9A"/>
<path fill-rule="evenodd" clip-rule="evenodd" d="M51.1005 10.4084C51.1005 10.7817 50.7978 11.0845 50.424 11.0845C50.0508 11.0845 49.7478 10.7817 49.7478 10.4084C49.7478 10.0346 50.0508 9.73181 50.424 9.73181C50.7978 9.73181 51.1005 10.0346 51.1005 10.4084" fill="#FFFFFE"/>
<path fill-rule="evenodd" clip-rule="evenodd" d="M45.6896 10.4084C45.6896 10.7817 45.3867 11.0845 45.0133 11.0845C44.6398 11.0845 44.3369 10.7817 44.3369 10.4084C44.3369 10.0346 44.6398 9.73181 45.0133 9.73181C45.3867 9.73181 45.6896 10.0346 45.6896 10.4084" fill="#FFFFFE"/>
<path fill-rule="evenodd" clip-rule="evenodd" d="M51.1005 10.4084C51.1005 10.7817 50.7983 11.0845 50.4239 11.0845C50.0506 11.0845 49.7478 10.7817 49.7478 10.4084C49.7478 10.0346 50.0506 9.73181 50.4239 9.73181C50.7983 9.73181 51.1005 10.0346 51.1005 10.4084" fill="#201E2B"/>
<path fill-rule="evenodd" clip-rule="evenodd" d="M45.6896 10.4084C45.6896 10.7817 45.3863 11.0845 45.013 11.0845C44.6392 11.0845 44.3369 10.7817 44.3369 10.4084C44.3369 10.0346 44.6392 9.73181 45.013 9.73181C45.3863 9.73181 45.6896 10.0346 45.6896 10.4084" fill="#201E2B"/>
<path fill-rule="evenodd" clip-rule="evenodd" d="M48.3951 9.73181V13.79C45.3515 13.79 48.3951 9.73181 48.3951 9.73181" fill="#E78287"/>
<path fill-rule="evenodd" clip-rule="evenodd" d="M53.806 13.1133C53.806 14.2341 52.8975 15.1426 51.7769 15.1426C50.6567 15.1426 49.7478 14.2341 49.7478 13.1133C49.7478 11.9926 50.6567 11.0845 51.7769 11.0845C52.8975 11.0845 53.806 11.9926 53.806 13.1133" fill="#EC9A9A"/>
<path fill-rule="evenodd" clip-rule="evenodd" d="M42.7736 11.0845C43.637 11.0845 44.337 11.9926 44.337 13.1133C44.337 14.2341 43.637 15.1426 42.7736 15.1426C42.4738 15.1426 42.1965 15.0273 41.9581 14.8372C41.761 13.9241 41.6517 12.8854 41.6315 11.7363C41.9168 11.3376 42.3211 11.0845 42.7736 11.0845" fill="#EC9A9A"/>
<path fill-rule="evenodd" clip-rule="evenodd" d="M55.2457 10.1467C55.2457 10.1467 54.8872 11.3337 53.9598 10.9077C53.032 10.4817 53.1575 5.34342 48.0176 5.01539C46.0605 9.63626 42.058 10.2845 40.8871 9.07292C39.7162 7.86139 40.9742 0 47.8197 0C54.6657 0 56.5319 5.69813 55.2457 10.1467" fill="#102B44"/>
<path fill-rule="evenodd" clip-rule="evenodd" d="M36.2206 75.6716L41.2938 70.6041L42.9842 72.293L37.9037 77.3677L36.2206 75.6716" fill="#F7CEC1"/>
<path fill-rule="evenodd" clip-rule="evenodd" d="M61.9223 75.6716L56.8491 70.6041L55.1587 72.293L60.2392 77.3677L61.9223 75.6716" fill="#F7CEC1"/>
<path fill-rule="evenodd" clip-rule="evenodd" d="M52.9843 69.2515H42.9843V70.6042H52.9632L52.9843 69.2515" fill="#0B1F33"/>
<path fill-rule="evenodd" clip-rule="evenodd" d="M52.8004 22.278L52.4615 22.0485C52.4615 25.5071 48.5004 26.6565 48.5004 26.6565C48.5004 26.6565 44.5385 25.5071 44.5385 22.0485L44.1996 22.278C42.1959 23.6346 41.8849 26.3604 43.69 27.9327C44.7431 28.85 46.287 29.1811 48.5004 27.6926C50.713 29.1811 52.2569 28.85 53.31 27.9327C55.1151 26.3604 54.8041 23.6346 52.8004 22.278" fill="#33A3D4"/>
<path d="M41.0878 69.0386L35.9945 74.4495L36.4467 74.8752L41.54 69.4643L41.0878 69.0386ZM56.603 69.4643L61.6962 74.8752L62.1484 74.4495L57.0552 69.0386L56.603 69.4643Z" fill="#102B44"/>
<path fill-rule="evenodd" clip-rule="evenodd" d="M48.277 15.688H46.8393C46.8393 15.688 45.668 15.7593 45.668 14.9488C45.668 14.4226 46.2285 14.308 47.558 14.305C48.8878 14.308 49.4479 14.4226 49.4479 14.9488C49.4479 15.7593 48.277 15.688 48.277 15.688ZM51.6163 16.2206C51.6163 14.9943 50.7209 14 49.6165 14H45.4998C44.3955 14 43.5 14.9943 43.5 16.2206C43.5 18.6938 45.2789 20.74 47.5046 20.7627V20.7636C47.5224 20.7636 47.5402 20.7636 47.558 20.7636C47.5758 20.7636 47.5936 20.7636 47.6117 20.7636V20.7627C49.8374 20.74 51.6163 18.6938 51.6163 16.2206V16.2206Z" fill="#102B44"/>
</svg>
