<?xml version="1.0" encoding="iso-8859-1"?>
<!-- Generator: Adobe Illustrator 19.0.1, SVG Export Plug-In . SVG Version: 6.00 Build 0)  -->
<svg version="1.1" xmlns="http://www.w3.org/2000/svg" xmlns:xlink="http://www.w3.org/1999/xlink" x="0px" y="0px"
	 viewBox="0 0 128 128" style="enable-background:new 0 0 128 128;" xml:space="preserve">
<g id="_x35_">
	<path id="icon_4_" style="fill:#1E1E1E;" d="M47.876,86.251H34.918V73.653h1.961v10.634h10.996V86.251z M36.88,29.625h44.472
		v17.359h1.961V27.661H34.918v28.293h1.961V29.625z M59.118,26.043c0.765,0,1.386-0.621,1.386-1.388s-0.621-1.388-1.386-1.388
		c-0.765,0-1.386,0.621-1.386,1.388S58.353,26.043,59.118,26.043z M83.929,18.504H34.304c-2.226,0-4.031,1.807-4.031,4.037v30.848
		c-2.569,1.895-9.336,6.914-12.073,9.271c-3.05,2.632-3.962,8.053-4.619,12.011l-0.196,1.159
		c-2.02,11.579-13.142,19.662-13.25,19.74l1.706,2.396c0.49-0.354,12.21-8.839,14.446-21.636l0.196-1.179
		c0.588-3.506,1.393-8.318,3.638-10.263c2.158-1.846,7.051-5.539,10.15-7.837v5.087c-1.177,0.786-2.354,1.601-3.472,2.475
		c-3.884,3.045-6.718,6.462-6.836,6.61l2.265,1.876c0.029-0.029,2.766-3.329,6.384-6.168c1.314-1.041,2.785-2.013,4.217-2.956
		c2.334-1.542,4.541-3.005,5.845-4.596c0.196-0.246,0.353-0.373,0.451-0.442c0.216,0.295,0.569,1.237,0.373,2.809
		c-0.177,1.454-1.304,6.403-8.218,9.035l-0.922,0.354l-0.02,0.992c0,0.039-0.01,0.177-0.02,0.383
		c-0.01,0.147-0.029,0.324-0.049,0.54c-0.275,2.77-1.726,10.774-9.238,11.088l0.127,2.946c4.335-0.187,7.238-2.337,9.111-5.097
		v5.637c-0.687,1.621-2.707,5.195-5.276,5.559c-3.325,0.471-7.63,6.737-8.875,8.652l2.471,1.611c2.197-3.398,5.472-7.16,6.816-7.346
		c2.01-0.285,3.638-1.562,4.884-2.995c0.167,2.072,1.903,3.703,4.011,3.703h13.573v-2.946H34.304c-0.598,0-1.089-0.491-1.089-1.1
		V73.266c0-0.029,0.01-0.069,0.01-0.098c6.914-2.995,9.336-8.505,9.278-12.434c-0.039-2.347-0.971-4.125-2.442-4.645
		c-0.588-0.196-2.118-0.471-3.668,1.424c-0.686,0.845-1.844,1.729-3.178,2.652V22.54c0-0.599,0.49-1.09,1.089-1.09h49.624
		c0.598,0,1.089,0.491,1.089,1.09v24.445h2.942V22.54C87.959,20.311,86.155,18.504,83.929,18.504z M127.955,102.445V52.758
		c0-2.23-1.811-4.044-4.038-4.044H53.792c-2.226,0-4.038,1.814-4.038,4.044v49.687c0,2.23,1.812,4.044,4.038,4.044h32.201v-2.946
		H53.792c-0.604,0-1.096-0.492-1.096-1.097V52.758c0-0.605,0.491-1.097,1.096-1.097h70.125c0.604,0,1.096,0.492,1.096,1.097v49.687
		c0,0.605-0.491,1.097-1.096,1.097h-2.423v2.946h2.423C126.144,106.488,127.955,104.675,127.955,102.445z M84.851,99.869H62.255
		V55.334h54.586v42.09h1.961V53.37H60.293v48.463h24.558V99.869z M121.805,78.989c0.765,0,1.386-0.621,1.386-1.388
		c0-0.767-0.621-1.388-1.386-1.388s-1.386,0.621-1.386,1.388C120.419,78.368,121.04,78.989,121.805,78.989z M59.107,77.601
		c0-1.61-1.308-2.92-2.916-2.92s-2.916,1.31-2.916,2.92c0,1.61,1.308,2.92,2.916,2.92S59.107,79.212,59.107,77.601z M58.127,77.601
		c0,1.068-0.868,1.938-1.935,1.938c-1.067,0-1.935-0.87-1.935-1.938c0-1.068,0.868-1.938,1.935-1.938
		C57.259,75.663,58.127,76.533,58.127,77.601z M77.171,109.251l-2.672-1.233l-5.076,11.031l2.672,1.233L77.171,109.251z
		 M94.402,115.467c2.754-0.856,13.102-4.167,15.363-6.305c0.563-0.533,1.245-0.653,2.402-0.819c1.688-0.243,3.999-0.574,5.944-3.319
		c1.08-1.525,0.817-3.25-0.689-4.503c-2.798-2.328-10.411-3.186-14.241-0.404c-7.297-2.731-13.3,2.115-15.518,5.182l2.38,1.731
		c0.217-0.296,5.391-7.217,12.803-3.866l0.942,0.426l0.72-0.744c1.578-1.631,5.849-1.858,8.848-1.043
		c1.891,0.513,2.435,1.175,2.467,1.299c0,0.001-0.01,0.072-0.113,0.218c-1.213,1.714-2.426,1.887-3.961,2.108
		c-1.282,0.184-2.735,0.392-4.005,1.593c-1.359,1.286-9.299,4.12-14.502,5.723l-0.259,0.08l-0.213,0.165
		c-2.435,1.897-4.977,8.681-5.462,10.022l2.766,1.003C91.113,121.142,93.092,116.734,94.402,115.467z M114.802,36.555l-3.903,3.968
		C109.437,20.134,92.402,3.988,71.679,3.988v2.946c19.026,0,34.678,14.692,36.247,33.343l-3.658-3.722l-2.089,2.062l7.355,7.484
		l7.365-7.484L114.802,36.555z"/>
</g>
<g id="Layer_1">
</g>
</svg>
