<svg width="183" height="112" viewBox="0 0 183 112" fill="none" xmlns="http://www.w3.org/2000/svg">
<path d="M66.4967 21.1618C65.2172 23.6518 61.8758 26.8434 61.8758 26.8434C61.8758 26.8434 57.7319 27.7643 55.4776 29.0529C52.7527 30.6104 51.2979 31.8714 49.7903 34.4188C48.4591 36.6683 48.1015 38.1916 48.0131 40.7316C47.9121 43.6316 48.3867 45.3714 49.7903 47.9914C51.0666 50.3736 52.6085 51.2605 54.4112 53.3573C56.6351 55.944 59.0608 56.8647 60.0985 59.9858C60.924 62.4684 60.5815 64.0615 60.0985 66.6143C59.4793 69.8875 57.4591 71.2873 56.544 74.5053C55.5531 77.9898 54.5305 80.165 55.4776 83.659C56.5049 87.4487 58.5321 89.3401 61.8758 91.8657C64.5255 93.8671 66.3022 94.9745 69.6958 95.6534C73.6439 96.4432 76.1414 95.7792 80.004 94.7064C83.4409 93.7519 84.7555 91.9097 88.1794 90.9187C92.9472 89.5389 96.678 92.2662 100.976 89.9718C102.912 88.9379 102.992 86.6956 105.241 86.4997C106.858 86.359 107.632 87.2499 109.151 87.7623C112.525 88.9005 114.163 90.2067 117.682 90.9187C122.284 91.8499 125.144 91.7597 129.768 90.9187C133.556 90.2297 135.995 89.913 139.009 87.7623C141.891 85.7066 143.265 83.9581 144.341 80.8182C145.392 77.7522 144.341 75.8164 144.341 72.6115C144.341 70.7625 143.582 69.5987 144.341 67.8769C145.941 64.2469 151.445 67.0009 155.005 64.7204L155.064 64.6828C157.34 63.2246 158.825 62.2736 159.981 59.9858C161.459 57.0619 161.215 54.7911 159.981 51.7791C159.126 49.6907 158.15 48.656 156.427 47.0445C153.558 44.3612 150.768 44.1984 147.185 42.3098C143.971 40.6157 141.159 40.6061 139.009 37.8908C136.739 35.0226 138.262 32.4374 137.232 29.0529C136.27 25.8911 135.844 24.0151 134.033 21.1618C132.287 18.4114 131.354 16.532 128.346 14.849C125.668 13.3505 123.656 13.3728 120.526 12.9551C116.545 12.4239 114.234 13.1987 110.218 12.9551C106.163 12.7092 103.241 12.8019 99.9094 11.6925L91.3785 8.85175C91.3785 8.85175 85.2783 5.79456 81.0703 6.01097C77.5182 6.19365 75.2488 6.80375 72.5394 8.85175C70.164 10.6473 69.4808 12.2946 68.274 14.849C67.1669 17.1923 67.6847 18.8499 66.4967 21.1618Z" fill="#0E57CA"/>
<path d="M34.5 68C34.5 70.7614 30.7614 73 28 73C25.2386 73 23 70.7614 23 68C23 65.2386 25.2386 61.5 28 61.5C30.7614 61.5 34.5 65.2386 34.5 68Z" fill="#0E57CA"/>
<path d="M50 55.8261C50 57.0267 48.3745 58 47.1739 58C45.9733 58 45 57.0267 45 55.8261C45 54.6255 45.9733 53 47.1739 53C48.3745 53 50 54.6255 50 55.8261Z" fill="#0E57CA"/>
<path d="M66.1029 19.1064H128.228C129.401 19.1064 130.353 20.0577 130.353 21.2306V69.8815C130.353 71.0544 129.401 72.0056 128.228 72.0056H66.1029C64.93 72.0056 63.9788 71.0544 63.9788 69.8815V21.2306C63.9788 20.0577 64.93 19.1064 66.1029 19.1064Z" fill="#F9FAFC"/>
<path d="M109.599 43.5737H117.499V36.5262H109.599V43.5737Z" fill="#145ED7"/>
<path d="M93.4592 50.7852H101.444V43.7376H93.4592V50.7852Z" fill="#145ED7"/>
<path d="M77.1605 65.4386H85.2275V58.166H77.1605V65.4386Z" fill="#709DE7"/>
<path d="M117.496 58.0833H125.157V50.9505H117.496V58.0833Z" fill="#709DE7"/>
<path d="M69.6622 36.3568H77.3235V29.0842H69.6622V36.3568Z" fill="#709DE7"/>
<path d="M93.8919 67.3064H124.98V66.9245H93.8919V67.3064Z" fill="#709DE7"/>
<path d="M93.8919 68.7035H124.98V68.3216H93.8919V68.7035Z" fill="#709DE7"/>
<path d="M93.8919 70.1007H124.98V69.7188H93.8919V70.1007Z" fill="#709DE7"/>
<path d="M63.9788 26.2051V21.2306C63.9788 20.0577 64.93 19.1064 66.1029 19.1064H128.228C129.401 19.1064 130.353 20.0577 130.353 21.2306V26.2051H63.9788Z" fill="#2196F5"/>
<path d="M120.458 22.2327C120.458 23.1601 121.208 23.9102 122.136 23.9102C123.063 23.9102 123.813 23.1601 123.813 22.2327C123.813 21.3053 123.063 20.5552 122.136 20.5552C121.208 20.5552 120.458 21.3053 120.458 22.2327Z" fill="#09306F"/>
<path d="M122.136 16.5251C122.507 16.5251 122.807 16.8252 122.807 17.1968V22.2975C122.807 22.6692 122.507 22.9692 122.136 22.9692C121.764 22.9692 121.464 22.6692 121.464 22.2975V17.1968C121.464 16.8286 121.764 16.5251 122.136 16.5251Z" fill="#F9FAFC"/>
<path d="M112.132 22.2327C112.132 23.1601 112.882 23.9102 113.809 23.9102C114.736 23.9102 115.487 23.1601 115.487 22.2327C115.487 21.3053 114.736 20.5552 113.809 20.5552C112.882 20.5552 112.132 21.3053 112.132 22.2327Z" fill="#09306F"/>
<path d="M113.813 16.5251C114.184 16.5251 114.484 16.8252 114.484 17.1968V22.2975C114.484 22.6692 114.184 22.9692 113.813 22.9692C113.441 22.9692 113.141 22.6692 113.141 22.2975V17.1968C113.141 16.8286 113.441 16.5251 113.813 16.5251Z" fill="#F9FAFC"/>
<path d="M103.809 22.2327C103.809 23.1601 104.559 23.9102 105.487 23.9102C106.414 23.9102 107.164 23.1601 107.164 22.2327C107.164 21.3053 106.414 20.5552 105.487 20.5552C104.563 20.5552 103.809 21.3053 103.809 22.2327Z" fill="#09306F"/>
<path d="M105.487 16.5251C105.858 16.5251 106.158 16.8252 106.158 17.1968V22.2975C106.158 22.6692 105.858 22.9692 105.487 22.9692C105.115 22.9692 104.815 22.6692 104.815 22.2975V17.1968C104.818 16.8286 105.118 16.5251 105.487 16.5251Z" fill="#F9FAFC"/>
<path d="M95.4868 22.2327C95.4868 23.1601 96.2369 23.9102 97.1643 23.9102C98.0917 23.9102 98.8418 23.1601 98.8418 22.2327C98.8418 21.3053 98.0917 20.5552 97.1643 20.5552C96.2403 20.5552 95.4868 21.3053 95.4868 22.2327Z" fill="#09306F"/>
<path d="M97.1641 16.5251C97.5358 16.5251 97.8358 16.8252 97.8358 17.1968V22.2975C97.8358 22.6692 97.5358 22.9692 97.1641 22.9692C96.7925 22.9692 96.4924 22.6692 96.4924 22.2975V17.1968C96.4924 16.8286 96.7959 16.5251 97.1641 16.5251Z" fill="#F9FAFC"/>
<path d="M87.1641 22.2327C87.1641 23.1601 87.9142 23.9102 88.8416 23.9102C89.769 23.9102 90.5191 23.1601 90.5191 22.2327C90.5191 21.3053 89.769 20.5552 88.8416 20.5552C87.9142 20.5552 87.1641 21.3053 87.1641 22.2327Z" fill="#09306F"/>
<path d="M88.8416 16.5251C89.2132 16.5251 89.5133 16.8252 89.5133 17.1968V22.2975C89.5133 22.6692 89.2132 22.9692 88.8416 22.9692C88.47 22.9692 88.1699 22.6692 88.1699 22.2975V17.1968C88.1699 16.8286 88.47 16.5251 88.8416 16.5251Z" fill="#F9FAFC"/>
<path d="M78.8413 22.2327C78.8413 23.1601 79.5914 23.9102 80.5188 23.9102C81.4462 23.9102 82.1963 23.1601 82.1963 22.2327C82.1963 21.3053 81.4462 20.5552 80.5188 20.5552C79.5914 20.5552 78.8413 21.3053 78.8413 22.2327Z" fill="#09306F"/>
<path d="M80.5186 16.5251C80.8902 16.5251 81.1903 16.8252 81.1903 17.1968V22.2975C81.1903 22.6692 80.8902 22.9692 80.5186 22.9692C80.147 22.9692 79.8469 22.6692 79.8469 22.2975V17.1968C79.8469 16.8286 80.147 16.5251 80.5186 16.5251Z" fill="#F9FAFC"/>
<path d="M70.5183 22.2327C70.5183 23.1601 71.2684 23.9102 72.1958 23.9102C73.1232 23.9102 73.8733 23.1601 73.8733 22.2327C73.8733 21.3053 73.1232 20.5552 72.1958 20.5552C71.2684 20.5552 70.5183 21.3053 70.5183 22.2327Z" fill="#09306F"/>
<path d="M72.1959 16.5251C72.5675 16.5251 72.8675 16.8252 72.8675 17.1968V22.2975C72.8675 22.6692 72.5675 22.9692 72.1959 22.9692C71.8242 22.9692 71.5242 22.6692 71.5242 22.2975V17.1968C71.5242 16.8286 71.8242 16.5251 72.1959 16.5251Z" fill="#F9FAFC"/>
<path d="M69.5808 29.001H125.242V65.5207H69.5808V29.001ZM125.075 29.168H69.7479V65.357H125.075V29.168Z" fill="#709DE7"/>
<path d="M117.666 29.0862H117.499V65.4422H117.666V29.0862Z" fill="#709DE7"/>
<path d="M109.599 29.0862H109.432V65.4422H109.599V29.0862Z" fill="#709DE7"/>
<path d="M101.528 29.0862H101.361V65.4422H101.528V29.0862Z" fill="#709DE7"/>
<path d="M93.4613 29.0862H93.2942V65.4422H93.4613V29.0862Z" fill="#709DE7"/>
<path d="M85.3941 29.0862H85.2271V65.4422H85.3941V29.0862Z" fill="#709DE7"/>
<path d="M77.3238 29.0869H77.1567V65.443H77.3238V29.0869Z" fill="#709DE7"/>
<path d="M125.16 36.3588H69.666V36.5258H125.16V36.3588Z" fill="#709DE7"/>
<path d="M125.16 43.5732H69.666V43.7403H125.16V43.5732Z" fill="#709DE7"/>
<path d="M125.16 50.7878H69.666V50.9549H125.16V50.7878Z" fill="#709DE7"/>
<path d="M125.16 58.0024H69.666V58.1695H125.16V58.0024Z" fill="#709DE7"/>
<path d="M116.008 38.8648H114.815L113.547 41.3231L110.649 37.6373L113.547 42.7892L116.008 38.8648Z" fill="#F9FAFC"/>
<path d="M100.089 45.9158H98.896L97.6276 48.3707L94.7329 44.6849L97.6276 49.8402L100.089 45.9158Z" fill="#F9FAFC"/>
<path d="M78.9904 63.6613L79.3328 64.0037L83.3855 59.9509L83.0431 59.6086L78.9904 63.6613Z" fill="#F9FAFC"/>
<path d="M79.3326 59.6108L78.9902 59.9531L83.0429 64.0058L83.3853 63.6635L79.3326 59.6108Z" fill="#F9FAFC"/>
<path d="M71.2978 34.5764L71.6401 34.9187L75.6929 30.866L75.3505 30.5236L71.2978 34.5764Z" fill="#F9FAFC"/>
<path d="M71.64 30.5244L71.2976 30.8667L75.3503 34.9194L75.6927 34.5771L71.64 30.5244Z" fill="#F9FAFC"/>
<path d="M119.131 56.3754L119.474 56.7178L123.526 52.6651L123.184 52.3227L119.131 56.3754Z" fill="#F9FAFC"/>
<path d="M119.471 52.3218L119.129 52.6642L123.182 56.7169L123.524 56.3746L119.471 52.3218Z" fill="#F9FAFC"/>
<path d="M112.407 46.7536C112.407 46.7536 112.212 47.8973 111.995 50.2234C111.861 51.674 113.301 46.6592 113.301 46.6592L112.407 46.7536Z" fill="#002538"/>
<path d="M112.309 50.3921C112.309 50.3921 110.73 49.3547 110.419 50.7919C110.077 52.3724 112.344 51.9423 112.344 51.9423L112.309 50.3921Z" fill="#FFB2A5"/>
<path d="M107.002 92.098C107.002 92.098 116.29 96.0181 125.815 92.7069L122.593 76.7262L110.238 77.2289L107.002 92.098Z" fill="#002538"/>
<path d="M110.238 75L109 94.7727L113.744 95L116.397 76.4888L121.616 94.8823L126 94.7678L121.616 75.1259L110.238 75Z" fill="#6C90D7"/>
<path d="M112.02 75.0277L121.101 75.3938L120.606 73.3966L111.749 73.3494L112.02 75.0277Z" fill="#002538"/>
<path d="M120.582 57.2016C119.26 56.4898 118.284 56.2351 118.284 56.2351C118.284 56.2351 115.795 56.0461 114.486 56.3261C113.054 56.6331 111.346 57.2269 111.346 57.2269L110.627 74.0223H120.996L120.582 57.2016Z" fill="#66D3C4"/>
<path d="M116.098 57.7936L114.976 58.9642C114.976 58.9642 115.622 59.8734 116.098 59.8751C116.574 59.8768 117.374 59.0199 117.374 59.0199L116.098 57.7936Z" fill="#002538"/>
<path d="M115.884 59.3118C115.884 59.3118 113.898 71.0519 114.076 71.3892C114.253 71.7215 115.494 73.1081 115.711 73.1384C115.928 73.1705 117.26 71.8075 117.484 71.4162C117.692 71.0519 116.408 59.3118 116.408 59.3118H115.884Z" fill="#002538"/>
<path d="M114.486 56.3262L114.239 56.392C113.411 56.6163 112.955 57.4665 113.24 58.2491C113.551 59.1043 113.938 60.0236 114.16 60.0439C114.579 60.081 116.098 57.9438 116.098 57.9438C116.098 57.9438 117.834 60.0928 118.249 59.9511C118.48 59.8718 118.861 58.8783 119.155 58.013C119.4 57.291 119.017 56.5117 118.284 56.2351L114.486 56.3262Z" fill="white"/>
<path d="M118.284 56.235L118.483 51.9759C118.483 51.9759 120.214 52.5831 120.377 51.2151C120.522 49.9956 119.145 49.8775 118.471 50.4409C118.471 50.4409 119.745 46.1952 115.921 45.7887C112.097 45.3822 111.962 50.4375 111.925 51.6604C111.859 53.8145 113.443 54.8788 114.601 55.0053L114.486 56.3261C114.486 56.3261 114.435 57.6772 115.641 57.7228C117.575 57.797 118.284 56.235 118.284 56.235Z" fill="#FFB2A5"/>
<path d="M112.797 51.755C113.125 51.755 113.39 51.499 113.39 51.1832C113.39 50.8673 113.125 50.6113 112.797 50.6113C112.469 50.6113 112.204 50.8673 112.204 51.1832C112.204 51.499 112.469 51.755 112.797 51.755Z" fill="#FF9F99"/>
<path d="M112.59 51.0398C112.786 51.114 113 51.1325 113.21 51.1258C113.479 51.1157 113.761 51.0583 113.969 50.8913C114.178 50.7243 114.291 50.4291 114.179 50.193C113.987 50.5304 113.675 50.8154 113.29 50.9183C113.019 50.9908 112.715 50.9588 112.47 50.8222C112.408 50.7884 112.351 50.7463 112.3 50.7007C112.26 50.6636 112.209 50.5675 112.156 50.5506C112.036 50.5118 112.148 50.6957 112.174 50.7345C112.272 50.8761 112.428 50.979 112.59 51.0398Z" fill="#C76470"/>
<path d="M116.306 46.5781C115.532 46.3824 114.713 46.4162 113.922 46.5342C113.747 46.5595 113.571 46.5933 113.394 46.6321C112.944 47.0993 112.632 47.7082 112.419 48.3475C112.909 48.4066 113.411 48.3813 113.891 48.2683C114.552 48.1114 115.172 47.7892 115.671 47.3422C115.862 47.7656 116.233 48.1283 116.681 48.2902C117.129 48.4521 117.645 48.4319 118.079 48.2345C118.158 48.1991 118.242 48.1468 118.257 48.0642C118.268 48.0034 118.238 47.9427 118.207 47.8904C117.809 47.2208 117.08 46.7738 116.306 46.5781Z" fill="#C76470"/>
<path d="M119.274 50.7698C119.098 50.8103 118.928 50.9013 118.821 51.0447C118.714 51.1881 118.681 51.3855 118.76 51.544C118.856 51.738 119.105 51.8341 119.325 51.8021C119.546 51.77 119.737 51.63 119.871 51.458C120.018 51.2724 120.102 50.9992 119.896 50.817C119.752 50.6871 119.446 50.7293 119.274 50.7698Z" fill="#C76470"/>
<path d="M116.656 53.4248C116.15 53.5581 115.653 53.7403 115.154 53.8971C114.796 54.0102 114.432 54.1249 114.11 54.3138C113.931 54.4184 113.767 54.5516 113.632 54.7051C113.959 54.8721 114.293 54.9733 114.6 55.0071L114.524 55.8656C115.177 55.8892 115.837 55.7121 116.371 55.3478C116.705 55.1201 116.985 54.8198 117.193 54.4825C117.328 54.2649 117.645 53.7824 117.479 53.5261C117.318 53.2781 116.891 53.3641 116.656 53.4248Z" fill="#C76470"/>
<path d="M112.407 48.3864C112.407 48.3864 112.008 51.0127 112.242 52.2238C112.242 52.2238 114.49 50.8811 115.813 51.5913C116.131 51.7616 116.432 52.072 116.703 52.4431L117.3 51.9624L117.769 50.1659L118.328 50.8103C118.328 50.8103 117.957 53.7892 116.871 54.6089C115.786 55.4287 113.95 55.2685 113.061 54.7962C112.172 54.3239 111.717 53.1583 111.786 51.8915C111.912 49.6228 112.407 48.3864 112.407 48.3864Z" fill="#002538"/>
<path d="M113.873 50.0429C113.901 50.2605 113.74 50.4578 113.514 50.4848C113.289 50.5118 113.084 50.3566 113.056 50.139C113.028 49.9214 113.189 49.7241 113.415 49.6971C113.64 49.6718 113.845 49.8253 113.873 50.0429Z" fill="#002538"/>
<path d="M115.764 50.1103C115.792 50.3279 115.631 50.5253 115.405 50.5523C115.179 50.5792 114.974 50.4241 114.946 50.2065C114.918 49.9889 115.079 49.7915 115.305 49.7645C115.529 49.7375 115.736 49.8927 115.764 50.1103Z" fill="#002538"/>
<path d="M119.77 50.7715C119.568 50.6787 119.32 50.6872 119.126 50.7934C118.931 50.898 118.795 51.0987 118.772 51.313" stroke="#4C2049" stroke-width="0.128217" stroke-miterlimit="10" stroke-linecap="round" stroke-linejoin="round"/>
<path d="M119.056 50.8778C119.136 50.9824 119.215 51.087 119.295 51.1932" stroke="#4C2049" stroke-width="0.128217" stroke-miterlimit="10" stroke-linecap="round" stroke-linejoin="round"/>
<path d="M116.523 48.7558C116.14 48.5129 115.62 48.4859 115.212 48.6849" stroke="#4C2049" stroke-width="0.128217" stroke-miterlimit="10" stroke-linecap="round" stroke-linejoin="round"/>
<path d="M114.059 48.7962C113.737 48.4858 113.159 48.469 112.82 48.7608" stroke="#4C2049" stroke-width="0.128217" stroke-miterlimit="10" stroke-linecap="round" stroke-linejoin="round"/>
<path d="M117.195 51.631C117.32 51.3389 117.175 51.0048 116.872 50.8847C116.569 50.7646 116.223 50.904 116.098 51.196C115.973 51.4881 116.118 51.8222 116.421 51.9423C116.724 52.0624 117.071 51.923 117.195 51.631Z" fill="#FF9F99"/>
<path d="M114.435 50.0056L114.139 50.7815C114.139 50.7815 113.73 50.8659 113.901 51.2066" stroke="#4C2049" stroke-width="0.128217" stroke-miterlimit="10" stroke-linecap="round" stroke-linejoin="round"/>
<path d="M113.935 52.2018C114.412 52.2845 114.783 52.2069 114.979 51.7784" stroke="#FFB2A5" stroke-width="0.154452" stroke-miterlimit="10" stroke-linecap="round" stroke-linejoin="round"/>
<path d="M133.039 61.9297L132.782 64.5934L131.7 64.3012L132.343 62.6L133.039 61.9297Z" fill="#FFB2A5"/>
<path d="M130.771 63.8863L128.664 69.7879C128.664 69.7879 126.198 61.3643 124.164 59.6754C122.88 58.6078 121.886 58.1755 120.58 57.6312L119.46 60.7203C119.192 61.4571 119.078 62.2412 119.126 63.0252L120.923 92.9076C122.503 93.2366 124.145 93.7372 125.813 94.4705L123.596 68.428C123.596 68.428 125.46 75.826 129.095 75.2099C132.731 74.5938 133.454 64.5461 133.454 64.5461L130.771 63.8863Z" fill="white"/>
<path d="M130.517 64.6003L133.391 65.2462C133.396 65.1919 133.402 65.1394 133.407 65.0921L130.57 64.4551L130.517 64.6003Z" fill="#F7F5F8"/>
<path d="M106.221 45.0125L104.736 45.317C104.608 45.3432 104.484 45.261 104.457 45.1332C104.431 45.0055 104.513 44.8812 104.641 44.8549L106.127 44.5504C106.255 44.5242 106.379 44.6064 106.405 44.7342C106.43 44.8619 106.349 44.9862 106.221 45.0125Z" fill="#FAFFFF"/>
<path d="M104.739 45.3169L106.216 45.0142L107.641 51.9501C107.725 52.3579 107.462 52.7569 107.054 52.8392C106.647 52.9232 106.248 52.6606 106.165 52.2528L104.739 45.3169Z" fill="#FAFFFF"/>
<path d="M107.009 52.6187C106.724 52.6764 106.444 52.4927 106.386 52.2074L104.961 45.2715L105.996 45.0597L107.42 51.9956C107.478 52.2809 107.294 52.5609 107.009 52.6187Z" fill="#C5EAFF"/>
<path d="M107.42 51.9957L106.251 46.3076H105.173L106.386 52.2074C106.444 52.4927 106.724 52.6765 107.009 52.6187C107.294 52.561 107.478 52.2809 107.42 51.9957Z" fill="#C29CFD"/>
<path opacity="0.4" d="M106.957 51.9519C106.957 52.0201 106.901 52.0761 106.832 52.0761C106.764 52.0761 106.708 52.0201 106.708 51.9519C106.708 51.8836 106.764 51.8276 106.832 51.8276C106.902 51.8276 106.957 51.8818 106.957 51.9519ZM106.808 51.2378C106.775 51.2378 106.748 51.264 106.748 51.2973C106.748 51.3305 106.775 51.3568 106.808 51.3568C106.841 51.3568 106.867 51.3305 106.867 51.2973C106.866 51.2658 106.839 51.2378 106.808 51.2378ZM106.489 50.795C106.428 50.795 106.379 50.844 106.379 50.9053C106.379 50.9665 106.428 51.0155 106.489 51.0155C106.551 51.0155 106.6 50.9665 106.6 50.9053C106.6 50.844 106.551 50.795 106.489 50.795ZM106.848 50.5325C106.794 50.5325 106.748 50.5762 106.748 50.6322C106.748 50.6865 106.792 50.732 106.848 50.732C106.902 50.732 106.948 50.6882 106.948 50.6322C106.948 50.578 106.902 50.5325 106.848 50.5325Z" fill="#FAFFFF"/>
<path opacity="0.4" d="M106.211 45.016L104.735 45.3192L104.829 45.7769L106.305 45.4737L106.211 45.016Z" fill="#43C9C4"/>
<path d="M104.384 48.1628L105.219 47.4207L105.705 48.224C105.705 48.224 107.651 46.8151 107.746 47.0672C107.84 47.3192 107.356 47.832 107.356 47.832C107.356 47.832 107.742 48.0123 107.678 48.4848C107.613 48.9574 107.247 49.2094 107.247 49.2094C107.247 49.2094 107.413 49.3721 107.452 49.6242C107.49 49.8762 107.083 50.1562 107.083 50.1562L104.993 51.3778C104.515 51.6281 104.006 51.2011 103.833 50.4065C103.675 49.7012 104.004 49.0431 104.384 48.1628Z" fill="#FFB2A5"/>
<path d="M104.198 48.7788C104.198 48.7788 104.584 47.3472 104.839 47.1757C105.096 47.0024 106.094 45.9103 106.101 46.1536C106.11 46.3986 105.222 48.1435 105.222 48.1435L104.198 48.7788Z" fill="#FFB2A5"/>
<path d="M107.746 47.0672C107.679 46.6506 105.942 47.4015 105.78 47.482C102.942 48.8996 106.026 48.5706 106.51 48.3763C106.51 48.3763 106.762 48.3413 106.852 48.7281C106.909 48.9731 107.252 49.3512 107.597 48.8226C108.154 47.965 107.354 47.832 107.354 47.832L107.746 47.0672Z" fill="#FFB2A5"/>
<path d="M103.964 49.2427L102.513 51.8189L104.407 53.2103L105.217 51.1294L103.964 49.2427Z" fill="#FFB2A5"/>
<path d="M112.254 92.5943L113.523 63.5608C113.567 62.5667 113.352 61.5778 112.898 60.6922L111.346 57.6592L100.089 61.0108L105.096 52.7675L102.823 50.6655C102.823 50.6655 92.9167 60.8287 96.9228 64.6109C99.4238 66.9718 108.673 63.902 108.673 63.902L106.999 93.8404C107.002 93.8386 109.048 93.0021 112.254 92.5943Z" fill="white"/>
<path d="M98.6785 61.4588L100.089 61.0108L102.977 56.2573L98.6785 61.4588Z" fill="#F7F5F8"/>
<path d="M115.816 47.2947C115.251 47.5625 114.675 47.8233 114.062 47.9493C113.45 48.0753 112.79 48.0595 112.226 47.7865C111.446 47.4102 110.942 46.5456 110.954 45.6793C110.966 44.813 111.477 43.9816 112.221 43.5371C112.965 43.0943 113.915 43.0366 114.726 43.3446C115.111 42.8563 115.772 42.4678 116.388 42.5518C117.004 42.6358 117.559 43.0646 117.799 43.6386C118.384 43.5704 119.05 43.9011 119.273 44.4472C119.495 44.9932 119.309 45.6758 118.844 46.0346C119.21 46.0906 119.591 46.3111 119.759 46.6402C119.927 46.9709 119.925 47.3805 119.754 47.7095C120.109 47.7865 120.396 48.0998 120.438 48.4621C120.48 48.8244 120.337 49.1866 120.121 49.4807C119.906 49.7747 119.623 50.0092 119.341 50.2402C118.872 50.6253 118.403 51.0121 117.935 51.3971L117.771 50.326C117.771 50.326 116.894 49.5017 117.907 48.4183C117.907 48.4183 117.251 48.5916 116.493 48.1593C116.024 47.895 115.816 47.2947 115.816 47.2947Z" fill="#002538"/>
<path d="M112.701 47.9791C112.034 47.8881 111.44 47.4348 111.122 46.8415C110.803 46.2481 110.746 45.5323 110.903 44.8795C111.061 44.225 111.46 43.8312 111.901 43.5774C111.384 44.0937 111.057 44.645 111.085 45.3766C111.115 46.1099 111.433 46.7522 112.039 47.1687C112.19 47.272 112.358 47.3525 112.487 47.482C112.618 47.6098 112.772 47.811 112.701 47.9791Z" fill="#002538"/>
<path d="M117.991 44.1024C117.898 43.3744 117.379 42.7338 116.693 42.4783C117.268 42.7828 117.681 43.3779 117.764 44.0254C117.867 44.0569 117.888 44.0709 117.991 44.1024Z" fill="#002538"/>
<path d="M117.725 46.0259C117.881 46.3199 118.249 46.4634 118.579 46.4144C118.908 46.3654 119.197 46.1519 119.4 45.8876C119.605 45.6251 119.717 45.2663 119.838 44.9565C119.581 45.5551 118.936 45.9664 118.284 45.9436C118.004 45.9331 117.976 45.8999 117.725 46.0259Z" fill="#002538"/>
<path d="M117.757 44.54C117.885 44.1707 118.328 44.0027 118.678 44.1637C119.133 44.3719 119.192 45.0248 118.784 45.317C118.559 45.4781 118.231 45.4798 118.004 45.3205C117.762 45.149 117.661 44.8165 117.757 44.54ZM115.736 45.6846C115.813 45.4361 115.825 45.163 115.765 44.8952C115.751 44.8305 115.732 44.7657 115.709 44.7027C115.471 44.0289 114.873 43.5984 114.194 43.4374C113.709 43.3218 113.207 43.3814 112.83 43.6281C113.616 44.5662 114.601 45.2453 115.736 45.6846Z" fill="#0D3049"/>
<path d="M111.146 50.9194C110.992 50.7811 110.775 50.6446 110.553 50.6008C110.497 50.7041 110.452 50.8284 110.418 50.9824C110.21 51.9835 110.971 52.2057 111.598 52.2285C111.61 52.1935 111.621 52.1585 111.628 52.1217C111.661 51.9397 111.636 51.7507 111.579 51.5757C111.496 51.3237 111.342 51.0961 111.146 50.9194Z" fill="#C76470"/>
<path d="M114.18 50.0302C114.18 50.6515 113.675 51.1573 113.052 51.1573C112.429 51.1573 111.925 50.6532 111.925 50.0302C111.925 49.4089 112.429 48.9031 113.052 48.9031C113.675 48.9031 114.18 49.4089 114.18 50.0302Z" stroke="white" stroke-width="0.216601" stroke-miterlimit="10" stroke-linecap="round" stroke-linejoin="round"/>
<path d="M115.109 51.3621C115.427 51.5809 115.863 51.6177 116.215 51.4567C116.567 51.2956 116.824 50.9439 116.868 50.5588C116.71 50.8494 116.451 51.0909 116.136 51.1959C115.823 51.3009 115.457 51.2589 115.191 51.0629C115.077 50.9789 114.986 50.8704 114.909 50.7531C114.88 50.7058 114.778 50.4381 114.729 50.4328C114.661 50.4258 114.65 50.6113 114.652 50.6516C114.652 50.7776 114.715 50.9036 114.778 51.0086C114.862 51.1469 114.974 51.2694 115.109 51.3621Z" fill="#C76470"/>
<path d="M116.938 50.1125C116.938 50.7338 116.434 51.2396 115.811 51.2396C115.189 51.2396 114.684 50.7355 114.684 50.1125C114.684 49.4912 115.188 48.9854 115.811 48.9854C116.434 48.9854 116.938 49.4894 116.938 50.1125Z" stroke="white" stroke-width="0.216601" stroke-miterlimit="10" stroke-linecap="round" stroke-linejoin="round"/>
<path d="M120.69 64.6022C120.669 64.6022 120.65 64.5934 120.634 64.5777L119.934 63.8339C119.904 63.8024 119.906 63.7534 119.938 63.7254C119.969 63.6956 120.018 63.6974 120.046 63.7289L120.746 64.4727C120.776 64.5042 120.774 64.5532 120.743 64.5812C120.729 64.5952 120.709 64.6022 120.69 64.6022Z" fill="#BCCEE9"/>
<path d="M119.939 64.5541C119.917 64.5541 119.894 64.5436 119.88 64.5261C119.854 64.4929 119.859 64.4439 119.892 64.4176L120.692 63.7718C120.725 63.7455 120.774 63.7508 120.801 63.784C120.827 63.8173 120.822 63.8663 120.788 63.8926L119.988 64.5384C119.974 64.5489 119.957 64.5541 119.939 64.5541Z" fill="#BCCEE9"/>
<path d="M120.948 67.9939C120.927 67.9939 120.908 67.9852 120.892 67.9694L120.192 67.2256C120.162 67.1941 120.164 67.1451 120.196 67.1171C120.227 67.0873 120.276 67.0891 120.304 67.1206L121.004 67.8644C121.034 67.8959 121.032 67.9449 121.001 67.9729C120.987 67.9869 120.967 67.9939 120.948 67.9939Z" fill="#BCCEE9"/>
<path d="M120.197 67.9458C120.174 67.9458 120.151 67.9353 120.137 67.9178C120.111 67.8846 120.116 67.8356 120.149 67.8093L120.949 67.1635C120.982 67.1373 121.031 67.1425 121.058 67.1758C121.084 67.209 121.079 67.258 121.045 67.2843L120.246 67.9301C120.232 67.9406 120.214 67.9458 120.197 67.9458Z" fill="#BCCEE9"/>
<path d="M121.206 71.3875C121.185 71.3875 121.165 71.3787 121.15 71.363L120.449 70.6192C120.42 70.5876 120.421 70.5386 120.453 70.5106C120.484 70.4809 120.533 70.4826 120.561 70.5141L121.262 71.258C121.291 71.2895 121.29 71.3385 121.258 71.3665C121.244 71.3805 121.225 71.3875 121.206 71.3875Z" fill="#BCCEE9"/>
<path d="M120.454 71.3395C120.431 71.3395 120.408 71.329 120.394 71.3115C120.368 71.2782 120.373 71.2292 120.407 71.203L121.206 70.5571C121.24 70.5309 121.289 70.5344 121.315 70.5694C121.341 70.6026 121.336 70.6517 121.303 70.6779L120.503 71.3237C120.489 71.3342 120.471 71.3395 120.454 71.3395Z" fill="#BCCEE9"/>
<path d="M112.452 64.9381C112.195 64.9381 111.985 64.7281 111.985 64.4708C111.985 64.2136 112.195 64.0035 112.452 64.0035C112.709 64.0035 112.919 64.2136 112.919 64.4708C112.919 64.7281 112.709 64.9381 112.452 64.9381ZM112.452 64.1576C112.279 64.1576 112.139 64.2976 112.139 64.4708C112.139 64.6441 112.279 64.7841 112.452 64.7841C112.625 64.7841 112.765 64.6441 112.765 64.4708C112.765 64.2976 112.624 64.1576 112.452 64.1576Z" fill="#BCCEE9"/>
<path d="M112.235 68.1637C111.978 68.1637 111.768 67.9537 111.768 67.6964C111.768 67.4391 111.978 67.2291 112.235 67.2291C112.492 67.2291 112.702 67.4391 112.702 67.6964C112.702 67.9537 112.492 68.1637 112.235 68.1637ZM112.235 67.3831C112.062 67.3831 111.922 67.5232 111.922 67.6964C111.922 67.8697 112.062 68.0097 112.235 68.0097C112.408 68.0097 112.548 67.8697 112.548 67.6964C112.548 67.5232 112.408 67.3831 112.235 67.3831Z" fill="#BCCEE9"/>
<path d="M112.018 71.3875C111.761 71.3875 111.551 71.1774 111.551 70.9202C111.551 70.6629 111.761 70.4529 112.018 70.4529C112.275 70.4529 112.485 70.6629 112.485 70.9202C112.485 71.1774 112.277 71.3875 112.018 71.3875ZM112.018 70.6069C111.845 70.6069 111.705 70.7469 111.705 70.9202C111.705 71.0934 111.845 71.2335 112.018 71.2335C112.191 71.2335 112.331 71.0934 112.331 70.9202C112.331 70.7469 112.191 70.6069 112.018 70.6069Z" fill="#BCCEE9"/>
<path d="M109.951 86.9149C109.818 86.9149 109.694 86.8712 109.582 86.7819C108.498 85.9348 108.806 81.0571 108.82 80.8489C108.822 80.8121 108.852 80.7824 108.889 80.7771L111.836 80.4201C111.859 80.4183 111.88 80.4253 111.897 80.4393C111.913 80.4533 111.924 80.4761 111.924 80.4971C111.922 80.7351 111.866 86.3339 110.165 86.8782C110.089 86.9044 110.019 86.9149 109.951 86.9149ZM108.971 80.9241C108.938 81.5087 108.721 85.9138 109.676 86.6612C109.806 86.7627 109.949 86.7854 110.116 86.7329C111.601 86.2586 111.752 81.3109 111.766 80.5863L108.971 80.9241Z" fill="#BCCEE9"/>
<path d="M122.89 87.0131C122.859 87.0131 122.825 87.0096 122.792 87.0043C121.271 86.7505 121.033 80.3502 121.024 80.0771C121.024 80.0526 121.035 80.0281 121.054 80.0124C121.073 79.9966 121.1 79.9931 121.124 80.0001L124.094 80.9382C124.126 80.9487 124.147 80.9767 124.148 81.01C124.155 81.2113 124.304 85.9577 123.279 86.8573C123.16 86.9606 123.03 87.0131 122.89 87.0131ZM121.182 80.1822C121.257 82.0758 121.681 86.663 122.817 86.852C122.948 86.873 123.065 86.838 123.175 86.7418C124.091 85.9402 124.008 81.6085 123.994 81.0712L121.182 80.1822Z" fill="#BCCEE9"/>
<path d="M108.675 62.6962C108.675 62.6962 101.743 65.1114 97.8994 65.1779C101.24 66.3698 108.675 63.902 108.675 63.902V62.6962Z" fill="#F7F5F8"/>
<path d="M128.26 70.9378L128.664 69.7879C128.664 69.7879 127.985 67.469 127.047 65.0222L128.26 70.9378Z" fill="#F7F5F8"/>
<path d="M124.968 84.5312C124.821 87.5923 124.628 91.7349 124.525 93.9489C124.952 94.1082 125.382 94.2814 125.815 94.4722L124.968 84.5312Z" fill="#F7F5F8"/>
<path d="M108.092 74.3418L107.002 93.8404C107.002 93.8404 107.424 93.6689 108.176 93.4449L108.092 74.3418Z" fill="#F7F5F8"/>
<path d="M130.005 54.4302C129.179 54.3759 128.853 55.8548 128.853 55.8548C128.853 55.8548 131.225 55.6448 131.17 55.7008C131.118 55.7585 130.79 54.4827 130.005 54.4302Z" fill="#DFCEEA"/>
<path d="M127.857 54.6594L134.412 55.482L131.275 66.8703L125.045 66.5588L127.857 54.6594Z" fill="#66D3C4"/>
<path d="M130.004 54.4302C130.249 54.4407 130.426 54.747 130.465 55.8076C130.542 57.9253 132.285 57.7765 132.285 57.7765L136.634 57.9568C136.634 57.9568 135.505 57.752 135.274 56.6984C135.045 55.6448 135.197 54.9465 134.105 54.8292L130.004 54.4302Z" fill="white"/>
<path d="M125.158 66.5641L128.193 54.7014L127.857 54.6594L125.045 66.5588L125.158 66.5641Z" fill="#9DE3D9"/>
<path d="M133.813 59.7647C133.487 59.7734 131.757 60.8463 131.72 61.0965C131.681 61.3468 132.569 61.135 132.569 61.135C132.569 61.135 131.736 61.7266 131.645 61.9244C131.553 62.1221 132.42 61.9156 132.42 61.9156C132.42 61.9156 131.415 62.5457 131.387 62.8519C131.357 63.1582 132.019 62.8589 132.019 62.8589C132.019 62.8589 131.28 63.5153 131.301 63.734C131.324 63.9528 132.583 63.4785 133.101 62.7032C133.619 61.9261 134.518 59.7454 133.813 59.7647Z" fill="#FFB2A5"/>
<path d="M114.179 49.9778C114.179 49.9778 114.414 49.605 114.685 49.9778" stroke="white" stroke-width="0.216601" stroke-miterlimit="10" stroke-linecap="round" stroke-linejoin="round"/>
<path d="M102.348 51.1731L104.739 53.3538L104.821 53.219L102.453 51.0593C102.42 51.0943 102.385 51.1328 102.348 51.1731Z" fill="#F7F5F8"/>
<g opacity="0.4">
<path opacity="0.4" d="M87.1474 84.8025H83.3775C83.248 84.8025 83.1448 84.9075 83.1448 85.0353C83.1448 85.1648 83.2498 85.268 83.3775 85.268H83.3968V88.9661C83.3968 89.2164 83.5998 89.4212 83.8518 89.4212H86.6749C86.9251 89.4212 87.1299 89.2182 87.1299 88.9661V85.6286V85.268H87.1492C87.2787 85.268 87.3819 85.163 87.3819 85.0353C87.3802 84.9058 87.2769 84.8025 87.1474 84.8025Z" fill="#FAFFFF"/>
<path opacity="0.4" d="M94.7274 81.85V77.6496H94.7361C94.9689 77.6496 95.1579 77.4606 95.1579 77.2278C95.1579 76.995 94.9689 76.806 94.7361 76.806H92.0233C91.7906 76.806 91.6016 76.995 91.6016 77.2278C91.6016 77.4606 91.7906 77.6496 92.0233 77.6496H92.0321V81.8465C90.2889 82.4136 89.0288 84.0517 89.0288 85.9839C89.0288 87.2335 89.5574 88.3606 90.4009 89.1535C90.5882 89.3285 90.835 89.4247 91.0905 89.4247H95.6689C95.9262 89.4247 96.173 89.3267 96.3603 89.1517C97.2388 88.3256 97.7744 87.1373 97.7271 85.8246C97.6606 83.9695 96.411 82.4066 94.7274 81.85Z" fill="#FAFFFF"/>
<path opacity="0.4" d="M70.1474 84.8025H66.3775C66.248 84.8025 66.1448 84.9075 66.1448 85.0353C66.1448 85.1648 66.2498 85.268 66.3775 85.268H66.3968V88.9661C66.3968 89.2164 66.5998 89.4212 66.8518 89.4212H69.6749C69.9251 89.4212 70.1299 89.2182 70.1299 88.9661V85.6286V85.268H70.1492C70.2787 85.268 70.3819 85.163 70.3819 85.0353C70.3802 84.9058 70.2769 84.8025 70.1474 84.8025Z" fill="#FAFFFF"/>
<path opacity="0.4" d="M77.7274 81.85V77.6496H77.7361C77.9689 77.6496 78.1579 77.4606 78.1579 77.2278C78.1579 76.995 77.9689 76.806 77.7361 76.806H75.0233C74.7906 76.806 74.6016 76.995 74.6016 77.2278C74.6016 77.4606 74.7906 77.6496 75.0233 77.6496H75.0321V81.8465C73.2889 82.4136 72.0288 84.0517 72.0288 85.9839C72.0288 87.2335 72.5574 88.3606 73.4009 89.1535C73.5882 89.3285 73.835 89.4247 74.0905 89.4247H78.6689C78.9262 89.4247 79.173 89.3267 79.3603 89.1517C80.2388 88.3256 80.7744 87.1373 80.7271 85.8246C80.6606 83.9695 79.411 82.4066 77.7274 81.85Z" fill="#FAFFFF"/>
<path opacity="0.4" d="M29.1455 88.4586L27.0103 84.4245V81.8972H27.0155C27.166 81.8972 27.2885 81.7747 27.2885 81.6242C27.2885 81.4737 27.166 81.3512 27.0155 81.3512H25.2601C25.1096 81.3512 24.9871 81.4737 24.9871 81.6242C24.9871 81.7747 25.1096 81.8972 25.2601 81.8972H25.2654V84.4245L23.1301 88.4586C22.8974 88.8979 23.2159 89.4247 23.713 89.4247H28.5627C29.0597 89.4265 29.3782 88.8979 29.1455 88.4586Z" fill="#437CD6"/>
<g opacity="0.4">
<path opacity="0.4" d="M134.033 88.7421L132.524 85.8894V84.1024H132.527C132.634 84.1024 132.72 84.0167 132.72 83.9099C132.72 83.8032 132.634 83.7174 132.527 83.7174H131.285C131.178 83.7174 131.092 83.8032 131.092 83.9099C131.092 84.0167 131.178 84.1024 131.285 84.1024H131.288V85.8894L129.78 88.7421C129.615 89.0519 129.841 89.4265 130.191 89.4265H133.621C133.971 89.4265 134.197 89.0519 134.033 88.7421Z" fill="#B5C6FF"/>
<path opacity="0.4" d="M126.402 84.1707V81.2567H126.407C126.568 81.2567 126.699 81.1254 126.699 80.9644C126.699 80.8034 126.568 80.6721 126.407 80.6721H124.526C124.365 80.6721 124.233 80.8034 124.233 80.9644C124.233 81.1254 124.365 81.2567 124.526 81.2567H124.531V84.1672C123.322 84.561 122.448 85.6969 122.448 87.0357C122.448 87.9021 122.814 88.6844 123.4 89.2339C123.53 89.3547 123.701 89.4212 123.878 89.4212H127.053C127.231 89.4212 127.403 89.3529 127.532 89.2322C128.142 88.6581 128.513 87.8356 128.481 86.9255C128.437 85.6408 127.569 84.5557 126.402 84.1707Z" fill="#B5C6FF"/>
<g opacity="0.4">
<path opacity="0.4" d="M132.193 86.6996H131.829C131.829 86.4178 131.831 86.0486 131.833 85.6478C131.838 84.7482 131.843 83.6281 131.829 82.9805L131.826 82.8177C131.815 82.2787 131.805 81.7694 131.591 81.2951C131.479 81.0466 131.318 80.8383 131.129 80.6895C130.905 81.0816 130.562 81.4106 130.14 81.6031C130.058 81.6399 129.809 81.7536 129.58 81.6451C129.325 81.5244 129.255 81.2233 129.298 80.9783C129.4 80.4025 130.039 79.986 130.671 80.091C130.77 80.1067 130.868 80.1347 130.963 80.1733C131.059 79.8915 131.087 79.5904 131.031 79.3034C130.879 78.5193 130.088 77.9085 129.316 77.9645C129.146 77.9768 128.976 78.024 128.817 78.101C129.087 78.5998 129.127 79.2229 128.896 79.7445C128.724 80.1312 128.324 80.434 127.949 80.2695C127.722 80.1697 127.576 79.9212 127.552 79.5869C127.517 79.1214 127.69 78.6349 128.028 78.2533C128.112 78.1588 128.203 78.073 128.301 77.996C128.294 77.989 128.287 77.982 128.28 77.975C127.877 77.5532 127.214 77.4062 126.671 77.6163C126.124 77.8298 125.726 78.3951 125.726 78.9621V82.2752H125.362V78.9621C125.362 78.2393 125.847 77.5462 126.54 77.2767C127.217 77.0142 128.042 77.198 128.544 77.723C128.567 77.7475 128.59 77.772 128.611 77.7983C128.826 77.688 129.057 77.6198 129.29 77.6023C130.258 77.5287 131.199 78.2621 131.388 79.2334C131.462 79.6079 131.42 79.9965 131.288 80.3518C131.553 80.5408 131.778 80.8156 131.925 81.1446C132.169 81.6871 132.181 82.2577 132.191 82.809L132.195 82.97C132.211 83.6228 132.204 84.7447 132.198 85.6478C132.195 86.0503 132.193 86.4178 132.193 86.6996ZM130.48 80.4393C130.118 80.4393 129.72 80.6703 129.654 81.0413C129.634 81.1498 129.659 81.2811 129.732 81.3161C129.785 81.3406 129.871 81.3249 129.988 81.2724C130.336 81.1131 130.622 80.8366 130.811 80.5058C130.744 80.4795 130.678 80.462 130.609 80.4498C130.567 80.4428 130.524 80.4393 130.48 80.4393ZM128.507 78.2953C128.432 78.3548 128.362 78.4213 128.297 78.4948C128.024 78.8029 127.884 79.1914 127.912 79.5607C127.918 79.6324 127.947 79.874 128.093 79.937C128.25 80.007 128.467 79.8145 128.562 79.5992C128.744 79.1844 128.716 78.6926 128.507 78.2953Z" fill="#B5C6FF"/>
</g>
</g>
<path opacity="0.4" d="M42.3783 87.9791L39.186 81.9445V78.1624H39.1947C39.4205 78.1624 39.6025 77.9804 39.6025 77.7546C39.6025 77.5288 39.4205 77.3468 39.1947 77.3468H36.566C36.3402 77.3468 36.1582 77.5288 36.1582 77.7546C36.1582 77.9804 36.3402 78.1624 36.566 78.1624H36.5747V81.9445L33.3824 87.9791C33.0359 88.6354 33.5102 89.4247 34.254 89.4247H41.5102C42.2487 89.4265 42.7248 88.6354 42.3783 87.9791Z" fill="#437CD6"/>
</g>
<path d="M88.327 82.6254H86.5261C86.3721 82.6254 86.2461 82.4993 86.2461 82.3453C86.2461 82.1913 86.3721 82.0653 86.5261 82.0653H88.327C88.4811 82.0653 88.6071 82.1913 88.6071 82.3453C88.6071 82.5011 88.4828 82.6254 88.327 82.6254Z" fill="#FAFFFF"/>
<path d="M86.5315 82.6254H88.3219V87.4086C88.3219 87.9021 87.9211 88.3029 87.4276 88.3029C86.934 88.3029 86.5332 87.9021 86.5332 87.4086V82.6254H86.5315Z" fill="#FAFFFF"/>
<path d="M87.4273 88.0351C87.0808 88.0351 86.8008 87.7534 86.8008 87.4086V82.6254H88.0539V87.4086C88.0539 87.7534 87.7721 88.0351 87.4273 88.0351Z" fill="#C5EAFF"/>
<path d="M86.7991 83.7753V87.4086C86.7991 87.7551 87.0808 88.0352 87.4256 88.0352C87.7722 88.0352 88.0522 87.7534 88.0522 87.4086V83.7753H86.7991Z" fill="#E25D40"/>
<path opacity="0.4" d="M88.3219 82.9141H86.5315V83.1801H88.3219V82.9141Z" fill="#43C9C4"/>
<path d="M91.5543 82.6254H89.7534C89.5994 82.6254 89.4734 82.4993 89.4734 82.3453C89.4734 82.1913 89.5994 82.0653 89.7534 82.0653H91.5543C91.7083 82.0653 91.8344 82.1913 91.8344 82.3453C91.8344 82.5011 91.7083 82.6254 91.5543 82.6254Z" fill="#FAFFFF"/>
<path d="M89.7585 82.6254H91.549V87.4086C91.549 87.9021 91.1482 88.3029 90.6546 88.3029C90.1611 88.3029 89.7603 87.9021 89.7603 87.4086V82.6254H89.7585Z" fill="#FAFFFF"/>
<path d="M90.6529 88.0351C90.3064 88.0351 90.0264 87.7534 90.0264 87.4086V82.6254H91.2795V87.4086C91.2795 87.7534 90.9977 88.0351 90.6529 88.0351Z" fill="#C5EAFF"/>
<path d="M90.0264 83.7753V87.4086C90.0264 87.7551 90.3081 88.0352 90.6529 88.0352C90.9995 88.0352 91.2795 87.7534 91.2795 87.4086V83.7753H90.0264Z" fill="#C29CFD"/>
<path opacity="0.4" d="M91.549 82.6254H89.7585V83.1802H91.549V82.6254Z" fill="#43C9C4"/>
<path d="M94.7799 82.6254H92.979C92.825 82.6254 92.699 82.4993 92.699 82.3453C92.699 82.1913 92.825 82.0653 92.979 82.0653H94.7799C94.9339 82.0653 95.0599 82.1913 95.0599 82.3453C95.0599 82.5011 94.9339 82.6254 94.7799 82.6254Z" fill="#FAFFFF"/>
<path d="M92.9841 82.6254H94.7745V87.4086C94.7745 87.9021 94.3738 88.3029 93.8802 88.3029C93.3867 88.3029 92.9859 87.9021 92.9859 87.4086V82.6254H92.9841Z" fill="#FAFFFF"/>
<path d="M93.8785 88.0351C93.532 88.0351 93.252 87.7534 93.252 87.4086V82.6254H94.5051V87.4086C94.5068 87.7534 94.225 88.0351 93.8785 88.0351Z" fill="#C5EAFF"/>
<path d="M93.252 83.7753V87.4086C93.252 87.7551 93.5337 88.0352 93.8785 88.0352C94.225 88.0352 94.5051 87.7534 94.5051 87.4086V83.7753H93.252Z" fill="#FFC838"/>
<path opacity="0.4" d="M94.7745 82.6254H92.9841V83.1802H94.7745V82.6254Z" fill="#43C9C4"/>
<path d="M98.0072 82.6254H96.2063C96.0523 82.6254 95.9263 82.4993 95.9263 82.3453C95.9263 82.1913 96.0523 82.0653 96.2063 82.0653H98.0072C98.1612 82.0653 98.2872 82.1913 98.2872 82.3453C98.2855 82.5011 98.1612 82.6254 98.0072 82.6254Z" fill="#FAFFFF"/>
<path d="M96.2097 82.6254H98.0001V87.4086C98.0001 87.9021 97.5993 88.3029 97.1058 88.3029C96.6123 88.3029 96.2115 87.9021 96.2115 87.4086V82.6254H96.2097Z" fill="#FAFFFF"/>
<path d="M97.1058 88.0351C96.7593 88.0351 96.4792 87.7534 96.4792 87.4086V82.6254H97.7324V87.4086C97.7324 87.7534 97.4506 88.0351 97.1058 88.0351Z" fill="#C5EAFF"/>
<path d="M96.4792 83.7753V87.4086C96.4792 87.7551 96.761 88.0352 97.1058 88.0352C97.4523 88.0352 97.7324 87.7534 97.7324 87.4086V83.7753H96.4792Z" fill="#86B6F8"/>
<path opacity="0.4" d="M98.0001 82.6254H96.2097V83.1802H98.0001V82.6254Z" fill="#43C9C4"/>
<path d="M98.8122 81.1115V82.5991H85.7192V81.1115H85.2625V89.4265H99.2708V81.1115H98.8122ZM98.8122 88.8349H85.7192V82.8564H98.8122V88.8349Z" fill="#00426F"/>
<path d="M30.8327 64.6564H28.3387C28.1252 64.6564 27.9519 64.4831 27.9519 64.2696C27.9519 64.0561 28.1252 63.8828 28.3387 63.8828H30.8309C31.0444 63.8828 31.2177 64.0561 31.2177 64.2696C31.2195 64.4831 31.0462 64.6564 30.8327 64.6564Z" fill="#FAFFFF"/>
<path d="M30.8239 67.9887V64.6564H28.3474V67.9887C26.6287 68.5172 25.3809 70.1169 25.3809 72.0088C25.3809 74.3313 27.264 76.2145 29.5865 76.2145C31.909 76.2145 33.7922 74.3313 33.7922 72.0088C33.7904 70.1169 32.5425 68.5172 30.8239 67.9887Z" fill="#FAFFFF"/>
<path d="M29.5849 75.8434C27.4707 75.8434 25.7502 74.123 25.7502 72.0088C25.7502 70.3147 26.8371 68.841 28.456 68.344L28.7185 68.2635V64.6564H30.4529V68.2635L30.7155 68.344C32.3326 68.8428 33.4195 70.3147 33.4195 72.0088C33.4195 74.123 31.6991 75.8434 29.5849 75.8434Z" fill="#C5EAFF"/>
<path d="M26.2175 70.1711C25.92 70.7207 25.752 71.3473 25.752 72.0071C25.752 74.1213 27.4724 75.8417 29.5866 75.8417C31.7008 75.8417 33.4212 74.1213 33.4212 72.0071C33.4212 71.3455 33.2532 70.7189 32.9556 70.1711H26.2175Z" fill="#E25D40"/>
<g opacity="0.4">
<path opacity="0.4" d="M29.982 74.109C30.2526 74.109 30.472 73.8896 30.472 73.619C30.472 73.3483 30.2526 73.1289 29.982 73.1289C29.7113 73.1289 29.4919 73.3483 29.4919 73.619C29.4919 73.8896 29.7113 74.109 29.982 74.109Z" fill="#FAFFFF"/>
<path opacity="0.4" d="M30.1674 72.3869C30.1674 72.5112 30.0659 72.6127 29.9416 72.6127C29.8173 72.6127 29.7158 72.5112 29.7158 72.3869C29.7158 72.2626 29.8173 72.1611 29.9416 72.1611C30.0676 72.1611 30.1674 72.2626 30.1674 72.3869Z" fill="#FAFFFF"/>
<path opacity="0.4" d="M29.0508 72.8209C29.0508 72.9784 28.923 73.1062 28.7655 73.1062C28.608 73.1062 28.4802 72.9784 28.4802 72.8209C28.4802 72.6634 28.608 72.5356 28.7655 72.5356C28.923 72.5356 29.0508 72.6634 29.0508 72.8209Z" fill="#FAFFFF"/>
<path opacity="0.4" d="M29.2611 71.4015C29.2611 71.6466 29.0633 71.8443 28.8183 71.8443C28.5733 71.8443 28.3755 71.6466 28.3755 71.4015C28.3755 71.1565 28.5733 70.9588 28.8183 70.9588C29.0633 70.957 29.2611 71.1565 29.2611 71.4015Z" fill="#FAFFFF"/>
<path opacity="0.4" d="M30.8728 71.6624C30.8728 71.7429 30.808 71.8076 30.7275 71.8076C30.647 71.8076 30.5823 71.7429 30.5823 71.6624C30.5823 71.5818 30.647 71.5171 30.7275 71.5171C30.808 71.5171 30.8728 71.5818 30.8728 71.6624Z" fill="#FAFFFF"/>
<path opacity="0.4" d="M31.4591 72.9697C31.4591 73.1079 31.3471 73.2217 31.2071 73.2217C31.0671 73.2217 30.9551 73.1097 30.9551 72.9697C30.9551 72.8297 31.0671 72.7177 31.2071 72.7177C31.3471 72.7177 31.4591 72.8297 31.4591 72.9697Z" fill="#FAFFFF"/>
<path opacity="0.4" d="M28.7184 73.9462C28.7184 74.1685 28.5381 74.3488 28.3159 74.3488C28.0936 74.3488 27.9133 74.1685 27.9133 73.9462C27.9133 73.724 28.0936 73.5437 28.3159 73.5437C28.5381 73.5437 28.7184 73.724 28.7184 73.9462Z" fill="#FAFFFF"/>
<path opacity="0.4" d="M31.4065 74.0022C31.4065 74.0827 31.3417 74.1475 31.2612 74.1475C31.1807 74.1475 31.116 74.0827 31.116 74.0022C31.116 73.9217 31.1807 73.8569 31.2612 73.8569C31.3417 73.8569 31.4065 73.9217 31.4065 74.0022Z" fill="#FAFFFF"/>
<path opacity="0.4" d="M29.4745 74.6778C29.4745 74.7513 29.415 74.8108 29.3415 74.8108C29.268 74.8108 29.2085 74.7513 29.2085 74.6778C29.2085 74.6043 29.268 74.5448 29.3415 74.5448C29.415 74.5448 29.4745 74.6043 29.4745 74.6778Z" fill="#FAFFFF"/>
<path opacity="0.4" d="M27.9431 72.2941C28.0165 72.2941 28.0761 72.2346 28.0761 72.1611C28.0761 72.0876 28.0165 72.0281 27.9431 72.0281C27.8696 72.0281 27.8101 72.0876 27.8101 72.1611C27.8101 72.2346 27.8696 72.2941 27.9431 72.2941Z" fill="#FAFFFF"/>
</g>
<path opacity="0.4" d="M30.8239 64.6564H28.3474V65.0239H30.8239V64.6564Z" fill="#43C9C4"/>
<path opacity="0.4" d="M30.8239 67.0297H28.3474V67.3972H30.8239V67.0297Z" fill="#43C9C4"/>
<path d="M28.3474 66.7059H20.2931C20.1339 66.7059 20.0061 66.5764 20.0061 66.4189C20.0061 66.2613 20.1356 66.1318 20.2931 66.1318H28.3474C28.5067 66.1318 28.6344 66.2613 28.6344 66.4189C28.6344 66.5764 28.5067 66.7059 28.3474 66.7059Z" fill="#00426F"/>
<path d="M21.7406 88.9313C21.5814 88.9313 21.4536 88.8017 21.4536 88.6442V64.9715C21.4536 64.8122 21.5831 64.6844 21.7406 64.6844C21.8982 64.6844 22.0277 64.814 22.0277 64.9715V88.6425C22.0294 88.8017 21.8999 88.9313 21.7406 88.9313Z" fill="#00426F"/>
<path d="M31.5136 65.808H27.658V67.0296H31.5136V65.808Z" fill="#00426F"/>
<path d="M22.4686 65.6907H21.0125V67.1468H22.4686V65.6907Z" fill="#FAFFFF"/>
<path d="M21.7404 66.7496C21.9231 66.7496 22.0712 66.6015 22.0712 66.4188C22.0712 66.2361 21.9231 66.088 21.7404 66.088C21.5578 66.088 21.4097 66.2361 21.4097 66.4188C21.4097 66.6015 21.5578 66.7496 21.7404 66.7496Z" fill="#CCD8EF"/>
<path d="M36.4523 87.8566H20.293V89.4195H36.4523V87.8566Z" fill="#00426F"/>
<path d="M38.1762 83.4514H32.5809C32.4514 83.4514 32.3481 83.3464 32.3481 83.2186C32.3481 83.0891 32.4532 82.9858 32.5809 82.9858H38.1762C38.3057 82.9858 38.409 83.0909 38.409 83.2186C38.409 83.3464 38.304 83.4514 38.1762 83.4514Z" fill="#FAFFFF"/>
<path d="M32.6021 83.4514H38.1518V88.9679C38.1518 89.2182 37.9488 89.423 37.6968 89.423H33.0571C32.8068 89.423 32.6021 89.22 32.6021 88.9679V83.4514Z" fill="#FAFFFF"/>
<path d="M32.9661 88.9679V83.4514H37.7895V88.9679C37.7895 89.0187 37.7493 89.059 37.6985 89.059H33.0571C33.0063 89.059 32.9661 89.0169 32.9661 88.9679Z" fill="#C5EAFF"/>
<path d="M32.9661 85.4501V88.9679C32.9661 89.0187 33.0063 89.0589 33.0571 89.0589H37.6985C37.7493 89.0589 37.7895 89.0187 37.7895 88.9679V85.4501H32.9661Z" fill="#E25D40"/>
<path opacity="0.4" d="M35.2447 86.5318C35.2447 86.7365 35.0784 86.901 34.8754 86.901C34.6706 86.901 34.5061 86.7348 34.5061 86.5318C34.5061 86.327 34.6724 86.1625 34.8754 86.1625C35.0784 86.1625 35.2447 86.327 35.2447 86.5318Z" fill="#FAFFFF"/>
<path opacity="0.4" d="M36.4434 87.0166C36.4434 87.2494 36.2544 87.4384 36.0216 87.4384C35.7889 87.4384 35.5999 87.2494 35.5999 87.0166C35.5999 86.7839 35.7889 86.5948 36.0216 86.5948C36.2562 86.5948 36.4434 86.7839 36.4434 87.0166Z" fill="#FAFFFF"/>
<path opacity="0.4" d="M34.6828 87.7569C34.6828 87.8619 34.597 87.9477 34.492 87.9477C34.387 87.9477 34.3013 87.8619 34.3013 87.7569C34.3013 87.6519 34.387 87.5662 34.492 87.5662C34.597 87.5662 34.6828 87.6519 34.6828 87.7569Z" fill="#FAFFFF"/>
<path opacity="0.4" d="M35.6435 88.6022C35.8532 88.6022 36.0232 88.4322 36.0232 88.2224C36.0232 88.0127 35.8532 87.8427 35.6435 87.8427C35.4337 87.8427 35.2637 88.0127 35.2637 88.2224C35.2637 88.4322 35.4337 88.6022 35.6435 88.6022Z" fill="#FAFFFF"/>
<path opacity="0.4" d="M38.1518 83.4514H32.6021V83.8119H38.1518V83.4514Z" fill="#43C9C4"/>
<path d="M44.0813 77.8754H41.4211C41.1936 77.8754 41.0081 77.6899 41.0081 77.4624C41.0081 77.2348 41.1936 77.0493 41.4211 77.0493H44.0813C44.3089 77.0493 44.4944 77.2348 44.4944 77.4624C44.4944 77.6899 44.3106 77.8754 44.0813 77.8754Z" fill="#FAFFFF"/>
<path d="M47.0147 85.8912C46.9499 84.0727 45.7231 82.5396 44.0727 81.9936V77.8737H41.4299V81.99C39.72 82.5466 38.4844 84.1515 38.4844 86.0469C38.4844 87.2721 39.0024 88.3782 39.8303 89.1552C40.0123 89.3267 40.2555 89.4213 40.5058 89.4213H44.995C45.247 89.4213 45.4903 89.325 45.6741 89.1535C46.5369 88.3432 47.0619 87.1775 47.0147 85.8912Z" fill="#FAFFFF"/>
<path d="M40.5058 89.0257C40.3536 89.0257 40.2101 88.9697 40.0998 88.8665C39.3122 88.1261 38.8782 87.125 38.8782 86.0469C38.8782 84.365 39.9528 82.8861 41.5507 82.3663L41.8237 82.2771V77.8737H43.6754V82.2788L43.9467 82.3681C45.4868 82.8774 46.5597 84.2968 46.6174 85.9034C46.6577 87.02 46.2131 88.0981 45.401 88.863C45.2908 88.9662 45.1455 89.024 44.9933 89.024H40.5058V89.0257Z" fill="#C5EAFF"/>
<path d="M46.213 84.3248H39.2841C39.0251 84.8481 38.8816 85.4344 38.8816 86.047C38.8816 87.1251 39.3156 88.1279 40.1032 88.8665C40.2117 88.968 40.3552 89.0258 40.5092 89.0258H44.9984C45.1507 89.0258 45.296 88.968 45.4062 88.8648C46.2183 88.0999 46.6628 87.0201 46.6226 85.9052C46.5998 85.3452 46.4563 84.8096 46.213 84.3248Z" fill="#66D3C4"/>
<path opacity="0.4" d="M43.0802 86.9063C43.433 86.9063 43.719 86.6203 43.719 86.2675C43.719 85.9147 43.433 85.6287 43.0802 85.6287C42.7274 85.6287 42.4414 85.9147 42.4414 86.2675C42.4414 86.6203 42.7274 86.9063 43.0802 86.9063Z" fill="#FAFFFF"/>
<path opacity="0.4" d="M44.2021 87.8724C44.3152 87.8724 44.4069 87.7807 44.4069 87.6677C44.4069 87.5546 44.3152 87.4629 44.2021 87.4629C44.089 87.4629 43.9973 87.5546 43.9973 87.6677C43.9973 87.7807 44.089 87.8724 44.2021 87.8724Z" fill="#FAFFFF"/>
<path opacity="0.4" d="M42.0581 84.8218C42.0581 84.8988 41.9951 84.9618 41.9181 84.9618C41.8411 84.9618 41.7781 84.8988 41.7781 84.8218C41.7781 84.7448 41.8411 84.6818 41.9181 84.6818C41.9951 84.6818 42.0581 84.7448 42.0581 84.8218Z" fill="#FAFFFF"/>
<path opacity="0.4" d="M43.0539 80.9172C43.0539 81.052 42.9454 81.1605 42.8107 81.1605C42.6759 81.1605 42.5674 81.052 42.5674 80.9172C42.5674 80.7825 42.6759 80.674 42.8107 80.674C42.9454 80.674 43.0539 80.7825 43.0539 80.9172Z" fill="#FAFFFF"/>
<path opacity="0.4" d="M44.2406 83.3744C44.2406 83.4549 44.1758 83.5214 44.0935 83.5214C44.0113 83.5214 43.9465 83.4567 43.9465 83.3744C43.9465 83.2922 44.0113 83.2274 44.0935 83.2274C44.1758 83.2274 44.2406 83.2939 44.2406 83.3744Z" fill="#FAFFFF"/>
<path opacity="0.4" d="M44.7148 85.4483C44.9265 85.4483 45.0981 85.2767 45.0981 85.065C45.0981 84.8534 44.9265 84.6818 44.7148 84.6818C44.5031 84.6818 44.3315 84.8534 44.3315 85.065C44.3315 85.2767 44.5031 85.4483 44.7148 85.4483Z" fill="#FAFFFF"/>
<path opacity="0.4" d="M42.9264 83.1242C42.9264 83.378 42.7198 83.5827 42.4678 83.5827C42.214 83.5827 42.0093 83.3762 42.0093 83.1242C42.0093 82.8704 42.2158 82.6656 42.4678 82.6656C42.7216 82.6656 42.9264 82.8704 42.9264 83.1242Z" fill="#FAFFFF"/>
<path opacity="0.4" d="M42.0073 87.9477C42.247 87.9477 42.4413 87.7533 42.4413 87.5136C42.4413 87.2739 42.247 87.0796 42.0073 87.0796C41.7676 87.0796 41.5732 87.2739 41.5732 87.5136C41.5732 87.7533 41.7676 87.9477 42.0073 87.9477Z" fill="#FAFFFF"/>
<path opacity="0.4" d="M42.865 85.1141C42.9278 85.1141 42.9787 85.0632 42.9787 85.0004C42.9787 84.9375 42.9278 84.8866 42.865 84.8866C42.8022 84.8866 42.7512 84.9375 42.7512 85.0004C42.7512 85.0632 42.8022 85.1141 42.865 85.1141Z" fill="#FAFFFF"/>
<path opacity="0.4" d="M44.0727 77.8789H41.4299V78.2709H44.0727V77.8789Z" fill="#43C9C4"/>
<path d="M40.9958 85.2699H37.2259C37.0964 85.2699 36.9932 85.1649 36.9932 85.0371C36.9932 84.9076 37.0982 84.8043 37.2259 84.8043H40.9958C41.1253 84.8043 41.2286 84.9093 41.2286 85.0371C41.2303 85.1649 41.1253 85.2699 40.9958 85.2699Z" fill="#FAFFFF"/>
<path d="M37.2452 85.2699H40.9765V88.968C40.9765 89.2183 40.7735 89.423 40.5215 89.423H37.6984C37.4482 89.423 37.2434 89.22 37.2434 88.968V85.2699H37.2452Z" fill="#FAFFFF"/>
<path d="M37.6091 88.968V85.2699H40.6142V88.968C40.6142 89.0188 40.5739 89.059 40.5232 89.059H37.7001C37.6494 89.059 37.6091 89.017 37.6091 88.968Z" fill="#C5EAFF"/>
<path d="M37.6091 88.3098V88.9679C37.6091 89.0186 37.6494 89.0589 37.7001 89.0589H40.5232C40.5739 89.0589 40.6142 89.0186 40.6142 88.9679V88.3098H37.6091Z" fill="#3E80CE"/>
<path opacity="0.4" d="M40.9765 85.2699H37.2451V85.6304H40.9765V85.2699Z" fill="#43C9C4"/>
<path d="M136.103 80.6302H134.05C133.874 80.6302 133.732 80.4867 133.732 80.3117C133.732 80.1349 133.875 79.9932 134.05 79.9932H136.103C136.28 79.9932 136.422 80.1367 136.422 80.3117C136.422 80.4885 136.278 80.6302 136.103 80.6302Z" fill="#FAFFFF"/>
<path d="M138.591 88.2959L136.097 83.5827V80.6301H134.058V83.5827L131.564 88.2959C131.292 88.8087 131.663 89.4247 132.244 89.4247H137.91C138.489 89.4265 138.862 88.8087 138.591 88.2959Z" fill="#FAFFFF"/>
<path d="M132.244 89.1202C132.078 89.1202 131.933 89.0379 131.847 88.8962C131.761 88.7527 131.756 88.5864 131.835 88.4394L134.364 83.6597V80.6301H135.792V83.6597L138.321 88.4394C138.4 88.5864 138.394 88.7527 138.309 88.8962C138.223 89.0397 138.078 89.1202 137.911 89.1202H132.244Z" fill="#C5EAFF"/>
<path d="M136.882 85.7231H133.27L131.833 88.4394C131.754 88.5864 131.76 88.7527 131.845 88.8962C131.931 89.0397 132.076 89.1202 132.243 89.1202H137.908C138.074 89.1202 138.219 89.038 138.305 88.8962C138.391 88.7527 138.396 88.5864 138.317 88.4394L136.882 85.7231Z" fill="#86B6F8"/>
<g opacity="0.4">
<path opacity="0.4" d="M135.563 87.6991C135.663 87.6991 135.745 87.6176 135.745 87.5171C135.745 87.4166 135.663 87.3351 135.563 87.3351C135.462 87.3351 135.381 87.4166 135.381 87.5171C135.381 87.6176 135.462 87.6991 135.563 87.6991Z" fill="#FAFFFF"/>
<path opacity="0.4" d="M134.609 88.0999C134.737 88.0999 134.84 87.9964 134.84 87.8688C134.84 87.7413 134.737 87.6378 134.609 87.6378C134.481 87.6378 134.378 87.7413 134.378 87.8688C134.378 87.9964 134.481 88.0999 134.609 88.0999Z" fill="#FAFFFF"/>
<path opacity="0.4" d="M135.012 86.719C135.012 86.9168 134.851 87.0778 134.653 87.0778C134.455 87.0778 134.294 86.9168 134.294 86.719C134.294 86.5212 134.455 86.3602 134.653 86.3602C134.851 86.3602 135.012 86.5195 135.012 86.719Z" fill="#FAFFFF"/>
<path opacity="0.4" d="M136.315 86.9308C136.315 86.9955 136.263 87.048 136.198 87.048C136.133 87.048 136.081 86.9955 136.081 86.9308C136.081 86.866 136.133 86.8135 136.198 86.8135C136.263 86.8118 136.315 86.866 136.315 86.9308Z" fill="#FAFFFF"/>
<path opacity="0.4" d="M136.791 87.9878C136.791 88.0998 136.7 88.1908 136.588 88.1908C136.476 88.1908 136.385 88.0998 136.385 87.9878C136.385 87.8758 136.476 87.7848 136.588 87.7848C136.699 87.7848 136.791 87.8758 136.791 87.9878Z" fill="#FAFFFF"/>
<path opacity="0.4" d="M133.641 88.1909C133.641 88.3712 133.496 88.5164 133.316 88.5164C133.135 88.5164 132.99 88.3712 132.99 88.1909C132.99 88.0106 133.135 87.8654 133.316 87.8654C133.496 87.8654 133.641 88.0124 133.641 88.1909Z" fill="#FAFFFF"/>
<path opacity="0.4" d="M137.421 88.3099C137.421 88.3746 137.369 88.4271 137.304 88.4271C137.239 88.4271 137.187 88.3746 137.187 88.3099C137.187 88.2451 137.239 88.1926 137.304 88.1926C137.369 88.1926 137.421 88.2451 137.421 88.3099Z" fill="#FAFFFF"/>
<path opacity="0.4" d="M135.778 88.1909C135.778 88.2504 135.731 88.2976 135.671 88.2976C135.612 88.2976 135.564 88.2504 135.564 88.1909C135.564 88.1314 135.612 88.0841 135.671 88.0841C135.731 88.0841 135.778 88.1331 135.778 88.1909Z" fill="#FAFFFF"/>
<path opacity="0.4" d="M134.051 87.3351C134.051 87.3946 134.003 87.4418 133.944 87.4418C133.884 87.4418 133.837 87.3946 133.837 87.3351C133.837 87.2756 133.884 87.2283 133.944 87.2283C134.003 87.2266 134.051 87.2756 134.051 87.3351Z" fill="#FAFFFF"/>
</g>
<path opacity="0.4" d="M136.097 80.6301H134.058V80.9329H136.097V80.6301Z" fill="#43C9C4"/>
<path d="M183 89.4265H0V91.4165H183V89.4265Z" fill="white"/>
<path d="M183 91H0V96H183V91Z" fill="#B9C5D5"/>
<path d="M183 91.4147H0V92.1235H183V91.4147Z" fill="#002D5A"/>
<path d="M154.122 89.4265H149.268L147.926 86.3602H152.779L154.122 89.4265Z" fill="#B5C6FF"/>
<path d="M157.679 86.7435H141.667C141.158 86.7435 140.745 86.3304 140.745 85.8212V75.5284C140.745 75.0191 141.158 74.6061 141.667 74.6061H157.679C158.189 74.6061 158.602 75.0191 158.602 75.5284V85.8212C158.602 86.3287 158.189 86.7435 157.679 86.7435Z" fill="white"/>
<path d="M157.679 85.8193V75.5266H141.667V85.8193H157.679Z" fill="#E3F3FE"/>
<path d="M150.441 80.6722C150.441 81.0485 150.136 81.353 149.76 81.353C149.384 81.353 149.079 81.0485 149.079 80.6722C149.079 80.2959 149.384 79.9914 149.76 79.9914C150.136 79.9931 150.441 80.2976 150.441 80.6722ZM150.973 80.6722C150.973 78.8607 150.441 77.4431 149.76 77.4431C149.079 77.4431 148.547 78.8607 148.547 80.6722C148.547 82.4836 149.079 83.9012 149.76 83.9012C150.441 83.9012 150.973 82.4836 150.973 80.6722ZM150.817 80.6722C150.817 82.3383 150.334 83.7455 149.76 83.7455C149.186 83.7455 148.703 82.3383 148.703 80.6722C148.703 79.006 149.188 77.5989 149.76 77.5989C150.332 77.5989 150.817 79.0078 150.817 80.6722ZM152.557 82.2876C152.896 81.6978 151.936 80.5287 150.367 79.6221C148.799 78.7172 147.305 78.4687 146.965 79.0585C146.626 79.6483 147.586 80.8174 149.155 81.724C150.149 82.2981 151.113 82.6079 151.773 82.6079C152.153 82.6061 152.433 82.5028 152.557 82.2876ZM150.289 79.7586C151.731 80.5917 152.707 81.7135 152.422 82.2106C152.135 82.7076 150.675 82.4223 149.233 81.5893C147.791 80.7562 146.815 79.6343 147.1 79.1373C147.196 78.971 147.422 78.8923 147.737 78.8923C148.36 78.8923 149.33 79.2038 150.289 79.7586ZM150.367 81.724C151.936 80.8192 152.898 79.6483 152.557 79.0585C152.217 78.4705 150.723 78.7172 149.155 79.6221C147.586 80.5269 146.624 81.6978 146.965 82.2876C147.089 82.5028 147.369 82.6061 147.751 82.6061C148.409 82.6061 149.373 82.2963 150.367 81.724ZM152.422 79.1373C152.709 79.6326 151.731 80.7562 150.289 81.5893C148.847 82.4223 147.385 82.7076 147.1 82.2106C146.813 81.7153 147.791 80.5917 149.233 79.7586C150.194 79.2038 151.162 78.8923 151.787 78.8923C152.098 78.8923 152.326 78.971 152.422 79.1373Z" fill="white"/>
<path d="M152.735 89.0258H142.586V89.4265H152.735V89.0258Z" fill="#00426F"/>
<path d="M62.2163 86.9193L63.4793 88.9167C63.6745 89.2248 63.5815 89.6326 63.2734 89.8278C62.9653 90.023 62.5576 89.93 62.3624 89.6219L61.0994 87.6245L62.2163 86.9193Z" fill="#128C43"/>
<path d="M54.0249 86.9193L52.7619 88.9167C52.5667 89.2248 52.6596 89.6326 52.9677 89.8278C53.2759 90.023 53.6836 89.93 53.8788 89.6219L55.1418 87.6245L54.0249 86.9193Z" fill="#128C43"/>
<path d="M61.7367 78.2925L62.5447 79.0026L63.7317 77.6519L62.9237 76.9418L61.7367 78.2925Z" fill="white"/>
<path d="M62.968 76.6867L63.9787 77.5751C64.0676 77.6535 64.0756 77.789 63.9986 77.8766L63.6599 78.2631C63.5816 78.3521 63.4461 78.36 63.3585 78.283L62.3478 77.3945C62.2588 77.3162 62.2509 77.1807 62.3279 77.093L62.6665 76.7066C62.7436 76.6163 62.879 76.6083 62.968 76.6867Z" fill="#709DE7"/>
<path d="M53.3163 76.9403L52.5083 77.6504L53.6953 79.001L54.5033 78.2909L53.3163 76.9403Z" fill="white"/>
<path d="M53.2745 76.6867L52.2638 77.5751C52.1748 77.6535 52.1669 77.789 52.2439 77.8766L52.5826 78.2631C52.6609 78.3521 52.7964 78.36 52.884 78.283L53.8947 77.3945C53.9837 77.3162 53.9916 77.1807 53.9146 77.093L53.5759 76.7066C53.4976 76.6163 53.3635 76.6083 53.2745 76.6867Z" fill="#709DE7"/>
<path d="M57.3907 77.5072H58.8516V74.9215H57.3907V77.5072Z" fill="white"/>
<path d="M57.113 75.9998H59.1277V74.6305H57.113V75.9998Z" fill="#709DE7"/>
<path d="M59.5269 89.3059C62.8885 88.5289 64.9837 85.1739 64.2067 81.8124C63.4297 78.4508 60.0747 76.3556 56.7131 77.1326C53.3516 77.9095 51.2563 81.2645 52.0333 84.6261C52.8103 87.9877 56.1653 90.0829 59.5269 89.3059Z" fill="#128C43"/>
<path d="M58.1206 88.6074C61.0963 88.6074 63.5086 86.1951 63.5086 83.2194C63.5086 80.2437 61.0963 77.8314 58.1206 77.8314C55.1449 77.8314 52.7327 80.2437 52.7327 83.2194C52.7327 86.1951 55.1449 88.6074 58.1206 88.6074Z" fill="white"/>
<path d="M59.2778 88.21C62.0343 87.5705 63.7504 84.8175 63.1109 82.0611C62.4714 79.3046 59.7184 77.5885 56.9619 78.228C54.2055 78.8676 52.4894 81.6205 53.1289 84.377C53.7684 87.1334 56.5214 88.8495 59.2778 88.21Z" fill="#F6F9FA"/>
<path d="M58.1207 86.4784C59.9206 86.4784 61.3797 85.0192 61.3797 83.2193C61.3797 81.4193 59.9206 79.9602 58.1207 79.9602C56.3207 79.9602 54.8616 81.4193 54.8616 83.2193C54.8616 85.0192 56.3207 86.4784 58.1207 86.4784Z" fill="#F7E4E8"/>
<path d="M57.7288 83.2194C57.7288 83.4359 57.9041 83.6112 58.1205 83.6112C58.337 83.6112 58.5123 83.4359 58.5123 83.2194C58.5123 83.0029 58.337 82.8276 58.1205 82.8276C57.9041 82.8276 57.7288 83.0029 57.7288 83.2194Z" fill="#D1807D"/>
<path d="M58.1207 79.6229C58.2004 79.6229 58.2642 79.5591 58.2642 79.4794V78.5166C58.2642 78.4369 58.2004 78.3732 58.1207 78.3732C58.041 78.3732 57.9773 78.4369 57.9773 78.5166V79.4794C57.9773 79.5578 58.0424 79.6229 58.1207 79.6229Z" fill="#D1807D"/>
<path d="M54.5229 83.2194C54.5229 83.1397 54.4592 83.0759 54.3795 83.0759H53.4166C53.3369 83.0759 53.2732 83.1397 53.2732 83.2194C53.2732 83.299 53.3369 83.3628 53.4166 83.3628H54.3795C54.4592 83.3628 54.5229 83.299 54.5229 83.2194Z" fill="#D1807D"/>
<path d="M58.1207 86.817C58.041 86.817 57.9773 86.8808 57.9773 86.9604V87.9233C57.9773 88.003 58.041 88.0667 58.1207 88.0667C58.2004 88.0667 58.2642 88.003 58.2642 87.9233V86.9604C58.2642 86.8821 58.2004 86.817 58.1207 86.817Z" fill="#D1807D"/>
<path d="M61.7185 83.2194C61.7185 83.299 61.7823 83.3628 61.8619 83.3628H62.8248C62.9045 83.3628 62.9682 83.299 62.9682 83.2194C62.9682 83.1397 62.9045 83.0759 62.8248 83.0759H61.8619C61.7823 83.0773 61.7185 83.141 61.7185 83.2194Z" fill="#D1807D"/>
<path d="M55.5776 80.6761C55.6334 80.6203 55.6334 80.53 55.5776 80.4742L54.8963 79.7929C54.8405 79.7372 54.7502 79.7372 54.6944 79.7929C54.6386 79.8487 54.6386 79.939 54.6944 79.9948L55.3757 80.6761C55.4302 80.7319 55.5218 80.7319 55.5776 80.6761Z" fill="#D1807D"/>
<path d="M55.5773 85.764C55.5216 85.7082 55.4313 85.7082 55.3755 85.764L54.6942 86.4453C54.6384 86.5011 54.6384 86.5914 54.6942 86.6472C54.75 86.7029 54.8403 86.7029 54.896 86.6472L55.5773 85.9659C55.6331 85.9101 55.6331 85.8198 55.5773 85.764Z" fill="#D1807D"/>
<path d="M60.6651 85.764C60.6093 85.8198 60.6093 85.9101 60.6651 85.9659L61.3464 86.6472C61.4022 86.7029 61.4925 86.7029 61.5483 86.6472C61.6041 86.5914 61.6041 86.5011 61.5483 86.4453L60.867 85.764C60.8112 85.7082 60.7209 85.7082 60.6651 85.764Z" fill="#D1807D"/>
<path d="M60.6651 80.6761C60.7209 80.7319 60.8112 80.7319 60.867 80.6761L61.5483 79.9948C61.6041 79.939 61.6041 79.8487 61.5483 79.7929C61.4925 79.7372 61.4022 79.7372 61.3464 79.7929L60.6651 80.4742C60.6093 80.53 60.6093 80.6203 60.6651 80.6761Z" fill="#D1807D"/>
<path d="M58.1206 80.3986L58.3637 83.2194H58.1206H57.8789L58.1206 80.3986Z" fill="#D1807D"/>
</svg>
