<?xml version="1.0" encoding="utf-8"?>
<!-- Generator: Adobe Illustrator 24.0.1, SVG Export Plug-In . SVG Version: 6.00 Build 0)  -->
<svg version="1.1" id="Layer_1" xmlns="http://www.w3.org/2000/svg" xmlns:xlink="http://www.w3.org/1999/xlink" x="0px" y="0px"
	viewBox="0 0 256 256" enable-background="new 0 0 256 256">
<g>
	<g>
		<path fill="#3B4652" d="M249.5,28H211V0h-8v28h-25V0h-8v28h-62V0h-8v28H74V0h-8v28H28.4c-3.3,0-6.1,3-6.5,6l0,0
			c-1.4,53-3.7,143-21.5,194.1c-0.6,1.8-0.4,3.8,0.8,5.4c1,1.6,2.8,2.5,4.8,2.5h16v13.4c0,3.6,2.8,6.6,6.4,6.6h221.1
			c3.6,0,6.5-3,6.5-6.6V34.6C256,31,253.1,28,249.5,28z M14.1,224c15.4-52,18-132,19.4-183H34v-1h32v8.4c-4,1.6-7.7,6.1-7.7,11.3
			c0,6.6,5.4,12,12,12s11.8-5.4,11.8-12c0-5.2-3.1-9.7-8.1-11.3V40h26v8.4c-5,1.6-7.8,6.1-7.8,11.3c0,6.6,5.4,12,12,12
			s11.9-5.4,11.9-12c0-5.2-3-9.7-8-11.3V40h62v8.4c-5,1.6-8.1,6.1-8.1,11.3c0,6.6,5.2,12,11.8,12s12.1-5.4,12.1-12
			c0-5.2-2.8-9.7-7.8-11.3V40h25v8.4c-5,1.6-7.7,6.1-7.7,11.3c0,6.6,5.4,12,12,12s11.8-5.4,11.8-12c0-5.2-3.1-9.7-8.1-11.3V40h31.8
			c-0.2,57-7,134-22.4,184H14.1z M244,244H34v-8h190.7c2.6,0,4.8-1.7,5.6-4.1c5.6-17,9.6-37.4,13.6-59.2L244,244L244,244z"/>
		<rect x="67" y="86" fill="#3B4652" width="16" height="8"/>
		<rect x="91" y="86" fill="#3B4652" width="16" height="8"/>
		<rect x="40" y="86" fill="#3B4652" width="20" height="8"/>
		<rect x="163" y="86" fill="#3B4652" width="16" height="8"/>
		<rect x="115" y="86" fill="#3B4652" width="16" height="8"/>
		<rect x="210" y="86" fill="#3B4652" width="20" height="8"/>
		<rect x="187" y="86" fill="#3B4652" width="15" height="8"/>
		<rect x="139" y="86" fill="#3B4652" width="16" height="8"/>
	</g>
	<path fill="#2B79C1" d="M175.4,196c3.8,0,5.4-1.7,6.6-9.5c1.2-7.8,0.2-9.5-3.7-9.5h-8.5l8.5-56.4c0.8-5.2-1.8-5.8-10-5.8
		c-1.8,0-5.3,0.5-7.8,1.4l-12,3.2c-4.2,1.2-5.5,2.7-6.9,11.5c-1.3,8.9,0.5,9.2,2.1,9.2c0.6,0,2.1-0.1,3.9-0.5l6.2-1.2L148,177h-8.3
		c-3.8,0-5.4,1.7-6.6,9.5c-1.2,7.8-0.2,9.5,3.7,9.5H175.4z M94.5,196.8c16.8,0,28-5.7,30.8-23.9c2-13.3-2.3-18.5-12.7-18.9
		c9.3-1,15.3-9,16.9-19.5c2.5-16.8-6.3-20.4-19.6-20.4c-8.7,0-18.5,1-24,2.5c-2.1,0.5-3.2,0.9-4.5,9.2c-1,6.7,0.1,8.5,2.1,8.5
		c2.3,0,10.5-1.4,18-1.4c4.9,0,5.7,1.9,5.2,5.3c-0.9,5.9-4.6,7.9-13.6,7.9c-4.5,0-5.5,2.3-6.4,8.3c-0.9,5.9-0.6,8.3,3.9,8.3
		c10.1,0,13.9,1,13,7.2c-0.8,5.2-2.8,8.3-10.5,8.3c-7.6,0-15.6-1.4-18.5-1.4c-2.2,0-3.4,1.4-4.5,8.5c-1.2,7.9-0.3,8.5,2.7,9.4
		C77,195.8,86.7,196.8,94.5,196.8z"/>
</g>
</svg>
