<?xml version="1.0" encoding="utf-8"?>
<!-- Generator: Adobe Illustrator 24.0.1, SVG Export Plug-In . SVG Version: 6.00 Build 0)  -->
<svg version="1.1" id="Layer_1" xmlns="http://www.w3.org/2000/svg" xmlns:xlink="http://www.w3.org/1999/xlink"
	width="35" height="35" viewBox="0 0 256 256">
<g id="Layer_2_1_">
</g>
	<g id="Layer_1_1_">
	<g>
		<path fill-rule="evenodd" clip-rule="evenodd" fill="#373737" d="M34,40c-1.5,54.2-4.4,133.1-19.8,184h205.9
			c15.8-51.1,22.4-129.8,22.6-184H211v8.4c4.7,1.6,8,6.1,8,11.3c0,6.6-5.4,12-12,12s-12-5.4-12-12c0-5.2,3.3-9.7,8-11.3V40h-26v8.4
			c4.7,1.6,8,6.1,8,11.3c0,6.6-5.4,12-12,12s-12-5.4-12-12c0-5.2,3.3-9.7,8-11.3V40h-60v8.4c4.7,1.6,8,5.4,8,11.3s-5.4,12-12,12
			s-12-6.1-12-12s3.3-9.7,8-11.3V40H75v8.4c4.7,1.6,8,5.4,8,11.3s-5.4,12-12,12s-12-6.1-12-12s3.3-9.7,8-11.3V40H34L34,40z M58,86v8
			H38v-8H58L58,86z M230,86v8h-20v-8H230L230,86z M202,86v8h-16v-8H202L202,86z M178,86v8h-16v-8H178L178,86z M154,86v8h-16v-8H154
			L154,86z M130,86v8h-16v-8H130L130,86z M106,86v8H90v-8H106L106,86z M82,86v8H66v-8H82L82,86z M22,33.9c0.1-3.3,3.2-5.9,6.6-5.9
			H67V0h8v28h26V0h8v28h60V0h8v28h26V0h8v28h38.4c3.6,0,6.6,3,6.6,6.6v214.8c0,3.6-3,6.6-6.6,6.6H28.6c-3.6,0-6.6-3-6.6-6.6V236H6
			c-4.1,0-6.9-3.9-5.7-7.7c0.1-0.2,0.2-0.5,0.2-0.7C9,203,14,170.4,17,136.2C20,102.2,20.9,68,22,33.9L22,33.9z M34,236v8h210v-71.5
			c-3.7,22.1-8.2,42.5-13.8,59.3c-0.9,2.7-3.5,4.3-6.2,4.1L34,236L34,236z"/>
		<path fill="#373737" d="M93.3,196.8c16.9,0,28.3-5.7,31-23.9c2-13.3-2.4-18.5-12.8-18.9c9.3-1,15.5-9,17-19.5
			c2.5-16.8-6.3-20.4-19.8-20.4c-8.8,0-18.6,1-24.2,2.5c-2.1,0.5-3.2,0.9-4.5,9.2c-1,6.7,0.1,8.5,2.1,8.5c2.3,0,10.6-1.4,18.2-1.4
			c4.9,0,5.8,1.9,5.3,5.3c-0.9,5.9-4.7,7.9-13.7,7.9c-4.5,0-5.5,2.3-6.4,8.3c-0.9,5.9-0.6,8.3,3.9,8.3c10.2,0,14.1,1,13.1,7.2
			c-0.8,5.2-2.8,8.3-10.6,8.3c-7.6,0-15.7-1.4-18.7-1.4c-2.2,0-3.4,1.4-4.5,8.5c-1.2,7.9-0.3,8.5,2.7,9.4
			C75.6,195.8,85.4,196.8,93.3,196.8L93.3,196.8z M174.8,196.2c3.9,0,5.4-1.8,6.6-9.6c1.2-7.8,0.2-9.6-3.7-9.6h-8.5l8.6-56.5
			c0.8-5.2-1.8-5.8-10.1-5.8c-1.8,0-5.4,0.5-7.8,1.4l-12.1,3.2c-4.2,1.2-5.6,2.7-6.9,11.5c-1.4,8.9,0.5,9.2,2.1,9.2
			c0.6,0,2.1-0.1,4-0.5l6.2-1.2l-5.9,38.6h-8.4c-3.9,0-5.4,1.8-6.6,9.6c-1.2,7.8-0.2,9.6,3.7,9.6L174.8,196.2L174.8,196.2z"/>
	</g>
</g>
</svg>
