<svg fill="none" height="35" viewBox="0 0 35 35" width="35" xmlns="http://www.w3.org/2000/svg" xmlns:xlink="http://www.w3.org/1999/xlink"><linearGradient id="a" gradientUnits="userSpaceOnUse" x1="8" x2="8" y1="8" y2="28"><stop offset="0" stop-color="#42b8eb"/><stop offset="1" stop-color="#165fd8"/></linearGradient><path clip-rule="evenodd" d="m16.5 25c-4.6944 0-8.5-3.8056-8.5-8.5s3.8056-8.5 8.5-8.5 8.5 3.8056 8.5 8.5c0 1.9869-.6817 3.8145-1.824 5.2618l4.5311 4.5311c.3905.3905.3905 1.0237 0 1.4142s-1.0237.3905-1.4142 0l-4.5311-4.5311c-1.4473 1.1423-3.2749 1.824-5.2618 1.824zm4.6598-3.9683c-.023.0192-.0453.0396-.0669.0612s-.042.0439-.0612.0669c-1.1708 1.1388-2.7693 1.8402-4.5317 1.8402-3.5899 0-6.5-2.9101-6.5-6.5s2.9101-6.5 6.5-6.5 6.5 2.9101 6.5 6.5c0 1.7624-.7014 3.3609-1.8402 4.5317z" fill="url(#a)" fill-rule="evenodd"/></svg>