<svg width="268" height="202" viewBox="0 0 268 202" fill="none" xmlns="http://www.w3.org/2000/svg">
<path d="M42.631 98.4612C50.4421 96.0911 59.8109 96.4564 65.3485 90.46C69.6268 85.8268 70.0203 78.4924 67.4988 72.7113C64.9787 66.9302 60.0188 62.5316 54.6431 59.2364C49.1932 55.8951 43.1092 53.436 38.4314 49.076C33.7537 44.7161 30.7792 37.5777 33.6304 31.856C37.2612 24.5676 47.2998 23.9765 55.4035 24.7666C72.2701 26.4105 88.9942 29.6062 105.926 30.2908C122.858 30.9754 140.368 28.9765 155.255 20.8803C164.07 16.0867 171.712 9.2988 180.694 4.8245C189.677 0.35168 200.996 -1.4719 209.45 3.93647C217.159 8.86815 220.51 18.5994 220.789 27.7455C221.069 36.8916 218.844 45.91 217.974 55.019C217.104 64.128 217.788 73.9438 223.139 81.3659C226.452 85.9634 231.259 89.2289 235.235 93.2666C245.518 103.709 249.757 119.722 245.99 133.883C243.693 142.521 238.462 150.277 231.547 155.901C226.741 159.809 220.176 164.489 214.368 166.782C206.244 169.989 195.85 170.133 187.221 170.46C168.259 171.179 149.162 168.532 131.141 162.569C116.621 157.763 102.104 150.752 86.8632 152.038C74.1056 153.115 62.028 160.004 49.2615 159.025C34.9921 157.931 22.3786 145.721 20.8208 131.495C19.263 117.267 28.9363 102.616 42.631 98.4612Z" fill="#E4EDFA"/>
<path d="M134 201.514C207.781 201.514 267.592 198.911 267.592 195.699C267.592 192.487 207.781 189.884 134 189.884C60.2192 189.884 0.407959 192.487 0.407959 195.699C0.407959 198.911 60.2192 201.514 134 201.514Z" fill="#C9DAF4"/>
<path d="M210.075 63.8071H57.925V146.929H210.075V63.8071Z" fill="#145ED7"/>
<path d="M214.478 52.6102H53.5219C49.7693 52.6102 46.7281 55.653 46.7281 59.4041V156.964C46.7281 160.717 49.7693 163.76 53.5219 163.76H214.478C218.231 163.76 221.272 160.717 221.272 156.964V59.4041C221.272 55.653 218.231 52.6102 214.478 52.6102ZM215.164 152.018H52.8344V58.718H215.164V152.018Z" fill="#145ED7"/>
<path d="M210.075 63.8071H57.925V146.929H210.075V63.8071Z" fill="#E4EDFA"/>
<path d="M52.8344 58.718V152.018H215.164V58.718H52.8344ZM210.075 146.929H57.925V63.8071H210.075V146.929Z" fill="#C9DAF4"/>
<path d="M137.79 158.829C138.129 156.739 136.71 154.77 134.619 154.43C132.529 154.091 130.559 155.511 130.22 157.601C129.881 159.691 131.3 161.661 133.391 162C135.481 162.339 137.451 160.92 137.79 158.829Z" fill="#050F64"/>
<path d="M153.385 163.76H114.615V183.381H153.385V163.76Z" fill="#050F64"/>
<path d="M181 196H89L93.3501 183H176.65L181 196Z" fill="#145ED7"/>
<path d="M178.498 52.6057V189.408H88.7476V52.6057C88.7476 48.8917 85.7375 45.8772 82.0235 45.8772H171.771V45.8787L171.772 45.8772C175.488 45.8772 178.498 48.8917 178.498 52.6057Z" fill="white"/>
<path d="M166.922 45.8772C169.713 46.5945 171.746 49.8021 171.746 52.6072L171.816 182.726H95.4301L95.3618 52.6057C95.3618 50.1525 94.1278 47.5181 92.1676 45.8772H89.052C91.8438 46.5945 93.8768 49.8021 93.8768 52.6072L93.9466 184.211H173.301L173.231 52.6057C173.231 50.1525 171.997 47.5181 170.037 45.8772H166.922Z" fill="#C9DAF4"/>
<path d="M82.0221 45.8789L82.0238 45.8772H82.0221V45.8789Z" fill="white"/>
<path d="M88.7476 52.6057H75.2935C75.2935 48.8917 78.3036 45.8772 82.022 45.8772C85.7375 45.8772 88.7476 48.8917 88.7476 52.6057Z" fill="#050F64"/>
<path d="M119.977 71.5975H103.31V54.9283H119.977V71.5975ZM104.725 70.1808H118.562V56.3436H104.725V70.1808Z" fill="#C9DAF4"/>
<path d="M164.371 57.285H123.051V58.7002H164.371V57.285Z" fill="#145ED7"/>
<path d="M164.371 62.5553H123.051V63.9705H164.371V62.5553Z" fill="#C9DAF4"/>
<path d="M152.096 67.8254H123.051V69.2406H152.096V67.8254Z" fill="#C9DAF4"/>
<path d="M119.977 92.8597H103.31V76.192H119.977V92.8597ZM104.725 91.4445H118.562V77.6072H104.725V91.4445Z" fill="#C9DAF4"/>
<path d="M164.371 78.5472H123.051V79.9625H164.371V78.5472Z" fill="#145ED7"/>
<path d="M164.371 83.8175H123.051V85.2327H164.371V83.8175Z" fill="#C9DAF4"/>
<path d="M152.096 89.0878H123.051V90.503H152.096V89.0878Z" fill="#C9DAF4"/>
<path d="M111.219 89.9803L106.18 86.593C105.856 86.3747 105.769 85.9351 105.987 85.6099C106.205 85.2862 106.645 85.1986 106.97 85.4169L110.846 88.0215L116.587 79.6491C116.808 79.3269 117.249 79.2452 117.571 79.465C117.894 79.6862 117.975 80.1273 117.756 80.4495L111.219 89.9803Z" fill="#FCB951"/>
<path d="M119.977 114.123H103.31V97.4542H119.977V114.123ZM104.725 112.707H118.562V98.8694H104.725V112.707Z" fill="#C9DAF4"/>
<path d="M164.371 99.8109H123.051V101.226H164.371V99.8109Z" fill="#145ED7"/>
<path d="M164.371 105.081H123.051V106.497H164.371V105.081Z" fill="#C9DAF4"/>
<path d="M152.096 110.35H123.051V111.765H152.096V110.35Z" fill="#C9DAF4"/>
<path d="M111.219 111.243L106.18 107.855C105.856 107.637 105.769 107.197 105.987 106.872C106.205 106.549 106.645 106.461 106.97 106.679L110.846 109.284L116.587 100.911C116.808 100.589 117.249 100.508 117.571 100.727C117.894 100.949 117.975 101.39 117.756 101.712L111.219 111.243Z" fill="#FCB951"/>
<path d="M119.977 135.386H103.31V118.718H119.977V135.386ZM104.725 133.97H118.562V120.133H104.725V133.97Z" fill="#C9DAF4"/>
<path d="M164.371 121.073H123.051V122.488H164.371V121.073Z" fill="#145ED7"/>
<path d="M164.371 126.344H123.051V127.759H164.371V126.344Z" fill="#C9DAF4"/>
<path d="M152.096 131.614H123.051V133.029H152.096V131.614Z" fill="#C9DAF4"/>
<path d="M111.219 132.506L106.18 129.119C105.856 128.901 105.769 128.461 105.987 128.136C106.205 127.812 106.645 127.724 106.97 127.943L110.846 130.547L116.587 122.175C116.808 121.853 117.249 121.771 117.571 121.991C117.894 122.212 117.975 122.653 117.756 122.975L111.219 132.506Z" fill="#FCB951"/>
<path d="M119.977 156.648H103.31V139.98H119.977V156.648ZM104.725 155.233H118.562V141.395H104.725V155.233Z" fill="#C9DAF4"/>
<path d="M111.219 153.275L106.18 149.888C105.856 149.67 105.769 149.23 105.987 148.905C106.205 148.581 106.645 148.494 106.97 148.712L110.846 151.317L116.587 142.944C116.808 142.622 117.249 142.54 117.571 142.76C117.894 142.981 117.975 143.422 117.756 143.745L111.219 153.275Z" fill="#FCB951"/>
<path d="M164.371 142.337H123.051V143.752H164.371V142.337Z" fill="#145ED7"/>
<path d="M164.371 147.606H123.051V149.021H164.371V147.606Z" fill="#C9DAF4"/>
<path d="M152.096 152.876H123.051V154.291H152.096V152.876Z" fill="#C9DAF4"/>
<path d="M119.977 177.912H103.31V161.244H119.977V177.912ZM104.725 176.495H118.562V162.658H104.725V176.495Z" fill="#C9DAF4"/>
<path d="M164.371 163.599H123.051V165.014H164.371V163.599Z" fill="#145ED7"/>
<path d="M164.371 168.869H123.051V170.285H164.371V168.869Z" fill="#C9DAF4"/>
<path d="M152.096 174.14H123.051V175.555H152.096V174.14Z" fill="#C9DAF4"/>
<path d="M111.219 175.031L106.18 171.643C105.856 171.425 105.769 170.986 105.987 170.66C106.205 170.335 106.645 170.249 106.97 170.467L110.846 173.072L116.587 164.7C116.808 164.377 117.249 164.296 117.571 164.515C117.894 164.737 117.975 165.178 117.756 165.5L111.219 175.031Z" fill="#FCB951"/>
<path d="M235.375 93.4954V120.588C235.375 124.175 232.465 127.083 228.879 127.083H184.111C180.525 127.083 177.615 124.175 177.615 120.588V93.4954C177.615 89.9076 180.525 87 184.111 87H228.879C232.465 87 235.375 89.9076 235.375 93.4954Z" fill="white"/>
<path d="M235.375 93.4954V97.692H177.615V93.4954C177.615 89.9076 180.525 87 184.111 87H228.879C232.465 87 235.375 89.9076 235.375 93.4954Z" fill="#145ED7"/>
<path d="M196.145 109.874H188.23V101.959H196.145V109.874ZM188.903 109.201H195.474V102.63H188.903V109.201Z" fill="#145ED7"/>
<path d="M191.986 108.506L189.593 106.898C189.439 106.794 189.399 106.586 189.501 106.431C189.605 106.277 189.813 106.237 189.968 106.339L191.808 107.576L194.534 103.601C194.639 103.448 194.849 103.409 195.002 103.513C195.155 103.619 195.193 103.828 195.089 103.981L191.986 108.506Z" fill="#FCB951"/>
<path d="M196.145 121.259H188.23V113.344H196.145V121.259ZM188.903 120.588H195.474V114.017H188.903V120.588Z" fill="#145ED7"/>
<path d="M212.01 101.957V109.872H219.925V101.957H212.01ZM219.253 109.201H212.682V102.63H219.253V109.201Z" fill="#145ED7"/>
<path d="M219.925 121.259H212.01V113.344H219.925V121.259ZM212.682 120.588H219.253V114.017H212.682V120.588Z" fill="#145ED7"/>
<path d="M222.228 107.407C222.228 107.815 222.439 108.019 222.86 108.019H224.76V108.834H222.86C221.876 108.834 221.384 108.357 221.384 107.405V104.55C221.384 103.598 221.876 103.121 222.86 103.121H224.76V103.936H222.86C222.439 103.936 222.228 104.14 222.228 104.548V107.407Z" fill="#145ED7"/>
<path d="M223.705 114.51C224.69 114.51 225.181 114.986 225.181 115.938V118.794C225.181 119.746 224.688 120.222 223.705 120.222H221.384V114.511H223.705V114.51ZM224.338 115.938C224.338 115.53 224.127 115.326 223.705 115.326H222.229V119.406H223.705C224.127 119.406 224.338 119.202 224.338 118.794V115.938Z" fill="#145ED7"/>
<path d="M202.246 108.736H201.402L201.01 107.512H198.842L198.45 108.736H197.607L199.378 103.025H200.476L202.246 108.736ZM199.099 106.695H200.753L199.926 103.84L199.099 106.695Z" fill="#145ED7"/>
<path d="M199.919 114.446C200.903 114.446 201.395 114.922 201.395 115.874V116.283C201.395 116.881 201.156 117.221 200.677 117.303C201.156 117.384 201.395 117.725 201.395 118.323V118.731C201.395 119.683 200.903 120.16 199.919 120.16H197.598V114.449H199.919V114.446ZM198.443 115.262V116.894H199.919C200.34 116.894 200.551 116.691 200.551 116.283V115.874C200.551 115.466 200.34 115.262 199.919 115.262H198.443ZM198.443 117.71V119.342H199.919C200.34 119.342 200.551 119.138 200.551 118.73V118.322C200.551 117.913 200.34 117.71 199.919 117.71H198.443Z" fill="#145ED7"/>
<path d="M149.217 74.5185V101.611C149.217 105.199 146.308 108.106 142.721 108.106H66.7266C63.1403 108.106 60.2312 105.199 60.2312 101.611V74.5185C60.2312 70.9307 63.1403 68.0231 66.7266 68.0231H142.721C146.308 68.0231 149.217 70.9307 149.217 74.5185Z" fill="white"/>
<path d="M149.217 74.5185V78.7151H60.2312V74.5185C60.2312 70.9307 63.1403 68.0231 66.7266 68.0231H142.721C146.308 68.0231 149.217 70.9307 149.217 74.5185Z" fill="#145ED7"/>
<path d="M93.0229 84.0996H80.2207V84.7723H93.0229V84.0996Z" fill="#145ED7"/>
<path d="M99.842 86.6018H80.2207V87.2745H99.842V86.6018Z" fill="#C9DAF4"/>
<path d="M99.842 89.1056H80.2207V89.7783H99.842V89.1056Z" fill="#C9DAF4"/>
<path d="M74.8034 82.9814C72.6175 82.9814 70.8459 84.753 70.8459 86.939C70.8459 89.1249 72.6175 90.8965 74.8034 90.8965C76.9894 90.8965 78.761 89.1249 78.761 86.939C78.761 84.753 76.9894 82.9814 74.8034 82.9814ZM74.8034 90.3025C72.9487 90.3025 71.4399 88.7937 71.4399 86.939C71.4399 85.0842 72.9487 83.5754 74.8034 83.5754C76.6582 83.5754 78.167 85.0842 78.167 86.939C78.167 88.7937 76.6582 90.3025 74.8034 90.3025Z" fill="#145ED7"/>
<path d="M75.5608 89.0848C76.7443 88.6651 77.3635 87.3656 76.9438 86.1821C76.5242 84.9987 75.2247 84.3795 74.0412 84.7991C72.8578 85.2188 72.2386 86.5183 72.6582 87.7018C73.0779 88.8852 74.3774 89.5044 75.5608 89.0848Z" fill="#FCB951"/>
<path d="M93.0229 95.5505H80.2207V96.2232H93.0229V95.5505Z" fill="#145ED7"/>
<path d="M99.842 98.0542H80.2207V98.7269H99.842V98.0542Z" fill="#C9DAF4"/>
<path d="M99.842 100.556H80.2207V101.229H99.842V100.556Z" fill="#C9DAF4"/>
<path d="M74.8034 94.4323C72.6175 94.4323 70.8459 96.2039 70.8459 98.3898C70.8459 100.576 72.6175 102.347 74.8034 102.347C76.9894 102.347 78.761 100.576 78.761 98.3898C78.761 96.2039 76.9894 94.4323 74.8034 94.4323ZM74.8034 101.753C72.9487 101.753 71.4399 100.245 71.4399 98.3898C71.4399 96.535 72.9487 95.0263 74.8034 95.0263C76.6582 95.0263 78.167 96.535 78.167 98.3898C78.167 100.245 76.6582 101.753 74.8034 101.753Z" fill="#145ED7"/>
<path d="M131.783 84.0996H118.981V84.7723H131.783V84.0996Z" fill="#145ED7"/>
<path d="M138.602 86.6019H118.981V87.2746H138.602V86.6019Z" fill="#C9DAF4"/>
<path d="M138.602 89.1056H118.981V89.7783H138.602V89.1056Z" fill="#C9DAF4"/>
<path d="M115.723 87.6517C115.329 88.8442 114.043 89.4916 112.851 89.0981C111.658 88.7046 111.011 87.4186 111.404 86.2261C111.798 85.0337 113.084 84.3862 114.276 84.7797C115.47 85.1732 116.118 86.4593 115.723 87.6517Z" fill="#FCB951"/>
<path d="M131.783 95.5504H118.981V96.2231H131.783V95.5504Z" fill="#145ED7"/>
<path d="M138.602 98.0542H118.981V98.7269H138.602V98.0542Z" fill="#C9DAF4"/>
<path d="M138.602 100.556H118.981V101.229H138.602V100.556Z" fill="#C9DAF4"/>
<path d="M113.563 90.8965C115.749 90.8965 117.521 89.1249 117.521 86.939C117.521 84.753 115.749 82.9814 113.563 82.9814C111.378 82.9814 109.606 84.753 109.606 86.939C109.606 89.1249 111.378 90.8965 113.563 90.8965ZM113.563 83.5754C115.418 83.5754 116.927 85.0842 116.927 86.939C116.927 88.7937 115.418 90.3025 113.563 90.3025C111.709 90.3025 110.2 88.7937 110.2 86.939C110.2 85.0842 111.709 83.5754 113.563 83.5754Z" fill="#145ED7"/>
<path d="M113.564 94.4323C111.378 94.4323 109.606 96.2039 109.606 98.3898C109.606 100.576 111.378 102.347 113.564 102.347C115.749 102.347 117.521 100.576 117.521 98.3898C117.521 96.2039 115.749 94.4323 113.564 94.4323ZM113.564 101.753C111.709 101.753 110.2 100.245 110.2 98.3898C110.2 96.535 111.709 95.0263 113.564 95.0263C115.418 95.0263 116.927 96.535 116.927 98.3898C116.927 100.245 115.418 101.753 113.564 101.753Z" fill="#145ED7"/>
<path d="M115.723 99.1026C115.329 100.295 114.043 100.943 112.851 100.549C111.658 100.156 111.011 98.8695 111.404 97.677C111.798 96.4846 113.084 95.8371 114.276 96.2307C115.47 96.6242 116.118 97.9102 115.723 99.1026Z" fill="#FCB951"/>
<path d="M186.908 69.716V108.46C186.908 112.047 183.999 114.955 180.412 114.955H104.417C100.831 114.955 97.922 112.047 97.922 108.46V69.716C97.922 66.1282 100.831 63.2206 104.417 63.2206H180.412C183.999 63.2206 186.908 66.1282 186.908 69.716Z" fill="white"/>
<path d="M186.908 69.716V73.9126H97.922V69.716C97.922 66.1282 100.831 63.2206 104.417 63.2206H180.412C183.999 63.2206 186.908 66.1282 186.908 69.716Z" fill="#145ED7"/>
<path d="M123.243 65.9444L124.701 69.8194L126.156 65.9444H127.292V71H126.417V69.3333L126.504 67.1042L125.011 71H124.382L122.892 67.1076L122.979 69.3333V71H122.104V65.9444H123.243ZM132.191 69.3542C132.14 69.8935 131.941 70.3148 131.594 70.6181C131.247 70.919 130.785 71.0694 130.208 71.0694C129.806 71.0694 129.45 70.9745 129.142 70.7847C128.837 70.5926 128.601 70.3206 128.434 69.9687C128.267 69.6169 128.181 69.2083 128.174 68.7431V68.2708C128.174 67.794 128.258 67.3738 128.427 67.0104C128.596 66.647 128.838 66.3669 129.153 66.1701C129.47 65.9734 129.836 65.875 130.25 65.875C130.808 65.875 131.257 66.0266 131.597 66.3299C131.938 66.6331 132.136 67.0613 132.191 67.6146H131.316C131.274 67.2512 131.168 66.9896 130.997 66.8299C130.828 66.6678 130.579 66.5868 130.25 66.5868C129.868 66.5868 129.574 66.7269 129.368 67.0069C129.164 67.2847 129.06 67.6933 129.056 68.2326V68.6806C129.056 69.2269 129.153 69.6435 129.347 69.9306C129.544 70.2176 129.831 70.3611 130.208 70.3611C130.553 70.3611 130.813 70.2836 130.986 70.1285C131.16 69.9734 131.27 69.7153 131.316 69.3542H132.191ZM135.809 69.8229H133.851L133.441 71H132.528L134.438 65.9444H135.226L137.139 71H136.222L135.809 69.8229ZM134.097 69.1146H135.563L134.83 67.0174L134.097 69.1146ZM140.951 66.6528H139.375V71H138.504V66.6528H136.941V65.9444H140.951V66.6528ZM146.625 66.6528H145.049V71H144.177V66.6528H142.615V65.9444H146.625V66.6528ZM150.247 68.7431H148.17V70.2986H150.597V71H147.292V65.9444H150.573V66.6528H148.17V68.0486H150.247V68.7431ZM153.955 69.6979C153.955 69.4757 153.876 69.3044 153.719 69.184C153.564 69.0637 153.282 68.9421 152.875 68.8194C152.468 68.6968 152.144 68.5602 151.903 68.4097C151.442 68.1204 151.212 67.7431 151.212 67.2778C151.212 66.8704 151.377 66.5347 151.708 66.2708C152.042 66.0069 152.473 65.875 153.004 65.875C153.355 65.875 153.669 65.9398 153.945 66.0694C154.22 66.1991 154.436 66.3843 154.594 66.625C154.751 66.8634 154.83 67.1285 154.83 67.4201H153.955C153.955 67.1562 153.872 66.9502 153.705 66.8021C153.541 66.6516 153.304 66.5764 152.997 66.5764C152.71 66.5764 152.486 66.6377 152.326 66.7604C152.169 66.8831 152.09 67.0544 152.09 67.2743C152.09 67.4595 152.176 67.6146 152.347 67.7396C152.519 67.8623 152.801 67.9826 153.195 68.1007C153.588 68.2164 153.904 68.3495 154.142 68.5C154.381 68.6481 154.556 68.8194 154.667 69.0139C154.778 69.206 154.833 69.4317 154.833 69.691C154.833 70.1123 154.671 70.4479 154.347 70.6979C154.026 70.9456 153.588 71.0694 153.035 71.0694C152.669 71.0694 152.332 71.0023 152.024 70.8681C151.719 70.7315 151.48 70.544 151.309 70.3056C151.14 70.0671 151.056 69.7894 151.056 69.4722H151.934C151.934 69.7593 152.029 69.9815 152.219 70.1389C152.409 70.2963 152.681 70.375 153.035 70.375C153.34 70.375 153.57 70.3137 153.722 70.191C153.877 70.066 153.955 69.9016 153.955 69.6979ZM159.257 66.6528H157.681V71H156.809V66.6528H155.247V65.9444H159.257V66.6528Z" fill="#FAFFFF"/>
<path d="M161.302 38.0668C161.443 38.8708 161.26 39.6963 160.752 40.5433C160.257 41.3879 159.558 42.1256 158.655 42.7564C157.751 43.3872 156.814 43.7881 155.844 43.9591C155.289 44.0567 154.859 43.9681 154.553 43.6933C154.25 43.4322 154.001 42.9115 153.807 42.1312L154.026 41.7924C154.612 41.875 155.224 41.8601 155.861 41.7478C156.763 41.589 157.478 41.27 158.008 40.7908C158.538 40.3115 158.752 39.7807 158.65 39.1985C158.554 38.6579 158.189 38.2864 157.553 38.084C156.915 37.8677 155.849 37.7838 154.357 37.8323L154.13 37.6365C154.04 36.4803 153.93 35.3277 153.799 34.1788C153.682 33.0274 153.601 32.2842 153.557 31.9491L153.694 31.7534L157.681 30.9009C158.092 30.7999 158.378 30.6781 158.539 30.5355C158.699 30.3929 158.801 30.1605 158.845 29.8384L159.974 29.5538L159.971 32.7057L159.769 33.0199C159.545 33.0451 159.02 33.109 158.195 33.2115C157.381 33.2976 156.51 33.4225 155.581 33.5861L155.741 35.466C157.463 35.5057 158.78 35.7169 159.69 36.0996C160.601 36.4823 161.138 37.138 161.302 38.0668ZM164.146 38.0588C165.031 36.5881 165.643 35.437 165.982 34.6054C166.319 33.7599 166.445 33.0946 166.359 32.6094C166.288 32.2074 166.123 31.9151 165.862 31.7323C165.601 31.5496 165.263 31.4949 164.847 31.5681C164.445 31.639 164.054 31.8578 163.676 32.2246C163.309 32.5751 163.017 33.0267 162.8 33.5795L162.509 33.6307L161.884 32.1543C162.3 31.3521 162.826 30.6877 163.463 30.1612C164.113 29.6322 164.805 29.303 165.54 29.1736C166.51 29.0027 167.337 29.1142 168.021 29.5083C168.703 29.8884 169.114 30.4805 169.256 31.2845C169.334 31.7281 169.304 32.2051 169.165 32.7155C169.026 33.2259 168.741 33.8765 168.308 34.6672C167.887 35.4417 167.249 36.4832 166.393 37.7916L166.506 37.9433L168.502 37.5917C169.153 37.4769 169.589 37.2715 169.808 36.9756C170.039 36.6634 170.158 36.1208 170.165 35.3478L171.719 34.9239C171.708 35.1832 171.706 35.7409 171.714 36.5971C171.719 37.4394 171.757 38.2189 171.826 38.9356L171.579 39.2364C171.022 39.3202 169.9 39.4821 168.212 39.7221C166.539 39.9597 165.294 40.1505 164.476 40.2946L163.178 40.7162L162.891 40.0593L164.146 38.0588ZM173.053 35.9968C172.916 35.2205 173.032 34.5426 173.402 33.9629C173.785 33.3809 174.264 32.8963 174.839 32.5092C174.133 32.2333 173.549 31.8789 173.087 31.4458C172.639 31.0102 172.352 30.439 172.228 29.732C172.118 29.1082 172.195 28.4942 172.461 27.8901C172.726 27.286 173.149 26.7684 173.731 26.3372C174.312 25.9061 174.998 25.6209 175.788 25.4817C176.426 25.3694 177.037 25.3904 177.621 25.5446C178.217 25.6826 178.721 25.9441 179.132 26.3291C179.54 26.7002 179.796 27.1769 179.898 27.7591C180.015 28.4245 179.928 29.0258 179.637 29.563C179.36 30.0978 178.988 30.5421 178.521 30.8958C179.255 31.1668 179.859 31.5106 180.332 31.9274C180.806 32.3442 181.105 32.9061 181.229 33.6131C181.356 34.3339 181.278 35.0266 180.995 35.691C180.71 36.3416 180.258 36.9 179.64 37.3662C179.019 37.8186 178.286 38.1192 177.44 38.2682C176.345 38.4611 175.376 38.3531 174.532 37.9444C173.702 37.5332 173.209 36.884 173.053 35.9968ZM174.573 28.8044C174.626 29.1094 174.772 29.3695 175.01 29.5849C175.246 29.7863 175.517 29.9458 175.823 30.0633C176.144 30.1784 176.591 30.3212 177.164 30.4918C177.64 29.9505 177.817 29.3334 177.695 28.6402C177.597 28.0858 177.376 27.6817 177.031 27.428C176.687 27.1743 176.278 27.089 175.807 27.172C175.364 27.2501 175.026 27.4453 174.796 27.7575C174.579 28.0673 174.504 28.4163 174.573 28.8044ZM177.523 36.6672C178.022 36.5793 178.404 36.3548 178.669 35.9936C178.948 35.6301 179.046 35.2126 178.963 34.7413C178.904 34.4086 178.742 34.137 178.476 33.9266C178.211 33.7161 177.919 33.5603 177.601 33.4591C177.294 33.3416 176.779 33.1751 176.055 32.9596C175.367 33.5954 175.089 34.2945 175.224 35.0569C175.319 35.5975 175.581 36.0302 176.01 36.3548C176.45 36.6632 176.954 36.7673 177.523 36.6672Z" fill="#FF6340"/>
<path d="M192.875 31.6283C193.444 34.8576 191.505 38.3919 187.51 41.5003C183.545 44.5856 177.71 47.1126 170.941 48.3049C164.173 49.4972 157.825 49.1163 153.044 47.5715C148.228 46.0153 145.197 43.3565 144.629 40.1271C144.06 36.8978 145.999 33.3635 149.994 30.2551C153.959 27.1698 159.794 24.6428 166.563 23.4505C173.331 22.2582 179.679 22.6391 184.46 24.1839C189.276 25.7401 192.307 28.3989 192.875 31.6283Z" stroke="#FF6A48" stroke-width="1.48454"/>
<path d="M116.45 86.0925H108.535V78.1775H116.45V86.0925ZM109.208 85.4213H115.779V78.8502H109.208V85.4213Z" fill="#145ED7"/>
<path d="M112.629 84.7248L110.237 83.1166C110.082 83.0126 110.042 82.8047 110.145 82.6503C110.249 82.4958 110.457 82.4557 110.611 82.5582L112.451 83.7952L115.177 79.8199C115.283 79.6669 115.492 79.6283 115.645 79.7322C115.798 79.8377 115.837 80.0471 115.733 80.2L112.629 84.7248Z" fill="#FCB951"/>
<path d="M130.712 79.2971H117.91V79.9698H130.712V79.2971Z" fill="#145ED7"/>
<path d="M137.531 81.7994H117.91V82.4721H137.531V81.7994Z" fill="#C9DAF4"/>
<path d="M137.531 84.3016H117.91V84.9743H137.531V84.3016Z" fill="#C9DAF4"/>
<path d="M116.45 97.4795H108.535V89.5645H116.45V97.4795ZM109.208 96.8083H115.779V90.2372H109.208V96.8083Z" fill="#145ED7"/>
<path d="M130.712 90.6842H117.91V91.3569H130.712V90.6842Z" fill="#145ED7"/>
<path d="M137.531 93.1864H117.91V93.8591H137.531V93.1864Z" fill="#C9DAF4"/>
<path d="M137.531 95.6886H117.91V96.3613H137.531V95.6886Z" fill="#C9DAF4"/>
<path d="M112.291 96.1118L109.898 94.5035C109.744 94.3996 109.704 94.1917 109.806 94.0372C109.91 93.8828 110.118 93.8427 110.273 93.9452L112.113 95.1822L114.839 91.2068C114.944 91.0539 115.154 91.0153 115.307 91.1192C115.46 91.2246 115.498 91.434 115.394 91.587L112.291 96.1118Z" fill="#FCB951"/>
<path d="M116.45 108.866H108.535V100.951H116.45V108.866ZM109.208 108.194H115.779V101.623H109.208V108.194Z" fill="#145ED7"/>
<path d="M112.629 107.571L110.237 105.963C110.082 105.859 110.042 105.651 110.145 105.496C110.249 105.342 110.457 105.302 110.611 105.404L112.451 106.641L115.177 102.666C115.283 102.513 115.492 102.474 115.645 102.578C115.798 102.684 115.837 102.893 115.733 103.046L112.629 107.571Z" fill="#FCB951"/>
<path d="M130.712 102.071H117.91V102.744H130.712V102.071Z" fill="#145ED7"/>
<path d="M137.531 104.573H117.91V105.246H137.531V104.573Z" fill="#C9DAF4"/>
<path d="M137.531 107.076H117.91V107.748H137.531V107.076Z" fill="#C9DAF4"/>
<path d="M155.212 86.0925H147.297V78.1775H155.212V86.0925ZM147.968 85.4213H154.539V78.8502H147.968V85.4213Z" fill="#145ED7"/>
<path d="M169.474 79.2971H156.671V79.9698H169.474V79.2971Z" fill="#145ED7"/>
<path d="M176.293 81.7994H156.671V82.4721H176.293V81.7994Z" fill="#C9DAF4"/>
<path d="M176.293 84.3016H156.671V84.9743H176.293V84.3016Z" fill="#C9DAF4"/>
<path d="M151.052 84.7248L148.66 83.1166C148.505 83.0126 148.465 82.8047 148.568 82.6503C148.672 82.4958 148.88 82.4557 149.034 82.5582L150.874 83.7952L153.6 79.8199C153.706 79.6669 153.915 79.6283 154.068 79.7322C154.221 79.8377 154.26 80.0471 154.156 80.2L151.052 84.7248Z" fill="#FCB951"/>
<path d="M155.212 97.4795H147.297V89.5645H155.212V97.4795ZM147.968 96.8083H154.539V90.2372H147.968V96.8083Z" fill="#145ED7"/>
<path d="M151.052 96.1479L148.66 94.5397C148.505 94.4357 148.465 94.2278 148.568 94.0734C148.672 93.9189 148.88 93.8788 149.034 93.9813L150.874 95.2183L153.6 91.243C153.706 91.09 153.915 91.0514 154.068 91.1553C154.221 91.2608 154.26 91.4702 154.156 91.6231L151.052 96.1479Z" fill="#FCB951"/>
<path d="M169.474 90.6842H156.671V91.3569H169.474V90.6842Z" fill="#145ED7"/>
<path d="M176.293 93.1864H156.671V93.8591H176.293V93.1864Z" fill="#C9DAF4"/>
<path d="M176.293 95.6886H156.671V96.3613H176.293V95.6886Z" fill="#C9DAF4"/>
<path d="M155.212 108.866H147.297V100.951H155.212V108.866ZM147.968 108.194H154.539V101.623H147.968V108.194Z" fill="#145ED7"/>
<path d="M169.474 102.071H156.671V102.744H169.474V102.071Z" fill="#145ED7"/>
<path d="M176.293 104.573H156.671V105.246H176.293V104.573Z" fill="#C9DAF4"/>
<path d="M176.293 107.076H156.671V107.748H176.293V107.076Z" fill="#C9DAF4"/>
<path d="M151.052 107.499L148.66 105.89C148.505 105.787 148.465 105.579 148.568 105.424C148.672 105.27 148.88 105.23 149.034 105.332L150.874 106.569L153.6 102.594C153.706 102.441 153.915 102.402 154.068 102.506C154.221 102.612 154.26 102.821 154.156 102.974L151.052 107.499Z" fill="#FCB951"/>
<path d="M11.4394 179.044C9.82604 180.605 8.82978 182.764 8.82978 185.147C8.82978 189.917 12.8168 193.782 17.7342 193.782H94.5932V195.908H17.4653C11.5303 195.908 6.70572 191.08 6.70572 185.147C6.70572 182.272 7.82385 179.57 9.85699 177.538C11.8882 175.507 14.5907 174.387 17.4653 174.387H94.5932V176.513H17.7342C15.2774 176.513 13.0489 177.48 11.4394 179.044Z" fill="#2196F5"/>
<path d="M28.8324 139.224C26.9656 139.224 25.2749 140.002 24.0523 141.259C22.8297 142.516 22.0714 144.254 22.0714 146.171C22.0714 150.009 25.0988 153.119 28.8324 153.119H91.3955V139.224H28.8324Z" fill="white"/>
<path d="M19.8911 159.429C18.4828 160.789 17.6104 162.668 17.6104 164.743C17.6104 168.895 21.0963 172.259 25.3967 172.259H94.5932V174.387H25.1258C19.8079 174.387 15.4844 170.061 15.4844 164.743C15.4844 162.167 16.4864 159.747 18.3087 157.924C20.1291 156.104 22.551 155.1 25.1278 155.1H94.5951V157.226H25.3986C23.2475 157.228 21.2994 158.07 19.8911 159.429Z" fill="#FCB951"/>
<path d="M29.2908 139.224H94.5932V137.098H29.02C26.5961 137.098 24.3172 138.042 22.6033 139.756C20.8893 141.47 19.9453 143.749 19.9453 146.173C19.9453 151.177 24.0155 155.247 29.02 155.247H94.5932V153.121H29.2908C25.3038 153.121 22.0732 150.011 22.0732 146.173C22.0732 144.254 22.8819 142.517 24.1876 141.261C25.4934 140.002 27.2983 139.224 29.2908 139.224Z" fill="#109731"/>
<path d="M17.7362 176.515C15.2775 176.515 13.0509 177.482 11.4394 179.043C9.82802 180.604 8.83176 182.763 8.83176 185.148C8.83176 189.917 12.8187 193.784 17.7362 193.784H91.3956V176.515H17.7362Z" fill="white"/>
<path d="M25.3967 157.228C23.2475 157.228 21.2995 158.07 19.8912 159.43C18.4809 160.79 17.6104 162.668 17.6104 164.744C17.6104 168.895 21.0964 172.259 25.3967 172.259H91.3955V157.227H25.3967V157.228Z" fill="white"/>
<path d="M82.5436 169.08L92.7691 169.15C92.7647 168.799 92.6972 168.463 92.488 168.189C92.2483 167.873 91.8561 167.707 91.4661 167.635C91.0761 167.566 90.6752 167.581 90.2786 167.559C89.309 167.505 88.3525 167.221 87.5092 166.735C87.0691 166.485 86.6573 166.176 86.1823 165.999L83.3955 166.053C83.012 166.461 82.7615 166.999 82.6394 167.55C82.5305 168.054 82.5152 168.568 82.5436 169.08Z" fill="#050F64"/>
<path d="M70.5402 169.036L80.7657 169.152C80.7614 168.801 80.6982 168.463 80.489 168.191C80.2493 167.875 79.8593 167.705 79.4693 167.633C79.0793 167.561 78.6784 167.574 78.284 167.55C77.3144 167.492 76.36 167.204 75.519 166.716C75.081 166.463 74.6692 166.154 74.1942 165.975L71.4053 166.016C71.0196 166.424 70.769 166.96 70.6448 167.511C70.5315 168.01 70.5141 168.524 70.5402 169.036Z" fill="#050F64"/>
<path d="M58.5345 132.204C58.9551 129.487 61.5022 127.624 64.2193 128.047C64.2214 128.047 64.2236 128.047 64.2258 128.049L85.1431 130.158C85.1627 130.161 85.1823 130.161 85.2019 130.163C85.2542 130.167 85.3043 130.174 85.3566 130.18L85.4394 130.189V130.193C87.2762 130.474 88.6337 132.05 88.6576 133.893V133.899C88.6598 134.017 88.6533 134.137 88.6446 134.257L88.6424 134.285H88.6446L86.5724 166.127L83.5024 166.058L81.3453 137.76L64.2846 137.88C63.7726 137.965 63.2409 137.974 62.7006 137.891H62.6962C59.9748 137.469 58.1118 134.924 58.5345 132.204Z" fill="#050F64"/>
<path d="M84.4502 124.252L82.5676 123.284L81.7397 125.345L83.7573 125.979C84.2693 126.154 84.8119 125.932 84.9949 125.474C85.1779 125.016 84.9383 124.48 84.4502 124.252Z" fill="#EA8096"/>
<path d="M81.7148 125.493L82.765 123.122C80.2027 121.791 77.6708 120.427 75.4004 118.849C74.2674 118.06 73.2063 117.215 72.2606 116.296C71.315 115.376 70.4805 114.389 69.7832 113.317C68.38 111.177 67.4845 108.72 66.8766 106.109C66.5781 104.802 66.3515 103.458 66.1685 102.096L66.0399 101.072L65.9331 100.037L65.8809 99.5203L65.8395 98.9995L65.7567 97.958C65.7523 97.9079 65.7479 97.8556 65.7414 97.8055C65.6869 97.3632 65.5431 96.9536 65.3252 96.5853C65.1073 96.2193 64.8306 95.8925 64.4929 95.6266C63.8218 95.0972 62.9394 94.803 62.0046 94.8902H61.9959C61.035 94.9839 60.2136 95.4697 59.671 96.1888C59.1219 96.9056 58.8779 97.8578 59.0435 98.8405L59.2679 99.9561L59.3812 100.514L59.5054 101.072C59.5904 101.444 59.6688 101.815 59.7582 102.187L60.0349 103.303C60.4206 104.791 60.8585 106.277 61.388 107.754C61.9262 109.229 62.5559 110.696 63.3228 112.112C64.0876 113.528 64.994 114.894 66.0464 116.141C67.0945 117.389 68.2951 118.498 69.5588 119.459C70.8247 120.422 72.1582 121.237 73.507 121.954C74.8579 122.671 76.224 123.292 77.5945 123.869C78.9694 124.449 80.3421 124.978 81.7148 125.493Z" fill="white"/>
<path d="M65.9602 100.277L66.0844 100.221L66.0648 100.024L66.0125 99.5081L65.8905 97.9458C65.8861 97.8935 65.8818 97.8412 65.8752 97.789C65.8207 97.3401 65.6748 96.9131 65.4438 96.5187C65.3588 96.377 65.2673 96.242 65.1671 96.1156L65.0865 96.2223C65.1758 96.3378 65.2564 96.4598 65.3327 96.584C65.5484 96.9501 65.6944 97.3619 65.7467 97.8042C65.7532 97.8543 65.7576 97.9066 65.7619 97.9567L65.8447 98.9982L65.8861 99.519L65.9384 100.035L65.9602 100.277ZM66.8426 105.949L66.9647 105.901C66.7751 105.049 66.6052 104.134 66.4526 103.136L66.3263 103.166C66.4679 104.108 66.6378 105.036 66.8426 105.949ZM59.0096 99.3076L59.149 99.3469L59.0488 98.8436C58.881 97.8609 59.125 96.9087 59.6763 96.1918C60.2188 95.4728 61.0403 94.9869 62.0012 94.8932L62.0099 94.8911C62.7289 94.8235 63.4153 94.9804 63.9992 95.2985L64.0798 95.1939C63.4479 94.8453 62.7289 94.6949 61.999 94.7625H61.9903C61.5109 94.8104 61.0577 94.9499 60.6437 95.1808C60.2254 95.414 59.8659 95.7277 59.5739 96.1134C58.9921 96.8717 58.7546 97.8739 58.9224 98.8632L59.0096 99.3076ZM64.167 113.795L64.2672 113.712C63.9338 113.192 63.6223 112.658 63.3281 112.117C62.5611 110.699 61.9314 109.235 61.3933 107.76C60.8638 106.282 60.4258 104.796 60.0402 103.308L59.7634 102.193C59.7613 102.184 59.7591 102.177 59.7569 102.169L59.6371 102.221V102.223L59.9138 103.341C60.3452 105.003 60.7897 106.463 61.2712 107.805C61.8639 109.429 62.4979 110.858 63.2148 112.183C63.5155 112.734 63.8336 113.274 64.167 113.795ZM70.3441 120.19C71.2876 120.848 72.3117 121.469 73.4512 122.075C74.6627 122.718 75.9656 123.33 77.5497 123.994C78.1097 124.23 78.6849 124.465 79.3102 124.711L79.2667 124.554C78.711 124.334 78.1554 124.108 77.5998 123.875C76.2293 123.299 74.8609 122.676 73.5122 121.959C72.4598 121.399 71.4161 120.778 70.4073 120.075C70.3855 120.114 70.3659 120.151 70.3441 120.19ZM76.3862 119.512L76.421 119.38C76.1007 119.17 75.7826 118.959 75.4732 118.743C74.2661 117.902 73.2442 117.072 72.3509 116.203C71.3834 115.261 70.5555 114.268 69.8909 113.246C69.5466 112.721 69.2264 112.165 68.93 111.579L68.7993 111.61C69.0956 112.198 69.4224 112.769 69.782 113.318C70.4792 114.39 71.3159 115.377 72.2594 116.296C73.205 117.214 74.2661 118.061 75.397 118.85C75.7238 119.077 76.0528 119.297 76.3862 119.512ZM77.3972 120.151C79.1141 121.203 80.9313 122.173 82.7659 123.123L82.28 124.219C82.3106 124.254 82.3411 124.291 82.3738 124.328L82.9337 123.064L82.8269 123.007C81.1361 122.129 79.2601 121.138 77.4604 120.035L77.3972 120.151Z" fill="#145ED7"/>
<path d="M46.3111 133.107C53.5079 135.192 58.077 132.433 66.0104 128.228C66.0104 128.228 65.0691 102.543 64.9013 101.615C64.3152 98.3774 62.2387 95.717 59.3081 94.634C59.0227 94.5273 58.7329 94.438 58.4344 94.3639C57.4168 94.1046 56.3361 94.0305 55.2271 94.1678C54.9351 94.2048 54.6475 94.2527 54.3642 94.3116C53.7498 94.4401 53.1549 94.621 52.5862 94.8498C49.3767 96.1353 46.9756 98.9243 46.189 102.302C45.9995 103.112 45.9036 103.955 45.9123 104.82L46.3111 133.107Z" fill="white"/>
<path d="M59.3886 94.4118C59.0944 94.3028 58.7937 94.2091 58.493 94.135C57.7849 93.9542 57.055 93.8649 56.3207 93.8649C55.9481 93.8649 55.5733 93.8888 55.1986 93.9324C55.1659 93.9368 55.1354 93.9389 55.1027 93.9455L55.2291 94.1677C56.3381 94.0283 57.4167 94.1046 58.4342 94.3638C58.7327 94.4357 59.0247 94.5294 59.3101 94.634C61.9901 95.6276 63.9555 97.935 64.7203 100.802L64.9556 100.765C64.1669 97.7673 62.134 95.4271 59.3886 94.4118ZM65.581 128.455C58.6325 132.148 54.2595 134.645 48.2436 133.562L48.176 133.789C49.1456 133.965 50.0869 134.052 51.0195 134.052C55.5646 134.052 59.4801 131.969 64.899 129.087C65.0733 128.995 65.35 128.845 65.6114 128.705L65.581 128.455ZM45.9318 122.933L46.0494 131.326L46.2847 131.346L46.1671 122.933H45.9318ZM65.7248 114.505H65.4916C65.6115 117.632 65.7335 120.789 65.8272 123.286L66.0603 123.186C65.9644 120.7 65.8468 117.591 65.7248 114.505ZM65.2345 103.075H64.9992C65.058 104.191 65.1343 105.86 65.2171 107.816L65.4502 107.856C65.3696 105.89 65.2933 104.206 65.2345 103.075ZM49.2611 96.6495C47.6378 98.1137 46.4699 100.059 45.9601 102.245C45.764 103.082 45.6703 103.949 45.6768 104.822L45.7814 112.178L46.0167 112.231L45.9122 104.818C45.9056 103.955 45.9993 103.11 46.1889 102.299C46.6857 100.162 47.8296 98.2641 49.4158 96.8282L49.2611 96.6495Z" fill="#145ED7"/>
<path d="M56.2423 97.4947C56.6324 97.3945 57.0224 97.2921 57.4102 97.1897C59.637 105.304 60.7265 113.913 60.5151 122.748C59.9159 123.613 59.3059 124.463 58.6827 125.297C58.1794 124.406 57.6652 123.53 57.1357 122.672C58.0661 114.165 57.7414 105.685 56.2423 97.4947Z" fill="#145ED7"/>
<path d="M58.8199 89.6052L58.3754 95.937C56.933 96.7367 55.5516 96.643 54.2334 95.656L54.6779 89.3241L58.8199 89.6052Z" fill="#F4BCC7"/>
<path d="M58.8199 89.6052L58.6194 92.4682C58.3209 92.5597 58.005 92.612 57.6782 92.6164C57.5736 92.6186 57.469 92.6142 57.3644 92.6076C56.2248 92.5292 55.1899 91.93 54.5602 91.0214L54.68 89.3219L58.8199 89.6052Z" fill="#EA8096"/>
<path d="M60.9749 85.8619L60.5719 89.5681C60.4106 91.0498 59.1665 92.1784 57.6718 92.2024C56.3121 92.222 55.0723 91.418 54.5668 90.163C54.2335 89.3328 53.9437 88.3741 53.6757 87.3675C53.2443 85.7595 53.7127 84.0163 54.9481 82.8942C56.0027 81.9377 57.2599 81.7045 58.7351 82.2471C60.2254 82.7918 61.1449 84.2865 60.9749 85.8619Z" fill="#F4BCC7"/>
<path d="M60.2994 83.8442C60.2994 83.8442 60.977 85.1036 60.8093 87.3827C60.8093 87.3827 61.3671 85.1058 60.9988 83.293L60.2994 83.8442Z" fill="#050F64"/>
<path d="M52.3379 87.313C52.3379 87.313 50.3856 84.28 52.5318 82.0096C54.8458 79.5627 56.3361 79.8503 57.9354 80.3101C59.9574 80.8918 61.0403 81.6152 61.8225 81.4605C62.2387 81.3777 62.6135 81.0335 62.6767 81.271C62.7399 81.5085 62.8248 82.9051 61.6352 83.927C60.4455 84.9489 58.9181 84.7681 57.4299 83.9684C55.9417 83.1688 55.2314 83.2537 54.5865 84.1689C53.9023 85.1385 54.7847 86.9361 54.7847 86.9361L54.3206 87.0951C54.3206 87.0929 52.5928 86.0514 52.3379 87.313Z" fill="#050F64"/>
<path d="M55.2793 87.1408C55.227 87.9013 54.4883 88.47 53.632 88.4111C52.7757 88.3523 52.1242 87.6899 52.1765 86.9295C52.2288 86.1691 52.9675 85.6004 53.8238 85.6592C54.6822 85.718 55.3337 86.3826 55.2793 87.1408Z" fill="#F4BCC7"/>
<path d="M52.5884 94.8499L55.7848 99.7633L56.8307 97.3491L59.2493 99.3231L59.3103 94.6342C59.0248 94.5274 58.7852 94.449 58.4888 94.3749L56.7501 96.2749L54.3315 94.3204C53.7127 94.4468 53.1571 94.6211 52.5884 94.8499Z" fill="#145ED7"/>
<path d="M46.3895 132.152C46.8732 129.444 49.4617 127.642 52.1679 128.126C52.17 128.126 52.1722 128.126 52.1744 128.128L72.9828 130.714C72.9937 130.714 73.0024 130.716 73.0133 130.716C73.1026 130.725 73.1898 130.736 73.2769 130.751L73.3336 130.758V130.76C75.1268 131.078 76.4428 132.636 76.4646 134.451V134.458C76.4668 134.575 76.4603 134.695 76.4515 134.815L76.4494 134.843H76.4515L74.715 166.125L71.1765 166.001L69.1349 138.234L52.0045 137.957C51.4902 138.031 50.9586 138.027 50.4204 137.931H50.4161C47.7077 137.447 45.9058 134.859 46.3895 132.152Z" fill="#050F64"/>
<path d="M56.408 138.029V138.327L68.8582 138.528L70.8998 166.293L74.9961 166.435L75.5626 156.222L75.2684 156.172L74.7172 166.128L71.1787 166.003L69.1371 138.234L56.408 138.029ZM76.4494 134.841L76.1182 140.805H76.4167L76.7501 134.808C76.7545 134.747 76.7566 134.689 76.761 134.632L76.7675 134.508H76.7653C76.7653 134.492 76.7653 134.445 76.7653 134.445C76.7435 132.571 75.4493 130.963 73.6517 130.518L73.6539 130.496L73.3162 130.451C73.2225 130.435 73.131 130.424 73.0416 130.416L73.0177 130.414L71.8585 130.27L71.7953 130.564L72.985 130.712C72.9959 130.714 73.0046 130.714 73.0155 130.714C73.1048 130.721 73.192 130.734 73.2813 130.749L73.3358 130.756V130.758C75.129 131.076 76.445 132.632 76.4668 134.449V134.453C76.4668 134.573 76.4625 134.691 76.4538 134.813L76.4494 134.841Z" fill="#145ED7"/>
<path d="M74.5341 127.565L72.5992 126.703L71.8867 128.805L73.937 129.326C74.4578 129.47 74.9873 129.219 75.1441 128.753C75.3032 128.289 75.0352 127.766 74.5341 127.565Z" fill="#F4BCC7"/>
<path d="M71.8695 128.956L72.7868 126.531C70.1547 125.345 67.5509 124.123 65.1956 122.674C64.0211 121.948 62.9143 121.164 61.9207 120.299C60.9249 119.434 60.0381 118.493 59.2799 117.462C57.7612 115.403 56.7306 113 55.9767 110.426C55.6063 109.137 55.3056 107.807 55.0463 106.459L54.8611 105.443L54.6977 104.417L54.6171 103.905L54.5473 103.386L54.4079 102.352C54.4014 102.301 54.3926 102.251 54.3839 102.201C54.3055 101.763 54.1377 101.36 53.9024 101.007C53.6627 100.654 53.3707 100.343 53.0178 100.096C52.3183 99.6039 51.4206 99.3599 50.4924 99.4993L50.4837 99.5015C49.5294 99.6475 48.7362 100.179 48.2329 100.929C47.7231 101.674 47.5335 102.639 47.7536 103.611L48.039 104.711L48.1828 105.26L48.3375 105.812C48.4421 106.178 48.5423 106.544 48.6513 106.912L48.9912 108.01C49.4596 109.474 49.9782 110.934 50.5905 112.379C51.2093 113.821 51.9196 115.251 52.765 116.623C53.6082 117.996 54.5887 119.31 55.7087 120.495C56.8265 121.683 58.0837 122.724 59.3997 123.613C60.7179 124.504 62.0928 125.245 63.4786 125.886C64.8665 126.526 66.2676 127.071 67.6664 127.57C69.0718 128.067 70.4706 128.52 71.8695 128.956Z" fill="white"/>
<path d="M54.7411 104.657L54.8631 104.594L54.8326 104.4L54.752 103.888L54.5428 102.336C54.5363 102.284 54.5276 102.232 54.5188 102.18C54.4404 101.733 54.2705 101.315 54.0177 100.935C53.924 100.798 53.826 100.67 53.7192 100.548L53.6451 100.659C53.741 100.77 53.8281 100.885 53.9109 101.005C54.1484 101.358 54.3162 101.761 54.3925 102.199C54.4012 102.249 54.4099 102.299 54.4164 102.35L54.5559 103.387L54.6256 103.905L54.7062 104.417L54.7411 104.657ZM55.9351 110.272L56.055 110.217C55.8175 109.376 55.5974 108.474 55.3904 107.485L55.2662 107.524C55.4601 108.453 55.6802 109.372 55.9351 110.272ZM47.7469 104.075L47.8885 104.106L47.7599 103.609C47.5377 102.637 47.7294 101.672 48.2393 100.927C48.7404 100.179 49.5336 99.6477 50.4879 99.5017L50.4966 99.4995C51.2091 99.3928 51.9042 99.5104 52.5056 99.7959L52.5796 99.6869C51.9303 99.3732 51.2026 99.262 50.477 99.3732L50.4683 99.3753C49.9933 99.4494 49.5466 99.615 49.1457 99.8678C48.7404 100.123 48.3984 100.456 48.1304 100.857C47.5922 101.646 47.4091 102.661 47.6336 103.639L47.7469 104.075ZM53.6996 118.253L53.7955 118.164C53.4338 117.661 53.0917 117.146 52.7692 116.623C51.926 115.251 51.2157 113.824 50.5947 112.379C49.9824 110.934 49.4638 109.472 48.9954 108.01L48.6555 106.91C48.6533 106.903 48.6511 106.895 48.6489 106.886L48.5313 106.945V106.947L48.8712 108.047C49.3941 109.681 49.9192 111.115 50.4748 112.429C51.1568 114.015 51.8693 115.41 52.6581 116.691C52.9914 117.231 53.3379 117.752 53.6996 118.253ZM60.2232 124.295C61.2015 124.899 62.2604 125.463 63.4305 126.003C64.6768 126.579 66.0103 127.117 67.6292 127.692C68.2022 127.895 68.7905 128.097 69.4268 128.309L69.3745 128.154C68.808 127.964 68.2393 127.771 67.6728 127.568C66.2718 127.069 64.8729 126.524 63.485 125.884C62.4021 125.383 61.3257 124.823 60.2798 124.175C60.2624 124.217 60.2428 124.256 60.2232 124.295ZM66.2195 123.284L66.2478 123.151C65.9166 122.962 65.5876 122.768 65.2673 122.57C64.0144 121.798 62.949 121.025 62.0077 120.208C60.9901 119.323 60.1077 118.375 59.3865 117.393C59.0139 116.887 58.6631 116.351 58.3341 115.782L58.2055 115.819C58.5345 116.39 58.8919 116.942 59.2819 117.471C60.038 118.502 60.9269 119.443 61.9227 120.308C62.9184 121.173 64.0231 121.957 65.1976 122.683C65.5331 122.886 65.8752 123.086 66.2195 123.284ZM67.2631 123.864C69.0368 124.818 70.9062 125.685 72.7888 126.533L72.3639 127.653C72.3966 127.686 72.4293 127.72 72.462 127.758L72.95 126.465L72.8389 126.415C71.1024 125.633 69.174 124.746 67.3154 123.746L67.2631 123.864Z" fill="#145ED7"/>
<path d="M60.0605 129.01L60.0166 130.013L89.9115 131.321L89.9554 130.318L60.0605 129.01Z" fill="#145ED7"/>
<path d="M89.9693 130.313L71.4008 129.5L77.8002 114.551L96.3708 115.364L89.9693 130.313Z" fill="#145ED7"/>
<path d="M84.8801 123.787C85.3259 122.244 85.2243 120.86 84.6532 120.695C84.0821 120.53 83.2577 121.647 82.8119 123.189C82.3661 124.731 82.4677 126.115 83.0388 126.28C83.6099 126.445 84.4343 125.329 84.8801 123.787Z" fill="white"/>
<path d="M218.011 195.908C236.153 195.908 250.859 181.202 250.859 163.06C250.859 144.919 236.153 130.212 218.011 130.212C199.869 130.212 185.163 144.919 185.163 163.06C185.163 181.202 199.869 195.908 218.011 195.908Z" fill="#145ED7"/>
<path d="M218.011 189.884C232.825 189.884 244.834 177.874 244.834 163.06C244.834 148.246 232.825 136.237 218.011 136.237C203.197 136.237 191.187 148.246 191.187 163.06C191.187 177.874 203.197 189.884 218.011 189.884Z" fill="white"/>
<path d="M218.529 137.727H217.493V142.004H218.529V137.727Z" fill="#050F64"/>
<path d="M218.011 164.175C217.883 164.175 217.754 164.153 217.628 164.107C217.05 163.896 216.753 163.256 216.966 162.678L224.581 141.871C224.791 141.293 225.432 140.996 226.009 141.208C226.587 141.419 226.884 142.059 226.672 142.637L219.056 163.445C218.892 163.895 218.465 164.175 218.011 164.175Z" fill="#FCB951"/>
<path d="M233.268 174.59C233.051 174.59 232.833 174.527 232.641 174.395L217.383 163.981C216.875 163.635 216.744 162.941 217.09 162.433C217.436 161.926 218.13 161.795 218.638 162.141L233.896 172.555C234.404 172.901 234.535 173.595 234.189 174.103C233.973 174.419 233.624 174.59 233.268 174.59Z" fill="#FCB951"/>
<path d="M218.011 165.975C219.621 165.975 220.926 164.67 220.926 163.06C220.926 161.45 219.621 160.145 218.011 160.145C216.401 160.145 215.096 161.45 215.096 163.06C215.096 164.67 216.401 165.975 218.011 165.975Z" fill="#DCAB28"/>
<path d="M192.679 162.542V163.579H196.955V162.542H192.679Z" fill="#050F64"/>
<path d="M217.493 188.394H218.53V184.117H217.493V188.394Z" fill="#050F64"/>
<path d="M243.344 163.58V162.543H239.067V163.58H243.344Z" fill="#050F64"/>
<path d="M205.345 141.122C205.09 141.269 205.002 141.597 205.149 141.853L205.878 143.115C206.026 143.37 206.354 143.458 206.609 143.311C206.865 143.164 206.952 142.836 206.805 142.58L206.076 141.318C205.927 141.061 205.601 140.974 205.345 141.122Z" fill="#E5E6EB"/>
<path d="M196.072 150.395C195.925 150.65 196.012 150.977 196.268 151.125L197.53 151.854C197.785 152.001 198.112 151.914 198.26 151.658C198.407 151.403 198.32 151.076 198.064 150.928L196.802 150.198C196.547 150.051 196.22 150.139 196.072 150.395Z" fill="#E5E6EB"/>
<path d="M196.072 175.727C196.219 175.983 196.547 176.07 196.802 175.923L198.064 175.194C198.32 175.047 198.407 174.719 198.26 174.463C198.113 174.208 197.785 174.12 197.53 174.267L196.268 174.996C196.012 175.145 195.925 175.472 196.072 175.727Z" fill="#E5E6EB"/>
<path d="M205.345 184.999C205.601 185.146 205.928 185.059 206.076 184.803L206.805 183.541C206.952 183.286 206.865 182.959 206.609 182.811C206.354 182.664 206.027 182.751 205.879 183.007L205.149 184.269C205.001 184.526 205.089 184.852 205.345 184.999Z" fill="#E5E6EB"/>
<path d="M230.678 184.999C230.933 184.852 231.021 184.524 230.874 184.269L230.145 183.007C229.998 182.751 229.67 182.664 229.414 182.811C229.159 182.958 229.071 183.286 229.218 183.541L229.947 184.803C230.096 185.06 230.423 185.148 230.678 184.999Z" fill="#E5E6EB"/>
<path d="M239.95 175.727C240.097 175.472 240.01 175.145 239.754 174.996L238.492 174.267C238.237 174.12 237.91 174.208 237.761 174.463C237.614 174.719 237.702 175.045 237.957 175.194L239.22 175.923C239.477 176.07 239.803 175.983 239.95 175.727Z" fill="#E5E6EB"/>
<path d="M239.95 150.395C239.803 150.139 239.475 150.051 239.22 150.198L237.957 150.928C237.702 151.075 237.614 151.403 237.761 151.658C237.908 151.914 238.237 152.001 238.492 151.854L239.754 151.125C240.01 150.977 240.097 150.65 239.95 150.395Z" fill="#E5E6EB"/>
<path d="M230.678 141.122C230.423 140.975 230.096 141.063 229.947 141.318L229.218 142.58C229.071 142.836 229.159 143.163 229.414 143.311C229.67 143.458 229.996 143.37 230.145 143.115L230.874 141.853C231.021 141.596 230.933 141.269 230.678 141.122Z" fill="#E5E6EB"/>
</svg>
