<svg width="256" height="179" viewBox="0 0 256 179" fill="none" xmlns="http://www.w3.org/2000/svg">
<path d="M142.229 69.7797C131.611 68.2746 121.544 64.1219 112.856 57.8297C99.8818 48.4288 72.7352 32.4324 46.8376 40.3991C11.1175 51.3917 10.956 83.1875 20.2623 100.457C29.5686 117.729 95.5478 168.307 181.089 160.258C257.635 153.056 272.552 70.6229 231.726 55.706C196.317 42.771 184.237 75.737 142.229 69.7797Z" fill="#D9E5F9"/>
<path d="M238.597 68.3573C238.593 45.2926 220.103 20.0175 197.085 18.4887C196.679 18.4612 196.274 18.4375 195.86 18.4178C162.862 16.8221 160.349 58.6137 130.495 63.3299C100.642 68.0421 77.8451 44.2485 42.1211 59.7721C10.0456 73.7157 1.35396 152.071 95.6185 155.215C171.038 157.728 238.609 137.177 238.597 68.3573Z" fill="#C9DAF4"/>
<path d="M58.4575 76.8407C58.4575 76.8407 58.5367 80.0836 61.8271 80.6211C61.8271 80.6211 63.2902 80.6335 63.2857 81.7186C63.2834 82.8049 61.8192 82.8071 61.8192 82.8071C58.5254 83.322 58.427 86.566 58.427 86.566C58.427 86.566 58.4179 87.3603 57.6247 87.4022C56.8304 87.3558 56.8281 86.5615 56.8281 86.5615C56.8281 86.5615 56.7489 83.3175 53.4608 82.7811C53.4608 82.7811 51.9966 82.7698 52 81.6824C52.0034 80.5973 53.4676 80.5962 53.4676 80.5962C56.7603 80.0791 56.8598 76.8351 56.8598 76.8351C56.8598 76.8351 56.8689 76.043 57.6621 76C58.4541 76.0453 58.4575 76.8407 58.4575 76.8407Z" fill="white"/>
<path d="M196.458 114.841C196.458 114.841 196.537 118.084 199.827 118.621C199.827 118.621 201.29 118.634 201.286 119.719C201.283 120.805 199.819 120.807 199.819 120.807C196.525 121.322 196.427 124.566 196.427 124.566C196.427 124.566 196.418 125.36 195.625 125.402C194.83 125.356 194.828 124.561 194.828 124.561C194.828 124.561 194.749 121.317 191.461 120.781C191.461 120.781 189.997 120.77 190 119.682C190.003 118.597 191.468 118.596 191.468 118.596C194.76 118.079 194.86 114.835 194.86 114.835C194.86 114.835 194.869 114.043 195.662 114C196.454 114.045 196.458 114.841 196.458 114.841Z" fill="white"/>
<path d="M40.2144 125.59C40.2144 125.59 40.27 127.865 42.5786 128.242C42.5786 128.242 43.6051 128.251 43.6019 129.012C43.6004 129.774 42.5731 129.776 42.5731 129.776C40.2621 130.137 40.193 132.413 40.193 132.413C40.193 132.413 40.1866 132.971 39.6301 133C39.0728 132.967 39.0712 132.41 39.0712 132.41C39.0712 132.41 39.0157 130.134 36.7086 129.758C36.7086 129.758 35.6813 129.75 35.6837 128.987C35.6861 128.226 36.7134 128.225 36.7134 128.225C39.0236 127.862 39.0935 125.586 39.0935 125.586C39.0935 125.586 39.0998 125.03 39.6563 125C40.212 125.032 40.2144 125.59 40.2144 125.59Z" fill="white"/>
<path d="M209.323 73.3231C222.822 59.8247 222.822 37.9394 209.323 24.441C195.825 10.9426 173.939 10.9426 160.441 24.441C146.943 37.9394 146.943 59.8247 160.441 73.3231C173.939 86.8216 195.825 86.8216 209.323 73.3231Z" fill="#91B3FA"/>
<path d="M184.883 78.3815C201.176 78.3815 214.384 65.1737 214.384 48.8811C214.384 32.5884 201.176 19.3806 184.883 19.3806C168.591 19.3806 155.383 32.5884 155.383 48.8811C155.383 65.1737 168.591 78.3815 184.883 78.3815Z" fill="url(#paint0_linear)"/>
<path d="M184.884 79.4342C168.036 79.4342 154.331 65.7284 154.331 48.8811C154.331 32.0339 168.036 18.3281 184.884 18.3281C201.731 18.3281 215.437 32.0339 215.437 48.8811C215.437 65.7284 201.731 79.4342 184.884 79.4342ZM184.884 20.4345C169.199 20.4345 156.437 33.1949 156.437 48.8811C156.437 64.5674 169.197 77.3278 184.884 77.3278C200.57 77.3278 213.33 64.5674 213.33 48.8811C213.33 33.1949 200.569 20.4345 184.884 20.4345Z" fill="url(#paint1_linear)"/>
<path d="M184.884 66.8659C194.816 66.8659 202.869 58.8138 202.869 48.881C202.869 38.9482 194.816 30.8961 184.884 30.8961C174.951 30.8961 166.899 38.9482 166.899 48.881C166.899 58.8138 174.951 66.8659 184.884 66.8659Z" fill="url(#paint2_linear)"/>
<path d="M184.884 67.9186C174.386 67.9186 165.845 59.3779 165.845 48.88C165.845 38.3821 174.386 29.8413 184.884 29.8413C195.382 29.8413 203.922 38.3821 203.922 48.88C203.922 59.379 195.382 67.9186 184.884 67.9186ZM184.884 31.95C175.548 31.95 167.952 39.5454 167.952 48.8811C167.952 58.2169 175.548 65.8123 184.884 65.8123C194.219 65.8123 201.815 58.2169 201.815 48.8811C201.815 39.5454 194.219 31.95 184.884 31.95Z" fill="url(#paint3_linear)"/>
<path d="M184.884 55.8492C188.732 55.8492 191.852 52.7294 191.852 48.8809C191.852 45.0324 188.732 41.9126 184.884 41.9126C181.035 41.9126 177.915 45.0324 177.915 48.8809C177.915 52.7294 181.035 55.8492 184.884 55.8492Z" fill="#FCB951"/>
<path d="M184.884 56.9021C180.461 56.9021 176.863 53.3037 176.863 48.88C176.863 44.4575 180.461 40.8591 184.884 40.8591C189.306 40.8591 192.904 44.4575 192.904 48.88C192.904 53.3037 189.306 56.9021 184.884 56.9021ZM184.884 42.9666C181.622 42.9666 178.969 45.6197 178.969 48.8812C178.969 52.1427 181.622 54.7957 184.884 54.7957C188.145 54.7957 190.798 52.1427 190.798 48.8812C190.798 45.6197 188.145 42.9666 184.884 42.9666Z" fill="url(#paint4_linear)"/>
<path d="M217.373 16.491L218.095 17.2148L190.718 44.5926L189.995 43.8699L217.373 16.491Z" fill="url(#paint5_linear)"/>
<path d="M190.507 42.1249C190.922 41.71 192.876 43.6659 192.463 44.0809L185.21 49.7821C184.942 49.9931 184.594 49.6458 184.805 49.3776L190.507 42.1249Z" fill="#180D89"/>
<path d="M218.08 17.23L221.764 17.596L216.707 22.6526C215.051 24.309 212.738 25.1355 210.407 24.9035L218.08 17.23Z" fill="url(#paint6_linear)"/>
<path d="M217.358 16.5072L216.992 12.8237L211.935 17.8803C210.279 19.5367 209.452 21.8494 209.684 24.1807L217.358 16.5072Z" fill="url(#paint7_linear)"/>
<path d="M127.891 178.929C198.278 178.929 255.338 177.317 255.338 175.328C255.338 173.339 198.278 171.727 127.891 171.727C57.5039 171.727 0.443848 173.339 0.443848 175.328C0.443848 177.317 57.5039 178.929 127.891 178.929Z" fill="#C9DAF4"/>
<path d="M104.898 161L104.223 169.801L100.52 169.809L99.6843 161H104.898Z" fill="#F7B6A0"/>
<path d="M100.431 168.873L100.938 168.089H103.746L104.276 169.103L106.842 173.651V175.692H99V173.753L100.431 168.873Z" fill="#145ED7"/>
<path d="M83.944 160L84.6195 168.801L88.3219 168.809L89.1578 160H83.944Z" fill="#F7B6A0"/>
<path d="M88.4113 167.873L87.9037 167.089H85.0961L84.5657 168.103L82 172.651V174.692H89.8422V172.753L88.4113 167.873Z" fill="#145ED7"/>
<path d="M105.989 108.16C105.877 103.824 105.375 100.183 104.693 97.1698C104.635 96.9172 104.563 96.6784 104.481 96.4395C102.625 89.5912 100.352 84.7629 100.352 84.7629H88.2731C88.2731 84.7629 85.8367 89.3763 84.1102 96.4464C84.0283 96.6818 83.9566 96.9207 83.8986 97.1698C83.2162 100.186 82.718 103.824 82.602 108.16C82.3699 117.036 82.561 126.583 82.6395 129.678C82.6224 129.828 82.6122 129.978 82.6088 130.128L82.7555 165.714H90.5729L91.948 131.261C91.9958 131.043 92.0367 130.821 92.0538 130.592L93.9271 99.9234C94.1728 99.9541 94.4219 99.9507 94.6675 99.9234L96.5443 130.596C96.5647 130.824 96.6023 131.046 96.65 131.265L98.0252 165.718H105.836L105.982 130.132C105.979 129.978 105.969 129.828 105.955 129.681C106.03 126.583 106.225 117.036 105.989 108.16Z" fill="#2196F5"/>
<path d="M94.4389 53.3603C98.8656 53.3603 102.454 49.7717 102.454 45.345C102.454 40.9183 98.8656 37.3297 94.4389 37.3297C90.0122 37.3297 86.4236 40.9183 86.4236 45.345C86.4236 49.7717 90.0122 53.3603 94.4389 53.3603Z" fill="black"/>
<path d="M88.7234 49.6785C89.1363 50.5998 89.0987 52.0841 88.2252 52.4151C87.3517 52.7426 86.3075 51.5586 85.8947 50.6373C85.4818 49.716 85.7343 48.9176 86.6078 48.5866C87.4813 48.2556 88.3105 48.7572 88.7234 49.6785Z" fill="#9B6755"/>
<path d="M86.874 49.692L88.3447 50.859" stroke="black" stroke-width="0.168632" stroke-miterlimit="10" stroke-linecap="round" stroke-linejoin="round"/>
<path d="M100.25 49.6785C99.837 50.5998 99.8746 52.0841 100.748 52.4151C101.622 52.7426 102.666 51.5586 103.079 50.6373C103.492 49.716 103.239 48.9176 102.365 48.5866C101.489 48.2556 100.663 48.7572 100.25 49.6785Z" fill="#9B6755"/>
<path d="M102.253 49.692L100.782 50.859" stroke="black" stroke-width="0.168632" stroke-miterlimit="10" stroke-linecap="round" stroke-linejoin="round"/>
<path d="M101.816 48.4842C101.816 48.4842 98.6189 53.1965 94.5482 53.1965C90.4774 53.1965 87.0583 48.4876 87.0583 48.4876C87.0583 44.5841 90.4808 39.0597 94.5482 39.0597C98.6155 39.0597 101.816 44.5807 101.816 48.4842Z" fill="black"/>
<path d="M92.4291 54.7353L91.5044 63.5593H96.9912L96.0426 54.6432L92.4291 54.7353Z" fill="#9B6755"/>
<path d="M92.3063 56.2947L96.5715 59.5977L96.1041 55.1584L92.3063 56.2947Z" fill="black"/>
<path d="M94.5516 39.8855C91.1462 39.8855 88.14 42.5197 88.14 45.7682L88.3345 49.6683C88.3345 49.6683 88.4062 55.1961 93.6507 56.8783C94.2308 57.066 94.8655 57.066 95.449 56.8783C100.697 55.1961 100.765 49.6683 100.765 49.6683L100.96 45.7682C100.963 42.5197 97.957 39.8855 94.5516 39.8855Z" fill="#9B6755"/>
<path d="M93.2583 52.7905C93.2583 52.7905 93.3197 53.6026 94.4287 53.6026C95.5377 53.6026 95.5991 52.7905 95.5991 52.7905H93.2583Z" fill="#F4DDE2"/>
<path d="M94.3024 50.5624V51.4837L94.978 51.4905" stroke="black" stroke-width="0.168632" stroke-miterlimit="10" stroke-linecap="round" stroke-linejoin="round"/>
<path d="M96.0563 48.7401C96.0563 48.7401 96.0665 47.9075 97.6464 48.0235C99.0658 48.1293 99.2296 48.764 99.2296 48.764C99.2296 48.764 99.0317 49.7194 97.4757 49.7467C95.9198 49.774 96.0563 48.7401 96.0563 48.7401Z" fill="white"/>
<path d="M98.5403 48.9243C98.5369 49.5147 98.0899 49.989 97.5439 49.9855C96.9979 49.9821 96.5612 49.4976 96.5646 48.9073C96.568 48.317 97.015 47.8427 97.561 47.8461C98.1069 47.8495 98.5437 48.334 98.5403 48.9243Z" fill="black"/>
<path d="M95.8993 48.3171C96.1825 48.1021 96.4726 47.9929 96.7831 47.9145C97.0902 47.8394 97.4041 47.8155 97.718 47.836C98.3424 47.8735 98.9669 48.1909 99.2842 48.7436C99.3013 48.7709 99.291 48.8051 99.2637 48.8221C99.2364 48.8358 99.2057 48.8289 99.1887 48.8051L99.1853 48.7982C99.0283 48.5662 98.7929 48.3751 98.5369 48.2557C98.2776 48.1363 97.9944 48.0748 97.7112 48.0783C97.428 48.0783 97.1379 48.126 96.8684 48.2113C96.6022 48.2932 96.3327 48.4331 96.1518 48.5935L96.1382 48.6071C96.0631 48.6754 95.9471 48.6652 95.8788 48.5901C95.8106 48.515 95.8208 48.399 95.8959 48.3308C95.8925 48.3205 95.8959 48.3171 95.8993 48.3171Z" fill="black"/>
<path d="M92.8181 48.7402C92.8181 48.7402 92.8079 47.9076 91.228 48.0237C89.8086 48.1294 89.6448 48.7641 89.6448 48.7641C89.6448 48.7641 89.8359 49.7195 91.3918 49.7468C92.9512 49.7741 92.8181 48.7402 92.8181 48.7402Z" fill="white"/>
<path d="M90.3272 48.9176C90.3306 49.5079 90.7776 49.9822 91.3236 49.9788C91.8695 49.9754 92.3063 49.4909 92.3029 48.9006C92.2995 48.3103 91.8525 47.836 91.3065 47.8394C90.7572 47.8428 90.3204 48.3273 90.3272 48.9176Z" fill="black"/>
<path d="M92.7328 48.5866C92.5485 48.4263 92.279 48.2864 92.0162 48.2045C91.7467 48.1192 91.4566 48.0714 91.1734 48.0714C90.8868 48.068 90.6036 48.1294 90.3477 48.2488C90.0917 48.3683 89.8563 48.5593 89.6993 48.7914L89.6959 48.7982C89.6789 48.8255 89.6413 48.8323 89.6175 48.8153C89.5936 48.7982 89.5833 48.7641 89.6004 48.7402C89.9177 48.1908 90.5422 47.8701 91.1666 47.8325C91.4805 47.8121 91.791 47.8394 92.1015 47.911C92.4121 47.9895 92.6987 48.0987 92.9853 48.3137C93.0672 48.3751 93.0808 48.4911 93.0228 48.5696C92.9614 48.6515 92.8454 48.6651 92.7669 48.6071C92.7635 48.6037 92.7601 48.6003 92.7567 48.6003L92.7328 48.5866Z" fill="black"/>
<path d="M95.4524 45.3144C95.4524 45.3144 97.2575 43.1681 99.8985 46.1299L95.4524 45.3144Z" fill="black"/>
<path d="M93.4221 45.3144C93.4221 45.3144 91.617 43.1681 88.976 46.1299L93.4221 45.3144Z" fill="black"/>
<path d="M91.5043 38.9607C91.5043 38.9607 89.6481 42.68 101.918 44.5601C101.918 44.5601 102.208 41.0967 99.9973 40.4348C97.7862 39.7762 91.5043 38.9607 91.5043 38.9607Z" fill="black"/>
<path d="M92.3063 39.394C92.3063 39.394 91.6511 44.311 86.874 45.3449C86.874 45.3449 88.5494 39.5783 92.3063 39.394Z" fill="black"/>
<path d="M94.3979 38.3977C96.4408 38.3977 98.0968 36.7417 98.0968 34.6988C98.0968 32.656 96.4408 31 94.3979 31C92.3551 31 90.6991 32.656 90.6991 34.6988C90.6991 36.7417 92.3551 38.3977 94.3979 38.3977Z" fill="black"/>
<path d="M82.7931 88.4036L79.084 108.972L76.7091 108.932C76.7091 108.932 77.8044 94.8254 78.4493 87.8918C78.5517 86.7931 79.9336 85.8513 81.0221 86.0424C82.039 86.2164 82.9705 87.3834 82.7931 88.4036Z" fill="#9B6755"/>
<path d="M78.7701 107.877C78.7701 107.877 79.9985 109.668 79.357 112.019L79.9678 114.278C80.0633 114.63 79.9029 115.005 79.5924 115.159C79.258 115.326 78.8656 115.176 78.7018 114.824L78.1252 113.555L78.0842 114.05C78.0228 114.835 78.2037 115.616 78.6063 116.268L79.746 118.121C79.8756 118.332 79.8893 118.605 79.7767 118.83C79.5651 119.27 79.0124 119.342 78.7155 118.974L76.9343 116.756C76.245 115.896 75.9345 114.749 76.0847 113.613L76.89 107.505L78.7701 107.877Z" fill="#9B6755"/>
<path d="M78.4459 87.8883L80.0735 73.5502L85.0178 74.9765L82.7487 88.6049L78.4459 87.8883Z" fill="#9B6755"/>
<path d="M85.1168 72.9429L87.0652 63.0304C84.912 63.4228 78.3469 65.883 77.7089 76.1572L86.8843 79.8936L85.1168 72.9429Z" fill="#2196F5"/>
<path d="M106.088 88.4037L109.797 108.973L112.172 108.932C112.172 108.932 111.077 94.8255 110.432 87.8919C110.33 86.7932 108.948 85.8514 107.859 86.0425C106.839 86.2165 105.911 87.3835 106.088 88.4037Z" fill="#9B6755"/>
<path d="M110.111 107.877C110.111 107.877 108.879 109.669 109.524 112.02L108.914 114.279C108.818 114.63 108.978 115.006 109.289 115.159C109.623 115.326 110.016 115.176 110.18 114.825L110.756 113.555L110.797 114.05C110.859 114.835 110.678 115.616 110.275 116.268L109.135 118.121C109.006 118.332 108.992 118.605 109.105 118.831C109.316 119.271 109.869 119.342 110.166 118.974L111.947 116.756C112.636 115.896 112.947 114.75 112.797 113.613L111.991 107.505L110.111 107.877Z" fill="#9B6755"/>
<path d="M110.432 87.8884L108.808 73.5503L103.86 74.9766L106.133 88.605L110.432 87.8884Z" fill="#9B6755"/>
<path d="M98.9806 73.2159L100.949 63.184C100.949 63.184 105.617 63.0817 109.558 70.4282L111.469 73.7755L102.669 80.5966L98.9806 73.2159Z" fill="#2196F5"/>
<path d="M94.4969 61.672L101.915 63.3337C104.16 63.8285 106.068 66.0703 105.525 68.3053L103.024 85.8612L107.521 104.529C93.0808 108.184 81.5748 104.386 81.5748 104.386L86.1335 85.7998L83.414 67.8242C82.9295 65.5483 85.1918 63.3235 87.4882 62.9277L94.4969 61.672Z" fill="#2196F5"/>
<path d="M100.376 62.9928L94.4969 61.6722L88.3345 62.7846L94.1864 67.5754L100.376 62.9928Z" fill="#9B6755"/>
<path d="M85.0963 78.9108L84.2671 73.11" stroke="#145ED7" stroke-width="0.255916" stroke-miterlimit="10" stroke-linecap="round" stroke-linejoin="round"/>
<path d="M103.942 79.4499L104.846 72.8268" stroke="#145ED7" stroke-width="0.255916" stroke-miterlimit="10" stroke-linecap="round" stroke-linejoin="round"/>
<path d="M87.0616 63.1838L94.0328 69.0563L101.703 63.4978" stroke="#145ED7" stroke-width="0.255916" stroke-miterlimit="10" stroke-linecap="round" stroke-linejoin="round"/>
<path d="M92.3063 72.1034H86.7649V73.2124H92.3063V72.1034Z" fill="white"/>
<path d="M85.1236 90.4817L89.423 90.9048L88.6382 96.9308C88.4744 98.3639 87.1436 99.3705 85.7173 99.1351L83.1445 98.7119" stroke="#145ED7" stroke-width="0.255916" stroke-miterlimit="10" stroke-linecap="round" stroke-linejoin="round"/>
<path d="M103.935 90.4817L99.6357 90.9048L100.421 96.9308C100.584 98.3639 101.915 99.3705 103.341 99.1351L105.914 98.7119" stroke="#145ED7" stroke-width="0.255916" stroke-miterlimit="10" stroke-linecap="round" stroke-linejoin="round"/>
<path d="M100.42 75.5427V73.9184C100.42 72.9153 99.605 72.0997 98.6018 72.0997C97.6771 72.0997 96.8991 72.7924 96.7967 73.7137L96.766 75.5427" stroke="black" stroke-width="0.375139" stroke-miterlimit="10"/>
<path d="M98.6018 72.1031C98.6018 72.1031 100.42 61.5764 96.7626 61.5764" stroke="black" stroke-width="0.375139" stroke-miterlimit="10"/>
<path d="M96.7626 75.5427C96.7626 75.5427 96.4282 88.1543 101.99 83.0291" stroke="#CFCFCF" stroke-width="0.375139" stroke-miterlimit="10"/>
<path d="M102.526 82.9267C102.526 83.2236 102.287 83.4624 101.99 83.4624C101.693 83.4624 101.454 83.2236 101.454 82.9267C101.454 82.6298 101.697 82.391 101.99 82.391C102.284 82.391 102.526 82.6298 102.526 82.9267Z" fill="black"/>
<path d="M100.414 75.5427C100.414 75.5427 100.748 88.1543 95.1862 83.0291" stroke="#CFCFCF" stroke-width="0.375139" stroke-miterlimit="10"/>
<path d="M94.6504 82.9267C94.6504 83.2236 94.8927 83.4624 95.1861 83.4624C95.4796 83.4624 95.7218 83.2236 95.7218 82.9267C95.7218 82.6298 95.483 82.391 95.1861 82.391C94.8892 82.391 94.6504 82.6298 94.6504 82.9267Z" fill="black"/>
<path d="M89.8939 73.5022C89.8939 73.5022 88.0444 61.5765 91.6989 61.5765" stroke="black" stroke-width="0.375139" stroke-miterlimit="10"/>
<path d="M90.235 76.7337C90.9757 76.7337 91.576 75.9454 91.576 74.973C91.576 74.0006 90.9757 73.2123 90.235 73.2123C89.4944 73.2123 88.894 74.0006 88.894 74.973C88.894 75.9454 89.4944 76.7337 90.235 76.7337Z" fill="black"/>
<path d="M90.0372 76.2115C90.4857 76.2115 90.8493 75.657 90.8493 74.9729C90.8493 74.2888 90.4857 73.7343 90.0372 73.7343C89.5887 73.7343 89.2251 74.2888 89.2251 74.9729C89.2251 75.657 89.5887 76.2115 90.0372 76.2115Z" fill="#DEDFDE"/>
<path d="M152.536 172.029C153.215 170.935 159.3 165.095 159.3 165.095C159.3 165.095 160.546 166.071 160.484 167.143C160.425 168.165 160.468 173.547 160.502 174.644H159.765L159.3 171.66C159.3 171.66 157.618 174.353 156.354 175.273C155.089 176.196 150.823 176.029 149.797 175.893C148.775 175.756 151.858 173.123 152.536 172.029Z" fill="#145ED7"/>
<path d="M158.841 162.195L159.223 164.831C159.223 164.831 159.563 165.615 159.223 166.777C158.882 167.939 157.59 169.78 156.353 171.146C155.288 172.326 153.007 173.501 152.325 173.194C151.644 172.887 153.624 170.532 154.203 169.302C154.783 168.072 155.021 166.892 155.216 165.857C155.418 164.797 155.216 162.195 155.216 162.195H158.841Z" fill="#E9AF89"/>
<path d="M164.851 163.877C164.851 163.877 163.463 164.443 163.41 166.398C163.357 168.353 163.385 174.003 163.385 174.003H164.094L164.502 171.615C164.502 171.615 164.748 173.548 165.725 174.784C166.703 176.02 168.813 176.069 170.202 175.864C171.59 175.658 170.563 173.084 169.996 171.646C169.43 170.205 168.247 166.759 168.247 166.759L164.851 163.877Z" fill="#145ED7"/>
<path d="M165.218 161.082C165.218 161.082 165.262 163.466 164.851 163.877C164.44 164.288 163.873 165.627 164.284 167.273C164.695 168.92 164.969 171.32 165.931 172.35C166.893 173.38 169.395 173.415 169.601 172.59C169.806 171.768 168.331 168.714 168.262 167.136C168.194 165.558 167.92 161.306 167.92 161.306L165.218 161.082Z" fill="#E9AF89"/>
<path d="M162.139 112.879L163.01 133.691L164.168 166.836L167.969 166.978L169.218 139.825C169.218 139.825 169.397 135.612 169.596 129.617L170.555 110.543L162.139 112.879Z" fill="#E9AF89"/>
<path d="M160.903 112.879L160.032 133.691L158.874 166.836L155.073 166.978L153.824 139.825C153.824 139.825 153.645 135.612 153.446 129.616L152.487 110.542L160.903 112.879Z" fill="#E9AF89"/>
<path d="M149.385 121.818C149.385 121.818 149.753 100.573 150.485 92.3902C151.039 86.2022 155.326 80.2538 155.326 80.2538H161.018H161.751H167.442C167.442 80.2538 171.909 86.192 172.283 92.3902C172.776 100.573 173.384 121.818 173.384 121.818H149.385Z" fill="black"/>
<path d="M153.375 40.4923C153.375 40.4923 153.162 44.8405 152.237 46.1504C152.237 46.1504 150.57 48.5135 152.541 50.7585C154.513 53.0001 151.663 56.3591 151.663 56.3591H161.237V39.9353L153.375 40.4923Z" fill="#702D0B"/>
<path d="M169.616 40.5058C169.616 40.5058 169.647 44.8405 170.572 46.1504C170.572 46.1504 172.24 48.5135 170.268 50.7585C168.297 53.0001 171.146 56.3591 171.146 56.3591H161.565V39.9353L169.616 40.5058Z" fill="#702D0B"/>
<path d="M169.097 41.8562C169.097 46.0963 165.663 49.5296 161.427 49.5296C157.19 49.5296 153.753 46.0963 153.753 41.8562C153.753 37.6194 157.186 34.8376 161.427 34.8376C165.667 34.8376 169.097 37.6194 169.097 41.8562Z" fill="#702D0B"/>
<path d="M155.954 46.0053C156.349 46.8864 156.316 48.3077 155.478 48.6216C154.641 48.9356 153.645 47.8013 153.25 46.9202C152.855 46.0391 153.098 45.2727 153.932 44.9588C154.769 44.6448 155.563 45.1242 155.954 46.0053Z" fill="#E9AF89"/>
<path d="M154.189 46.0187L155.593 47.1361" stroke="black" stroke-width="0.161369" stroke-miterlimit="10" stroke-linecap="round" stroke-linejoin="round"/>
<path d="M166.987 46.0053C166.592 46.8864 166.626 48.3077 167.463 48.6216C168.3 48.9356 169.296 47.8013 169.691 46.9202C170.086 46.0391 169.843 45.2727 169.009 44.9588C168.172 44.6448 167.382 45.1242 166.987 46.0053Z" fill="#E9AF89"/>
<path d="M168.904 46.0187L167.496 47.1361" stroke="black" stroke-width="0.161369" stroke-miterlimit="10" stroke-linecap="round" stroke-linejoin="round"/>
<path d="M168.489 44.8608C168.489 44.8608 165.427 49.371 161.535 49.371C157.642 49.371 154.367 44.8642 154.367 44.8642C154.367 41.127 157.642 35.8403 161.535 35.8403C165.427 35.8403 168.489 41.1236 168.489 44.8608Z" fill="#702D0B"/>
<path d="M159.506 50.8428L158.618 59.6134H163.867L162.963 50.7584L159.506 50.8428Z" fill="#E9AF89"/>
<path d="M159.384 52.335L163.466 55.4982L163.02 51.2513L159.384 52.335Z" fill="black"/>
<path d="M161.535 36.3062C158.277 36.3062 155.397 39.152 155.397 42.2613L155.586 45.9917C155.586 45.9917 155.654 51.2817 160.674 52.892C161.231 53.0709 161.839 53.0709 162.396 52.892C167.416 51.2817 167.483 45.9917 167.483 45.9917L167.672 42.2613C167.669 39.152 164.793 36.3062 161.535 36.3062Z" fill="#E9AF89"/>
<path d="M161.295 46.1976V47.4062L161.943 47.413" stroke="black" stroke-width="0.161369" stroke-miterlimit="10" stroke-linecap="round" stroke-linejoin="round"/>
<path d="M162.976 44.7799C162.976 44.7799 162.986 43.9831 164.499 44.0945C165.859 44.1958 166.011 44.8035 166.011 44.8035C166.011 44.8035 165.822 45.7184 164.333 45.742C162.841 45.769 162.976 44.7799 162.976 44.7799Z" fill="white"/>
<path d="M165.349 44.9553C165.346 45.5191 164.917 45.9748 164.397 45.9714C163.878 45.9681 163.459 45.5056 163.462 44.9384C163.466 44.3746 163.894 43.9189 164.414 43.9223C164.934 43.929 165.356 44.3881 165.349 44.9553Z" fill="black"/>
<path d="M162.824 44.3747C163.094 44.1688 163.371 44.0641 163.668 43.9898C163.962 43.9189 164.262 43.8953 164.563 43.9122C165.16 43.9493 165.758 44.2532 166.062 44.7798C166.075 44.8068 166.069 44.8406 166.042 44.8541C166.018 44.8676 165.984 44.8608 165.967 44.8372L165.964 44.8304C165.815 44.6076 165.589 44.4253 165.343 44.3106C165.096 44.1958 164.823 44.1384 164.553 44.1384C164.279 44.1384 164.002 44.1856 163.746 44.2667C163.493 44.3443 163.233 44.4794 163.057 44.6346L163.044 44.6448C162.969 44.7089 162.861 44.7022 162.797 44.6279C162.733 44.5536 162.74 44.4456 162.814 44.3814C162.818 44.3781 162.821 44.3781 162.824 44.3747Z" fill="black"/>
<path d="M159.877 44.78C159.877 44.78 159.867 43.9833 158.355 44.0947C156.994 44.1959 156.842 44.8036 156.842 44.8036C156.842 44.8036 157.024 45.7185 158.513 45.7421C160.002 45.7691 159.877 44.78 159.877 44.78Z" fill="white"/>
<path d="M157.49 44.9487C157.494 45.5125 157.922 45.9683 158.442 45.9649C158.962 45.9615 159.381 45.499 159.378 44.9352C159.374 44.3715 158.945 43.9157 158.426 43.9191C157.906 43.9225 157.487 44.385 157.49 44.9487Z" fill="black"/>
<path d="M159.793 44.6346C159.617 44.4793 159.357 44.3476 159.104 44.2666C158.847 44.1856 158.571 44.1383 158.297 44.1383C158.024 44.135 157.754 44.1957 157.507 44.3105C157.264 44.4253 157.035 44.6076 156.886 44.8304L156.883 44.8371C156.866 44.8608 156.832 44.8675 156.808 44.8506C156.785 44.8338 156.778 44.8034 156.792 44.7764C157.095 44.2497 157.693 43.9459 158.29 43.9088C158.591 43.8885 158.888 43.9155 159.185 43.9864C159.482 44.0607 159.759 44.1653 160.029 44.3713C160.107 44.4287 160.124 44.5401 160.063 44.6177C160.005 44.6954 159.894 44.7122 159.816 44.6515C159.813 44.6481 159.81 44.6447 159.806 44.6447L159.793 44.6346Z" fill="black"/>
<path d="M162.399 41.6335C162.399 41.6335 164.127 40.0299 166.653 42.2411L162.399 41.6335Z" fill="#702D0B"/>
<path d="M160.454 41.6335C160.454 41.6335 158.726 40.0299 156.201 42.2411L160.454 41.6335Z" fill="#702D0B"/>
<path d="M159.847 48.4459H163.175C163.175 48.4459 162.986 49.5262 161.511 49.5262C159.998 49.5262 159.847 48.4459 159.847 48.4459Z" fill="white"/>
<path d="M159.384 36.7249C159.384 36.7249 157.443 37.2718 157.062 39.2838C156.656 41.414 154.631 43.1458 154.631 43.1458C154.631 43.1458 155.492 38.0347 155.583 37.8862C155.674 37.7343 159.384 36.7249 159.384 36.7249Z" fill="#702D0B"/>
<path d="M159.384 36.7248C159.384 36.7248 161.302 35.6783 162.294 37.984C163.462 40.6983 168.307 41.5659 168.307 41.5659C168.307 41.5659 168.921 38.3318 165.771 36.9915C162.622 35.6513 161.312 35.6142 159.384 36.7248Z" fill="#702D0B"/>
<path d="M159.03 35.155C159.03 35.155 160.549 33.4299 163.871 34.1963C166.649 34.8377 169.461 36.9679 169.613 40.5025L168.357 41.6537L163.466 36.6438L159.03 35.155Z" fill="#702D0B"/>
<path d="M159.03 35.1551C159.03 35.1551 156.629 34.4934 154.742 36.7249C152.224 39.7024 153.949 43.5881 153.949 43.5881L157.007 38.0415L159.03 35.1551Z" fill="#702D0B"/>
<path d="M161.487 57.4126L168.826 59.0567C171.048 59.5462 172.314 61.6494 171.777 63.8606L167.425 80.2507H155.326L150.526 63.5027C150.046 61.251 152.284 59.0499 154.556 58.6583L161.487 57.4126Z" fill="#C5EAFF"/>
<path d="M165.521 58.3171L161.487 57.4124L156.96 58.226L161.177 61.5614L165.521 58.3171Z" fill="#E9AF89"/>
<path d="M147.98 86.8707L145.202 103.544L142.852 103.534C142.852 103.534 143.126 93.2884 143.679 86.4184C143.767 85.328 145.121 84.3793 146.201 84.5549C147.207 84.7135 148.142 85.858 147.98 86.8707Z" fill="#E9AF89"/>
<path d="M144.878 102.464C144.878 102.464 146.117 104.22 145.513 106.556L146.144 108.784C146.242 109.128 146.09 109.503 145.786 109.662C145.458 109.83 145.067 109.689 144.901 109.341L144.317 108.095L144.284 108.585C144.233 109.361 144.422 110.131 144.827 110.772L145.978 112.592C146.11 112.798 146.124 113.068 146.019 113.294C145.813 113.73 145.269 113.811 144.972 113.449L143.183 111.275C142.488 110.435 142.167 109.304 142.302 108.18L143.021 102.127L144.878 102.464Z" fill="#E9AF89"/>
<path d="M151.89 59.1646C151.89 59.1646 145.762 60.4879 145.165 69.3328C144.28 82.3672 141.313 102.457 141.313 102.457L146.167 102.795L152.484 65.3897L151.89 59.1646Z" fill="white"/>
<path d="M156.96 58.2261C156.96 58.2261 156.383 59.9613 157.109 70.0992C158.567 90.5403 154.766 113.135 153.557 120.812C153.311 122.382 151.957 123.537 150.367 123.537H147.025C147.025 123.537 146.286 93.5989 153.442 79.1736L149.611 62.6654C149.304 61.1766 150.617 59.3874 152.112 59.1139L156.96 58.2261Z" fill="white"/>
<path d="M156.96 58.2262L153.375 62.2368L155.397 64.7147L153.375 67.7294L157.332 79.6396" stroke="#E2E2FA" stroke-width="0.253194" stroke-miterlimit="10" stroke-linecap="round" stroke-linejoin="round"/>
<path d="M151.582 71.1593L150.694 67.5605" stroke="#E2E2FA" stroke-width="0.253194" stroke-miterlimit="10" stroke-linecap="round" stroke-linejoin="round"/>
<path d="M165.521 58.3173C165.521 58.3173 166.099 60.0525 165.373 70.1904C163.915 90.6315 167.716 113.227 168.924 120.903C169.171 122.473 170.525 123.628 172.115 123.628H175.457C175.457 123.628 176.196 93.6901 169.039 79.2648L173.175 62.5743C173.502 60.9977 171.794 59.4651 170.211 59.1747L165.521 58.3173Z" fill="white"/>
<path d="M165.636 58.2262L169.221 62.2368L167.199 64.7147L169.221 67.7294L165.521 78.8665" stroke="#E2E2FA" stroke-width="0.253194" stroke-miterlimit="10" stroke-linecap="round" stroke-linejoin="round"/>
<path d="M170.261 61.5616L167.78 59.0668C169.788 58.8541 173.887 59.195 177.634 64.3501C181.351 69.4612 183.69 72.4962 185.118 74.2685C186.151 75.548 185.851 77.4385 184.474 78.3365C183.322 79.0859 181.462 78.8834 180.547 77.8571L170.929 67.0373L169.221 64.0395L170.261 61.5616Z" fill="white"/>
<path d="M178.708 76.662L170.869 83.4611L171.024 86.9248C171.024 86.9248 175.561 84.0687 181.243 80.1662C182.144 79.5484 182.293 77.9009 181.604 77.0502C180.963 76.2569 179.504 76.0172 178.708 76.662Z" fill="#E9AF89"/>
<path d="M171.027 86.9248C171.027 86.9248 172.756 85.4596 170.953 82.1985C169.12 78.8834 168.114 79.7071 167.189 79.9535L171.027 86.9248Z" fill="#E9AF89"/>
<path d="M169.552 84.1464C169.552 84.1464 169.117 83.4205 168.208 84.0417C167.736 84.3624 167.3 84.6933 166.99 84.9363C166.73 85.1389 166.355 85.0916 166.156 84.8317C165.947 84.5582 166.011 84.1666 166.298 83.9742L169.252 82.0195L169.552 84.1464Z" fill="#E9AF89"/>
<path d="M165.535 84.5617L168.938 82.2289L168.276 81.4187L164.944 83.6974C164.701 83.8629 164.643 84.1937 164.812 84.4334C164.978 84.6663 165.302 84.7203 165.535 84.5617Z" fill="#E9AF89"/>
<path d="M165.045 83.7212L168.941 81.1149C168.941 81.1149 168.533 80.2372 168.279 80.3047C166.321 80.8111 164.883 82.1615 164.276 82.8198C164.083 83.0291 164.063 83.3431 164.228 83.5726C164.417 83.8359 164.779 83.9001 165.045 83.7212Z" fill="#E9AF89"/>
<path d="M170.092 80.8752C170.092 80.8752 168.313 77.4115 164.981 79.4033C164.735 79.5485 164.647 79.8658 164.772 80.1224C164.9 80.3891 165.217 80.5072 165.491 80.3958C166.065 80.1629 167.017 79.9131 167.523 80.5477C167.959 81.0946 168.772 80.5511 168.772 80.5511L170.092 80.8752Z" fill="#E9AF89"/>
<path d="M180.497 73.6844L171.773 81.682L174.14 85.9255L184.474 78.3365L180.497 73.6844Z" fill="white"/>
<path d="M180.038 74.1064L178.481 75.5345" stroke="#E2E2FA" stroke-width="0.253194" stroke-miterlimit="10" stroke-linecap="round" stroke-linejoin="round"/>
<path d="M155.147 71.2297V69.6227C155.147 68.6302 155.954 67.8234 156.947 67.8234C157.862 67.8234 158.631 68.5087 158.733 69.4202L158.763 71.2297" stroke="black" stroke-width="0.371148" stroke-miterlimit="10"/>
<path d="M156.947 67.8267C156.947 67.8267 155.218 57.412 158.837 57.412" stroke="black" stroke-width="0.371148" stroke-miterlimit="10"/>
<path d="M158.763 71.2296C158.763 71.2296 159.094 83.707 153.591 78.6364" stroke="#CFCFCF" stroke-width="0.371148" stroke-miterlimit="10"/>
<path d="M153.061 78.5353C153.061 78.829 153.297 79.0653 153.591 79.0653C153.885 79.0653 154.121 78.8256 154.121 78.5353C154.121 78.245 153.885 78.0053 153.591 78.0053C153.301 78.0019 153.061 78.2416 153.061 78.5353Z" fill="black"/>
<path d="M155.151 71.2297C155.151 71.2297 154.82 83.7071 160.323 78.6365" stroke="#CFCFCF" stroke-width="0.371148" stroke-miterlimit="10"/>
<path d="M160.853 78.5353C160.853 78.829 160.616 79.0653 160.323 79.0653C160.029 79.0653 159.793 78.8256 159.793 78.5353C159.793 78.2449 160.029 78.0052 160.323 78.0052C160.616 78.0052 160.853 78.2416 160.853 78.5353Z" fill="black"/>
<path d="M164.873 69.2076C164.873 69.2076 167.874 57.1353 163.638 57.4088" stroke="black" stroke-width="0.371148" stroke-miterlimit="10"/>
<path d="M163.553 70.6659C163.553 71.628 164.148 72.4079 164.88 72.4079C165.613 72.4079 166.203 71.628 166.203 70.6625C166.203 69.7004 165.609 68.9205 164.877 68.9205C164.144 68.9239 163.55 69.7037 163.553 70.6659Z" fill="black"/>
<path d="M164.269 70.6659C164.269 71.3444 164.63 71.8913 165.073 71.8913C165.515 71.8913 165.876 71.3411 165.876 70.6659C165.876 69.9873 165.515 69.4404 165.073 69.4404C164.627 69.4404 164.269 69.9873 164.269 70.6659Z" fill="#DEDFDE"/>
<path d="M136.898 161L136.223 169.801L132.52 169.809L131.684 161H136.898Z" fill="#F7B6A0"/>
<path d="M132.431 168.873L132.938 168.089H135.746L136.276 169.103L138.842 173.651V175.692H131V173.753L132.431 168.873Z" fill="#123876"/>
<path d="M117.944 161L118.62 169.801L122.322 169.809L123.158 161H117.944Z" fill="#F7B6A0"/>
<path d="M122.411 168.873L121.904 168.089H119.096L118.566 169.103L116 173.651V175.692H123.842V173.753L122.411 168.873Z" fill="#123876"/>
<path d="M127.181 99.3953C127.306 96.5841 125.155 94.193 122.348 94.0237C119.384 93.8442 116.881 96.198 116.881 99.1649L116.427 127.625C116.427 127.699 116.438 127.771 116.441 127.842L116.194 169.067H124.776L126.043 128.058C126.05 127.974 126.063 127.889 126.066 127.804L127.181 99.3953Z" fill="black"/>
<path d="M138.71 169.067L138.463 127.842C138.466 127.771 138.476 127.696 138.476 127.625L138.022 99.1652C138.022 96.1983 135.519 93.841 132.556 94.0239C129.748 94.1966 127.597 96.5844 127.723 99.3955L128.837 127.805C128.84 127.889 128.851 127.974 128.861 128.059L130.127 169.067H138.71Z" fill="black"/>
<path d="M137.108 90.0815H127.404H117.782C117.782 90.0815 117.186 91.7851 116.902 98.7011C116.878 99.3074 117.284 99.8662 117.887 100.147L123.916 102.874C126.1 103.89 128.715 103.893 130.903 102.884L137.003 100.235C137.612 99.9543 138.015 99.3955 137.995 98.7892C137.772 92.6048 137.108 90.0815 137.108 90.0815Z" fill="black"/>
<path d="M124.827 103.639H130.053" stroke="#21181E" stroke-width="0.254016" stroke-miterlimit="10" stroke-linecap="round" stroke-linejoin="round"/>
<path d="M126.856 55.7963L115.347 60.8021C114.443 61.2051 113.146 63.3693 113.42 64.3989L117.779 90.0816H137.101L140.644 64.1889C140.908 63.1322 139.394 60.8021 138.452 60.4363L126.856 55.7963Z" fill="#145ED7"/>
<path d="M127.001 59.322L125.156 61.4083L127.035 62.841L128.864 61.3779L127.001 59.322Z" fill="#C9DAF4"/>
<path d="M126.395 62.0757L124.485 83.1658L127.279 87.1216L129.748 83.1658L127.547 61.9944L126.395 62.0757Z" fill="#C9DAF4"/>
<path d="M125.155 61.4084L124.485 62.2179L121.44 58.1231L124.055 57.0156L127.001 59.3221L125.155 61.4084Z" fill="#145ED7"/>
<path d="M128.847 61.4084L129.514 62.2179L132.586 58.0893L129.938 57.0292L127.001 59.3221L128.847 61.4084Z" fill="#145ED7"/>
<path d="M121.44 58.123C121.44 58.123 124.783 77.7635 121.41 117.305C121.254 119.121 119.73 120.513 117.908 120.513H111.869L115.923 79.5281L113.278 63.2711C113.112 62.255 113.671 61.2627 114.626 60.8766L121.44 58.123Z" fill="white"/>
<path d="M121.44 58.1232L117.393 62.8411L120.123 64.5108L117.393 66.6547L122.697 77.9974" stroke="#E2E2FA" stroke-width="0.254016" stroke-miterlimit="10" stroke-linecap="round" stroke-linejoin="round"/>
<path d="M132.742 58.123C132.742 58.123 129.399 77.7635 132.773 117.305C132.928 119.121 134.452 120.513 136.275 120.513H142.313L138.256 79.5281L140.84 63.6369C141.04 62.4074 140.363 61.2051 139.208 60.7377L132.742 58.123Z" fill="white"/>
<path d="M132.742 58.1232L136.722 62.8411L133.992 64.5108L136.722 66.6547L131.428 77.9974" stroke="#E2E2FA" stroke-width="0.254016" stroke-miterlimit="10" stroke-linecap="round" stroke-linejoin="round"/>
<path d="M115.185 60.6525C115.185 60.6525 110.738 61.9496 110.087 67.687C109.627 71.7343 108.858 79.3582 109.01 83.6866C109.071 85.4783 110.247 87.0396 111.954 87.5917L126.131 91.0294L128.553 84.6079L117.156 81.1769L116.309 61.6889L115.185 60.6525Z" fill="white"/>
<path d="M115.754 69.5942L117.156 81.1774" stroke="#E2E2FA" stroke-width="0.254016" stroke-miterlimit="10" stroke-linecap="round" stroke-linejoin="round"/>
<path d="M118.091 81.0657C118.091 81.0657 115.551 80.3917 112.275 81.0657" stroke="#E2E2FA" stroke-width="0.254016" stroke-miterlimit="10" stroke-linecap="round" stroke-linejoin="round"/>
<path d="M115.181 88.3778L122.697 90.1999" stroke="#E2E2FA" stroke-width="0.254016" stroke-miterlimit="10" stroke-linecap="round" stroke-linejoin="round"/>
<path d="M126.846 81.1299L122.792 80.4864C122.792 80.4864 121.081 77.6482 117.735 78.0343C117.183 78.0986 116.709 78.4712 116.54 78.9995L116.455 79.2671C116.076 80.4423 116.78 81.6921 117.982 81.98L127.019 84.1374L126.846 81.1299Z" fill="#E9AF89"/>
<path d="M138.822 60.5851C138.822 60.5851 143.174 61.95 143.824 67.6908C144.285 71.7381 146.046 79.809 145.894 84.1374C145.88 84.5506 145.806 84.9537 145.68 85.333C145.128 86.996 143.462 88.0391 141.708 88.0527L126.253 88.178L125.806 80.3374L136.912 80.0359L137.515 61.6892L138.822 60.5851Z" fill="white"/>
<path d="M139.719 69.5941L138.466 79.9613" stroke="#E2E2FA" stroke-width="0.254016" stroke-miterlimit="10" stroke-linecap="round" stroke-linejoin="round"/>
<path d="M138.07 79.7615C138.07 79.7615 140.532 79.389 143.811 80.0596" stroke="#E2E2FA" stroke-width="0.254016" stroke-miterlimit="10" stroke-linecap="round" stroke-linejoin="round"/>
<path d="M131.76 80.1747C131.76 80.1747 135.018 74.9793 140.17 74.6914C140.41 74.6778 140.617 74.8641 140.617 75.1046C140.617 75.2875 140.498 75.45 140.322 75.5008C139.791 75.6566 138.646 76.0427 137.816 76.6591C137.816 76.6591 139.645 76.0732 141.379 76.3848C141.596 76.4221 141.752 76.6117 141.752 76.8285C141.752 77.0622 141.575 77.2552 141.342 77.2756C140.512 77.3467 138.578 77.6278 137.084 78.6913L136.918 80.0325L131.76 80.1747Z" fill="#E9AF89"/>
<path d="M141.748 77.252H141.87C142.155 77.252 142.385 77.4823 142.385 77.7668C142.385 78.0072 142.219 78.2172 141.982 78.268C141.074 78.4678 138.778 79.0233 136.641 79.9073L136.383 77.7701L138.778 76.8794L141.748 77.252Z" fill="#E9AF89"/>
<path d="M141.315 78.3966L141.257 78.9656C141.203 79.5041 140.756 79.9207 140.214 79.9377L136.912 80.0325L136.241 79.2129L136.753 78.3086L139.56 77.8005L141.315 78.3966Z" fill="#E9AF89"/>
<path d="M139.093 88.178H131.289" stroke="#E2E2FA" stroke-width="0.254016" stroke-miterlimit="10" stroke-linecap="round" stroke-linejoin="round"/>
<path d="M126.013 83.8971L126.256 88.1781L127.269 88.1713" stroke="#E2E2FA" stroke-width="0.254016" stroke-miterlimit="10" stroke-linecap="round" stroke-linejoin="round"/>
<path d="M119.858 41.4427C119.858 41.4427 118.629 34.4963 122.73 33.4294C126.402 32.4743 127.983 35.6207 127.983 35.6207L123.472 34.7841L119.858 41.4427Z" fill="black"/>
<path d="M134.649 41.4427C134.649 41.4427 135.878 34.4963 131.777 33.4294C128.105 32.4743 126.524 35.6207 126.524 35.6207L131.039 34.7841L134.649 41.4427Z" fill="black"/>
<path d="M119.828 40.7821V38.5163C119.828 35.6646 122.141 33.3513 124.993 33.3513H129.521C132.373 33.3513 134.686 35.6646 134.686 38.5163L134.656 41.4392L119.828 40.7821Z" fill="black"/>
<path d="M121.674 44.6603C122.09 45.5883 122.053 47.0887 121.173 47.4206C120.292 47.7525 119.239 46.5569 118.822 45.6255C118.405 44.6975 118.659 43.8881 119.54 43.5595C120.424 43.2276 121.257 43.7323 121.674 44.6603Z" fill="#E9AF89"/>
<path d="M119.516 44.677L120.996 45.8522" stroke="black" stroke-width="0.170462" stroke-miterlimit="10" stroke-linecap="round" stroke-linejoin="round"/>
<path d="M132.867 44.6603C132.451 45.5883 132.488 47.0887 133.369 47.4206C134.249 47.7525 135.302 46.5569 135.719 45.6255C136.136 44.6975 135.882 43.8881 135.001 43.5595C134.117 43.2276 133.284 43.7323 132.867 44.6603Z" fill="#E9AF89"/>
<path d="M135.025 44.677L133.545 45.8522" stroke="black" stroke-width="0.170462" stroke-miterlimit="10" stroke-linecap="round" stroke-linejoin="round"/>
<path d="M127.259 48.2129C131.363 48.2129 134.69 44.8861 134.69 40.7821C134.69 36.6782 131.363 33.3513 127.259 33.3513C123.155 33.3513 119.828 36.6782 119.828 40.7821C119.828 44.8861 123.155 48.2129 127.259 48.2129Z" fill="black"/>
<path d="M124.475 49.6016L124.051 57.0663L127.001 59.3219L129.948 57.1408L129.254 49.5101L124.475 49.6016Z" fill="#E9AF89"/>
<path d="M124.962 51.7184L129.711 54.5261L129.331 50.0283L124.962 51.7184Z" fill="black"/>
<path d="M127.259 34.7841C123.824 34.7841 120.793 37.4394 120.793 40.7179L120.99 44.65C120.99 44.65 121.04 48.9581 124.204 51.3357C126.019 52.7006 128.495 52.7006 130.31 51.3357C133.477 48.9581 133.524 44.65 133.524 44.65L133.721 40.7179C133.724 37.4428 130.693 34.7841 127.259 34.7841Z" fill="#E9AF89"/>
<path d="M126.822 44.826V46.2858L127.506 46.2926" stroke="black" stroke-width="0.170462" stroke-miterlimit="10" stroke-linecap="round" stroke-linejoin="round"/>
<path d="M128.712 43.3866C128.712 43.3866 128.722 42.5467 130.321 42.6618C131.757 42.7668 131.919 43.4103 131.919 43.4103C131.919 43.4103 131.723 44.5314 130.148 44.5551C128.576 44.5856 128.712 43.3866 128.712 43.3866Z" fill="white"/>
<path d="M131.221 43.5695C131.218 44.1656 130.768 44.6465 130.216 44.6431C129.663 44.6397 129.223 44.152 129.227 43.5525C129.23 42.9531 129.68 42.4755 130.232 42.4789C130.785 42.4857 131.225 42.9734 131.221 43.5695Z" fill="black"/>
<path d="M128.553 42.9565C128.84 42.7398 129.132 42.628 129.443 42.5501C129.755 42.4756 130.07 42.4485 130.388 42.4688C131.022 42.5061 131.652 42.8278 131.973 43.3833C131.99 43.4104 131.98 43.4476 131.953 43.4612C131.926 43.4747 131.892 43.4679 131.875 43.4442L131.872 43.4375C131.716 43.2004 131.475 43.0107 131.218 42.8888C130.957 42.7669 130.669 42.7059 130.381 42.7093C130.094 42.7093 129.802 42.7567 129.531 42.8448C129.264 42.9294 128.989 43.0683 128.807 43.2342L128.793 43.2478C128.715 43.3155 128.6 43.3088 128.532 43.2309C128.464 43.153 128.471 43.0378 128.549 42.9701C128.546 42.9633 128.549 42.9599 128.553 42.9565Z" fill="black"/>
<path d="M125.44 43.3868C125.44 43.3868 125.43 42.5468 123.831 42.662C122.395 42.767 122.233 43.4105 122.233 43.4105C122.233 43.4105 122.429 44.5315 124.004 44.5552C125.575 44.5857 125.44 43.3868 125.44 43.3868Z" fill="white"/>
<path d="M122.92 43.5663C122.923 44.1624 123.374 44.6433 123.926 44.6399C124.478 44.6366 124.918 44.1488 124.915 43.5494C124.911 42.9499 124.461 42.4723 123.909 42.4757C123.357 42.4791 122.913 42.9668 122.92 43.5663Z" fill="black"/>
<path d="M125.352 43.231C125.166 43.0684 124.895 42.9261 124.627 42.8415C124.356 42.7568 124.062 42.706 123.777 42.706C123.489 42.7026 123.201 42.7636 122.941 42.8855C122.683 43.0074 122.443 43.2005 122.287 43.4342L122.283 43.4409C122.267 43.468 122.229 43.4748 122.202 43.4579C122.175 43.4409 122.168 43.4071 122.185 43.38C122.507 42.8245 123.137 42.5028 123.77 42.4655C124.089 42.4452 124.404 42.4723 124.715 42.5468C125.03 42.6247 125.322 42.7365 125.606 42.9532C125.687 43.0142 125.704 43.1327 125.643 43.214C125.582 43.2953 125.464 43.3122 125.382 43.2513C125.379 43.2479 125.376 43.2445 125.372 43.2411L125.352 43.231Z" fill="black"/>
<path d="M127.987 39.9592C127.987 39.9592 129.812 37.7915 132.481 40.7822L127.987 39.9592Z" fill="black"/>
<path d="M125.934 39.9592C125.934 39.9592 124.109 37.7915 121.44 40.7822L125.934 39.9592Z" fill="black"/>
<path d="M125.03 47.4747H129.125C129.125 47.4747 128.891 48.8803 127.079 48.8803C125.216 48.8769 125.03 47.4747 125.03 47.4747Z" fill="white"/>
<path d="M122.73 36.5284C122.73 36.5284 124.668 35.1364 126.822 36.6774C128.634 37.9712 131.916 39.2176 134.09 37.392C134.09 37.392 131.584 34.1644 127.987 34.0492C124.387 33.9273 122.73 36.5284 122.73 36.5284Z" fill="black"/>
<path d="M124.227 33.4699C124.227 33.4699 124.966 31.9865 127.919 32.5148C130.175 32.9178 129.64 32 131.821 32C134.087 32 135.987 34.5842 134.087 37.3885L125.64 34.0118L124.227 33.4699Z" fill="black"/>
<defs>
<linearGradient id="paint0_linear" x1="210.583" y1="14.7599" x2="144.161" y2="102.947" gradientUnits="userSpaceOnUse">
<stop stop-color="#4B4EF7"/>
<stop offset="1" stop-color="#145ED7"/>
</linearGradient>
<linearGradient id="paint1_linear" x1="154.33" y1="48.8808" x2="215.437" y2="48.8808" gradientUnits="userSpaceOnUse">
<stop stop-color="#DAE3FE"/>
<stop offset="1" stop-color="#E9EFFD"/>
</linearGradient>
<linearGradient id="paint2_linear" x1="210.583" y1="14.7599" x2="144.161" y2="102.947" gradientUnits="userSpaceOnUse">
<stop stop-color="#4042E2"/>
<stop offset="1" stop-color="#4F52FF"/>
</linearGradient>
<linearGradient id="paint3_linear" x1="165.845" y1="48.8807" x2="203.922" y2="48.8807" gradientUnits="userSpaceOnUse">
<stop stop-color="#DAE3FE"/>
<stop offset="1" stop-color="#E9EFFD"/>
</linearGradient>
<linearGradient id="paint4_linear" x1="176.862" y1="48.8808" x2="192.905" y2="48.8808" gradientUnits="userSpaceOnUse">
<stop stop-color="#DAE3FE"/>
<stop offset="1" stop-color="#E9EFFD"/>
</linearGradient>
<linearGradient id="paint5_linear" x1="177.149" y1="46.8124" x2="206.431" y2="29.0989" gradientUnits="userSpaceOnUse">
<stop stop-color="#09005D"/>
<stop offset="1" stop-color="#1A0F91"/>
</linearGradient>
<linearGradient id="paint6_linear" x1="210.407" y1="21.086" x2="221.763" y2="21.086" gradientUnits="userSpaceOnUse">
<stop stop-color="#145ED7"/>
<stop offset="1" stop-color="#FCB951"/>
</linearGradient>
<linearGradient id="paint7_linear" x1="209.645" y1="18.5021" x2="217.357" y2="18.5021" gradientUnits="userSpaceOnUse">
<stop stop-color="#145ED7"/>
<stop offset="1" stop-color="#FCB951"/>
</linearGradient>
</defs>
</svg>
