<svg width="15" height="15" viewBox="0 0 15 15" fill="none" xmlns="http://www.w3.org/2000/svg">
<path fill-rule="evenodd" clip-rule="evenodd" d="M0 9V12V12.75C0 13.9926 1.00736 15 2.25 15H3C4.24264 15 5.25 13.9926 5.25 12.75V10.5C5.25 9.25736 4.24264 8.25 3 8.25H1.5V7.5C1.5 4.18629 4.18629 1.5 7.5 1.5C10.8137 1.5 13.5 4.18629 13.5 7.5V8.25H12C10.7574 8.25 9.75 9.25736 9.75 10.5V12.75C9.75 13.9926 10.7574 15 12 15H12.75C13.9926 15 15 13.9926 15 12.75V12V9V7.5C15 3.35786 11.6421 0 7.5 0C3.35786 0 0 3.35786 0 7.5V9ZM12 9.75H13.5V12.75C13.5 13.1642 13.1642 13.5 12.75 13.5H12C11.5858 13.5 11.25 13.1642 11.25 12.75V10.5C11.25 10.0858 11.5858 9.75 12 9.75ZM1.5 12.75V9.75H3C3.41421 9.75 3.75 10.0858 3.75 10.5V12.75C3.75 13.1642 3.41421 13.5 3 13.5H2.25C1.83579 13.5 1.5 13.1642 1.5 12.75Z" fill="#102B44"/>
<mask id="mask0" mask-type="alpha" maskUnits="userSpaceOnUse" x="0" y="0" width="15" height="15">
<path fill-rule="evenodd" clip-rule="evenodd" d="M0 9V12V12.75C0 13.9926 1.00736 15 2.25 15H3C4.24264 15 5.25 13.9926 5.25 12.75V10.5C5.25 9.25736 4.24264 8.25 3 8.25H1.5V7.5C1.5 4.18629 4.18629 1.5 7.5 1.5C10.8137 1.5 13.5 4.18629 13.5 7.5V8.25H12C10.7574 8.25 9.75 9.25736 9.75 10.5V12.75C9.75 13.9926 10.7574 15 12 15H12.75C13.9926 15 15 13.9926 15 12.75V12V9V7.5C15 3.35786 11.6421 0 7.5 0C3.35786 0 0 3.35786 0 7.5V9ZM12 9.75H13.5V12.75C13.5 13.1642 13.1642 13.5 12.75 13.5H12C11.5858 13.5 11.25 13.1642 11.25 12.75V10.5C11.25 10.0858 11.5858 9.75 12 9.75ZM1.5 12.75V9.75H3C3.41421 9.75 3.75 10.0858 3.75 10.5V12.75C3.75 13.1642 3.41421 13.5 3 13.5H2.25C1.83579 13.5 1.5 13.1642 1.5 12.75Z" fill="white"/>
</mask>
<g mask="url(#mask0)">
</g>
</svg>
