<svg enable-background="new 0 0 708.66 708.66" height="708.66" viewBox="0 0 708.66 708.66" width="708.66" xmlns="http://www.w3.org/2000/svg"><g style="fill:none;stroke:#373431;stroke-width:25;stroke-linecap:round;stroke-linejoin:round;stroke-miterlimit:10"><path d="m372.86 115.993v182.347-50.219c0-15.13 12.305-27.393 27.49-27.393 15.162 0 27.49 12.262 27.49 27.393v50.219-22.839c0-15.124 12.329-27.38 27.515-27.38s27.489 12.256 27.489 27.38v36.511l-.023 13.757v-13.745c0-15.137 12.328-27.393 27.49-27.393 15.209 0 27.514 12.256 27.514 27.393v141.704-.024c0 24.316-9.912 46.35-25.928 62.304-19.336 19.313-29.053 44.604-29.053 69.897-45.556 45.556-119.432 45.556-164.952 0h-.049v-69.555c-32.824-18.969-54.956-54.247-54.956-94.773l-33.85-170.159c29.748-5.92 58.715 13.391 64.636 43.054v.024l14.392 72.296h9.827l-.049-250.798c0-15.149 12.329-27.405 27.515-27.405 15.186-.001 27.502 12.255 27.502 27.404z"/><path d="m170.848 115.957 53.162 26.605-.013-53.156z"/><path d="m372.86 115.969h93.823z"/><path d="m224.022 115.969h93.822z"/></g></svg>