<?xml version="1.0" encoding="utf-8"?>
<!-- Generator: Adobe Illustrator 16.0.0, SVG Export Plug-In . SVG Version: 6.00 Build 0)  -->
<!DOCTYPE svg PUBLIC "-//W3C//DTD SVG 1.0//EN" "http://www.w3.org/TR/2001/REC-SVG-20010904/DTD/svg10.dtd">
<svg version="1.0" id="Layer_1" xmlns="http://www.w3.org/2000/svg" xmlns:xlink="http://www.w3.org/1999/xlink" x="0px" y="0px"
	 width="708.66px" height="708.66px" viewBox="0 0 708.66 708.66" enable-background="new 0 0 708.66 708.66" xml:space="preserve">
<g>
	<path fill="none" stroke="#373431" stroke-width="25" stroke-linecap="round" stroke-linejoin="round" stroke-miterlimit="10" d="
		M372.86,115.993V298.34v-50.219c0-15.13,12.305-27.393,27.49-27.393c15.162,0,27.49,12.262,27.49,27.393v50.219v-22.839
		c0-15.124,12.329-27.38,27.515-27.38s27.489,12.256,27.489,27.38v36.511l-0.023,13.757v-13.745
		c0-15.137,12.328-27.393,27.49-27.393c15.209,0,27.514,12.256,27.514,27.393v141.704v-0.024c0,24.316-9.912,46.35-25.928,62.304
		c-19.336,19.313-29.053,44.604-29.053,69.897c-45.556,45.556-119.432,45.556-164.952,0h-0.049V516.35
		c-32.824-18.969-54.956-54.247-54.956-94.773l-33.85-170.159c29.748-5.92,58.715,13.391,64.636,43.054v0.024l0,0l14.392,72.296
		h9.827l-0.049-250.798c0-15.149,12.329-27.405,27.515-27.405C360.544,88.588,372.86,100.844,372.86,115.993z"/>
	
		<polygon fill="none" stroke="#373431" stroke-width="25" stroke-linecap="round" stroke-linejoin="round" stroke-miterlimit="10" points="
		170.848,115.957 224.01,142.562 223.997,89.406 	"/>
	<path fill="none" stroke="#373431" stroke-width="25" stroke-linecap="round" stroke-linejoin="round" stroke-miterlimit="10" d="
		M372.86,115.969h93.823H372.86z"/>
	<path fill="none" stroke="#373431" stroke-width="25" stroke-linecap="round" stroke-linejoin="round" stroke-miterlimit="10" d="
		M224.022,115.969h93.822H224.022z"/>
</g>
</svg>
