<?xml version="1.0" encoding="utf-8"?>
<!-- Generator: Adobe Illustrator 16.0.0, SVG Export Plug-In . SVG Version: 6.00 Build 0)  -->
<!DOCTYPE svg PUBLIC "-//W3C//DTD SVG 1.0//EN" "http://www.w3.org/TR/2001/REC-SVG-20010904/DTD/svg10.dtd">
<svg version="1.0" id="Layer_1" xmlns="http://www.w3.org/2000/svg" xmlns:xlink="http://www.w3.org/1999/xlink" x="0px" y="0px"
	 width="708.66px" height="708.66px" viewBox="0 0 708.66 708.66" enable-background="new 0 0 708.66 708.66" xml:space="preserve">
<g>
	<path fill="none" stroke="#373431" stroke-width="25" stroke-linecap="round" stroke-linejoin="round" stroke-miterlimit="10" d="
		M346.274,115.99v182.335v-50.207c0-15.149,12.292-27.392,27.49-27.392c15.162,0,27.49,12.243,27.49,27.392v50.207v-22.839
		c0-15.112,12.33-27.368,27.515-27.368c15.186,0,27.49,12.256,27.49,27.368v36.523l-0.024,13.757v-13.745
		c0-15.137,12.329-27.392,27.49-27.392c15.209,0,27.514,12.255,27.514,27.392v141.711v-0.037c0,24.328-9.912,46.35-25.928,62.316
		c-19.335,19.312-29.052,44.604-29.052,69.885c-45.556,45.557-119.433,45.557-164.965,0h-0.049v-69.543
		c-32.837-18.97-54.956-54.26-54.956-94.787l-33.85-170.153c29.749-5.92,58.728,13.379,64.636,43.054v0.012l0,0l14.38,72.29h9.839
		l-0.049-250.78c0-15.161,12.329-27.404,27.514-27.404S346.274,100.829,346.274,115.99z"/>
	
		<polygon fill="none" stroke="#373431" stroke-width="25" stroke-linecap="round" stroke-linejoin="round" stroke-miterlimit="10" points="
		493.246,115.99 440.072,89.391 440.096,142.552 	"/>
	<path fill="none" stroke="#373431" stroke-width="25" stroke-linecap="round" stroke-linejoin="round" stroke-miterlimit="10" d="
		M346.274,115.953h93.823H346.274z"/>
	<path fill="none" stroke="#373431" stroke-width="25" stroke-linecap="round" stroke-linejoin="round" stroke-miterlimit="10" d="
		M197.422,115.953h93.823H197.422z"/>
</g>
</svg>
