<?xml version="1.0" encoding="utf-8"?>
<!-- Generator: Adobe Illustrator 16.0.0, SVG Export Plug-In . SVG Version: 6.00 Build 0)  -->
<!DOCTYPE svg PUBLIC "-//W3C//DTD SVG 1.0//EN" "http://www.w3.org/TR/2001/REC-SVG-20010904/DTD/svg10.dtd">
<svg version="1.0" id="Layer_1" xmlns="http://www.w3.org/2000/svg" xmlns:xlink="http://www.w3.org/1999/xlink" x="0px" y="0px"
	 width="708.66px" height="708.66px" viewBox="0 0 708.66 708.66" enable-background="new 0 0 708.66 708.66" xml:space="preserve">
<g>
	<path fill="none" stroke="#373431" stroke-width="25" stroke-linecap="round" stroke-linejoin="round" stroke-miterlimit="10" d="
		M344.455,172.844v170.189v-46.875c0-14.123,11.487-25.573,25.659-25.573c14.16,0,25.659,11.45,25.659,25.573v46.875V321.72
		c0-14.136,11.523-25.562,25.684-25.562s25.646,11.426,25.646,25.562v34.07l-0.024,12.841v-12.829
		c0-14.124,11.511-25.574,25.671-25.574c14.209,0,25.684,11.45,25.684,25.574v132.25v-0.025c0,22.705-9.253,43.25-24.219,58.154
		c-18.041,18.029-27.111,41.639-27.111,65.234c-42.517,42.541-111.438,42.541-153.966,0h-0.024v-64.904
		c-30.64-17.7-51.294-50.635-51.294-88.464l-31.591-158.825c27.758-5.517,54.809,12.5,60.302,40.198l0.012,0.012l0,0l13.44,67.48
		h9.155l-0.024-234.068c0-14.135,11.499-25.585,25.683-25.585C332.956,147.258,344.455,158.708,344.455,172.844z"/>
	<path fill="none" stroke="#373431" stroke-width="25" stroke-linecap="round" stroke-linejoin="round" stroke-miterlimit="10" d="
		M318.796,109.636V65.35V109.636z"/>
	<path fill="none" stroke="#373431" stroke-width="25" stroke-linecap="round" stroke-linejoin="round" stroke-miterlimit="10" d="
		M275.583,127.544L244.26,96.209L275.583,127.544z"/>
	<path fill="none" stroke="#373431" stroke-width="25" stroke-linecap="round" stroke-linejoin="round" stroke-miterlimit="10" d="
		M424.203,170.745h-44.287H424.203z"/>
	<path fill="none" stroke="#373431" stroke-width="25" stroke-linecap="round" stroke-linejoin="round" stroke-miterlimit="10" d="
		M257.688,170.745h-44.311H257.688z"/>
	<path fill="none" stroke="#373431" stroke-width="25" stroke-linecap="round" stroke-linejoin="round" stroke-miterlimit="10" d="
		M393.332,96.209l-31.299,31.311L393.332,96.209z"/>
</g>
</svg>
