<svg enable-background="new 0 0 708.66 708.66" height="708.66" viewBox="0 0 708.66 708.66" width="708.66" xmlns="http://www.w3.org/2000/svg"><g style="fill:none;stroke:#373431;stroke-width:25;stroke-linecap:round;stroke-linejoin:round;stroke-miterlimit:10"><path d="m344.455 172.844v170.189-46.875c0-14.123 11.487-25.573 25.659-25.573 14.16 0 25.659 11.45 25.659 25.573v46.875-21.313c0-14.136 11.523-25.562 25.684-25.562s25.646 11.426 25.646 25.562v34.07l-.024 12.841v-12.829c0-14.124 11.511-25.574 25.671-25.574 14.209 0 25.684 11.45 25.684 25.574v132.25-.025c0 22.705-9.253 43.25-24.219 58.154-18.041 18.029-27.111 41.639-27.111 65.234-42.517 42.541-111.438 42.541-153.966 0h-.024v-64.904c-30.64-17.7-51.294-50.635-51.294-88.464l-31.591-158.825c27.758-5.517 54.809 12.5 60.302 40.198l.012.012 13.44 67.48h9.155l-.024-234.068c0-14.135 11.499-25.585 25.683-25.585 14.159-.001 25.658 11.449 25.658 25.585z"/><path d="m318.796 109.636v-44.286z"/><path d="m275.583 127.544-31.323-31.335z"/><path d="m424.203 170.745h-44.287z"/><path d="m257.688 170.745h-44.311z"/><path d="m393.332 96.209-31.299 31.311z"/></g></svg>