<svg width="16" height="15" viewBox="0 0 16 15" fill="none" xmlns="http://www.w3.org/2000/svg">
<path fill-rule="evenodd" clip-rule="evenodd" d="M6 7.66667C4.15905 7.66667 2.66667 6.17428 2.66667 4.33333C2.66667 2.49238 4.15905 1 6 1C7.84095 1 9.33333 2.49238 9.33333 4.33333C9.33333 6.17428 7.84095 7.66667 6 7.66667ZM12 13.6667V12.3333C12 10.4924 10.5076 9 8.66667 9H3.33333C1.49238 9 0 10.4924 0 12.3333V13.6667C0 14.0349 0.298477 14.3333 0.666667 14.3333C1.03486 14.3333 1.33333 14.0349 1.33333 13.6667V12.3333C1.33333 11.2288 2.22876 10.3333 3.33333 10.3333H8.66667C9.77124 10.3333 10.6667 11.2288 10.6667 12.3333V13.6667C10.6667 14.0349 10.9651 14.3333 11.3333 14.3333C11.7015 14.3333 12 14.0349 12 13.6667ZM16 12.3333V13.6667C16 14.0349 15.7015 14.3333 15.3333 14.3333C14.9651 14.3333 14.6667 14.0349 14.6667 13.6667V12.3338C14.666 11.4224 14.0492 10.6267 13.1667 10.3988C12.8102 10.3068 12.5958 9.94316 12.6878 9.58667C12.7799 9.23017 13.1435 9.01579 13.5 9.10784C14.9708 9.4876 15.9989 10.8138 16 12.3333ZM10.5013 2.39917C11.3863 2.62575 12.0052 3.42316 12.0052 4.33667C12.0052 5.25017 11.3863 6.04758 10.5013 6.27417C10.1446 6.36549 9.92951 6.72868 10.0208 7.08536C10.1122 7.44204 10.4753 7.65716 10.832 7.56583C12.307 7.18819 13.3386 5.85917 13.3386 4.33667C13.3386 2.81416 12.307 1.48514 10.832 1.1075C10.4753 1.01617 10.1122 1.23129 10.0208 1.58797C9.92951 1.94466 10.1446 2.30784 10.5013 2.39917ZM8 4.33333C8 5.4379 7.10457 6.33333 6 6.33333C4.89543 6.33333 4 5.4379 4 4.33333C4 3.22876 4.89543 2.33333 6 2.33333C7.10457 2.33333 8 3.22876 8 4.33333Z" fill="#102B44"/>
<mask id="mask0" mask-type="alpha" maskUnits="userSpaceOnUse" x="0" y="1" width="16" height="14">
<path fill-rule="evenodd" clip-rule="evenodd" d="M6 7.66667C4.15905 7.66667 2.66667 6.17428 2.66667 4.33333C2.66667 2.49238 4.15905 1 6 1C7.84095 1 9.33333 2.49238 9.33333 4.33333C9.33333 6.17428 7.84095 7.66667 6 7.66667ZM12 13.6667V12.3333C12 10.4924 10.5076 9 8.66667 9H3.33333C1.49238 9 0 10.4924 0 12.3333V13.6667C0 14.0349 0.298477 14.3333 0.666667 14.3333C1.03486 14.3333 1.33333 14.0349 1.33333 13.6667V12.3333C1.33333 11.2288 2.22876 10.3333 3.33333 10.3333H8.66667C9.77124 10.3333 10.6667 11.2288 10.6667 12.3333V13.6667C10.6667 14.0349 10.9651 14.3333 11.3333 14.3333C11.7015 14.3333 12 14.0349 12 13.6667ZM16 12.3333V13.6667C16 14.0349 15.7015 14.3333 15.3333 14.3333C14.9651 14.3333 14.6667 14.0349 14.6667 13.6667V12.3338C14.666 11.4224 14.0492 10.6267 13.1667 10.3988C12.8102 10.3068 12.5958 9.94316 12.6878 9.58667C12.7799 9.23017 13.1435 9.01579 13.5 9.10784C14.9708 9.4876 15.9989 10.8138 16 12.3333ZM10.5013 2.39917C11.3863 2.62575 12.0052 3.42316 12.0052 4.33667C12.0052 5.25017 11.3863 6.04758 10.5013 6.27417C10.1446 6.36549 9.92951 6.72868 10.0208 7.08536C10.1122 7.44204 10.4753 7.65716 10.832 7.56583C12.307 7.18819 13.3386 5.85917 13.3386 4.33667C13.3386 2.81416 12.307 1.48514 10.832 1.1075C10.4753 1.01617 10.1122 1.23129 10.0208 1.58797C9.92951 1.94466 10.1446 2.30784 10.5013 2.39917ZM8 4.33333C8 5.4379 7.10457 6.33333 6 6.33333C4.89543 6.33333 4 5.4379 4 4.33333C4 3.22876 4.89543 2.33333 6 2.33333C7.10457 2.33333 8 3.22876 8 4.33333Z" fill="white"/>
</mask>
<g mask="url(#mask0)">
</g>
</svg>
