<svg width="35" height="35" viewBox="0 0 35 35" fill="none" xmlns="http://www.w3.org/2000/svg">
<path fill-rule="evenodd" clip-rule="evenodd" d="M15.2 16.7556C12.3772 16.7556 10.0889 14.4672 10.0889 11.6445C10.0889 8.82166 12.3772 6.53334 15.2 6.53334C18.0228 6.53334 20.3111 8.82166 20.3111 11.6445C20.3111 14.4672 18.0228 16.7556 15.2 16.7556ZM24.4 25.9556V23.9111C24.4 21.0883 22.1117 18.8 19.2889 18.8H11.1111C8.28832 18.8 6 21.0883 6 23.9111V25.9556C6 26.5201 6.45766 26.9778 7.02222 26.9778C7.58678 26.9778 8.04444 26.5201 8.04444 25.9556V23.9111C8.04444 22.2174 9.41744 20.8445 11.1111 20.8445H19.2889C20.9826 20.8445 22.3556 22.2174 22.3556 23.9111V25.9556C22.3556 26.5201 22.8132 26.9778 23.3778 26.9778C23.9423 26.9778 24.4 26.5201 24.4 25.9556ZM30.5333 23.9111V25.9556C30.5333 26.5201 30.0757 26.9778 29.5111 26.9778C28.9466 26.9778 28.4889 26.5201 28.4889 25.9556L28.4889 23.9119C28.4878 22.5143 27.5421 21.2943 26.1889 20.9449C25.6423 20.8037 25.3135 20.2462 25.4547 19.6996C25.5958 19.1529 26.1534 18.8242 26.7 18.9654C28.9553 19.5477 30.5316 21.5811 30.5333 23.9111ZM22.102 8.67873C23.4589 9.02616 24.408 10.2489 24.408 11.6496C24.408 13.0503 23.4589 14.273 22.102 14.6204C21.5551 14.7604 21.2253 15.3173 21.3653 15.8642C21.5053 16.4111 22.0622 16.741 22.6091 16.601C24.8707 16.0219 26.4525 13.9841 26.4525 11.6496C26.4525 9.31505 24.8707 7.27722 22.6091 6.69817C22.0622 6.55814 21.5053 6.88798 21.3653 7.4349C21.2253 7.98182 21.5551 8.5387 22.102 8.67873ZM18.2667 11.6445C18.2667 13.3381 16.8937 14.7111 15.2 14.7111C13.5063 14.7111 12.1333 13.3381 12.1333 11.6445C12.1333 9.95078 13.5063 8.57778 15.2 8.57778C16.8937 8.57778 18.2667 9.95078 18.2667 11.6445Z" fill="#102B44"/>
<mask id="mask0" mask-type="alpha" maskUnits="userSpaceOnUse" x="6" y="6" width="25" height="21">
<path fill-rule="evenodd" clip-rule="evenodd" d="M15.2 16.7556C12.3772 16.7556 10.0889 14.4672 10.0889 11.6445C10.0889 8.82166 12.3772 6.53334 15.2 6.53334C18.0228 6.53334 20.3111 8.82166 20.3111 11.6445C20.3111 14.4672 18.0228 16.7556 15.2 16.7556ZM24.4 25.9556V23.9111C24.4 21.0883 22.1117 18.8 19.2889 18.8H11.1111C8.28832 18.8 6 21.0883 6 23.9111V25.9556C6 26.5201 6.45766 26.9778 7.02222 26.9778C7.58678 26.9778 8.04444 26.5201 8.04444 25.9556V23.9111C8.04444 22.2174 9.41744 20.8445 11.1111 20.8445H19.2889C20.9826 20.8445 22.3556 22.2174 22.3556 23.9111V25.9556C22.3556 26.5201 22.8132 26.9778 23.3778 26.9778C23.9423 26.9778 24.4 26.5201 24.4 25.9556ZM30.5333 23.9111V25.9556C30.5333 26.5201 30.0757 26.9778 29.5111 26.9778C28.9466 26.9778 28.4889 26.5201 28.4889 25.9556L28.4889 23.9119C28.4878 22.5143 27.5421 21.2943 26.1889 20.9449C25.6423 20.8037 25.3135 20.2462 25.4547 19.6996C25.5958 19.1529 26.1534 18.8242 26.7 18.9654C28.9553 19.5477 30.5316 21.5811 30.5333 23.9111ZM22.102 8.67873C23.4589 9.02616 24.408 10.2489 24.408 11.6496C24.408 13.0503 23.4589 14.273 22.102 14.6204C21.5551 14.7604 21.2253 15.3173 21.3653 15.8642C21.5053 16.4111 22.0622 16.741 22.6091 16.601C24.8707 16.0219 26.4525 13.9841 26.4525 11.6496C26.4525 9.31505 24.8707 7.27722 22.6091 6.69817C22.0622 6.55814 21.5053 6.88798 21.3653 7.4349C21.2253 7.98182 21.5551 8.5387 22.102 8.67873ZM18.2667 11.6445C18.2667 13.3381 16.8937 14.7111 15.2 14.7111C13.5063 14.7111 12.1333 13.3381 12.1333 11.6445C12.1333 9.95078 13.5063 8.57778 15.2 8.57778C16.8937 8.57778 18.2667 9.95078 18.2667 11.6445Z" fill="white"/>
</mask>
<g mask="url(#mask0)">
</g>
</svg>
