<svg fill="none" height="17" viewBox="0 0 17 17" width="17" xmlns="http://www.w3.org/2000/svg"><path d="m11.1191 8.89756.3703.59404.0006-.00037zm-3.76 2.34374.37.5942.00029-.0001zm3.76-3.13886.371-.59361-.0007-.00043zm-3.76-2.34375-.37054.59389.00025.00015zm-.47699-.01236.33875.61258.00147-.00082zm0 5.50737.33939-.6123-.00064-.0003zm1.63789-10.9537c-4.53796 0-8.22 3.6695-8.22 8.2h1.4c0-3.75378 3.05171-6.8 6.82-6.8zm8.22 8.2c0-4.5305-3.682-8.2-8.22-8.2v1.4c3.7683 0 6.82 3.04622 6.82 6.8zm-8.22 8.2c4.538 0 8.22-3.6695 8.22-8.2h-1.4c0 3.7538-3.0517 6.8-6.82 6.8zm-8.22-8.2c0 4.5305 3.68204 8.2 8.22 8.2v-1.4c-3.76829 0-6.82-3.0462-6.82-6.8zm10.4488-.19648-3.75999 2.34378.74058 1.1881 3.76001-2.3438zm-.1088.19648c0-.08101.0418-.15465.1082-.19611l.7418 1.18734c.3411-.21309.55-.58708.55-.99123zm.1081.19606c-.0662-.0414-.1081-.11499-.1081-.19606h1.4c0-.40422-.209-.7781-.5499-.99117zm-3.75929-2.34333 3.75999 2.34375.7406-1.18808-3.76001-2.34375zm.23352.00536c-.0743.04132-.16377.03816-.23377-.00551l.74108-1.18778c-.35981-.22449-.81465-.23773-1.18775-.03023zm.11767-.20184c0 .08506-.0464.16243-.11914.20265l-.6775-1.22515c-.37154.20546-.60336.59642-.60336 1.0225zm0 4.68755v-4.68755h-1.4v4.68755zm-.11914-.2027c.07274.0402.11914.1176.11914.2027h-1.4c0 .426.23182.817.60336 1.0224zm-.11086-.0286c.03752 0 .07621.0094.1115.029l-.67878 1.2244c.17735.0983.37301.1466.56728.1466zm-.1209.0346c.03706-.0231.07913-.0346.1209-.0346v1.4c.21479 0 .42987-.0591.6191-.177z" fill="#102b44"/></svg>