<svg fill="none" height="102" viewBox="0 0 102 102" width="102" xmlns="http://www.w3.org/2000/svg"><path d="m54.9477 11.7536v24.5318c0 2.1713-1.7765 3.9477-3.9477 3.9477-2.1713 0-3.9478-1.7764-3.9478-3.9477v-24.5318c0-2.17126 1.7765-3.94769 3.9478-3.94769 2.1712 0 3.9477 1.77643 3.9477 3.94769zm18.2781 20.5283c1.5415 1.5416 4.0409 1.5418 5.5825.0002l10.0777-10.0777c1.5415-1.5415 1.5415-4.0411 0-5.5827-1.5416-1.5415-4.0412-1.5415-5.5827 0l-10.0777 10.0777c-1.5414 1.5416-1.5412 4.0412.0002 5.5825zm-44.4503.0002c1.5416-1.5415 1.5418-4.0409.0002-5.5825l-10.0777-10.0777c-1.5415-1.5415-4.0411-1.5415-5.5827 0-1.5415 1.5416-1.5415 4.0412 0 5.5827l10.0777 10.0777c1.5416 1.5414 4.041 1.5414 5.5825-.0002zm51.5945 63.8646c1.5352-1.5352 1.5352-4.0476 0-5.5827l-17.3466-17.3466c-1.5352-1.5352-4.0475-1.5352-5.5827 0s-1.5352 4.0475 0 5.5827l17.3466 17.3466c1.5352 1.5351 4.0475 1.5351 5.5827 0zm-53.1574 0 17.3466-17.3466c1.5352-1.5352 1.5352-4.0475 0-5.5827s-4.0475-1.5352-5.5827 0l-17.3466 17.3466c-1.5352 1.5351-1.5352 4.0475 0 5.5827 1.5352 1.5351 4.0476 1.5351 5.5827 0z" fill="#000"/><path d="m70.587 9.10272c7.1958-6.1706 18.0415-5.85384 24.8561.96088 6.8219 6.8216 7.1319 17.6826.9417 24.8782-.2733.1926-.5963.3026-.9304.3169s-.6653-.0677-.9542-.2362l-24.0114-24.0115c-.171-.2931-.2528-.6298-.2354-.9688.0175-.33891.1334-.66542.3336-.93948zm-63.0826 25.91658 24.0114-24.0114c.1686-.2889.2506-.6201.2363-.9542-.0143-.33411-.1243-.65709-.3169-.93046-7.1958-6.19032-18.0566-5.87994-24.87829.94166-6.814473 6.8147-7.131231 17.6604-.96063 24.8562.274.2002.60048.3162.93941.3336.33894.0175.67559-.0643.96871-.2354z" fill="#ffb636"/><path d="m95.1291 21.622c-.8787 0-1.6706-.6088-1.8681-1.5023-.4255-1.926-1.3766-3.7013-2.7506-5.1342-1.3706-1.4296-3.0996-2.454-5-2.9626-1.0216-.2733-1.6282-1.3234-1.3548-2.34502.2735-1.02159 1.3234-1.62821 2.345-1.35488 2.5767.68949 4.9193 2.0769 6.7744 4.0117 1.8603 1.9402 3.1486 4.3465 3.7258 6.9589.2281 1.0327-.4242 2.0547-1.4569 2.283-.1362.0302-.2753.0454-.4148.0454zm-86.61272-1.6244c.50861-1.9003 1.53302-3.6294 2.96262-5 1.4329-1.374 3.2084-2.3251 5.1342-2.7506 1.0328-.2281 1.685-1.2503 1.4569-2.28304-.2281-1.03275-1.2503-1.68499-2.283-1.45689-2.6122.57714-5.0186 1.86553-6.95894 3.72583-1.93501 1.8553-3.32217 4.1977-4.01167 6.7744-.07602.2838-.08571.5814-.02831.8695.0574.2882.18033.5593.3593.7924.17897.233.40916.4218.67277.5516.2636.1298.55354.1972.84738.197.84568.0002 1.61965-.5643 1.84875-1.4202z" fill="#ffd469"/><path d="m51 12.8284c-23.3107 0-42.20704 18.8963-42.20704 42.2071s18.89634 42.2089 42.20704 42.2089c23.3108 0 42.2071-18.8981 42.2071-42.2089s-18.8963-42.2071-42.2071-42.2071z" fill="#fb5046"/><path d="m16.6876 55.0365c0 18.9204 15.393 34.3132 34.3132 34.3132s34.3115-15.393 34.3115-34.3132-15.3913-34.3133-34.3115-34.3133-34.3132 15.3931-34.3132 34.3133z" fill="#f9f9f8"/><g fill="#000"><path d="m51 57.664h24.5382c1.2172 0 2.2055-.9881 2.2055-2.2071 0-1.2172-.9883-2.2054-2.2055-2.2054h-24.5382c-1.219 0-2.2074.9884-2.2074 2.2054 0 1.2188.9884 2.2071 2.2074 2.2071z"/><path d="m51 57.664c1.219 0 2.2073-.9881 2.2073-2.2072v-24.0114c0-1.219-.9883-2.2073-2.2073-2.2073s-2.2074.9883-2.2074 2.2073v24.0112c0 1.2191.9884 2.2074 2.2074 2.2074"/></g></svg>