<svg height="14" viewBox="0 0 26 14" width="26" xmlns="http://www.w3.org/2000/svg"><path d="m11.3641169 11.2928932c.3949443-.3905243 1.0352755-.3905243 1.4302198 0s.3949443 1.0236893 0 1.4142136l-4.3423367 4.2928932h21.5366819c.5186402 0 .9460953.3860402 1.0045142.8833789l.0068039.1166211c0 .5522847-.4527825 1-1.0113181 1h-21.5356819l4.3413367 4.2928932c.364564.360484.3926074.927715.0841302 1.3200062l-.0841302.0942074c-.3949443.3905243-1.0352755.3905243-1.4302198 0l-6.06790868-6-.07403299-.0816578c-.0026032-.0032073-.00518682-.0064308-.00775068-.0096703-.00532823-.0066282-.01064946-.0135243-.01586783-.0204721-.01713625-.0229625-.03329199-.0465235-.04842959-.0707719-.01031649-.0163524-.02017338-.0332353-.02949058-.0503299-.00938449-.0173397-.01838217-.0350636-.02685318-.0530786-.006661-.0141137-.01296548-.0284229-.01891532-.0428417-.00945187-.022853-.01802381-.0459919-.02573818-.0695128-.00451325-.0139579-.00886298-.0283325-.01287903-.0427787-.00607955-.0215565-.01133217-.0432469-.01585745-.0651989-.00350218-.0174188-.00661107-.0348451-.00925089-.0523272-.00733874-.0481048-.0111425-.0978466-.0111425-.1484669l.0040113.0892501c-.00209487-.0232552-.00336922-.0465691-.00382305-.0698956l-.00018825-.0193545c0-.0064062.00006092-.0127984.00018222-.019176.00042388-.0228438.0017045-.0464891.00382908-.0700741.00182008-.0205969.00419275-.0402457.00713276-.0597111.00263826-.0169878.00574715-.0344141.00932509-.0517646.00444952-.0220203.00970214-.0437107.01565611-.0651138.00414163-.0145996.00849136-.0289742.01317478-.0432651.0075442-.0231879.01611614-.0463268.02550916-.0690477.00600869-.0145509.01231317-.0288601.01897228-.0430468.0084729-.017942.01747058-.0356659.02697537-.0530793.0091969-.0170209.01905379-.0339038.02945039-.0505507.01505749-.0239539.03121323-.0475149.04832817-.0703301.02932766-.0391663.06187816-.0765534.09767281-.1119475l-.08178367.0913281c.02538217-.0320712.05270141-.0625713.08178367-.0913281z" fill="#102b44" transform="translate(-5 -11)"/></svg>