<svg fill="none" height="70" viewBox="0 0 68 70" width="68" xmlns="http://www.w3.org/2000/svg"><path d="m60.7872 55.3566v-10.0881l4.1088-4.0746-1.4329-1.45-3.8781 3.8524-7.5478-3.761v-10.9375l-9.7412-4.8877-8.7329 4.375-8.7415-4.375-8.78 4.375-7.75439-3.8623v-9.6699l7.72459-3.8624 7.7246 3.8624v5.9283h2.0508v-7.1961l-8.75-4.37504v-9.21006h-2.0508v9.21006l-7.48792 3.76114-6.02287-6.03997-1.47561 1.45004 6.23656 6.26213v10.0881l-4.04045 4.0746 1.46713 1.45 3.82676-3.8524 7.4966 3.761v10.9375l9.8095 4.8877 8.7671-4.375 8.7586 4.375 8.7201-4.375 7.6947 3.8623v9.6699l-7.7246 3.8624-7.7247-3.8624v-5.9283h-2.0507v7.1961l8.75 4.375v9.2101h2.0507v-9.2101l7.5564-3.7611 6.074 6.04 1.4158-1.4501zm-28.3008-15.5215-7.7246 3.8623-7.7246-3.8623v-9.67l7.7246-3.8623 7.7246 3.8623zm17.5 0-7.7246 3.8623-7.7246-3.8623v-9.67l7.7246-3.8623 7.7246 3.8623z" fill="#0e2d45"/></svg>