<svg fill="none" height="70" viewBox="0 0 70 70" width="70" xmlns="http://www.w3.org/2000/svg"><g fill="#0e2d45"><path d="m16.748 20.6899c.2538-.0001.4972-.101.6766-.2804.1795-.1795.2803-.4228.2805-.6766v-3.6001c0-.2538-.1009-.4972-.2803-.6767-.1795-.1795-.4229-.2803-.6768-.2803-.2538 0-.4972.1008-.6767.2803s-.2803.4229-.2803.6767v3.6001c0 .1257.0248.2501.0729.3662s.1186.2216.2074.3105c.0889.0889.1944.1594.3105.2075s.2406.0728.3662.0728z"/><path d="m33.0117 44.1533c-.0526-.2064-.1726-.3894-.3411-.5198-.1684-.1305-.3755-.201-.5886-.2004h-24.11442c-.21306-.0007-.42026.0698-.5887.2002-.16844.1305-.28845.3136-.34098.52-.27446 1.0746-.41317 2.1793-.41289 3.2884-.00173 1.9004.40084 3.7795 1.181 5.5124.78015 1.7329 1.92002 3.2801 3.34389 4.5387 1.424 1.2586 3.0993 2.1999 4.9149 2.7614s3.7299.7303 5.6157.4953c1.8859-.2351 3.7001-.8686 5.3224-1.8586 1.6222-.9899 3.0153-2.3137 4.0867-3.8833s1.7966-3.3492 2.1276-5.2206c.3309-1.8714.2599-3.7918-.2082-5.6337zm-12.9855 14.7728c-3.0448-.0035-5.9639-1.2146-8.1169-3.3675-2.15295-2.153-3.36402-5.0721-3.3675-8.1169-.00012-.7027.06488-1.4038.19414-2.0945h22.58106c.3083 1.6573.2478 3.3622-.1772 4.9936-.4251 1.6313-1.2041 3.149-2.2819 4.4452s-2.4279 2.3392-3.9543 3.0547-3.1916 1.0861-4.8774 1.0854z"/><path d="m66.4453 62.2071h-3.5886v-2.3242c0-.2539-.1008-.4973-.2803-.6768-.1795-.1794-.4229-.2803-.6767-.2803h-.6825v-41.4575h3.9298c.2539 0 .4973-.1008.6768-.2803.1794-.1795.2803-.4229.2803-.6767v-3.2812c-.0002-.2538-.1011-.4972-.2805-.6766-.1795-.1795-.4228-.2803-.6766-.2805h-3.9298v-3.96592c-.0002-.25377-.101-.49711-.2805-.67656-.1794-.17944-.4228-.28032-.6765-.28047h-3.2813c-.2538.00015-.4971.10103-.6766.28047-.1794.17945-.2803.42279-.2804.67656v3.96592h-4.1344v-4.4942c.6761-.03397 1.3121-.33111 1.7721-.82788.4599-.49678.7072-1.15377.6891-1.83051-.0182-.67674-.3003-1.31954-.7862-1.79095-.4859-.47142-1.1369-.73405-1.8139-.73175h-11.4844c-.6787-.00437-1.332.25764-1.8197.72974-.4876.4721-.7707 1.11662-.7883 1.79512-.0176.67849.2316 1.33683.6941 1.8336.4625.49676 1.1014.79232 1.7794.82318v4.49365h-1.5061c-.2538.0002-.4971.101-.6766.2805-.1794.1794-.2803.4228-.2804.6766v3.2812c0 .2538.1008.4972.2803.6767.1794.1795.4229.2803.6767.2803h1.5061v24.7068c-.0006 1.1625.3436 2.2991.9892 3.2659s1.5635 1.7204 2.6375 2.1654c1.074.4449 2.2559.5613 3.396.3343 1.1402-.2269 2.1874-.787 3.0092-1.6094.5492-.5435.9846-1.1909 1.281-1.9045.2963-.7136.4475-1.4791.4449-2.2517v-24.7068h4.1344v41.4575h-.6847c-.2538.0002-.4971.1011-.6766.2805-.1794.1795-.2803.4228-.2804.6766v2.3242h-26.6082c2.714-1.422 4.9837-3.5644 6.5597-6.1919 1.5761-2.6276 2.3976-5.6386 2.3742-8.7025-.0233-3.0639-.8905-6.0621-2.5064-8.6654-1.616-2.6032-3.918-4.7108-6.6534-6.0912v-3.1435c0-.0065 0-.012 0-.0186 0-.0065 0-.012 0-.0186v-3.6542c0-.0065 0-.012 0-.0186 0-.0065 0-.012 0-.0186v-3.6542c0-.0065 0-.012 0-.0186 0-.0065 0-.012 0-.0186v-3.6542c0-.0065 0-.012 0-.0186 0-.0065 0-.012 0-.0186v-3.6542c0-.0066 0-.012 0-.0186 0-.0065 0-.012 0-.0186v-3.1254c.678-.0308 1.3169-.3264 1.7794-.8232.4625-.4967.7117-1.15506.694-1.83356-.0176-.67849-.3006-1.32302-.7882-1.79511-.4877-.4721-1.141-.73411-1.8197-.72974h-14.7657c-.6752.0005-1.3237.26443-1.8073.73566-.4837.47123-.7644 1.11256-.7825 1.78759s.2278 1.33046.6856 1.82696c.4577.4965 1.0911.7948 1.7653.8314v21.0717c-2.73534 1.3805-5.03736 3.4881-6.65321 6.0913-1.61586 2.6033-2.48305 5.6015-2.50633 8.6654-.02329 3.0639.79824 6.075 2.37435 8.7025s3.84584 4.7699 6.55989 6.1918h-8.72701c-.25378.0001-.49712.101-.67657.2805-.17944.1794-.28032.4227-.28046.6765v3.2813c.00014.2537.10102.4971.28046.6765.17945.1795.42279.2804.67657.2805h62.89061c.2538-.0001.4971-.101.6766-.2805.1794-.1794.2803-.4228.2804-.6765v-3.2813c-.0001-.2538-.101-.4971-.2804-.6765-.1795-.1795-.4228-.2804-.6766-.2805zm-8.5094-52.94298h1.3672v3.00778h-1.3672zm-18.3553-4.06875c.0003-.18122.0724-.35492.2006-.48306.1281-.12813.3018-.20025.483-.20054h11.4844c.1813 0 .3552.07202.4834.20022s.2002.30208.2002.48338-.072.35517-.2002.48337-.3021.20022-.4834.20022h-11.4844c-.1812-.00029-.3549-.0724-.483-.20054-.1282-.12814-.2003-.30184-.2006-.48305zm2.461 2.59765h7.9296v4.47998h-7.9275zm-2.461 6.39408h24.6094v1.3672h-24.6094zm10.3906 5.0586h-2.3242c-.2538 0-.4972.1008-.6767.2803s-.2803.4229-.2803.6767.1008.4973.2803.6767c.1795.1795.4229.2803.6767.2803h2.3264v1.7774h-2.3264c-.2538 0-.4972.1008-.6767.2803s-.2803.4229-.2803.6767.1008.4973.2803.6767c.1795.1795.4229.2803.6767.2803h2.3264v1.7774h-2.3264c-.2538 0-.4972.1008-.6767.2803s-.2803.4229-.2803.6767.1008.4973.2803.6767c.1795.1795.4229.2804.6767.2804h2.3264v1.7773h-2.3264c-.2538 0-.4972.1008-.6767.2803s-.2803.4229-.2803.6767c0 .2539.1008.4973.2803.6768.1795.1794.4229.2803.6767.2803h2.3264v1.7773h-2.3264c-.2538 0-.4972.1008-.6767.2803s-.2803.4229-.2803.6767c0 .2539.1008.4973.2803.6768.1795.1794.4229.2803.6767.2803h2.3264v6.2497c-.002 1.0509-.4204 2.0582-1.1635 2.8013s-1.7504 1.1615-2.8013 1.1635c-1.0512-.0012-2.059-.4193-2.8023-1.1626s-1.1614-1.7511-1.1626-2.8022v-24.7068h7.9297zm7.9625-1.7774h1.3672v41.4575h-1.3672zm-1.6406 43.3716h4.6485v1.3672h-4.6485zm-44.3308-51.93946c.0002-.18125.0723-.35504.2004-.48321.1282-.12817.302-.20023.4832-.20038h14.7657c.1813 0 .3551.07202.4833.20022s.2003.30207.2003.48337-.0721.35518-.2003.48338-.302.20022-.4833.20022h-14.7657c-.1813 0-.3551-.07202-.4833-.20022s-.2003-.30208-.2003-.48338zm-6.70136 38.54106c.00549-2.8237.8183-5.5868 2.34257-7.9637 1.52427-2.3768 3.69639-4.2683 6.26029-5.4512.1663-.0764.3072-.199.406-.3531s.1513-.3334.1513-.5164v-21.659h11.2109v2.1738h-2.322c-.2538 0-.4972.1009-.6767.2803-.1795.1795-.2803.4229-.2803.6768 0 .2538.1008.4972.2803.6767s.4229.2803.6767.2803h2.322v1.7773h-2.322c-.2538 0-.4972.1009-.6767.2803-.1795.1795-.2803.4229-.2803.6768 0 .2538.1008.4972.2803.6767s.4229.2803.6767.2803h2.322v1.7773h-2.322c-.2538 0-.4972.1009-.6767.2803-.1795.1795-.2803.423-.2803.6768s.1008.4972.2803.6767.4229.2803.6767.2803h2.322v1.7773h-2.322c-.2538 0-.4972.1009-.6767.2804-.1795.1794-.2803.4229-.2803.6767s.1008.4972.2803.6767.4229.2803.6767.2803h2.322v1.7774h-2.322c-.2538 0-.4972.1008-.6767.2803-.1795.1794-.2803.4229-.2803.6767s.1008.4972.2803.6767.4229.2803.6767.2803h2.322v2.8055c.0001.1831.0527.3624.1515.5165.0989.1541.2399.2766.4063.353 2.4084 1.1063 4.4746 2.8403 5.9819 5.0202 1.5073 2.18 2.4 4.7254 2.5846 7.3692s-.3458 5.2886-1.5355 7.6568c-1.1897 2.3683-2.9949 4.3726-5.2262 5.8028s-4.8063 2.2335-7.455 2.3255c-2.6487.0921-5.2733-.5304-7.5985-1.8021-2.3252-1.2718-4.26524-3.146-5.61657-5.4258-1.35133-2.2799-2.06413-4.8815-2.06359-7.5317zm60.22736 18.0468h-60.97658v-1.3672h60.97658z"/><path d="m17.5742 49.105c-.5137 0-1.016.1523-1.4432.4378-.4271.2854-.7601.6911-.9567 1.1658-.1966.4746-.2481.9969-.1478 1.5008.1002.5039.3476.9668.7109 1.3301.3633.3632.8261.6106 1.33.7109.5039.1002 1.0262.0488 1.5009-.1478.4747-.1967.8804-.5296 1.1658-.9568s.4378-.9294.4378-1.4432c-.0007-.6887-.2747-1.349-.7617-1.836s-1.1473-.7609-1.836-.7616zm0 3.2812c-.1352 0-.2673-.0401-.3798-.1152-.1124-.0751-.2-.1819-.2517-.3068-.0518-.1249-.0653-.2623-.0389-.3949.0263-.1326.0914-.2544.187-.35s.2175-.1607.3501-.1871.27-.0129.3949.0389c.1249.0517.2317.1393.3068.2517.0751.1125.1152.2446.1152.3798-.0001.1813-.0722.3551-.2004.4832-.1281.1282-.3019.2003-.4832.2004z"/><path d="m26.5918 45.8921c-.5138 0-1.016.1523-1.4432.4378-.4272.2854-.7601.6911-.9567 1.1658-.1966.4746-.2481.9969-.1478 1.5008.1002.5039.3476.9668.7109 1.3301s.8261.6107 1.33.7109 1.0262.0488 1.5009-.1478c.4746-.1966.8803-.5296 1.1658-.9568.2854-.4272.4378-.9294.4378-1.4432-.0006-.6887-.2745-1.3491-.7615-1.8361-.4871-.4871-1.1474-.7609-1.8362-.7615zm0 3.2812c-.1352 0-.2674-.0401-.3798-.1152s-.2-.1818-.2518-.3068c-.0517-.1249-.0652-.2623-.0389-.3949.0264-.1326.0915-.2544.1871-.35s.2174-.1607.35-.1871.2701-.0129.395.0389c.1249.0517.2317.1393.3068.2518.0751.1124.1152.2445.1152.3797-.0002.1813-.0722.3551-.2004.4833-.1282.1281-.3019.2002-.4832.2003z"/><path d="m16.6172 36.8525c0 .5138.1523 1.016.4378 1.4432.2854.4272.6911.7602 1.1658.9568.4746.1966.9969.248 1.5008.1478s.9668-.3476 1.3301-.7109.6107-.8262.7109-1.3301.0488-1.0262-.1478-1.5008c-.1966-.4747-.5296-.8804-.9568-1.1658-.4272-.2855-.9294-.4378-1.4432-.4378-.6886.0009-1.3488.2748-1.8358.7618-.487.4869-.7609 1.1472-.7618 1.8358zm2.5976-.6836c.1352 0 .2674.0401.3798.1153.1124.0751.2001.1818.2518.3067.0517.125.0653.2624.0389.395s-.0915.2544-.1871.35-.2174.1607-.35.1871-.27.0128-.395-.0389c-.1249-.0517-.2316-.1394-.3067-.2518-.0752-.1124-.1152-.2446-.1152-.3798.0001-.1812.0722-.355.2003-.4832.1282-.1281.302-.2002.4832-.2004z"/></g></svg>