<svg fill="none" height="260" viewBox="0 0 312 260" width="312" xmlns="http://www.w3.org/2000/svg"><g clip-rule="evenodd" fill-rule="evenodd"><path d="m311.486 182.187c-3.008 53.276-77.212 90.394-115.723 65.747-47.085-30.127-41.471-15.064-87.493-19.627-46.0161-4.564-93.2079-31.044-105.99227-98.431-1.608459-8.497-2.2439108-16.95-2.006729-25.232 1.618179-57.403 44.783599-106.55784 90.965999-104.5866913 74.806 3.1959313 81.314 78.5179913 100.995 85.2408913 19.685 6.7221 67.963-11.7427 109.506 59.4228 7.563 12.953 10.419 25.612 9.748 37.466z" fill="#0e57cb"/><path d="m39.8114 257.86c4.7913 0 4.7913-38.518 0-38.518h142.9906c4.792 0 4.792 38.518 0 38.518z" fill="#f8f7f6"/><path d="m184.707 225.761h-143.2065c-.343 0-.6192-.239-.6192-.535s.2762-.535.6192-.535h143.2065c.343 0 .619.239.619.535s-.276.535-.619.535z" fill="#ebebe9"/><path d="m184.707 233.251h-143.2077c-.3418 0-.618-.24-.618-.535 0-.296.2762-.535.618-.535h143.2077c.343 0 .619.239.619.535 0 .295-.276.535-.619.535z" fill="#ebebe9"/><path d="m184.707 243.951h-143.2077c-.3418 0-.618-.239-.618-.535s.2762-.535.618-.535h143.2077c.343 0 .619.239.619.535s-.276.535-.619.535z" fill="#ebebe9"/><path d="m184.707 251.44h-143.2065c-.343 0-.6192-.238-.6192-.535 0-.295.2762-.535.6192-.535h143.2065c.343 0 .619.24.619.535 0 .297-.276.535-.619.535z" fill="#ebebe9"/><path d="m184.707 228.971h-143.2077c-.3418 0-.618-.239-.618-.535s.2762-.535.618-.535h143.2077c.343 0 .619.239.619.535s-.276.535-.619.535z" fill="#ebebe9"/><path d="m184.707 236.461h-143.2077c-.3418 0-.618-.24-.618-.535s.2762-.535.618-.535h143.2077c.343 0 .619.24.619.535s-.276.535-.619.535z" fill="#ebebe9"/><path d="m184.707 240.741h-143.2077c-.3418 0-.618-.24-.618-.535 0-.296.2762-.535.618-.535h143.2077c.343 0 .619.239.619.535 0 .295-.276.535-.619.535z" fill="#ebebe9"/><path d="m184.707 248.23h-143.2077c-.3418 0-.618-.238-.618-.534s.2762-.535.618-.535h143.2077c.343 0 .619.239.619.535s-.276.534-.619.534z" fill="#ebebe9"/><path d="m182.116 257.86c4.819 0 4.819-38.518 0-38.518h70.213c4.819 0 4.819 38.518 0 38.518z" fill="#42b8eb"/><path d="m251.307 255.086h-64.418c.926-3.108 1.619-8.181 1.619-16.485 0-8.292-.693-13.378-1.619-16.486h64.418c2.469 4.41 2.469 28.572 0 32.971zm.716-37.884h-69.578c-1.357 0-2.469 1.105-2.469 2.457 0 1.081.705 1.99 1.667 2.321 2.58 4.066 2.58 29.175 0 33.241-.962.331-1.667 1.252-1.667 2.322 0 1.364 1.112 2.457 2.469 2.457h69.578c1.505 0 6.06 0 6.06-21.399s-4.555-21.399-6.06-21.399z" fill="#318fb8"/><path d="m238.776 255.086c-.339 1.978-.739 3.661-1.225 4.914h-17.987c.486-1.253.885-2.936 1.225-4.914 1.478-8.956 1.478-24.015 0-32.971-.34-1.977-.739-3.66-1.225-4.913h17.987c.486 1.253.886 2.936 1.225 4.913 1.49 8.956 1.49 24.015 0 32.971z" fill="#fff" opacity=".1"/><path d="m182.448 260h-143.3626c-1.3723 0-2.4838-1.099-2.4838-2.457 0-1.356 1.1115-2.456 2.4838-2.456h142.6326c2.49-4.406 2.49-28.566 0-32.972h-142.6326c-1.3723 0-2.4838-1.101-2.4838-2.457 0-1.357 1.1115-2.456 2.4838-2.456h143.3626c1.505 0 6.088 0 6.088 21.4 0 21.398-4.583 21.398-6.088 21.398z" fill="#318fb8"/><path d="m174.314 246.091c-.031 0-.066-.005-.103-.017l-4.192-1.299-.208-.031-.208.031-4.193 1.299c-.035.012-.069.017-.1.017-.082 0-.147-.034-.183-.057-.049-.032-.13-.105-.13-.235v-1.429h9.629v1.429c0 .13-.083.203-.131.235-.035.023-.098.057-.181.057zm-9.317-2.916h9.629v-2.434h-9.629z" fill="#e0e0df"/><path d="m164.997 243.951h9.629v-1.07h-9.629z" fill="#d5d5d3"/><path d="m164.997 239.671h9.629v-2.419h-9.629zm0-3.606h9.629v-2.418h-9.629zm0-3.605h9.629v-2.419h-9.629z" fill="#e0e0df"/><path d="m164.997 233.251h9.629v-1.07h-9.629z" fill="#d5d5d3"/><path d="m174.626 229.671h-9.629v-.168l.195-.162h9.237l.197.162z" fill="#d5d5d3"/><path d="m164.997 236.461h9.629v-1.07h-9.629z" fill="#d5d5d3"/><path d="m164.997 240.741h9.629v-1.07h-9.629z" fill="#d5d5d3"/><path d="m175.286 247.16h-2.887l-2.588-.881-2.587.881h-2.887c-.261-.287-.41-.666-.41-1.064v-1.513h1.251v1.513c0 .138.079.216.125.25.035.024.098.059.176.059.031 0 .063-.005.097-.018l4.035-1.375.2-.033.201.033 4.034 1.375c.035.013.069.018.099.018.08 0 .14-.035.174-.059.046-.034.126-.112.126-.25v-1.513h1.251v1.513c0 .398-.15.777-.41 1.064zm-.841-3.842h1.251v-2.577h-1.251zm-10.518 0h1.251v-2.577h-1.251z" fill="#e0e0df"/><path d="m174.445 243.951h1.251v-1.07h-1.251zm-10.518 0h1.251v-1.07h-1.251z" fill="#d5d5d3"/><path d="m174.626 239.671h1.07v-2.419h-1.07zm0-3.606h1.07v-2.418h-1.07zm0-3.605h1.07v-2.419h-1.07z" fill="#e0e0df"/><path d="m174.626 233.251h1.07v-1.07h-1.07z" fill="#d5d5d3"/><path d="m175.696 228.602h-10.699c.253-.206.593-.331.966-.331h8.766c.374 0 .713.125.967.331z" fill="#e0e0df"/><path d="m175.696 228.971h-1.251v-.168l-.19-.162h-8.889l-.188.162v.168h-1.251v-.168c0-.356.176-.677.459-.902h10.85c.283.225.46.546.46.902z" fill="#d5d5d3"/><path d="m174.626 236.461h1.07v-1.07h-1.07z" fill="#d5d5d3"/><path d="m174.626 240.741h1.07v-1.07h-1.07z" fill="#d5d5d3"/><path d="m166.114 247.591c-.314 0-.625-.086-.886-.251-.085-.052-.163-.113-.231-.179h2.821l-1.22.359c-.157.047-.32.071-.484.071zm8.463 0c-.162 0-.326-.024-.484-.071l-1.218-.359h2.821c-.07.066-.147.127-.232.179-.261.164-.571.251-.887.251z" fill="#d5d5d3"/><path d="m163.927 239.671h1.07v-2.419h-1.07zm0-3.606h1.07v-2.418h-1.07zm0-3.605h1.07v-2.419h-1.07z" fill="#e0e0df"/><path d="m163.927 233.251h1.07v-1.07h-1.07z" fill="#d5d5d3"/><path d="m163.927 236.461h1.07v-1.07h-1.07z" fill="#d5d5d3"/><path d="m163.927 240.741h1.07v-1.07h-1.07z" fill="#d5d5d3"/><path d="m163.927 228.695v16.489c0 .619.634 1.056 1.247.858l4.102-1.327 4.104 1.327c.612.198 1.246-.239 1.246-.858v-16.489c0-.438-.37-.794-.828-.794h-9.044c-.457 0-.827.356-.827.794z" fill="#42b8eb"/><path d="m165.367 229.113-.189.183v16.36c0 .132.08.206.126.237.048.034.148.084.274.041l4.033-1.317c.13-.042.269-.042.401 0l4.035 1.317c.124.043.225-.007.273-.041.046-.031.125-.105.125-.237v-16.36l-.188-.183zm8.775 18.048c-.168 0-.334-.026-.495-.079l-3.836-1.252-3.832 1.252c-.481.155-1.001.076-1.404-.204-.407-.281-.648-.739-.648-1.222v-16.36c0-.77.647-1.395 1.44-1.395h8.89c.795 0 1.439.625 1.439 1.395v16.36c0 .484-.241.941-.647 1.222-.268.186-.585.283-.907.283z" fill="#43abd9"/><path d="m259.153 213.992c-4.818 0-4.818-38.519 0-38.519h-89.473c-4.818 0-4.818 38.519 0 38.519z" fill="#ebebe9"/><g fill="#f8f7f6"><path d="m167.759 181.893h89.701c.344 0 .623-.24.623-.535s-.279-.535-.623-.535h-89.701c-.344 0-.623.24-.623.535s.279.535.623.535z"/><path d="m167.759 189.383h89.7c.345 0 .624-.239.624-.535s-.279-.535-.624-.535h-89.7c-.344 0-.623.239-.623.535s.279.535.623.535z"/><path d="m167.759 201.152h89.7c.345 0 .624-.239.624-.535s-.279-.534-.624-.534h-89.7c-.344 0-.623.238-.623.534s.279.535.623.535z"/><path d="m167.759 208.642h89.701c.344 0 .623-.24.623-.535 0-.296-.279-.535-.623-.535h-89.701c-.344 0-.623.239-.623.535 0 .295.279.535.623.535z"/><path d="m167.759 186.173h89.7c.345 0 .624-.24.624-.535s-.279-.535-.624-.535h-89.7c-.344 0-.623.24-.623.535s.279.535.623.535z"/><path d="m167.759 193.663h89.7c.345 0 .624-.239.624-.535s-.279-.535-.624-.535h-89.7c-.344 0-.623.239-.623.535s.279.535.623.535z"/><path d="m167.759 197.942h89.7c.345 0 .624-.238.624-.535 0-.295-.279-.535-.624-.535h-89.7c-.344 0-.623.24-.623.535 0 .297.279.535.623.535z"/><path d="m167.759 205.432h89.7c.345 0 .624-.24.624-.535 0-.296-.279-.535-.624-.535h-89.7c-.344 0-.623.239-.623.535 0 .295.279.535.623.535z"/></g><path d="m170.346 213.992c-4.771 0-4.771-38.519 0-38.519h-98.067c-4.7716 0-4.7716 38.519 0 38.519z" fill="#ff7b5d"/><path d="m72.2873 211.218h93.2647c-.93-3.108-1.622-8.18-1.622-16.486 0-8.291.692-13.377 1.622-16.485h-93.2647c-2.4765 4.41-2.4765 28.573 0 32.971zm-.7182-37.885h98.4409c1.362 0 2.476 1.106 2.476 2.457 0 1.081-.706 1.99-1.673 2.323-2.586 4.065-2.586 29.174 0 33.24.967.332 1.673 1.253 1.673 2.322 0 1.363-1.114 2.457-2.476 2.457h-98.4409c-1.5107 0-6.0787 0-6.0787-21.4 0-21.399 4.568-21.399 6.0787-21.399z" fill="#ed6d51"/><path d="m85.8804 211.218c.3418 1.978.746 3.661 1.2371 4.914h9.4017c-.4887-1.253-.8929-2.936-1.2359-4.914-1.4942-8.955-1.4942-24.016 0-32.971.343-1.977.7472-3.661 1.2359-4.914h-9.4017c-.4911 1.253-.8953 2.937-1.2371 4.914-1.5077 8.955-1.5077 24.016 0 32.971z" fill="#fff" fill-opacity=".19"/><path d="m141.518 211.218c.343 1.978.747 3.661 1.236 4.914h9.403c-.49-1.253-.894-2.936-1.237-4.914-1.494-8.955-1.494-24.016 0-32.971.343-1.977.747-3.661 1.237-4.914h-9.403c-.489 1.253-.893 2.937-1.236 4.914-1.507 8.955-1.507 24.016 0 32.971z" fill="#fff" opacity=".1"/><path d="m98.7621 211.218c.3545 1.978.7737 3.661 1.2819 4.914h6.105c-.507-1.253-.926-2.936-1.283-4.914-1.549-8.955-1.549-24.016 0-32.971.357-1.977.776-3.661 1.283-4.914h-6.105c-.5082 1.253-.9274 2.937-1.2819 4.914-1.564 8.955-1.564 24.016 0 32.971z" fill="#fff" opacity=".1"/><path d="m107.322 211.218c.354 1.978.774 3.661 1.283 4.914h6.103c-.506-1.253-.926-2.936-1.281-4.914-1.55-8.955-1.55-24.016 0-32.971.355-1.977.775-3.661 1.281-4.914h-6.103c-.509 1.253-.929 2.937-1.283 4.914-1.564 8.955-1.564 24.016 0 32.971z" fill="#fff" opacity=".1"/><path d="m169.988 216.132h88.831c1.367 0 2.474-1.101 2.474-2.457 0-1.357-1.107-2.456-2.474-2.456h-88.104c-2.48-4.406-2.48-28.567 0-32.973h88.104c1.367 0 2.474-1.1 2.474-2.456 0-1.357-1.107-2.457-2.474-2.457h-88.831c-1.499 0-6.061 0-6.061 21.4 0 21.399 4.562 21.399 6.061 21.399z" fill="#e8674b"/><path d="m187.152 203.292c-.031 0-.065-.005-.1-.019l-4.193-1.369-.208-.033-.208.033-4.192 1.369c-.038.014-.072.019-.104.019-.082 0-.146-.035-.181-.06-.048-.033-.13-.111-.13-.247v-1.508h9.63v1.508c0 .136-.084.214-.132.247-.035.025-.1.06-.182.06zm-9.316-3.074h9.63v-2.567h-9.63zm0-3.827h9.63v-2.566h-9.63zm0-3.826h9.63v-2.566h-9.63zm0-3.826h9.63v-2.566h-9.63z" fill="#d5d5d3"/><path d="m177.836 189.383h9.63v-1.07h-9.63z" fill="#e0e0df"/><path d="m177.836 201.152h9.63v-1.069h-9.63z" fill="#e0e0df"/><path d="m187.466 185.803h-9.63v-.168l.196-.162h9.237l.197.162z" fill="#e0e0df"/><path d="m177.836 193.663h9.63v-1.07h-9.63z" fill="#e0e0df"/><path d="m177.836 197.942h9.63v-1.07h-9.63z" fill="#e0e0df"/><path d="m188.125 203.292h-2.886l-2.588-.867-2.588.867h-2.886c-.262-.283-.411-.656-.411-1.045v-1.488h1.251v1.488c0 .134.079.211.126.244.033.024.095.059.173.059.032 0 .064-.005.101-.018l4.034-1.352.2-.032.2.032 4.035 1.352c.034.013.067.018.097.018.079 0 .141-.035.175-.059.046-.033.126-.11.126-.244v-1.488h1.252v1.488c0 .39-.15.763-.411 1.045zm-.841-3.775h1.252v-2.533h-1.252zm-10.518 0h1.251v-2.533h-1.251zm10.518-3.776h1.252v-2.531h-1.252zm-10.518 0h1.251v-2.531h-1.251zm10.518-3.774h1.252v-2.532h-1.252zm-10.518 0h1.251v-2.532h-1.251zm10.518-3.775h1.252v-2.532h-1.252zm-10.518 0h1.251v-2.532h-1.251zm11.31-3.775h-10.851c.258-.237.603-.384.981-.384h8.889c.38 0 .724.147.981.384z" fill="#d5d5d3"/><path d="m187.284 189.383h1.252v-1.07h-1.252zm-10.518 0h1.251v-1.07h-1.251z" fill="#e0e0df"/><path d="m187.284 201.151h1.252v-1.069h-1.252zm-10.518 0h1.251v-1.069h-1.251z" fill="#e0e0df"/><path d="m188.536 186.173h-1.252v-.168l-.189-.163h-8.889l-.189.163v.168h-1.251v-.168c0-.356.177-.677.459-.902h10.851c.282.225.46.546.46.902z" fill="#e0e0df"/><path d="m187.284 193.663h1.252v-1.07h-1.252zm-10.518 0h1.251v-1.07h-1.251z" fill="#e0e0df"/><path d="m187.284 197.942h1.252v-1.07h-1.252zm-10.518 0h1.251v-1.07h-1.251z" fill="#e0e0df"/><path d="m177.884 204.791c-.315 0-.626-.085-.887-.25-.084-.053-.162-.114-.231-.179h2.821l-1.219.36c-.158.047-.322.069-.484.069zm8.464 0c-.164 0-.328-.023-.485-.069l-1.218-.36h2.821c-.07.065-.147.126-.233.179-.26.165-.572.25-.885.25z" fill="#e0e0df"/><path d="m188.536 185.898v16.487c0 .619-.634 1.057-1.246.859l-4.104-1.327-4.103 1.327c-.612.198-1.247-.24-1.247-.859v-16.487c0-.44.372-.795.83-.795h9.041c.457 0 .829.355.829.795z" fill="#e8674b"/><path d="m187.095 185.245.189.184v16.357c0 .132-.078.206-.125.239s-.147.082-.275.04l-4.033-1.317c-.129-.043-.268-.043-.4 0l-4.034 1.317c-.124.042-.226-.007-.273-.04s-.127-.107-.127-.239v-16.357l.189-.184zm-8.775 18.047c.168 0 .336-.026.497-.08l3.834-1.251 3.834 1.251c.48.155 1.001.078 1.404-.203.405-.281.647-.739.647-1.223v-16.357c0-.77-.646-1.396-1.441-1.396h-8.889c-.794 0-1.44.626-1.44 1.396v16.357c0 .485.243.942.648 1.223.268.186.586.283.906.283z" fill="#e8674b"/><path d="m82.6097 147.654h163.5023c8.828 0 8.828 23.539 0 23.539h-163.5023z" fill="#4fb270"/><path d="m246.275 173.333h-163.8405c-1.0847 0-1.9647-.863-1.9647-1.927 0-1.065.88-1.927 1.9647-1.927h163.8405c3.033 0 4.669-4.905 4.669-9.52 0-4.614-1.636-9.519-4.669-9.519h-163.8405c-1.0847 0-1.9647-.863-1.9647-1.927 0-1.066.88-1.929 1.9647-1.929h163.8405c5.909 0 8.598 6.934 8.598 13.375s-2.689 13.374-8.598 13.374z" fill="#4fb270"/><path d="m34.4615 171.193c8.8305 0 8.8305-23.539 0-23.539h113.2135c8.829 0 8.829 23.539 0 23.539z" fill="#f8f7f6"/><path d="m150.594 156.102h-110.2907c-.2727 0-.4919-.189-.4919-.424 0-.234.2192-.422.4919-.422h110.2907c.273 0 .493.188.493.422 0 .235-.22.424-.493.424z" fill="#ebebe9"/><path d="m150.594 164.662h-110.2907c-.2727 0-.4919-.189-.4919-.424 0-.233.2192-.422.4919-.422h110.2907c.273 0 .493.189.493.422 0 .235-.22.424-.493.424z" fill="#ebebe9"/><path d="m149.527 152.893h-110.2967c-.2698 0-.4888-.19-.4888-.424 0-.233.219-.424.4888-.424h110.2967c.271 0 .49.191.49.424 0 .234-.219.424-.49.424z" fill="#ebebe9"/><path d="m149.526 159.313h-109.2219c-.2718 0-.4927-.19-.4927-.424 0-.233.2209-.424.4927-.424h109.2219c.271 0 .491.191.491.424 0 .234-.22.424-.491.424z" fill="#ebebe9"/><path d="m149.526 161.452h-109.2219c-.2718 0-.4927-.189-.4927-.424 0-.234.2209-.422.4927-.422h109.2219c.271 0 .491.188.491.422 0 .235-.22.424-.491.424z" fill="#ebebe9"/><path d="m149.527 167.872h-110.2967c-.2698 0-.4888-.188-.4888-.422 0-.235.219-.425.4888-.425h110.2967c.271 0 .49.19.49.425 0 .234-.219.422-.49.422z" fill="#ebebe9"/><path d="m147.828 173.333h-113.5393c-1.0861 0-1.967-.863-1.967-1.927 0-1.065.8809-1.927 1.967-1.927h113.5393c3.036 0 4.674-4.905 4.674-9.52 0-4.614-1.638-9.519-4.674-9.519h-113.5393c-1.0861 0-1.967-.863-1.967-1.927 0-1.066.8809-1.929 1.967-1.929h113.5393c5.915 0 8.609 6.934 8.609 13.375s-2.694 13.374-8.609 13.374z" fill="#70bc81"/><path d="m142.527 160.494h-2.914l-.668-.218h-.325l-.668.218h-2.914v-1.987h7.489zm-7.489-2.962h7.489v-1.986h-7.489zm7.489-2.96h-7.489v-1.42l.153-.148h7.184l.152.148z" fill="#e0e0df"/><path d="m135.038 156.102h7.489v-.846h-7.489z" fill="#d5d5d3"/><path d="m135.038 159.313h7.489v-.848h-7.489z" fill="#d5d5d3"/><path d="m142.204 161.226-2.591-.732h2.914v.537l-.102.167zm-6.843 0-.22-.028-.103-.167v-.537h2.914z" fill="#d5d5d3"/><path d="m135.24 162.634c-.262 0-.524-.077-.742-.224-.228-.155-.393-.374-.473-.622h4.085l-2.464.782c-.132.043-.27.064-.406.064zm7.084 0c-.137 0-.274-.021-.405-.064l-2.465-.782h4.087c-.082.248-.246.467-.476.622-.218.147-.479.224-.741.224zm.249-1.809h1.024v-1.965h-1.024zm-2.951 0h-1.681l.677-.216h.328zm-5.654 0h1.023v-1.965h-1.023zm8.605-2.929h1.024v-1.964h-1.024zm-8.605 0h1.023v-1.964h-1.023zm9.629-2.927h-1.024v-1.405l-.154-.146h-7.273l-.155.146v1.405h-1.023v-1.405c0-.204.059-.395.161-.56h9.307c.102.165.161.356.161.56z" fill="#e0e0df"/><path d="m142.573 155.99h1.024v-.846h-1.024zm-8.605 0h1.023v-.846h-1.023z" fill="#d5d5d3"/><path d="m143.597 152.71h-8.559c.188-.288.536-.482.935-.482h6.69c.397 0 .745.194.934.482z" fill="#d5d5d3"/><path d="m142.573 159.201h1.024v-.847h-1.024zm-8.605 0h1.023v-.847h-1.023z" fill="#d5d5d3"/><path d="m143.541 161.452h-4.087l-.672-.187-.672.187h-4.085c-.038-.1-.057-.203-.057-.309v-.537h1.023v.537l.104.167.223.027 2.623-.731h1.681l2.624.731.224-.027.103-.167v-.537h1.024v.537c0 .106-.019.209-.056.309z" fill="#d5d5d3"/><path d="m134 161.852c0 .532.534.906 1.047.737l3.453-1.138 3.452 1.138c.515.169 1.048-.205 1.048-.737v-8.542c0-.376-.312-.68-.697-.68h-7.606c-.386 0-.697.304-.697.68z" fill="#70bc81"/><path d="m138.783 160.479.164.027 3.3 1.102.224-.033.102-.2v-8.275l-.154-.152h-7.273l-.155.152v8.275l.104.2.222.033 3.301-1.102zm-3.543 2.154c-.262 0-.522-.08-.742-.235-.332-.236-.53-.619-.53-1.023v-8.275c0-.644.529-1.166 1.178-1.166h7.273c.649 0 1.178.522 1.178 1.166v8.275c0 .403-.199.786-.53 1.023-.331.235-.759.299-1.147.17l-3.137-1.047-3.138 1.047c-.132.044-.269.065-.405.065z" fill="#4fb270"/><path d="m243.278 162.634h-76.313c-1.671 0-3.038-1.444-3.038-3.21 0-1.765 1.367-3.21 3.038-3.21h76.313c1.668 0 3.035 1.445 3.035 3.21 0 1.766-1.367 3.21-3.035 3.21z" fill="#70bc81"/><path d="m68.7003 143.374h44.2677c6.072-3.301 10.595-10.776 10.611-20.52l20.989-74.7059h126.355l-20.988 74.7059c-.015 9.744-4.541 17.219-10.613 20.52z" fill="#47498c"/><path d="m239.993 146.584h-72.041c-1.369 0-2.477-1.113-2.477-2.487 0-1.373 1.108-2.488 2.477-2.488h71.385c5.438-3.266 8.798-10.142 8.81-18.118 0-.227.033-.452.093-.669l20.143-71.8386h-121.453l-20.43 72.8626c-.12 9.909-4.669 18.483-11.927 22.437-.363.198-.769.301-1.182.301h-44.3531c-1.3676 0-2.4776-1.113-2.4776-2.487 0-1.373 1.11-2.488 2.4776-2.488h43.6981c5.437-3.266 8.798-10.142 8.811-18.118 0-.227.031-.452.093-.669l21.03-75.0003c.3-1.0722 1.275-1.8135 2.385-1.8135h126.6c.775 0 1.506.3645 1.975.9851.469.6207.62 1.4267.409 2.1767l-20.939 74.678c-.119 9.905-4.669 18.481-11.926 22.435-.363.198-.769.301-1.181.301z" fill="#102b44"/><path d="m123.6 133.745c-3.35-3.696 19.602-83.4569 26.299-83.4569h119.954l-23.002 83.1439z" fill="#f8f7f6"/><g fill="#ebebe9"><path d="m133.509 119.835-.085-.005c-.333-.047-.567-.361-.52-.702 2.597-19.3568 8.861-40.3517 19.154-64.1877.136-.3157.495-.4579.805-.3194.307.1397.449.5078.311.8235-10.244 23.7274-16.48 44.6136-19.061 63.8516-.042.314-.303.539-.604.539z"/><path d="m136.72 119.835-.084-.005c-.334-.047-.568-.36-.523-.702 2.592-19.4579 8.857-40.4542 19.155-64.1892.138-.3157.497-.4567.806-.317.308.1398.447.5078.31.8235-10.25 23.6252-16.484 44.5105-19.061 63.8507-.042.314-.303.539-.603.539z"/><path d="m140.999 119.835-.083-.005c-.335-.046-.568-.36-.523-.701 2.585-19.5525 8.851-40.5488 19.155-64.1915.137-.3144.502-.4554.806-.3156.309.1409.447.509.31.8247-10.258 23.5304-16.492 44.4169-19.062 63.8484-.04.313-.303.54-.603.54z"/><path d="m144.209 119.835-.082-.005c-.335-.046-.569-.36-.524-.701 2.541-19.3719 8.987-40.9698 19.155-64.1923.14-.3157.5-.453.807-.3157.308.141.446.5103.308.8247-10.122 23.1127-16.534 44.5963-19.061 63.8493-.041.313-.303.54-.603.54z"/><path d="m148.489 119.835-.083-.005c-.333-.046-.567-.359-.524-.7 2.538-19.47 8.982-41.0678 19.157-64.194.138-.3144.5-.4542.807-.3132s.445.5103.306.8248c-10.126 23.0151-16.538 44.4969-19.058 63.8464-.042.314-.304.541-.605.541z"/><path d="m152.769 119.835-.081-.005c-.334-.045-.571-.358-.525-.7 2.528-19.5596 8.974-41.1571 19.156-64.1945.139-.3144.5-.4542.808-.3119.307.1422.443.5115.305.8259-10.134 22.9251-16.545 44.4054-19.058 63.8445-.041.313-.303.541-.605.541z"/><path d="m155.979 119.835-.081-.005c-.333-.045-.569-.358-.526-.698 2.524-19.6541 8.969-41.253 19.158-64.1982.14-.3132.503-.4529.809-.3094.306.1422.442.5115.302.8247-10.139 22.8329-16.551 44.3133-19.057 63.8439-.041.314-.304.542-.605.542z"/><path d="m160.259 119.835-.08-.005c-.336-.045-.57-.356-.527-.698 2.517-19.7452 8.962-41.3441 19.158-64.1994.14-.312.507-.4517.808-.3082.308.1435.442.5128.303.826-10.146 22.7418-16.558 44.2209-19.058 63.8426-.04.314-.303.542-.604.542z"/><path d="m163.469 119.835-.08-.003c-.334-.045-.57-.358-.527-.699 2.509-19.8323 8.954-41.4325 19.159-64.2006.142-.3144.506-.4504.808-.3082.307.1448.442.5141.301.8273-10.153 22.6545-16.565 44.1337-19.057 63.8395-.04.316-.303.544-.604.544z"/><path d="m167.78 119.835-.083-.003c-.352-.045-.601-.358-.555-.7 1.987-15.064 6.128-30.4519 12.663-47.0438.127-.3223.499-.4822.828-.3598.331.1237.497.4847.371.807-6.498 16.497-10.616 31.7906-12.589 46.7556-.041.315-.318.544-.635.544z"/><path d="m172.028 119.835-.078-.003c-.333-.045-.572-.357-.529-.699 2.493-20.0106 8.941-41.6107 19.16-64.2028.141-.3132.504-.4492.81-.3044.307.1447.439.5153.298.8284-10.167 22.4761-16.578 43.9527-19.055 63.8358-.041.316-.302.545-.606.545z"/><path d="m175.238 119.835-.077-.003c-.336-.044-.572-.356-.53-.698 2.484-20.0924 8.932-41.6947 19.161-64.2041.141-.3144.507-.4491.811-.3032.305.146.437.5166.296.8285-10.176 22.3933-16.588 43.8709-19.057 63.8348-.039.316-.301.545-.604.545z"/><path d="m179.518 119.835-.077-.003c-.335-.044-.572-.356-.53-.698 2.477-20.1842 8.924-41.786 19.159-64.2076.144-.3119.508-.4442.811-.3007.307.1448.44.5166.297.8285-10.183 22.303-16.595 43.7801-19.056 63.8348-.038.316-.302.546-.604.546z"/><path d="m182.727 119.835-.077-.003c-.334-.044-.571-.355-.529-.697 2.467-20.2672 8.914-41.8699 19.16-64.2075.143-.3119.508-.4467.812-.3007.305.146.438.5178.294.8297-10.192 22.2191-16.602 43.6958-19.055 63.8325-.038.316-.302.546-.605.546z"/><path d="m187.008 119.835-.077-.003c-.334-.043-.573-.355-.53-.697 2.458-20.3485 8.905-41.9513 19.162-64.2092.142-.3107.51-.4454.812-.2982.305.146.435.5178.291.8297-10.2 22.1381-16.611 43.6137-19.054 63.8317-.039.316-.302.546-.604.546z"/><path d="m190.217 119.835-.074-.003c-.336-.043-.574-.353-.533-.697 2.452-20.4357 8.899-42.0396 19.162-64.21.146-.3119.511-.4442.813-.297.306.1473.435.5191.291.831-10.207 22.0481-16.617 43.5236-19.053 63.83-.039.316-.302.546-.606.546z"/><path d="m194.52 119.835-.077-.003c-.349-.042-.595-.349-.553-.686 1.689-13.489 5.233-27.5189 10.536-41.7042.118-.32.482-.4813.811-.3693.33.117.5.4702.379.7889-5.268 14.098-8.79 28.0376-10.469 41.4336-.038.311-.312.54-.627.54z"/><path d="m198.777 119.835-.075-.003c-.334-.042-.573-.352-.532-.695 2.431-20.5974 8.878-42.2027 19.162-64.2135.146-.3119.506-.4429.815-.2944.304.1484.433.5202.288.8309-10.227 21.8898-16.638 43.364-19.054 63.828-.037.315-.3.547-.604.547z"/><path d="m201.987 119.835-.075-.003c-.334-.042-.574-.352-.532-.694 2.423-20.6845 8.871-42.2897 19.163-64.2155.147-.3119.517-.4417.815-.2932.304.1485.432.5215.286.8322-10.234 21.8023-16.644 43.2765-19.053 63.8245-.037.317-.3.549-.604.549z"/><path d="m206.267 119.835-.073-.003c-.334-.042-.575-.351-.535-.694 2.415-20.7629 8.863-42.3691 19.166-64.2161.146-.3107.515-.4429.814-.2907.304.1485.431.5215.284.8322-10.243 21.7235-16.653 43.1962-19.051 63.8226-.038.316-.301.549-.605.549z"/><path d="m209.476 119.835-.072-.003c-.336-.04-.575-.351-.535-.693 2.407-20.8453 8.855-42.4519 19.165-64.2194.148-.3094.511-.4392.815-.2895.304.1498.431.5228.284.8335-10.252 21.6428-16.662 43.1146-19.053 63.8214-.035.317-.299.55-.604.55z"/><path d="m213.757 119.835-.074-.003c-.333-.04-.572-.35-.534-.693 2.396-20.9255 8.844-42.5325 19.166-64.2218.147-.3107.517-.4342.815-.2882.303.1509.43.524.282.8347-10.26 21.562-16.67 43.0342-19.05 63.8213-.036.317-.3.55-.605.55z"/><path d="m218.037 119.835-.073-.003c-.334-.04-.573-.35-.536-.692 2.386-21.0024 8.835-42.6104 19.167-64.2222.149-.3107.515-.4367.817-.287.302.151.428.5241.279.8335-10.27 21.4857-16.68 42.9577-19.049 63.8197-.037.318-.3.551-.605.551z"/><path d="m221.247 119.835-.072-.003c-.335-.039-.576-.348-.536-.692 2.377-21.0794 8.825-42.6882 19.166-64.2221.149-.3107.515-.4379.818-.2857.302.1522.426.5252.278.8347-10.279 21.4067-16.69 42.8782-19.049 63.8171-.036.317-.3.551-.605.551z"/><path d="m225.526 119.835-.069-.003c-.336-.039-.577-.348-.539-.69 2.368-21.1605 8.816-42.7698 19.168-64.2269.149-.3094.518-.4342.817-.2832.303.1522.426.5265.277.8347-10.289 21.3286-16.698 42.7994-19.048 63.8164-.036.318-.3.552-.606.552z"/><path d="m228.736 119.835-.069-.003c-.336-.039-.577-.347-.539-.69 2.357-21.2351 8.805-42.8441 19.167-64.2273.151-.3094.519-.4342.818-.282.303.1522.426.5278.277.836-10.301 21.2534-16.709 42.7227-19.048 63.8143-.036.318-.299.552-.606.552z"/><path d="m232.995 119.835-.067-.002c-.323-.039-.556-.343-.521-.68.997-9.201 2.766-18.54 5.258-27.7588.088-.3267.411-.5158.728-.4249.314.0921.496.431.409.7576-2.476 9.1541-4.232 18.4291-5.221 27.5641-.034.314-.289.544-.586.544z"/></g><path d="m267.788 49.4239c-5.116 2.9599-12.481 18.0387-18.664 39.2068-11.851 40.5663-11.081 36.7523-4.479 40.9763 6.322 4.049 4.063.69 4.063.69l21.145-81.0789z" fill="#dadad5"/><path d="m48.3711 143.374s6.291-6.542 9.1163-11.986c.3487-.672 1.0733-1.05 1.8265-.962 6.2873.744 34.7418 3.75 67.2701 1.452 19.892-1.406 86.503-11.039 116.27-4.356 3.694.83 5.622 4.95 3.883 8.298-1.718 3.304-4.203 6.814-7.252 7.554z" fill="#fffffe"/><path d="m170.574 129.62c-.185 4.971-1.827 11.645-2.368 13.754h71.283c3.046-.739 5.53-4.243 7.247-7.544 1.752-3.37-.216-7.485-3.934-8.316-16.7-3.737-44.947-2.357-70.057-.164-1.197.104-2.127 1.074-2.171 2.27z" fill="#dadad5"/><path d="m239.657 146.584h-198.9709c-1.6656 0-3.0146-1.197-3.0146-2.675 0-1.476 1.349-2.674 3.0146-2.674h198.9709c1.664 0 3.015 1.198 3.015 2.674 0 1.478-1.351 2.675-3.015 2.675z" fill="#102b44"/><path d="m167.485 146.584c-1.375 0-2.488-1.113-2.488-2.487 0-1.373 1.113-2.488 2.488-2.488h71.699c5.462-3.266 8.837-10.142 8.849-18.118 0-.227.032-.452.093-.67l21.122-74.9999c.374-1.3221 1.746-2.0896 3.07-1.7202 1.323.3719 2.093 1.7451 1.721 3.0685l-21.032 74.6786c-.119 9.905-4.689 18.48-11.978 22.435-.364.198-.772.301-1.187.301z" fill="#102b44"/><path d="m95.727 69.5884c.7248 5.7063.92 11.2739.7161 17.0161-.1256 2.8612-.3854 5.7472-.9076 8.6766-.2735 1.4671-.608 2.9455-1.0718 4.4498-.465 1.5251-1.0891 3.0101-1.7829 4.3791-1.3962 2.752-3.0859 5.24-5.0044 7.523-1.9085 2.289-4.0507 4.368-6.413 6.198-2.3611 1.824-4.9348 3.439-7.7745 4.6-2.836 1.128-5.9655 1.871-9.1509 1.643-1.2209-.088-2.141-1.146-2.0515-2.364.0784-1.096.9462-1.947 2.0092-2.042l.0548-.005c2.3536-.215 4.6711-.993 6.8233-2.186 2.1609-1.176 4.2037-2.667 6.0513-4.398 3.6665-3.466 6.8345-7.668 8.8375-12.105.4949-1.113.8815-2.1985 1.1737-3.3187.2984-1.14.5247-2.3594.7025-3.6072.3444-2.5056.5346-5.1127.6192-7.7497.1094-2.6356.1106-5.3035.0335-7.9776-.0286-2.6593-.1616-5.3929-.2859-7.9827l-.005-.1028c-.0995-2.0521 1.4883-3.7943 3.546-3.8935 1.9545-.0941 3.6329 1.3445 3.8804 3.2466z" fill="#e59779"/><path d="m94.3674 61.023c2.4913-.626 4.0667 7.222 5.1177 11.4123.7419 2.9617 1.1409 9.4681 1.3109 13.0313.063 1.3022-1.0506 2.3652-2.377 2.2633l-10.4733-.7991c-1.1099-.0846-1.977-.9635-2.0358-2.0546-.2991-5.5834-.3666-21.6292 8.4575-23.8532z" fill="#318fb8"/><path d="m70.8402 188.028c1.5432 3.062 4.1329 9.914 4.1329 9.914l4.4268-1.047s-2.088-8.304-2.9242-10.722z" fill="#f3b89e"/><path d="m87.9595 192.306c1.2449 3.063 3.2152 9.916 3.2152 9.916l4.2745-1.049s-1.3922-8.303-2.0113-10.72z" fill="#f3b89e"/><path d="m126.184 67.0314c-1.231-6.017-6.49-10.3236-12.556-10.3236l-.244.0025-11.358.2143c-.57.0112-1.13.1532-1.636.4186l-6.3345 3.3062v.0012c-4.5364 2.3682-6.9332 7.5543-5.8294 12.612 5.4759 25.1168 4.7639 45.6944 4.7565 45.8994-.0421 1.089.3906 2.143 1.1829 2.884.6885.644 1.5921.999 2.5228.999.1385 0 .2769-.008.4178-.023l28.8529-3.295c1.777-.203 3.158-1.656 3.283-3.454 1.539-22.3347-1.256-40.4379-3.058-49.2416z" fill="#42b8eb"/><path d="m96.3117 121.978-3.2773-.003c-2.1775.02-4.3488.081-6.5226.187-4.3501.22-8.7062.583-13.0968 1.202-4.387.612-8.8034 1.446-13.2677 2.703-4.4557 1.253-8.9852 2.925-13.4827 5.532l-.8442.471c-.408.233-.7987.506-1.1698.823-3.2134 2.734-3.6153 7.569-.8959 10.802.2114.251.5604.746.8528 1.156l.918 1.325c.6107.907 1.2239 1.821 1.8223 2.762 1.208 1.865 2.379 3.788 3.5391 5.724 2.3065 3.883 4.5085 7.873 6.6405 11.915 2.1247 4.049 4.1608 8.163 6.1245 12.323 1.9686 4.16 3.8352 8.376 5.6674 12.623l7.6519-2.568c-1.1404-4.58-2.3274-9.161-3.63-13.72-1.3001-4.559-2.6874-9.104-4.1866-13.632-1.509-4.525-3.1077-9.035-4.8625-13.527-.6095-1.542-1.2349-3.083-1.8801-4.624.7766-.256 1.5668-.499 2.3717-.724 3.4886-.984 7.2021-1.701 10.9906-2.226 3.7885-.535 7.6679-.861 11.5633-1.058 1.9489-.095 3.9027-.151 5.8529-.168l2.9148.002.0295.002c1.5311.019 2.8054-1.179 2.8815-2.718l.7128-14.494c-1.2756-.056-2.2906-.073-3.4174-.09z" fill="#0b2034"/><path d="m131.05 115.782c-.079-1.01-.568-1.942-1.35-2.585-.783-.642-1.789-.942-2.799-.827l-31.0574 3.511c-1.9374.219-3.3811 1.887-3.3162 3.831l.1284 3.916c-2.8026.645-5.6089 1.342-8.4289 2.164-4.3959 1.289-8.8092 2.747-13.3123 4.767l-.7031.299c-.2768.119-.5511.258-.8191.413-3.7413 2.165-5.013 6.949-2.8437 10.682.1957.337.4762.896.7181 1.376l.7517 1.524 1.4761 3.14c.9762 2.112 1.915 4.268 2.8425 6.432 1.8476 4.335 3.5942 8.746 5.2823 13.192 1.6867 4.447 3.285 8.942 4.8371 13.461 1.5484 4.522 3.0171 9.079 4.4532 13.655l8.0986-1.818c-.7094-4.814-1.4549-9.632-2.2902-14.441-.8378-4.808-1.7304-9.618-2.7265-14.421-.9974-4.803-2.067-9.604-3.2639-14.405-.4949-1.966-1.0085-3.934-1.5484-5.905 1.2791-.42 2.572-.827 3.8835-1.212 3.8336-1.122 7.8342-2.033 11.8472-2.89 4.023-.853 8.116-1.561 12.217-2.21 1.201-.187 2.418-.369 3.635-.543l4.833-.255c1.25-.066 2.446-.351 3.566-.813l.222-.024-.008-.068c1.429-.626 2.719-1.551 3.78-2.761 1.936-2.21 2.873-5.038 2.637-7.964z" fill="#122f4a"/><path d="m92.3337 114.159c-.0161 1.357-.0508 3.878-.0941 5.36-.0062.183.1424.325.3258.316 3.1799-.163 28.0816-1.489 37.9436-3.493.147-.03.243-.147.246-.295.01-.683.012-2.722-.231-5.346-.09-.979-.976-1.683-1.945-1.549-5.409.751-22.304 3.025-35.3174 4.01-.5228.039-.9205.471-.9279.997z" fill="#318fb8"/><path d="m102.145 66.3374c-1.216 0-2.4365-.4326-3.4092-1.3129-6.7878-6.1449-7.4993-15.8112-7.5589-16.8927-.1509-2.7904 1.9937-5.1747 4.7915-5.3265 2.7965-.1442 5.1756 1.9758 5.3396 4.7573.116 1.8113 1.108 7.1264 4.247 9.9699 2.075 1.8771 2.23 5.0773.348 7.1467-1.001 1.1004-2.377 1.6582-3.758 1.6582z" fill="#f3b89e"/><path d="m100.14 53.498s-12.1698 2.9893-4.0214 9.2981c6.9764 5.4027 9.0994-6.3523 4.0214-9.2981z" fill="#cf835f"/><path d="m99.2838 42.8165c.0359.8775.1175 1.9454.1942 2.9194l.2771 2.9569c.1052.9652.2165 1.9291.3479 2.828.127.8963.273 1.7614.404 2.4524l.129.6698c.928 4.8385-2.1959 9.5205-6.9759 10.4594-4.211.8275-8.3033-1.5298-9.8521-5.4094-.5406-1.3495-.9538-2.5588-1.3435-3.7493-.3847-1.1868-.7187-2.3248-1.0441-3.4652-.3228-1.1367-.6197-2.2572-.9067-3.3814-.287-1.1429-.5518-2.197-.8239-3.4464l-.0545-.2491c-1.1826-5.4269 2.2057-10.7974 7.5697-11.9942 5.364-1.1981 10.671 2.2321 11.8537 7.6602.1237.5671.1979 1.188.2251 1.7489z" fill="#f3b89e"/><path d="m90.1194 50.9671c.0796.2844.3751.4506.6594.371.2842-.0796.4503-.3745.3707-.6597-.0795-.2843-.3751-.4505-.6593-.3701-.2842.0788-.4504.3745-.3708.6588z" fill="#212744"/><path d="m82.6297 53.1067c.0788.2843.3746.4504.6598.3717.2845-.0805.4498-.3752.3702-.6594-.0787-.285-.3745-.4512-.6598-.3707-.2844.0795-.4498.3742-.3702.6584z" fill="#212744"/><path d="m88.2248 48.1481-.2653-.3747c.1241-.0562 3.1013-1.3923 5.3498-.2054l-.2971.3599c-1.9804-1.046-4.7583.2075-4.7874.2202z" fill="#212744"/><path d="m92.5257 57.7778-.2863-.3579c1.7279-1.0757 2.7558-2.8337 2.7656-2.852l.4443.1994c-.0441.0755-1.0953 1.8733-2.9236 3.0105z" fill="#212744"/><path d="m79.8596 50.288-.4597-.123c.0059-.0221.6568-2.2746 3.2099-1.9924l-.0528.4702c-2.1673-.2415-2.6751 1.5675-2.6974 1.6452z" fill="#212744"/><path d="m89.0295 56.7078h-2.446l.0625-.2997c.4111-1.9608.1333-3.9515-.8264-5.9174l.5181-.2026c.957 1.9608 1.2653 3.949.9208 5.9136h1.771z" fill="#cf835f"/><path d="m102.903 42.1478c-.077-4.3355-.172-6.2786-2.42-6.3499l1.742-1.0104s-.853-.3868-1.805.1744c.742-1.555-.138-2.6952-.138-2.6952l-.8388 2.9319c-1.4165-3.2144-5.6934-5.9249-12.3287-2.7601-6.0488 2.886-10.0168 2.7944-10.0168 2.7944s.7484.9531 2.2439 1.6925c-2.5365.229-4.9663.0483-4.9663.0483.6241 1.1516 1.7894 1.9915 3.1795 2.4941-1.9477.182-3.5048.1604-3.5048.1604.8841 1.4812 2.6371 2.3847 4.6035 2.7104-1.4792.7444-2.5403 1.186-2.5403 1.186 3.0099 2.7512 10.8067.5815 15.1251-3.4192 2.4612 4.847 6.7621 10.3493 8.6695 10.1788 3.0882-.2774 3.1202-1.2127 2.9952-8.1364z" fill="#102b44"/><path d="m96.5192 49.4773c.9538-3.021 2.5143-4.7214 4.3058-2.3589 2.6 3.4285-.247 8.9976-2.1398 7.045-1.8927-1.9525-2.166-4.6861-2.166-4.6861z" fill="#f3b89e"/><path d="m92.4698 192.593c-4.8738-25.888-10.6558-44.638-12.915-51.499-.5167-1.569.299-3.288 1.8564-3.914 17.6387-7.087 42.6418-9.828 42.8918-9.855l.035.305c-.251.027-25.2118 2.763-42.8092 9.835-1.4061.566-2.1429 2.118-1.6763 3.534 2.2618 6.867 8.0475 25.631 12.925 51.538z" fill="#4e536c" opacity=".2"/><path d="m94.0969 198.26c-1.0007 1.088-2.8065 2.014-3.8148 2.402-.2696.105-.4614.314-.5329.587-.4929 1.859-2.7978 8.498-5.3999 10.31-2.9019 2.02 4.4255 2.008 6.7806-1.494 2.3576-3.502 4.1107-5.581 5.7786-6.857 1.3331-1.021.6408-3.201-1.4898-5.04-.39-.338-.9731-.288-1.3218.092z" fill="#102b44"/><path d="m74.6342 197.504c-.2852.043-.5204.208-.6542.462-.9094 1.728-4.6923 7.782-7.6408 8.992-3.29 1.348 3.8304 2.977 6.9353.04 3.1036-2.938 5.289-4.603 7.2054-5.492 1.5349-.711 1.3673-3.024-.2739-5.32-.3015-.423-.8795-.503-1.3048-.206-1.2259.854-3.1962 1.365-4.267 1.524z" fill="#102b44"/><path d="m130.618 80.8682c-1.309-5.806-3.147-11.212-5.61-16.6192-.81-1.7652-2.877-2.6446-4.74-1.9577-1.946.718-2.936 2.8632-2.21 4.7924l.049.1304c.911 2.4235 1.864 5.0396 2.638 7.6009.82 2.5689 1.557 5.1539 2.12 7.7339.543 2.5776 1 5.1489 1.115 7.6084.134 2.4347-.093 4.8222-.835 6.36-.114.277-.535.9876-.864 1.5379l-1.053 1.7154c-.713 1.1314-1.457 2.2344-2.228 3.3054-1.522 2.16-3.211 4.154-5.025 5.966-3.592 3.563-7.977 6.117-12.974 6.882-1.6614-.301-3.7738-.527-6.2046-1.297-.3986-.125-.8449-.124-1.2987-.042-2.4434.44-5.0221 5.329-4.3639 7.7.4087 1.471 2.4684.413 4.7538.082 4.9518-.716 10.9544-.738 11.0344-1.924.011-.159.005-.293.008-.44 1.82-.285 3.619-.759 5.338-1.427 2.924-1.186 5.591-2.876 7.975-4.805 2.4-1.925 4.469-4.147 6.381-6.434.944-1.155 1.837-2.338 2.692-3.535l1.256-1.808c.42-.637.773-1.099 1.295-2.0756.919-1.7403 1.378-3.4955 1.65-5.1675.26-1.6757.352-3.3005.294-4.8669-.096-3.1415-.54-6.1227-1.193-9.0158z" fill="#f3b89e"/><path d="m117.186 56.7146c-2.478-.285-.979 8.5238-.74 12.9502.24 4.429 1.603 12.722 1.603 12.722l12.446-2.0896c.868-.145 1.459-.9925 1.31-1.8942-.841-5.1074-4.227-20.4929-14.619-21.6884z" fill="#42b8eb"/><path d="m85.8196 192.711.8929 3.091 9.8067-1.545-.582-3.804z" fill="#102b44"/><path d="m67.6304 189.135 1.0121 3.458 9.6875-2.144-.7313-4.276z" fill="#102b44"/><path d="m104.402 120.905-.045-.001c-.36-.026-.633-.346-.609-.717.1-1.531-.151-2.604-.766-3.28-.667-.733-1.833-1.075-3.6683-1.075-.3627 0-.6546-.3-.6546-.673 0-.372.2919-.673.6546-.673 2.2233 0 3.6923.477 4.6243 1.502.877.964 1.241 2.366 1.117 4.289-.023.355-.312.628-.653.628z" fill="#212744"/><path d="m105.078 115.047c.043.667-1.349 1.353-3.112 1.535-1.761.18-3.2267-.213-3.2702-.88l-.0367-.563 6.3819-.653z" fill="#f8f7f6"/><path d="m105.078 115.276c.044.57-1.356 1.158-3.129 1.312-1.771.155-3.2451-.182-3.2889-.753-.0439-.57 1.3559-1.158 3.1289-1.312 1.771-.154 3.245.182 3.289.753z" fill="#212744"/><path d="m104.008 114.837c.028.277-1.148.585-2.624.686-1.4769.102-2.6971-.041-2.7245-.319-.0261-.277 1.1481-.585 2.6245-.685 1.478-.102 2.697.04 2.724.318z" fill="#f8f7f6"/><path d="m36.6016 129.791c.1692 1.154 1.2551 1.96 2.4164 1.792l71.727-10.414c1.16-.167 1.971-1.25 1.801-2.404z" fill="#4fb270"/><path d="m87.9595 122.356c.3336 1.167 1.4781 1.908 2.6787 1.734l20.1328-2.941c1.144-.166 1.942-1.239 1.775-2.384z" fill="#16a85d"/><path d="m87.2927 122.479-47.7923 6.945c-2.0688.301-4.2609-1.1-4.874-3.115l-9.6332-31.6575c-.6131-2.0136.5761-3.9081 2.6448-4.2091l47.7923-6.9452c2.0688-.2998 4.2621 1.102 4.874 3.1157l9.6345 31.6581c.6118 2.014-.5786 3.908-2.6461 4.208z" fill="#4fb270"/><path d="m38.4304 129.424c-2.0688.301-4.2609-1.102-4.874-3.115l-9.6332-31.6572c-.6131-2.0149.5773-3.9082 2.6448-4.2092l47.7936-6.9451c2.0675-.3011 4.2609 1.102 4.8727 3.1156l9.6345 31.6569c.6119 2.014-.5786 3.908-2.6461 4.209z" fill="#70bc81"/><path d="m38.0197 128.062.021.151-.021-.151 47.8641-6.939c.6276-.091 1.1453-.412 1.4603-.905.32-.5.3929-1.118.2026-1.737l-9.6477-31.6269c-.3941-1.2924-1.7938-2.1883-3.1269-1.9944l-47.8641 6.9382c-.6276.0921-1.1465.4136-1.4603.9046-.3213.5019-.3929 1.1193-.2027 1.7391l9.6465 31.6264c.3953 1.291 1.7926 2.186 3.1282 1.994zm-.3608.333c-1.3454 0-2.6661-.938-3.0627-2.239l-9.6477-31.626c-.2149-.707-.1309-1.4139.2372-1.9908.3645-.5695.96-.9401 1.6778-1.0445l47.8641-6.9382c1.4702-.2172 3.0306.7769 3.4667 2.2093l9.6477 31.6262c.2162.706.1322 1.414-.2372 1.991-.3632.569-.9587.94-1.6778 1.043l-47.8641 6.94c-.1346.019-.2693.029-.404.029z" fill="#fffffe" opacity=".1"/></g></svg>