<svg width="18" height="18" viewBox="0 0 18 18" fill="none" xmlns="http://www.w3.org/2000/svg">
<path d="M15.9224 14.2883L15.9242 14.2899L15.925 14.2906V14.975H2.02502V14.2906L2.02583 14.2899L2.02587 14.2899L2.03103 14.2852C2.53912 13.8242 2.98331 13.2972 3.35179 12.7185L3.36446 12.6986L3.37519 12.6776C3.7884 11.8696 4.03606 10.9872 4.10364 10.0822L4.10502 10.0636V10.045L4.10503 7.57495L4.10502 7.57394C4.10263 6.38769 4.53022 5.24076 5.3086 4.34558C6.08698 3.45041 7.16339 2.86765 8.33848 2.70524L8.77003 2.6456V2.20995V1.55495C8.77003 1.51053 8.78767 1.46792 8.81909 1.43651C8.8505 1.4051 8.8931 1.38745 8.93753 1.38745C8.98195 1.38745 9.02455 1.4051 9.05597 1.43651C9.08738 1.46792 9.10503 1.51053 9.10503 1.55495V2.19995V2.64013L9.54166 2.69592C10.7274 2.84741 11.817 3.42667 12.6057 4.32486C13.3944 5.22305 13.828 6.37835 13.825 7.57369V7.57495V10.045V10.0636L13.8264 10.0822C13.894 10.9872 14.1417 11.8696 14.5549 12.6776L14.5664 12.7001L14.5801 12.7213C14.9551 13.3016 15.4066 13.8287 15.9224 14.2883Z" stroke="#102B42"/>
<path d="M7.66003 16.375C7.70388 16.6919 7.86093 16.9823 8.10218 17.1925C8.34343 17.4026 8.65258 17.5184 8.97253 17.5184C9.29249 17.5184 9.60164 17.4026 9.84289 17.1925C10.0841 16.9823 10.2412 16.6919 10.285 16.375H7.66003Z" fill="#102B42"/>
</svg>
