<svg fill="none" height="73" viewBox="0 0 73 73" width="73" xmlns="http://www.w3.org/2000/svg"><g fill="#0e2d45"><path d="m64.873 63.9463v-34.3613h4.5625v-8.9825h-13.6875v-6.9863h2.2813v-6.70116h-20.3887v6.70116h2.2813v6.9863h-6.9864v-3.5644h-2.1386v3.5644h-11.5489v-6.9863h15.9688v-6.70116h-20.3887v6.70116h2.2813v6.9863h-13.68752v8.9825h4.5625v34.3613h-7.98438v2.1387h73v-2.1387zm-25.0937-52.4688v-2.42379h16.1113v2.42379zm13.8301 2.1387v6.9863h-11.5489v-6.9863zm-36.6426-2.1387v-2.42379h16.1113v2.42379zm-11.40625 15.9688v-4.7051h61.73635v4.7051zm36.49995 9.125v-6.9863h11.5489v17.1093c0 3.1841-2.5904 5.7745-5.7744 5.7745-3.1841 0-5.7745-2.5904-5.7745-5.7745v-7.9843h8.127v-2.1387zm-22.8125-4.5625v-2.4238h11.5489v2.4238zm11.5489 2.1387v12.5468c0 3.1841-2.5904 5.7745-5.7744 5.7745-3.1841 0-5.7745-2.5904-5.7745-5.7745v-12.5468zm27.375 29.7988h-43.4864v-4.7051h43.4864zm0-6.8438h-43.4864v-24.0957h-2.1386v30.9395h-2.4239v-34.3613h6.9864v17.1093c0 4.3634 3.5497 7.9131 7.9131 7.9131 4.3633 0 7.913-3.5497 7.913-7.9131v-17.1093h6.9864v17.1093c0 4.3634 3.5497 7.9131 7.9131 7.9131 4.3633 0 7.913-3.5497 7.913-7.9131v-17.1093h2.4239zm4.5625 6.8438h-2.4239v-34.3613h2.4239z"/><path d="m29.6562 36.5713h-2.2812v2.1387h2.2812z"/><path d="m25.0938 45.6963h-2.2813v2.1387h2.2813z"/><path d="m47.9062 45.6963h-2.2812v2.1387h2.2812z"/></g></svg>