<svg fill="none" height="63" viewBox="0 0 63 63" width="63" xmlns="http://www.w3.org/2000/svg"><g fill="#0e2d45"><path d="m30.0234 42.3896c-1.5944 0-2.8916 1.2972-2.8916 2.8916 0 1.5945 1.2972 2.8917 2.8916 2.8917 1.5945 0 2.8916-1.2972 2.8916-2.8917 0-1.5944-1.2971-2.8916-2.8916-2.8916zm0 3.9375c-.5767 0-1.0459-.4691-1.0459-1.0459 0-.5767.4692-1.0458 1.0459-1.0458.5768 0 1.0459.4691 1.0459 1.0458 0 .5768-.4691 1.0459-1.0459 1.0459z"/><path d="m45.7734 50.2646c-2.1372 0-3.8759 1.7388-3.8759 3.876s1.7387 3.876 3.8759 3.876 3.876-1.7388 3.876-3.876-1.7388-3.876-3.876-3.876zm0 5.9063c-1.1194 0-2.0302-.9108-2.0302-2.0303s.9108-2.0302 2.0302-2.0302c1.1195 0 2.0303.9107 2.0303 2.0302s-.9108 2.0303-2.0303 2.0303z"/><path d="m47.7182 16.8574 3.6459-15.74998h-5.8321l-3.6459 15.74998h-31.4271l6.7676 9.044v34.207c0 1.5944 1.3586 2.8916 2.9531 2.8916h29.5312c1.5945 0 2.8301-1.2972 2.8301-2.8916v-43.251zm-.719-13.90428h2.043l-3.2186 13.90428h-2.0429zm-3.6457 15.74998h2.0429l-4.5858 19.8106h-2.043zm-2.9701 21.6563-3.2186 13.9043h-2.0429l3.2185-13.9043zm-26.233-21.6563h27.3085l-4.5858 19.8106h-13.8633v-4.0606h3.0761v-1.8457h-3.0761v-4.0605h3.0761v-1.8457h-3.0761v-4.0606h3.0761v-1.8457h-4.9218v17.7188h-2.0918v-13.2276zm36.5449 41.4053c0 .5767-.4076 1.0459-.9844 1.0459h-29.5312c-.5767 0-1.1074-.4692-1.1074-1.0459v-19.749h2.0918v17.7187h4.9218v-1.8457h-3.0761v-4.0605h3.0761v-1.8457h-3.0761v-4.0606h3.0761v-1.8457h-3.0761v-4.0605h13.4361l-3.6459 15.75h5.832l3.6459-15.75h5.4643v-1.8457h-5.0371l4.5859-19.8106h3.4043z"/><path d="m29.0391 6.95215c-2.1372 0-3.876 1.73877-3.876 3.87595 0 2.1372 1.7388 3.876 3.876 3.876s3.8759-1.7388 3.8759-3.876c0-2.13718-1.7387-3.87595-3.8759-3.87595zm0 5.90625c-1.1195 0-2.0303-.9108-2.0303-2.0303 0-1.11946.9108-2.03025 2.0303-2.03025 1.1194 0 2.0302.91079 2.0302 2.03025 0 1.1195-.9108 2.0303-2.0302 2.0303z"/><path d="m33.9609 26.6396c-1.5944 0-2.8916 1.2972-2.8916 2.8916 0 1.5945 1.2972 2.8917 2.8916 2.8917 1.5945 0 2.8916-1.2972 2.8916-2.8917 0-1.5944-1.2971-2.8916-2.8916-2.8916zm0 3.9375c-.5767 0-1.0459-.4691-1.0459-1.0459 0-.5767.4692-1.0458 1.0459-1.0458.5768 0 1.0459.4691 1.0459 1.0458 0 .5768-.4691 1.0459-1.0459 1.0459z"/><path d="m37.8984 0c-1.5944 0-2.8916 1.29716-2.8916 2.8916s1.2972 2.8916 2.8916 2.8916c1.5945 0 2.8916-1.29716 2.8916-2.8916s-1.2971-2.8916-2.8916-2.8916zm0 3.9375c-.5767 0-1.0459-.46918-1.0459-1.0459s.4692-1.0459 1.0459-1.0459c.5768 0 1.0459.46918 1.0459 1.0459s-.4691 1.0459-1.0459 1.0459z"/><path d="m30.0234 32.6074h-1.9687v1.8457h1.9687z"/><path d="m30.0234 26.7012h-1.9687v1.8457h1.9687z"/><path d="m30.0234 20.7949h-1.9687v1.8457h1.9687z"/></g></svg>