<svg width="18" height="18" viewBox="0 0 18 18" fill="none" xmlns="http://www.w3.org/2000/svg">
<path d="M15.925 14.2906V14.975H2.02501V14.2906L2.02582 14.2899L2.02585 14.2899L2.03101 14.2852C2.5391 13.8242 2.98329 13.2972 3.35178 12.7185L3.36444 12.6986L3.37518 12.6776C3.78838 11.8696 4.03604 10.9872 4.10362 10.0822L4.10501 10.0636V10.045L4.10501 7.57495L4.10501 7.57394C4.10262 6.38769 4.53021 5.24076 5.30858 4.34558C6.08696 3.45041 7.16338 2.86765 8.33846 2.70524L8.77001 2.6456V2.20995V1.55495C8.77001 1.51053 8.78766 1.46792 8.81907 1.43651C8.85048 1.4051 8.89309 1.38745 8.93751 1.38745C8.98193 1.38745 9.02454 1.4051 9.05595 1.43651C9.08736 1.46792 9.10501 1.51053 9.10501 1.55495V2.19995V2.64013L9.54164 2.69592C10.7274 2.84741 11.8169 3.42667 12.6057 4.32486C13.3944 5.22305 13.828 6.37835 13.825 7.57369V7.57495V10.045V10.0636L13.8264 10.0822C13.894 10.9872 14.1416 11.8696 14.5548 12.6776L14.5663 12.7001L14.5801 12.7213C14.955 13.3016 15.4065 13.8287 15.9224 14.2883L15.9242 14.2899L15.925 14.2906Z" stroke="#102B42"/>
<path d="M7.66 16.375C7.70384 16.6919 7.86089 16.9823 8.10214 17.1925C8.34339 17.4026 8.65254 17.5184 8.9725 17.5184C9.29245 17.5184 9.6016 17.4026 9.84285 17.1925C10.0841 16.9823 10.2412 16.6919 10.285 16.375H7.66Z" fill="#102B42"/>
</svg>
