<svg width="16" height="16" viewBox="0 0 16 16" fill="none" xmlns="http://www.w3.org/2000/svg">
<path d="M8 1.16675C8.83985 1.16675 9.6453 1.50038 10.2392 2.09424C10.833 2.68811 11.1667 3.49356 11.1667 4.33341C11.1667 5.17327 10.833 5.97872 10.2392 6.57259C9.6453 7.16645 8.83985 7.50008 8 7.50008C7.16014 7.50008 6.35469 7.16645 5.76083 6.57259C5.16696 5.97872 4.83333 5.17327 4.83333 4.33341C4.83333 3.49356 5.16696 2.68811 5.76083 2.09424C6.35469 1.50038 7.16014 1.16675 8 1.16675ZM8 10.3334C9.9651 10.3334 11.7187 10.7324 12.9624 11.3543C14.236 11.991 14.8333 12.7785 14.8333 13.5001V14.8334H1.16666V13.5001C1.16666 12.7785 1.76402 11.991 3.03756 11.3543C4.28133 10.7324 6.03489 10.3334 8 10.3334Z" stroke="#102B42"/>
</svg>
