<?xml version="1.0" encoding="UTF-8"?>
<svg xmlns="http://www.w3.org/2000/svg" xmlns:xlink="http://www.w3.org/1999/xlink" width="17pt" height="18pt" viewBox="0 0 17 18" version="1.1">
<g id="surface1">
<path style=" stroke:none;fill-rule:evenodd;fill:rgb(7.843137%,17.254902%,26.666667%);fill-opacity:1;" d="M 8.433594 0.699219 C 8.433594 0.707031 8.414062 0.714844 8.390625 0.714844 C 8.34375 0.714844 8.125 0.902344 8.125 0.945312 C 8.125 0.960938 8.117188 0.972656 8.109375 0.972656 C 8.097656 0.972656 8.09375 2.09375 8.09375 4.304688 C 8.09375 6.507812 8.097656 7.640625 8.109375 7.644531 C 8.117188 7.652344 8.125 7.667969 8.125 7.679688 C 8.125 7.695312 8.136719 7.714844 8.148438 7.726562 C 8.160156 7.738281 8.195312 7.777344 8.226562 7.816406 C 8.296875 7.894531 8.363281 7.929688 8.441406 7.929688 C 8.472656 7.929688 8.5 7.9375 8.5 7.945312 C 8.5 7.953125 8.542969 7.960938 8.59375 7.960938 C 8.644531 7.960938 8.6875 7.953125 8.6875 7.945312 C 8.6875 7.9375 8.710938 7.929688 8.738281 7.929688 C 8.765625 7.929688 8.789062 7.921875 8.789062 7.914062 C 8.789062 7.90625 8.804688 7.898438 8.824219 7.898438 C 8.84375 7.898438 8.871094 7.886719 8.882812 7.878906 C 8.894531 7.867188 8.921875 7.847656 8.941406 7.832031 C 8.960938 7.820312 8.976562 7.796875 8.976562 7.785156 C 8.976562 7.769531 8.996094 7.746094 9.019531 7.730469 C 9.046875 7.707031 9.0625 7.683594 9.0625 7.652344 C 9.0625 7.625 9.070312 7.605469 9.078125 7.605469 C 9.101562 7.605469 9.101562 1.027344 9.078125 1.011719 C 9.070312 1.007812 9.0625 0.988281 9.0625 0.972656 C 9.0625 0.953125 9.050781 0.933594 9.035156 0.929688 C 9.019531 0.925781 9.011719 0.910156 9.011719 0.898438 C 9.011719 0.867188 8.898438 0.761719 8.867188 0.761719 C 8.855469 0.761719 8.839844 0.75 8.832031 0.738281 C 8.828125 0.722656 8.808594 0.714844 8.789062 0.714844 C 8.769531 0.714844 8.753906 0.707031 8.753906 0.699219 C 8.753906 0.6875 8.691406 0.679688 8.59375 0.679688 C 8.496094 0.679688 8.433594 0.6875 8.433594 0.699219 M 5.730469 3.488281 C 5.730469 3.496094 5.699219 3.503906 5.660156 3.503906 C 5.625 3.503906 5.59375 3.511719 5.59375 3.519531 C 5.59375 3.527344 5.574219 3.535156 5.550781 3.535156 C 5.527344 3.535156 5.507812 3.542969 5.507812 3.550781 C 5.507812 3.558594 5.492188 3.566406 5.472656 3.566406 C 5.457031 3.566406 5.441406 3.574219 5.441406 3.582031 C 5.441406 3.59375 5.425781 3.601562 5.40625 3.601562 C 5.386719 3.601562 5.371094 3.609375 5.371094 3.621094 C 5.371094 3.636719 5.359375 3.640625 5.328125 3.636719 C 5.296875 3.628906 5.285156 3.636719 5.285156 3.65625 C 5.285156 3.671875 5.273438 3.679688 5.253906 3.679688 C 5.234375 3.679688 5.21875 3.6875 5.21875 3.699219 C 5.21875 3.707031 5.203125 3.714844 5.183594 3.714844 C 5.167969 3.714844 5.152344 3.722656 5.152344 3.730469 C 5.152344 3.738281 5.132812 3.746094 5.109375 3.746094 C 5.085938 3.746094 5.066406 3.753906 5.066406 3.761719 C 5.066406 3.769531 5.050781 3.777344 5.03125 3.777344 C 5.011719 3.777344 4.996094 3.785156 4.996094 3.792969 C 4.996094 3.804688 4.984375 3.8125 4.964844 3.8125 C 4.945312 3.8125 4.929688 3.816406 4.929688 3.828125 C 4.929688 3.835938 4.914062 3.84375 4.894531 3.84375 C 4.875 3.84375 4.855469 3.855469 4.851562 3.867188 C 4.847656 3.882812 4.828125 3.890625 4.8125 3.890625 C 4.796875 3.890625 4.773438 3.90625 4.761719 3.925781 C 4.746094 3.941406 4.722656 3.957031 4.707031 3.957031 C 4.691406 3.957031 4.671875 3.964844 4.667969 3.972656 C 4.660156 3.980469 4.644531 3.988281 4.625 3.988281 C 4.609375 3.988281 4.585938 4.003906 4.574219 4.023438 C 4.558594 4.039062 4.535156 4.054688 4.519531 4.054688 C 4.5 4.054688 4.488281 4.066406 4.488281 4.078125 C 4.488281 4.089844 4.476562 4.101562 4.460938 4.101562 C 4.449219 4.101562 4.4375 4.109375 4.4375 4.117188 C 4.4375 4.128906 4.421875 4.136719 4.40625 4.136719 C 4.390625 4.136719 4.367188 4.148438 4.351562 4.167969 C 4.339844 4.183594 4.3125 4.199219 4.296875 4.199219 C 4.28125 4.199219 4.265625 4.207031 4.265625 4.214844 C 4.265625 4.226562 4.257812 4.234375 4.25 4.234375 C 4.230469 4.234375 4.207031 4.25 4.121094 4.324219 C 4.089844 4.355469 4.050781 4.378906 4.035156 4.378906 C 4.019531 4.378906 3.988281 4.398438 3.960938 4.425781 C 3.933594 4.453125 3.90625 4.476562 3.898438 4.476562 C 3.886719 4.476562 3.867188 4.492188 3.847656 4.515625 C 3.832031 4.539062 3.808594 4.558594 3.800781 4.558594 C 3.789062 4.558594 3.769531 4.570312 3.757812 4.589844 C 3.742188 4.605469 3.722656 4.621094 3.710938 4.621094 C 3.683594 4.621094 3.605469 4.695312 3.605469 4.71875 C 3.605469 4.726562 3.597656 4.734375 3.585938 4.734375 C 3.574219 4.734375 3.53125 4.773438 3.484375 4.816406 C 3.441406 4.859375 3.394531 4.898438 3.382812 4.898438 C 3.363281 4.898438 3.007812 5.230469 3.007812 5.253906 C 3.007812 5.261719 2.953125 5.324219 2.882812 5.390625 C 2.804688 5.464844 2.753906 5.527344 2.753906 5.546875 C 2.753906 5.5625 2.746094 5.578125 2.738281 5.578125 C 2.707031 5.578125 2.566406 5.722656 2.566406 5.75 C 2.566406 5.773438 2.527344 5.820312 2.507812 5.820312 C 2.488281 5.820312 2.449219 5.867188 2.449219 5.894531 C 2.449219 5.90625 2.441406 5.917969 2.429688 5.917969 C 2.421875 5.917969 2.414062 5.929688 2.414062 5.941406 C 2.414062 5.949219 2.398438 5.972656 2.378906 5.984375 C 2.359375 5.996094 2.347656 6.015625 2.347656 6.03125 C 2.347656 6.042969 2.324219 6.070312 2.300781 6.089844 C 2.273438 6.113281 2.261719 6.136719 2.265625 6.152344 C 2.273438 6.167969 2.269531 6.175781 2.265625 6.171875 C 2.246094 6.160156 2.191406 6.21875 2.191406 6.246094 C 2.191406 6.257812 2.175781 6.277344 2.160156 6.292969 C 2.140625 6.304688 2.125 6.328125 2.125 6.34375 C 2.125 6.355469 2.105469 6.386719 2.082031 6.40625 C 2.058594 6.429688 2.039062 6.453125 2.039062 6.464844 C 2.039062 6.476562 2.03125 6.488281 2.023438 6.488281 C 2.011719 6.488281 2.007812 6.5 2.007812 6.519531 C 2.007812 6.535156 2 6.550781 1.988281 6.550781 C 1.980469 6.550781 1.972656 6.566406 1.972656 6.589844 C 1.972656 6.609375 1.957031 6.636719 1.9375 6.648438 C 1.917969 6.660156 1.902344 6.683594 1.902344 6.699219 C 1.902344 6.714844 1.894531 6.730469 1.886719 6.730469 C 1.878906 6.730469 1.871094 6.746094 1.871094 6.769531 C 1.871094 6.796875 1.859375 6.8125 1.84375 6.8125 C 1.824219 6.8125 1.820312 6.820312 1.824219 6.835938 C 1.832031 6.851562 1.824219 6.863281 1.808594 6.871094 C 1.796875 6.875 1.785156 6.894531 1.785156 6.910156 C 1.785156 6.925781 1.777344 6.941406 1.769531 6.941406 C 1.757812 6.941406 1.75 6.957031 1.75 6.980469 C 1.75 7.003906 1.742188 7.023438 1.734375 7.023438 C 1.726562 7.023438 1.71875 7.035156 1.71875 7.054688 C 1.71875 7.070312 1.710938 7.085938 1.699219 7.085938 C 1.691406 7.085938 1.683594 7.101562 1.683594 7.117188 C 1.683594 7.136719 1.675781 7.152344 1.664062 7.152344 C 1.65625 7.152344 1.648438 7.167969 1.648438 7.191406 C 1.648438 7.21875 1.640625 7.234375 1.625 7.234375 C 1.609375 7.234375 1.597656 7.246094 1.597656 7.265625 C 1.597656 7.28125 1.589844 7.296875 1.582031 7.296875 C 1.570312 7.296875 1.5625 7.3125 1.5625 7.328125 C 1.5625 7.347656 1.554688 7.363281 1.546875 7.363281 C 1.539062 7.363281 1.53125 7.386719 1.53125 7.417969 C 1.53125 7.449219 1.523438 7.476562 1.511719 7.476562 C 1.503906 7.476562 1.496094 7.492188 1.496094 7.507812 C 1.496094 7.527344 1.488281 7.539062 1.480469 7.539062 C 1.46875 7.539062 1.460938 7.566406 1.460938 7.597656 C 1.460938 7.628906 1.453125 7.652344 1.445312 7.652344 C 1.4375 7.652344 1.429688 7.667969 1.429688 7.6875 C 1.429688 7.703125 1.417969 7.71875 1.402344 7.71875 C 1.386719 7.71875 1.378906 7.734375 1.378906 7.765625 C 1.378906 7.792969 1.371094 7.820312 1.359375 7.824219 C 1.351562 7.828125 1.34375 7.855469 1.34375 7.882812 C 1.34375 7.910156 1.335938 7.929688 1.324219 7.929688 C 1.316406 7.929688 1.308594 7.953125 1.308594 7.976562 C 1.308594 8.003906 1.300781 8.027344 1.292969 8.027344 C 1.28125 8.027344 1.273438 8.050781 1.273438 8.082031 C 1.273438 8.113281 1.265625 8.140625 1.257812 8.140625 C 1.25 8.140625 1.242188 8.160156 1.242188 8.1875 C 1.242188 8.214844 1.234375 8.242188 1.222656 8.246094 C 1.214844 8.25 1.207031 8.285156 1.207031 8.320312 C 1.207031 8.367188 1.199219 8.382812 1.179688 8.382812 C 1.164062 8.382812 1.15625 8.402344 1.15625 8.457031 C 1.15625 8.496094 1.148438 8.53125 1.140625 8.53125 C 1.128906 8.53125 1.121094 8.558594 1.121094 8.59375 C 1.121094 8.628906 1.113281 8.660156 1.105469 8.667969 C 1.09375 8.671875 1.089844 8.714844 1.089844 8.757812 C 1.089844 8.800781 1.082031 8.835938 1.070312 8.835938 C 1.0625 8.835938 1.054688 8.878906 1.054688 8.925781 C 1.054688 8.976562 1.046875 9.015625 1.035156 9.015625 C 1.027344 9.015625 1.019531 9.0625 1.019531 9.121094 C 1.019531 9.183594 1.011719 9.226562 1 9.230469 C 0.992188 9.234375 0.976562 9.289062 0.972656 9.355469 C 0.96875 9.417969 0.957031 9.476562 0.949219 9.480469 C 0.941406 9.484375 0.933594 9.578125 0.933594 9.6875 C 0.933594 9.804688 0.929688 9.894531 0.917969 9.898438 C 0.90625 9.90625 0.902344 10.070312 0.902344 10.339844 C 0.902344 10.613281 0.90625 10.765625 0.917969 10.765625 C 0.929688 10.765625 0.933594 10.847656 0.933594 10.976562 C 0.933594 11.09375 0.941406 11.1875 0.949219 11.1875 C 0.957031 11.1875 0.96875 11.253906 0.972656 11.332031 C 0.980469 11.410156 0.992188 11.472656 1 11.476562 C 1.011719 11.480469 1.019531 11.527344 1.019531 11.585938 C 1.019531 11.644531 1.027344 11.691406 1.035156 11.691406 C 1.046875 11.691406 1.054688 11.730469 1.054688 11.78125 C 1.054688 11.832031 1.0625 11.871094 1.070312 11.871094 C 1.082031 11.871094 1.089844 11.90625 1.089844 11.953125 C 1.089844 11.996094 1.09375 12.03125 1.105469 12.03125 C 1.113281 12.03125 1.121094 12.066406 1.121094 12.105469 C 1.121094 12.144531 1.128906 12.179688 1.140625 12.179688 C 1.148438 12.179688 1.15625 12.207031 1.15625 12.242188 C 1.15625 12.285156 1.164062 12.3125 1.179688 12.320312 C 1.195312 12.324219 1.207031 12.347656 1.207031 12.375 C 1.207031 12.402344 1.214844 12.421875 1.222656 12.421875 C 1.234375 12.421875 1.242188 12.453125 1.242188 12.496094 C 1.242188 12.535156 1.25 12.566406 1.257812 12.566406 C 1.265625 12.566406 1.273438 12.589844 1.273438 12.617188 C 1.273438 12.644531 1.28125 12.664062 1.292969 12.664062 C 1.300781 12.664062 1.308594 12.691406 1.308594 12.722656 C 1.308594 12.753906 1.316406 12.777344 1.324219 12.777344 C 1.335938 12.777344 1.34375 12.800781 1.34375 12.828125 C 1.34375 12.855469 1.351562 12.875 1.359375 12.875 C 1.371094 12.875 1.378906 12.894531 1.378906 12.917969 C 1.378906 12.941406 1.386719 12.957031 1.402344 12.957031 C 1.417969 12.957031 1.429688 12.972656 1.429688 13.003906 C 1.429688 13.03125 1.4375 13.054688 1.445312 13.054688 C 1.453125 13.054688 1.460938 13.074219 1.460938 13.09375 C 1.460938 13.117188 1.46875 13.136719 1.480469 13.136719 C 1.488281 13.136719 1.496094 13.15625 1.496094 13.183594 C 1.496094 13.210938 1.503906 13.234375 1.511719 13.234375 C 1.523438 13.234375 1.53125 13.246094 1.53125 13.265625 C 1.53125 13.28125 1.539062 13.300781 1.546875 13.304688 C 1.554688 13.3125 1.5625 13.335938 1.5625 13.363281 C 1.5625 13.390625 1.570312 13.410156 1.582031 13.410156 C 1.589844 13.410156 1.597656 13.421875 1.597656 13.4375 C 1.597656 13.449219 1.609375 13.464844 1.625 13.46875 C 1.636719 13.476562 1.648438 13.496094 1.648438 13.519531 C 1.648438 13.539062 1.65625 13.558594 1.664062 13.558594 C 1.675781 13.558594 1.683594 13.570312 1.683594 13.589844 C 1.683594 13.605469 1.691406 13.621094 1.699219 13.621094 C 1.710938 13.621094 1.71875 13.636719 1.71875 13.652344 C 1.71875 13.671875 1.726562 13.6875 1.734375 13.6875 C 1.742188 13.6875 1.75 13.703125 1.75 13.726562 C 1.75 13.75 1.757812 13.765625 1.769531 13.765625 C 1.777344 13.765625 1.785156 13.78125 1.785156 13.800781 C 1.785156 13.816406 1.792969 13.832031 1.800781 13.832031 C 1.8125 13.832031 1.820312 13.84375 1.820312 13.855469 C 1.820312 13.871094 1.832031 13.886719 1.84375 13.890625 C 1.859375 13.898438 1.871094 13.917969 1.871094 13.9375 C 1.871094 13.957031 1.886719 13.980469 1.902344 13.996094 C 1.921875 14.007812 1.9375 14.03125 1.9375 14.046875 C 1.9375 14.0625 1.945312 14.074219 1.953125 14.074219 C 1.964844 14.074219 1.972656 14.089844 1.972656 14.105469 C 1.972656 14.136719 2.011719 14.1875 2.035156 14.1875 C 2.046875 14.1875 2.050781 14.203125 2.046875 14.222656 C 2.039062 14.246094 2.042969 14.253906 2.0625 14.253906 C 2.078125 14.253906 2.089844 14.265625 2.089844 14.285156 C 2.089844 14.304688 2.097656 14.320312 2.109375 14.320312 C 2.117188 14.320312 2.125 14.328125 2.125 14.34375 C 2.125 14.355469 2.132812 14.367188 2.140625 14.367188 C 2.152344 14.367188 2.160156 14.378906 2.160156 14.394531 C 2.160156 14.414062 2.175781 14.4375 2.191406 14.449219 C 2.210938 14.460938 2.226562 14.480469 2.226562 14.496094 C 2.226562 14.507812 2.246094 14.535156 2.269531 14.554688 C 2.292969 14.574219 2.3125 14.601562 2.3125 14.613281 C 2.3125 14.625 2.328125 14.648438 2.347656 14.660156 C 2.363281 14.671875 2.378906 14.691406 2.378906 14.703125 C 2.378906 14.714844 2.390625 14.734375 2.402344 14.746094 C 2.414062 14.757812 2.4375 14.789062 2.457031 14.8125 C 2.476562 14.839844 2.515625 14.882812 2.546875 14.914062 C 2.574219 14.941406 2.601562 14.972656 2.601562 14.984375 C 2.601562 14.992188 2.609375 15 2.617188 15 C 2.628906 15 2.636719 15.011719 2.636719 15.023438 C 2.636719 15.050781 2.707031 15.128906 2.730469 15.128906 C 2.746094 15.128906 2.789062 15.175781 2.789062 15.195312 C 2.789062 15.203125 2.796875 15.210938 2.804688 15.210938 C 2.8125 15.210938 2.820312 15.222656 2.820312 15.238281 C 2.820312 15.261719 2.933594 15.371094 2.960938 15.371094 C 2.96875 15.371094 2.976562 15.378906 2.976562 15.390625 C 2.976562 15.410156 3.15625 15.582031 3.179688 15.582031 C 3.1875 15.582031 3.195312 15.589844 3.195312 15.601562 C 3.195312 15.621094 3.34375 15.761719 3.367188 15.761719 C 3.375 15.761719 3.382812 15.769531 3.382812 15.777344 C 3.382812 15.804688 3.53125 15.941406 3.5625 15.941406 C 3.589844 15.941406 3.636719 15.976562 3.636719 15.996094 C 3.636719 16.019531 3.757812 16.117188 3.785156 16.117188 C 3.8125 16.117188 3.925781 16.226562 3.925781 16.25 C 3.925781 16.257812 3.941406 16.265625 3.960938 16.265625 C 3.980469 16.265625 3.996094 16.273438 3.996094 16.28125 C 3.996094 16.289062 4.003906 16.296875 4.015625 16.296875 C 4.027344 16.296875 4.050781 16.3125 4.0625 16.328125 C 4.078125 16.347656 4.097656 16.363281 4.113281 16.363281 C 4.128906 16.363281 4.152344 16.378906 4.171875 16.402344 C 4.1875 16.425781 4.214844 16.441406 4.230469 16.441406 C 4.242188 16.441406 4.273438 16.464844 4.300781 16.492188 C 4.328125 16.519531 4.355469 16.539062 4.367188 16.539062 C 4.378906 16.539062 4.402344 16.554688 4.425781 16.574219 C 4.445312 16.589844 4.472656 16.605469 4.488281 16.605469 C 4.503906 16.605469 4.523438 16.617188 4.527344 16.628906 C 4.535156 16.644531 4.546875 16.652344 4.558594 16.652344 C 4.574219 16.652344 4.59375 16.667969 4.605469 16.6875 C 4.621094 16.703125 4.648438 16.71875 4.671875 16.71875 C 4.691406 16.71875 4.710938 16.726562 4.710938 16.734375 C 4.710938 16.742188 4.722656 16.75 4.738281 16.75 C 4.757812 16.75 4.78125 16.765625 4.792969 16.785156 C 4.808594 16.800781 4.832031 16.816406 4.847656 16.816406 C 4.867188 16.816406 4.878906 16.824219 4.878906 16.832031 C 4.878906 16.839844 4.898438 16.851562 4.921875 16.859375 C 4.945312 16.863281 4.964844 16.875 4.964844 16.882812 C 4.964844 16.890625 4.980469 16.898438 4.996094 16.898438 C 5.015625 16.898438 5.03125 16.90625 5.03125 16.914062 C 5.03125 16.921875 5.046875 16.929688 5.066406 16.929688 C 5.085938 16.929688 5.101562 16.9375 5.101562 16.945312 C 5.101562 16.953125 5.117188 16.960938 5.140625 16.960938 C 5.164062 16.960938 5.183594 16.96875 5.183594 16.976562 C 5.183594 16.988281 5.199219 16.996094 5.21875 16.996094 C 5.238281 16.996094 5.253906 17 5.253906 17.011719 C 5.253906 17.019531 5.265625 17.027344 5.285156 17.027344 C 5.304688 17.027344 5.320312 17.039062 5.328125 17.050781 C 5.332031 17.066406 5.351562 17.074219 5.371094 17.074219 C 5.390625 17.074219 5.40625 17.082031 5.40625 17.09375 C 5.40625 17.101562 5.421875 17.109375 5.441406 17.109375 C 5.457031 17.109375 5.472656 17.117188 5.472656 17.125 C 5.472656 17.132812 5.492188 17.140625 5.515625 17.140625 C 5.539062 17.140625 5.558594 17.148438 5.558594 17.15625 C 5.558594 17.164062 5.582031 17.171875 5.609375 17.171875 C 5.636719 17.171875 5.660156 17.179688 5.660156 17.1875 C 5.660156 17.199219 5.675781 17.207031 5.695312 17.207031 C 5.714844 17.207031 5.730469 17.210938 5.730469 17.222656 C 5.730469 17.230469 5.746094 17.238281 5.769531 17.238281 C 5.792969 17.238281 5.816406 17.25 5.820312 17.261719 C 5.824219 17.277344 5.847656 17.285156 5.871094 17.285156 C 5.898438 17.285156 5.914062 17.292969 5.914062 17.300781 C 5.914062 17.3125 5.941406 17.320312 5.976562 17.320312 C 6.007812 17.320312 6.035156 17.328125 6.035156 17.335938 C 6.035156 17.34375 6.050781 17.351562 6.070312 17.351562 C 6.085938 17.351562 6.101562 17.359375 6.101562 17.367188 C 6.101562 17.375 6.128906 17.382812 6.164062 17.382812 C 6.195312 17.382812 6.222656 17.390625 6.222656 17.398438 C 6.222656 17.410156 6.246094 17.417969 6.273438 17.417969 C 6.300781 17.417969 6.324219 17.421875 6.324219 17.433594 C 6.324219 17.441406 6.359375 17.449219 6.402344 17.449219 C 6.457031 17.449219 6.476562 17.453125 6.476562 17.472656 C 6.476562 17.488281 6.492188 17.496094 6.527344 17.496094 C 6.554688 17.496094 6.582031 17.503906 6.585938 17.511719 C 6.59375 17.523438 6.628906 17.53125 6.664062 17.53125 C 6.703125 17.53125 6.730469 17.535156 6.730469 17.546875 C 6.730469 17.554688 6.765625 17.5625 6.808594 17.5625 C 6.851562 17.5625 6.886719 17.570312 6.886719 17.578125 C 6.886719 17.585938 6.914062 17.59375 6.953125 17.59375 C 6.992188 17.59375 7.019531 17.601562 7.019531 17.609375 C 7.019531 17.621094 7.0625 17.628906 7.113281 17.628906 C 7.164062 17.628906 7.207031 17.632812 7.207031 17.644531 C 7.207031 17.652344 7.253906 17.660156 7.316406 17.660156 C 7.398438 17.660156 7.429688 17.664062 7.433594 17.683594 C 7.441406 17.703125 7.472656 17.707031 7.546875 17.707031 C 7.601562 17.707031 7.652344 17.714844 7.660156 17.722656 C 7.664062 17.734375 7.742188 17.742188 7.828125 17.742188 C 7.925781 17.742188 7.988281 17.746094 7.988281 17.757812 C 7.988281 17.765625 8.238281 17.773438 8.703125 17.773438 C 9.167969 17.773438 9.417969 17.765625 9.417969 17.757812 C 9.417969 17.746094 9.484375 17.742188 9.578125 17.742188 C 9.667969 17.742188 9.742188 17.734375 9.75 17.722656 C 9.753906 17.714844 9.8125 17.707031 9.878906 17.707031 C 9.96875 17.707031 10 17.703125 10.007812 17.683594 C 10.015625 17.664062 10.042969 17.660156 10.125 17.660156 C 10.1875 17.660156 10.234375 17.652344 10.234375 17.644531 C 10.234375 17.632812 10.269531 17.628906 10.308594 17.628906 C 10.351562 17.628906 10.386719 17.621094 10.386719 17.609375 C 10.386719 17.601562 10.425781 17.59375 10.472656 17.59375 C 10.519531 17.59375 10.558594 17.585938 10.558594 17.578125 C 10.558594 17.570312 10.589844 17.5625 10.632812 17.5625 C 10.675781 17.5625 10.710938 17.554688 10.710938 17.546875 C 10.710938 17.535156 10.738281 17.53125 10.777344 17.53125 C 10.8125 17.53125 10.847656 17.523438 10.855469 17.511719 C 10.859375 17.503906 10.878906 17.496094 10.898438 17.496094 C 10.914062 17.496094 10.941406 17.488281 10.953125 17.472656 C 10.96875 17.460938 11.003906 17.449219 11.03125 17.449219 C 11.058594 17.449219 11.085938 17.441406 11.085938 17.433594 C 11.085938 17.421875 11.105469 17.417969 11.136719 17.417969 C 11.164062 17.417969 11.1875 17.410156 11.1875 17.398438 C 11.1875 17.390625 11.210938 17.382812 11.246094 17.382812 C 11.277344 17.382812 11.304688 17.375 11.304688 17.367188 C 11.304688 17.359375 11.328125 17.351562 11.355469 17.351562 C 11.382812 17.351562 11.40625 17.34375 11.40625 17.335938 C 11.40625 17.328125 11.429688 17.320312 11.457031 17.320312 C 11.484375 17.320312 11.511719 17.3125 11.515625 17.300781 C 11.523438 17.292969 11.542969 17.285156 11.5625 17.285156 C 11.578125 17.285156 11.59375 17.277344 11.59375 17.261719 C 11.59375 17.246094 11.613281 17.238281 11.652344 17.238281 C 11.6875 17.238281 11.714844 17.230469 11.714844 17.222656 C 11.714844 17.210938 11.726562 17.207031 11.746094 17.207031 C 11.765625 17.207031 11.78125 17.199219 11.78125 17.1875 C 11.78125 17.179688 11.796875 17.171875 11.816406 17.171875 C 11.832031 17.171875 11.847656 17.164062 11.847656 17.15625 C 11.847656 17.148438 11.875 17.140625 11.910156 17.140625 C 11.941406 17.140625 11.96875 17.132812 11.96875 17.125 C 11.96875 17.117188 11.984375 17.109375 12.003906 17.109375 C 12.019531 17.109375 12.035156 17.101562 12.035156 17.09375 C 12.035156 17.082031 12.050781 17.074219 12.070312 17.074219 C 12.089844 17.074219 12.109375 17.066406 12.113281 17.050781 C 12.121094 17.039062 12.140625 17.027344 12.15625 17.027344 C 12.175781 17.027344 12.1875 17.019531 12.1875 17.011719 C 12.1875 17 12.203125 16.996094 12.222656 16.996094 C 12.242188 16.996094 12.257812 16.988281 12.257812 16.976562 C 12.257812 16.96875 12.273438 16.960938 12.289062 16.960938 C 12.308594 16.960938 12.328125 16.953125 12.332031 16.945312 C 12.339844 16.9375 12.359375 16.929688 12.378906 16.929688 C 12.394531 16.929688 12.410156 16.921875 12.410156 16.914062 C 12.410156 16.90625 12.421875 16.898438 12.4375 16.898438 C 12.46875 16.898438 12.511719 16.859375 12.511719 16.832031 C 12.511719 16.824219 12.53125 16.816406 12.554688 16.816406 C 12.578125 16.816406 12.597656 16.808594 12.597656 16.800781 C 12.597656 16.792969 12.613281 16.785156 12.632812 16.785156 C 12.648438 16.785156 12.664062 16.777344 12.664062 16.765625 C 12.664062 16.757812 12.679688 16.75 12.699219 16.75 C 12.71875 16.75 12.734375 16.742188 12.734375 16.734375 C 12.734375 16.726562 12.746094 16.71875 12.757812 16.71875 C 12.773438 16.71875 12.785156 16.710938 12.785156 16.703125 C 12.785156 16.695312 12.796875 16.6875 12.808594 16.6875 C 12.835938 16.6875 12.855469 16.675781 12.929688 16.609375 C 12.949219 16.589844 12.984375 16.574219 13 16.574219 C 13.015625 16.574219 13.042969 16.558594 13.054688 16.539062 C 13.070312 16.523438 13.09375 16.507812 13.105469 16.507812 C 13.121094 16.507812 13.144531 16.492188 13.15625 16.476562 C 13.171875 16.457031 13.191406 16.441406 13.203125 16.441406 C 13.214844 16.441406 13.226562 16.433594 13.226562 16.417969 C 13.226562 16.40625 13.238281 16.394531 13.257812 16.394531 C 13.273438 16.394531 13.296875 16.378906 13.3125 16.363281 C 13.324219 16.34375 13.347656 16.328125 13.359375 16.328125 C 13.371094 16.328125 13.390625 16.320312 13.402344 16.308594 C 13.414062 16.296875 13.445312 16.273438 13.46875 16.257812 C 13.496094 16.238281 13.515625 16.214844 13.515625 16.203125 C 13.515625 16.191406 13.53125 16.183594 13.550781 16.183594 C 13.566406 16.183594 13.582031 16.175781 13.582031 16.167969 C 13.582031 16.160156 13.589844 16.152344 13.601562 16.152344 C 13.613281 16.152344 13.640625 16.128906 13.667969 16.101562 C 13.695312 16.074219 13.722656 16.054688 13.734375 16.054688 C 13.742188 16.054688 13.765625 16.035156 13.785156 16.011719 C 13.800781 15.992188 13.824219 15.972656 13.828125 15.972656 C 13.835938 15.972656 13.875 15.9375 13.917969 15.894531 C 13.964844 15.851562 14.011719 15.8125 14.027344 15.804688 C 14.046875 15.800781 14.058594 15.789062 14.058594 15.777344 C 14.058594 15.769531 14.066406 15.761719 14.078125 15.761719 C 14.085938 15.761719 14.128906 15.730469 14.171875 15.691406 C 14.210938 15.648438 14.246094 15.609375 14.246094 15.601562 C 14.246094 15.589844 14.253906 15.582031 14.261719 15.582031 C 14.289062 15.582031 14.398438 15.472656 14.398438 15.445312 C 14.398438 15.433594 14.40625 15.421875 14.414062 15.421875 C 14.425781 15.421875 14.433594 15.414062 14.433594 15.402344 C 14.433594 15.386719 14.476562 15.339844 14.492188 15.339844 C 14.507812 15.339844 14.652344 15.195312 14.652344 15.179688 C 14.652344 15.167969 14.660156 15.164062 14.671875 15.164062 C 14.679688 15.164062 14.6875 15.148438 14.6875 15.128906 C 14.6875 15.113281 14.695312 15.097656 14.707031 15.097656 C 14.734375 15.097656 14.839844 14.988281 14.839844 14.957031 C 14.839844 14.941406 14.875 14.898438 14.917969 14.863281 C 14.960938 14.828125 14.992188 14.789062 14.992188 14.773438 C 14.992188 14.757812 15.007812 14.738281 15.027344 14.722656 C 15.046875 14.710938 15.0625 14.691406 15.0625 14.679688 C 15.0625 14.667969 15.089844 14.632812 15.121094 14.597656 C 15.152344 14.566406 15.179688 14.53125 15.179688 14.523438 C 15.179688 14.511719 15.195312 14.492188 15.214844 14.480469 C 15.234375 14.46875 15.25 14.445312 15.25 14.429688 C 15.25 14.414062 15.257812 14.398438 15.265625 14.398438 C 15.273438 14.398438 15.28125 14.382812 15.28125 14.363281 C 15.28125 14.34375 15.296875 14.316406 15.316406 14.300781 C 15.335938 14.289062 15.351562 14.265625 15.351562 14.25 C 15.351562 14.234375 15.359375 14.222656 15.371094 14.222656 C 15.398438 14.222656 15.4375 14.175781 15.4375 14.140625 C 15.4375 14.125 15.445312 14.109375 15.453125 14.109375 C 15.460938 14.109375 15.46875 14.09375 15.46875 14.074219 C 15.46875 14.058594 15.476562 14.042969 15.488281 14.042969 C 15.496094 14.042969 15.503906 14.03125 15.503906 14.015625 C 15.503906 14 15.519531 13.976562 15.539062 13.960938 C 15.558594 13.949219 15.570312 13.921875 15.570312 13.902344 C 15.570312 13.878906 15.582031 13.863281 15.597656 13.863281 C 15.613281 13.863281 15.621094 13.851562 15.621094 13.832031 C 15.621094 13.816406 15.628906 13.800781 15.640625 13.800781 C 15.648438 13.800781 15.65625 13.785156 15.65625 13.769531 C 15.65625 13.75 15.664062 13.734375 15.675781 13.726562 C 15.683594 13.722656 15.691406 13.703125 15.691406 13.683594 C 15.691406 13.667969 15.699219 13.652344 15.707031 13.652344 C 15.71875 13.652344 15.726562 13.640625 15.726562 13.621094 C 15.726562 13.605469 15.734375 13.589844 15.742188 13.589844 C 15.75 13.589844 15.757812 13.574219 15.757812 13.558594 C 15.757812 13.542969 15.769531 13.523438 15.785156 13.519531 C 15.796875 13.511719 15.808594 13.496094 15.808594 13.476562 C 15.808594 13.460938 15.816406 13.441406 15.828125 13.433594 C 15.835938 13.429688 15.84375 13.40625 15.84375 13.386719 C 15.84375 13.363281 15.851562 13.347656 15.859375 13.347656 C 15.871094 13.347656 15.878906 13.328125 15.878906 13.304688 C 15.878906 13.28125 15.886719 13.265625 15.894531 13.265625 C 15.90625 13.265625 15.910156 13.25 15.910156 13.234375 C 15.910156 13.214844 15.917969 13.199219 15.929688 13.199219 C 15.9375 13.199219 15.945312 13.179688 15.945312 13.152344 C 15.945312 13.125 15.953125 13.101562 15.964844 13.101562 C 15.972656 13.101562 15.980469 13.085938 15.980469 13.070312 C 15.980469 13.050781 15.992188 13.023438 16.003906 13.011719 C 16.019531 12.996094 16.03125 12.972656 16.03125 12.957031 C 16.03125 12.941406 16.039062 12.921875 16.046875 12.917969 C 16.058594 12.910156 16.066406 12.882812 16.066406 12.859375 C 16.066406 12.832031 16.074219 12.8125 16.082031 12.8125 C 16.089844 12.8125 16.097656 12.789062 16.097656 12.761719 C 16.097656 12.734375 16.105469 12.714844 16.117188 12.714844 C 16.125 12.714844 16.132812 12.6875 16.132812 12.65625 C 16.132812 12.625 16.140625 12.601562 16.148438 12.601562 C 16.160156 12.601562 16.167969 12.578125 16.167969 12.550781 C 16.167969 12.523438 16.175781 12.503906 16.183594 12.503906 C 16.191406 12.503906 16.199219 12.46875 16.199219 12.429688 C 16.199219 12.375 16.207031 12.355469 16.226562 12.355469 C 16.246094 12.355469 16.253906 12.339844 16.253906 12.300781 C 16.253906 12.269531 16.257812 12.242188 16.269531 12.242188 C 16.277344 12.242188 16.285156 12.214844 16.285156 12.179688 C 16.285156 12.144531 16.292969 12.109375 16.304688 12.105469 C 16.3125 12.101562 16.320312 12.058594 16.320312 12.015625 C 16.320312 11.972656 16.328125 11.933594 16.335938 11.933594 C 16.347656 11.933594 16.355469 11.894531 16.355469 11.847656 C 16.355469 11.796875 16.363281 11.757812 16.371094 11.757812 C 16.378906 11.757812 16.386719 11.714844 16.386719 11.667969 C 16.386719 11.617188 16.394531 11.578125 16.40625 11.578125 C 16.414062 11.578125 16.421875 11.527344 16.421875 11.457031 C 16.421875 11.367188 16.429688 11.335938 16.449219 11.328125 C 16.46875 11.320312 16.472656 11.289062 16.472656 11.175781 C 16.472656 11.09375 16.480469 11.023438 16.488281 11.019531 C 16.5 11.011719 16.507812 10.769531 16.507812 10.335938 C 16.507812 9.90625 16.5 9.664062 16.488281 9.65625 C 16.480469 9.652344 16.472656 9.585938 16.472656 9.511719 C 16.472656 9.410156 16.464844 9.367188 16.449219 9.351562 C 16.429688 9.332031 16.421875 9.292969 16.421875 9.210938 C 16.421875 9.144531 16.414062 9.097656 16.40625 9.097656 C 16.394531 9.097656 16.386719 9.058594 16.386719 9.007812 C 16.386719 8.960938 16.378906 8.917969 16.371094 8.917969 C 16.363281 8.917969 16.355469 8.878906 16.355469 8.828125 C 16.355469 8.78125 16.347656 8.742188 16.335938 8.742188 C 16.328125 8.742188 16.320312 8.707031 16.320312 8.667969 C 16.320312 8.628906 16.3125 8.59375 16.304688 8.59375 C 16.292969 8.59375 16.285156 8.566406 16.285156 8.53125 C 16.285156 8.496094 16.277344 8.460938 16.269531 8.457031 C 16.257812 8.453125 16.253906 8.425781 16.253906 8.398438 C 16.253906 8.375 16.242188 8.34375 16.226562 8.328125 C 16.210938 8.316406 16.199219 8.28125 16.199219 8.253906 C 16.199219 8.226562 16.191406 8.207031 16.183594 8.207031 C 16.175781 8.207031 16.167969 8.175781 16.167969 8.140625 C 16.167969 8.105469 16.160156 8.074219 16.148438 8.074219 C 16.140625 8.074219 16.132812 8.050781 16.132812 8.019531 C 16.132812 7.988281 16.125 7.960938 16.117188 7.960938 C 16.105469 7.960938 16.097656 7.941406 16.097656 7.914062 C 16.097656 7.886719 16.089844 7.863281 16.082031 7.863281 C 16.074219 7.863281 16.066406 7.847656 16.066406 7.824219 C 16.066406 7.800781 16.058594 7.785156 16.046875 7.785156 C 16.039062 7.785156 16.03125 7.761719 16.03125 7.734375 C 16.03125 7.703125 16.023438 7.6875 16.003906 7.6875 C 15.988281 7.6875 15.980469 7.667969 15.980469 7.628906 C 15.980469 7.597656 15.972656 7.574219 15.964844 7.574219 C 15.953125 7.574219 15.945312 7.558594 15.945312 7.539062 C 15.945312 7.523438 15.9375 7.507812 15.929688 7.507812 C 15.917969 7.507812 15.910156 7.488281 15.910156 7.460938 C 15.910156 7.433594 15.90625 7.410156 15.894531 7.402344 C 15.886719 7.398438 15.878906 7.378906 15.878906 7.359375 C 15.878906 7.34375 15.871094 7.328125 15.859375 7.328125 C 15.851562 7.328125 15.84375 7.316406 15.84375 7.296875 C 15.84375 7.28125 15.835938 7.265625 15.828125 7.265625 C 15.816406 7.265625 15.808594 7.25 15.808594 7.230469 C 15.808594 7.214844 15.796875 7.195312 15.785156 7.191406 C 15.769531 7.183594 15.757812 7.167969 15.757812 7.148438 C 15.757812 7.132812 15.75 7.117188 15.742188 7.117188 C 15.734375 7.117188 15.726562 7.105469 15.726562 7.085938 C 15.726562 7.070312 15.71875 7.054688 15.707031 7.054688 C 15.699219 7.054688 15.691406 7.035156 15.691406 7.011719 C 15.691406 6.992188 15.683594 6.972656 15.675781 6.972656 C 15.664062 6.972656 15.65625 6.957031 15.65625 6.941406 C 15.65625 6.921875 15.648438 6.90625 15.640625 6.90625 C 15.628906 6.90625 15.621094 6.894531 15.621094 6.875 C 15.621094 6.859375 15.613281 6.84375 15.597656 6.84375 C 15.582031 6.84375 15.570312 6.828125 15.570312 6.800781 C 15.570312 6.78125 15.5625 6.761719 15.554688 6.761719 C 15.546875 6.761719 15.539062 6.746094 15.539062 6.730469 C 15.539062 6.710938 15.53125 6.699219 15.519531 6.699219 C 15.511719 6.699219 15.503906 6.683594 15.503906 6.667969 C 15.503906 6.652344 15.488281 6.628906 15.46875 6.617188 C 15.453125 6.601562 15.4375 6.578125 15.4375 6.554688 C 15.4375 6.535156 15.429688 6.519531 15.417969 6.519531 C 15.410156 6.519531 15.402344 6.507812 15.402344 6.496094 C 15.402344 6.484375 15.382812 6.460938 15.359375 6.445312 C 15.335938 6.425781 15.316406 6.398438 15.316406 6.378906 C 15.316406 6.355469 15.308594 6.339844 15.300781 6.339844 C 15.289062 6.339844 15.28125 6.328125 15.28125 6.3125 C 15.28125 6.296875 15.269531 6.273438 15.25 6.257812 C 15.230469 6.246094 15.214844 6.226562 15.214844 6.214844 C 15.214844 6.199219 15.195312 6.171875 15.171875 6.152344 C 15.148438 6.132812 15.128906 6.105469 15.128906 6.097656 C 15.128906 6.085938 15.105469 6.058594 15.078125 6.03125 C 15.050781 6.007812 15.027344 5.976562 15.027344 5.964844 C 15.027344 5.9375 14.953125 5.855469 14.929688 5.855469 C 14.917969 5.855469 14.910156 5.84375 14.910156 5.828125 C 14.910156 5.804688 14.878906 5.765625 14.8125 5.699219 C 14.789062 5.679688 14.773438 5.652344 14.773438 5.644531 C 14.773438 5.621094 14.730469 5.578125 14.707031 5.578125 C 14.695312 5.578125 14.6875 5.570312 14.6875 5.558594 C 14.6875 5.550781 14.664062 5.523438 14.636719 5.496094 C 14.609375 5.472656 14.585938 5.445312 14.585938 5.433594 C 14.585938 5.40625 13.910156 4.765625 13.882812 4.765625 C 13.867188 4.765625 13.855469 4.761719 13.855469 4.75 C 13.855469 4.742188 13.84375 4.734375 13.828125 4.734375 C 13.816406 4.734375 13.804688 4.726562 13.804688 4.71875 C 13.804688 4.691406 13.652344 4.558594 13.621094 4.558594 C 13.597656 4.558594 13.550781 4.519531 13.550781 4.5 C 13.550781 4.480469 13.5 4.441406 13.476562 4.441406 C 13.464844 4.441406 13.445312 4.429688 13.429688 4.410156 C 13.417969 4.394531 13.394531 4.378906 13.382812 4.378906 C 13.371094 4.378906 13.363281 4.371094 13.363281 4.363281 C 13.363281 4.351562 13.351562 4.347656 13.335938 4.347656 C 13.308594 4.347656 13.261719 4.308594 13.261719 4.289062 C 13.261719 4.269531 13.203125 4.234375 13.175781 4.234375 C 13.160156 4.234375 13.136719 4.21875 13.125 4.199219 C 13.109375 4.183594 13.085938 4.167969 13.074219 4.167969 C 13.058594 4.167969 13.035156 4.152344 13.023438 4.136719 C 13.007812 4.117188 12.980469 4.101562 12.957031 4.101562 C 12.9375 4.101562 12.921875 4.09375 12.921875 4.085938 C 12.921875 4.058594 12.875 4.023438 12.84375 4.023438 C 12.828125 4.023438 12.816406 4.015625 12.816406 4.003906 C 12.816406 3.996094 12.800781 3.988281 12.777344 3.988281 C 12.757812 3.988281 12.730469 3.972656 12.714844 3.957031 C 12.703125 3.9375 12.679688 3.925781 12.660156 3.925781 C 12.644531 3.925781 12.632812 3.917969 12.632812 3.90625 C 12.632812 3.898438 12.617188 3.890625 12.597656 3.890625 C 12.582031 3.890625 12.5625 3.878906 12.554688 3.867188 C 12.550781 3.847656 12.535156 3.84375 12.511719 3.847656 C 12.492188 3.851562 12.476562 3.847656 12.476562 3.839844 C 12.476562 3.816406 12.433594 3.777344 12.402344 3.777344 C 12.386719 3.777344 12.375 3.769531 12.375 3.761719 C 12.375 3.753906 12.355469 3.746094 12.332031 3.746094 C 12.308594 3.746094 12.289062 3.738281 12.289062 3.730469 C 12.289062 3.722656 12.277344 3.714844 12.257812 3.714844 C 12.238281 3.714844 12.222656 3.707031 12.222656 3.699219 C 12.222656 3.6875 12.207031 3.679688 12.191406 3.679688 C 12.171875 3.679688 12.152344 3.667969 12.148438 3.65625 C 12.140625 3.636719 12.125 3.632812 12.105469 3.636719 C 12.082031 3.644531 12.070312 3.636719 12.070312 3.621094 C 12.070312 3.609375 12.054688 3.601562 12.035156 3.601562 C 12.015625 3.601562 12.003906 3.59375 12.003906 3.582031 C 12.003906 3.574219 11.980469 3.566406 11.949219 3.566406 C 11.921875 3.566406 11.898438 3.558594 11.898438 3.550781 C 11.898438 3.542969 11.875 3.535156 11.839844 3.535156 C 11.808594 3.535156 11.78125 3.527344 11.78125 3.519531 C 11.78125 3.511719 11.738281 3.503906 11.6875 3.503906 C 11.636719 3.503906 11.59375 3.511719 11.59375 3.519531 C 11.59375 3.527344 11.570312 3.535156 11.542969 3.535156 C 11.515625 3.535156 11.492188 3.542969 11.492188 3.550781 C 11.492188 3.558594 11.476562 3.566406 11.457031 3.566406 C 11.421875 3.566406 11.339844 3.632812 11.339844 3.660156 C 11.339844 3.667969 11.324219 3.683594 11.304688 3.699219 C 11.285156 3.710938 11.269531 3.734375 11.269531 3.75 C 11.269531 3.765625 11.261719 3.777344 11.253906 3.777344 C 11.246094 3.777344 11.238281 3.804688 11.238281 3.835938 C 11.238281 3.875 11.230469 3.890625 11.210938 3.890625 C 11.191406 3.890625 11.1875 3.914062 11.1875 4.007812 C 11.1875 4.09375 11.191406 4.121094 11.210938 4.128906 C 11.226562 4.132812 11.238281 4.15625 11.238281 4.183594 C 11.238281 4.207031 11.25 4.234375 11.269531 4.25 C 11.289062 4.261719 11.304688 4.285156 11.304688 4.300781 C 11.304688 4.339844 11.378906 4.410156 11.417969 4.410156 C 11.4375 4.410156 11.460938 4.425781 11.476562 4.441406 C 11.488281 4.460938 11.511719 4.476562 11.523438 4.476562 C 11.535156 4.476562 11.558594 4.488281 11.570312 4.5 C 11.585938 4.511719 11.613281 4.523438 11.636719 4.523438 C 11.660156 4.523438 11.679688 4.53125 11.679688 4.539062 C 11.679688 4.550781 11.695312 4.558594 11.714844 4.558594 C 11.730469 4.558594 11.746094 4.5625 11.746094 4.574219 C 11.746094 4.582031 11.757812 4.589844 11.773438 4.589844 C 11.789062 4.589844 11.816406 4.605469 11.835938 4.621094 C 11.855469 4.640625 11.886719 4.652344 11.902344 4.652344 C 11.921875 4.652344 11.933594 4.660156 11.933594 4.671875 C 11.933594 4.679688 11.949219 4.6875 11.96875 4.6875 C 11.988281 4.6875 12.003906 4.691406 12.003906 4.703125 C 12.003906 4.71875 12.097656 4.765625 12.128906 4.765625 C 12.140625 4.765625 12.160156 4.78125 12.171875 4.800781 C 12.183594 4.816406 12.210938 4.832031 12.226562 4.832031 C 12.242188 4.832031 12.257812 4.839844 12.257812 4.847656 C 12.257812 4.859375 12.273438 4.863281 12.292969 4.863281 C 12.328125 4.863281 12.375 4.898438 12.375 4.929688 C 12.375 4.9375 12.390625 4.945312 12.40625 4.945312 C 12.421875 4.945312 12.449219 4.960938 12.460938 4.976562 C 12.472656 4.996094 12.5 5.011719 12.515625 5.011719 C 12.535156 5.011719 12.570312 5.03125 12.597656 5.058594 C 12.625 5.085938 12.652344 5.109375 12.664062 5.109375 C 12.675781 5.109375 12.703125 5.125 12.722656 5.148438 C 12.746094 5.171875 12.773438 5.1875 12.78125 5.1875 C 12.792969 5.1875 12.832031 5.21875 12.867188 5.253906 C 12.90625 5.289062 12.949219 5.320312 12.96875 5.320312 C 12.988281 5.320312 13.003906 5.328125 13.003906 5.335938 C 13.003906 5.355469 13.152344 5.496094 13.175781 5.496094 C 13.183594 5.496094 13.191406 5.503906 13.191406 5.511719 C 13.191406 5.523438 13.207031 5.53125 13.226562 5.53125 C 13.246094 5.53125 13.261719 5.539062 13.261719 5.546875 C 13.261719 5.5625 13.371094 5.675781 13.386719 5.675781 C 13.402344 5.675781 13.480469 5.753906 13.480469 5.765625 C 13.480469 5.777344 13.597656 5.886719 13.609375 5.886719 C 13.625 5.886719 13.703125 5.964844 13.703125 5.980469 C 13.703125 5.988281 13.71875 6.003906 13.734375 6.015625 C 13.753906 6.027344 13.769531 6.050781 13.769531 6.0625 C 13.769531 6.082031 13.808594 6.128906 13.828125 6.128906 C 13.84375 6.128906 13.890625 6.171875 13.890625 6.191406 C 13.890625 6.199219 13.90625 6.214844 13.921875 6.226562 C 13.941406 6.238281 13.957031 6.261719 13.957031 6.273438 C 13.957031 6.296875 14.03125 6.371094 14.058594 6.371094 C 14.066406 6.371094 14.074219 6.382812 14.074219 6.398438 C 14.074219 6.410156 14.082031 6.421875 14.09375 6.421875 C 14.101562 6.421875 14.109375 6.433594 14.109375 6.449219 C 14.109375 6.460938 14.132812 6.492188 14.160156 6.519531 C 14.1875 6.542969 14.210938 6.574219 14.210938 6.585938 C 14.214844 6.617188 14.253906 6.664062 14.277344 6.664062 C 14.289062 6.664062 14.296875 6.679688 14.296875 6.695312 C 14.296875 6.710938 14.3125 6.734375 14.332031 6.746094 C 14.351562 6.757812 14.363281 6.78125 14.363281 6.796875 C 14.363281 6.808594 14.378906 6.835938 14.398438 6.855469 C 14.417969 6.875 14.433594 6.898438 14.433594 6.910156 C 14.433594 6.929688 14.476562 6.972656 14.5 6.972656 C 14.511719 6.972656 14.519531 6.992188 14.519531 7.011719 C 14.519531 7.035156 14.527344 7.054688 14.535156 7.054688 C 14.542969 7.054688 14.550781 7.070312 14.550781 7.085938 C 14.550781 7.105469 14.558594 7.117188 14.570312 7.117188 C 14.578125 7.117188 14.585938 7.132812 14.585938 7.152344 C 14.585938 7.167969 14.59375 7.183594 14.601562 7.183594 C 14.613281 7.183594 14.621094 7.195312 14.621094 7.207031 C 14.621094 7.222656 14.628906 7.234375 14.636719 7.234375 C 14.644531 7.234375 14.652344 7.246094 14.652344 7.265625 C 14.652344 7.28125 14.660156 7.296875 14.671875 7.296875 C 14.679688 7.296875 14.6875 7.3125 14.6875 7.328125 C 14.6875 7.347656 14.699219 7.363281 14.714844 7.363281 C 14.730469 7.363281 14.738281 7.378906 14.738281 7.402344 C 14.738281 7.425781 14.746094 7.441406 14.757812 7.441406 C 14.765625 7.441406 14.773438 7.457031 14.773438 7.476562 C 14.773438 7.492188 14.78125 7.507812 14.789062 7.507812 C 14.800781 7.507812 14.808594 7.523438 14.808594 7.539062 C 14.808594 7.558594 14.816406 7.574219 14.824219 7.574219 C 14.832031 7.574219 14.839844 7.585938 14.839844 7.605469 C 14.839844 7.621094 14.847656 7.640625 14.859375 7.644531 C 14.867188 7.652344 14.875 7.671875 14.875 7.6875 C 14.875 7.703125 14.882812 7.71875 14.890625 7.71875 C 14.902344 7.71875 14.910156 7.734375 14.910156 7.75 C 14.910156 7.765625 14.921875 7.792969 14.933594 7.804688 C 14.949219 7.820312 14.960938 7.84375 14.960938 7.863281 C 14.960938 7.882812 14.96875 7.898438 14.976562 7.898438 C 14.988281 7.898438 14.992188 7.917969 14.992188 7.945312 C 14.992188 7.972656 15 7.996094 15.011719 7.996094 C 15.019531 7.996094 15.027344 8.011719 15.027344 8.035156 C 15.027344 8.058594 15.035156 8.074219 15.046875 8.074219 C 15.054688 8.074219 15.0625 8.097656 15.0625 8.125 C 15.0625 8.152344 15.070312 8.171875 15.078125 8.171875 C 15.089844 8.171875 15.097656 8.195312 15.097656 8.222656 C 15.097656 8.25 15.105469 8.269531 15.113281 8.269531 C 15.121094 8.269531 15.128906 8.289062 15.128906 8.308594 C 15.128906 8.332031 15.140625 8.359375 15.15625 8.375 C 15.167969 8.386719 15.179688 8.417969 15.179688 8.4375 C 15.179688 8.460938 15.1875 8.480469 15.199219 8.480469 C 15.207031 8.480469 15.214844 8.507812 15.214844 8.539062 C 15.214844 8.570312 15.222656 8.59375 15.230469 8.59375 C 15.242188 8.59375 15.25 8.625 15.25 8.660156 C 15.25 8.695312 15.257812 8.726562 15.265625 8.734375 C 15.273438 8.738281 15.28125 8.769531 15.28125 8.804688 C 15.28125 8.839844 15.289062 8.871094 15.300781 8.871094 C 15.308594 8.871094 15.316406 8.902344 15.316406 8.941406 C 15.316406 8.984375 15.324219 9.015625 15.335938 9.015625 C 15.34375 9.015625 15.351562 9.046875 15.351562 9.089844 C 15.351562 9.128906 15.363281 9.167969 15.375 9.183594 C 15.394531 9.203125 15.402344 9.242188 15.402344 9.324219 C 15.402344 9.390625 15.410156 9.4375 15.417969 9.4375 C 15.429688 9.4375 15.4375 9.488281 15.4375 9.558594 C 15.4375 9.628906 15.441406 9.679688 15.453125 9.679688 C 15.464844 9.679688 15.46875 9.910156 15.46875 10.335938 C 15.46875 10.765625 15.464844 10.996094 15.453125 10.996094 C 15.441406 10.996094 15.4375 11.050781 15.4375 11.132812 C 15.4375 11.214844 15.429688 11.269531 15.417969 11.269531 C 15.410156 11.269531 15.402344 11.316406 15.402344 11.375 C 15.402344 11.4375 15.394531 11.480469 15.382812 11.484375 C 15.371094 11.488281 15.359375 11.527344 15.355469 11.574219 C 15.351562 11.621094 15.339844 11.660156 15.332031 11.660156 C 15.324219 11.660156 15.316406 11.699219 15.316406 11.75 C 15.316406 11.796875 15.308594 11.835938 15.300781 11.835938 C 15.289062 11.835938 15.28125 11.867188 15.28125 11.902344 C 15.28125 11.9375 15.273438 11.96875 15.265625 11.96875 C 15.257812 11.96875 15.25 11.992188 15.25 12.023438 C 15.25 12.054688 15.242188 12.082031 15.230469 12.082031 C 15.222656 12.082031 15.214844 12.109375 15.214844 12.144531 C 15.214844 12.179688 15.207031 12.210938 15.199219 12.210938 C 15.1875 12.210938 15.179688 12.234375 15.179688 12.265625 C 15.179688 12.300781 15.171875 12.324219 15.15625 12.332031 C 15.140625 12.335938 15.128906 12.359375 15.128906 12.378906 C 15.128906 12.402344 15.121094 12.425781 15.113281 12.429688 C 15.105469 12.433594 15.097656 12.460938 15.097656 12.488281 C 15.097656 12.515625 15.089844 12.535156 15.078125 12.535156 C 15.070312 12.535156 15.0625 12.558594 15.0625 12.582031 C 15.0625 12.609375 15.054688 12.632812 15.046875 12.632812 C 15.035156 12.632812 15.027344 12.652344 15.027344 12.671875 C 15.027344 12.695312 15.019531 12.714844 15.011719 12.714844 C 15 12.714844 14.992188 12.734375 14.992188 12.761719 C 14.992188 12.789062 14.988281 12.8125 14.976562 12.8125 C 14.96875 12.8125 14.960938 12.828125 14.960938 12.851562 C 14.960938 12.875 14.949219 12.890625 14.933594 12.890625 C 14.921875 12.890625 14.910156 12.90625 14.910156 12.925781 C 14.910156 12.941406 14.902344 12.957031 14.890625 12.957031 C 14.882812 12.957031 14.875 12.972656 14.875 12.988281 C 14.875 13.007812 14.867188 13.023438 14.859375 13.023438 C 14.847656 13.023438 14.839844 13.046875 14.839844 13.078125 C 14.839844 13.109375 14.832031 13.136719 14.824219 13.136719 C 14.816406 13.136719 14.808594 13.148438 14.808594 13.167969 C 14.808594 13.183594 14.800781 13.199219 14.789062 13.199219 C 14.78125 13.199219 14.773438 13.214844 14.773438 13.234375 C 14.773438 13.25 14.765625 13.265625 14.757812 13.265625 C 14.746094 13.265625 14.738281 13.28125 14.738281 13.304688 C 14.738281 13.328125 14.730469 13.347656 14.722656 13.347656 C 14.695312 13.347656 14.652344 13.386719 14.652344 13.417969 C 14.652344 13.433594 14.644531 13.441406 14.636719 13.441406 C 14.628906 13.441406 14.621094 13.460938 14.621094 13.484375 C 14.621094 13.507812 14.613281 13.523438 14.601562 13.523438 C 14.59375 13.523438 14.585938 13.539062 14.585938 13.554688 C 14.585938 13.570312 14.570312 13.59375 14.550781 13.605469 C 14.535156 13.617188 14.519531 13.640625 14.519531 13.65625 C 14.519531 13.671875 14.507812 13.6875 14.492188 13.691406 C 14.476562 13.699219 14.46875 13.714844 14.46875 13.730469 C 14.46875 13.746094 14.453125 13.769531 14.433594 13.785156 C 14.414062 13.796875 14.398438 13.816406 14.398438 13.828125 C 14.398438 13.839844 14.382812 13.867188 14.363281 13.886719 C 14.347656 13.902344 14.332031 13.929688 14.332031 13.945312 C 14.332031 13.960938 14.3125 13.984375 14.289062 14 C 14.265625 14.019531 14.246094 14.039062 14.246094 14.046875 C 14.246094 14.054688 14.230469 14.078125 14.210938 14.09375 C 14.191406 14.113281 14.179688 14.140625 14.179688 14.152344 C 14.179688 14.164062 14.144531 14.207031 14.101562 14.246094 C 14.058594 14.285156 14.023438 14.328125 14.023438 14.335938 C 14.023438 14.347656 13.996094 14.382812 13.957031 14.417969 C 13.917969 14.449219 13.890625 14.488281 13.890625 14.503906 C 13.890625 14.519531 13.882812 14.53125 13.871094 14.53125 C 13.863281 14.53125 13.855469 14.539062 13.855469 14.554688 C 13.855469 14.566406 13.847656 14.578125 13.835938 14.578125 C 13.820312 14.578125 13.667969 14.714844 13.667969 14.734375 C 13.667969 14.746094 13.621094 14.789062 13.609375 14.789062 C 13.597656 14.789062 13.445312 14.929688 13.445312 14.945312 C 13.445312 14.957031 13.402344 15 13.386719 15 C 13.371094 15 13.191406 15.175781 13.191406 15.195312 C 13.191406 15.203125 13.183594 15.210938 13.171875 15.210938 C 13.160156 15.210938 13.136719 15.226562 13.125 15.242188 C 13.109375 15.261719 13.089844 15.277344 13.078125 15.277344 C 13.0625 15.277344 13.019531 15.308594 12.980469 15.347656 C 12.941406 15.390625 12.898438 15.421875 12.886719 15.421875 C 12.875 15.421875 12.84375 15.445312 12.816406 15.46875 C 12.792969 15.496094 12.757812 15.519531 12.746094 15.519531 C 12.730469 15.519531 12.699219 15.542969 12.667969 15.574219 C 12.640625 15.605469 12.605469 15.632812 12.589844 15.632812 C 12.574219 15.632812 12.5625 15.640625 12.5625 15.648438 C 12.5625 15.65625 12.550781 15.664062 12.539062 15.664062 C 12.523438 15.664062 12.511719 15.671875 12.511719 15.679688 C 12.511719 15.691406 12.5 15.699219 12.480469 15.699219 C 12.464844 15.699219 12.441406 15.710938 12.425781 15.730469 C 12.414062 15.746094 12.390625 15.761719 12.371094 15.761719 C 12.355469 15.761719 12.34375 15.773438 12.34375 15.785156 C 12.34375 15.800781 12.332031 15.8125 12.316406 15.8125 C 12.300781 15.8125 12.289062 15.816406 12.289062 15.828125 C 12.289062 15.835938 12.277344 15.84375 12.257812 15.84375 C 12.238281 15.84375 12.222656 15.851562 12.222656 15.859375 C 12.222656 15.867188 12.210938 15.875 12.191406 15.875 C 12.175781 15.875 12.152344 15.890625 12.136719 15.90625 C 12.125 15.925781 12.097656 15.941406 12.074219 15.941406 C 12.054688 15.941406 12.035156 15.949219 12.035156 15.957031 C 12.035156 15.964844 12.023438 15.972656 12.011719 15.972656 C 11.996094 15.972656 11.980469 15.984375 11.972656 15.996094 C 11.96875 16.011719 11.949219 16.023438 11.933594 16.023438 C 11.914062 16.023438 11.898438 16.027344 11.898438 16.039062 C 11.898438 16.046875 11.882812 16.054688 11.859375 16.054688 C 11.839844 16.054688 11.8125 16.070312 11.796875 16.085938 C 11.785156 16.105469 11.761719 16.117188 11.742188 16.117188 C 11.726562 16.117188 11.714844 16.125 11.714844 16.136719 C 11.714844 16.144531 11.695312 16.152344 11.671875 16.152344 C 11.625 16.152344 11.527344 16.195312 11.527344 16.21875 C 11.527344 16.226562 11.511719 16.234375 11.492188 16.234375 C 11.472656 16.234375 11.457031 16.238281 11.457031 16.25 C 11.457031 16.257812 11.4375 16.265625 11.414062 16.265625 C 11.390625 16.265625 11.371094 16.273438 11.371094 16.28125 C 11.371094 16.289062 11.351562 16.296875 11.320312 16.296875 C 11.292969 16.296875 11.269531 16.304688 11.269531 16.3125 C 11.269531 16.324219 11.25 16.328125 11.226562 16.328125 C 11.207031 16.328125 11.1875 16.335938 11.1875 16.347656 C 11.1875 16.355469 11.164062 16.363281 11.136719 16.363281 C 11.105469 16.363281 11.085938 16.371094 11.085938 16.378906 C 11.085938 16.386719 11.070312 16.394531 11.050781 16.394531 C 11.03125 16.394531 11.015625 16.40625 11.015625 16.417969 C 11.015625 16.4375 11 16.441406 10.957031 16.441406 C 10.921875 16.441406 10.898438 16.449219 10.898438 16.460938 C 10.898438 16.46875 10.875 16.476562 10.847656 16.476562 C 10.816406 16.476562 10.796875 16.484375 10.796875 16.492188 C 10.796875 16.5 10.769531 16.507812 10.734375 16.507812 C 10.703125 16.507812 10.675781 16.515625 10.675781 16.523438 C 10.675781 16.535156 10.644531 16.539062 10.609375 16.539062 C 10.570312 16.539062 10.539062 16.546875 10.53125 16.558594 C 10.527344 16.566406 10.5 16.574219 10.476562 16.574219 C 10.453125 16.574219 10.425781 16.582031 10.410156 16.597656 C 10.394531 16.613281 10.367188 16.617188 10.328125 16.609375 C 10.28125 16.601562 10.269531 16.605469 10.269531 16.628906 C 10.269531 16.648438 10.25 16.652344 10.175781 16.652344 C 10.125 16.652344 10.082031 16.660156 10.082031 16.671875 C 10.082031 16.679688 10.042969 16.6875 9.996094 16.6875 C 9.949219 16.6875 9.910156 16.695312 9.910156 16.703125 C 9.910156 16.710938 9.863281 16.71875 9.800781 16.71875 C 9.738281 16.71875 9.691406 16.726562 9.691406 16.734375 C 9.691406 16.746094 9.628906 16.75 9.535156 16.75 C 9.445312 16.75 9.382812 16.757812 9.382812 16.765625 C 9.382812 16.777344 9.144531 16.785156 8.703125 16.785156 C 8.261719 16.785156 8.023438 16.777344 8.023438 16.765625 C 8.023438 16.757812 7.960938 16.75 7.871094 16.75 C 7.78125 16.75 7.71875 16.746094 7.71875 16.734375 C 7.71875 16.726562 7.667969 16.71875 7.609375 16.71875 C 7.546875 16.71875 7.496094 16.710938 7.496094 16.703125 C 7.496094 16.695312 7.457031 16.6875 7.410156 16.6875 C 7.367188 16.6875 7.328125 16.679688 7.328125 16.671875 C 7.328125 16.660156 7.292969 16.652344 7.253906 16.652344 C 7.199219 16.652344 7.175781 16.648438 7.167969 16.628906 C 7.160156 16.609375 7.140625 16.601562 7.097656 16.609375 C 7.054688 16.617188 7.035156 16.613281 7.027344 16.597656 C 7.019531 16.582031 6.992188 16.574219 6.953125 16.574219 C 6.917969 16.574219 6.882812 16.566406 6.875 16.558594 C 6.871094 16.546875 6.84375 16.539062 6.816406 16.539062 C 6.789062 16.539062 6.765625 16.535156 6.765625 16.523438 C 6.765625 16.515625 6.730469 16.507812 6.691406 16.507812 C 6.648438 16.507812 6.613281 16.5 6.613281 16.492188 C 6.613281 16.484375 6.589844 16.476562 6.5625 16.476562 C 6.535156 16.476562 6.511719 16.46875 6.511719 16.460938 C 6.511719 16.449219 6.496094 16.441406 6.480469 16.441406 C 6.460938 16.441406 6.441406 16.433594 6.4375 16.417969 C 6.429688 16.40625 6.40625 16.394531 6.375 16.394531 C 6.347656 16.394531 6.324219 16.386719 6.324219 16.378906 C 6.324219 16.371094 6.300781 16.363281 6.273438 16.363281 C 6.246094 16.363281 6.222656 16.355469 6.222656 16.347656 C 6.222656 16.335938 6.203125 16.328125 6.179688 16.328125 C 6.15625 16.328125 6.136719 16.324219 6.136719 16.3125 C 6.136719 16.304688 6.121094 16.296875 6.101562 16.296875 C 6.085938 16.296875 6.070312 16.289062 6.070312 16.28125 C 6.070312 16.273438 6.042969 16.265625 6.007812 16.265625 C 5.976562 16.265625 5.949219 16.257812 5.949219 16.25 C 5.949219 16.238281 5.933594 16.234375 5.914062 16.234375 C 5.898438 16.234375 5.882812 16.222656 5.882812 16.207031 C 5.882812 16.195312 5.867188 16.183594 5.847656 16.183594 C 5.832031 16.183594 5.8125 16.175781 5.804688 16.167969 C 5.800781 16.160156 5.78125 16.152344 5.761719 16.152344 C 5.742188 16.152344 5.730469 16.144531 5.730469 16.136719 C 5.730469 16.125 5.714844 16.117188 5.695312 16.117188 C 5.675781 16.117188 5.660156 16.113281 5.660156 16.101562 C 5.660156 16.09375 5.644531 16.085938 5.628906 16.085938 C 5.609375 16.085938 5.59375 16.078125 5.59375 16.070312 C 5.59375 16.0625 5.574219 16.054688 5.550781 16.054688 C 5.527344 16.054688 5.507812 16.046875 5.507812 16.039062 C 5.507812 16.027344 5.492188 16.023438 5.472656 16.023438 C 5.457031 16.023438 5.441406 16.011719 5.441406 15.996094 C 5.441406 15.984375 5.425781 15.972656 5.40625 15.972656 C 5.386719 15.972656 5.371094 15.964844 5.371094 15.957031 C 5.371094 15.949219 5.359375 15.941406 5.347656 15.941406 C 5.332031 15.941406 5.320312 15.933594 5.320312 15.925781 C 5.320312 15.914062 5.304688 15.90625 5.285156 15.90625 C 5.269531 15.90625 5.253906 15.902344 5.253906 15.890625 C 5.253906 15.882812 5.238281 15.875 5.222656 15.875 C 5.207031 15.875 5.179688 15.859375 5.167969 15.84375 C 5.15625 15.824219 5.125 15.8125 5.105469 15.8125 C 5.082031 15.8125 5.066406 15.804688 5.066406 15.792969 C 5.066406 15.769531 5.023438 15.730469 5 15.730469 C 4.988281 15.730469 4.964844 15.714844 4.941406 15.699219 C 4.921875 15.679688 4.894531 15.664062 4.878906 15.664062 C 4.863281 15.664062 4.839844 15.648438 4.828125 15.632812 C 4.816406 15.613281 4.796875 15.601562 4.785156 15.601562 C 4.777344 15.601562 4.753906 15.585938 4.742188 15.570312 C 4.699219 15.527344 4.640625 15.488281 4.621094 15.488281 C 4.613281 15.488281 4.570312 15.453125 4.53125 15.414062 C 4.488281 15.375 4.445312 15.339844 4.4375 15.339844 C 4.425781 15.339844 4.386719 15.3125 4.351562 15.277344 C 4.316406 15.238281 4.28125 15.210938 4.277344 15.210938 C 4.261719 15.210938 4.230469 15.183594 4.121094 15.085938 C 4.070312 15.039062 4.023438 15 4.011719 15 C 4.003906 15 3.996094 14.992188 3.996094 14.984375 C 3.996094 14.964844 3.8125 14.789062 3.792969 14.789062 C 3.78125 14.789062 3.773438 14.78125 3.773438 14.769531 C 3.773438 14.761719 3.75 14.734375 3.722656 14.707031 C 3.695312 14.683594 3.671875 14.652344 3.671875 14.644531 C 3.671875 14.621094 3.628906 14.578125 3.605469 14.578125 C 3.59375 14.578125 3.585938 14.570312 3.585938 14.5625 C 3.585938 14.554688 3.554688 14.519531 3.519531 14.484375 C 3.480469 14.445312 3.449219 14.40625 3.449219 14.398438 C 3.449219 14.386719 3.425781 14.355469 3.390625 14.324219 C 3.359375 14.296875 3.332031 14.265625 3.332031 14.253906 C 3.332031 14.242188 3.308594 14.214844 3.28125 14.1875 C 3.253906 14.164062 3.230469 14.132812 3.230469 14.121094 C 3.230469 14.097656 3.191406 14.042969 3.171875 14.042969 C 3.148438 14.042969 3.109375 13.996094 3.109375 13.972656 C 3.109375 13.957031 3.101562 13.945312 3.09375 13.945312 C 3.085938 13.945312 3.078125 13.933594 3.078125 13.921875 C 3.078125 13.910156 3.070312 13.898438 3.058594 13.898438 C 3.050781 13.898438 3.042969 13.882812 3.042969 13.863281 C 3.042969 13.847656 3.035156 13.832031 3.027344 13.832031 C 3.015625 13.832031 3.007812 13.820312 3.007812 13.808594 C 3.007812 13.777344 2.96875 13.734375 2.941406 13.734375 C 2.933594 13.734375 2.925781 13.71875 2.925781 13.699219 C 2.925781 13.679688 2.910156 13.652344 2.890625 13.636719 C 2.871094 13.625 2.855469 13.601562 2.855469 13.585938 C 2.855469 13.570312 2.847656 13.558594 2.839844 13.558594 C 2.828125 13.558594 2.820312 13.546875 2.820312 13.535156 C 2.820312 13.503906 2.734375 13.347656 2.71875 13.347656 C 2.710938 13.347656 2.703125 13.332031 2.703125 13.316406 C 2.703125 13.300781 2.6875 13.273438 2.667969 13.253906 C 2.648438 13.234375 2.636719 13.199219 2.636719 13.175781 C 2.636719 13.152344 2.628906 13.136719 2.617188 13.136719 C 2.609375 13.136719 2.601562 13.121094 2.601562 13.101562 C 2.601562 13.085938 2.59375 13.070312 2.585938 13.070312 C 2.574219 13.070312 2.566406 13.054688 2.566406 13.039062 C 2.566406 13.023438 2.558594 13.003906 2.550781 12.996094 C 2.539062 12.992188 2.53125 12.972656 2.53125 12.957031 C 2.53125 12.9375 2.523438 12.925781 2.507812 12.925781 C 2.492188 12.925781 2.480469 12.910156 2.480469 12.882812 C 2.480469 12.863281 2.472656 12.84375 2.464844 12.84375 C 2.457031 12.84375 2.449219 12.820312 2.449219 12.792969 C 2.449219 12.769531 2.441406 12.746094 2.429688 12.746094 C 2.421875 12.746094 2.414062 12.730469 2.414062 12.714844 C 2.414062 12.695312 2.40625 12.679688 2.398438 12.679688 C 2.386719 12.679688 2.378906 12.65625 2.378906 12.625 C 2.378906 12.59375 2.371094 12.566406 2.363281 12.566406 C 2.355469 12.566406 2.347656 12.546875 2.347656 12.519531 C 2.347656 12.492188 2.339844 12.46875 2.328125 12.46875 C 2.320312 12.46875 2.3125 12.453125 2.3125 12.429688 C 2.3125 12.410156 2.300781 12.378906 2.285156 12.367188 C 2.273438 12.355469 2.261719 12.324219 2.261719 12.300781 C 2.261719 12.277344 2.253906 12.257812 2.242188 12.257812 C 2.234375 12.257812 2.226562 12.234375 2.226562 12.203125 C 2.226562 12.171875 2.21875 12.144531 2.210938 12.144531 C 2.199219 12.144531 2.191406 12.117188 2.191406 12.082031 C 2.191406 12.046875 2.183594 12.011719 2.175781 12.007812 C 2.167969 12.003906 2.160156 11.976562 2.160156 11.949219 C 2.160156 11.925781 2.152344 11.902344 2.140625 11.902344 C 2.132812 11.902344 2.125 11.867188 2.125 11.824219 C 2.125 11.777344 2.117188 11.738281 2.109375 11.734375 C 2.097656 11.726562 2.089844 11.699219 2.089844 11.667969 C 2.089844 11.636719 2.078125 11.601562 2.066406 11.589844 C 2.050781 11.574219 2.039062 11.53125 2.039062 11.476562 C 2.039062 11.425781 2.03125 11.382812 2.023438 11.375 C 2.011719 11.371094 2.007812 11.3125 2.007812 11.246094 C 2.007812 11.175781 2 11.125 1.988281 11.125 C 1.980469 11.125 1.972656 11.058594 1.972656 10.953125 C 1.972656 10.851562 1.964844 10.785156 1.953125 10.785156 C 1.945312 10.785156 1.9375 10.625 1.9375 10.335938 C 1.9375 10.050781 1.945312 9.890625 1.953125 9.890625 C 1.964844 9.890625 1.972656 9.824219 1.972656 9.722656 C 1.972656 9.628906 1.980469 9.550781 1.988281 9.542969 C 2 9.539062 2.007812 9.480469 2.007812 9.414062 C 2.007812 9.34375 2.011719 9.292969 2.023438 9.292969 C 2.03125 9.292969 2.039062 9.257812 2.039062 9.210938 C 2.039062 9.164062 2.050781 9.125 2.066406 9.113281 C 2.082031 9.101562 2.089844 9.066406 2.089844 9.023438 C 2.089844 8.984375 2.097656 8.949219 2.109375 8.941406 C 2.117188 8.9375 2.125 8.90625 2.125 8.871094 C 2.125 8.835938 2.132812 8.804688 2.140625 8.804688 C 2.152344 8.804688 2.160156 8.773438 2.160156 8.734375 C 2.160156 8.691406 2.167969 8.660156 2.175781 8.660156 C 2.183594 8.660156 2.191406 8.628906 2.191406 8.59375 C 2.191406 8.558594 2.199219 8.53125 2.210938 8.53125 C 2.21875 8.53125 2.226562 8.503906 2.226562 8.472656 C 2.226562 8.441406 2.234375 8.417969 2.242188 8.417969 C 2.253906 8.417969 2.261719 8.394531 2.261719 8.371094 C 2.261719 8.34375 2.273438 8.320312 2.285156 8.3125 C 2.300781 8.308594 2.3125 8.285156 2.3125 8.253906 C 2.3125 8.226562 2.320312 8.207031 2.328125 8.207031 C 2.339844 8.207031 2.347656 8.183594 2.347656 8.15625 C 2.347656 8.128906 2.355469 8.109375 2.363281 8.109375 C 2.371094 8.109375 2.378906 8.089844 2.378906 8.066406 C 2.378906 8.046875 2.386719 8.027344 2.398438 8.027344 C 2.40625 8.027344 2.414062 8.003906 2.414062 7.976562 C 2.414062 7.953125 2.421875 7.929688 2.429688 7.929688 C 2.441406 7.929688 2.449219 7.914062 2.449219 7.898438 C 2.449219 7.882812 2.457031 7.863281 2.464844 7.855469 C 2.472656 7.851562 2.480469 7.824219 2.480469 7.800781 C 2.480469 7.765625 2.492188 7.75 2.507812 7.75 C 2.523438 7.75 2.53125 7.738281 2.53125 7.71875 C 2.53125 7.699219 2.539062 7.6875 2.550781 7.6875 C 2.558594 7.6875 2.566406 7.667969 2.566406 7.644531 C 2.566406 7.625 2.574219 7.605469 2.585938 7.605469 C 2.59375 7.605469 2.601562 7.589844 2.601562 7.574219 C 2.601562 7.554688 2.609375 7.539062 2.617188 7.539062 C 2.628906 7.539062 2.636719 7.527344 2.636719 7.507812 C 2.636719 7.492188 2.644531 7.476562 2.652344 7.476562 C 2.660156 7.476562 2.667969 7.457031 2.667969 7.433594 C 2.667969 7.414062 2.675781 7.394531 2.6875 7.394531 C 2.695312 7.394531 2.703125 7.378906 2.703125 7.363281 C 2.703125 7.347656 2.714844 7.328125 2.726562 7.324219 C 2.742188 7.320312 2.753906 7.304688 2.753906 7.289062 C 2.753906 7.277344 2.761719 7.265625 2.769531 7.265625 C 2.78125 7.265625 2.789062 7.25 2.789062 7.226562 C 2.789062 7.207031 2.804688 7.179688 2.820312 7.167969 C 2.839844 7.15625 2.855469 7.132812 2.855469 7.117188 C 2.855469 7.097656 2.863281 7.085938 2.871094 7.085938 C 2.882812 7.085938 2.890625 7.070312 2.890625 7.054688 C 2.890625 7.035156 2.898438 7.023438 2.90625 7.023438 C 2.917969 7.023438 2.925781 7.011719 2.925781 6.996094 C 2.925781 6.984375 2.933594 6.972656 2.949219 6.972656 C 2.964844 6.972656 2.976562 6.957031 2.976562 6.941406 C 2.976562 6.921875 2.984375 6.90625 2.992188 6.90625 C 3 6.90625 3.007812 6.898438 3.007812 6.882812 C 3.007812 6.871094 3.023438 6.84375 3.042969 6.824219 C 3.0625 6.804688 3.078125 6.777344 3.078125 6.761719 C 3.078125 6.75 3.09375 6.726562 3.109375 6.714844 C 3.128906 6.699219 3.144531 6.675781 3.144531 6.660156 C 3.144531 6.644531 3.15625 6.632812 3.171875 6.632812 C 3.183594 6.632812 3.195312 6.625 3.195312 6.613281 C 3.195312 6.601562 3.210938 6.582031 3.230469 6.566406 C 3.25 6.554688 3.265625 6.535156 3.265625 6.523438 C 3.265625 6.507812 3.285156 6.480469 3.316406 6.453125 C 3.34375 6.429688 3.367188 6.394531 3.367188 6.375 C 3.367188 6.355469 3.375 6.339844 3.382812 6.339844 C 3.410156 6.339844 3.554688 6.195312 3.554688 6.167969 C 3.554688 6.144531 3.59375 6.097656 3.613281 6.097656 C 3.628906 6.097656 3.738281 5.988281 3.738281 5.972656 C 3.738281 5.964844 3.761719 5.945312 3.785156 5.925781 C 3.828125 5.894531 3.878906 5.851562 3.980469 5.746094 C 4.003906 5.71875 4.058594 5.671875 4.101562 5.636719 C 4.144531 5.597656 4.179688 5.5625 4.179688 5.558594 C 4.183594 5.539062 4.226562 5.496094 4.246094 5.496094 C 4.253906 5.496094 4.269531 5.484375 4.285156 5.464844 C 4.296875 5.445312 4.320312 5.433594 4.332031 5.433594 C 4.359375 5.433594 4.4375 5.359375 4.4375 5.335938 C 4.4375 5.328125 4.445312 5.320312 4.457031 5.320312 C 4.46875 5.320312 4.492188 5.304688 4.503906 5.285156 C 4.519531 5.269531 4.539062 5.253906 4.554688 5.253906 C 4.566406 5.253906 4.597656 5.230469 4.625 5.207031 C 4.648438 5.179688 4.683594 5.15625 4.695312 5.15625 C 4.710938 5.15625 4.734375 5.136719 4.753906 5.117188 C 4.769531 5.09375 4.796875 5.074219 4.8125 5.074219 C 4.824219 5.074219 4.847656 5.0625 4.863281 5.042969 C 4.875 5.027344 4.894531 5.011719 4.910156 5.011719 C 4.921875 5.011719 4.929688 5.003906 4.929688 4.996094 C 4.929688 4.984375 4.941406 4.976562 4.957031 4.976562 C 4.988281 4.976562 5.03125 4.941406 5.03125 4.914062 C 5.03125 4.90625 5.046875 4.898438 5.066406 4.898438 C 5.085938 4.898438 5.101562 4.890625 5.101562 4.882812 C 5.101562 4.871094 5.117188 4.863281 5.140625 4.863281 C 5.160156 4.863281 5.1875 4.851562 5.203125 4.832031 C 5.214844 4.816406 5.238281 4.800781 5.257812 4.800781 C 5.273438 4.800781 5.285156 4.792969 5.285156 4.785156 C 5.285156 4.773438 5.300781 4.765625 5.316406 4.765625 C 5.351562 4.765625 5.40625 4.730469 5.40625 4.703125 C 5.40625 4.695312 5.421875 4.6875 5.441406 4.6875 C 5.457031 4.6875 5.472656 4.679688 5.472656 4.671875 C 5.472656 4.660156 5.488281 4.652344 5.507812 4.652344 C 5.527344 4.652344 5.542969 4.648438 5.542969 4.636719 C 5.542969 4.628906 5.5625 4.621094 5.585938 4.621094 C 5.609375 4.621094 5.628906 4.613281 5.628906 4.605469 C 5.628906 4.597656 5.640625 4.589844 5.660156 4.589844 C 5.679688 4.589844 5.695312 4.582031 5.695312 4.574219 C 5.695312 4.5625 5.710938 4.558594 5.730469 4.558594 C 5.746094 4.558594 5.761719 4.550781 5.761719 4.539062 C 5.761719 4.53125 5.777344 4.523438 5.796875 4.523438 C 5.816406 4.523438 5.835938 4.511719 5.84375 4.5 C 5.847656 4.488281 5.867188 4.476562 5.882812 4.476562 C 5.902344 4.476562 5.914062 4.46875 5.914062 4.460938 C 5.914062 4.449219 5.929688 4.441406 5.949219 4.441406 C 5.96875 4.441406 5.984375 4.4375 5.984375 4.425781 C 5.984375 4.417969 6 4.410156 6.019531 4.410156 C 6.054688 4.410156 6.171875 4.3125 6.171875 4.28125 C 6.171875 4.273438 6.179688 4.265625 6.1875 4.265625 C 6.214844 4.265625 6.257812 4.222656 6.257812 4.195312 C 6.257812 4.179688 6.261719 4.164062 6.273438 4.160156 C 6.28125 4.152344 6.289062 4.070312 6.289062 3.964844 C 6.289062 3.851562 6.285156 3.777344 6.273438 3.777344 C 6.261719 3.777344 6.257812 3.765625 6.257812 3.746094 C 6.257812 3.726562 6.25 3.714844 6.238281 3.714844 C 6.230469 3.714844 6.21875 3.699219 6.214844 3.683594 C 6.199219 3.640625 6.128906 3.566406 6.097656 3.566406 C 6.082031 3.566406 6.070312 3.558594 6.070312 3.550781 C 6.070312 3.542969 6.050781 3.535156 6.027344 3.535156 C 6.003906 3.535156 5.984375 3.527344 5.984375 3.519531 C 5.984375 3.511719 5.953125 3.503906 5.914062 3.503906 C 5.878906 3.503906 5.847656 3.496094 5.847656 3.488281 C 5.847656 3.476562 5.820312 3.46875 5.789062 3.46875 C 5.753906 3.46875 5.730469 3.476562 5.730469 3.488281 "/>
</g>
</svg>
