<svg width="38" height="38" viewBox="0 0 38 38" fill="none" xmlns="http://www.w3.org/2000/svg">
<g clip-path="url(#clip0)">
<path d="M30.7856 26.6656C31.1275 25.9556 30.9853 25.1072 30.4305 24.5476L29.2382 23.3503C32.9604 16.5433 31.1106 8.03512 24.898 3.38816C18.6855 -1.25881 10.0013 -0.630094 4.5229 4.86326C-0.955504 10.3566 -1.56054 19.0425 3.10334 25.2424C7.76723 31.4422 16.2804 33.2688 23.0772 29.5281L24.2658 30.7173C24.6156 31.0663 25.0898 31.2617 25.584 31.2605C25.8617 31.258 26.1355 31.1942 26.3857 31.0736L32.09 36.778C33.3071 37.9949 35.2802 37.9947 36.4971 36.7776C37.714 35.5606 37.7139 33.5875 36.4968 32.3706L30.7856 26.6656ZM1.24589 15.8854C1.24589 7.97237 7.66069 1.55757 15.5738 1.55757C23.4868 1.55757 29.9016 7.97237 29.9016 15.8854C29.9016 23.7985 23.4868 30.2133 15.5738 30.2133C7.66439 30.2044 1.25481 23.7948 1.24589 15.8854ZM25.1466 29.8352L24.1705 28.8615C25.9176 27.6992 27.4139 26.1984 28.571 24.4479L29.5459 25.4272C29.7858 25.6699 29.7858 26.0604 29.5459 26.303C29.5286 26.3199 29.5126 26.338 29.498 26.3572L26.0294 29.8321C25.9129 29.9498 25.7543 30.0164 25.5886 30.0169C25.423 30.0175 25.264 29.9521 25.1466 29.8352ZM35.616 35.8965C34.8749 36.6007 33.712 36.6007 32.9709 35.8965L27.3475 30.2756L29.987 27.6312L35.6135 33.2514C36.3426 33.9824 36.3426 35.1656 35.6135 35.8965H35.616Z" fill="#0E2D45"/>
<path d="M11.3283 15.4071C12.2218 15.3511 13.0639 14.9699 13.6956 14.3356C13.9386 14.0918 13.9381 13.6972 13.6943 13.4541C13.4506 13.211 13.0559 13.2116 12.8128 13.4554C12.3383 13.93 11.69 14.1895 11.019 14.1732C10.348 14.157 9.71302 13.8665 9.26202 13.3694C9.02958 13.1197 8.63955 13.1034 8.3871 13.3328C8.13464 13.5623 8.11367 13.9521 8.34005 14.2073C8.79741 14.707 9.38303 15.0718 10.0332 15.2619C9.87681 15.5668 9.62037 15.8087 9.30687 15.9472C9.03431 16.0633 8.88123 16.3553 8.94078 16.6455C9.00034 16.9357 9.25605 17.1438 9.55232 17.1432C9.63667 17.1429 9.72012 17.1257 9.79776 17.0928C10.5272 16.7779 11.0852 16.1634 11.3283 15.4071Z" fill="#0E2D45"/>
<path d="M13.3431 17.5542C13.2009 17.5542 13.0589 17.5616 12.9176 17.5767C11.7666 17.6689 10.7756 18.4251 10.3828 19.5109C9.98918 20.639 10.2802 21.8928 11.1303 22.7322C11.502 23.101 11.7129 23.6016 11.7172 24.1251C11.7172 24.4692 11.9961 24.7481 12.3401 24.7481C12.6842 24.7481 12.9631 24.4692 12.9631 24.1251C12.9604 23.2756 12.6226 22.4614 12.023 21.8595C11.5074 21.36 11.3258 20.6081 11.5564 19.9283C11.789 19.2926 12.3759 18.8549 13.0515 18.8132C13.1481 18.8027 13.2453 18.7975 13.3424 18.7977C13.6865 18.7977 13.9654 18.5188 13.9654 18.1747C13.9654 17.8307 13.6865 17.5518 13.3424 17.5518L13.3431 17.5542Z" fill="#0E2D45"/>
<path d="M17.9492 17.5761C17.8077 17.5611 17.6654 17.5536 17.5231 17.5537C17.1791 17.5537 16.9001 17.8326 16.9001 18.1767C16.9001 18.5207 17.1791 18.7996 17.5231 18.7996C17.6207 18.7995 17.7182 18.8047 17.8153 18.8152C18.4909 18.8567 19.0779 19.2945 19.3103 19.9303C19.5413 20.6101 19.3596 21.3621 18.8438 21.8614C18.2425 22.4628 17.9031 23.2773 17.8994 24.1277C17.8994 24.4718 18.1783 24.7507 18.5223 24.7507C18.8664 24.7507 19.1453 24.4718 19.1453 24.1277C19.1499 23.6038 19.3613 23.103 19.7333 22.7342C20.5835 21.8951 20.8745 20.6413 20.4809 19.5135C20.0895 18.4275 19.0998 17.6701 17.9492 17.5761Z" fill="#0E2D45"/>
<path d="M26.6063 19.0546C26.6076 18.3641 26.3679 17.6948 25.9285 17.1621C26.9404 15.7326 26.8071 13.7885 25.6096 12.5105C25.9061 10.7954 24.8673 9.13103 23.1963 8.64389C23.5659 7.30399 22.865 5.90115 21.5716 5.39209C19.1359 3.61855 17.363 3.04917 16.1582 3.65966C15.9365 3.77175 15.7382 3.92503 15.5738 4.1113C15.4096 3.92458 15.2113 3.77088 14.9895 3.65842C13.7854 3.04793 12.0112 3.61668 9.56985 5.39334C8.27944 5.90394 7.58113 7.30486 7.95018 8.64265C6.27906 9.13034 5.24077 10.7953 5.53811 12.5105C4.34029 13.7885 4.20722 15.7329 5.21978 17.1621C4.77994 17.6946 4.53998 18.364 4.54139 19.0546C4.54598 20.3138 5.33607 21.4363 6.51988 21.8654C6.31002 22.7558 6.4883 23.6934 7.01029 24.4446C7.53229 25.1958 8.34885 25.6899 9.2565 25.8037C9.87864 26.9369 11.0476 27.6628 12.3392 27.718C13.6308 27.7731 14.8574 27.1495 15.5738 26.0734C16.2903 27.1495 17.5169 27.7731 18.8085 27.718C20.1001 27.6628 21.2691 26.9369 21.8912 25.8037C22.7988 25.6899 23.6154 25.1958 24.1374 24.4446C24.6594 23.6934 24.8377 22.7558 24.6278 21.8654C25.8116 21.4363 26.6017 20.3138 26.6063 19.0546ZM12.4983 26.4752C11.5078 26.4765 10.6142 25.8807 10.2345 24.9658C10.1377 24.7338 9.91096 24.5827 9.65955 24.5827C8.56684 24.5817 7.68119 23.6963 7.67981 22.6036C7.67848 22.2902 7.75421 21.9813 7.90034 21.7041C7.99923 21.5182 7.99756 21.295 7.89589 21.1106C7.79423 20.9263 7.60633 20.8057 7.39637 20.7902C6.48954 20.7197 5.7891 19.9642 5.78729 19.0546C5.78913 18.6967 5.90259 18.3483 6.11185 18.0579C6.73425 18.4981 7.47813 18.7339 8.24047 18.7326C8.58452 18.7326 8.86342 18.4537 8.86342 18.1096C8.86342 17.7656 8.58452 17.4867 8.24047 17.4867C7.21828 17.4875 6.30281 16.8541 5.94323 15.8973C5.58364 14.9404 5.8554 13.8609 6.62516 13.1883C6.78911 13.0215 6.85919 12.7839 6.81204 12.5548C6.75878 12.3603 6.73155 12.1596 6.73106 11.958C6.73088 10.9021 7.47578 9.99275 8.51105 9.78507C9.54632 9.57738 10.5843 10.129 10.9914 11.1033C11.1272 11.4162 11.4894 11.5617 11.804 11.4297C12.1185 11.2976 12.2683 10.9372 12.1401 10.6211C11.6403 9.4298 10.5165 8.61781 9.22847 8.51743C9.14579 8.33456 9.10087 8.13687 9.09641 7.93622C9.09875 7.2959 9.50469 6.72669 10.1093 6.51589C10.2688 6.45703 10.4377 6.42769 10.6077 6.4293C11.1968 6.43014 11.7317 6.77322 11.9782 7.30829C12.0671 7.5165 12.2619 7.6601 12.4871 7.68337C12.7123 7.70665 12.9323 7.60593 13.0619 7.4203C13.1915 7.23467 13.2102 6.99335 13.1107 6.78999C12.8376 6.19615 12.3622 5.71877 11.7695 5.44317C13.4172 4.50376 14.1541 4.63334 14.422 4.76852C14.9353 5.0233 14.9521 5.80261 14.9521 5.80635V8.65884C14.7004 8.5518 14.4296 8.49671 14.156 8.49688C13.812 8.49688 13.5331 8.77578 13.5331 9.11983C13.5331 9.46387 13.812 9.74278 14.156 9.74278C14.5948 9.74381 14.9502 10.0995 14.9509 10.5383V24.0227C14.9495 25.3766 13.8523 26.4739 12.4983 26.4752ZM23.7513 20.7902C23.5414 20.8057 23.3535 20.9263 23.2518 21.1106C23.1501 21.295 23.1485 21.5182 23.2474 21.7041C23.3935 21.9813 23.4692 22.2902 23.4679 22.6036C23.4665 23.6963 22.5809 24.5817 21.4881 24.5827C21.2367 24.5827 21.01 24.7338 20.9132 24.9658C20.4634 26.0448 19.3147 26.6565 18.1684 26.4272C17.0222 26.198 16.197 25.1917 16.1968 24.0227V12.9036C16.1971 12.4641 16.5534 12.1078 16.9929 12.1075C17.337 12.1075 17.6159 11.8286 17.6159 11.4845C17.6159 11.1405 17.337 10.8616 16.9929 10.8616C16.7192 10.8622 16.4484 10.9181 16.1968 11.0261V5.80635C16.1968 5.79888 16.2192 5.02517 16.7219 4.77101C16.9898 4.63583 17.7255 4.4994 19.3795 5.44317C18.7868 5.71877 18.3114 6.19615 18.0382 6.78999C17.9388 6.99335 17.9574 7.23467 18.087 7.4203C18.2166 7.60593 18.4367 7.70665 18.6619 7.68337C18.8871 7.6601 19.0819 7.5165 19.1708 7.30829C19.4172 6.77322 19.9522 6.43014 20.5413 6.4293C20.7114 6.42903 20.8801 6.4592 21.0396 6.51838L21.062 6.52711C21.4512 6.66214 21.7654 6.95504 21.9274 7.33381C22.0894 7.71259 22.0842 8.14211 21.913 8.51681C20.625 8.61719 19.5011 9.42917 19.0013 10.6205C18.8731 10.9366 19.023 11.297 19.3375 11.429C19.652 11.5611 20.0142 11.4156 20.15 11.1027C20.5549 10.1236 21.5961 9.56816 22.6348 9.77713C23.6734 9.9861 24.4188 10.9011 24.4135 11.9605C24.413 12.1621 24.3858 12.3628 24.3325 12.5573C24.2785 12.7866 24.3495 13.0275 24.5194 13.1908C25.2906 13.8628 25.5633 14.9431 25.2035 15.9006C24.8437 16.8581 23.927 17.4914 22.9041 17.4892C22.5601 17.4892 22.2812 17.7681 22.2812 18.1121C22.2812 18.4562 22.5601 18.7351 22.9041 18.7351C23.6665 18.7362 24.4104 18.5002 25.0327 18.0598C25.2418 18.3503 25.3552 18.6986 25.3573 19.0565C25.3546 19.9643 24.6562 20.7182 23.7513 20.7902Z" fill="#0E2D45"/>
<path d="M21.8408 15.9476C21.5273 15.8092 21.2708 15.5673 21.1144 15.2624C21.7649 15.0709 22.3503 14.7046 22.807 14.2034C23.0333 13.9482 23.0124 13.5584 22.7599 13.3289C22.5075 13.0995 22.1174 13.1158 21.885 13.3655C21.434 13.8626 20.799 14.1531 20.128 14.1693C19.457 14.1856 18.8087 13.9261 18.3342 13.4515C18.0897 13.2154 17.7012 13.2187 17.4609 13.459C17.2206 13.6993 17.2172 14.0879 17.4533 14.3323C18.085 14.9666 18.9271 15.3478 19.8205 15.4038C20.0646 16.1587 20.6225 16.7717 21.3511 17.0857C21.4288 17.1187 21.5122 17.1359 21.5966 17.1362C21.8928 17.1368 22.1485 16.9287 22.2081 16.6385C22.2676 16.3483 22.1146 16.0562 21.842 15.9401L21.8408 15.9476Z" fill="#0E2D45"/>
</g>
<defs>
<clipPath id="clip0">
<rect width="38" height="38" fill="white"/>
</clipPath>
</defs>
</svg>
