<svg fill="none" height="17" viewBox="0 0 17 17" width="17" xmlns="http://www.w3.org/2000/svg"><g fill="#102b44"><path d="m8.27024 11.0552c-.42887 0-.7761.3574-.7761.7863 0 .4187.337.7863.7761.7863.43911 0 .78633-.3676.78633-.7863 0-.4289-.35739-.7863-.78633-.7863z" stroke="#102b44" stroke-width=".3"/><path d="m8.40299 5.10156c-1.37862 0-2.01175.81695-2.01175 1.3684 0 .39829.33697.5821.61271.5821.55143 0 .32678-.78633 1.3684-.78633.51061 0 .9191.22468.9191.69443 0 .55148-.57187.86803-.90888 1.15397-.29613.25529-.6842.674-.6842 1.55224 0 .53103.14294.68423.56165.68423.5004 0 .60249-.2247.60249-.41872 0-.53103.01026-.83739.57191-1.27649.27571-.21445 1.14378-.90888 1.14378-1.86882s-.86807-1.68501-2.17521-1.68501z" stroke="#102b44" stroke-width=".3"/><path clip-rule="evenodd" d="m1 8.5c0-4.1456 3.35496-7.5 7.5-7.5 4.1456 0 7.5 3.35496 7.5 7.5 0 4.1456-3.355 7.5-7.5 7.5h-6.91406c-.32362 0-.58594-.2623-.58594-.5859zm1.17188 6.3281h6.32812c3.4978 0 6.3281-2.8307 6.3281-6.3281 0-3.49784-2.8307-6.32812-6.3281-6.32812-3.49784 0-6.32812 2.83075-6.32812 6.32812z" fill-rule="evenodd"/><path d="m2.17188 14.8281h-.15v.15h.15zm6.32812-13.9781c-4.22787 0-7.65 3.42155-7.65 7.65h.3c0-4.06275 3.2878-7.35 7.35-7.35zm7.65 7.65c0-4.22787-3.4216-7.65-7.65-7.65v.3c4.0627 0 7.35 3.2878 7.35 7.35zm-7.65 7.65c4.2278 0 7.65-3.4216 7.65-7.65h-.3c0 4.0627-3.2878 7.35-7.35 7.35zm-6.91406 0h6.91406v-.3h-6.91406zm-.73594-.7359c0 .4064.32948.7359.73594.7359v-.3c-.24077 0-.43594-.1952-.43594-.4359zm0-6.9141v6.9141h.3v-6.9141zm7.65 6.1781h-6.32812v.3h6.32812zm6.1781-6.1781c0 3.4145-2.7631 6.1781-6.1781 6.1781v.3c3.5807 0 6.4781-2.8979 6.4781-6.4781zm-6.1781-6.17813c3.4145 0 6.1781 2.76314 6.1781 6.17813h.3c0-3.58069-2.8979-6.47812-6.4781-6.47812zm-6.17813 6.17813c0-3.41454 2.76314-6.17813 6.17813-6.17813v-.29999c-3.58069 0-6.47812 2.89791-6.47812 6.47812zm0 6.3281v-6.3281h-.29999v6.3281z"/></g></svg>