<svg fill="none" height="168" viewBox="0 0 154 168" width="154" xmlns="http://www.w3.org/2000/svg"><path clip-rule="evenodd" d="m76.8426 168c42.1624 0 76.3424-4.845 76.3424-10.822 0-5.976-34.18-10.822-76.3424-10.822-42.1629 0-76.3426 4.846-76.3426 10.822 0 5.977 34.1797 10.822 76.3426 10.822z" fill="#0e57cb" fill-opacity=".3" fill-rule="evenodd"/><path clip-rule="evenodd" d="m95.7467 158.531h13.4313l.089-4.058h-9.8607c-3.9848 1.713-3.6596 4.058-3.6596 4.058" fill="#3d4252" fill-rule="evenodd"/><path clip-rule="evenodd" d="m125.932 112.224c-1.462-10.171-1.949-41.6199-1.949-41.6199h-25.5373v14.4347l.5669 69.4342h10.1564l1.754-70.7096c0 19.2456 7.947 49.2866 15.983 69.3866l9.416-3.333c-2.802-8.84-9.253-29.674-10.39-37.593" fill="#e8849d" fill-rule="evenodd"/><path clip-rule="evenodd" d="m126.074 152.423c-2.795 2.931-1.726 4.755-1.726 4.755l11.974-4.022s-.481-1.559-1.242-4.094z" fill="#3d4252" fill-rule="evenodd"/><path clip-rule="evenodd" d="m106.262 28.6698s-.381 11.6229 0 14.8799c1.624 13.8672-3.676 14.8799-8.0532 14.8799-4.3775 0-17.3484-1.1105-17.3484-1.1105v-4.2844l13.9437-1.4278s-.4599-19.1468 11.4579-22.9371" fill="#f0b2af" fill-rule="evenodd"/><path clip-rule="evenodd" d="m97.093 84.1313v1.3528h28.407l-.024-1.3528z" fill="#fde9e2" fill-rule="evenodd"/><path clip-rule="evenodd" d="m125.5 84.1314-1.646-43.8956c0-7.0619-5.592-12.8529-12.559-12.9174-.09-.0008-.18-.0013-.272-.0013-9.101 0-12.1545 7.2132-12.1545 14.9076 0 7.694-1.7755 41.7942-1.7755 41.7942z" fill="#eb94a6" fill-rule="evenodd"/><path clip-rule="evenodd" d="m113.326 27.3173.721 4.3378c1.358 8.1562 3.721 16.0935 6.798 23.7577 5.531 13.775 5.353 28.7186 5.353 28.7186h4.713c0-57.3883-17.585-56.8141-17.585-56.8141" fill="#f0b2af" fill-rule="evenodd"/><path clip-rule="evenodd" d="m93.0349 48.6765 15.3011 2.9895 2.284-22.9702s-16.159-1.5837-17.5851 19.9807" fill="#eb94a6" fill-rule="evenodd"/><path clip-rule="evenodd" d="m128.206 48.6765-15.302 2.9895-2.284-22.9702s16.16-1.5837 17.586 19.9807" fill="#eb94a6" fill-rule="evenodd"/><path clip-rule="evenodd" d="m109.268 47.6079h6.758s.275 6.7636-3.309 6.7636c-3.583 0-3.449-6.7636-3.449-6.7636" fill="#e8849d" fill-rule="evenodd"/><path clip-rule="evenodd" d="m108.559 27.3171v.0017c-.638.025-6.055.3871-6.055 5.4572 0 5.0639 5.471 12.7403 6.119 13.4792.65-.7389 6.055-8.4153 6.055-13.4792 0-5.0701-5.482-5.4339-6.119-5.4589z" fill-rule="evenodd" stroke="#201e2b" stroke-width=".621"/><path clip-rule="evenodd" d="m105.209 50.3134h6.764v-4.0582h-6.764z" fill="#fffffe" fill-rule="evenodd"/><path d="m109.267 44.9025v1.3527" stroke="#201e2b" stroke-width=".621"/><g clip-rule="evenodd" fill-rule="evenodd"><path d="m106.562 48.9606h1.353v-1.3527h-1.353z" fill="#f7cec1"/><g fill="#fde9e2"><path d="m109.268 47.7295h2.705v-.2432h-2.705z"/><path d="m109.268 47.7293h2.705v-.2428h-2.705z"/><path d="m109.268 49.082h2.705v-.2427h-2.705z"/><path d="m109.268 49.082h2.705v-.2427h-2.705z"/></g><path d="m106.562 49.082h1.353v-.2427h-1.353z" fill="#f7cec1"/><path d="m83.3071 63.8405h14.5543c1.2363 0 2.1566-1.1276 1.8914-2.3184l-4.5676-20.5304c-.195-.8758-.9818-1.5001-1.8915-1.5001h-14.5538c-1.2368 0-2.157 1.1276-1.8919 2.3184l4.5681 20.5304c.1945.8762.9814 1.5001 1.891 1.5001" fill="#102b44"/><path d="m107.915 35.4335c2.241 0 4.058-1.7844 4.058-3.9852v-6.8366h-8.116v6.8366c0 2.2008 1.817 3.9852 4.058 3.9852" fill="#ec9a9a"/><path d="m101.151 19.7108c0 4.8642 2.381 7.6064 6.116 7.6064 3.736 0 7.411-2.7422 7.411-7.6064 0-4.8638 0-9.97899-6.764-9.97899-6.763 0-6.763 5.11519-6.763 9.97899" fill="#f0b2af"/><path d="m117.384 18.0983c0 2.2507-2.706 2.4552-2.706 2.4552v-3.9283s2.706-.7775 2.706 1.4731" fill="#f0b2af"/><path d="m116.031 18.917c0 1.5-1.353 1.6366-1.353 1.6366v-2.619s1.353-.5182 1.353.9824" fill="#ec9a9a"/><path d="m105.209 17.1717c0 .3732-.302.6764-.676.6764-.373 0-.676-.3032-.676-.6764 0-.3736.303-.6763.676-.6763.374 0 .676.3027.676.6763" fill="#fffffe"/><path d="m110.62 17.1715c0 .3738-.303.6766-.676.6766-.374 0-.676-.3028-.676-.6766 0-.3733.302-.6761.676-.6761.373 0 .676.3028.676.6761" fill="#201e2b"/><path d="m105.209 17.1715c0 .3738-.302.6766-.676.6766-.373 0-.676-.3028-.676-.6766 0-.3733.303-.6761.676-.6761.374 0 .676.3028.676.6761" fill="#201e2b"/><path d="m108.205 24c-1.352 1.509-2.705 0-2.705 0z" fill="#fffffe"/><path d="m107.915 17.8481v4.0582c-3.044 0 0-4.0582 0-4.0582" fill="#e78287"/><path d="m113.326 21.2301c0 1.1203-.909 2.0289-2.03 2.0289-1.12 0-2.028-.9086-2.028-2.0289 0-1.1212.908-2.0293 2.028-2.0293 1.121 0 2.03.9081 2.03 2.0293" fill="#ec9a9a"/><path d="m103.646 19.2008c.863 0 1.563.9081 1.563 2.0289 0 1.1207-.7 2.0293-1.563 2.0293-.3 0-.577-.1154-.816-.3054-.197-.9127-.306-1.9519-.326-3.101.285-.3986.689-.6518 1.142-.6518" fill="#ec9a9a"/><path d="m126.68 84.592s-1.942 6.9062-.843 7.5056 1.359-1.7334 1.359-1.7334.447 4.8064 1.31 4.5812c.863-.2251.714-1.4662.714-1.4662s.175.5155.621.3988.453-1.0112.565-1.0397c.394.7895 1.175.1737.889-.8272.734.7239 1.078-.1672.938-1.6642-.141-1.4965-.477-6.2156-.477-6.2156" fill="#f0b2af"/><path d="m84.7757 50.4813c-.3233-.7441-3.9785 1.8639-3.9785 1.8639s1.5074-1.6014.4686-2.0104c-.7172-.2819-2.7519 2.2799-3.9451 3.8957-.5635.7627-.6763 1.7833-.2959 2.6604.6469 1.4907 2.437 2.0042 3.7267 1.0681 1.1238-.8159 2.3179-1.6806 2.8492-2.0591 1.1388-.8114 1.5776-1.5947.6544-1.6715.8696-.4069.8688-1.3318.0889-1.1284-.0417-.0961.5877-.6455.4209-1.0301-.1663-.3843-.6293-.1944-.6293-.1944s.9625-.6496.6401-1.3942" fill="#f0b2af"/><path d="m110.76 9.05842c-.804-.79485-1.368-1.86349-1.474-3.04792-.082-.93174.081-2.03134 1.067-2.70412 1.972-1.346 7.982 1.48514 6.902 5.65914-.89 3.43838-4.452 2.11348-6.495.0929" fill="#2c609d"/><path d="m117.375 13.6941c-.304-6.77433-8.352-10.3233-13.96-6.36857-1.093.77087-1.974 1.7011-2.327 2.80167-1.7162 5.3591-3.0676 4.8122-2.518 6.656.5493 1.8443 3.525 1.3043 4.167-1.7088.641-3.0131 7.003-.7509 10.071-3.7645 0 3.4185 1.827 7.1557 3.894 5.1257.516-.5074.729-1.5153.673-2.7415" fill="#2c609d"/></g><path d="m109.268 5.69058s4.328-.50882 6.763 4.04116" stroke="#102b44" stroke-width=".621"/><path clip-rule="evenodd" d="m104.118 30.0226s.909 3.6884 3.745 3.6884c2.835 0 3.837-3.6884 3.837-3.6884s1.797 4.0769-3.837 9.469c-5.483-5.3392-3.745-9.469-3.745-9.469" fill="#fde9e2" fill-rule="evenodd"/><path clip-rule="evenodd" d="m98.4457 74.3186 5.0733-5.0671 1.69 1.6884-5.081 5.0752z" fill="#e8849d" fill-rule="evenodd"/><path clip-rule="evenodd" d="m122.795 74.3186-5.074-5.0671-1.69 1.6884 5.081 5.0752z" fill="#e8849d" fill-rule="evenodd"/><path clip-rule="evenodd" d="m30.8098 107.128h32.4652v-31.113h-28.7749z" fill="#f7cec1" fill-rule="evenodd"/><path clip-rule="evenodd" d="m48.3951 66.546h-13.5272l.5486 86.574h10.2415z" fill="#102b44" fill-rule="evenodd"/><path clip-rule="evenodd" d="m35.0993 153.12c-4.6625 1.713-4.2821 4.058-4.2821 4.058h14.7333l.1392-4.058z" fill="#0c2339" fill-rule="evenodd"/><path clip-rule="evenodd" d="m60.2079 67.3013-11.8128-.7553 2.9996 86.574h10.5276z" fill="#102b44" fill-rule="evenodd"/><path clip-rule="evenodd" d="m61.7007 153.12h-10.6002l.1902 4.058h14.6823s.3799-2.345-4.2723-4.058" fill="#0c2339" fill-rule="evenodd"/><path clip-rule="evenodd" d="m59.8353 44.1585s5.0177-23.6049-11.18-23.6049c-8.1233 0-12.9214 3.9859-12.5719 14.1338.3919 11.3972-1.2155 35.9168-1.2155 35.9168h25.4232z" fill="#42b8eb" fill-rule="evenodd"/><path clip-rule="evenodd" d="m42.9842 21.9062s-16.2326 2.149-16.2326 34.5344c0 12.3003 9.7259 19.5744 9.7259 19.5744l3.8289-3.8679s-15.5245-15.9079 2.6778-34.2957z" fill="#fde9e2" fill-rule="evenodd"/><path clip-rule="evenodd" d="m53.806 21.9062s16.2326 2.149 16.2326 34.5344c0 12.3003-9.7259 19.5744-9.7259 19.5744l-3.8289-3.8679s15.5245-15.9079-2.6778-34.2957z" fill="#fde9e2" fill-rule="evenodd"/><path clip-rule="evenodd" d="m47.6867 20.5536v.0021c-.6376.025-6.0552.387-6.0552 5.4571 0 5.0637 5.4707 12.74 6.1198 13.4789.6492-.7389 6.0547-8.4152 6.0547-13.4789 0-5.0701-5.4818-5.4342-6.1193-5.4592z" fill-rule="evenodd" stroke="#201e2b" stroke-width=".621"/><path clip-rule="evenodd" d="m44.3369 44.9025h6.7636v-4.0581h-6.7636z" fill="#fffffe" fill-rule="evenodd"/><path d="m48.3951 39.4916v1.3527" stroke="#201e2b" stroke-width=".621"/><path clip-rule="evenodd" d="m45.6896 42.1971h1.3528v-1.3527h-1.3528z" fill="#f7cec1" fill-rule="evenodd"/><path clip-rule="evenodd" d="m48.3951 42.3186h2.7054v-.2432h-2.7054z" fill="#fde9e2" fill-rule="evenodd"/><path clip-rule="evenodd" d="m48.3951 42.3182h2.7054v-.2424h-2.7054z" fill="#fde9e2" fill-rule="evenodd"/><path clip-rule="evenodd" d="m48.3951 42.3184h2.7054v-.2428h-2.7054z" fill="#fde9e2" fill-rule="evenodd"/><path clip-rule="evenodd" d="m48.3951 43.6712h2.7054v-.2428h-2.7054z" fill="#fde9e2" fill-rule="evenodd"/><path clip-rule="evenodd" d="m45.6896 43.6712h1.3528v-.2428h-1.3528z" fill="#f7cec1" fill-rule="evenodd"/><path clip-rule="evenodd" d="m42.9842 21.9062v85.2218h-13.5272l6.7638-75.9336 6.0718-9.1532" fill="#fde9e2" fill-rule="evenodd"/><path clip-rule="evenodd" d="m53.5351 21.9062-1.0819 85.2218h16.2327l-6.7548-76.0541z" fill="#fde9e2" fill-rule="evenodd"/><path clip-rule="evenodd" d="m43.0875 66.5461-2.8087-44.2888 4.0582-1.7037z" fill="#f7cec1" fill-rule="evenodd"/><path clip-rule="evenodd" d="m56.5119 46.2552h5.4065s.2199 6.7636-2.6468 6.7636c-2.8674 0-2.7597-6.7636-2.7597-6.7636" fill="#f7cec1" fill-rule="evenodd"/><path clip-rule="evenodd" d="m53.2153 66.5461 3.2961-43.7013-4.0582-2.2912z" fill="#f7cec1" fill-rule="evenodd"/><path d="m39.6521 31.2612-.7719-.0798-.0005.0046zm1.7917-3.5971.1823-.7543h-.0002zm.57 4.0593-.7581-.1658-.0037.0169-.0029.0171zm0 7.7361c-.2285-.7416-.2276-.7419-.2267-.7422.0003-.0001.0011-.0003.0017-.0005.0011-.0003.0022-.0007.0033-.001.002-.0006.004-.0012.0057-.0017.0036-.001.0065-.0018.0088-.0024.0046-.0012.0069-.0017.007-.0017.0002-.0001-.0075.0016-.0218.0032-.029.0031-.0795.0051-.1427-.0056-.1085-.0185-.3132-.0828-.5408-.3741-.5034-.6445-1.1297-2.4201-.6839-6.997l-1.5447-.1505c-.4505 4.6253.104 6.9488 1.0056 8.1029.4749.608 1.0287.8678 1.5031.9486.2283.0389.4253.0344.5709.0186.0731-.0079.1345-.0189.182-.0291.0238-.0051.0442-.0102.0611-.0146.0085-.0022.016-.0043.0227-.0062.0033-.001.0064-.0019.0093-.0028.0014-.0004.0028-.0008.0041-.0012.0007-.0002.0017-.0005.002-.0006.0009-.0003.0018-.0006-.2267-.7421zm-2.3617-8.1983c.7719.0799.7718.08.7718.0801v.0001c0 .0001 0 .0001 0 0s.0001-.0004.0001-.001c.0002-.0011.0004-.0032.0007-.0062.0006-.0059.0017-.0153.0032-.028.0029-.0255.0075-.064.0139-.1137.0129-.0995.033-.2428.0612-.4144.0569-.3461.145-.7937.2704-1.2233.13-.4451.2809-.8023.4346-1.0145.0352-.0486.0651-.0818.0879-.1033.0228-.0214.0347-.0277.0342-.0274-.0018.0009-.0138.0066-.0332.0091-.0091.0012-.0175.0014-.0245.001-.0033-.0002-.006-.0005-.0079-.0007-.0019-.0003-.0029-.0006-.0029-.0006l.3643-1.5086c-.7941-.1917-1.3616.2876-1.6749.7201-.312.4309-.5225.9938-.6674 1.4899-.1493.5115-.2494 1.0258-.312 1.4064-.0316.1918-.0541.3529-.0689.4672-.0074.0571-.0129.1027-.0166.1347-.0018.016-.0032.0286-.0042.0376-.0005.0044-.0009.008-.0012.0106-.0001.0014-.0002.0024-.0003.0033-.0001.0004-.0001.0008-.0001.0011 0 .0001-.0001.0003-.0001.0004s0 .0003.7719.0801zm1.6093-2.8428c.0006.0001-.003-.001-.0067-.0034-.0029-.0018.0016.0002.012.0129.0242.0293.0664.0987.1067.2338.0829.2775.1133.6766.099 1.1333-.0139.444-.0679.8865-.1199 1.2228-.0257.1668-.0505.3045-.0686.3994-.0091.0474-.0164.084-.0214.108-.0024.012-.0043.0208-.0055.0263-.0005.0028-.0009.0047-.0012.0057-.0001.0005-.0001.0008-.0002.0009 0 0 0 0 .0001-.0001v-.0001c0-.0001 0-.0003.7581.1655s.7581.1657.7582.1655c0-.0001 0-.0002.0001-.0004 0-.0003.0001-.0007.0002-.0011.0002-.0008.0004-.0018.0007-.0031.0005-.0026.0013-.006.0022-.0103.0018-.0087.0044-.0208.0075-.0361.0063-.0307.0151-.0745.0256-.1296.0211-.1101.0491-.266.0781-.4536.0575-.3725.1206-.8821.1372-1.411.0163-.5163-.0093-1.1112-.1631-1.6261-.151-.5055-.4927-1.1284-1.2344-1.3078zm-.0123 3.1732c-.7814 4.5309-1.8536 6.0605-2.5031 6.5364-.2921.214-.5028.2188-.6117.2064-.0636-.0072-.1121-.0233-.1398-.0347-.0136-.0056-.0209-.0095-.021-.0096 0 0 .0019.0011.0058.0034.002.0012.0045.0027.0076.0047.0015.0009.0032.002.005.0031.0009.0006.0019.0012.0028.0018.0005.0004.0013.0008.0015.001.0008.0005.0016.001-.4228.6507-.4244.6496-.4236.6502-.4228.6507.0003.0002.0011.0007.0017.0011.0011.0007.0023.0015.0036.0023.0025.0016.0052.0033.0081.0051.0058.0037.0125.0078.02.0122.0149.0089.0331.0194.0545.0309.0427.0229.0985.0504.1665.0783.1354.0556.3234.1148.5534.141.4783.0546 1.0832-.041 1.7049-.4965 1.1782-.8633 2.3262-2.9494 3.1152-7.5246zm.1947-3.9275c.7741-.0532.7742-.0528.7742-.0524v.0006c.0001.0004.0001.0006.0001.0008 0 .0003 0 .0002 0-.0003-.0001-.0011-.0003-.0038-.0005-.008-.0004-.0086-.0011-.0234-.0017-.0442-.0013-.0416-.0024-.1067-.0013-.1918.0022-.1707.0135-.4201.0504-.7216.0741-.6068.2492-1.4027.6455-2.1891.3932-.7802 1.0032-1.5502 1.9594-2.1299.9571-.5803 2.3088-.9986 4.2299-.9986v-1.552c-2.1511 0-3.7926.4705-5.0345 1.2234-1.243.7536-2.038 1.7611-2.5407 2.7586-.4996.9913-.7114 1.9729-.8002 2.6994-.0446.3651-.0588.6712-.0617.8894-.0014.1093 0 .197.0019.2595.001.0313.0021.0564.003.0747.0004.0092.0009.0167.0012.0225.0002.0029.0003.0054.0005.0074 0 .001.0001.002.0001.0027.0001.0004.0001.001.0001.0012.0001.0004.0001.0009.7743-.0523zm7.656-6.3345c1.8375 0 2.9636.6058 3.7157 1.494.7855.9276 1.2355 2.2481 1.5175 3.7979.2828 1.554.3762 3.1947.5348 4.7736.1515 1.5091.3664 3.0331.9683 4.0965l1.3507-.7644c-.416-.7351-.6184-1.9298-.7748-3.4872-.1494-1.4875-.2545-3.261-.5521-4.8963-.2983-1.6395-.8104-3.2835-1.86-4.5231-1.0831-1.279-2.6652-2.043-4.9001-2.043z" fill="#df5057"/><g clip-rule="evenodd" fill-rule="evenodd"><path d="m36.2206 38.815c0 .3737.3025.6766.6761.6766.3737 0 .6767-.3029.6767-.6766 0-.3731-.303-.6761-.6767-.6761-.3736 0-.6761.303-.6761.6761" fill="#1d2621"/><path d="m55.1587 34.081c0 .7471.6057 1.3525 1.3527 1.3525.7474 0 1.3527-.6054 1.3527-1.3525 0-.7472-.6053-1.353-1.3527-1.353-.747 0-1.3527.6058-1.3527 1.353" fill="#1d2621"/><path d="m56.5114 34.757c0 .3735.3025.6764.6762.6764.3733 0 .6765-.3029.6765-.6764 0-.3738-.3032-.6763-.6765-.6763-.3737 0-.6762.3025-.6762.6763" fill="#dddad2"/><path d="m41.6315 38.8155c0 .3737.303.6761.6761.6761.3737 0 .6767-.3024.6767-.6761 0-.3736-.303-.6766-.6767-.6766-.3731 0-.6761.303-.6761.6766" fill="#1d2621"/><path d="m48.3955 27.3171c2.2407 0 4.0577-1.7843 4.0577-3.9855v-6.8362h-8.1163v6.8362c0 2.2012 1.8171 3.9855 4.0586 3.9855" fill="#ec9a9a"/><path d="m41.6315 11.5947c0 4.8641 2.3802 7.6061 6.1159 7.6061 3.7352 0 7.4113-2.742 7.4113-7.6061 0-4.86371 0-9.97922-6.7638-9.97922-6.7634 0-6.7634 5.11551-6.7634 9.97922" fill="#f0b2af"/><path d="m56.5114 11.3348c0 2.2506-2.7054 2.4552-2.7054 2.4552v-3.92839s2.7054-.77747 2.7054 1.47319" fill="#f0b2af"/><path d="m56.5114 10.8003c0 1.5004-1.3527 1.637-1.3527 1.637v-2.61884s1.3527-.51863 1.3527.98184" fill="#ec9a9a"/><path d="m51.1005 10.4084c0 .3733-.3027.6761-.6765.6761-.3732 0-.6762-.3028-.6762-.6761 0-.3738.303-.67659.6762-.67659.3738 0 .6765.30279.6765.67659" fill="#fffffe"/><path d="m45.6896 10.4084c0 .3733-.3029.6761-.6763.6761-.3735 0-.6764-.3028-.6764-.6761 0-.3738.3029-.67659.6764-.67659.3734 0 .6763.30279.6763.67659" fill="#fffffe"/><path d="m51.1005 10.4084c0 .3733-.3022.6761-.6766.6761-.3733 0-.6761-.3028-.6761-.6761 0-.3738.3028-.67659.6761-.67659.3744 0 .6766.30279.6766.67659" fill="#201e2b"/><path d="m45.6896 10.4084c0 .3733-.3033.6761-.6766.6761-.3738 0-.6761-.3028-.6761-.6761 0-.3738.3023-.67659.6761-.67659.3733 0 .6766.30279.6766.67659" fill="#201e2b"/><path d="m48.3951 9.73181v4.05819c-3.0436 0 0-4.05819 0-4.05819" fill="#e78287"/><path d="m53.806 13.1133c0 1.1208-.9085 2.0293-2.0291 2.0293-1.1202 0-2.0291-.9085-2.0291-2.0293 0-1.1207.9089-2.0288 2.0291-2.0288 1.1206 0 2.0291.9081 2.0291 2.0288" fill="#ec9a9a"/><path d="m42.7736 11.0845c.8634 0 1.5634.9081 1.5634 2.0288 0 1.1208-.7 2.0293-1.5634 2.0293-.2998 0-.5771-.1153-.8155-.3054-.1971-.9131-.3064-1.9518-.3266-3.1009.2853-.3987.6896-.6518 1.1421-.6518" fill="#ec9a9a"/><path d="m55.2457 10.1467s-.3585 1.187-1.2859.761c-.9278-.426-.8023-5.56428-5.9422-5.89231-1.9571 4.62087-5.9596 5.26911-7.1305 4.05753-1.1709-1.21153.0871-9.07292 6.9326-9.07292 6.846 0 8.7122 5.69813 7.426 10.1467" fill="#102b44"/><path d="m36.2206 75.6716 5.0732-5.0675 1.6904 1.6889-5.0805 5.0747z" fill="#f7cec1"/><path d="m61.9223 75.6716-5.0732-5.0675-1.6904 1.6889 5.0805 5.0747z" fill="#f7cec1"/><path d="m52.9843 69.2515h-10v1.3527h9.9789z" fill="#0b1f33"/><path d="m52.8004 22.278-.3389-.2295c0 3.4586-3.9611 4.608-3.9611 4.608s-3.9619-1.1494-3.9619-4.608l-.3389.2295c-2.0037 1.3566-2.3147 4.0824-.5096 5.6547 1.0531.9173 2.597 1.2484 4.8104-.2401 2.2126 1.4885 3.7565 1.1574 4.8096.2401 1.8051-1.5723 1.4941-4.2981-.5096-5.6547" fill="#33a3d4"/></g><path d="m41.0878 69.0386-5.0933 5.4109.4522.4257 5.0933-5.4109zm15.5152.4257 5.0932 5.4109.4522-.4257-5.0932-5.4109z" fill="#102b44"/><path clip-rule="evenodd" d="m48.277 15.688h-1.4377s-1.1713.0713-1.1713-.7392c0-.5262.5605-.6408 1.89-.6438 1.3298.003 1.8899.1176 1.8899.6438 0 .8105-1.1709.7392-1.1709.7392zm3.3393.5326c0-1.2263-.8954-2.2206-1.9998-2.2206h-4.1167c-1.1043 0-1.9998.9943-1.9998 2.2206 0 2.4732 1.7789 4.5194 4.0046 4.5421v.0009h.0534.0537v-.0009c2.2257-.0227 4.0046-2.0689 4.0046-4.5421z" fill="#102b44" fill-rule="evenodd"/></svg>