<svg fill="none" height="86" viewBox="0 0 86 86" width="86" xmlns="http://www.w3.org/2000/svg" xmlns:xlink="http://www.w3.org/1999/xlink"><clipPath id="a"><path d="m0 0h86v86h-86z"/></clipPath><g clip-path="url(#a)"><path d="m26.7519 60.618c3.7637 3.7638 3.7637 9.9472 0 13.7111-3.7638 3.7638-14.8537 8.6702-18.6174 4.9065-3.76375-3.7638 1.14252-14.8536 4.9064-18.6174 3.7638-3.7639 9.88-3.7639 13.711-.0002z" fill="#ffc01a"/><path d="m15.5276 58.8044v.4032c0 6.9899 5.713 12.7029 12.7029 12.7029h.2688c1.882-3.6294 1.277-8.1997-1.8147-11.2914-2.9573-3.0245-7.5275-3.6295-11.157-1.8147z" fill="#deb957"/><path d="m46.5119 39.5142c11.4932 11.4932 13.7782 27.8253 2.89 38.7135l-5.1752 5.1752c-10.8882 10.8882-3.3605-15.2569-14.8536-26.75s-37.70542-3.8982-26.75002-14.8536l5.17522-5.1753c10.8883-10.8879 27.2205-8.6027 38.7136 2.8902z" fill="#ff6744"/><path d="m84.5533 1.47256c3.4949 3.49497 1.9492 25.67454-19.4911 47.18214-13.9799 13.9126-22.7846 18.819-22.7846 18.819-9.3424 6.318-13.8454 2.0163-19.7601-3.8982-5.9146-5.9145-10.2832-10.4176-3.8982-19.76 0 0 4.9737-8.8719 18.8863-22.8518 21.4402-21.440167 43.5527-23.05318 47.0477-19.49114z" fill="#ffca77"/><path d="m45.9741 64.4485c-9.7457 6.5195-14.4504 2.0835-20.5666-4.0327-6.1834-6.1834-10.6866-10.8209-4.0327-20.5666l1.0082-1.613c-2.6212 3.5622-3.7637 5.5785-3.7637 5.5785-6.385 9.3424-2.0163 13.8454 3.8982 19.7601 5.9145 5.9146 10.4177 10.1489 19.7601 3.8982 0 0 4.167-2.3525 11.3586-8.3342-4.9064 3.7639-7.6621 5.3097-7.6621 5.3097z" fill="#c5eaff"/><path d="m62.0375 23.9887c3.2933 3.2933 3.2933 8.603 0 11.8964-3.2932 3.2933-8.6029 3.2933-11.8964 0-3.2932-3.2932-3.2932-8.6029 0-11.8964 3.2933-3.2934 8.6704-3.2934 11.8964 0z" fill="#c5eaff"/><path d="m42.6136 44.8229c1.6802 1.6802-1.5458 7.662-9.7456 15.8618-8.1999 8.1999-13.1734 10.4177-14.8537 8.6702-1.6802-1.6802.4705-6.6539 8.6702-14.8536 8.267-8.1997 14.1816-11.4259 15.9291-9.6784z" fill="#ff6744"/><path d="m56.123 23.5186c1.6802 0 3.2932.672 4.5032 1.882 1.2097 1.2097 1.8819 2.8229 1.8819 4.5031 0 1.6803-.672 3.2933-1.8819 4.5032-1.2098 1.2098-2.823 1.882-4.5032 1.882-1.6803 0-3.2933-.672-4.5032-1.882-1.2098-1.2097-1.882-2.8229-1.882-4.5032 0-1.6802.6721-3.2932 1.882-4.5031 1.2098-1.21 2.8229-1.882 4.5032-1.882zm0-2.0163c-2.1508 0-4.3015.8065-5.9145 2.4868-3.2933 3.2932-3.2933 8.6029 0 11.8964 1.613 1.613 3.7637 2.4867 5.9145 2.4867 2.1507 0 4.3015-.8065 5.9145-2.4867 3.2932-3.2933 3.2932-8.603 0-11.8964-1.613-1.6803-3.7638-2.4868-5.9145-2.4868z" fill="#145ed7"/><path d="m63.9868 3.1534c.6049 4.50318 3.0244 9.2752 6.9899 13.2406 3.495 3.4277 7.5277 5.713 11.4931 6.6539 4.4358-11.0228 4.0998-19.49125 2.0835-21.57492-1.9492-2.016266-10.0144-2.352282-20.5665 1.68042z" fill="#ff6744"/></g></svg>