<svg enable-background="new 0 0 128 128" viewBox="0 0 128 128" xmlns="http://www.w3.org/2000/svg"><path d="m47.876 86.251h-12.958v-12.598h1.961v10.634h10.996v1.964zm-10.996-56.626h44.472v17.359h1.961v-19.323h-48.395v28.293h1.961v-26.329zm22.238-3.582c.765 0 1.386-.621 1.386-1.388s-.621-1.388-1.386-1.388-1.386.621-1.386 1.388.621 1.388 1.386 1.388zm24.811-7.539h-49.625c-2.226 0-4.031 1.807-4.031 4.037v30.848c-2.569 1.895-9.336 6.914-12.073 9.271-3.05 2.632-3.962 8.053-4.619 12.011l-.196 1.159c-2.02 11.579-13.142 19.662-13.25 19.74l1.706 2.396c.49-.354 12.21-8.839 14.446-21.636l.196-1.179c.588-3.506 1.393-8.318 3.638-10.263 2.158-1.846 7.051-5.539 10.15-7.837v5.087c-1.177.786-2.354 1.601-3.472 2.475-3.884 3.045-6.718 6.462-6.836 6.61l2.265 1.876c.029-.029 2.766-3.329 6.384-6.168 1.314-1.041 2.785-2.013 4.217-2.956 2.334-1.542 4.541-3.005 5.845-4.596.196-.246.353-.373.451-.442.216.295.569 1.237.373 2.809-.177 1.454-1.304 6.403-8.218 9.035l-.922.354-.02.992c0 .039-.01.177-.02.383-.01.147-.029.324-.049.54-.275 2.77-1.726 10.774-9.238 11.088l.127 2.946c4.335-.187 7.238-2.337 9.111-5.097v5.637c-.687 1.621-2.707 5.195-5.276 5.559-3.325.471-7.63 6.737-8.875 8.652l2.471 1.611c2.197-3.398 5.472-7.16 6.816-7.346 2.01-.285 3.638-1.562 4.884-2.995.167 2.072 1.903 3.703 4.011 3.703h13.573v-2.946h-13.569c-.598 0-1.089-.491-1.089-1.1v-19.496c0-.029.01-.069.01-.098 6.914-2.995 9.336-8.505 9.278-12.434-.039-2.347-.971-4.125-2.442-4.645-.588-.196-2.118-.471-3.668 1.424-.686.845-1.844 1.729-3.178 2.652v-37.625c0-.599.49-1.09 1.089-1.09h49.624c.598 0 1.089.491 1.089 1.09v24.445h2.942v-24.445c0-2.229-1.804-4.036-4.03-4.036zm44.026 83.941v-49.687c0-2.23-1.811-4.044-4.038-4.044h-70.125c-2.226 0-4.038 1.814-4.038 4.044v49.687c0 2.23 1.812 4.044 4.038 4.044h32.201v-2.946h-32.201c-.604 0-1.096-.492-1.096-1.097v-49.688c0-.605.491-1.097 1.096-1.097h70.125c.604 0 1.096.492 1.096 1.097v49.687c0 .605-.491 1.097-1.096 1.097h-2.423v2.946h2.423c2.227 0 4.038-1.813 4.038-4.043zm-43.104-2.576h-22.596v-44.535h54.586v42.09h1.961v-44.054h-58.509v48.463h24.558zm36.954-20.88c.765 0 1.386-.621 1.386-1.388s-.621-1.388-1.386-1.388-1.386.621-1.386 1.388.621 1.388 1.386 1.388zm-62.698-1.388c0-1.61-1.308-2.92-2.916-2.92s-2.916 1.31-2.916 2.92 1.308 2.92 2.916 2.92 2.916-1.309 2.916-2.92zm-.98 0c0 1.068-.868 1.938-1.935 1.938s-1.935-.87-1.935-1.938.868-1.938 1.935-1.938 1.935.87 1.935 1.938zm19.044 31.65-2.672-1.233-5.076 11.031 2.672 1.233zm17.231 6.216c2.754-.856 13.102-4.167 15.363-6.305.563-.533 1.245-.653 2.402-.819 1.688-.243 3.999-.574 5.944-3.319 1.08-1.525.817-3.25-.689-4.503-2.798-2.328-10.411-3.186-14.241-.404-7.297-2.731-13.3 2.115-15.518 5.182l2.38 1.731c.217-.296 5.391-7.217 12.803-3.866l.942.426.72-.744c1.578-1.631 5.849-1.858 8.848-1.043 1.891.513 2.435 1.175 2.467 1.299 0 .001-.01.072-.113.218-1.213 1.714-2.426 1.887-3.961 2.108-1.282.184-2.735.392-4.005 1.593-1.359 1.286-9.299 4.12-14.502 5.723l-.259.08-.213.165c-2.435 1.897-4.977 8.681-5.462 10.022l2.766 1.003c1.039-2.872 3.018-7.28 4.328-8.547zm20.4-78.912-3.903 3.968c-1.462-20.389-18.497-36.535-39.22-36.535v2.946c19.026 0 34.678 14.692 36.247 33.343l-3.658-3.722-2.089 2.062 7.355 7.484 7.365-7.484z" fill="#1e1e1e"/></svg>