<svg width="40" height="40" viewBox="0 0 40 40" fill="none" xmlns="http://www.w3.org/2000/svg">
<path d="M31.875 24.9998C30.2676 24.9983 28.711 25.5625 27.478 26.5936L25.2812 24.3968C26.3112 23.1631 26.8753 21.607 26.8753 19.9998C26.8753 18.3927 26.3112 16.8366 25.2812 15.6029L27.478 13.4061C28.8391 14.5397 30.5847 15.1049 32.3519 14.9842C34.119 14.8635 35.7716 14.0661 36.9659 12.758C38.1602 11.4499 38.8041 9.73173 38.7639 7.96091C38.7236 6.19009 38.0022 4.50296 36.7497 3.25048C35.4972 1.998 33.8101 1.2766 32.0393 1.23633C30.2685 1.19607 28.5503 1.84005 27.2422 3.03431C25.9341 4.22857 25.1367 5.88116 25.016 7.64832C24.8953 9.41548 25.4605 11.1611 26.5941 12.5222L24.3969 14.7194C23.1632 13.6894 21.6071 13.1252 20 13.1252C18.3928 13.1252 16.8367 13.6894 15.603 14.7194L13.4062 12.5218C14.5397 11.1607 15.1049 9.41507 14.9841 7.64794C14.8634 5.88081 14.066 4.22825 12.7579 3.03404C11.4497 1.83982 9.73158 1.19588 7.96079 1.23616C6.18999 1.27644 4.50289 1.99784 3.25043 3.25031C1.99796 4.50277 1.27656 6.18987 1.23628 7.96066C1.196 9.73146 1.83994 11.4496 3.03416 12.7577C4.22838 14.0659 5.88093 14.8632 7.64806 14.984C9.41519 15.1047 11.1609 14.5396 12.5219 13.4061L14.7191 15.6033C13.6892 16.837 13.125 18.3931 13.125 20.0002C13.125 21.6074 13.6892 23.1635 14.7191 24.3972L12.5219 26.5944C11.1604 25.4614 9.41446 24.897 7.64736 25.0184C5.88025 25.1399 4.22801 25.938 3.03433 27.2467C1.84064 28.5553 1.19743 30.2738 1.23847 32.0445C1.27952 33.8153 2.00167 35.5022 3.2547 36.7541C4.50774 38.006 6.19519 38.7267 7.96602 38.7662C9.73686 38.8056 11.4547 38.1609 12.7623 36.9661C14.0699 35.7712 14.8665 34.1183 14.9865 32.3511C15.1064 30.5839 14.5404 28.8384 13.4062 27.4779L15.603 25.2811C16.8367 26.311 18.3928 26.8752 20 26.8752C21.6071 26.8752 23.1632 26.311 24.3969 25.2811L26.5941 27.4783C25.5948 28.6801 25.0351 30.1866 25.0072 31.7494C24.9793 33.3121 25.485 34.8377 26.4408 36.0744C27.3966 37.3111 28.7454 38.185 30.2647 38.552C31.784 38.9189 33.383 38.757 34.7979 38.093C36.2128 37.4289 37.3591 36.3024 38.0476 34.8992C38.7361 33.4961 38.9258 31.9001 38.5852 30.3747C38.2447 28.8492 37.3943 27.4855 36.1744 26.5083C34.9545 25.5312 33.438 24.9991 31.875 24.9998ZM31.875 13.7498C30.6756 13.751 29.5077 13.3666 28.5433 12.6535C28.8591 12.0423 29.337 11.5297 29.9246 11.1719C30.5122 10.814 31.187 10.6248 31.875 10.6248C32.563 10.6248 33.2377 10.814 33.8253 11.1719C34.413 11.5297 34.8908 12.0423 35.2066 12.6535C34.2423 13.3666 33.0743 13.751 31.875 13.7498ZM30 7.49985C30 7.12901 30.1099 6.76649 30.316 6.45815C30.522 6.14981 30.8148 5.90949 31.1574 5.76757C31.5001 5.62566 31.8771 5.58853 32.2408 5.66087C32.6045 5.73322 32.9386 5.9118 33.2008 6.17402C33.463 6.43624 33.6416 6.77034 33.7139 7.13405C33.7863 7.49777 33.7492 7.87477 33.6072 8.21738C33.4653 8.55999 33.225 8.85282 32.9167 9.05885C32.6083 9.26488 32.2458 9.37485 31.875 9.37485C31.3779 9.37427 30.9013 9.17654 30.5498 8.82503C30.1983 8.47353 30.0005 7.99695 30 7.49985ZM26.25 8.12485C26.249 7.21788 26.4673 6.32412 26.8863 5.51976C27.3054 4.7154 27.9127 4.0243 28.6566 3.50537C29.4004 2.98644 30.2587 2.65507 31.1583 2.53951C32.0578 2.42395 32.972 2.52763 33.8229 2.84171C34.6737 3.15578 35.436 3.67095 36.0448 4.34328C36.6535 5.01561 37.0906 5.82517 37.3189 6.70294C37.5472 7.58071 37.5598 8.50066 37.3557 9.38437C37.1516 10.2681 36.7369 11.0893 36.1468 11.7781C35.6247 10.9259 34.8608 10.2484 33.9525 9.83156C34.4258 9.41038 34.7598 8.85528 34.9104 8.23988C35.061 7.62448 35.021 6.97784 34.7957 6.38571C34.5703 5.79357 34.1703 5.28391 33.6487 4.9243C33.1271 4.56469 32.5085 4.37212 31.875 4.37212C31.2414 4.37212 30.6228 4.56469 30.1012 4.9243C29.5796 5.28391 29.1796 5.79357 28.9543 6.38571C28.729 6.97784 28.6889 7.62448 28.8395 8.23988C28.9901 8.85528 29.3242 9.41038 29.7975 9.83156C28.8891 10.2484 28.1252 10.9259 27.6031 11.7781C26.7293 10.7616 26.2491 9.46532 26.25 8.12485ZM8.12497 13.7498C6.92561 13.751 5.75765 13.3666 4.79333 12.6535C5.10912 12.0423 5.58698 11.5297 6.1746 11.1719C6.76223 10.814 7.43697 10.6248 8.12497 10.6248C8.81297 10.6248 9.48771 10.814 10.0753 11.1719C10.663 11.5297 11.1408 12.0423 11.4566 12.6535C10.4923 13.3666 9.32432 13.751 8.12497 13.7498ZM6.24997 7.49985C6.24997 7.12901 6.35993 6.76649 6.56596 6.45815C6.77199 6.14981 7.06483 5.90949 7.40744 5.76757C7.75005 5.62566 8.12705 5.58853 8.49076 5.66087C8.85448 5.73322 9.18857 5.9118 9.45079 6.17402C9.71302 6.43624 9.89159 6.77034 9.96394 7.13405C10.0363 7.49777 9.99916 7.87477 9.85724 8.21738C9.71533 8.55999 9.47501 8.85282 9.16666 9.05885C8.85832 9.26488 8.49581 9.37485 8.12497 9.37485C7.62786 9.37427 7.15129 9.17654 6.79978 8.82503C6.44828 8.47353 6.25055 7.99695 6.24997 7.49985ZM12.3968 11.7781C11.8747 10.9259 11.1108 10.2484 10.2025 9.83156C10.6757 9.41038 11.0098 8.85528 11.1604 8.23988C11.311 7.62448 11.271 6.97784 11.0456 6.38571C10.8203 5.79357 10.4203 5.28391 9.89873 4.9243C9.37712 4.56469 8.75853 4.37212 8.12497 4.37212C7.49141 4.37212 6.87282 4.56469 6.35121 4.9243C5.8296 5.28391 5.42961 5.79357 5.20429 6.38571C4.97896 6.97784 4.93894 7.62448 5.08952 8.23988C5.24011 8.85528 5.57419 9.41038 6.04747 9.83156C5.13909 10.2484 4.37524 10.9259 3.85309 11.7781C3.15332 10.9612 2.70243 9.96086 2.55387 8.89553C2.40532 7.83021 2.56532 6.74463 3.01492 5.76748C3.46452 4.79032 4.18486 3.96256 5.09056 3.38231C5.99626 2.80206 7.04934 2.49366 8.12497 2.49366C9.2006 2.49366 10.2537 2.80206 11.1594 3.38231C12.0651 3.96256 12.7854 4.79032 13.235 5.76748C13.6846 6.74463 13.8446 7.83021 13.6961 8.89553C13.5475 9.96086 13.0966 10.9612 12.3968 11.7781ZM8.12497 37.4998C6.92561 37.501 5.75765 37.1166 4.79333 36.4035C5.10912 35.7923 5.58698 35.2797 6.1746 34.9219C6.76223 34.564 7.43697 34.3748 8.12497 34.3748C8.81297 34.3748 9.48771 34.564 10.0753 34.9219C10.663 35.2797 11.1408 35.7923 11.4566 36.4035C10.4923 37.1166 9.32432 37.501 8.12497 37.4998ZM6.24997 31.2498C6.24997 30.879 6.35993 30.5165 6.56596 30.2082C6.77199 29.8998 7.06483 29.6595 7.40744 29.5176C7.75005 29.3757 8.12705 29.3385 8.49076 29.4109C8.85448 29.4832 9.18857 29.6618 9.45079 29.924C9.71302 30.1862 9.89159 30.5203 9.96394 30.8841C10.0363 31.2478 9.99916 31.6248 9.85724 31.9674C9.71533 32.31 9.47501 32.6028 9.16666 32.8089C8.85832 33.0149 8.49581 33.1248 8.12497 33.1248C7.62786 33.1243 7.15129 32.9265 6.79978 32.575C6.44828 32.2235 6.25055 31.747 6.24997 31.2498ZM13.75 31.8748C13.7508 33.2153 13.2707 34.5116 12.3968 35.5281C11.8747 34.6759 11.1108 33.9984 10.2025 33.5816C10.6757 33.1604 11.0098 32.6053 11.1604 31.9899C11.311 31.3745 11.271 30.7278 11.0456 30.1357C10.8203 29.5436 10.4203 29.0339 9.89873 28.6743C9.37712 28.3147 8.75853 28.1221 8.12497 28.1221C7.49141 28.1221 6.87282 28.3147 6.35121 28.6743C5.8296 29.0339 5.42961 29.5436 5.20429 30.1357C4.97896 30.7278 4.93894 31.3745 5.08952 31.9899C5.24011 32.6053 5.57419 33.1604 6.04747 33.5816C5.13909 33.9984 4.37524 34.6759 3.85309 35.5281C3.264 34.8394 2.85013 34.0184 2.64671 33.1352C2.4433 32.252 2.45637 31.3327 2.68483 30.4556C2.91328 29.5786 3.35034 28.7697 3.95879 28.098C4.56723 27.4263 5.32902 26.9115 6.17927 26.5977C7.02952 26.2838 7.94303 26.1801 8.842 26.2954C9.74096 26.4107 10.5987 26.7416 11.3423 27.2599C12.0858 27.7782 12.693 28.4685 13.1122 29.272C13.5315 30.0756 13.7503 30.9685 13.75 31.8748ZM20 25.6248C18.8006 25.626 17.6326 25.2416 16.6683 24.5285C16.9841 23.9173 17.462 23.4047 18.0496 23.0469C18.6372 22.689 19.312 22.4998 20 22.4998C20.688 22.4998 21.3627 22.689 21.9503 23.0469C22.538 23.4047 23.0158 23.9173 23.3316 24.5285C22.3673 25.2416 21.1993 25.626 20 25.6248ZM18.125 19.3748C18.125 19.004 18.2349 18.6415 18.441 18.3332C18.647 18.0248 18.9398 17.7845 19.2824 17.6426C19.625 17.5007 20.002 17.4635 20.3658 17.5359C20.7295 17.6082 21.0636 17.7868 21.3258 18.049C21.588 18.3112 21.7666 18.6453 21.8389 19.0091C21.9113 19.3728 21.8742 19.7498 21.7322 20.0924C21.5903 20.435 21.35 20.7278 21.0417 20.9339C20.7333 21.1399 20.3708 21.2498 20 21.2498C19.5029 21.2493 19.0263 21.0515 18.6748 20.7C18.3233 20.3485 18.1255 19.872 18.125 19.3748ZM24.2718 23.6531C23.7497 22.8009 22.9858 22.1234 22.0775 21.7066C22.5508 21.2854 22.8848 20.7303 23.0354 20.1149C23.186 19.4995 23.146 18.8528 22.9207 18.2607C22.6953 17.6686 22.2953 17.1589 21.7737 16.7993C21.2521 16.4397 20.6335 16.2471 20 16.2471C19.3664 16.2471 18.7478 16.4397 18.2262 16.7993C17.7046 17.1589 17.3046 17.6686 17.0793 18.2607C16.854 18.8528 16.8139 19.4995 16.9645 20.1149C17.1151 20.7303 17.4492 21.2854 17.9225 21.7066C17.0141 22.1234 16.2502 22.8009 15.7281 23.6531C15.0283 22.8362 14.5774 21.8359 14.4289 20.7705C14.2803 19.7052 14.4403 18.6196 14.8899 17.6425C15.3395 16.6653 16.0599 15.8376 16.9656 15.2573C17.8713 14.6771 18.9243 14.3687 20 14.3687C21.0756 14.3687 22.1287 14.6771 23.0344 15.2573C23.9401 15.8376 24.6604 16.6653 25.11 17.6425C25.5596 18.6196 25.7196 19.7052 25.5711 20.7705C25.4225 21.8359 24.9716 22.8362 24.2718 23.6531ZM31.875 37.4998C30.6756 37.501 29.5077 37.1166 28.5433 36.4035C28.8591 35.7923 29.337 35.2797 29.9246 34.9219C30.5122 34.564 31.187 34.3748 31.875 34.3748C32.563 34.3748 33.2377 34.564 33.8253 34.9219C34.413 35.2797 34.8908 35.7923 35.2066 36.4035C34.2423 37.1166 33.0743 37.501 31.875 37.4998ZM30 31.2498C30 30.879 30.1099 30.5165 30.316 30.2082C30.522 29.8998 30.8148 29.6595 31.1574 29.5176C31.5001 29.3757 31.8771 29.3385 32.2408 29.4109C32.6045 29.4832 32.9386 29.6618 33.2008 29.924C33.463 30.1862 33.6416 30.5203 33.7139 30.8841C33.7863 31.2478 33.7492 31.6248 33.6072 31.9674C33.4653 32.31 33.225 32.6028 32.9167 32.8089C32.6083 33.0149 32.2458 33.1248 31.875 33.1248C31.3779 33.1243 30.9013 32.9265 30.5498 32.575C30.1983 32.2235 30.0005 31.747 30 31.2498ZM36.1468 35.5281C35.6247 34.6759 34.8608 33.9984 33.9525 33.5816C34.4258 33.1604 34.7598 32.6053 34.9104 31.9899C35.061 31.3745 35.021 30.7278 34.7957 30.1357C34.5703 29.5436 34.1703 29.0339 33.6487 28.6743C33.1271 28.3147 32.5085 28.1221 31.875 28.1221C31.2414 28.1221 30.6228 28.3147 30.1012 28.6743C29.5796 29.0339 29.1796 29.5436 28.9543 30.1357C28.729 30.7278 28.6889 31.3745 28.8395 31.9899C28.9901 32.6053 29.3242 33.1604 29.7975 33.5816C28.8891 33.9984 28.1252 34.6759 27.6031 35.5281C26.9033 34.7112 26.4524 33.7109 26.3039 32.6455C26.1553 31.5802 26.3153 30.4946 26.7649 29.5175C27.2145 28.5403 27.9349 27.7126 28.8406 27.1323C29.7463 26.5521 30.7993 26.2437 31.875 26.2437C32.9506 26.2437 34.0037 26.5521 34.9094 27.1323C35.8151 27.7126 36.5354 28.5403 36.985 29.5175C37.4346 30.4946 37.5946 31.5802 37.4461 32.6455C37.2975 33.7109 36.8466 34.7112 36.1468 35.5281Z" fill="#0E2D45"/>
</svg>
