<svg fill="none" height="20" viewBox="0 0 20 20" width="20" xmlns="http://www.w3.org/2000/svg" xmlns:xlink="http://www.w3.org/1999/xlink"><clipPath id="a"><path d="m0 0h20v20h-20z"/></clipPath><g clip-path="url(#a)"><path d="m0 0h20v20h-20z" fill="#fff"/><path clip-rule="evenodd" d="m9.18489 1.50666-2.59752 5.26228-5.808847.84905c-.7453032.10894-1.04235 1.02507-.502773 1.55062l4.2025 4.09319-.9918 5.7827c-.12736.7427.65215 1.3089 1.31902.9582l5.19453-2.7317 5.1945 2.7317c.6669.3507 1.4464-.2155 1.319-.9582l-.9918-5.7827 4.2025-4.09319c.5396-.52555.2426-1.44168-.5027-1.55062l-5.8089-.84905-2.5975-5.26228c-.3334-.675545-1.29675-.675545-1.63021 0zm-1.86224 6.99213c.29575-.04323.55135-.22908.68365-.4971l1.9937-4.03902 1.9937 4.03902c.1323.26802.3879.45387.6836.4971l4.4598.65186-3.2263 3.14245c-.2144.2088-.3123.5098-.2617.8048l.7612 4.4383-3.9872-2.0968c-.2649-.1393-.58133-.1393-.8462 0l-3.98721 2.0968.76122-4.4383c.0506-.295-.04727-.596-.26167-.8048l-3.22634-3.14245z" fill="#102b44" fill-rule="evenodd"/></g></svg>