<svg fill="none" height="15" viewBox="0 0 15 15" width="15" xmlns="http://www.w3.org/2000/svg"><path clip-rule="evenodd" d="m0 9v3 .75c0 1.2426 1.00736 2.25 2.25 2.25h.75c1.24264 0 2.25-1.0074 2.25-2.25v-2.25c0-1.24264-1.00736-2.25-2.25-2.25h-1.5v-.75c0-3.31371 2.68629-6 6-6 3.3137 0 6 2.68629 6 6v.75h-1.5c-1.2426 0-2.25 1.00736-2.25 2.25v2.25c0 1.2426 1.0074 2.25 2.25 2.25h.75c1.2426 0 2.25-1.0074 2.25-2.25v-.75-3-1.5c0-4.14214-3.3579-7.5-7.5-7.5-4.14214 0-7.5 3.35786-7.5 7.5zm12 .75h1.5v3c0 .4142-.3358.75-.75.75h-.75c-.4142 0-.75-.3358-.75-.75v-2.25c0-.4142.3358-.75.75-.75zm-10.5 3v-3h1.5c.41421 0 .75.3358.75.75v2.25c0 .4142-.33579.75-.75.75h-.75c-.41421 0-.75-.3358-.75-.75z" fill="#102b44" fill-rule="evenodd"/></svg>