<svg fill="none" height="15" viewBox="0 0 15 15" width="15" xmlns="http://www.w3.org/2000/svg"><g fill="#102b44"><path clip-rule="evenodd" d="m3.00919 4.91232c.03055-2.60896 2.09267-4.762729 4.69552-4.90325827 2.87169-.16191473 5.24539 2.12932827 5.24239 4.96130827 0 1.14562-.4002 2.26374-1.1273 3.14969-.9012 1.09369-1.3992 2.54174-1.3992 4.07534 0 .3452-.278.6232-.62322.6232h-3.63849c-.34522 0-.62322-.278-.62322-.6232 0-1.5091-.50713-2.97249-1.42974-4.11505-.72098-.89206-1.10896-2.01935-1.09674-3.16803zm6.18941 6.65988c.11915-1.59165.69959-3.07943 1.6589-4.24644.5437-.65988.8431-1.49694.8431-2.35539 0-2.12322-1.77797-3.84013-3.93173-3.71793-1.91548.10387-3.49186 1.75357-3.51324 3.67516-.00917.87372.27495 1.69246.82179 2.37067.97454 1.20672 1.5611 2.70363 1.6833 4.27393z" fill-rule="evenodd"/><path d="m9.69655 13.7229h-3.43381c-.34521 0-.62321.278-.62321.6232s.278.6232.62321.6232h3.43381c.34525 0 .62325-.278.62325-.6232s-.278-.6232-.62325-.6232z"/></g></svg>