<svg fill="none" height="60" viewBox="0 0 60 60" width="60" xmlns="http://www.w3.org/2000/svg"><path d="m30 59.5c-.78 0-1.5528-.0303-2.3174-.0897l-.0387.4985c-1.588-.1233-3.1413-.3703-4.6503-.7314l.1164-.4862c-1.5163-.3628-2.987-.8426-4.4021-1.4295l-.1915.4619c-1.4594-.6052-2.8607-1.3223-4.1932-2.1405l.2617-.4261c-1.3201-.8107-2.5716-1.7223-3.7437-2.7243l-.3249.38c-1.19449-1.0212-2.30785-2.1345-3.32904-3.329l.38006-.3249c-1.00198-1.1721-1.91366-2.4236-2.72432-3.7437l-.42607.2617c-.81825-1.3325-1.53532-2.7338-2.14052-4.1932l.46187-.1915c-.58684-1.4151-1.06668-2.8859-1.42944-4.4021l-.486272.1164c-.361034-1.509-.608043-3.0623-.7314093-4.6503l.4984983-.0387c-.059397-.7646-.089657-1.5374-.089657-2.3174s.03026-1.5528.089657-2.3174l-.4984978-.0387c.1233668-1.588.3703758-3.1413.7314098-4.6503l.486271.1164c.36276-1.5163.8426-2.987 1.42944-4.4021l-.46186-.1915c.60519-1.4594 1.32226-2.8607 2.14051-4.1932l.42608.2617c.81065-1.3201 1.72234-2.5716 2.72431-3.7437l-.38005-.3249c1.02118-1.19449 2.13454-2.30785 3.32903-3.32904l.3249.38006c1.1721-1.00198 2.4236-1.91366 3.7437-2.72432l-.2617-.42607c1.3325-.81825 2.7338-1.53532 4.1932-2.14052l.1915.46187c1.4151-.58684 2.8859-1.06668 4.4021-1.42944l-.1164-.486272c1.509-.361034 3.0623-.608043 4.6503-.7314093l.0387.4984983c.7646-.059397 1.5374-.089657 2.3174-.089657s1.5528.03026 2.3174.089657l.0387-.4984977c1.588.1233667 3.1413.3703757 4.6503.7314097l-.1164.486271c1.5162.36276 2.987.8426 4.4021 1.42944l.1915-.46186c1.4594.60519 2.8607 1.32226 4.1932 2.14051l-.2617.42608c1.3201.81065 2.5716 1.72234 3.7437 2.72431l.3249-.38005c1.1945 1.02118 2.3079 2.13454 3.329 3.32903l-.38.3249c1.002 1.1721 1.9136 2.4236 2.7243 3.7437l.4261-.2617c.8182 1.3325 1.5353 2.7338 2.1405 4.1932l-.4619.1915c.5869 1.4151 1.0667 2.8859 1.4295 4.4021l.4862-.1164c.3611 1.509.6081 3.0623.7314 4.6503l-.4985.0387c.0594.7646.0897 1.5374.0897 2.3174s-.0303 1.5528-.0897 2.3174l.4985.0387c-.1233 1.588-.3703 3.1413-.7314 4.6503l-.4862-.1164c-.3628 1.5162-.8426 2.987-1.4295 4.4021l.4619.1915c-.6052 1.4594-1.3223 2.8607-2.1405 4.1932l-.4261-.2617c-.8107 1.3201-1.7223 2.5716-2.7243 3.7437l.38.3249c-1.0212 1.1945-2.1345 2.3079-3.329 3.329l-.3249-.38c-1.1721 1.002-2.4236 1.9136-3.7437 2.7243l.2617.4261c-1.3325.8182-2.7338 1.5353-4.1932 2.1405l-.1915-.4619c-1.4151.5869-2.8859 1.0667-4.4021 1.4295l.1164.4862c-1.509.3611-3.0623.6081-4.6503.7314l-.0387-.4985c-.7646.0594-1.5374.0897-2.3174.0897z" fill="#ecf4fa" fill-opacity=".5" stroke="#d8e2ea" stroke-dasharray="5 5"/></svg>