<svg fill="none" height="812" viewBox="0 0 375 812" width="375" xmlns="http://www.w3.org/2000/svg" xmlns:xlink="http://www.w3.org/1999/xlink"><clipPath id="a"><path d="m0 0h375v812h-375z"/></clipPath><g clip-path="url(#a)"><path d="m0 0h375v812h-375z" fill="#145fd8"/><g clip-rule="evenodd" fill-rule="evenodd" stroke="#fff" stroke-width="80"><path d="m400 581c112.666 0 204-91.334 204-204s-91.334-204-204-204-204 91.334-204 204 91.334 204 204 204z" opacity=".05"/><path d="m-32 353c62.4082 0 113-50.592 113-113s-50.5918-113-113-113-113 50.592-113 113 50.5918 113 113 113z" opacity=".1"/><path d="m80 898c83.947 0 152-68.053 152-152s-68.053-152-152-152c-83.94728 0-152 68.053-152 152s68.05272 152 152 152z" opacity=".15"/></g></g></svg>