<svg fill="none" height="182" viewBox="0 0 297 182" width="297" xmlns="http://www.w3.org/2000/svg" xmlns:xlink="http://www.w3.org/1999/xlink"><mask id="a" height="400" maskUnits="userSpaceOnUse" width="400" x="0" y="-218"><path clip-rule="evenodd" d="m200 182c110.457 0 200-89.5431 200-200 0-110.457-89.543-200-200-200-110.4569 0-200 89.543-200 200 0 110.4569 89.5431 200 200 200z" fill="#fff" fill-rule="evenodd"/></mask><g clip-rule="evenodd" fill-rule="evenodd"><path d="m200 182c110.457 0 200-89.5431 200-200 0-110.457-89.543-200-200-200-110.4569 0-200 89.543-200 200 0 110.4569 89.5431 200 200 200z" fill="#145fd8"/><g mask="url(#a)"><path d="m348.605 175.144c-2.314 40.981-59.394 69.534-89.018 50.575-36.219-23.175-31.9-11.588-67.302-15.098-35.397-3.511-71.699-23.88-81.533-75.716-1.237-6.537-1.726-13.039-1.543-19.41 1.244-44.1558 34.448-81.9672 69.973-80.4509 57.543 2.4584 62.55 60.3984 77.689 65.5699 15.142 5.171 52.279-9.0328 84.235 45.71 5.818 9.964 8.015 19.701 7.499 28.82z" fill="#0e57cb"/><path d="m308.348 199.609c-3.706 0-3.706-29.63 0-29.63h-68.825c-3.706 0-3.706 29.63 0 29.63z" fill="#ebebe9"/><path d="m238.045 174.918h69.001c.265 0 .479-.185.479-.412s-.214-.411-.479-.411h-69.001c-.264 0-.478.184-.478.411s.214.412.478.412z" fill="#f8f7f6"/><path d="m238.045 180.679h69c.266 0 .48-.184.48-.412 0-.227-.214-.411-.48-.411h-69c-.264 0-.478.184-.478.411 0 .228.214.412.478.412z" fill="#f8f7f6"/><path d="m238.045 178.21h69c.266 0 .48-.184.48-.412 0-.227-.214-.411-.48-.411h-69c-.264 0-.478.184-.478.411 0 .228.214.412.478.412z" fill="#f8f7f6"/><path d="m240.036 199.609c-3.671 0-3.671-29.63 0-29.63h-75.437c-3.67 0-3.67 29.63 0 29.63z" fill="#ff7b5d"/><path d="m164.606 197.475h71.742c-.716-2.39-1.248-6.292-1.248-12.681 0-6.378.532-10.29 1.248-12.681h-71.742c-1.905 3.392-1.905 21.979 0 25.362zm-.553-29.142h75.724c1.047 0 1.905.851 1.905 1.89 0 .832-.543 1.531-1.287 1.787-1.99 3.127-1.99 22.442 0 25.569.744.255 1.287.964 1.287 1.786 0 1.049-.858 1.89-1.905 1.89h-75.724c-1.162 0-4.676 0-4.676-16.461s3.514-16.461 4.676-16.461z" fill="#ed6d51"/><path d="m175.062 197.475c.263 1.522.574 2.816.951 3.78h7.233c-.376-.964-.687-2.258-.951-3.78-1.15-6.888-1.15-18.473 0-25.362.264-1.52.575-2.816.951-3.78h-7.233c-.377.964-.688 2.26-.951 3.78-1.16 6.889-1.16 18.474 0 25.362z" fill="#fff" fill-opacity=".19"/><path d="m217.86 197.475c.264 1.522.575 2.816.951 3.78h7.233c-.377-.964-.688-2.258-.952-3.78-1.149-6.888-1.149-18.473 0-25.362.264-1.52.575-2.816.952-3.78h-7.233c-.376.964-.687 2.26-.951 3.78-1.16 6.889-1.16 18.474 0 25.362z" fill="#fff" opacity=".1"/><path d="m184.971 197.475c.273 1.522.595 2.816.986 3.78h4.696c-.39-.964-.712-2.258-.987-3.78-1.191-6.888-1.191-18.473 0-25.362.275-1.52.597-2.816.987-3.78h-4.696c-.391.964-.713 2.26-.986 3.78-1.203 6.889-1.203 18.474 0 25.362z" fill="#fff" opacity=".1"/><path d="m191.555 197.475c.273 1.522.595 2.816.987 3.78h4.695c-.39-.964-.712-2.258-.986-3.78-1.192-6.888-1.192-18.473 0-25.362.274-1.52.596-2.816.986-3.78h-4.695c-.392.964-.714 2.26-.987 3.78-1.203 6.889-1.203 18.474 0 25.362z" fill="#fff" opacity=".1"/><path d="m239.76 201.255h68.332c1.051 0 1.903-.846 1.903-1.889 0-1.045-.852-1.89-1.903-1.89h-67.773c-1.907-3.389-1.907-21.974 0-25.363h67.773c1.051 0 1.903-.847 1.903-1.89 0-1.044-.852-1.89-1.903-1.89h-68.332c-1.153 0-4.663 0-4.663 16.462 0 16.46 3.51 16.46 4.663 16.46z" fill="#e8674b"/><path d="m252.963 191.379c-.024 0-.05-.004-.077-.015l-3.225-1.053-.16-.026-.16.026-3.225 1.053c-.029.011-.055.015-.08.015-.063 0-.112-.028-.139-.047-.037-.025-.1-.085-.1-.19v-1.16h7.407v1.16c0 .105-.064.165-.101.19-.027.019-.077.047-.14.047zm-7.166-2.365h7.407v-1.975h-7.407zm0-2.944h7.407v-1.974h-7.407zm0-2.943h7.407v-1.974h-7.407zm0-2.943h7.407v-1.974h-7.407z" fill="#d5d5d3"/><path d="m245.797 180.679h7.407v-.823h-7.407z" fill="#e0e0df"/><path d="m253.204 177.926h-7.407v-.13l.151-.125h7.105l.151.125z" fill="#e0e0df"/><path d="m253.712 191.379h-2.221l-1.99-.668-1.991.668h-2.22c-.202-.218-.316-.505-.316-.804v-1.145h.962v1.145c0 .103.061.162.097.187.026.019.073.046.133.046.025 0 .05-.004.077-.015l3.104-1.039.154-.025.154.025 3.104 1.039c.026.011.051.015.074.015.061 0 .109-.027.135-.046.035-.025.097-.084.097-.187v-1.145h.962v1.145c0 .3-.115.587-.315.804zm-.647-2.904h.962v-1.949h-.962zm-8.091 0h.962v-1.949h-.962zm8.091-2.905h.962v-1.947h-.962zm-8.091 0h.962v-1.947h-.962zm8.091-2.903h.962v-1.948h-.962zm-8.091 0h.962v-1.948h-.962zm8.091-2.904h.962v-1.948h-.962zm-8.091 0h.962v-1.948h-.962zm8.7-2.904h-8.347c.198-.182.464-.295.755-.295h6.838c.291 0 .556.113.754.295z" fill="#d5d5d3"/><path d="m253.065 180.856h.962v-1h-.962zm-8.091 0h.962v-1h-.962z" fill="#e0e0df"/><path d="m254.027 178.21h-.962v-.129l-.145-.125h-6.838l-.146.125v.129h-.962v-.129c0-.274.136-.521.353-.694h8.347c.217.173.353.42.353.694z" fill="#e0e0df"/><path d="m254.027 177.998v12.682c0 .477-.487.814-.958.662l-3.156-1.021-3.157 1.021c-.47.152-.959-.185-.959-.662v-12.682c0-.338.286-.611.638-.611h6.955c.352 0 .637.273.637.611z" fill="#e8674b"/><path d="m252.92 177.496.145.141v12.583c0 .102-.061.159-.096.184-.037.025-.114.063-.212.03l-3.102-1.013c-.1-.032-.206-.032-.308 0l-3.104 1.013c-.095.033-.173-.005-.209-.03s-.098-.082-.098-.184v-12.583l.146-.141zm-6.751 13.883c.129 0 .258-.021.382-.062l2.95-.963 2.949.963c.369.119.77.06 1.08-.156.312-.217.497-.569.497-.941v-12.583c0-.591-.496-1.073-1.107-1.073h-6.838c-.611 0-1.108.482-1.108 1.073v12.583c0 .373.187.724.498.941.206.143.451.218.697.218z" fill="#e8674b"/><path d="m172.546 148.58h125.771c6.791 0 6.791 18.107 0 18.107h-125.771z" fill="#4fb270"/><path d="m298.442 168.333h-126.031c-.834 0-1.511-.664-1.511-1.482 0-.82.677-1.483 1.511-1.483h126.031c2.333 0 3.592-3.773 3.592-7.323 0-3.549-1.259-7.322-3.592-7.322h-126.031c-.834 0-1.511-.664-1.511-1.482 0-.82.677-1.484 1.511-1.484h126.031c4.545 0 6.614 5.333 6.614 10.288s-2.069 10.288-6.614 10.288z" fill="#4fb270"/><path d="m135.509 166.687c6.793 0 6.793-18.107 0-18.107h87.087c6.792 0 6.792 18.107 0 18.107z" fill="#f8f7f6"/><g fill="#ebebe9"><path d="m224.842 155.079h-84.839c-.21 0-.379-.146-.379-.326 0-.181.169-.325.379-.325h84.839c.209 0 .379.144.379.325 0 .18-.17.326-.379.326z"/><path d="m224.842 161.663h-84.839c-.21 0-.379-.146-.379-.326 0-.179.169-.325.379-.325h84.839c.209 0 .379.146.379.325 0 .18-.17.326-.379.326z"/><path d="m224.021 152.61h-84.844c-.207 0-.376-.146-.376-.326 0-.179.169-.326.376-.326h84.844c.208 0 .377.147.377.326 0 .18-.169.326-.377.326z"/><path d="m224.02 157.548h-84.017c-.209 0-.379-.146-.379-.326 0-.179.17-.326.379-.326h84.017c.209 0 .378.147.378.326 0 .18-.169.326-.378.326z"/><path d="m224.02 159.194h-84.017c-.209 0-.379-.146-.379-.326s.17-.325.379-.325h84.017c.209 0 .378.145.378.325s-.169.326-.378.326z"/><path d="m224.021 164.133h-84.844c-.207 0-.376-.145-.376-.326 0-.18.169-.326.376-.326h84.844c.208 0 .377.146.377.326 0 .181-.169.326-.377.326z"/></g><path d="m222.714 168.333h-87.338c-.836 0-1.513-.664-1.513-1.482 0-.82.677-1.483 1.513-1.483h87.338c2.335 0 3.595-3.773 3.595-7.323 0-3.549-1.26-7.322-3.595-7.322h-87.338c-.836 0-1.513-.664-1.513-1.482 0-.82.677-1.484 1.513-1.484h87.338c4.55 0 6.622 5.333 6.622 10.288s-2.072 10.288-6.622 10.288z" fill="#70bc81"/><path d="m218.636 158.457h-2.242l-.513-.168h-.25l-.514.168h-2.242v-1.528h5.761zm-5.761-2.279h5.761v-1.527h-5.761zm5.761-2.276h-5.761v-1.093l.118-.114h5.527l.116.114z" fill="#e0e0df"/><path d="m212.875 155.079h5.761v-.651h-5.761z" fill="#d5d5d3"/><path d="m212.875 157.548h5.761v-.652h-5.761z" fill="#d5d5d3"/><path d="m218.388 159.141-1.994-.684h2.242v.502l-.078.156zm-5.264 0-.169-.026-.08-.156v-.502h2.242z" fill="#d5d5d3"/><path d="m213.031 160.103c-.202 0-.403-.059-.571-.173-.175-.119-.302-.287-.364-.477h3.142l-1.895.601c-.101.033-.208.049-.312.049zm5.449 0c-.106 0-.211-.016-.312-.049l-1.895-.601h3.143c-.063.19-.189.358-.366.477-.167.114-.368.173-.57.173zm.192-1.391h.788v-1.512h-.788zm-2.27 0h-1.293l.52-.166h.253zm-4.35 0h.787v-1.512h-.787zm6.62-2.254h.788v-1.51h-.788zm-6.62 0h.787v-1.51h-.787zm7.408-2.251h-.788v-1.081l-.119-.112h-5.595l-.119.112v1.081h-.787v-1.081c0-.157.046-.304.124-.431h7.159c.079.127.125.274.125.431z" fill="#e0e0df"/><path d="m218.672 155.133h.788v-.791h-.788zm-6.62 0h.787v-.791h-.787z" fill="#d5d5d3"/><path d="m219.459 152.47h-6.584c.145-.223.413-.372.719-.372h5.146c.306 0 .574.149.719.372z" fill="#d5d5d3"/><path d="m218.672 157.603h.788v-.792h-.788zm-6.62 0h.787v-.792h-.787z" fill="#d5d5d3"/><path d="m219.416 159.194h-3.143l-.518-.144-.517.144h-3.142c-.029-.077-.044-.157-.044-.238v-.413h.787v.413l.08.128.172.022 2.018-.563h1.293l2.018.563.172-.022.08-.128v-.413h.788v.413c0 .081-.015.161-.044.238z" fill="#d5d5d3"/><path d="m212.077 159.502c0 .409.411.696.805.566l2.656-.875 2.656.875c.396.13.806-.157.806-.566v-6.571c0-.29-.24-.524-.536-.524h-5.851c-.297 0-.536.234-.536.524z" fill="#70bc81"/><path d="m215.756 158.445.126.021 2.539.848.172-.026.079-.154v-6.364l-.119-.118h-5.595l-.119.118v6.364l.081.154.17.026 2.539-.848zm-2.725 1.658c-.202 0-.402-.062-.571-.182-.256-.181-.408-.475-.408-.787v-6.364c0-.496.407-.898.906-.898h5.595c.5 0 .907.402.907.898v6.364c0 .311-.154.605-.408.787-.255.182-.584.231-.883.131l-2.413-.805-2.414.805c-.101.034-.207.051-.311.051z" fill="#4fb270"/><path d="m296.137 160.103h-58.703c-1.285 0-2.337-1.111-2.337-2.469s1.052-2.469 2.337-2.469h58.703c1.283 0 2.335 1.111 2.335 2.469s-1.052 2.469-2.335 2.469z" fill="#70bc81"/><path d="m161.846 145.288h34.052c4.671-2.54 8.151-8.289 8.163-15.785l16.145-57.466h97.196l-16.144 57.466c-.012 7.496-3.494 13.245-8.164 15.785z" fill="#47498c"/><path d="m293.61 147.757h-55.416c-1.053 0-1.906-.856-1.906-1.913s.853-1.914 1.906-1.914h54.912c4.183-2.512 6.767-7.801 6.777-13.937 0-.174.024-.347.071-.515l15.495-55.26h-93.426l-15.715 56.049c-.093 7.621-3.592 14.217-9.175 17.259-.279.152-.592.231-.909.231h-34.118c-1.052 0-1.906-.856-1.906-1.913s.854-1.914 1.906-1.914h33.614c4.182-2.512 6.768-7.801 6.778-13.937 0-.174.024-.347.072-.515l16.176-57.6921c.231-.8247.981-1.395 1.835-1.395h97.384c.597 0 1.159.2804 1.52.7578.36.4774.476 1.0974.314 1.6744l-16.107 57.4439c-.091 7.62-3.591 14.217-9.173 17.259-.279.152-.592.231-.909.231z" fill="#102b44"/><path d="m204.077 137.881c-2.577-2.843 15.079-64.1979 20.23-64.1979h92.272l-17.694 63.9569z" fill="#f8f7f6"/><g fill="#ebebe9"><path d="m211.7 127.181-.066-.004c-.257-.036-.436-.278-.4-.54 1.997-14.89 6.816-31.0399 14.734-49.3752.104-.2429.38-.3523.619-.2457.236.1075.345.3906.239.6334-7.88 18.2519-12.677 34.3185-14.662 49.1165-.032.241-.233.415-.464.415z"/><path d="m214.169 127.181-.064-.004c-.257-.036-.437-.277-.402-.54 1.994-14.968 6.813-31.1187 14.734-49.3764.106-.2428.382-.3513.62-.2438.237.1075.344.3906.239.6334-7.885 18.1733-12.681 34.2388-14.663 49.1158-.033.241-.233.415-.464.415z"/><path d="m217.461 127.181-.064-.004c-.258-.035-.437-.277-.402-.539 1.988-15.041 6.808-31.1917 14.734-49.3784.105-.2418.386-.3503.62-.2428.238.1085.344.3916.239.6344-7.891 18.1003-12.686 34.1668-14.664 49.1138-.031.241-.232.416-.463.416z"/><path d="m219.93 127.181-.063-.004c-.258-.035-.438-.277-.403-.539 1.954-14.902 6.913-31.5156 14.735-49.379.107-.2429.384-.3484.62-.2429.237.1085.343.3926.237.6345-7.786 17.779-12.718 34.3044-14.662 49.1144-.031.241-.233.416-.464.416z"/><path d="m223.223 127.181-.064-.004c-.257-.035-.437-.276-.403-.538 1.951-14.977 6.909-31.5911 14.735-49.3805.106-.2419.385-.3494.621-.2409.237.1084.343.3925.236.6344-7.789 17.7039-12.722 34.228-14.661 49.113-.031.241-.233.416-.464.416z"/><path d="m226.515 127.181-.063-.004c-.256-.034-.439-.275-.404-.538 1.945-15.046 6.904-31.6599 14.736-49.3809.107-.2419.385-.3494.622-.24.235.1094.341.3935.234.6354-7.795 17.6347-12.727 34.1575-14.66 49.1115-.031.24-.233.416-.465.416z"/><path d="m228.984 127.181-.062-.004c-.257-.034-.438-.275-.405-.537 1.941-15.119 6.899-31.7331 14.737-49.3832.107-.2409.387-.3484.622-.2381.236.1094.34.3935.233.6344-7.8 17.5638-12.732 34.0869-14.66 49.1109-.031.241-.233.417-.465.417z"/><path d="m232.276 127.181-.061-.004c-.259-.034-.439-.274-.406-.537 1.937-15.189 6.894-31.8031 14.737-49.3842.108-.2399.39-.3474.622-.237.237.1103.34.3944.233.6353-7.805 17.4937-12.737 34.0159-14.66 49.1099-.031.241-.233.417-.465.417z"/><path d="m234.745 127.181-.061-.003c-.257-.034-.439-.275-.406-.537 1.93-15.256 6.888-31.8714 14.738-49.3853.109-.2419.389-.3465.622-.2371.236.1114.34.3955.231.6364-7.81 17.4265-12.742 33.949-14.659 49.108-.031.242-.233.418-.465.418z"/><path d="m238.062 127.181-.065-.003c-.27-.034-.462-.275-.426-.538 1.528-11.588 4.714-23.425 9.741-36.1876.097-.2479.384-.3709.636-.2767.255.0951.383.3728.286.6207-4.998 12.6896-8.166 24.4546-9.684 35.9656-.031.242-.245.419-.488.419z"/><path d="m241.329 127.181-.06-.003c-.256-.034-.439-.274-.407-.537 1.918-15.393 6.878-32.0085 14.739-49.387.109-.2409.387-.3455.623-.2342.236.1114.337.3964.229.6373-7.821 17.2893-12.752 33.8099-14.658 49.1049-.031.242-.232.419-.466.419z"/><path d="m243.798 127.181-.059-.003c-.258-.033-.439-.273-.407-.536 1.91-15.456 6.87-32.0733 14.739-49.3882.108-.2419.39-.3455.624-.2332s.336.3973.227.6373c-7.828 17.2256-12.76 33.7471-14.659 49.1041-.03.242-.232.419-.465.419z"/><path d="m247.09 127.181-.059-.003c-.257-.033-.439-.273-.407-.536 1.905-15.527 6.864-32.1436 14.738-49.3909.111-.24.391-.3417.623-.2313.236.1113.339.3973.229.6373-7.833 17.1562-12.765 33.6769-14.659 49.1039-.029.243-.232.42-.465.42z"/><path d="m249.56 127.181-.06-.003c-.257-.033-.439-.272-.407-.535 1.898-15.591 6.857-32.2083 14.738-49.3911.11-.2399.391-.3436.625-.2313.235.1123.337.3983.226.6383-7.84 17.0915-12.771 33.6121-14.658 49.1021-.029.243-.232.42-.464.42z"/><path d="m252.852 127.181-.059-.003c-.257-.032-.441-.272-.408-.535 1.891-15.653 6.85-32.2709 14.74-49.3924.11-.239.393-.3426.625-.2294.234.1123.335.3983.224.6383-7.846 17.0293-12.778 33.5485-14.657 49.1015-.03.243-.232.42-.465.42z"/><path d="m255.321 127.181-.057-.003c-.259-.032-.442-.271-.41-.535 1.886-15.72 6.845-32.3389 14.74-49.393.112-.2399.393-.3417.626-.2284.234.1132.334.3992.223.6392-7.852 16.9601-12.783 33.4792-14.656 49.1002-.03.243-.232.42-.466.42z"/><path d="m258.631 127.181-.06-.003c-.268-.032-.457-.268-.425-.527 1.3-10.376 4.026-21.169 8.105-32.0804.091-.2462.371-.3702.624-.284.253.0899.384.3616.291.6068-4.053 10.8446-6.761 21.5666-8.053 31.8716-.029.24-.24.416-.482.416z"/><path d="m261.905 127.181-.057-.003c-.258-.031-.441-.27-.41-.534 1.87-15.844 6.829-32.4638 14.741-49.3951.111-.24.389-.3408.626-.2266.234.1143.334.4003.222.6393-7.867 16.8382-12.798 33.3564-14.657 49.0984-.028.243-.231.421-.465.421z"/><path d="m264.374 127.181-.057-.003c-.257-.031-.441-.27-.409-.533 1.864-15.912 6.824-32.5309 14.741-49.3969.112-.24.397-.3398.626-.2256.234.1142.333.4012.221.6402-7.873 16.771-12.804 33.2893-14.657 49.0963-.028.244-.231.422-.465.422z"/><path d="m267.667 127.181-.056-.003c-.257-.031-.442-.269-.411-.533 1.857-15.972 6.817-32.592 14.742-49.3974.113-.239.396-.3407.626-.2236.234.1142.332.4012.219.6402-7.88 16.7103-12.81 33.2278-14.655 49.0948-.029.243-.231.422-.465.422z"/><path d="m270.135 127.181-.055-.003c-.258-.031-.442-.27-.411-.532 1.851-16.035 6.811-32.6559 14.742-49.4002.114-.238.393-.3378.626-.2226.234.1152.332.4021.219.6411-7.886 16.6483-12.817 33.1647-14.656 49.0937-.027.244-.23.423-.465.423z"/><path d="m273.428 127.181-.056-.003c-.256-.031-.441-.269-.411-.532 1.843-16.097 6.803-32.7179 14.743-49.402.113-.239.398-.334.627-.2217.233.1161.331.4031.217.6421-7.893 16.5862-12.823 33.1036-14.654 49.0936-.028.244-.231.423-.466.423z"/><path d="m276.72 127.181-.055-.003c-.257-.031-.441-.269-.412-.532 1.835-16.156 6.796-32.7771 14.743-49.4015.114-.239.396-.336.628-.2208.233.1162.33.4031.215.6412-7.9 16.5274-12.831 33.0441-14.653 49.0921-.028.245-.231.424-.466.424z"/><path d="m279.19 127.181-.056-.003c-.257-.03-.442-.268-.412-.532 1.829-16.215 6.789-32.8369 14.743-49.4015.115-.2389.397-.3368.63-.2198.232.1171.327.4041.214.6421-7.908 16.4667-12.839 32.9832-14.653 49.0902-.029.244-.231.424-.466.424z"/><path d="m282.482 127.181-.054-.003c-.258-.03-.443-.268-.414-.531 1.821-16.277 6.781-32.8991 14.745-49.4046.114-.238.398-.334.628-.2179.233.1171.328.4051.213.6421-7.914 16.4066-12.844 32.9224-14.652 49.0894-.028.245-.231.425-.466.425z"/><path d="m284.951 127.181-.054-.003c-.258-.03-.443-.267-.414-.531 1.813-16.334 6.773-32.9563 14.744-49.4049.116-.2381.399-.334.629-.2169.233.117.328.4059.213.643-7.924 16.3488-12.853 32.8638-14.652 49.0878-.028.245-.23.425-.466.425z"/><path d="m288.227 127.181-.051-.002c-.249-.03-.428-.263-.401-.523.767-7.078 2.127-14.261 4.044-21.353.068-.251.316-.397.561-.327.241.071.381.332.314.583-1.905 7.042-3.255 14.176-4.016 21.204-.027.24-.223.418-.451.418z"/></g><path d="m314.991 73.0184c-3.936 2.2768-9.601 13.8759-14.358 30.1586-9.115 31.205-8.523 28.271-3.445 31.521 4.863 3.114 3.126.531 3.126.531l16.265-62.3689z" fill="#dadad5"/><path d="m146.208 145.288s4.84-5.033 7.013-9.221c.268-.517.826-.807 1.405-.739 4.836.572 26.725 2.884 51.746 1.117 15.301-1.082 66.541-8.492 89.439-3.351 2.841.639 4.325 3.808 2.986 6.383-1.321 2.541-3.233 5.242-5.578 5.811z" fill="#fffffe"/><path d="m240.211 134.708c-.143 3.823-1.405 8.957-1.821 10.58h54.832c2.343-.568 4.254-3.264 5.575-5.803 1.348-2.592-.166-5.758-3.027-6.398-12.845-2.874-34.574-1.812-53.889-.125-.921.08-1.636.826-1.67 1.746z" fill="#dadad5"/><path d="m293.351 147.757h-153.054c-1.281 0-2.319-.921-2.319-2.057s1.038-2.058 2.319-2.058h153.054c1.28 0 2.319.922 2.319 2.058s-1.039 2.057-2.319 2.057z" fill="#102b44"/><path d="m237.835 147.757c-1.058 0-1.915-.856-1.915-1.913s.857-1.914 1.915-1.914h55.153c4.201-2.512 6.797-7.801 6.807-13.937 0-.174.024-.348.071-.515l16.248-57.6925c.287-1.0171 1.343-1.6074 2.361-1.3233 1.018.2861 1.61 1.3424 1.324 2.3604l-16.178 57.4444c-.092 7.62-3.607 14.216-9.214 17.259-.28.152-.594.231-.913.231z" fill="#102b44"/><path d="m182.636 88.5295c.558 4.3895.708 8.6722.551 13.0895-.097 2.201-.296 4.421-.698 6.674-.211 1.129-.468 2.266-.825 3.423-.357 1.173-.837 2.315-1.371 3.369-1.074 2.117-2.374 4.031-3.85 5.787-1.468 1.76-3.116 3.36-4.933 4.767-1.816 1.404-3.796 2.646-5.98 3.539-2.182.867-4.589 1.439-7.039 1.264-.939-.068-1.647-.882-1.578-1.819.06-.843.728-1.498 1.545-1.571l.042-.004c1.811-.165 3.594-.763 5.249-1.681 1.662-.905 3.234-2.051 4.655-3.383 2.82-2.666 5.257-5.898 6.798-9.312.381-.856.678-1.691.903-2.553.229-.876.403-1.814.54-2.774.265-1.928.411-3.933.477-5.962.084-2.027.085-4.0793.025-6.1363-.022-2.0455-.124-4.1483-.22-6.1405l-.003-.0791c-.077-1.5785 1.144-2.9187 2.727-2.9949 1.504-.0725 2.795 1.0342 2.985 2.4973z" fill="#e59779"/><path d="m181.59 81.9407c1.917-.4815 3.129 5.5554 3.937 8.7787.571 2.2783.878 7.2832 1.009 10.0236.048 1.002-.809 1.82-1.829 1.742l-8.056-.615c-.854-.065-1.521-.741-1.566-1.581-.23-4.2946-.282-16.6375 6.505-18.3483z" fill="#318fb8"/><path d="m163.492 179.637c1.187 2.356 3.18 7.626 3.18 7.626l3.405-.806s-1.606-6.387-2.25-8.247z" fill="#f3b89e"/><path d="m176.661 182.928c.958 2.356 2.473 7.628 2.473 7.628l3.288-.807s-1.07-6.388-1.547-8.247z" fill="#f3b89e"/><path d="m206.064 86.5626c-.947-4.6285-4.991-7.9412-9.658-7.9412l-.187.0019-8.738.1648c-.438.0087-.869.1179-1.258.322l-4.873 2.5433v.0009c-3.489 1.8217-5.333 5.811-4.484 9.7015 4.212 19.3202 3.665 35.1492 3.659 35.3072-.032.838.301 1.649.91 2.219.53.495 1.225.768 1.941.768.106 0 .213-.007.321-.018l22.194-2.535c1.368-.156 2.43-1.273 2.526-2.656 1.184-17.181-.966-31.1063-2.353-37.8784z" fill="#42b8eb"/><path d="m183.086 128.829-2.521-.002c-1.675.015-3.345.062-5.017.144-3.347.169-6.698.448-10.075.925-3.374.47-6.772 1.112-10.206 2.079-3.427.964-6.911 2.25-10.371 4.255l-.65.362c-.313.18-.614.39-.899.633-2.472 2.103-2.781 5.823-.689 8.31.162.193.431.573.656.889l.706 1.019c.469.698.941 1.401 1.401 2.125.93 1.434 1.83 2.913 2.723 4.403 1.774 2.987 3.468 6.056 5.108 9.165 1.634 3.115 3.201 6.279 4.711 9.479 1.514 3.2 2.95 6.444 4.36 9.71l5.886-1.975c-.878-3.523-1.791-7.047-2.793-10.554-1-3.506-2.067-7.003-3.22-10.486-1.161-3.481-2.391-6.95-3.74-10.405-.469-1.186-.95-2.372-1.447-3.557.598-.197 1.205-.384 1.825-.557 2.683-.757 5.54-1.309 8.454-1.713 2.914-.411 5.898-.662 8.895-.813 1.499-.074 3.002-.116 4.502-.13l2.242.002.023.001c1.178.015 2.158-.907 2.216-2.09l.549-11.15c-.981-.042-1.762-.056-2.629-.069z" fill="#0b2034"/><path d="m209.808 124.063c-.061-.777-.437-1.493-1.039-1.988-.602-.494-1.376-.725-2.153-.637l-23.89 2.701c-1.49.169-2.601 1.451-2.551 2.948l.099 3.012c-2.156.496-4.315 1.032-6.484 1.664-3.382.992-6.776 2.113-10.24 3.667l-.541.23c-.213.092-.424.198-.63.318-2.878 1.665-3.856 5.345-2.188 8.216.151.26.367.689.553 1.059l.578 1.172 1.135 2.415c.751 1.626 1.473 3.284 2.187 4.948 1.421 3.335 2.765 6.728 4.063 10.148 1.298 3.421 2.527 6.879 3.721 10.355 1.191 3.478 2.321 6.984 3.426 10.503l6.229-1.398c-.545-3.703-1.119-7.409-1.761-11.108-.645-3.699-1.331-7.398-2.098-11.093s-1.59-7.388-2.51-11.081c-.381-1.513-.776-3.026-1.191-4.542.983-.324 1.978-.637 2.987-.933 2.949-.863 6.026-1.564 9.113-2.223 3.095-.656 6.243-1.2 9.397-1.7.925-.144 1.861-.283 2.797-.417l3.718-.197c.961-.05 1.881-.27 2.743-.625l.17-.019-.005-.052c1.099-.481 2.091-1.193 2.907-2.124 1.49-1.7 2.21-3.875 2.029-6.126z" fill="#122f4a"/><path d="m180.026 122.815c-.012 1.044-.039 2.983-.072 4.123-.005.14.109.249.25.243 2.446-.126 21.602-1.146 29.188-2.687.112-.023.187-.113.189-.227.007-.525.009-2.094-.178-4.112-.069-.753-.751-1.295-1.496-1.192-4.161.578-17.157 2.327-27.167 3.085-.402.03-.708.362-.714.767z" fill="#318fb8"/><path d="m187.573 86.0288c-.936 0-1.874-.3328-2.622-1.01-5.222-4.7268-5.769-12.1624-5.815-12.9944-.116-2.1464 1.534-3.9805 3.686-4.0972 2.151-.111 3.981 1.5198 4.107 3.6594.09 1.3933.853 5.4819 3.267 7.6692 1.596 1.4439 1.715 3.9056.268 5.4974-.77.8465-1.829 1.2756-2.891 1.2756z" fill="#f3b89e"/><path d="m186.031 76.1523s-9.362 2.2994-3.094 7.1524c5.367 4.1559 7-4.8864 3.094-7.1524z" fill="#cf835f"/><path d="m185.372 67.9357c.028.6751.09 1.4965.149 2.2457l.214 2.2746c.081.7424.166 1.4839.267 2.1754.098.6895.21 1.3549.311 1.8864l.099.5152c.714 3.722-1.689 7.3235-5.366 8.0458-3.239.6365-6.387-1.1768-7.578-4.1611-.416-1.0381-.734-1.9683-1.034-2.8841-.296-.9129-.553-1.7883-.803-2.6656-.248-.8743-.477-1.7362-.697-2.601-.221-.8792-.425-1.69-.634-2.6511l-.042-.1916c-.91-4.1745 1.697-8.3057 5.823-9.2263 4.126-.9216 8.208 1.717 9.118 5.8925.095.4362.152.9138.173 1.3452z" fill="#f3b89e"/><path d="m178.323 74.2055c.061.2187.288.3466.507.2854.218-.0613.346-.2881.285-.5075-.061-.2187-.289-.3466-.507-.2847-.219.0606-.347.2881-.285.5068z" fill="#212744"/><path d="m172.561 75.8514c.061.2186.288.3464.508.2858.219-.0618.346-.2885.285-.5072-.061-.2193-.289-.3471-.508-.2852-.219.0612-.346.2879-.285.5066z" fill="#212744"/><path d="m176.865 72.037-.204-.2883c.096-.0431 2.386-1.0709 4.115-.158l-.228.2769c-1.524-.8046-3.66.1597-3.683.1694z" fill="#212744"/><path d="m180.174 79.4444-.221-.2752c1.33-.8275 2.12-2.1798 2.128-2.1939l.342.1534c-.034.058-.843 1.441-2.249 2.3157z" fill="#212744"/><path d="m170.43 73.6831-.353-.0946c.004-.017.505-1.7497 2.469-1.5327l-.041.3618c-1.667-.1858-2.057 1.2057-2.075 1.2655z" fill="#212744"/><path d="m177.484 78.6214h-1.881l.048-.2305c.316-1.5084.102-3.0397-.636-4.5519l.399-.1559c.736 1.5084.973 3.0378.708 4.549h1.362z" fill="#cf835f"/><path d="m188.156 67.4214c-.059-3.335-.132-4.8297-1.861-4.8845l1.339-.7773s-.656-.2975-1.388.1341c.571-1.1961-.106-2.0732-.106-2.0732l-.645 2.2553c-1.09-2.4726-4.38-4.5575-9.484-2.1231-4.653 2.22-7.705 2.1495-7.705 2.1495s.576.7332 1.726 1.3019c-1.951.1762-3.82.0372-3.82.0372.48.8859 1.376 1.5319 2.445 1.9186-1.498.14-2.695.1233-2.695.1233.68 1.1394 2.028 1.8344 3.541 2.085-1.138.5726-1.954.9123-1.954.9123 2.315 2.1163 8.312.4473 11.634-2.6302 1.894 3.7284 5.202 7.961 6.669 7.8299 2.375-.2134 2.4-.9329 2.304-6.2588z" fill="#102b44"/><path d="m183.246 73.0594c.733-2.3238 1.934-3.6318 3.312-1.8145 2 2.6374-.19 6.9212-1.646 5.4193-1.456-1.502-1.666-3.6048-1.666-3.6048z" fill="#f3b89e"/><path d="m180.131 183.148c-3.75-19.913-8.197-34.337-9.935-39.614-.398-1.207.23-2.53 1.428-3.011 13.568-5.451 32.801-7.56 32.994-7.581l.027.235c-.194.021-19.394 2.125-32.931 7.565-1.081.436-1.648 1.629-1.289 2.719 1.74 5.282 6.19 19.716 9.942 39.645z" fill="#4e536c" opacity=".2"/><path d="m209.475 97.2063c-1.007-4.4661-2.42-8.6246-4.315-12.784-.623-1.3578-2.213-2.0343-3.646-1.5059-1.497.5523-2.259 2.2025-1.7 3.6864l.037.1004c.701 1.8642 1.434 3.8765 2.03 5.8468.631 1.9761 1.198 3.9645 1.631 5.9492.417 1.9828.768 3.9608.857 5.8528.103 1.873-.071 3.709-.642 4.892-.088.213-.412.76-.665 1.183l-.81 1.32c-.548.87-1.12 1.719-1.713 2.542-1.171 1.662-2.471 3.196-3.866 4.59-2.763 2.74-6.136 4.705-9.98 5.293-1.278-.231-2.903-.405-4.773-.997-.306-.097-.65-.096-.999-.033-1.879.339-3.863 4.1-3.357 5.924.315 1.131 1.899.317 3.657.063 3.809-.552 8.427-.568 8.488-1.48.009-.123.004-.226.006-.339 1.4-.219 2.784-.584 4.106-1.098 2.25-.912 4.301-2.212 6.135-3.696 1.846-1.481 3.438-3.19 4.909-4.949.726-.889 1.413-1.799 2.07-2.72l.966-1.39c.324-.49.595-.846.997-1.597.706-1.338 1.059-2.689 1.269-3.975.2-1.289.271-2.539.226-3.743-.074-2.417-.415-4.7102-.918-6.9357z" fill="#f3b89e"/><path d="m199.143 78.6266c-1.906-.2192-.753 6.5568-.569 9.9617.184 3.4069 1.233 9.7862 1.233 9.7862l9.574-1.6074c.668-.1116 1.122-.7635 1.007-1.4571-.646-3.9288-3.251-15.7638-11.245-16.6834z" fill="#42b8eb"/><path d="m175.015 183.239.687 2.378 7.544-1.188-.448-2.927z" fill="#102b44"/><path d="m161.023 180.488.779 2.66 7.452-1.649-.563-3.289z" fill="#102b44"/><path d="m189.309 128.004-.034-.001c-.277-.02-.488-.266-.469-.552.077-1.177-.116-2.002-.589-2.522-.513-.565-1.41-.828-2.822-.828-.279 0-.503-.231-.503-.517s.224-.518.503-.518c1.71 0 2.84.367 3.558 1.155.674.742.954 1.821.859 3.3-.018.273-.24.483-.503.483z" fill="#212744"/><path d="m189.829 123.498c.034.513-1.037 1.041-2.393 1.18-1.355.139-2.483-.163-2.516-.677l-.028-.433 4.909-.502z" fill="#f8f7f6"/><path d="m189.829 123.674c.034.438-1.043.89-2.407 1.009-1.362.119-2.496-.14-2.53-.579-.033-.439 1.044-.891 2.407-1.009 1.363-.119 2.496.14 2.53.579z" fill="#212744"/><path d="m189.006 123.336c.022.213-.883.45-2.019.528-1.135.078-2.074-.032-2.095-.245-.02-.213.883-.45 2.019-.528 1.137-.078 2.074.031 2.095.245z" fill="#f8f7f6"/><path d="m137.155 134.839c.13.888.966 1.508 1.859 1.378l55.175-8.01c.892-.128 1.515-.961 1.385-1.849z" fill="#4fb270"/><path d="m176.661 129.12c.257.898 1.137 1.468 2.061 1.334l15.487-2.263c.879-.127 1.494-.953 1.365-1.833z" fill="#16a85d"/><path d="m176.148 129.215-36.763 5.342c-1.591.232-3.278-.847-3.749-2.397l-7.41-24.351c-.472-1.549.443-3.006 2.034-3.238l36.763-5.3424c1.592-.2306 3.279.8474 3.75 2.3964l7.411 24.353c.47 1.549-.445 3.006-2.036 3.237z" fill="#4fb270"/><path d="m138.562 134.557c-1.592.232-3.278-.848-3.749-2.396l-7.411-24.352c-.471-1.55.445-3.006 2.035-3.238l36.764-5.3422c1.591-.2315 3.278.8482 3.749 2.3972l7.411 24.351c.47 1.549-.445 3.006-2.036 3.238z" fill="#70bc81"/><path d="m138.246 133.51.016.116-.016-.116 36.819-5.338c.482-.07.881-.318 1.123-.696.246-.385.302-.86.156-1.337l-7.422-24.328c-.303-.994-1.379-1.683-2.405-1.534l-36.818 5.337c-.483.071-.882.318-1.124.696-.247.386-.302.861-.156 1.337l7.421 24.328c.304.994 1.379 1.682 2.406 1.535zm-.278.255c-1.034 0-2.05-.721-2.355-1.722l-7.422-24.328c-.165-.543-.1-1.087.183-1.531.28-.438.738-.723 1.29-.803l36.819-5.338c1.131-.1666 2.331.598 2.667 1.7l7.421 24.328c.166.543.102 1.088-.183 1.531-.279.438-.737.723-1.29.803l-36.819 5.338c-.103.015-.207.022-.311.022z" fill="#fffffe" opacity=".1"/></g></g></svg>