<svg fill="none" height="25" viewBox="0 0 25 25" width="25" xmlns="http://www.w3.org/2000/svg"><path clip-rule="evenodd" d="m8.75 8v-2.25c0-.41421.33579-.75.75-.75s.75.33579.75.75v2.25c0 1.24264-1.00736 2.25-2.25 2.25h-2.25c-.41421 0-.75-.33579-.75-.75s.33579-.75.75-.75h2.25c.41421 0 .75-.33579.75-.75zm8.25.75h2.25c.4142 0 .75.33579.75.75s-.3358.75-.75.75h-2.25c-1.2426 0-2.25-1.00736-2.25-2.25v-2.25c0-.41421.3358-.75.75-.75s.75.33579.75.75v2.25c0 .41421.3358.75.75.75zm-.75 10.5v-2.25c0-.4142.3358-.75.75-.75h2.25c.4142 0 .75-.3358.75-.75s-.3358-.75-.75-.75h-2.25c-1.2426 0-2.25 1.0074-2.25 2.25v2.25c0 .4142.3358.75.75.75s.75-.3358.75-.75zm-8.25-3h-2.25c-.41421 0-.75-.3358-.75-.75s.33579-.75.75-.75h2.25c1.24264 0 2.25 1.0074 2.25 2.25v2.25c0 .4142-.33579.75-.75.75s-.75-.3358-.75-.75v-2.25c0-.4142-.33579-.75-.75-.75z" fill="#fff" fill-rule="evenodd"/></svg>