<svg width="22" height="22" viewBox="0 0 22 22" fill="none" xmlns="http://www.w3.org/2000/svg">
<path d="M11 4.16675C11.8398 4.16675 12.6453 4.50038 13.2391 5.09424C13.833 5.68811 14.1666 6.49356 14.1666 7.33341C14.1666 8.17327 13.833 8.97872 13.2391 9.57259C12.6453 10.1665 11.8398 10.5001 11 10.5001C10.1601 10.5001 9.35465 10.1665 8.76079 9.57259C8.16692 8.97872 7.83329 8.17327 7.83329 7.33341C7.83329 6.49356 8.16692 5.68811 8.76079 5.09424C9.35465 4.50038 10.1601 4.16675 11 4.16675ZM11 13.3334C12.9651 13.3334 14.7186 13.7324 15.9624 14.3543C17.2359 14.991 17.8333 15.7785 17.8333 16.5001V17.8334H4.16663V16.5001C4.16663 15.7785 4.76398 14.991 6.03752 14.3543C7.28129 13.7324 9.03485 13.3334 11 13.3334Z" stroke="#102B42"/>
</svg>
