<svg height="178" viewBox="0 0 250 178" width="250" xmlns="http://www.w3.org/2000/svg"><g fill="none" fill-rule="evenodd"><path d="m208.335602 161.702006c-.061247-.147744-.138611-.28904-.233166-.420666-.449141-.628582-1.224929-.965437-1.993733-.965437-.537249 0-1.070737.164398-1.487643.5077 1.780444-2.411175 4.53331-13.0976-3.926755-17.807665-3.589362-1.99803-6.887536-2.763073-9.745702-2.763073-5.585243 0-9.493195 2.920487-10.630014 5.270953-.608704-2.434814-2.742658-4.456483-4.872314-5.678188v-101.8619266c0-2.8904011-2.342944-5.2333452-5.233345-5.2333452h-13.632164c-.690902-.8574499-1.750358-1.4054442-2.938216-1.4054442h-22.363001c0-1.6568768 0-4.8046203 0-5.8296919 0-2.9623926-2.401505-5.3633596-5.363897-5.3633596-2.889327 0-5.245702 2.2849212-5.359062 5.1468481v.0032235c0 .0037607-.000537.0075215-.000537.0112822v.004298c-.000537.0037608-.000537.0075215-.000537.010745v.004298c-.000537.0075215-.000537.015043-.001075.0225645v.0026862.008596c0 .0026863 0 .0048353-.000537.0075215v.0080587.0075215c0 .0026863 0 .0053725-.000537.0080588v.008596.0069842c0 .0037607 0 .0075215-.000537.010745v.006447.0145057.0053725.0102077c0 .002149-.000538.004298-.000538.006447v.0102078.0059097.010745.0053725.0161175 5.8296919h-24.4007877c-1.1851719 0-2.2446275.5479943-2.9366046 1.4054442h-13.6316261c-2.8904011 0-5.2333452 2.3429441-5.2333452 5.2333452v60.247672l-10.0632164 10.8390046c-2.816798-6.217586-4.8991762-12.7650433-6.1284025-19.4881809l-.7365688.1348496c1.2614613 6.8896848 3.4061604 13.5897203 6.3137536 19.9475283l-1.0282952 1.107271c-1.252328-.624821-2.8173352-1.115867-4.8035458-1.115867-.9847779 0-2.0727077.120344-3.2782951.405624-2.7501791.647922-3.6559814 1.377507-3.6339542 3.412607.0075215.676397.1171204 1.497851.2960244 2.505731.3121418 1.760028.9219197 3.763431 1.5118195 5.463825l-2.3021132 2.479943c-.0521132-.052651-.0811247-.0822-.0811247-.0822l-.7897564-.311604-.8692694.941261c.1515043.264326.3175144.52919.4953439.793517l-1.7675502 1.903474c-.1133596.045129-.2165114.109062-.2997851.197171-.0870343.092406-.1450573.201468-.1805157.320737l-4.909384 5.288145c-6.0080587-2.21884-12.2541189-3.797278-18.5925859-4.668159 5.6357449-4.490867 9.7118553-8.814649 7.7643266-14.119448-4.0675143-11.077006 3.415831-20.8377511 13.6348496-29.0200577 10.2405086-8.1989613 21.4238897-6.549606 16.683202-28.7594914-5.3219914-24.935351 12.941798-24.0601719 23.3080229-33.7113181 15.1498927-14.10494267 22.8159027-22.11425499 39.4330227-22.52901144.365867-.00913324.733883-.01396848 1.111569-.01396848 23.397206 0 68.386999 17.50949142 74.210244 39.44215612 2.694305 10.1470273 2.515938 22.0492479 12.392192 28.3044413 4.334527 2.7453438 9.189649 3.9315903 14.060351 5.6577722 9.911174 3.5125358 14.030802 11.1710244 13.916905 18.6898281-.278295 18.3846704-12.921383 18.9353514-8.944126 33.2030804 2.777579 9.963825 11.958632 15.067693 8.406339 24.87894-3.120343 8.618553-17.561604 10.958273-31.143803 11.37303m-2.032414-79.5719917-6.805337 37.6821277 4.847063.875179 6.542622-36.2267193.002686.0005373.262178-1.4516476-.002687-.0005372.000538-.0032235.723675-4.0068052c.006446-.0370702.00967-.0741404.010208-.1112106.000536-.2981734-.212751-.5635745-.516835-.6183739l-3.610852-.6522207c-.037607-.0069842-.075215-.0102077-.112285-.0102077-.298173 0-.5625.213288-.6173.5168338zm-176.9054444 78.7650427c-11.8715975 0-29.31608171-.907414-25.99534389-11.648101 2.66797995-8.628224 12.03545849-14.637894 19.28187679-20.295667 6.4281877.827902 12.7623567 2.389685 18.8585244 4.617658l-5.2553725 5.660458-.7290473.789757-.0585602-.054262-2.4122493 2.594914-2.409563 2.597063 8.4616762 7.859957 4.4113539-4.632701.4244269-.456662 7.1104943-7.659025c.3142908-.14076.6323424-.280445.9600645-.425502-.4255015 3.494807-1.3780445 11.411175-1.6273281 13.323245-.9084886.254656-1.6756805.797815-1.9948066 1.679979-.5485315 1.516117.3981017 3.552829-.7924427 4.640222-.5103868.465258-1.2485673.561425-1.9357092.62697-2.3005014.218123-4.6353868.466332-6.9364255.739255-4.5139685.025788-7.7573424.042442-9.3615687.042442m29.3649713-5.932844c-.215437 0-.4292622-.016117-.6366404-.048352-1.2609241-.198245-2.4170845-.777937-3.6054799-1.256626.7564469-2.250537 2.8737464-7.161533 4.5875716-11.385387 1.1260745.721526 2.2354943 1.468302 3.3271848 2.239792-1.3098138.994986-2.1215974 2.708274-1.5875716 4.290473.4222779 1.251791 1.4817335 2.34187 1.3936246 3.659742-.1058381 1.585423-1.849212 2.500358-3.4786891 2.500358m11.0898997-9.434634c-1.3372135 0-2.6529369-1.23836-4.0368911-1.702543-.3347063-.112285-.6753224-.164398-1.0132522-.164398-.5807664 0-1.1545487.153653-1.681053.420128-1.2217048-.869806-2.4638252-1.707378-3.7279727-2.514863.127328-.317515.2519699-.629657.372851-.934814l3.9375.923531c.2471346-5.828617-.4743912-9.940186-.5533668-10.368374l.0010745-.151504c.004298-.082199.0053725-.168696.0032235-.258417l-.0010745-.029011c-.0032235-.126254-.006447-.247135-.0096705-.36533-.0268625-1.40813.04298-2.414398.1601003-3.275609l3.3067693-3.5625c1.5118195-.124104 2.997851-.43947 4.4049069-.944484 1.0621418 1.567694 2.1753224 3.103152 3.3341691 4.601003v10.29692c-.8837751.857987-1.5338467 1.904548-1.8116046 3.142908-.390043 1.739613-.2535817 4.047636-1.9002507 4.731017-.2632522.109062-.5248926.15634-.7854585.15634m4.4973138-19.559635c-1.2775788-1.688574-2.4944485-3.421741-3.6489972-5.195738.2868911-.886461.5200573-1.679978.7526863-2.445021l2.8963109-3.119807zm-3.6382522-3.819842c-.8010387-.221884-1.5343839-.410996-2.2467765-.601719l1.0895416-1.173353c.3782235.59581.7650429 1.188396 1.1572349 1.775072m-.5162965-2.162429c-.0381447-.060172-.0762894-.119806-.1144341-.179978l.0472779-.051039c.0220272.077364.0440544.154191.0671562.231017m55.7202723-91.3925498c-1.661712 0-3.008596-1.3468839-3.008596-3.0091332 0-1.5247135 1.133596-2.7840258 2.60351-2.9822708-.015043.006447-.030623.0123567-.046741.0188037.148818-.0225644.297099-.0456662.451827-.0456662.204692 0 .404549.0204155.597421.0590975 1.375895.2772206 2.412249 1.4924785 2.412249 2.9500358 0 .9154728-.516833 1.8228868-1.161533 2.3746418h.001075c-.510387.3975645-1.151863.6344914-1.849212.6344914" fill="#edf7fa"/><path d="m243.915473 120.858703c-8.54495 19.888969-25.019699 36.133776-44.764148 44.936605l.305158.683381c19.913145-8.880731 36.520057-25.251253 45.146669-45.324498z" fill="#c4e6f0"/><path d="m241.739076 126.321991c2.998388-2.495523 5.050143-6.10154 5.664756-9.953617.15043-.944484.181053-2.020057-.453438-2.735136-.174606-.196633-.405086-.358883-.666726-.385208-.421204-.04298-.791906.267013-1.073424.583453-1.490867 1.67568-2.008776 3.993911-2.264506 6.222958-.256268 2.22851-.74409 3.863897-1.206662 6.26755" fill="#c4e6f0"/><path d="m237.662428 133.12894c1.762715-3.479764 2.216154-7.603689 1.252328-11.383775-.236389-.926755-.634491-1.926039-1.501074-2.330588-.238001-.111747-.514148-.169233-.764506-.08972-.403474.127865-.62106.559276-.753761.961139-.704333 2.130193-.260028 4.463467.388432 6.610852.648997 2.147923.849928 3.84187 1.378581 6.232092" fill="#c4e6f0"/><path d="m231.662966 141.502507c2.174785-3.238539 3.129477-7.275967 2.63467-11.145773-.120881-.948245-.394341-1.988897-1.204513-2.496598-.222421-.139147-.489971-.23048-.747851-.182127-.416368.077363-.684993.479226-.866046.861747-.95899 2.028116-.803725 4.397923-.422278 6.608704s.373926 3.917084.606018 6.354047" fill="#c4e6f0"/><path d="m224.768446 148.839721c2.174785-3.238539 3.129477-7.275967 2.63467-11.145774-.120881-.948245-.394341-1.988897-1.204513-2.496597-.222958-.139685-.489971-.23048-.748388-.182665-.415831.077901-.684456.479763-.865509.862285-.959527 2.027579-.803725 4.397923-.422278 6.608703.381447 2.210781.373389 3.917085.606018 6.354048" fill="#c4e6f0"/><path d="m214.44144 157.307307c2.498209-2.995702 3.866046-6.912787 3.774713-10.812679-.022027-.955767-.185888-2.019521-.939649-2.608346-.206841-.161712-.463109-.279907-.725286-.258954-.421741.034384-.730122.405623-.949857.767729-1.164219 1.917443-1.255014 4.29101-1.104584 6.529191.149892 2.238718-.034384 3.934814-.055337 6.383059" fill="#c4e6f0"/><path d="m206.350466 162.715795c2.457915-2.666905 4.044949-6.387357 4.381268-10.268983.082199-.951468.054799-2.027041-.528117-2.703438-.1601-.185888-.366941-.334706-.59366-.345989-.364792-.017729-.668338.313217-.895057.645774-1.200752 1.760566-1.530623 4.105122-1.639148 6.344914-.109061 2.24033-.446991 3.900967-.725286 6.327722" fill="#c4e6f0"/><path d="m235.619807 136.126791c3.956841.65222 8.225286-.166547 11.782951-2.260745.871955-.513073 1.775609-1.206662 1.960423-2.173711.050501-.265938.037607-.552292-.106913-.772027-.232629-.35351-.7226-.43356-1.161533-.440007-2.325215-.034384-4.560172 1.111031-6.554979 2.399355-1.995343 1.288324-3.649534 2.001791-5.919949 3.247135" fill="#c4e6f0"/><path d="m230.772206 142.462572c3.686605 1.577901 8.027042 1.801934 11.981734.617836.969198-.290652 2.012536-.747851 2.422457-1.642908.112822-.24606.168696-.527579.081124-.775251-.141296-.399176-.598495-.59366-1.022922-.704871-2.25-.588288-4.693947-.009133-6.938575.76558-2.245164.774177-4.021848 1.07235-6.523818 1.739614" fill="#c4e6f0"/><path d="m223.530623 149.851898c3.296562 2.283847 7.504835 3.37124 11.616404 3.002149 1.007343-.090258 2.12106-.330408 2.701827-1.125.1601-.21866.270774-.482987.234778-.743015-.059098-.419592-.467944-.701648-.861748-.895058-2.086676-1.02722-4.596705-.948782-6.950931-.638789-2.354764.309993-4.155086.246597-6.74033.399713" fill="#c4e6f0"/><path d="m213.400788 158.385029c3.720451 1.495702 8.065186 1.622492 11.992478.350823.962214-.311604 1.995344-.792442 2.385387-1.696096.10745-.248746.156877-.531339.063396-.776862-.149893-.395953-.61139-.580229-1.037966-.681769-2.262894-.538324-4.692872.094556-6.919771.919233-2.227435.824141-3.997134 1.161533-6.483524 1.884671" fill="#c4e6f0"/><path d="m205.209885 163.275609c2.649177 3.010208 6.471168 5.079692 10.550502 5.712034.999821.154728 2.138252.190724 2.893624-.441081.207379-.173532.379298-.403475.406698-.664578.044055-.421203-.284742-.793517-.620523-1.07611-1.777758-1.499463-4.232987-2.028116-6.592586-2.294592-2.360136-.266475-4.092228-.761819-6.637715-1.235673" fill="#c4e6f0"/><path d="m195.712393 78.972063c-.105301-.0059097-.192336-.0891833-.199857-.1971704l-.075215-1.0685889c-.008596-.1165831.079513-.2181232.196633-.2261819.115509-.0112823.217586.0795129.226182.1966332l.075215 1.0685888c.008059.1165831-.079513.2181232-.196633.226182z" fill="#5895bf"/><g fill="#c4e6f0"><path d="m200.512715 127.5351-2.82432.198783-3.142371-45.5361753 1.411891-.0993911 1.412429-.0988538z"/><path d="m195.979405 78.3171562-.570558.0402937-.862823 3.8402578 2.82432-.1982449z"/><path d="m57.4217407 89.7170487c5.0479943 27.5716333 24.2546561 52.1341333 49.7954873 63.6817693l.308381-.682307c-25.3087394-11.436425-44.3714185-35.814649-49.3672995-63.1343119z"/><path d="m59.0614255 95.3936246c-2.3660458-3.1015401-3.5625-7.0744985-3.3024713-10.9663323.0639326-.9541548.2739971-2.0093124 1.0519341-2.5648281.2138252-.1531161.4749283-.2600287.7360315-.2272565.4195917.0521132.7118553.4367837.9154728.808023 1.0804083 1.9663323 1.0680515 4.3409742.8209169 6.5710959-.247672 2.2295846-.1369986 3.9326648-.221884 6.379298"/><path d="m61.5182665 102.938216c-.9423353-3.7854581-.4652579-7.9072346 1.3173352-11.3767905.4367837-.8504656 1.0481734-1.7358524 1.9824499-1.9373209.2568051-.0553367.5393983-.0505014.7655802.0832736.3653295.2143625.4803009.6833811.5205946 1.1051218.2116762 2.2333453-.7414041 4.4086676-1.8529728 6.3572708-1.1110315 1.9491404-1.6848138 3.5560532-2.7329871 5.7684452"/><path d="m65.4992837 112.438395c-1.3979227-3.642012-1.4285459-7.790651-.0832737-11.452543.3293338-.897743.8279012-1.8513606 1.7310172-2.1651142.2482092-.0864971.5286533-.1155086.7698782-.0112822.3884313.1686963.560351.6199857.6516834 1.0331304.4829871 2.190903-.1971705 4.466691-1.0616046 6.536712-.8649713 2.070021-1.2378223 3.735494-2.0077005 6.059097"/><path d="m70.5843481 121.127865c-1.3979226-3.641475-1.4280086-7.790652-.0832736-11.452543.3298711-.897206.8279011-1.850823 1.7310172-2.165114.2482092-.086497.5291905-.115509.7698782-.010745.3884312.168159.560351.619448.6516834 1.03313.4829871 2.190903-.1971705 4.466153-1.0616046 6.536712-.8649713 2.070022-1.2378223 3.734957-2.0077006 6.05856"/><path d="m78.7634312 131.684814c-1.7675501-3.477078-2.2274355-7.600466-1.2689828-11.382164.234778-.926755.6318052-1.926576 1.4973138-2.332736.2380014-.111748.5141475-.169771.765043-.090795.4034742.127328.6215974.558202.7548352.960064.7075573 2.129119.2670129 4.46293-.3787607 6.61139-.6457737 2.14846-.8440187 3.843481-1.3694485 6.234241"/><path d="m85.4446633 138.761461c-1.8008596-3.147743-2.5186246-7.128223-1.9808381-10.987285.1316261-.946096.398639-1.988359 1.1169413-2.518087.1977077-.145595.4324856-.244449.6559814-.204692.359957.06447.5818409.454513.72851.828975.7779369 1.984062.5770057 4.343124.1837392 6.551218-.3932664 2.207558-.4340974 3.902042-.7043338 6.329871"/><path d="m62.8409742 106.315365c-4.0030444-.24606-7.9813753-1.996418-10.9824498-4.830408-.7354943-.694663-1.4618553-1.5725286-1.4263969-2.5562321.0096705-.2702364.0864971-.5469197.2761461-.7290472.3056949-.2928009.8010387-.2611032 1.2303009-.1697708 2.2747135.4845988 4.1975287 2.1001071 5.8554799 3.8005011 1.6579513 1.700394 3.1112106 2.764685 5.0469198 4.484957"/><path d="m66.1536533 113.573066c-3.9455587.716153-8.2268983-.033847-11.8178725-2.069484-.8800143-.499105-1.7949499-1.177651-1.9953438-2.142013-.0547995-.264864-.0467407-.551755.0940186-.773639.2267192-.357271.715616-.444843 1.1545487-.458811 2.3241404-.071991 4.5773639 1.037428 6.5931232 2.29298 2.0157593 1.255551 3.6812321 1.942156 5.9715258 3.150967"/><path d="m71.5653653 122.390938c-3.7231375 1.490867-8.0673352 1.612823-11.9930157.336318-.9622135-.312679-1.9942694-.794591-2.3832379-1.699319-.1069126-.248209-.1563395-.530802-.0628581-.776863.1504298-.395415.6119269-.579154 1.0390401-.680157 2.262894-.535638 4.6923352.100466 6.9186963.927292 2.226361.827364 3.9955229 1.166906 6.4813753 1.892729"/><path d="m79.5376074 132.967765c-3.9606017.628044-8.224212-.216511-11.7684455-2.332199-.8692693-.518446-1.7686247-1.21687-1.9475287-2.184993-.0488896-.266476-.0343839-.552829.1112106-.77149.234778-.352435.7252866-.429262 1.1642192-.433023 2.3257522-.020415 4.5531877 1.138431 6.5404728 2.438575 1.9878224 1.30068 3.6371777 2.023818 5.9000716 3.28313"/><path d="m86.4321275 139.561426c-3.2541189 2.344018-7.4409026 3.508775-11.5589183 3.215974-1.0089542-.071992-2.1269699-.291189-2.7222422-1.075036-.163861-.215437-.2799068-.478152-.2482091-.738718.0510387-.420666.4545129-.709706.8445559-.910637 2.0678724-1.065366 4.5784383-1.033131 6.9385745-.767192 2.3595988.266475 4.1588467.16977 6.7462392.275609"/><path d="m8.31554441 128.346884c1.23352436-.056411 2.46704869-.084348 3.70057309-.084348 26.5137894-.002149 52.8287965 12.897743 68.9102793 34.007879l.5952723-.453438c-16.2345989-21.303546-42.75-34.30068-69.5055516-34.302829-1.2448066 0-2.4896132.028474-3.73441979.084885z"/><path d="m14.1812321 127.92192c-3.5533668-1.609599-7.69340975-1.882522-11.42782952-.754835-.91547278.276683-1.89648997.718302-2.26289398 1.601002-.10100287.242837-.14666906.521132-.05641118.768267.14559456.397564.58613897.595809.99337393.710781 2.15866762.610852 4.47045129.065544 6.58775071-.676397 2.11676214-.741941 3.80103864-1.016476 6.16601004-1.648818"/><path d="m22.0852436 128.620881c-3.9009671-.068231-7.8094556 1.322708-10.7906519 3.839183-.7301218.616763-1.45594557 1.411354-1.44197709 2.367121.00376075.262715.07199141.536712.25250719.727435.2917263.307307.7741762.314828 1.1937679.258954 2.224212-.295487 4.1298352-1.71275 5.7791905-3.233703s3.0864972-2.440723 5.0071634-3.95899"/><path d="m32.2365688 130.366404c-3.8628224-.544234-7.9120702.357808-11.1785459 2.491225-.8005014.522743-1.6176576 1.222779-1.7208094 2.173173-.0284742.261103.0059097.541548.1622493.752687.2514326.340616.7295845.406697 1.1529369.402937 2.243553-.02149 4.308202-1.19538 6.1310888-2.503045 1.8228869-1.307665 3.3615688-2.044771 5.4530803-3.316977"/><path d="m41.8463467 133.36909c-3.8622851-.544233-7.9120702.358346-11.1780086 2.491762-.8010387.522744-1.6181948 1.222243-1.7213467 2.173174-.0284742.261103.0059097.541547.1622493.752686.2514327.340616.7295845.406698 1.152937.402937 2.243553-.02149 4.308202-1.19538 6.1310888-2.503044 1.8228868-1.307665 3.3615687-2.044771 5.4530802-3.317515"/><path d="m53.9709885 138.968302c-3.7854584-.941798-7.9066977-.463109-11.3762535 1.320022-.8504657.436783-1.7358525 1.048173-1.9367837 1.982987-.0553367.256805-.0499642.539398.0832736.76558.2148997.364792.6833811.480301 1.1051218.520057 2.2333453.211139 4.4086676-.742478 6.3572708-1.854047 1.9486031-1.112106 3.5555157-1.685888 5.767371-2.734599"/><path d="m62.3676576 143.888968c-3.4722421-1.048173-7.5123567-.853151-11.1516834.537787-.892371.340616-1.8476003.834885-2.2027221 1.654191-.0972421.225107-.1407593.476002-.0521131.684992.1434455.336318.5737822.464721.9713467.523818 2.1081662.31268 4.3619269-.413682 6.4249642-1.292621 2.0630372-.879477 3.704871-1.299606 6.0102077-2.108167"/><path d="m25.6729943 129.151146c-1.1389685-3.845093-3.7381805-7.328617-7.1738897-9.616225-.8424069-.560888-1.8604943-1.071812-2.8114255-.816081-.2611032.070379-.5136103.206841-.6479227.433022-.2170487.363181-.0752149.839184.1106734 1.236748.9831662 2.107629 2.9887178 3.618911 5.0184456 4.851899 2.0297278 1.233524 3.3932664 2.410637 5.5041189 3.910637"/><path d="m33.4894341 130.748926c-.1885745-4.005731-1.8809097-8.009313-4.6713825-11.050681-.6839184-.745702-1.5510387-1.484957-2.5352794-1.463467-.2702364.00591-.5479943.078438-.732808.265401-.2976361.301397-.2729227.797278-.1875 1.227615.4518266 2.281697 2.038861 4.227614 3.7150788 5.909742 1.6762177 1.682665 2.7195559 3.150967 4.4118911 5.11139"/><path d="m43.297457 134.041189c.6167622-3.962213-.2406877-8.223137-2.3660458-11.761998-.5211318-.867121-1.2227794-1.764864-2.1914399-1.940545-.2659383-.048352-.5528295-.032772-.7709527.11336-.3518983.235852-.4271132.726361-.4292622 1.165293-.0139684 2.325753 1.1518625 4.549965 2.4579155 6.533489 1.3055158 1.983524 2.0340258 3.631268 3.2997851 5.890401"/><path d="m55.3946991 139.434097c-.2772206-4.000358-2.058202-7.965257-4.9158309-10.944305-.7005731-.730122-1.5832736-1.449498-2.5669771-1.405981-.2702364.011819-.5463825.090258-.7268983.281519-.2906518.307843-.2546561.803187-.1601002 1.231375.502328 2.270953 2.1323424 4.181411 3.8456303 5.825931 1.713288 1.64452 2.7888611 3.089721 4.5241762 5.011461"/><path d="m63.368553 144.671203c1.5531877-3.697349 1.7482092-8.039398.5372493-11.985494-.2965616-.967586-.7612822-2.007163-1.6590258-2.411712-.2465974-.11121-.528116-.164935-.7752507-.075752-.3981017.143983-.5898997.602256-.6978868 1.027758-.5737823 2.253761.0214899 4.69341.8112464 6.933202.7897564 2.239792 1.0997493 4.014327 1.7836676 6.511998"/><path d="m96.3841332 139.766655c-4.0374283-3.775788-9.7403295-5.70129-15.2396131-5.145774-3.7247493.376075-7.7863539 2.366583-8.6061963 6.019341-.390043 1.739613-.2535817 4.047636-1.9002507 4.731017-1.6117479.668876-3.1681591-.991225-4.8223496-1.546203-2.7544771-.923532-5.8968481 2.224749-4.9679441 4.977077.4222779 1.251791 1.4817335 2.34187 1.3936246 3.659742-.1198066 1.79495-2.3381089 2.730838-4.1153295 2.452006s-3.3459885-1.316798-5.0893625-1.760029c-1.7428366-.443768-4.0003581.001075-4.6128223 1.692336-.5485315 1.516117.3981017 3.552829-.7924427 4.640222-.5103868.465258-1.2485673.561425-1.9357092.62697-15.0940186 1.432843-31.7165114 4.14058-30.0273997 6.821991.4614971.732808 1.6418338.499642 2.5078797.486211 32.1264326-.502866 61.308202-.982092 93.4233522.003223z"/></g><path d="m186.717765 89.3033668 9.523818 37.3452722-1.811604.462034-11.783489-36.7688034" fill="#8fcae4"/><path d="m173.30265 72.1092407c-3.061246.7806232-4.707378 4.7310172-3.668338 8.8049785 1.03904 4.0744986 4.375896 6.754298 7.437142 5.9736748 3.061247-.7806232 4.706841-4.7310172 3.667801-8.8055158-1.03904-4.0744985-4.375358-6.7537607-7.436605-5.9731375zm4.602078 18.0462034c-4.863181 1.2405086-10.03904-2.5315186-11.537966-8.4079513-1.498388-5.8758954 1.239434-11.6658309 6.102615-12.9058023 4.86318-1.2405086 10.03904 2.5315187 11.537428 8.4074141 1.498926 5.8764326-1.238897 11.6663682-6.102077 12.9063395z" fill="#9fd7eb"/><path d="m182.911891 79.7768625c.157951.6194484 2.895774 11.3553008 2.895774 11.3553008.145594.571096-.19932 1.1523997-.770416 1.2979943-.571096.1455945-1.151862-.1993195-1.297994-.7704155l-.326648-1.282414s-1.520952-3.2433739-5.724928-1.9061605c0 0 5.014685-.6264326 5.184993-.6140759.169771.0123567-.118732-8.6996777.039219-8.0802292" fill="#c2e5f0"/><path d="m185.453617 94.0639327c-1.470988.375-2.9726-.5162966-3.3476-1.9872851 0 0-.173531-.8934456-.521132-1.3871777-.54477-.7731017-1.655265-1.0637536-3.687679-.5458453l-.514685-2.8705229c1.068589-.3416905 1.836856-.8569126 2.695917-.7967407.460423-.0564111.842945-.1020773 1.162608-.1396848-.003224-.8794771-.020416-2.0393983-.033847-2.9280086-.012894-.9444842 1.212572-2.0066261 1.209348-2.6851719-.004298-1.2168696-1.252865-2.4466332.25788-2.6491762l1.486031-.1971705 3.280982 12.8386461c.375 1.4709886-.516834 2.9731376-1.987823 3.3481376" fill="#9fd7eb"/><path d="m188.119986 88.9648997.027937 38.5406523 1.869627-.001612 2.303725-38.5422638" fill="#8fcae4"/><path d="m191.131265 76.6124642c.003226 4.2050501 2.57665 7.6241046 5.735676 7.6219566 3.159026-.0026873 5.727615-3.4255025 5.724394-7.6300154-.002689-4.2050501-2.576113-7.6241045-5.735676-7.6219566-3.159026.0021501-5.727615 3.4249652-5.724394 7.6300154zm-3.372314.0026862c-.004295-6.0644699 4.075576-11.0012536 9.094559-11.0050164 5.018446-.0037586 9.105838 4.9271153 9.11014 10.9915852.004294 6.0644699-4.075577 11.0012536-9.094022 11.0050159-5.018983.0032219-9.106376-4.9271148-9.110677-10.9915847z" fill="#9fd7eb"/><path d="m189.446454 78.7926218c.000537.6393266.008596 11.7184814.008596 11.7184814.000537.5898997.478689 1.066977 1.068052 1.066977.589362-.0010745 1.066977-.4786891 1.06644-1.0685888l-.001075-1.323245s.669413-3.5189828 5.073782-3.2654011c0 0-5.013073.6355659-5.175322.6898281-.161712.0542621-2.04101-8.4573783-2.040473-7.8180516" fill="#c2e5f0"/><path d="m190.524176 93.2639692c1.518267-.0010752 2.752328-1.2372858 2.751254-2.755015 0 0-.053188-.9090258.161175-1.4731376.33578-.8843123 1.339899-1.4409026 3.437321-1.4425143l-.212751-2.9086676c-1.120165-.0666189-1.991583-.375-2.809277-.1042264-.459885.0596347-.841869.1101361-1.161533.1531161-.214362-.8526147-.485136-1.9808382-.692514-2.844735-.221347-.9186963-1.67192-1.6439828-1.836855-2.3015759-.297636-1.180874.607091-2.6814112-.90634-2.5030444l-1.488718.176755.003224 13.2517908c.001074 1.5182665 1.237285 2.7523281 2.755014 2.7512543" fill="#9fd7eb"/><path d="m204.344914 120.687321-4.847063-.875179 7.529011-41.6883956c.061247-.3416905.388432-.5684097.729585-.5066261l3.610852.6522207c.341154.0617836.56841.3884312.506627.7295845z" fill="#8fcae4"/><path d="m211.150251 83.0057307-4.847063-.8757164.723674-4.0062679c.061247-.3416905.388432-.5684097.729585-.5066261l3.610852.6522207c.341154.0617836.56841.3884312.506627.7295845z" fill="#e57487"/><path d="m210.890222 84.461139-.002686-.0005373.262177-1.4516475.002687.0005372z" fill="#9fc5db"/><path d="m210.887536 84.4606017-4.844914-.8751791.262177-1.4511103 4.844914.8746419z" fill="#71b0d4"/><path d="m208.141117 130.246597-7.909921-3.117657 16.868016-42.7962036 7.909921 3.1176576z" fill="#c4e6f0"/><path d="m221.716332 88.1627865 2.607271 1.0277579.273997-.6962751-2.606733-1.0277578" fill="#cdeaf1"/><path d="m220.840079 90.3859241 2.607271 1.0272206.274534-.6962751-2.607271-1.0272206" fill="#cdeaf1"/><path d="m219.963825 92.6085244 2.607271 1.0277578.274534-.696275-2.60727-1.0277579" fill="#cdeaf1"/><path d="m217.812679 94.3287966 3.882163 1.5300859.274535-.6957378-3.882701-1.5306232" fill="#cdeaf1"/><path d="m218.211855 97.0542622 2.606734 1.0277579.274534-.6962751-2.607271-1.0272206" fill="#cdeaf1"/><path d="m217.335602 99.2773997 2.60727 1.0277583.273998-.6962755-2.606734-1.0277579" fill="#cdeaf1"/><path d="m216.459348 101.500537 2.607271 1.027221.273997-.696275-2.606733-1.027221" fill="#cdeaf1"/><path d="m214.307665 103.220809 3.8827 1.530086.274535-.696275-3.882701-1.530086" fill="#cdeaf1"/><path d="m214.706841 105.946275 2.607271 1.027758.274534-.696275-2.607271-1.027758" fill="#cdeaf1"/><path d="m213.831125 108.169413 2.606733 1.02722.274535-.696275-2.607271-1.02722" fill="#cdeaf1"/><path d="m212.954871 110.392013 2.606734 1.027758.274534-.696275-2.606734-1.027758" fill="#cdeaf1"/><path d="m210.803188 112.112285 3.882163 1.530086.274534-.695738-3.882163-1.530623" fill="#cdeaf1"/><path d="m211.202364 114.837751 2.607271 1.027758.273997-.696275-2.606734-1.027758" fill="#cdeaf1"/><path d="m210.32611 117.060888 2.607271 1.027758.274534-.696275-2.60727-1.027758" fill="#cdeaf1"/><path d="m209.449857 119.284026 2.607271 1.02722.274534-.696275-2.607271-1.02722" fill="#cdeaf1"/><path d="m207.298711 121.004298 3.882163 1.530086.274534-.696275-3.8827-1.530086" fill="#cdeaf1"/><path d="m207.697887 123.729764 2.606733 1.02722.274535-.695738-2.606734-1.027757" fill="#cdeaf1"/><path d="m206.821633 125.952364 2.606734 1.027758.274534-.696275-2.606733-1.027221" fill="#cdeaf1"/><path d="m205.94538 128.175501 2.60727 1.027758.273998-.696275-2.606734-1.027758" fill="#cdeaf1"/><path d="m213.922457 169.316977h-39.443231l-6.625358-59.669054c-.084348-.758596.50985-1.422099 1.273281-1.422099h50.147385c.763432 0 1.357629.663503 1.273281 1.422099z" fill="#9fd7eb"/><path d="m164.461139 171.917264c23.758238.323424 47.515938.647385 71.273639.970919.797278.010635 3.309993-.766765-1.020236-3.559386-3.667801-2.364972-15.260566-.236927-15.260566-.236927s2.698603-1.08202 2.686246-2.478331-1.070738-2.623389-2.341332-3.202543c-1.270595-.579155-2.717407-.62106-4.111569-.54101-2.836676.162249-5.645953.790831-8.281161 1.852972 1.118553-.687679 1.45917-2.373567.696276-3.441618-.762894-1.068052-2.468124-1.292622-3.481376-.457737 1.780444-2.411175 4.53331-13.0976-3.926755-17.807665-10.604226-5.902757-18.657593-1.044949-20.375716 2.50788-.871419-3.487285-4.872851-6.127865-7.508059-6.782235-6.010745-1.492478-9.92568-1.049785-15.536712 1.57038-1.985136.927292-4.642908 4.093302-5.962392 5.842048-2.066798 2.738897-2.388611 6.38091-2.502508 9.810172-.085422 2.573962-.097242 5.150609-.034921 7.725108z" fill="#cdeaf1"/><path d="m178.344198 175.715079c0 1.231912-23.928546 2.230122-53.446096 2.230122-29.5175504 0-53.4460963-.99821-53.4460963-2.230122 0-1.231376 23.9285459-2.229585 53.4460963-2.229585 29.51755 0 53.446096.998209 53.446096 2.229585" fill="#b0dde7"/><path d="m125.915652 28.5931232c-1.661712 0-3.008596-1.3468839-3.008596-3.0091332 0-1.6617121 1.346884-3.0091333 3.008596-3.0091333 1.662249 0 3.00967 1.3474212 3.00967 3.0091333 0 1.6622493-1.347421 3.0091332-3.00967 3.0091332m0-8.4412607c-2.961855 0-5.36336 2.400967-5.36336 5.3633596v6.8741045h10.727257s0-5.4595272 0-6.8741045c0-2.9623926-2.401505-5.3633596-5.363897-5.3633596" fill="#ff7b5d"/><path d="m127.763789 27.9586318c.6447-.551755 1.161533-1.459169 1.161533-2.3746418 0 .9648997-.454513 1.8239613-1.160458 2.3746418-.000537 0-.000537 0-.001075 0m-1.250716-5.3246776c-.192872-.038682-.392729-.0590975-.597421-.0590975-.154728 0-.303009.0231018-.451827.0456662.016118-.006447.031698-.0123567.046741-.0188037.1327-.0177292.268087-.0268625.405086-.0268625.204692 0 .404549.0204155.597421.0590975" fill="#c79da0"/><path d="m122.190903 31.344914h-1.638611v-5.8296919c0-.0053725 0-.010745 0-.0161175 0-.0016118 0-.0037608 0-.0053725 0-.0032235 0-.0069842 0-.010745 0-.0016117 0-.0037607 0-.0059097 0-.0032235 0-.006447 0-.0102078 0-.002149.000538-.004298.000538-.006447 0-.0032235 0-.0069842 0-.0102077 0-.0016117 0-.0037607 0-.0053725 0-.0048352 0-.0096705 0-.0145057 0-.002149 0-.004298 0-.006447.000537-.0032235.000537-.0069843.000537-.010745 0-.002149 0-.0048352 0-.0069842 0-.0026863 0-.0059098 0-.008596 0-.0026863.000537-.0053725.000537-.0080588 0-.0026862 0-.0048352 0-.0075215 0-.0026862 0-.0053725 0-.0080587.000537-.0026862.000537-.0048352.000537-.0075215 0-.0026862 0-.0059097 0-.008596 0-.0010745 0-.0016117 0-.0026862.000538-.0075215.000538-.015043.001075-.0225645 0-.0010745 0-.0026862 0-.004298 0-.0032235 0-.0069842.000537-.010745 0-.0010745 0-.0026862 0-.004298 0-.0037607.000537-.0075215.000537-.0112822 0-.0010745 0-.002149 0-.0032235.093482-2.3558381 1.70899-4.3173352 3.889148-4.9378582-1.445201.9606018-2.254835 2.6024356-2.254835 4.4677651zm5.573961-3.3862822c.705945-.5506805 1.160458-1.4097421 1.160458-2.3746418 0-1.4575573-1.036354-2.6728152-2.412249-2.9500358-.192872-.038682-.392729-.0590975-.597421-.0590975-.136999 0-.272386.0091333-.405086.0268625.407772-.163861.454513-.2739971 1.174427-.2739971 1.661712 0 3.009133 1.3474212 3.009133 3.0096705 0 1.5064469-.768804 2.3230659-1.929262 2.6212392" fill="#102b44" opacity=".1"/><path d="m170.21293 175.690365h-90.6296564c-2.8904011 0-5.2333452-2.342944-5.2333452-5.233345v-132.4733166c0-2.8904011 2.3429441-5.2333452 5.2333452-5.2333452h90.6296564c2.890401 0 5.233345 2.3429441 5.233345 5.2333452v132.4733166c0 2.890401-2.342944 5.233345-5.233345 5.233345" fill="#437db3"/><path d="m80.2091691 170.084169h89.3778649v-131.7276146h-89.3778649z" fill="#c4e6f0"/><path d="m83.6459527 166.060172h82.5042983v-123.6796204h-82.5042983z" fill="#fffffe"/><path d="m157.41404 35.116404v5.3724928h-65.0340257v-5.3724928c0-2.0845272 1.6923353-3.77149 3.77149-3.77149h57.4910457c2.084527 0 3.77149 1.6869628 3.77149 3.77149" fill="#ff7b5d"/><path d="m157.41404 40.4888968h-65.0340257v-5.3724928c0-2.0845272 1.6923353-3.77149 3.77149-3.77149h.5211318c-.9992837.9563038-1.7782951 2.4176218-1.7782951 3.9111748v3.8896848h62.519699z" fill="#102b44" opacity=".1"/><g fill="#d8e7ed"><path d="m119.928009 56.3672994h-13.401684c-.463109 0-.838646-.375-.838646-.8381089 0-.4631088.375537-.8386461.838646-.8386461h13.401684c.463108 0 .838108.3755373.838108.8386461 0 .4631089-.375.8381089-.838108.8381089"/><path d="m160.192693 60.640043h-10.190007c-.463109 0-.838646-.3755373-.838646-.8386462 0-.4631088.375537-.8381088.838646-.8381088h10.190007c.463109 0 .838647.375.838647.8381088 0 .4631089-.375538.8386462-.838647.8386462"/><path d="m145.587034 60.640043h-39.060709c-.463109 0-.838646-.3755373-.838646-.8386462 0-.4631088.375537-.8381088.838646-.8381088h39.060709c.463109 0 .838647.375.838647.8381088 0 .4631089-.375538.8386462-.838647.8386462"/><path d="m160.192693 64.9127865h-53.666368c-.463109 0-.838646-.3755372-.838646-.8386461s.375537-.8381089.838646-.8381089h53.666368c.463109 0 .838647.375.838647.8381089s-.375538.8386461-.838647.8386461"/><path d="m160.192693 69.1855301h-17.058202c-.462571 0-.838108-.3755373-.838108-.8386461 0-.4631089.375537-.8386462.838108-.8386462h17.058202c.463109 0 .838647.3755373.838647.8386462 0 .4631088-.375538.8386461-.838647.8386461"/><path d="m138.88861 69.1855301h-32.362285c-.463109 0-.838646-.3755373-.838646-.8386461 0-.4631089.375537-.8386462.838646-.8386462h32.362285c.463109 0 .838646.3755373.838646.8386462 0 .4631088-.375537.8386461-.838646.8386461"/><path d="m160.192693 56.3672994h-35.866762c-.463109 0-.838646-.375-.838646-.8381089 0-.4631088.375537-.8386461.838646-.8386461h35.866762c.463109 0 .838647.3755373.838647.8386461 0 .4631089-.375538.8381089-.838647.8381089"/><path d="m119.928009 87.081841h-13.401684c-.463109 0-.838646-.3755373-.838646-.8386462 0-.4631088.375537-.8381088.838646-.8381088h13.401684c.463108 0 .838108.375.838108.8381088 0 .4631089-.375.8386462-.838108.8386462"/><path d="m160.192693 91.3545845h-10.190007c-.463109 0-.838646-.3755372-.838646-.8386461s.375537-.8386461.838646-.8386461h10.190007c.463109 0 .838647.3755372.838647.8386461s-.375538.8386461-.838647.8386461"/><path d="m145.587034 91.3545845h-39.060709c-.463109 0-.838646-.3755372-.838646-.8386461s.375537-.8386461.838646-.8386461h39.060709c.463109 0 .838647.3755372.838647.8386461s-.375538.8386461-.838647.8386461"/><path d="m160.192693 95.6273281h-53.666368c-.463109 0-.838646-.3755373-.838646-.8386462 0-.4631088.375537-.8386461.838646-.8386461h53.666368c.463109 0 .838647.3755373.838647.8386461 0 .4631089-.375538.8386462-.838647.8386462"/><path d="m160.192693 99.8995344h-17.058202c-.462571 0-.838108-.375-.838108-.8381089s.375537-.8386461.838108-.8386461h17.058202c.463109 0 .838647.3755372.838647.8386461s-.375538.8381089-.838647.8381089"/><path d="m138.88861 99.8995344h-32.362285c-.463109 0-.838646-.375-.838646-.8381089s.375537-.8386461.838646-.8386461h32.362285c.463109 0 .838646.3755372.838646.8386461s-.375537.8381089-.838646.8381089"/><path d="m160.192693 87.081841h-35.866762c-.463109 0-.838646-.3755373-.838646-.8386462 0-.4631088.375537-.8381088.838646-.8381088h35.866762c.463109 0 .838647.375.838647.8381088 0 .4631089-.375538.8386462-.838647.8386462"/><path d="m119.928009 116.721884h-13.401684c-.463109 0-.838646-.375537-.838646-.838646s.375537-.838646.838646-.838646h13.401684c.463108 0 .838108.375537.838108.838646s-.375.838646-.838108.838646"/><path d="m160.192693 120.99409h-10.190007c-.463109 0-.838646-.375-.838646-.838109s.375537-.838646.838646-.838646h10.190007c.463109 0 .838647.375537.838647.838646s-.375538.838109-.838647.838109"/><path d="m145.587034 120.99409h-39.060709c-.463109 0-.838646-.375-.838646-.838109s.375537-.838646.838646-.838646h39.060709c.463109 0 .838647.375537.838647.838646s-.375538.838109-.838647.838109"/><path d="m160.192693 125.266834h-53.666368c-.463109 0-.838646-.375537-.838646-.838109 0-.463109.375537-.838646.838646-.838646h53.666368c.463109 0 .838647.375537.838647.838646 0 .462572-.375538.838109-.838647.838109"/><path d="m160.192693 129.539577h-17.058202c-.462571 0-.838108-.375537-.838108-.838646s.375537-.838646.838108-.838646h17.058202c.463109 0 .838647.375537.838647.838646s-.375538.838646-.838647.838646"/><path d="m138.88861 129.539577h-32.362285c-.463109 0-.838646-.375537-.838646-.838646s.375537-.838646.838646-.838646h32.362285c.463109 0 .838646.375537.838646.838646s-.375537.838646-.838646.838646"/><path d="m160.192693 116.721884h-35.866762c-.463109 0-.838646-.375537-.838646-.838646s.375537-.838646.838646-.838646h35.866762c.463109 0 .838647.375537.838647.838646s-.375538.838646-.838647.838646"/><path d="m119.928009 146.898639h-13.401684c-.463109 0-.838646-.375537-.838646-.838109 0-.463646.375537-.838646.838646-.838646h13.401684c.463108 0 .838108.375.838108.838646 0 .462572-.375.838109-.838108.838109"/><path d="m160.192693 151.171383h-10.190007c-.463109 0-.838646-.375538-.838646-.838647 0-.463108.375537-.838108.838646-.838108h10.190007c.463109 0 .838647.375.838647.838108 0 .463109-.375538.838647-.838647.838647"/><path d="m145.587034 151.171383h-39.060709c-.463109 0-.838646-.375538-.838646-.838647 0-.463108.375537-.838108.838646-.838108h39.060709c.463109 0 .838647.375.838647.838108 0 .463109-.375538.838647-.838647.838647"/><path d="m160.192693 155.444126h-53.666368c-.463109 0-.838646-.375537-.838646-.838646s.375537-.838646.838646-.838646h53.666368c.463109 0 .838647.375537.838647.838646s-.375538.838646-.838647.838646"/><path d="m160.192693 159.71687h-17.058202c-.462571 0-.838108-.375538-.838108-.838647 0-.463108.375537-.838646.838108-.838646h17.058202c.463109 0 .838647.375538.838647.838646 0 .463109-.375538.838647-.838647.838647"/><path d="m138.88861 159.71687h-32.362285c-.463109 0-.838646-.375538-.838646-.838647 0-.463108.375537-.838646.838646-.838646h32.362285c.463109 0 .838646.375538.838646.838646 0 .463109-.375537.838647-.838646.838647"/><path d="m160.192693 146.898639h-35.866762c-.463109 0-.838646-.375537-.838646-.838109 0-.463646.375537-.838646.838646-.838646h35.866762c.463109 0 .838647.375.838647.838646 0 .462572-.375538.838109-.838647.838109"/></g><path d="m100.871777 66.5256089v-.3105301h-10.0272211c-.4523639-.0010745-.8182307-.366404-.8187679-.8187679v-10.0272206c.0005372-.4523639.366404-.8176935.8187679-.818768h10.0272211c.451826.0010745.817693.3664041.818767.818768v10.0272206c-.001074.4518266-.366941.8176934-.818767.8187679v.6215974c.795666-.0005372 1.439828-.6446991 1.439828-1.4403653v-10.0272206c0-.7956662-.644162-1.4398281-1.439828-1.4403654h-10.0272211c-.7956662.0005373-1.4398281.6446992-1.4403654 1.4403654v10.0272206c.0005373.7956662.6446992 1.4398281 1.4403654 1.4403653h10.0272211z" fill="#2d8ca4"/><path d="m100.871777 97.1402221v-.3105301h-10.0272211c-.4523639-.0010745-.8182307-.3669413-.8187679-.8187679v-10.0272207c.0005372-.4523639.366404-.8182306.8187679-.8187679h10.0272211c.451826.0005373.817693.366404.818767.8187679v10.0272207c-.001074.4518266-.366941.8176934-.818767.8187679v.6215974c.795666-.0005373 1.439828-.6446991 1.439828-1.4403653v-10.0272207c0-.7956662-.644162-1.439828-1.439828-1.4403653h-10.0272211c-.7956662.0005373-1.4398281.6446991-1.4403654 1.4403653v10.0272207c.0005373.7956662.6446992 1.439828 1.4403654 1.4403653h10.0272211z" fill="#2d8ca4"/><path d="m100.871777 127.754835v-.31053h-10.0272211c-.4523639-.001074-.8182307-.366941-.8187679-.818768v-10.02722c.0005372-.452364.366404-.817694.8187679-.818768h10.0272211c.451826.001074.817693.366404.818767.818768v10.02722c-.001074.451827-.366941.817694-.818767.818768v.62106c.795666 0 1.439828-.644162 1.439828-1.439828v-10.02722c0-.795667-.644162-1.439828-1.439828-1.440366h-10.0272211c-.7956662.000538-1.4398281.644699-1.4403654 1.440366v10.02722c.0005373.795666.6446992 1.439828 1.4403654 1.439828h10.0272211z" fill="#2d8ca4"/><path d="m100.871777 158.369448v-.31053h-10.0272211c-.4523639-.001074-.8182307-.366941-.8187679-.818768v-10.02722c.0005372-.452364.366404-.817694.8187679-.818768h10.0272211c.451826.001074.817693.366404.818767.818768v10.02722c-.001074.451827-.366941.817694-.818767.818768v.621061c.795666 0 1.439828-.644162 1.439828-1.439829v-10.02722c0-.795666-.644162-1.439828-1.439828-1.440366h-10.0272211c-.7956662.000538-1.4398281.6447-1.4403654 1.440366v10.02722c.0005373.795667.6446992 1.439829 1.4403654 1.439829h10.0272211z" fill="#2d8ca4"/><path d="m90.5093123 58.8144699 4.6310888 5.5922278c.1907235.23048.4781519.3545845.7768625.3357808.2981734-.0188037.5678725-.1783668.7279728-.4314112l8.9108166-14.0592765c.275072-.4346346.146132-1.0105659-.288503-1.2861748-.435172-.2756088-1.010566-.1461318-1.286175.2885029l-8.2236744 12.9756447-3.8128582-4.6047636c-.3282593-.39649-.91601-.4512894-1.3125-.1230301s-.4518266.91601-.1230301 1.3125" fill="#eea03a"/><path d="m90.5093123 89.1744269 4.6310888 5.5922278c.1907235.23048.4781519.3551218.7768625.3357808.2981734-.0188037.5678725-.1783667.7279728-.4308739l8.9108166-14.0592765c.275609-.4351719.146132-1.0111032-.288503-1.286712-.435172-.2756089-1.010566-.1461318-1.286175.2885028l-8.2236744 12.9756447-3.8128582-4.6042263c-.3282593-.39649-.91601-.4518267-1.3125-.1235674s-.4518266.9160101-.1230301 1.3125" fill="#eea03a"/><path d="m70.4994628 175.932665c0 .602256-6.7618195 1.091153-15.1036892 1.091153-8.3407951 0-15.1020773-.488897-15.1020773-1.091153 0-.602794 6.7612822-1.091691 15.1020773-1.091691 8.3418697 0 15.1036892.488897 15.1036892 1.091691" fill="#b0dde7"/><path d="m57.9627507 113.504835c.0633954.306232.2234957.56841.4421562.762894.2380014.223496.5592765.369628.8993553.40831.8891475.092407 2.265043.282056 3.7183023.47654 2.3327364.311067 4.875.631805 5.944126.573245.2428367-.009671 1.2249284.019341 1.8905803-.262178l.0585601-.019878.0096705-.009671c.1601003-.140759.1649356-.515222.1165831-.889147-.0435172-.40831-.1504298-.821454-.1606375-.928367-.1069126-1.108345-1.0250716-1.477435-1.4726003-1.589721-.1455946-.038681-.2428367-.048352-.2428367-.048352-.0537249-.014506-.1069126-.033847-.1654728-.053725-2.1871418-.694663-4.6611747-.864971-6.2551934-1.132521-.7677292-.131089-1.5650071-.09187-2.3037249.11712-.5055516.140759-.9869269.364255-1.4242478.665652-.6849929.47654-1.2249284 1.122851-1.0546204 1.929799" fill="#fffffe"/><path d="m68.6797994 114.549785c.0585602.1601.1364613.296562.2234957.413145.0440545.053187.0875717.102077.1316261.145594.5684097.549069 1.4532593.447529 1.6181948.422816h.0048353c.0633954-.019341.1267908-.043518.1993195-.067694l.0682306-.029549c1.3995344-.592586 4.3646132-2.765222 6.3911175-4.315723l.0198782-.009671c1.2098854-.933202 2.0850645-1.633237 2.0850645-1.633237l-.1799785-.277221-.7193768-1.05462s-4.5053725 2.129119-6.6344914 2.872672c-.933202.325573-1.847063.622134-2.4788682 1.010565-.0827364.04889-.155265.097243-.2283309.150968 0 0-.9573783 1.093302-.5007164 2.371955" fill="#3ea0c1"/><path d="m63.0225645 115.152579c2.3327364.311067 4.875.631805 5.944126.573245.2428367-.009671 1.2249284.019341 1.8905803-.262178l.0585601-.019878.0096705-.009671c1.3995344-.592586 4.3646132-2.765222 6.3911175-4.315723-.2911891.174606-4.1309097 2.405802-6.2745344 3.426576-.5393983.257342-.9718839.437321-1.2104226.490508-.20899.044055-.4808381.068231-.7967407.073066l-.1208811.000538c-1.9765401-.008596-3.7795487-1.080409-4.8293338-2.755552-.5157593-.822529-.9455587-1.298531-.9455587-1.298531s-.0730659 2.396131-.1165831 4.0976" fill="#2e8ca4"/><path d="m69.8767908 111.777042s-.3486748.251969-1.3737464 0c-1.0250716-.25197.0531877 1.001969.0531877 1.001969l1.6133596-.10154.1369986-.416368z" fill="#fffffe"/><path d="m53.5621418 123.526146c.4324857 1.122314.5356376 2.346705.2739972 3.523281-.5189828 2.335423.0714541 2.491762.0714541 2.491762s3.1654728 2.009312 5.797457 2.830229c1.8868195.587214 3.4948066.487823 3.4496777-1.595093l-.0010745-.029011c-.0032235-.126254-.006447-.247135-.0096705-.36533-.0886461-4.68159.8875358-4.919591 1.1282235-10.161533.2482092-5.377865.1950215-8.562142-1.5273997-9.429262-1.8766118-.945559-4.4580946-1.595093-8.1194484-.729584-2.7501791.647922-3.6559814 1.377507-3.6339542 3.412607.0075215.676397.1171204 1.497851.2960244 2.505731.4545129 2.561067 1.5386819 5.635745 2.2747134 7.546203" fill="#3ea0c1"/><path d="m53.5621418 123.526146c.4324857 1.122314.5356376 2.346705.2739972 3.523281-.5189828 2.335423.0714541 2.491762.0714541 2.491762s3.1654728 2.009312 5.797457 2.830229l2.4600645-.233166.9842407-.773639.004298-.617299c-.0032235-.126254-.006447-.247135-.0096705-.36533-.5614255.053725-1.8400788.11927-3.7140043-.096705-1.4484241-.164935-2.7646848-.57808-3.6420129-.912249-.6398639-.242299-1.0154011-.903653-.8955945-1.577364.1590257-.920845.3476002-2.240867.340616-3.265938-.0075215-1.030444-.4845988-2.772744-.8751791-4.02937-.2976361-.964362-.3991762-1.973316-.327722-2.979047.1219555-1.739613-.0026863-3.395416-.0026863-3.395416l-1.9496776-1.056232-1.0863181.404549c.0075215.676397.1171204 1.497851.2960244 2.505731.4545129 2.561067 1.5386819 5.635745 2.2747134 7.546203" fill="#2e8ca4"/><path d="m62.3692693 104.366225c-.359957.145057-.2095272 1.364613-.2793696 1.756805-.0644699.397565-.349212 1.923353-1.1550859 2.15437-.8005015.231017-1.3001433.295487-1.3001433.429799-.0053725.059098.0161175.338467.0376074.617837.010745.118195.02149.23639.0268625.333094l.0053725.075215.0053725.06447c.010745.096705-.010745.49427-.0698424.569484l-.5265043.349212c-.0698424.080588-.1665473.134313-.2739972.139685l-.5533667.04298-.1181949-.010745-.3116045-.091332c-.04298-.188037-.0752149-.333095-.0805874-.338467-.010745-.016118-.9831662-.650072-1.547278-1.020774-.0322349-.580229-.0805874-1.251791-.1235673-1.42371-.0376075-.145058-.4512894-.945559-.8810888-1.89649-.0376075-.080588-.0752149-.161175-.1074499-.241763-.0967049-.214899-.1880372-.435172-.2793696-.655444l-.0376075-.08596c-.3062321-.779011-.5479942-1.547278-.5533667-2.063037 0-1.407593.0483524-2.879656.9186962-3.6049425.8595989-.7199141 6.3234241-3.3094556 6.5060889.9348135l.010745.075215c.0805874.290115.6715616 2.455229.9455587 2.852794.2901146.424427.1020774.897206-.2578797 1.036891" fill="#f0a980"/><path d="m59.640043 110.367299-.0537249.263253c-.0376075.188037-.2041548.316977-.392192.311604l-.9348138-.037607-.0913324-.016118-.3116045-.091332c-.04298-.188037-.0752149-.333095-.0805874-.338467-.010745-.016118-.9831662-.650072-1.547278-1.020774-.0322349-.580229-.0805874-1.251791-.1235673-1.42371-.0376075-.145058-.4512894-.945559-.8810888-1.89649-.0376075-.080588-.0752149-.161175-.1074499-.241763-.0967049-.214899-.1880372-.435172-.2793696-.655444-.02149-.059097-.032235-.118195-.0268625-.182664l.0376075-.419055c.0161174-.182665.1558023-.333094.338467-.349212.4620344-.053725 1.2893983-.145057 1.3323782-.139685.0590975.005373.5641118.972421.5641118 1.026146 0 .04298-.2310172.752149-.2954871.945559l-.02149.096705c-.0053725.2149-.0376074 1.095989-.010745 1.907235.0161175.585602.3384671 1.106733.8327364 1.375358l.0698424.037608c.2525072.128939 1.122851.574856 1.9824499.848853" fill="#e89772"/><path d="m62.6002865 104.753044c1.1712035 1.063754-.0967048 3.368553-.4727793 3.696275-.3760745.327723-3.062321 1.144341-4.6042264-.338467-.2954871-.273997-.5050143-.601719-.6608166-.940186l-.0053725-.010745c-.04298-.096705-.3868195-.929441-.359957-2.111389l-.4405444.107449s-.0805874 1.369986.0752149 2.21884c-.0053725.333094-.4083095.505014-.6446992.273997-.6984241-.682307-1.7568051-2.181232-2.1167622-5.189828-.5533667-4.6257164 4.0830946-4.9426934 5.1253582-4.8352436.7467765.0805874 2.0361748.0376075 2.3800143-.1611748 2.6056591-1.504298 2.3638969 1.176576 1.9931949 2.1866046-.1235674.3438396-.402937.7790118-.4620344.9348138s.0644699.843481.0644699 1.155086c-.0053725.311605-.2793696.478152-.2793696.478152s-.2632522-.864972-.2954871-.988539c-.0268625-.091332-.1343123-.478152-.1826648-.650072-.0161175-.053724-.0590974-.096704-.1074498-.118194-.1611748-.059098-.3223496-.091333-.3223496-.091333-.1719198-.048352-.8434814-.08596-1.3699857-.112822-.3438395-.016118-.6500716.247135-.6608166.596347-.0644699 1.4452-.8058739 1.708452-1.144341 1.751432-.0967048.010745-.1719197.08596-.1826647.182665-.2256447 1.762178.4512894 2.750716.741404 2.799069.3008596.053725 1.2195559-.736032 1.2195559-.736032s1.5472779-1.160458 2.7131088-.096705" fill="#0e0f25"/><path d="m56.6373567 103.870344s-.0714541-.790831-.6774713-.680695c-.7204513.130552-1.0750358 1.809456.0316977 2.217228.2422994.089183.5007163-.098317.5055516-.356196.0069842-.327185.0370702-.782235.140222-1.180337" fill="#e89772"/><path d="m60.2041547 112.009133s2.8527937 9.351361 2.282235 13.831483l-1.0513969 1.91207-1.1486389-2.085064s.9342765-8.956483-.8547636-13.500537z" fill="#1c3749"/><path d="m60.4018625 111.21293-.015043.122493c-.0284742.232091-.0897206.458811-.1826648.67371l-.7725644.157952-.6726361-.501254.7714899-.896669.1198066.030623c.2766834.07038.5313396.20899.7403295.402937z" fill="#182d39"/><path d="m56.2064828 109.068768s-.1928725.231017-.5614255.785458c0 0 .5372493.201469.978331.470631.4023997.24606 2.3381088 1.613359 2.3381088 1.613359l.568947-1.169054s-2.2295845-1.394162-3.3239613-1.700394" fill="#2e8ca4"/><path d="m59.5304441 110.769162s.6774714.231554.8853868.737106c0 0 .3277221-1.003045.051576-1.554262 0 0-.198245-.521669-.8047995-.767192z" fill="#2e8ca4"/><path d="m62.5449499 172.800501s.2680873.686605.2342406 1.138969c-.0333094.452364-1.4736747.485673-1.6412965.251433-.1670845-.234778-.2508954-2.311247-.2508954-2.311247" fill="#f0a980"/><path d="m60.7575215 174.589542c0 .471704.1310888 1.239434.1310888 1.239434h1.6601003l.0816619-.277221s.5377865.277221.9606017.277221h1.4011461c1.0256089 0 1.6079871-.130552 1.6337751-.311068.1079871-.754298-1.1169412-.719914-1.4360673-.719914-.91601 0-1.9077722-.428725-2.1237464-.893445-.1568768-.337393-.0875717-.422815-.2772207-.359957 0 0-.170308.03707-.2842048.245523-.1746061.320737-.5060889.535637-.8655086.472242-.2057665-.035996-.4120702-.114434-.5608883-.270774 0 0-.3207378.126791-.3207378.597959" fill="#343532"/><path d="m46.3968481 171.235494s-.3073066 1.214721-.5055515 1.622493c-.1987823.407772-1.5488897-.094556-1.6176576-.374463s.6226719-2.239792.6226719-2.239792" fill="#f0a980"/><path d="m43.7723854 172.71293c-.174606.437858-.4335602 1.286712-.4335602 1.286712l1.2582378.750537.2465975-.186425s.2777578.450214.6618911.691439c.2858166.179442.9170845.441082 1.2458811.516297 1.1491762.262178 2.0372492.135387 2.1280444-.022564.3798352-.66028-1.1432665-1.02346-1.4398281-1.141655-.8504656-.339005-1.2405086-1.163682-1.2689828-1.675681-.0209527-.371239.0752149-.424964-.1241046-.436783 0 0-.172457-.029012-.3551218.12303-.2809813.232629-.6683381.309455-.9788682.117657-.1778295-.109599-.3400788-.258954-.4212034-.458811 0 0-.3443768-.001611-.5189828.436247" fill="#343532"/><path d="m52.2292264 138.863001s-2.2553725-5.400967 1.6783667-9.321812c0 0 3.3567335 1.502686 6.0445917 1.684277 2.1167622.142908 3.1912608-.07629 3.1912608-.07629s.8214541 4.242658.560351 10.405444z" fill="#263358"/><path d="m60.6892908 173.321633c.0682307.004835.1364613.004835.1993195.004835 1.4000716.014506 2.1968123-.150429 2.1968123-.150429v-.403475c-.0773639-6.182664.6710244-16.287249.8166189-19.480659.0096705-.223495.0048353-.42765-.0193409-.612464-.2428367-2.337571-2.6588467-2.031339-3.6742479.116583-.2385387.500717-.4281877 1.054621-.5737822 1.652579-.1799785.719377-.3013969 1.502149-.3744628 2.333274-.4711676 5.336497 1.0159384 12.554441 1.4290831 16.539756" fill="#263358"/><path d="m56.4998209 141.354764c.0096705.063395.0241762.131088.038682.199319.534563 2.814112 2.2698782 10.420487 3.0961676 12.889685v.004835c.1214183.345451.534563.636641 1.0642908.777937 1.2152579.330408 3.0284742-.121418 3.1837393-2.547099.0193409-.267013.0145057-.558739-.0096705-.874642-.1031519-1.264147-.191798-6.661891-.1692335-10.250179.0123567-2.036712-.4797636-3.270236-.5114614-3.645773-.0821991-1.049785-.2718481-2.580946-.8262894-2.77543-2.765222-.957378-6.5904369 2.284384-5.8662249 6.221347" fill="#263358"/><path d="m59.2602077 156.781877c-.4711676 5.336497 1.0159384 12.554441 1.4290831 16.539756.0682307.004835.1364613.004835.1993195.004835 0 0-.344914-6.313753-.9090258-10.688037-.4373209-3.377686.3406161-6.269699.7193768-7.411891.1117479-.340616.189649-.524892.189649-.524892l-.6801576-1.905624c-.758596-2.478868-.7779369-8.262356-.7779369-8.262356 1.847063-4.073424 2.1044054-9.200932 2.1044054-9.200932l-1.5795129.218661-2.8286175 3.392729-.5882879 2.609957c.534563 2.814112 2.2698782 10.420487 3.0961676 12.889685v.004835c-.1799785.719377-.3013969 1.502149-.3744628 2.333274" fill="#1c2743"/><path d="m59.0807665 152.552113s.4743911 2.139864.1794412 4.229764c-.2944126 2.0899 1.0014327-1.839005 1.0014327-1.839005l-.6887536-1.4178z" fill="#1c2743"/><path d="m50.9903295 152.63861c1.8723138-1.761103 4.476361-.927829 3.2600287 1.805695-1.3006805 2.922636-5.3230659 11.036175-7.5037608 16.820201l-.1504298.376074s-.8762536-.151504-2.2827722-.739255c1.0379656-3.754298 1.7922636-10.224391 3.9493195-14.732987.6930516-1.450036 1.7568052-2.616941 2.7276146-3.529728" fill="#263358"/><path d="m61.5370702 135.334348c.3637178-4.348496-5.0555158-1.460781-7.6547278-.024713-1.0943768.603868-1.4946275 1.813216-1.6412966 2.95111-.1477435 1.138431-1.5521131 12.855301-1.834169 14.993016-.6355659 4.819663 3.5737822 2.183918 3.9718839.848854 1.0035817-3.371777 6.9606018-16.398998 7.1583095-18.768267" fill="#263358"/><path d="m50.7797278 150.266655s-.1713825 2.306411-2.1087034 5.150071c0 0 3.1697707-1.463467 3.3239613-1.678904.1536533-.215437.7075573-2.449319.6457736-2.685709-.0612464-.236927-1.8610315-.785458-1.8610315-.785458" fill="#263358"/><path d="m93.568947 85.5313395-3.6909026 12.9477078-45.9025788 49.4484237-.4244269.456662-4.4113539 4.632701-8.4616762-7.859957 4.696096-4.938933.9133238-.988539 45.1289398-48.6103147z" fill="#f6bd5e"/><path d="m41.5492479 150.419771-2.4095631 2.597063-8.4616762-7.859957 2.409563-2.597063z" fill="#ff7b5d"/><path d="m43.9614971 147.824857-2.4122492 2.594914-8.4616763-7.859957 2.4122493-2.594914z" fill="#fce5c0"/><path d="m81.4163682 90.6190903 8.4616762 7.859957 3.6909026-12.9477078z" fill="#fce5c0"/><path d="m89.219914 87.3520774 3.0725287 2.6566977 1.2765043-4.4774356z" fill="#f6bd5e"/><path d="m39.1396848 153.016834 2.4095631-2.597063 2.4122492-2.594914-2.2833094-2.12106 13.5316977-14.223675c.2616404.214899.4136819.333094.4136819.333094l.191798-.22457s.1343124.30086.4190545.687679c.1504298.204155.4297994.333095.6554441.40831l.4244269-.456662.0268625-.306232-1.2679083-1.349033 32.0684097-33.7070203 1.7363897 1.6133596z" fill="#eb8b35"/><path d="m39.1396848 153.016834-2.3461676-2.179083 2.4423352-2.566977 2.3133955 2.148997z" fill="#e15c3f"/><path d="m41.5492479 150.419771-2.3133955-2.148997 2.4423353-2.566977 2.2833094 2.12106z" fill="#f1a84e"/><path d="m89.8780444 98.4790473-1.7363897-1.6128224v-.0005372l3.5372493-7.3877149.6135387.5308023 1.2765043-4.4774356z" fill="#f1a84e"/><path d="m92.2924427 90.0087751-.6135387-.5308023 1.890043-3.9466333z" fill="#eb8b35"/><path d="m49.2523281 125.264685c-.1778295-.264327-.3438396-.529191-.4953439-.793517l.8692694-.941261.7897564.311604s.0290115.029549.0811247.0822z" fill="#bfced3"/><path d="m55.2098854 131.480122c-1.1002865-.903116-4.1405802-3.515222-5.9575573-6.215437l1.2448066-1.340974c.4115329.414756 2.245702 2.268266 2.379477 2.45899.1504298.220272 1.7836677 2.686246 1.7836677 2.686246l1.4129656 1.503761z" fill="#c89e4f"/><path d="m56.8898639 132.684635c-.2256447-.075215-.5050143-.204155-.6554441-.40831-.2847421-.386819-.4190545-.687679-.4190545-.687679l-.191798.22457s-.1520415-.118195-.4136819-.333094l.8633596-.907414 1.2679083 1.349033-.0268625.306232z" fill="#c5772f"/><path d="m55.1658309 130.945559 1.5112823-1.257164s.4453796.737106.7720272.838647c.0762894.023639.3196633-.046741.3991762-.046741.4308739-.001075.6919771.135924 1.2211676.378223.3556591.163324.8246777.311605.8434814.453976.019341.142908-.2283309.367479-.4765401.349212-.0306232-.002149-.0725287-.011819-.1224928-.025788-.0026863.040294-.0069843.084348-.0284742.15043-.1026147.31644-1.5864972 2.388073-3.0612465.135387-.334169-.510387-1.0583811-.976182-1.0583811-.976182" fill="#f3b699"/><path d="m54.4023997 116.207199c-.4996418 1.536533-1.0315186 3.9649-2.0361748 6.022565-.0214899.048352-.0429799.091332-.0644699.128939l-.0161175.026863s-.0214899.091332-.0752149.225645c-.1826647.424427-.6769341 1.289398-1.7944126 1.2303-.0537249 0-.1987822.005373-.381447.016118-.2202722.010745-.4942693.016117-.7467765 0-.3116046-.02149-.5856017-.080587-.6769341-.23639l-.0053725-.005372c-.0107449-.032235-.0268624-.08596-.0376074-.155803l-.0161175-.085959-.0161175-.091333c-.0107449-.08596-.0161174-.17192-.0214899-.257879l-.0053725-.12894c-.010745-.547995.0859599-1.085244.1020773-1.257164.1611748-1.729942 1.8696275-7.145415 2.4498568-9.401862.0859599-.333095.2739971-.628582.5318768-.832736.2256447-.188038.5050143-.306233.8112464-.32235l.010745-.005373h.1289398c.7575215.02149 1.2786533.617837 1.6278653 1.332379.2310172.472779.3868195.983166.4459169 1.498925.1020774.762894.02149 1.558023-.2148997 2.299427" fill="#3ea0c1"/><path d="m57.0026862 130.401325-.9455587.854227-.0053725.005372-.2471347.2149s-1.9179799-1.665473-3.4115329-3.073066c-1.3807307-1.310888-2.7883238-2.772206-3.6640401-4.523639-.04298-.080587-.0859599-.17192-.1235674-.252507v-.010745c-.0107449-.032235-.0268624-.08596-.0376074-.155803l-.0161175-.085959-.0161175-.091333c-.0107449-.08596-.0161174-.17192-.0214899-.257879l-.0053725-.12894c.0053725-.327722.0859599-.698424.349212-1.010029l.0698424-.080587c.1020774-.102078.2256447-.19341.3760745-.273997.0913324-.048353.1880373-.091333.2793696-.118195 1.1067336-.38682 2.1382522.290114 2.1382522.290114.0590974.059098.1235673.123568.1826647.19341.1289399.139685.2632522.295487.3975645.462034.370702.47278.741404 1.047637 1.0315186 1.724571.9133238 2.111389 3.6694126 6.318051 3.6694126 6.318051" fill="#3ea0c1"/><path d="m79.5166547 109.641476s2.3031877-1.603152 2.4063396-2.829155c.1133596-1.353331-.8381089-2.00394-1.4640043-1.257163-.9853152 1.174427-.7199141 3.296024-.7199141 3.296024z" fill="#f3b699"/><path d="m56.0571275 131.255552-.0053725.005372-.2471347.2149s-1.9179799-1.665473-3.4115329-3.073066c-1.3807307-1.310888-2.7883238-2.772206-3.6640401-4.523639-.04298-.080587-.0859599-.17192-.1235674-.252507v-.010745c-.0107449-.032235-.0268624-.08596-.0376074-.155803l-.0161175-.085959-.0161175-.091333c-.0107449-.08596-.0161174-.17192-.0214899-.257879l-.0053725-.12894c-.010745-.547995.0859599-1.085244.1020773-1.257164.1611748-1.729942 1.8696275-7.145415 2.4498568-9.401862.0859599-.333095.2739971-.628582.5318768-.832736.2256447-.188038.5050143-.306233.8112464-.32235l.010745-.005373h.1289398c-.359957.58023-.8703438 1.751433-1.4452006 4.099213-.762894 3.132163-1.3001432 5.02328-1.515043 6.237464-.1074498.558739-.1396848.977793-.0967048 1.305515.0268624.204155.2256447.607092.5479942 1.138969 1.3162608 2.181232 4.6579513 6.463109 6.0225645 7.397923" fill="#2e8ca4"/></g></svg>