<svg enable-background="new 0 0 708.66 708.66" height="708.66" viewBox="0 0 708.66 708.66" width="708.66" xmlns="http://www.w3.org/2000/svg"><g style="fill:none;stroke:#373431;stroke-width:25;stroke-linecap:round;stroke-linejoin:round;stroke-miterlimit:10"><path d="m346.274 115.99v182.335-50.207c0-15.149 12.292-27.392 27.49-27.392 15.162 0 27.49 12.243 27.49 27.392v50.207-22.839c0-15.112 12.33-27.368 27.515-27.368 15.186 0 27.49 12.256 27.49 27.368v36.523l-.024 13.757v-13.745c0-15.137 12.329-27.392 27.49-27.392 15.209 0 27.514 12.255 27.514 27.392v141.711-.037c0 24.328-9.912 46.35-25.928 62.316-19.335 19.312-29.052 44.604-29.052 69.885-45.556 45.557-119.433 45.557-164.965 0h-.049v-69.543c-32.837-18.97-54.956-54.26-54.956-94.787l-33.85-170.153c29.749-5.92 58.728 13.379 64.636 43.054v.012l14.38 72.29h9.839l-.049-250.78c0-15.161 12.329-27.404 27.514-27.404s27.515 12.244 27.515 27.405z"/><path d="m493.246 115.99-53.174-26.599.024 53.161z"/><path d="m346.274 115.953h93.823z"/><path d="m197.422 115.953h93.823z"/></g></svg>