<svg fill="none" height="24" viewBox="0 0 24 24" width="24" xmlns="http://www.w3.org/2000/svg"><path d="m17.3957 7.81286c.3338-.33374.3338-.87484 0-1.20857-.3337-.33374-.8748-.33374-1.2086 0l-3.48 3.48001c-.3905.3905-1.0237.3905-1.4142 0l-3.48004-3.48001c-.33374-.33374-.87484-.33374-1.20857 0-.33374.33373-.33374.87483 0 1.20857l3.48001 3.48004c.3905.3905.3905 1.0237 0 1.4142l-3.48001 3.48c-.33374.3338-.33374.8749 0 1.2086.33373.3338.87483.3338 1.20857 0l3.48004-3.48c.3905-.3905 1.0237-.3905 1.4142 0l3.48 3.48c.3338.3338.8749.3338 1.2086 0 .3338-.3337.3338-.8748 0-1.2086l-3.48-3.48c-.3905-.3905-.3905-1.0237 0-1.4142z" fill="#000"/></svg>