<svg fill="none" height="12" viewBox="0 0 14 12" width="14" xmlns="http://www.w3.org/2000/svg"><path clip-rule="evenodd" d="m0 6c0-3.31371 2.91796-6 6.51733-6s6.51737 2.68629 6.51737 6-2.918 6-6.51737 6-6.51733-2.68629-6.51733-6zm5.51122 2.19305 3.25867-1.875c.11904-.06865.19144-.18879.19144-.31805s-.0724-.24937-.19144-.31805l-3.25867-1.875c-.12559-.07232-.28391-.07636-.41339-.00989-.12948.0661-.20983.19153-.20983.32794v3.75c0 .13641.08035.26184.20983.32794.06156.0315.12958.04706.1975.04706.07498 0 .14995-.01905.21589-.05695z" fill="#145fd8" fill-rule="evenodd"/></svg>