<svg fill="none" height="331" viewBox="0 0 375 331" width="375" xmlns="http://www.w3.org/2000/svg" xmlns:xlink="http://www.w3.org/1999/xlink"><clipPath id="a"><path d="m0 0h375v331h-375z"/></clipPath><mask id="b" height="917" maskUnits="userSpaceOnUse" width="917" x="-271" y="-588"><path clip-rule="evenodd" d="m187.5 329c253.223 0 458.5-205.277 458.5-458.5s-205.277-458.5-458.5-458.5c-253.2226 0-458.5 205.277-458.5 458.5s205.2774 458.5 458.5 458.5z" fill="#fff" fill-rule="evenodd"/></mask><g clip-path="url(#a)"><path d="m0 0h375v331h-375z" fill="#fff"/><path clip-rule="evenodd" d="m187.5 329c253.223 0 458.5-205.277 458.5-458.5s-205.277-458.5-458.5-458.5c-253.2226 0-458.5 205.277-458.5 458.5s205.2774 458.5 458.5 458.5z" fill="#145fd8" fill-rule="evenodd"/><g mask="url(#b)"><path clip-rule="evenodd" d="m334 378c51.362 0 93-41.638 93-93s-41.638-93-93-93-93 41.638-93 93 41.638 93 93 93z" fill-rule="evenodd" opacity=".1" stroke="#fff" stroke-width="70"/><path clip-rule="evenodd" d="m63 134c6.0751 0 11-4.925 11-11s-4.9249-11-11-11-11 4.925-11 11 4.9249 11 11 11z" fill-rule="evenodd" opacity=".1" stroke="#fff" stroke-width="10"/><path clip-rule="evenodd" d="m116.5 82c29.547 0 53.5-23.9528 53.5-53.5 0-29.54723-23.953-53.5-53.5-53.5-29.5472 0-53.5 23.95277-53.5 53.5 0 29.5472 23.9528 53.5 53.5 53.5z" fill-rule="evenodd" opacity=".1" stroke="#fff" stroke-width="50"/><path clip-rule="evenodd" d="m181.724 331c85.052 0 154-9.85 154-22s-68.948-22-154-22-154.0001 9.85-154.0001 22 68.9481 22 154.0001 22z" fill="#102b44" fill-opacity=".2" fill-rule="evenodd"/><path clip-rule="evenodd" d="m208.733 305h19.858l.133-6h-14.58c-5.891 2.533-5.411 6-5.411 6" fill="#3d4252" fill-rule="evenodd"/><path clip-rule="evenodd" d="m253.637 236.535c-2.123-15.038-2.83-61.535-2.83-61.535h-37.083v21.342l.823 102.658h14.748l2.547-104.544c0 28.455 11.539 72.871 23.209 102.588l13.673-4.928c-4.068-13.069-13.436-43.873-15.087-55.581" fill="#e8849d" fill-rule="evenodd"/><path clip-rule="evenodd" d="m253.573 295.97c-4.133 4.334-2.552 7.03-2.552 7.03l17.703-5.947s-.711-2.304-1.837-6.053z" fill="#3d4252" fill-rule="evenodd"/><path clip-rule="evenodd" d="m223.281 114s-.565 17.185 0 22c2.4 20.503-5.435 22-11.907 22-6.473 0-25.65-1.642-25.65-1.642v-6.334l20.616-2.111s-.68-28.309 16.941-33.913" fill="#f0b2af" fill-rule="evenodd"/><path clip-rule="evenodd" d="m210.724 196v2h42l-.035-2z" fill="#fde9e2" fill-rule="evenodd"/><path clip-rule="evenodd" d="m252.724 196-2.434-64.9c0-10.441-8.267-19.003-18.568-19.098-.134-.001-.267-.002-.402-.002-13.457 0-17.971 10.665-17.971 22.041s-2.625 61.793-2.625 61.793z" fill="#eb94a6" fill-rule="evenodd"/><path clip-rule="evenodd" d="m234.724 112 1.067 6.414c2.007 12.059 5.5 23.794 10.05 35.125 8.178 20.367 7.914 42.461 7.914 42.461h6.969c0-84.849-26-84-26-84" fill="#f0b2af" fill-rule="evenodd"/><path clip-rule="evenodd" d="m203.724 143.58 22.622 4.42 3.378-33.962s-23.892-2.341-26 29.542" fill="#eb94a6" fill-rule="evenodd"/><path clip-rule="evenodd" d="m255.724 143.58-22.623 4.42-3.377-33.962s23.892-2.341 26 29.542" fill="#eb94a6" fill-rule="evenodd"/><path clip-rule="evenodd" d="m228.725 143h9.992s.405 10-4.893 10c-5.297 0-5.099-10-5.099-10" fill="#e8849d" fill-rule="evenodd"/><path clip-rule="evenodd" d="m227.676 112v.003c-.943.036-8.952.572-8.952 8.068 0 7.487 8.089 18.837 9.048 19.929.959-1.092 8.952-12.442 8.952-19.929 0-7.496-8.105-8.034-9.048-8.071z" fill-rule="evenodd" stroke="#201e2b" stroke-width=".621"/><path clip-rule="evenodd" d="m222.724 146h10v-6h-10z" fill="#fffffe" fill-rule="evenodd"/><path d="m228.224 139v2" stroke="#201e2b" stroke-width=".621"/><g clip-rule="evenodd" fill-rule="evenodd"><path d="m224.724 144h2v-2h-2z" fill="#f7cec1"/><g fill="#fde9e2"><path d="m227.724 141.794h4v-.588h-4z"/><path d="m227.724 141.794h4v-.588h-4z"/><path d="m227.724 143.794h4v-.588h-4z"/><path d="m227.724 143.794h4v-.588h-4z"/></g><path d="m224.724 143.794h2v-.588h-2z" fill="#f7cec1"/><path d="m190.341 167h21.519c1.828 0 3.188-1.713 2.796-3.523l-6.753-31.197c-.288-1.331-1.451-2.28-2.796-2.28h-21.518c-1.829 0-3.189 1.713-2.797 3.523l6.753 31.197c.288 1.332 1.451 2.28 2.796 2.28" fill="#102b44"/><path d="m226.725 125c3.312 0 5.999-2.638 5.999-5.892v-10.108h-12v10.108c0 3.254 2.686 5.892 6.001 5.892" fill="#ec9a9a"/><path d="m216.724 100.754c0 7.192 3.519 11.246 9.042 11.246 5.524 0 10.958-4.054 10.958-11.246 0-7.1911 0-14.754-10.001-14.754-9.999 0-9.999 7.5629-9.999 14.754" fill="#f0b2af"/><path d="m240.724 98.37c0 3.328-4 3.63-4 3.63v-5.8081s4-1.1495 4 2.1781" fill="#f0b2af"/><path d="m238.724 99.5803c0 2.2177-2 2.4197-2 2.4197v-3.8721s2-.7662 2 1.4524" fill="#ec9a9a"/><path d="m222.724 97c0 .5518-.448 1-1 1s-1-.4482-1-1c0-.5524.448-1 1-1s1 .4476 1 1" fill="#fffffe"/><path d="m229.724 96.9996c0 .5527-.448 1.0004-1 1.0004s-1-.4477-1-1.0004c0-.5519.448-.9996 1-.9996s1 .4477 1 .9996" fill="#201e2b"/><path d="m222.724 96.9996c0 .5527-.447 1.0004-1 1.0004-.552 0-1-.4477-1-1.0004 0-.5519.448-.9996 1-.9996.553 0 1 .4477 1 .9996" fill="#201e2b"/><path d="m227.724 107c-2 2.25-4 0-4 0z" fill="#fffffe"/><path d="m226.724 98v6c-4.5 0 0-6 0-6" fill="#e78287"/><path d="m233.724 103c0 1.657-1.343 3-3 3s-3-1.343-3-3 1.343-3 3-3 3 1.343 3 3" fill="#ec9a9a"/><path d="m220.412 100c1.277 0 2.312 1.343 2.312 3s-1.035 3-2.312 3c-.443 0-.853-.17-1.205-.452-.292-1.349-.453-2.885-.483-4.584.422-.59 1.019-.964 1.688-.964" fill="#ec9a9a"/><path d="m254.468 196.681s-2.871 10.211-1.246 11.097c1.624.886 2.01-2.563 2.01-2.563s.66 7.107 1.935 6.774c1.277-.333 1.057-2.168 1.057-2.168s.258.762.918.589c.659-.172.67-1.495.835-1.537.582 1.168 1.738.257 1.315-1.223 1.085 1.071 1.594-.247 1.386-2.46s-.705-9.19-.705-9.19" fill="#f0b2af"/><path d="m193.513 146.248c-.478-1.1-5.883 2.756-5.883 2.756s2.229-2.368.693-2.972c-1.06-.417-4.068 3.371-5.833 5.759-.833 1.128-.999 2.637-.437 3.934.956 2.204 3.603 2.963 5.51 1.579 1.661-1.206 3.427-2.485 4.212-3.044 1.684-1.2 2.333-2.358.968-2.472 1.286-.601 1.284-1.969.131-1.668-.061-.142.869-.954.623-1.523-.246-.568-.931-.287-.931-.287s1.423-.961.947-2.062" fill="#f0b2af"/><path d="m229.931 85.0045c-1.189-1.1752-2.024-2.7552-2.18-4.5064-.122-1.3775.12-3.0033 1.578-3.998 2.916-1.9901 11.801 2.1958 10.205 8.367-1.316 5.0837-6.583 3.1248-9.603.1374" fill="#2c609d"/><path d="m239.711 91.8583c-.45-10.0158-12.348-15.263-20.639-9.4159-1.617 1.1397-2.92 2.5151-3.442 4.1423-2.537 7.9234-4.535 7.1149-3.722 9.841.812 2.7266 5.212 1.9283 6.16-2.5266.948-4.4548 10.355-1.1102 14.891-5.5657 0 5.0542 2.701 10.5797 5.757 7.5783.763-.7502 1.077-2.2404.995-4.0534" fill="#2c609d"/></g><path d="m228.724 80.0251s6.399-.7523 10 5.9749" stroke="#102b44" stroke-width=".621"/><path clip-rule="evenodd" d="m221.111 116s1.344 5.453 5.536 5.453c4.193 0 5.674-5.453 5.674-5.453s2.656 6.028-5.674 14c-8.106-7.894-5.536-14-5.536-14" fill="#fde9e2" fill-rule="evenodd"/><path clip-rule="evenodd" d="m212.724 181.492 7.5-7.492 2.5 2.496-7.512 7.504z" fill="#e8849d" fill-rule="evenodd"/><path clip-rule="evenodd" d="m248.724 181.492-7.501-7.492-2.499 2.496 7.512 7.504z" fill="#e8849d" fill-rule="evenodd"/><path clip-rule="evenodd" d="m112.724 230h48v-46h-42.544z" fill="#f7cec1" fill-rule="evenodd"/><path clip-rule="evenodd" d="m138.724 170h-20l.811 128h15.142z" fill="#102b44" fill-rule="evenodd"/><path clip-rule="evenodd" d="m119.354 297c-7.207 2.533-6.619 6-6.619 6h22.774l.215-6z" fill="#0c2339" fill-rule="evenodd"/><path clip-rule="evenodd" d="m156.189 171.117-17.465-1.117 4.435 128h15.565z" fill="#102b44" fill-rule="evenodd"/><path clip-rule="evenodd" d="m159.109 297h-16.385l.294 6h22.694s.588-3.467-6.603-6" fill="#0c2339" fill-rule="evenodd"/><path clip-rule="evenodd" d="m156.638 136.428s7.419-34.428-16.529-34.428c-12.011 0-19.105 5.814-18.588 20.615.579 16.623-1.797 52.385-1.797 52.385h37.588z" fill="#42b8eb" fill-rule="evenodd"/><path clip-rule="evenodd" d="m131.724 104s-24 3.138-24 50.421c0 17.959 14.38 28.579 14.38 28.579l5.661-5.647s-22.953-23.226 3.959-50.073z" fill="#fde9e2" fill-rule="evenodd"/><path clip-rule="evenodd" d="m146.724 104s24 3.138 24 50.421c0 17.959-14.38 28.579-14.38 28.579l-5.661-5.647s22.953-23.226-3.959-50.073z" fill="#fde9e2" fill-rule="evenodd"/><path clip-rule="evenodd" d="m138.676 102v.003c-.942.037-8.952.572-8.952 8.068 0 7.487 8.088 18.837 9.048 19.929.96-1.092 8.952-12.442 8.952-19.929 0-7.496-8.105-8.034-9.048-8.071z" fill-rule="evenodd" stroke="#201e2b" stroke-width=".621"/><path clip-rule="evenodd" d="m133.724 138h10v-6h-10z" fill="#fffffe" fill-rule="evenodd"/><path d="m139.224 130v2" stroke="#201e2b" stroke-width=".621"/><path clip-rule="evenodd" d="m135.724 134h2v-2h-2z" fill="#f7cec1" fill-rule="evenodd"/><path clip-rule="evenodd" d="m138.724 133.794h4v-.588h-4z" fill="#fde9e2" fill-rule="evenodd"/><path clip-rule="evenodd" d="m138.724 133.793h4v-.586h-4z" fill="#fde9e2" fill-rule="evenodd"/><path clip-rule="evenodd" d="m138.724 133.794h4v-.588h-4z" fill="#fde9e2" fill-rule="evenodd"/><path clip-rule="evenodd" d="m138.724 135.794h4v-.588h-4z" fill="#fde9e2" fill-rule="evenodd"/><path clip-rule="evenodd" d="m135.724 135.794h2v-.588h-2z" fill="#f7cec1" fill-rule="evenodd"/><path clip-rule="evenodd" d="m130.724 104v126h-20l10-112.267 8.977-13.533" fill="#fde9e2" fill-rule="evenodd"/><path clip-rule="evenodd" d="m146.323 104-1.599 126h24l-9.987-112.446z" fill="#fde9e2" fill-rule="evenodd"/><path clip-rule="evenodd" d="m130.877 170-4.153-65.481 6-2.519z" fill="#f7cec1" fill-rule="evenodd"/><path clip-rule="evenodd" d="m151.725 141h7.993s.325 10-3.913 10c-4.24 0-4.08-10-4.08-10" fill="#f7cec1" fill-rule="evenodd"/><path clip-rule="evenodd" d="m146.851 170 4.873-64.612-6-3.388z" fill="#f7cec1" fill-rule="evenodd"/><path d="m125.797 117.831-.772-.08v.005zm2.649-5.318.183-.754h-.001zm.843 6.002-.758-.166-.004.017-.003.017zm0 11.437c-.228-.741-.228-.741-.227-.742h.002c.001-.001.002-.001.003-.001.002-.001.004-.001.005-.002.003 0 .005-.001.005-.001.002-.001 0 0-.005.001-.012.003-.036.007-.071.011-.071.008-.181.011-.314-.011-.247-.042-.634-.184-1.029-.691-.84-1.075-1.749-3.831-1.088-10.609l-1.545-.151c-.665 6.827.172 10.131 1.41 11.716.643.823 1.378 1.16 1.992 1.265.298.05.554.044.741.024.094-.01.172-.024.231-.037.03-.006.054-.012.074-.017.01-.003.019-.005.026-.008.004-.001.007-.002.01-.003.002 0 .003 0 .005-.001h.002c.001-.001.002-.001-.227-.743zm-3.492-12.121c.772.08.772.08.772.08s0-.001 0-.002c.001-.002.001-.005.001-.01.001-.01.003-.024.005-.044.005-.039.012-.098.022-.173.019-.151.049-.367.092-.625.085-.52.219-1.198.41-1.853.195-.67.433-1.247.698-1.613.264-.365.403-.339.467-.324l.364-1.508c-.959-.232-1.663.335-2.088.921-.424.585-.72 1.368-.931 2.089-.215.737-.36 1.481-.452 2.036-.045.279-.078.513-.099.678-.011.083-.019.148-.024.194-.003.023-.005.041-.006.053-.001.007-.002.011-.002.015v.004c0 .001 0 .001-.001.002s0 0 .772.08zm2.467-4.564c.116.028.292.138.434.615.14.467.183 1.104.162 1.793-.022.677-.103 1.347-.182 1.853-.038.252-.076.46-.103.604-.014.071-.025.127-.033.164-.004.019-.007.033-.009.042-.001.004-.001.007-.002.009v.002s0 0 .758.166c.758.165.758.165.758.165 0-.001.001-.001.001-.002s0-.002.001-.004c0-.003.001-.008.003-.014.002-.012.006-.029.01-.051.009-.044.022-.107.037-.186.03-.16.071-.386.113-.658.084-.542.175-1.28.199-2.041.024-.749-.015-1.582-.226-2.287-.207-.695-.649-1.459-1.556-1.678zm.26 5.116c-1.157 6.709-2.76 9.104-3.847 9.9-.511.374-.917.403-1.166.375-.134-.015-.239-.049-.306-.077-.033-.013-.055-.025-.065-.03-.006-.003-.008-.004-.006-.004 0 .001.002.002.004.003s.003.002.005.003c0 0 .001.001.002.002.001 0 .002 0 .002.001.001 0 .001.001-.423.65-.425.65-.424.65-.423.651 0 0 .001.001.002.001.001.001.002.002.004.002.002.002.005.004.009.006.006.004.014.009.022.014.018.011.04.023.067.038.053.028.124.063.211.099.174.071.419.149.719.183.619.071 1.419-.049 2.259-.665 1.616-1.183 3.295-4.135 4.46-10.888zm-.078-5.87c.774-.053.774-.053.774-.053 0 .001.001.001.001.001s-.001-.001-.001-.002c0-.003 0-.008 0-.015-.001-.015-.002-.04-.003-.073-.002-.066-.004-.168-.002-.3.003-.263.02-.646.077-1.107.113-.925.381-2.147.991-3.358.608-1.206 1.554-2.401 3.036-3.3 1.484-.899 3.551-1.53 6.447-1.53v-1.552c-3.126 0-5.483.683-7.251 1.755-1.769 1.073-2.901 2.505-3.618 3.928-.714 1.417-1.018 2.824-1.146 3.869-.064.525-.084.964-.088 1.275-.002.156 0 .28.002.368.002.043.003.078.005.103 0 .012.001.022.001.029 0 .004.001.007.001.01v.003.001c0 .001 0 .001.774-.052zm11.32-9.737c2.812 0 4.586.934 5.777 2.34 1.224 1.446 1.905 3.476 2.325 5.789.422 2.317.563 4.775.795 7.087.225 2.243.54 4.417 1.386 5.911l1.35-.764c-.659-1.166-.962-3.011-1.192-5.302-.223-2.221-.375-4.812-.812-7.21-.437-2.402-1.179-4.756-2.668-6.514-1.522-1.797-3.752-2.889-6.961-2.889z" fill="#df5057"/><g clip-rule="evenodd" fill-rule="evenodd"><path d="m120.724 129c0 .552.447 1 .999 1 .553 0 1.001-.448 1.001-1s-.448-1-1.001-1c-.552 0-.999.448-.999 1" fill="#1d2621"/><path d="m149.724 122c0 1.105.895 2 2 2s2-.895 2-2c0-1.104-.895-2-2-2s-2 .896-2 2" fill="#1d2621"/><path d="m150.724 124c0 .552.447 1 1 1 .552 0 1-.448 1-1 0-.553-.448-1-1-1-.553 0-1 .447-1 1" fill="#dddad2"/><path d="m128.724 129c0 .553.448 1 .999 1 .553 0 1.001-.447 1.001-1 0-.552-.448-1-1.001-1-.551 0-.999.448-.999 1" fill="#1d2621"/><path d="m139.725 112c3.312 0 5.999-2.638 5.999-5.893v-10.107h-12v10.107c0 3.255 2.686 5.893 6.001 5.893" fill="#ec9a9a"/><path d="m129.724 88.7543c0 7.1915 3.519 11.2457 9.042 11.2457s10.958-4.0542 10.958-11.2457c0-7.191 0-14.7543-10-14.7543s-10 7.5633-10 14.7543" fill="#f0b2af"/><path d="m151.724 88.37c0 3.3276-4 3.63-4 3.63v-5.8081s4-1.1495 4 2.1781" fill="#f0b2af"/><path d="m151.724 87.5797c0 2.2184-2 2.4203-2 2.4203v-3.8719s2-.7668 2 1.4516" fill="#ec9a9a"/><path d="m142.724 87.0003c0 .552-.448.9997-1 .9997s-1-.4477-1-.9997c0-.5526.448-1.0003 1-1.0003s1 .4477 1 1.0003" fill="#fffffe"/><path d="m135.724 87.0003c0 .552-.448.9997-1 .9997s-1-.4477-1-.9997c0-.5526.448-1.0003 1-1.0003s1 .4477 1 1.0003" fill="#fffffe"/><path d="m142.724 87.0004c0 .5519-.447.9996-1.001.9996-.551 0-.999-.4477-.999-.9996 0-.5527.448-1.0004.999-1.0004.554 0 1.001.4477 1.001 1.0004" fill="#201e2b"/><path d="m135.724 87.0004c0 .5519-.449.9996-1.001.9996s-.999-.4477-.999-.9996c0-.5527.447-1.0004.999-1.0004s1.001.4477 1.001 1.0004" fill="#201e2b"/><path d="m138.724 86v6c-4.5 0 0-6 0-6" fill="#e78287"/><path d="m146.724 90.9997c0 1.657-1.343 3.0003-3 3.0003-1.656 0-3-1.3433-3-3.0003s1.344-2.9997 3-2.9997c1.657 0 3 1.3427 3 2.9997" fill="#ec9a9a"/><path d="m131.412 88c1.277 0 2.312 1.3427 2.312 2.9997s-1.035 3.0003-2.312 3.0003c-.443 0-.853-.1705-1.205-.4515-.292-1.35-.453-2.8858-.483-4.5848.422-.5894 1.019-.9637 1.688-.9637" fill="#ec9a9a"/><path d="m150.147 86.7588s-.545 1.7266-1.955 1.107c-1.411-.6197-1.22-8.0936-9.036-8.5707-2.977 6.7213-9.063 7.6641-10.843 5.9019-1.781-1.7623.132-13.197 10.542-13.197s13.248 8.2882 11.292 14.7588" fill="#102b44"/><path d="m121.724 182.492 7.501-7.492 2.499 2.497-7.512 7.503z" fill="#f7cec1"/><path d="m159.724 182.492-7.501-7.492-2.499 2.497 7.511 7.503z" fill="#f7cec1"/><path d="m146.724 173h-15v2h14.968z" fill="#0b1f33"/><path d="m146.174 104.344-.508-.344c0 5.188-5.941 6.912-5.941 6.912s-5.943-1.724-5.943-6.912l-.509.344c-3.005 2.035-3.472 6.124-.764 8.482 1.58 1.376 3.895 1.873 7.216-.36 3.318 2.233 5.634 1.736 7.214.36 2.708-2.358 2.241-6.447-.765-8.482" fill="#33a3d4"/></g><path d="m129.028 173.787-7.53 8 .452.426 7.53-8zm22.939.426 7.531 8 .452-.426-7.53-8z" fill="#102b44"/><path clip-rule="evenodd" d="m139.787 94.4957h-2.126s-1.732.1054-1.732-1.0929c0-.7779.829-.9475 2.795-.9519 1.966.0044 2.794.174 2.794.9519 0 1.1983-1.731 1.0929-1.731 1.0929zm4.937.7875c0-1.8131-1.324-3.2832-2.957-3.2832h-6.086c-1.633 0-2.957 1.4701-2.957 3.2832 0 3.6565 2.63 6.6818 5.921 6.7158v.001h.079.079v-.001c3.291-.034 5.921-3.0593 5.921-6.7158z" fill="#102b44" fill-rule="evenodd"/></g></g></svg>