<svg height="185" viewBox="0 0 171 185" width="171" xmlns="http://www.w3.org/2000/svg" xmlns:xlink="http://www.w3.org/1999/xlink"><mask id="a" fill="#fff"><path d="m7.39493686 18.1049075-7.27570723-1.0393225.0485917-.2996488 7.22306623.9902808zm-.0661387-5.6870286-1.76504851-3.44641132.82515906-4.90506217c.07648693-.45442238-.2857012-.81526074-.68928227-.81526074-.12147925 0-.24655788.03239447-.36488767.10528202h-.00044992c-.14622503.04499231-.27175359.06298924-.37793545.06298924-.40133145 0-.53540855-.25285681-.53540855-.25285681l-.80581235 5.51830741-2.56681156 2.61810277.07153778-.4431743 2.23161881-2.26131371 1.20129481-7.29505393-.2915502-.04769185c-.28075205-.04634209-.47061962-.31134682-.42472745-.59164894.04139292-.25240689.26005557-.4314763.50796323-.4314763.02744531 0 .05579047.00224961.08413563.00674885l2.98658986.49221592c.28075204.04589216.47061961.31089689.42472745.59164894-.04184285.25195696-.26005558.43102638-.50751331.43102638-.02744531 0-.05579047-.00224962-.08413563-.00719878l-.2915502-.04769185-1.18464765 7.19427114 1.54863548 2.84621383z" fill="#fff" fill-rule="evenodd"/></mask><g fill="none" fill-rule="evenodd" transform="matrix(-1 0 0 1 170.2 0)"><path d="m0 .3096266h169.597853v143.7827444h-169.597853z"/><path d="m160.889818 66.1683977c4.010165-8.5278433 1.747952-19.8915523-5.408076-25.8818291-4.876267-4.0817028-11.537829-5.8197559-15.477356-10.8746425-3.615133-4.6373579-4.137943-11.0514623-6.670111-16.4068975-3.493653-7.39043763-11.12345-12.47186967-19.051546-12.68738286-7.463775-.20336526-14.4357839 3.51120025-21.6610998 5.46431664-18.7892406 5.07918242-47.0898565-1.89237676-54.9887073 22.46511272-1.8685308 5.7626157-2.9469966 11.925663-6.1405511 17.0228423-3.6304299 5.7950102-9.5518685 9.5208237-15.1921051 13.1953461-5.6402365 3.6740724-11.43074747 7.7530757-14.50642211 13.8846284-3.07522472 6.1315526-2.33870052 14.8825579 3.31503376 18.5341341 5.18986355 3.3519275 12.90289605 1.6696648 16.95940315 6.4159041 3.9521249 4.6234099 1.6107249 11.7816879 1.9913599 17.9505839.4481234 7.274357 5.1961624 13.827038 11.3583098 17.321591 6.1616975 3.495003 13.5323386 4.197783 20.4764524 3.117968 10.7891571-1.676864 21.1819319-7.43453 32.0102323-6.056866 12.8628531 1.637721 23.1710421 13.025275 36.0680891 14.3422 8.241242.841357 16.787983-2.906503 21.9531-9.626555 5.164668-6.720502 6.786641-16.203982 4.165839-24.359289-2.075496-6.458197-6.649414-12.4147298-6.060465-19.1950717.835057-9.6265557 11.207136-14.8402651 16.051458-23.0945552.29245-.4985148.561504-1.0096275.807162-1.5315384" fill="#0e57cb"/><path d="m154.419923 85.0363749c-1.291729.3288938-2.476827 1.1877971-3.255643 2.681092-.790515 1.516241-.767119 3.3397795-.070638 4.894264 1.125707 2.5137206 4.451539 4.285518 7.185722 3.225949 2.63655-1.0226753 3.623231-4.1536905 2.946547-6.6993557-.824259-3.0999705-4.056957-4.8015798-6.805988-4.1019493" fill="#0e57cb"/><path d="m165.632908 75.3949717c-1.517141.2627551-2.86781 1.4249066-2.767477 3.3960199.089535 1.7538005 1.764148 3.2673419 3.518849 3.1845561 1.7538-.0832358 3.27679-1.7443521 3.211551-3.4990523-.089085-2.4214864-2.145683-3.3964699-3.962923-3.0815237" fill="#0e57cb"/><path d="m10.3365344 40.2019831c-1.28183104-.3644378-2.73778235-.2173129-4.16133919.6825334-1.44560308.9137939-2.34140006 2.5024725-2.52046948 4.1964332-.28930058 2.7386822 1.69621027 5.9416851 4.5928155 6.3992569 2.79357287.4404748 5.21955847-1.7713474 5.91288997-4.3120634.8449557-3.0945714-1.0951129-6.1900427-3.8238968-6.9661601" fill="#0e57cb"/><path d="m25.5146918 37.6518187c-.8566537-.2438584-1.8289376-.1457751-2.7796252.4553222-.9650851.6105457-1.5639329 1.6714645-1.6831625 2.8030212-.1934669 1.8289376 1.1324566 3.9683222 3.0671261 4.27382 1.8662812.2942497 3.4860046-1.1832979 3.9498753-2.8799581.5637537-2.0669469-.731575-4.1338939-2.5542137-4.6522053" fill="#0e57cb"/><path d="m15.1124686 26.6759435c-1.0438217-.3869339-2.3094555-.1507243-2.962294 1.1171591-.5808508 1.1284073-.0841356 2.6824418 1.042472 3.2677919 1.1261576.5849001 2.681092.0998829 3.2776901-1.0204257.8229094-1.5454861-.1079816-2.9015544-1.3578681-3.3645253" fill="#0e57cb"/><path d="m117.110946 180.006603c0 2.6343-14.466379 4.769185-32.3121306 4.769185-17.8453018 0-32.3116808-2.134885-32.3116808-4.769185 0-2.6334 14.466379-4.768736 32.3116808-4.768736 17.8457516 0 32.3121306 2.135336 32.3121306 4.768736" fill="#0e57cb"/><path d="m93.4643353 31.3205001c-.421578-.9830821-1.5612333-3.6173821-2.4138377-3.8994839l-2.5542137.7896151c-2.6450982.5439571-3.038781 3.6083837-2.9074034 5.9052413.1300278 2.271662 1.6944106 6.118055 4.4951822 5.801759 2.0795448-.2348598 3.8328953-2.0925925 4.1815857-4.1221958.2663545-1.5468358-.1957166-3.0635268-.8013131-4.4749357" fill="#091523"/><path d="m90.2914772 39.2859395c-.0139476-1.6764136-.1975162-3.3447286-.6136951-4.9685013-.8283086-3.231348-2.6401491-6.2813771-5.374782-8.1913008-4.3017152-3.0045868-11.5427783-2.3557976-14.6112542 2.2586142-1.159002 1.7430023-1.6120746 3.9413268-1.2368387 6.000625.6316921 3.4648582 3.4702572 6.5126376 3.0140351 10.0049411-.1970663 1.5094921-1.0028787 2.8642107-1.8446849 4.1325441-.8422561 1.2678834-1.7529006 2.5254186-2.2082228 3.9777705-.4553222 1.4528019-.3729863 3.1773573.6280927 4.3237615.9110944 1.0438217 2.4840257 1.5319883 2.973992 2.827767.4467737 1.1810482-.2258614 2.4651289-.889498 3.5395454-1.7277049 2.7967223-3.5507935 5.5345046-5.4656664 8.2065982 4.285068-1.5036432 8.1836521-4.0934008 11.2305317-7.4601757.2834516 1.0132269.5669031 2.0269038.8503547 3.0405806 2.3153045-1.2795814 4.1680881-3.2596932 5.7635156-5.3702827 3.828396-5.0661346 6.3893586-11.0838567 7.3845886-17.3557854.2600556-1.63952.4134794-3.3069352.3995317-4.9667017" fill="#091523"/><path d="m72.2887023 179.693456.23396.00225c.6942315.005849 1.3632672.308197 1.8199392.836857 1.0438217 1.200845 3.8081495 1.191847 5.3419375.848555.0827859-.014847.157923-.038693.2411588-.061639.6514887-.184919.8130112-1.038873.269504-1.448303l-5.4040269-4.362455c-.0049492-.024746.005849-.120579.0310447-.270854l-3.1593604.069739c-.1061819.367587-.1831187.617294-.1831187.617294-.4080803 1.747952-.9839819 3.758658.8089618 3.768556" fill="#091523"/><path d="m91.7325811 179.693456.23396.00225c.6942314.005849 1.3628172.308197 1.8199392.836857 1.0433717 1.200845 3.8081495 1.191847 5.3419375.848555.0827859-.014847.1583729-.038693.2411588-.061639.6514884-.184919.8130114-1.038873.269504-1.448303l-5.403577-4.362455c-.0053991-.024746.005399-.120579.0301448-.270854l-3.1584605.069739c-.1066318.367587-.1835686.617294-.1835686.617294-.4080803 1.747952-.983982 3.758658.8089618 3.768556" fill="#091523"/><path d="m107.48754 34.3705291c-3.408168 0-6.219738-2.5447653-6.644915-5.8332536-.038693-.2834516-.05579-.5714024-.05579-.8638524 0-3.7010678 3.000087-6.7011554 6.700705-6.7011554.664986 0 1.307027.099433 1.912173.2821018.130478.0796364.285702.1628722.46927.2465579 0 0 2.28696.8049125 3.645278 3.2538442.377485.7752176.608296 1.6350207.657787 2.5447653.008549.1246288.012598.2492575.012598.3738862 0 .3243946-.022946.6433901-.067488.9556367l-.363988.0674885c.088635-.4233777.134977-.8629526.134977-1.3124258 0-.1192296-.00405-.2380093-.012598-.357239-.570503.0737874-1.141905.1682713-1.688112.2092143-.121929.0089984-.246558.0130478-.372986.0130478-.280752 0-.570053-.0184469-.858453-.0368937-.288851-.0184469-.576802-.0368937-.856204-.0368937-.339242 0-.665437.0274453-.963736.1142804-1.084314.3122467-1.905874 1.2566354-3.035631 1.4375045-.080086.0130478-.157923.0188968-.23351.0188968-.945739 0-1.599477-.9214426-2.542966-.9632855-.091334-.0035994-.179069-.0053991-.264105-.0053991-.604247 0-1.072617.093584-1.670564.3419416-.085936.0368937-.168272.0656888-.250158.0904346.406731 3.1422632 3.092772 5.5736479 6.349766 5.5736479 2.587508 0 4.814177-1.5346878 5.822905-3.7415609l-.127328 1.1540529c-1.180149 1.9049746-3.288938 3.1746577-5.696927 3.1746577m-.896247-8.6578711c-.504364 0-.913344.4089801-.913344.913344 0 .5043638.40898.913344.913344.913344s.913344-.4089802.913344-.913344c0-.5043639-.40898-.913344-.913344-.913344m2.197875-.6762345c-.041393 0-.083686.0044992-.125979.0143975-.301898.0688383-.490866.3698369-.421578.6717353.05939.2600556.290651.4359755.546207.4359755.041393 0 .083686-.0044992.125528-.0139476.301899-.0692881.490867-.3702867.422028-.6721852-.05939-.2596056-.29065-.4359755-.546206-.4359755m-.898047-1.9243213c-.041393 0-.083686.0044992-.125978.0143975-.301899.0688383-.490417.3698369-.421578.6717353.059389.2596057.2902.4359755.546206.4359755.041393 0 .083236-.0044992.125529-.0143975.301898-.0688382.490866-.3698368.421578-.6717353-.05894-.2600555-.290201-.4359755-.545757-.4359755m8.42886-3.8481927c-.128678-.2438583-.266804-.4467737-.415729-.5956982 0 0 .154774-1.3763149-.490866-1.9423183l.636641-.6366412-.206064-.2105641c-.202016-.2024654-.202016-.5291096 0-.7266258.101232-.1012327.23216-.1516241.363088-.1516241.131377 0 .262305.0503914.363537.1516241l2.140285 2.1407343c.202465.1975163.202465.5241605 0 .726176-.100783.1012327-.23216.1516241-.363088.1516241s-.262305-.0503914-.363088-.1516241l-.211014-.2105641zm-1.400161-.1016826-1.465849-.2447582c.425627-.6883824.728425-.9259418.943489-.9259418.477368 0 .52236 1.1707.52236 1.1707" fill="#e4f3f4"/><path d="m89.7052274 48.310498c-.4557722 5.4071764-2.9316993 5.2137095-7.3845887-.4643206.2146134-.2492575.3608384-.5673531.4724194-.9799327.0215963-.0647889.0386933-.1336271.0517411-.2024654v-.0125978c.0386934-.2537567.0562404-.4989648.0688383-.7221267.017097-.3738861-.0557905-1.4271562-.1633221-2.5362168-.1421758-1.422657-.3522899-2.944747-.5205611-3.2538442l5.7774631 2.3598469.2024654 2.230719c.0422928.4085302.0728876.825609.0854854 1.2507864.0130478.1075316.0170971.2150632.0215963.3225949.0085486.1160801.0170971.2321603.0215964.3482405.0085485.1588228.0125978.3221449.017097.4854671.0085486.3783853.1894177.7180773.4769186.9241421.1592728.1160802.3396919.1894176.550256.2065147z" fill="#ec9b88"/><path d="m88.3383609 46.6511815-.6483393-.3779355c-2.4012398-1.4001608-4.4438909-3.4626085-5.4278729-6.0622645l-.0323944-.0719877 5.7774631 2.3598469.2024654 2.230719c.0422928.4085302.0728876.825609.0854854 1.2507864.0130478.1075316.0170971.2150632.0215963.3225949.0085486.1160801.0170971.2321603.0215964.3482405" fill="#e15c41"/><path d="m70.6109389 161.629492c.3824347 5.531355.7644194 11.35876.9173933 14.264363l3.2475453-.269953 6.8365822-40.682501 2.804371-23.706001 1.1567524.137226 5.526406 64.333162 3.1710584-.127779c.515162-3.675872 1.5297387-12.072338 2.3449994-18.929166.3675872-3.063527.550706-6.1482.550706-9.227474 0-3.777555-.275353-7.55556-.8206599-11.30252-.2447581-1.656617-.2551064-3.344278-.0256456-5.001345l2.6257515-28.523778c.0454423-.366687.076487-.738774.0917843-1.126158h-28.5800182c0 .377036.0152974.754071.040943 1.126158.0049492.05669.0049492.107532.0103483.163322l1.9472673 29.864549c.1372266 1.835236.040943 3.68577-.3212451 5.495811-1.5495353 7.723831-2.0700964 15.636179-1.5243396 23.512084" fill="#00475d"/><path d="m79.0964895 39.8757888c-.6762345-1.124358-.8706013-2.8367655.1129307-3.2556439.2933499-.1250787.6735349-.1255286 1.0753163-.0359939-.3752359-3.705567.9259418-8.3969157 3.3834221-9.4438869 3.2151508-1.369566 6.6156699-.6775842 9.9262045 7.7274301 1.3097263 3.325382.1808691 7.6522929-2.8813079 9.2859639-2.3013569 1.2273903-6.0096235-.4656705-8.2583394-2.7958225-1.1792485.0458922-2.5011227-.0562404-3.3582263-1.4820468" fill="#ec9b88"/><path d="m91.4432805 36.0743881c-.714028.0454422-1.3515691-.5759016-1.4033103-1.3866631-.0521911-.8107616.4931158-1.5085924 1.2147925-1.5549344.3437413-.0242959.6820835.1070817.9461884.3639878.2695039.2623052.4323761.6253932.4575718 1.0226753.0521911.8107615-.4926658 1.5085923-1.2152424 1.5549344zm-4.537475 1.3007278c-.345091.0211464-.6816335-.1070817-.9457384-.3639878-.2699539-.2627551-.4323762-.6258431-.4580218-1.0226753v-.0004499c-.0256456-.3968323.0890848-.7779172.3234948-1.0726168.2285609-.2884008.5457567-.4598215.8912977-.4818677l.076037-.0026996c.3185456 0 .6249433.1286781.8697015.3666874.2699539.2627551.4328261.6258431.4580217 1.0226753.0521911.8112115-.4926658 1.5085923-1.2147925 1.5549344zm6.0735126-3.401419v-1.6003766c0-.1187797-.0962835-.2150633-.2146133-.2150633-.1192296 0-.2150633.0962836-.2150633.2150633v.8728509l-.0490416-.0575902c-.3522898-.3423915-.802213-.5138122-1.2732825-.4850171-.9583363.0616394-1.6840624.9641853-1.6165739 2.0111565v.0004499c.0107982.1709708.0490416.3315933.0980833.4868168-.1048321-.0251957-.2132636-.0373436-.3252945-.0337442-.3540895.0089984-.6532884.1385763-.8764503.3486904-.0787365-.3945826-.263205-.7536212-.5448569-1.0276244-.3522898-.3428415-.801763-.5142622-1.2728326-.4850172-.46837.0301449-.8948971.2587058-1.2003949.64384-.3005487.3783854-.4481235.8643024-.415729 1.3673165.005849.0908844.0238459.1781695.040493.2654546l-5.6613829.2708538.0202465.4229277 5.7657652-.2753529c.1003328.2326102.2411588.4436242.4220279.6199941.3257443.3167459.737424.4881666 1.1680005.4881666l.105282-.0035994c.6658862-.0427427 1.2120929-.4958153 1.4649498-1.1171592l.0274453-.0652388c.05849-.1597228.0980832-.3284439.1142804-.5057137.1570232-.3153961.4764687-.5192113.8539542-.5286597.2020155-.0094484.4260772.0562404.6055965.1943668.3261943.4413746.8206599.7252761 1.3677664.7252761l.1034823-.0031494c.9578864-.0620894 1.6836125-.9641853 1.616124-2.0116064-.0112481-.1804192-.0530909-.3522898-.1079816-.5183115z" fill="#091523"/><path d="m92.0299803 27.9096327c-.081886-.433276-.3536396-.7180773-.6807337-.9623856-1.4361547-1.0838648-3.1598103-1.6314213-4.8974135-1.621523-1.7056587.0098983-3.413117.5102128-4.8794166 1.4725985-1.481147.971834-2.7080874 2.4556805-3.2183002 4.290917-.667686 2.4021397-.6451898 8.213797 4.5932654 10.5601462-.1223791-.6676859-.1007828-1.4091593-.0724376-2.0912428.0611895-1.4474027.2713036-2.9636437.7473223-4.3179124.2969493-.8454056.6600373-1.668315 1.2093934-2.3472491.3063977-.3788353.6406906-.7288755.972284-1.0820651.3356426-.357689.6726351-.7140281 1.0109773-1.0699173.1561233-.1646719.5435071-.6762345.7698185-.6591374-.0683883.3054978-.3374424.6559879-.4575719.9650851-.1453251.375236-.5691527 1.1131099-.5201111 1.5157911.0035994.0269954 5.8116573-1.6543674 5.4355215-4.5748185z" fill="#091523"/><path d="m91.2516132 40.1583405c.205165-.0661387.3284439-.1223791.3333931-.1250786.1084315-.0508413.1543236-.1799693.1039322-.2884008-.0517411-.1075316-.1714207-.1601726-.2893005-.1034823-.0976334.047242-2.4678285 1.1248079-3.8513422-1.0717169-.0638891-.1012327-.1957166-.1336272-.2996488-.0679384-.1007828.0638891-.1309276.1979662-.0674885.2991989 1.2638341 2.0048575 3.2794898 1.6111748 4.0704547 1.3574181" fill="#091523"/><path d="m86.3591489 36.1310784c.099433.3734362.4544224.602897.7936645.5129124.339242-.0899846.5340587-.4656704.4350756-.8391067-.099433-.3729863-.4544223-.602897-.7936644-.5124624-.339242.0895347-.5336088.4652205-.4350757.8386567" fill="#091523"/><path d="m90.5677301 34.9198853c.0985331.3734362.4544223.6033469.7932145.5133623.339242-.0904345.5340587-.4661204.4350756-.8391067-.098983-.3734362-.4544223-.6033469-.7936644-.5129123-.339242.0899846-.5340588.4656704-.4346257.8386567" fill="#091523"/><path d="m84.520313 35.2501289c.0805363-.0170971.1475748-.0796364.1664716-.1651218.2996488-1.3448203 1.5144413-1.1567524 1.5666324-1.1486538.1178798.0197966.2285609-.0593899.2497073-.1777196.0197966-.1178799-.0598397-.2299108-.1786195-.2492575-.5768014-.0976333-1.7511009.088185-2.0615478 1.481597-.0260956.1165301.0476918.2326102.1651218.2587058z" fill="#091523"/><path d="m89.9162413 32.7328089c.0598398.0328444.1372266.0301448.1961665-.0139476.9286414-.6897322 1.5972272.0967334 1.6251224.1309276.064339.0769369.1786195.087735.2569062.0242959.0773867-.0643391.087735-.1790695.023396-.2569062-.3126966-.3783853-1.1608018-.9047954-2.1227375-.1907674-.0809861.0598398-.0976333.1741203-.0373436.2546565z" fill="#091523"/><path d="m90.5119396 38.3613475c-.1084315.0197966-.2114639-.0512913-.2317104-.1592728-.0197967-.1079816.0508413-.2119138.1592728-.2326103.0031494-.0008998.3761357-.0787365.4346257-.2978491.0278953-.1012327.0179969-.398182-.649689-.9785829-.0832358-.0719877-.0913344-.1979662-.0193467-.280752.0719877-.0827859.1979662-.0917843.2816519-.0202466.6253932.5435072.8786999.9965798.772968 1.3848635-.1268784.4647706-.7216768.5799509-.7468725.5844502z" fill="#091523"/><path d="m99.0370834 101.469368h-28.5804701c-.0040474-8.7303088 6.2030924-18.3159215 6.2030924-18.3159215l.1025825-.1633221c.2578059-.3909832.4733191-.7995134.6316921-1.2336893.3144963-.8211097.4602714-1.6980099.421578-2.5834587-.0170971-.3351927-.0602897-.661837-.1241788-.9974796-.7657692-3.7222142-2.1236373-10.204257-2.523619-11.1886889-.2704038-.6703855-.485917-1.3497694-.6316921-2.0332027l-.0130477-.0557904c-.2492575-1.1819482-.2969493-2.3854926-.1030324-3.6277304.2407088-1.4829467.6834332-2.9272.953837-4.4101467.339692-1.8356864-.017097-5.7041257-.017097-5.7041257s5.4161748-2.4970734 6.697106-3.1593603c.1588229-.0773868.2533068-.1331773.2668044-.1502743 4.4528894 5.6780301 6.9288165 5.871497 7.3845887.4643206l.4427244.0598398.3437412.017547 2.0161057.0728876c.3783853.0170971.7522715.0341941 1.1306568.0472419 2.0975418.1160802 1.6201733 3.5764391 1.809141 4.9347571.5160619 3.7609076 2.1794277 7.4192327 1.5000438 11.2660756-.515162 2.9015544-3.6191818 12.0183472-4.6634534 15.0661266-.111581.3009986-.193467.5412575-.2497074.7090789-.0809862.2150632-.1156302.4341758-.1070817.6577876.0085485.3869339.1502743.76082.3738861 1.0744165.0557905.081886.1205794.1678213.1889678.2623052 1.8914769 2.6905404 6.7875406 12.1821191 6.5468317 18.9908062" fill="#e15c41"/><path d="m86.593109 77.3422391-10.5911909 65.7229739-4.2517738-2.652297c-1.1513533-.718077-2.148833-1.629172-2.9483464-2.673443-1.5477356-1.999009-2.3985403-4.496082-2.3512984-7.100688.2105641-12.079086 2.7337331-37.2810815 10.7891571-53.1723671l-2.7035882-12.5128127-.0130477-.0557904c-.2492575-1.1819482-.2969493-2.3854926-.1030324-3.6277304.2407088-1.4829467.6834332-2.9272.953837-4.4101467.081886-.4512729.1250787-1.0402223.1381264-1.6723643.0427427-1.9126233-.1633221-4.203632-.1633221-4.203632l6.7052047-2.9874897 2.2352182 5.9961258c2.7769257 7.4493775 3.5674407 15.4962531 2.3040565 23.3496616" fill="#fffffe"/><path d="m79.3547454 82.6225372c-2.7859242 6.3443663-7.1056363 21.1270408-10.5529475 55.0112038-1.5477356-1.998559-2.3985403-4.496082-2.3512984-7.100687.2105641-12.078187 2.7337331-37.2801826 10.7891571-53.1719181l-2.7035882-12.5128127-.0130477-.0557905c-.2492575-1.1819481-.2969493-2.3854925-.1030324-3.6277303.2407088-1.4829467.6834332-2.9272.953837-4.4101467.081886-.4512729.1250787-1.0402223.1381264-1.6723644 1.3578681 4.7498387 3.2147009 11.1032035 4.6292593 15.9173812 1.1306569 3.8472928.8206598 7.9519417-.7864656 11.6228647" fill="#bae0e4"/><path d="m113.453971 18.9174687c1.371366-2.2181211 1.465849.2447582 1.465849.2447582zm2.450281-.2492574s.305048-2.7080875-1.723655-2.0889932c0 0-1.908574.9196429-1.908574 2.0889932 0 0-1.848285.9241421-1.538737 1.908574l-1.040223-.1718707c-.498965-.081886-.739673.579951-.305048.8422562.133178.081886.292.1678213.480968.2537566 0 0 4.371903 1.5387372 4.616662 6.8343326l-.038694.2321604 3.301086-.6060465v-2.0889932s-.489966-5.8503507-1.843785-7.2041694" fill="#ec9b88"/><path d="m117.748037 27.9613739v19.2526614c0 .2150633-.017097.4256273-.05579.6321421-.219113 1.3020775-1.11311 2.4156373-2.376944 2.8930058l-3.176458 1.2030945-16.5490728 6.2800273-3.0000875-9.7574833 18.9426643-2.2779609 1.921622-17.434522.99298-.1849184z" fill="#fffffe"/><path d="m112.138845 51.9422777-16.5490728 6.2800273-1.1738495-3.8166981z" fill="#bae0e4"/><path d="m91.0810924 48.2704549c-.0638891.2717536 2.0480501 7.1389306 3.4288643 11.6665072.8265088 2.7080874.9281914 5.5830964.2964993 8.342475l-2.9307994 12.7962643.7140281 61.5233916 5.5853459-4.141093c2.1591814-1.511742 3.4270644-3.993968 3.3901714-6.629168-.147575-10.503906-1.148204-37.7777969-7.4327308-50.3099563l3.9714716-13.0329238c.8746506-2.8705097.7630696-5.9515834-.316296-8.7514552l-4.1415426-11.3965533z" fill="#fffffe"/><path d="m82.2297543 80.8196951v.0040493l-.0251957-.0040493z" fill="#92d1e0"/><path d="m.11922963 18.1049075h7.76657339v-17.87229723h-7.76657339z" fill="#f7d1c5" mask="url(#a)" transform="translate(84.585552 71.987704)"/><path d="m84.7047815 89.0532887-2.1051904-.3009986c-.9875813-.1408259-1.393412-1.3457201-.6928817-2.0556988l3.7987012-3.8490925-.0715378.4431743-3.2704914 3.3361801c-.2614053.2663545-.3383422.6636366-.1948167 1.0082778l.1322774.3180956c.1264284.3050479.4053808.5201112.7329248.5646536l1.7196063.2357597z" fill="#fffffe"/><path d="m93.4391396 90.2883278c-.05849 0-.1183298-.0040493-.1795194-.0125979l-1.2791315-.1831187-.0040493-.3486904 1.1050113.1516241c.0422928.005849.0845855.0085485.1264284.0085485.2830016 0 .5534055-.1291279.731575-.3549894.2245117-.2857012.2623052-.6762344.0967335-.9997292l-2.1218376-4.1437922-.0080986-.6780342 2.5924572 4.7646862c.4481235.8233593-.1646719 1.7960932-1.059569 1.7960932" fill="#fffffe"/><path d="m91.9764394 89.7439208-7.2230662-.9902809.8804996-5.4629668 2.5668116-2.6181028.8058123-5.5183075s.1340771.2528568.5354086.2528568c.1061818 0 .2317104-.0179969.3779354-.0629892h.0004499c.1183298-.0728875.2434085-.105282.3648877-.105282.4035811 0 .7657692.3608384.6892823.8152607l-.8251591 4.9050622 1.7650485 3.4464113z" fill="#00a395"/><path d="m84.7533732 88.7536399-1.7196063-.2357597c-.327544-.0445424-.6064964-.2596057-.7329248-.5646536l-.1322774-.3180956c-.1435255-.3446412-.0665886-.7419233.1948167-1.0082778l3.2704914-3.3361801z" fill="#00a7a2"/><path d="m93.2078791 89.9040934c-.0418429 0-.0841356-.0026995-.1264284-.0085485l-1.1050113-.1516241-.0620894-5.3383382 2.1218376 4.1437922c.1655717.3234948.1277782.714028-.0967335.9997292-.1781695.2258615-.4485734.3549894-.731575.3549894" fill="#00a7a2"/><path d="m86.8234696 86.5895096c0 .5723022-.4638708 1.036173-1.0357231 1.036173-.5727521 0-1.0366229-.4638708-1.0366229-1.036173 0-.5723023.4638708-1.036173 1.0366229-1.036173.5718523 0 1.0357231.4638707 1.0357231 1.036173" fill="#00afb0"/><path d="m93.2740178 88.3086659c0 .5723023-.4638708 1.036173-1.036173 1.036173-.5723023 0-1.036173-.4638707-1.036173-1.036173 0-.5723022.4638707-1.036173 1.036173-1.036173.5723022 0 1.036173.4638708 1.036173 1.036173" fill="#00afb0"/><path d="m87.3975715 83.5534282c0 .2645548-.2146133.4791681-.4791681.4791681-.2641049 0-.4787182-.2146133-.4787182-.4791681s.2146133-.4787183.4787182-.4787183c.2645548 0 .4791681.2141635.4791681.4787183" fill="#00afb0"/><path d="m89.1702688 84.3371943c.0841356.0841356.0841356.2200124 0 .304148-.0836858.0836857-.2200125.0836857-.3041481 0-.0836857-.0841356-.0836857-.2200124 0-.304148.0841356-.0841356.2204623-.0841356.3041481 0" fill="#00afb0"/><path d="m88.9156123 81.1022469c.0841356.0841356.0841356.2200124 0 .304148-.0841357.0836857-.2195625.0836857-.3036982 0-.0836857-.0841356-.0836857-.2200124 0-.304148.0841357-.0836857.2195625-.0836857.3036982 0" fill="#00afb0"/><path d="m83.624516 87.0169366c.0841357.0836857.0841357.2200124 0 .304148-.0836857.0836857-.2200124.0836857-.304148 0-.0836857-.0841356-.0836857-.2204623 0-.304148.0841356-.0841357.2204623-.0841357.304148 0" fill="#00afb0"/><path d="m89.6701334 76.2399274c.0836857.0841356.0836857.2200124 0 .304148-.0841357.0836857-.2204624.0836857-.3041481 0-.0841356-.0841356-.0841356-.2200124 0-.304148.0836857-.0836857.2200124-.0836857.3041481 0" fill="#00afb0"/><path d="m92.1748555 85.8799808c.0841357.0841356.0841357.2200124 0 .304148-.0841356.0836857-.2200124.0836857-.304148 0-.0836857-.0841356-.0836857-.2200124 0-.304148.0841356-.0836857.2200124-.0836857.304148 0" fill="#00afb0"/><path d="m88.7675875 87.6256826c0 .2524069-.2042651.456672-.456672.456672-.2519569 0-.4571219-.2042651-.4571219-.456672s.205165-.456672.4571219-.456672c.2524069 0 .456672.2042651.456672.456672" fill="#00afb0"/><path d="m90.2887777 77.6274904c0 .2645548-.2146133.4787182-.4791682.4787182-.2645548 0-.4787182-.2141634-.4787182-.4787182s.2141634-.4791682.4787182-.4791682c.2645549 0 .4791682.2146134.4791682.4791682" fill="#00afb0"/><path d="m89.7821642 82.6783276c0 .2645549-.2146133.4791682-.4791681.4791682s-.4787182-.2146133-.4787182-.4791682c0-.2645548.2141634-.4787182.4787182-.4787182s.4791681.2141634.4791681.4787182" fill="#00afb0"/><path d="m90.901573 86.0320548c0 .2645548-.2146133.4787182-.4791681.4787182-.2641049 0-.4787183-.2141634-.4787183-.4787182s.2146134-.4787182.4787183-.4787182c.2645548 0 .4791681.2141634.4791681.4787182" fill="#00afb0"/><path d="m89.9436866 79.2989549c0 .3536396-.2870509.6406905-.6406905.6406905-.3540895 0-.6411405-.2870509-.6411405-.6406905 0-.3540895.287051-.6411405.6411405-.6411405.3536396 0 .6406905.287051.6406905.6411405" fill="#00afb0"/><path d="m82.2297543 80.8237444-.6748848 4.9990961s-16.9009131-.8512546-18.8526797-4.0317613c-.3567891-.3612883-.6316921-.8085119-.7738678-1.3110761-2.8111199-9.8222722 13.4203076-29.4960617 13.4203076-29.4960617 1.6030762.8598031 2.2779609 3.735262 2.5488147 6.2800273.0728875.678934.1156302 1.3322224.1417258 1.9211718.0688382 1.5603335-.3783854 3.0950214-1.2809312 4.3714533-3.1035699 4.4020481-7.6815379 11.919814-8.6956647 13.5917284l-.0085486.017547c-.1250786.2105641-.1934669.322145-.1934669.322145.1376765.1160802.3437413.2321604.6060465.3612883l.017097.0085485h.0085486c.1979662.0728876 1.6593166.5889494 3.6533759 1.1778988 3.2884883.8337076 7.5911034 1.5945277 10.0589319 1.7834954z" fill="#fffffe"/><path d="m76.7582389 63.5565938c-3.1035699 4.4020481-7.6815379 11.919814-8.6956647 13.5917284.2618552-.5367583 7.0493959-14.4168874 9.8348701-19.8843535.0728875.678934.1156302 1.3322224.1417258 1.9216218.0688382 1.5598835-.3783854 3.0945714-1.2809312 4.3710033" fill="#bae0e4"/><path d="m95.7746906 77.1312252c-.1336271.1160801-.5246103.098983-.9844318.017097-.9502377-.1628721-2.2005741-.5759016-2.2005741-.5759016l-.4688199.2065147c.825159 1.2723827.7437229 2.4327345.6100957 3.0432802-.0341941.1547736-.2407088.1718706-.3135964.0341942-.046792-.0944839-.0944838-.1844685-.1457751-.2663545l-.0044992-.0130478c-.146225-.2447582-.2839015-.4256273-.2839015-.4256273l.0044992.0301448v.0044993c.0773868.4512729-.0170971 1.0100774-.1120309 1.422657-.0386933.1592728-.2492574.1934669-.3351927.0557904-.0899846-.1502743-.2015656-.2964993-.29245-.4125795l-.0040494-.0085485c-.1115809-.1331773-.1889677-.2191126-.1889677-.2191126l.0256456.0904345v.0040494c.0643391.2236118.0944839.421128.1030324.5974979.017547.3009986-.3608383.4386751-.5412575.193467-.9326907-1.2768819-1.8316371-1.3241239-2.3171042-1.2206415-.2146134.0472419-.3995318.1718706-.5286597.3482405l-2.4844756 3.283989c-.2281111.2964994-.5502561.5070634-.9110944.5844502-.8944472.1889677-1.7794461.339692-2.6482477.4512729l.4769186-3.5332465c.5205611.0341942.9547369.047242 1.2813811.0301449.3311434-.0170971.6361913-.1894177.825159-.4598215l2.7643279-3.9980171c.2488075-.3608383.6658862-.5673531 1.1045613-.5412575l1.9342196.1115809 2.4502815-.8121113z" fill="#ec9b88"/><path d="m91.0549968 80.024231.0256456.0904345c-.4337259-.7653192-1.2980282-1.8698806-2.6307006-1.7668482 0 0 1.7879946-1.1261576 2.7940227 1.8955263-.1115809-.1331773-.1889677-.2191126-.1889677-.2191126" fill="#e15c41"/><path d="m91.9831883 79.1513801.0044992.0301448c-.4512729-.7563208-1.293979-1.7578497-2.5663616-1.6588666 0 0 1.8527835-1.164851 2.8457639 2.0543491-.146225-.2447582-.2839015-.4256273-.2839015-.4256273" fill="#e15c41"/><path d="m94.7902588 77.1483222c-.9502377-.1628721-2.2005741-.5759016-2.2005741-.5759016l-.4688199.2065147-.3783854-.1934669.8512546-.193467s1.2849805.4899663 2.1965248.7563208" fill="#e15c41"/><g transform="translate(100.782785 26.995389)"><path d="m6.70610452 6.78799054c-3.25699367 0-5.94303486-2.4313847-6.34976539-5.57364796.08188602-.02474578.16422195-.05354086.25015727-.09043456.59794787-.24835757 1.06631787-.34194159 1.67056465-.34194159.08503548 0 .17277049.00179969.26410489.00539908.94348884.04184285 1.59722718.96328546 2.54296564.96328546.07558708 0 .15342379-.005849.23351011-.01889677 1.12975702-.18086911 1.95131669-1.1252578 3.03563148-1.43750446.29829905-.08683517.62449333-.11428048.96373538-.11428048.27940228 0 .56735309.01844685.85620375.0368937.2884007.01844685.5777013.0368937.8584534.0368937.1264284 0 .2510571-.00404931.3729863-.01304778.5462067-.040943 1.1176091-.13542686 1.6881116-.20921426.0085486.11922964.0125979.23800935.0125979.35723898 0 .44947323-.0463421.88904814-.134977 1.31242582l-.2991989.05579047-.1421757 1.28947975c-1.0087277 2.20687304-3.23539735 3.7415609-5.82290538 3.7415609z"/><path d="m.35633913 6.78799054h12.74902237v-6.75649592h-12.74902237z" fill="#8074a8"/></g><path d="m113.311795 30.0418185.142176-1.2894797.299199-.0557905c-.097634.4692699-.247008.9196429-.441375 1.3452702" fill="#8475a9"/><path d="m104.821295 30.9245677c0 .5043639-.40898.913344-.913344.913344-.504363 0-.913344-.4089801-.913344-.913344 0-.5048137.408981-.9137939.913344-.9137939.504364 0 .913344.4089802.913344.9137939" fill="#665b98"/><path d="m103.893554 29.0780831c.069288.3018985-.11968.6028971-.421578.6721852-.301899.0688383-.602897-.1196795-.672185-.4220279-.068839-.3018984.120129-.602897.422028-.6721852.301898-.0688382.602897.1201295.671735.4220279" fill="#665b98"/><path d="m106.591293 27.539346c-.504364 0-.913344-.4089802-.913344-.913344 0-.5043639.40898-.913344.913344-.913344s.913344.4089801.913344.913344c0 .5043638-.40898.913344-.913344.913344" fill="#8074a8"/><path d="m107.889771 24.2342105c-.256006 0-.486817-.1763698-.546206-.4359755-.068839-.3018984.119679-.602897.421578-.6717353.042292-.0098983.084585-.0143975.125978-.0143975.255556 0 .486817.17592.545757.4359755.069288.3018985-.11968.6028971-.421578.6717353-.042293.0098983-.084136.0143975-.125529.0143975" fill="#8074a8"/><path d="m108.787818 26.1585318c-.255556 0-.486817-.1759199-.546207-.4359755-.069288-.3018984.11968-.602897.421578-.6717353.042293-.0098983.084586-.0143975.125979-.0143975.255556 0 .486816.1763699.546206.4359755.068839.3018985-.120129.6028971-.422028.6721852-.041842.0094484-.084135.0139476-.125528.0139476" fill="#8074a8"/><path d="m63.5093519 92.0106336h-21.7501848c-.357239 0-.6460897-.2893006-.6460897-.6460897 0-.356789.2888507-.6460896.6460897-.6460896h21.7501848c.3567891 0 .6465396.2893006.6465396.6460896 0 .3567891-.2897505.6460897-.6465396.6460897" fill="#091523"/><path d="m45.6046602 91.3645439h-.8121113l-4.923059 12.0930341h.8121112z" fill="#091523"/><path d="m59.8330299 91.3645439h.8121113l4.923059 12.0930341h-.8116613z" fill="#091523"/><path d="m60.5673044 97.1878993c.0044993 1.0442716-.2623051 1.908574-.9758833 2.6905404-.6919818.7657693-1.8181394 1.2296403-2.8669103 1.0487713-.0733374-.012598-.1417258-.029695-.2146133-.046792-.2411588-.06029-.4647706-.189418-.649689-.35679-.6789341.386484-1.5000438.554306-2.2649132.35679-.0773867-.021597-.1507242-.047692-.2236118-.077387-.3612882.210564-.8422561.206065-1.2296399.038693l-.0859353-.047242c-.0773868.034194-.1547736.064339-.2321604.085936-.7819664.201565-1.615674.021596-2.3076558-.378386-.1853684.180419-.421578.313597-.6667861.378386-.0728876.017097-.1417258.034194-.2150633.046792-1.0487708.180869-2.1744786-.283002-2.8709596-1.0487713-.7135781-.7819664-.9758833-1.6462688-.9758833-2.6905404.0040493-.7045797.0562404-1.3839636.1417258-2.0759454.0557905-.451273-.046792-1.1432548.1160802-1.5432364.8166105 1.1864473 1.6723643 2.1452335 2.7382322 3.0689257.0170971-.5111127.0557905-1.0145767.1205794-1.5256893.0553406-.451273-.0476918-1.1432548.111581-1.5432364.7734179 1.1171591 1.5774305 2.0332027 2.5573632 2.9101029.146225-.3612883.3522898-.7009803.614595-1.0406723.4341758-.5583546.889948-1.0613687 1.3844135-1.5558342.3180957-.3266442.661837-.9326907 1.0312239-1.1518033-.0854854 1.5733813.035094 2.9618441.374336 4.496082.0859353-.0773867.1718707-.1547735.2537567-.2236118 1.2719327-1.0402223 2.2433168-2.0889931 3.1679089-3.4342633.1628721.3999816.0602897 1.0919634.1160801 1.5432364.0602897.4940156.0989831.9839819.1201295 1.4784474 1.0357231-.9115443 1.8739299-1.8568328 2.6783925-3.0216838.1588229.3999816.0557905 1.0919634.1156303 1.5432364.0859353.6919818.1376764 1.3713657.1376764 2.0759454" fill="#e15c41"/><path d="m54.2629813 100.963654c-.2240617 0-.4481235-.026545-.667686-.083235-.0458921-.012598-.0904345-.026996-.1340771-.042743v-.514262c0-.204715-.1660216-.370737-.3707366-.370737h-.2735533c-.205165 0-.3711866.166022-.3711866.370737v.612345c-.1048321-.020696-.2069646-.052191-.3036981-.094034l-.0859353-.047242c-.0773868.034194-.1547736.064339-.2321604.085936-.2195625.05669-.4431743.083235-.6667861.083235-.2506072 0-.5007645-.033294-.7450727-.094933l.5399077-.510663c.1543237-.145775.0508414-.405381-.1615224-.405381h-2.5389163c-.0143975-.1160802-.0206965-.2366596-.0206965-.3617382 0-.3999817.029695-.7828663.0773868-1.1693503.0341942-.2578059-.0260955-.6447398.064339-.872401.4643207.6703855.9457385 1.212093 1.5427865 1.7317542.0130478-.2875008.0346441-.5714024.0692882-.8593532.0341941-.2578059-.0260956-.6447398.064339-.872401.4386751.6316921.889948 1.1473041 1.4442533 1.6417696.081886-.2020155.1979662-.3954824.3437413-.5889494.2452081-.3135964.5030141-.5974979.7824163-.8769002.1804192-.1804192.3738862-.5246104.5804009-.6487892-.0472419.8894981.0215963 1.6719144.210564 2.5362168.047242-.0431926.0989831-.0863852.1417258-.1250786.7180774-.5884995 1.2683334-1.1819481 1.7884445-1.938269.0899847.2276612.0341942.6145951.0638891.872401.035094.2749031.0562404.5547553.0692882.8296583.5844502-.5115626 1.0573194-1.0442716 1.5085923-1.7020593.0899846.2276612.0341942.6145951.064339.872401.0517412.386484.0814361.7693686.0814361 1.1693503 0 .1250786-.0062989.245658-.0211464.3617382h-1.6854121c-.2123637 0-.315846.259606-.1619723.405381l.3248445.306847c-.4143792.189868-.8679018.298749-1.3214243.298749" fill="#e88460"/><path d="m47.5307812 103.50572h-1.9558159c-.1295779 0-.2348599-.105282-.2348599-.23486v-3.083323c0-.129578.105282-.23486.2348599-.23486h5.2155091c.2123638 0 .3158461.259606.1615224.405381l-3.2596932 3.083323c-.0436425.041393-.1016826.064339-.1615224.064339" fill="#091523"/><path d="m58.6807767 103.50572h1.9558159c.1295779 0 .2348599-.105282.2348599-.23486v-3.083323c0-.129578-.105282-.23486-.2348599-.23486h-5.2150592c-.2123637 0-.315846.259606-.1619723.405381l3.2596932 3.083323c.0436425.041393.1016826.064339.1615224.064339" fill="#091523"/><path d="m53.0904816 103.759027h-.2735533c-.205165 0-.3711866-.165572-.3711866-.370287v-3.065326c0-.204715.1660216-.370737.3711866-.370737h.2735533c.204715 0 .3707366.166022.3707366.370737v3.065326c0 .204715-.1660216.370287-.3707366.370287" fill="#091523"/><path d="m53.6744818 95.433199c-.035094-.310447-.0602897-.6199941-.0764869-.9326907 1.2921793-.0814361 2.5335172-.3509401 3.6970185-.7815165-.3243946.462521-.655538.889948-1.0046784 1.2948788-.8436059.2191126-1.7178066.3617382-2.6158532.4193284m-2.4408331-.0535409c-.7302252-.0796364-1.4433534-.2150632-2.1353352-.4026812-.3527398-.4107798-.6879325-.8449557-1.0172763-1.3142255 1.2210915.4688199 2.5303678.7599202 3.8958846.8409064-.2564562.280752-.5030141.5705025-.7432731.8760003m6.2629303-.7387738c.0008998-.3365425.0125978-.70233-.0638891-.9736337.9781329-.374786 1.8991256-.8634025 2.7476806-1.4496524l.3599386.884099c-.9398895.6303424-1.961215 1.1500036-3.0437301 1.5391871m-9.5743646-.0395932c-1.0690174-.3945826-2.0772952-.9164935-3.0054867-1.5472857l.3599386-.884099c.8386567.5875996 1.750201 1.0798155 2.7175358 1.4591008-.0832358.2641048-.0737874.6303423-.0719877.9722839m13.2479871-1.9472674-.2618553-.6433901h1.05372c-.2564562.2240617-.5196612.4382251-.7918647.6433901m-16.8811166-.0521911c-.2479076-.1894176-.4886165-.3860341-.7230265-.591199h.9637354zm18.9696598-1.8833783h-1.2782316c1.9162226-1.9090239 3.2412463-4.4087969 3.6790215-7.2032696.2848014.093584.5849001.1844685.895797.2713037-.4364254 2.6316005-1.6080253 5.0148434-3.2965869 6.9319659m-19.7133827 0h-1.276432c-2.1690795-2.4628793-3.4851047-5.696027-3.4851047-9.2360224 0-7.4727735 5.8629485-13.5759811 13.2398885-13.9611153v.1106811h1.2161423v-.1219291c3.7595578.1259784 7.1434298 1.7362534 9.583363 4.2634717-.1174299.3387921-.2285609.6771343-.3315933 1.0118772-2.3895419-2.6693941-5.8629486-4.349857-9.7291382-4.349857-7.2082188 0-13.0540702 5.8413522-13.0540702 13.0459716 0 .6231435.0427427 1.2332393.1336271 1.8311872.4013315 2.8763587 1.7430023 5.4508189 3.7033175 7.405735" fill="#e4f3f4"/><path d="m66.5553316 83.7864884c-.3108969-.0868352-.6109956-.1777197-.895797-.2713037.1039323-.6627368.1579231-1.3421207.1579231-2.0336526 0-1.0748664-.129128-2.1191381-.3783854-3.1166177-.5165118-2.10744-1.545486-4.0137644-2.9474465-5.5794969.1030324-.3347429.2141634-.6730851.3315933-1.0118772 2.4277853 2.5150704 3.9210803 5.9371859 3.9210803 9.7088916 0 .784666-.064789 1.5544845-.1889678 2.3040565" fill="#fffffe"/><path d="m61.9620662 92.0106336h-1.05372l-.1030324-.2528568c.4121296-.3230448.8049125-.6699356 1.1751993-1.0393225h1.2782316c-.403581.4584717-.836857.889948-1.2966785 1.2921793m-17.4322724 0h-.9637354c-.4598214-.4022313-.8935473-.8337076-1.2971284-1.2921793h1.276432c.3504901.3495903.7203269.6784841 1.1086106.9866815z" fill="#bac5c6"/><path d="m44.9167277 93.0540054c-.2132635-.1448753-.4229277-.2960495-.6276428-.4521728l.3648877-.8966968c.2029154.1610725.4107799.315846.6226937.4647706z" fill="#bac5c6"/><path d="m60.5403091 93.1016972-.3599386-.884099c.2123638-.1471248.421578-.3009985.6249433-.4598214l.3648877.8962469c-.2056149.1547736-.415729.304148-.6298924.4476735" fill="#bac5c6"/><path d="m52.7638374 95.462444c-.5169617 0-1.0276245-.0283452-1.5301887-.0827859.240259-.3054978.4868169-.5952483.7432731-.8760003.2600556.0152973.5219108.023396.7855658.023396.280752 0 .5592545-.0089985.8355073-.0265455.0161972.3126966.0413929.6222437.0764869.9326907-.3009986.0193467-.6046967.029245-.9106444.029245m3.5264976-.4485734c.3491404-.4049308.6802838-.8323578 1.0046784-1.2948788.0458922-.0170971.0922342-.0341942.1376765-.0517412.0764869.2713037.0647889.6370912.0638891.9736337-.3941327.1421757-.796364.2663545-1.206244.3729863m-7.1920215-.0368937c-.3995318-.1084315-.7918648-.2335101-1.1760991-.3756858-.0017997-.3419416-.0112481-.7081791.0719877-.9722839.029245.011698.0575901.0224961.0868351.0337442.3293438.4692698.6645365.9034457 1.0172763 1.3142255" fill="#f7d1c5"/><path d="m39.8420445 83.3127193c-.0908844-.5979479-.1336271-1.2080437-.1336271-1.8311872 0-7.2046194 5.8458514-13.0459716 13.0540702-13.0459716 3.8661896 0 7.3395963 1.6804629 9.7291382 4.349857-.8008632 2.6055049-1.1338064 5.0724335-.6973809 7.1515284-.8148108.7369741-1.7353536 1.0267246-2.6833417 1.0267246-1.0213255 0-2.0750455-.3360926-3.0639766-.8103116-.8112115-.3887336-1.5346879-.5875996-2.2271196-.5875996-.9619357 0-1.8649315.3837845-2.8619612 1.1760991-1.5090422 1.1994951-2.5924571 2.4718778-4.6382577 2.476377-.7779171 0-1.4829467-.1165301-2.2392675-.2839015-.7095288-.1547735-1.4361547-.5849001-2.1497328-.632142-.040943-.0026995-.0814361-.0040493-.122829-.0040493-.714478 0-1.4824968.4170787-1.9657143 1.0145767" fill="#fcfdfd"/><path d="m65.8174577 81.4815321c0-1.0748664-.129128-2.1191381-.3783854-3.1166177-1.2894797.0085486-2.5191197.5543053-3.641228 1.568882-.0008999.0013498-.0022497.0022497-.0035994.0031495-.4364255-2.0790949-.1034823-4.5460235.6973809-7.1515284 1.4019605 1.5657325 2.4309347 3.4720569 2.9474465 5.5794969.2492574.9974796.3783854 2.0417513.3783854 3.1166177" fill="#fffffe"/><path d="m51.9769218 94.5036578c-1.3655168-.0809862-2.6747931-.3720865-3.8958846-.8409064-.0215963-.0310447-.0436425-.0625393-.0652388-.0940339-.0080986.0193466-.0148475.0395932-.0215963.0602897-.9673348-.3792853-1.8788791-.8715012-2.7175358-1.4591008l.0652388-.1592728h14.7543298l.0841356.2069646c-.848555.5862499-1.7695477 1.0748664-2.7476806 1.4496524-.0094484-.0346441-.0206965-.0674885-.0332943-.0985331-.0346441.0503913-.0697381.1007827-.1043822.1502743-1.1635013.4305764-2.4048392.7000804-3.6970185.7815165-.0296949-.5750018-.0278953-1.1585521.0053991-1.7699977-.3693869.2191126-.7131282.8251591-1.0312239 1.1518033-.204715.204715-.4026812.4107798-.5952483.6213439m10.0035913-3.7852035h-18.4351511c-1.9603152-1.9549161-3.301986-4.5293763-3.7033175-7.405735.4832175-.597498 1.2512363-1.0145767 1.9657143-1.0145767.0413929 0 .081886.0013498.122829.0040493.7135781.0472419 1.440204.4773685 2.1497328.632142.7563208.1673714 1.4613504.2839015 2.2392675.2839015 2.0458006-.0044992 3.1292155-1.2768819 4.6382577-2.476377.9970297-.7923146 1.9000255-1.1760991 2.8619612-1.1760991.6924317 0 1.4159081.198866 2.2271196.5875996.9889311.474219 2.0426511.8103116 3.0639766.8103116.9479881 0 1.8685309-.2897505 2.6833417-1.0267246.0386934.1840186.0836857.3653376.1340771.5430572.1421757.5025642.4170787.9497878.7738678 1.3110761.4143792.6748847 1.5013935 1.2449374 2.9573448 1.7241055-.4377752 2.7944727-1.7627989 5.2942457-3.6790215 7.2032696" fill="#8274a8"/><path d="m65.6595346 83.5151847c-1.4559513-.4791681-2.5429656-1.0492208-2.9573448-1.7241055-.3567891-.3612883-.6316921-.8085119-.7738678-1.3110761-.0503914-.1777196-.0953837-.3590386-.1340771-.5430572.0013497-.0008998.0026995-.0017997.0035994-.0031495 1.1221083-1.0145767 2.3517483-1.5603334 3.641228-1.568882.2492574.9974796.3783854 2.0417513.3783854 3.1166177 0 .6915319-.0539908 1.3709158-.1579231 2.0336526" fill="#8475a9"/><path d="m60.0962349 92.0106336h-14.7543298l.2627551-.6460897h-.8121113l-.1385763.3405919c-.3882837-.3081974-.7581205-.6370912-1.1086106-.9866815h18.4351511c-.3702868.3693869-.7630697.7162777-1.1751993 1.0393225l-.1601726-.3932329h-.8121113z" fill="#8273a8"/><path d="m45.2766663 92.1699064c-.2119138-.1489246-.4197783-.3036981-.6226937-.4647706l.1385763-.3405919h.8121113l-.2627551.6460897z" fill="#8273a8"/><path d="m60.1803705 92.2175982-.0841356-.2069646-.263205-.6460897h.8121113l.1601726.3932329c-.2033653.1588229-.4125795.3126966-.6249433.4598214" fill="#8273a8"/><path d="m52.7624876 94.5270538c-.263655 0-.5255102-.0080987-.7855658-.023396.1925671-.2105641.3905333-.4166289.5952483-.6213439.3180957-.3266442.661837-.9326907 1.0312239-1.1518033-.0332944.6114456-.035094 1.1949959-.0053991 1.7699977-.2762528.017547-.5547553.0265455-.8355073.0265455m4.5325258-.808062c.0346441-.0494916.0697381-.099883.1043822-.1502743.0125978.0310446.0238459.063889.0332943.0985331-.0454423.017547-.0917843.0346441-.1376765.0517412m-9.2139762-.0562404c-.029245-.0112481-.0575901-.0220462-.0868351-.0337442.0067488-.0206965.0134977-.0409431.0215963-.0602897.0215963.0314946.0436425.0629892.0652388.0940339" fill="#8473a7"/><path d="m43.486872 103.278959h-1.2165922v-3.636729c0-.0269954-.0008999-.0539907-.0026996-.0805362l.6163948-1.5139914c.3752359.4256273.602897.9844318.602897 1.5945276zm-1.6800131-4.5797679c-.2011156-.1552235-.4535225-.2474577-.7275257-.2474577h-1.1689003c-.7648694 0-1.4829467-.3009986-2.0246542-.8427061-.5367583-.5417074-.8337076-1.2633842-.8296583-2.0287035l.0863853-21.7888782c-1.5990269-.3437413-2.798522-1.7623489-2.798522-3.4603589 0-1.7106078 1.2120929-3.137764 2.8241676-3.4729568l.0125978-2.9101029c-1.6201732-.3266442-2.8367654-1.7582997-2.8367654-3.4729568 0-1.7236556 1.2336892-3.1593603 2.862861-3.4734067l.0130477-2.9015544c-1.6377202-.3135964-2.8759087-1.7493012-2.8759087-3.477456 0-1.7362534 1.2507863-3.1809567 2.9015544-3.4815053v-.0130478c-.1417258-2.1020409-.211014-3.8211973-.1975163-5.1061778.0125978-1.6552673 1.3709158-3.0005375 3.0171846-3.0005375h9.9037084c1.8181394.0728876 3.1679089.3522899 4.0362605.8337076.597498.3351928.9457385.9673348.9070451 1.6593166-.0386934.7050296-.46837 1.311076-1.118059 1.5819298l-2.5398162 1.0532701c-.6708354.2794022-1.2426877.6487891-1.6939606 1.1000621-.386484.3869339-.6532885.7738678-.7995135 1.1608017-.1201295.3005487-.1673714.6060465-.1457751.9155936.0211464.322145.1201295.6316921.2623052.9241421.7216767-.8467553 2.1830271-2.2613137 3.9327783-2.3814432.0836857-.005849.1669214-.0089984.2497073-.0089984 1.0636183 0 2.0408514.4872667 2.9182015 1.4406539.6622869.7261759.6703855 1.7879946.0215963 2.7724264-.3180956.4724193-.7738678.9110944-1.3196245 1.2503364.9025458.5633038 1.4271562 1.5864291 1.2849805 2.6351999-.0814361.5889494-.3693869 1.2422378-1.1473041 1.6809129.4035811.2060648.7603702.5025642 1.0316738.872401.4553222.6276428.6231436 1.3839636.4638708 2.1276866-.1804192.8296582-.7819664 1.8914769-2.6477977 2.2226203-.3095472.0548906-.620894.0823359-.931341.0823359-1.0172762 0-2.0224045-.2933498-2.8984049-.8562037-.3050479-.1979662-.5763515-.4044809-.8211097-.6231436-.0170971.0512913-.0386934.1030324-.0557905.1588229-.5673531 1.6894614.1633221 3.1076192 2.183477 4.221179 1.293979.7131282 2.0975418 2.0588483 2.0975418 3.5031016v.1619724c-.1579231-.0053991-.3167459-.0080987-.4760187-.0080987-.2483576 0-.4949155.0067489-.7401236.0193467v-.1732204c0-1.0015289-.5633038-1.9342196-1.4703489-2.4372337-2.5357668-1.3970114-3.5116501-3.413117-2.7508301-5.67848.0944839-.2708538.2060648-.532709.339692-.7864657-.7869156-1.2422378-.8643024-2.7463309-.1939169-4.3970989-.6658862-.9974796-1.0141268-2.523169.1597227-4.6940482-.374336-.5673531-.6577876-1.2206415-.7099787-1.9427682v-.0260955c-.0638891-1.0613687.3702868-2.0673969 1.2984782-2.9960383.5673531-.5673531 1.2723827-1.0271745 2.0934924-1.3668665l2.5357669-1.0528202c.3225949-.1336271.3657875-.4341758.3698368-.5246104.0085485-.1075316-.0085485-.3693869-.2794023-.5241604-.485917-.2668044-1.4788974-.6019972-3.4689074-.679384h-9.8821121c-.9844318 0-1.7924938.8040127-1.8010423 1.7924938-.0130478 1.2593349.0562404 2.9528457.1975162 5.0332903v.0602897c1.6849622.2794023 2.9703927 1.7322041 2.9703927 3.4945531 0 1.7708975-1.3025276 3.2326978-2.9960383 3.4945531l-.0130478 2.8588117c1.7020593.2618553 3.0090861 1.7277049 3.0090861 3.4990523 0 1.7834954-1.3196246 3.2538442-3.0342818 3.5031016l-.0134977 2.8457639c1.7196063.2447582 3.0477795 1.7191564 3.0477795 3.507151 0 1.796993-1.341221 3.2754405-3.0729751 3.5076009l-.0863853 21.7456856c0 .4431743.1673714.8557538.4773685 1.164851.3090972.309997.7216767.4818677 1.1603518.4818677h1.1689003c.4350757 0 .843156.1160802 1.1954458.3185456zm11.4734902-42.1672474c-.8062622 0-1.6237726.2470078-2.4214863.7405735-.4814178.2920002-.8939973.6663362-1.2255907 1.0960128.2371095.2492574.5246104.4773685.8598031.6919818.6739849.4350757 1.4703489.661837 2.2631135.661837.2344099 0 .46837-.0197966.6987306-.0598398.9754334-.1763699 1.5175908-.5929987 1.6674152-1.2768819.0863853-.3995318-.0080986-.8121113-.257806-1.1563025-.2794022-.3824347-.7171775-.6316921-1.2035444-.678934-.1264284-.0121479-.2533067-.0184469-.380635-.0184469m-4.3948493-1.4860961c-.2407089.8382068-.2276611 1.5949775.0431927 2.265363.3693869-.4170787.8035627-.7779171 1.2939789-1.0789157.1633221-.1030324.3306935-.1934669.5025642-.2794023-.6834333-.1849184-1.3025275-.4899663-1.8397358-.907045m3.8369446-3.003687c-.8175103 0-1.6129745.3288939-2.3755942.9790328-.3648877.3095471-.661387.6492391-.8764503.9245921.046792.0427427.0944839.0859353.1457751.1241788.7054795.5592544 1.6210731.8598031 2.652297.8683516h.0265454c1.5301887 0 2.3553477-.3783853 2.4624294-1.1432547.0989831-.7221266-.404031-1.422657-1.1733995-1.633221-.2897505-.0800863-.5768015-.1196796-.8616029-.1196796m-3.7681063-1.6642657c-.4382252.9713841-.515612 1.826688-.2276611 2.5488146.2191125-.2578059.485917-.5372082.7995134-.8080619.274903-.2362097.5543053-.4427244.8422561-.614595-.1588228-.0944839-.3221449-.2020155-.4899663-.3266443-.2663545-.2020154-.5974979-.46837-.9241421-.7995134m4.0956504-3.2979367c-.0508413 0-.1021326.0017997-.1538737.0049492-1.3754151.0949338-2.7080875 1.4447032-3.3015361 2.201024.3743361.4125796.7657692.7306752 1.0145767.9200929.2668044.1975162.5115626.3306935.7477723.4166288.3207952.1142805.6469895.1655717.9673348.1655717 1.1068109 0 2.1470332-.6136952 2.6567961-1.3902625.1592728-.2411588.4899663-.8472053.0989831-1.2728326-.6465395-.7059294-1.3115259-1.0451715-2.0300532-1.0451715" fill="#e4f3f4"/><path d="m42.2675802 99.5616938c-.023396-.3509401-.198866-.6600373-.4607213-.8625027l.4679201-1.1495536c.2294608.1322774.4350757.3005486.609196.4980649z" fill="#bac5c6"/><path d="m53.2398561 67.6319977h-1.2161423v-.1106811c.2452081-.0125978.491766-.0193467.7401236-.0193467.1592728 0 .3180956.0026996.4760187.0080987z" fill="#fcfdfd"/><g fill="#665b98"><path d="m43.8657073 80.7684039c0 .5043638-.4089802.9137939-.913344.9137939-.5043639 0-.9137939-.4094301-.9137939-.9137939 0-.5043639.40943-.913344.9137939-.913344.5043638 0 .913344.4089801.913344.913344"/><path d="m56.0653734 86.6853432c0 .5043639-.4085302.913344-.912894.913344-.5048138 0-.913344-.4089801-.913344-.913344 0-.5043638.4085302-.913344.913344-.913344.5043638 0 .912894.4089802.912894.913344"/><path d="m51.2071033 91.1485808c0 .5043639-.4089802.9128941-.913344.9128941-.5048138 0-.913344-.4085302-.913344-.9128941 0-.5048137.4085302-.9137939.913344-.9137939.5043638 0 .913344.4089802.913344.9137939"/><path d="m61.8896286 76.0284635c0 .5048138-.4085302.913344-.9128941.913344-.5048138 0-.913344-.4085302-.913344-.913344 0-.5043638.4085302-.913344.913344-.913344.5043639 0 .9128941.4089802.9128941.913344"/><path d="m52.0997508 83.5871724c0 .5043639-.4089801.913344-.9137939.913344s-.913344-.4089801-.913344-.913344c0-.5043638.4085302-.913344.913344-.913344s.9137939.4089802.9137939.913344"/><path d="m53.9826792 75.2739424c0 .5043638-.4089802.913344-.913344.913344-.5043639 0-.913344-.4089802-.913344-.913344 0-.5043639.4089801-.913344.913344-.913344.5043638 0 .913344.4089801.913344.913344"/><path d="m47.784088 88.0558091c0 .5043639-.4089802.9128941-.913344.9128941-.5043639 0-.9137939-.4085302-.9137939-.9128941 0-.5048138.40943-.9137939.9137939-.9137939.5043638 0 .913344.4089801.913344.9137939"/><path d="m50.2726129 70.9560299c0 .5043639-.4089801.913344-.913344.913344-.5043638 0-.913344-.4089801-.913344-.913344 0-.5048137.4089802-.9137939.913344-.9137939.5043639 0 .913344.4089802.913344.9137939"/><path d="m48.6434412 74.1387863c0 .2375594-.1925671.4301265-.4296766.4301265s-.4296766-.1925671-.4296766-.4301265c0-.2371095.1925671-.4296766.4296766-.4296766s.4296766.1925671.4296766.4296766"/><path d="m57.4430381 75.5987869c0 .2371095-.1925671.4296766-.4296766.4296766-.2380093 0-.4301265-.1925671-.4301265-.4296766 0-.2375594.1921172-.4301265.4301265-.4301265.2371095 0 .4296766.1925671.4296766.4301265"/><path d="m63.5601932 81.6821978c0 .2371095-.1921172.4296766-.4296766.4296766s-.4301265-.1925671-.4301265-.4296766c0-.2375594.1925671-.4301265.4301265-.4301265s.4296766.1925671.4296766.4301265"/><path d="m43.8121664 85.2167941c0 .2371094-.1925671.4296766-.4296766.4296766-.2380093 0-.4301265-.1925672-.4301265-.4296766 0-.2375595.1921172-.4301266.4301265-.4301266.2371095 0 .4296766.1925671.4296766.4301266"/><path d="m56.9103291 82.9590797c0 .2371095-.1925671.4296766-.4296766.4296766s-.4296766-.1925671-.4296766-.4296766c0-.2375594.1925671-.4301265.4296766-.4301265s.4296766.1925671.4296766.4301265"/><path d="m51.1531125 87.5986872c0 .2375594-.1925671.4296766-.4296766.4296766s-.4296766-.1921172-.4296766-.4296766c0-.2371095.1925671-.4296766.4296766-.4296766s.4296766.1925671.4296766.4296766"/><path d="m59.2706259 88.9687032c0 .2375594-.1925671.4301265-.4296766.4301265-.2375594 0-.4301265-.1925671-.4301265-.4301265 0-.2371095.1925671-.4296766.4301265-.4296766.2371095 0 .4296766.1925671.4296766.4296766"/><path d="m53.6236405 70.9560299c0 .2371095-.1921172.4296766-.4301265.4296766-.2371095 0-.4296766-.1925671-.4296766-.4296766 0-.2375594.1925671-.4301265.4296766-.4301265.2380093 0 .4301265.1925671.4301265.4301265"/><path d="m46.0212891 77.0439401c.7293254-.269504 1.5391871.1039322 1.8082411.8332576.269504.7302253-.1039322 1.539637-.8332577 1.8086911-.7297753.269504-1.539637-.1034823-1.809141-.8337076-.2686041-.7293254.1043822-1.5391871.8341576-1.8082411"/><path d="m60.7540226 83.5979706c.7297753-.2690541 1.539637.1039322 1.8091409.8337076.2686042.7293254-.1043821 1.539187-.8341575 1.808691-.7293254.2690541-1.5391871-.1043822-1.8082411-.8337076-.269504-.7297753.1039322-1.539637.8332577-1.808691"/><path d="m55.9929358 89.8271566c.7297753-.269504 1.539637.1039322 1.809141.8337075.269054.7297754-.1043822 1.5391871-.8341575 1.8086911-.7293255.269054-1.5391871-.1039322-1.8082412-.8337076-.2695039-.7297753.1039323-1.539637.8332577-1.808691"/></g><path d="m40.9466059 50.5452663c0 1.7191564-1.3929621 3.1116685-3.1121184 3.1116685-1.7196063 0-3.1121185-1.3925121-3.1121185-3.1116685 0-.4602714.1030324-.9025458.2834516-1.293979.661837-.1804191 1.5558343-.0427427 1.972913.2492575.5633038.3914331.7693686.614595 1.4919452.5759016.726176-.0427427 1.4055599-.404031 2.1317359-.4553222.0688382-.0044993.1376765-.0044993.2020155 0 .0944838.2920001.1421757.6015472.1421757.9241421" fill="#ec9b88"/><path d="m40.9466059 60.4593229c0 1.7191563-1.3929621 3.1121184-3.1121184 3.1121184-1.7196063 0-3.1121185-1.3929621-3.1121185-3.1121184 0-.4602714.1030324-.9029958.2834516-1.293979.661837-.1804192 1.5558343-.0431926 1.972913.2492574.5633038.3909833.7693686.6145951 1.4919452.5759017.726176-.0427427 1.4055599-.404031 2.1317359-.4557722.0688382-.0040493.1376765-.0040493.2020155 0 .0944838.2924501.1421757.6019972.1421757.9245921" fill="#00a7a2"/><path d="m40.9466059 70.2815951c0 1.7191564-1.3929621 3.1121185-3.1121184 3.1121185-1.7196063 0-3.1121185-1.3929621-3.1121185-3.1121185 0-.4598214.1030324-.9029957.2834516-1.2939789.661837-.1804192 1.5558343-.0431927 1.972913.2492574.5633038.3914331.7693686.6150449 1.4919452.5759016.726176-.0427427 1.4055599-.404031 2.1317359-.4557721.0688382-.0040493.1376765-.0040493.2020155 0 .0944838.29245.1421757.6019971.1421757.924592" fill="#e15c41"/><path d="m33.8279218 74.4766786v-31.9764881h-.3518399v31.9764881h-.5345087v28.9808994h1.4213072v-28.9808994z" fill="#091523"/><path d="m33.4760819 45.2001793h5.6100918v-.3239446h-5.6100918z" fill="#091523"/><path d="m33.4760819 65.3621354h5.6100918v-.3243945h-5.6100918z" fill="#091523"/><path d="m33.4760819 76.2412772h5.6100918v-.3234948h-5.6100918z" fill="#091523"/><path d="m98.442285 102.04302h22.059732v-11.0019708h-22.059732zm24.438476-11.0019708v-1.4658496h-26.7699778v1.4658496h.6766845v11.0019708h-.6766845v1.46585h26.7699778v-1.46585h-.723927v-11.0019708z" fill="#00a190"/><path d="m103.945745 99.2125534v-8.1715042h2.174928v2.5789595c-.219112.0341941-.434175.0904345-.554305.0904345-.386934-.0040493-.579951-.2578059-.919643-.3437412-.032844-.0085486-.067488-.012148-.104382-.012148-.190767 0-.426977.1007828-.596598.1840186z" fill="#c2e4e8"/><path d="m105.033209 100.304517c-.601547 0-1.087464-.4904163-1.087464-1.0919636v-5.6739808c.169621-.0832358.405831-.1840186.596598-.1840186.036894 0 .071538.0035994.104382.012148.339692.0859353.532709.3396919.919643.3437412.12013 0 .335193-.0562404.554305-.0904345v5.5925447c0 .6015473-.485467 1.0919636-1.087464 1.0919636m-.301898-1.8514339c-.166472 0-.301449.1354269-.301449.3018985 0 .1664715.134977.3018984.301449.3018984.166921 0 .301898-.1354269.301898-.3018984 0-.1664716-.134977-.3018985-.301898-.3018985m.580401-2.6046051c-.166472 0-.301449.1354269-.301449.3018985 0 .1664715.134977.3018984.301449.3018984.166921 0 .301898-.1354269.301898-.3018984 0-.1664716-.134977-.3018985-.301898-.3018985m-.603347-1.8374861c-.166922 0-.301449.1354269-.301449.3018984 0 .1664716.134527.3018985.301449.3018985.166921 0 .301898-.1354269.301898-.3018985 0-.1664715-.134977-.3018984-.301898-.3018984" fill="#e3684e"/><path d="m104.708365 94.6147888c-.166922 0-.301449-.1354269-.301449-.3018985 0-.1664715.134527-.3018984.301449-.3018984.166921 0 .301898.1354269.301898.3018984 0 .1664716-.134977.3018985-.301898.3018985" fill="#ea8d6a"/><path d="m105.311712 96.4522749c-.166472 0-.301449-.1354269-.301449-.3018984 0-.1664716.134977-.3018985.301449-.3018985.166921 0 .301898.1354269.301898.3018985 0 .1664715-.134977.3018984-.301898.3018984" fill="#ea8d6a"/><path d="m104.731311 99.05688c-.166472 0-.301449-.1354269-.301449-.3018984 0-.1664716.134977-.3018985.301449-.3018985.166921 0 .301898.1354269.301898.3018985 0 .1664715-.134977.3018984-.301898.3018984" fill="#ea8d6a"/><path d="m106.20121 89.5751996h-2.336001c-.273104 0-.494916-.2218121-.494916-.4949155 0-.2735532.221812-.4949154.494916-.4949154h2.336001c.273103 0 .494465.2213622.494465.4949154 0 .2731034-.221362.4949155-.494465.4949155" fill="#c2e4e8"/><path d="m99.7074689 99.2125534v-8.1715042h2.1749281v3.8387443c-.219112.0341942-.434175.0899846-.554305.0899846-.386934-.0044992-.579951-.2578059-.919643-.3437413-.032394-.0085485-.067488-.0121479-.103932-.0121479-.191217 0-.4274271.1012327-.5970481.1840186z" fill="#c2e4e8"/><path d="m100.794933 100.304517c-.601547 0-1.0874641-.4904163-1.0874641-1.0919636v-4.4146459c.169621-.0827859.4058311-.1840186.5970481-.1840186.036444 0 .071538.0035994.103932.0121479.339692.0859354.532709.3392421.919643.3437413.12013 0 .335193-.0557904.554305-.0899846v4.3327599c0 .6015473-.485467 1.0919636-1.087464 1.0919636m.141726-1.7502011c-.166922 0-.301899.1349769-.301899.3018984 0 .1664716.134977.3014485.301899.3014485.166471 0 .301448-.1349769.301448-.3014485 0-.1669215-.134977-.3018984-.301448-.3018984m-.46837-1.5130916c-.166472 0-.301449.134977-.301449.3018984 0 .1664716.134977.3014486.301449.3014486.166921 0 .301448-.134977.301448-.3014486 0-.1669214-.134527-.3018984-.301448-.3018984m.769818-1.6705646c-.040043 0-.081436.0080986-.120579.0251957-.152974.0665886-.222712.2443082-.156123.3972821.049491.1138306.160172.181319.276702.181319.040494 0 .081437-.0080986.12058-.0251957.152974-.0665886.222712-.2443082.156123-.3972821-.049491-.1133806-.160172-.181319-.276703-.181319" fill="#38b7bb"/><path d="m100.468289 97.6445713c-.166472 0-.301449-.134977-.301449-.3014486 0-.1669214.134977-.3018984.301449-.3018984.166921 0 .301448.134977.301448.3018984 0 .1664716-.134527.3014486-.301448.3014486" fill="#37b7be"/><path d="m101.238107 95.9744565c-.11653 0-.227211-.0674884-.276702-.181319-.066589-.1529739.003149-.3306935.156123-.3972821.039143-.0170971.080536-.0251957.120579-.0251957.116531 0 .227212.0679384.276703.181319.066589.1529739-.003149.3306935-.156123.3972821-.039143.0170971-.080086.0251957-.12058.0251957" fill="#37b7be"/><path d="m100.936659 99.1576628c-.166922 0-.301899-.1349769-.301899-.3014485 0-.1669215.134977-.3018984.301899-.3018984.166471 0 .301448.1349769.301448.3018984 0 .1664716-.134977.3014485-.301448.3014485" fill="#37b7be"/><path d="m101.960684 89.5751996h-2.335551c-.2735533 0-.4949155-.2218121-.4949155-.4949155 0-.2735532.2213622-.4949154.4949155-.4949154h2.335551c.273103 0 .495365.2213622.495365.4949154 0 .2731034-.222262.4949155-.495365.4949155" fill="#c2e4e8"/><path d="m112.488886 99.2125534v-8.1715042h2.174928v2.5789595c-.219112.0341941-.433726.0904345-.554305.0904345-.386484-.0040493-.580401-.2578059-.919643-.3437412-.032395-.0085486-.067489-.012148-.104382-.012148-.190768 0-.426977.1007828-.596598.1840186z" fill="#c2e4e8"/><path d="m113.57635 100.304517c-.601547 0-1.087464-.4904163-1.087464-1.0919636v-5.6739808c.169621-.0832358.40583-.1840186.596598-.1840186.036893 0 .071987.0035994.104382.012148.339242.0859353.533159.3396919.919643.3437412.120579 0 .335193-.0562404.554305-.0904345v5.5925447c0 .6015473-.485467 1.0919636-1.087464 1.0919636m-.301899-1.8514339c-.166471 0-.301448.1354269-.301448.3018985 0 .1664715.134977.3018984.301448.3018984.166922 0 .301899-.1354269.301899-.3018984 0-.1664716-.134977-.3018985-.301899-.3018985m.580851-2.6046051c-.166921 0-.301898.1354269-.301898.3018985 0 .1664715.134977.3018984.301898.3018984.166472 0 .301449-.1354269.301449-.3018984 0-.1664716-.134977-.3018985-.301449-.3018985m-.603347-1.8374861c-.166921 0-.301898.1354269-.301898.3018984 0 .1664716.134977.3018985.301898.3018985.166472 0 .301449-.1354269.301449-.3018985 0-.1664715-.134977-.3018984-.301449-.3018984" fill="#e3684e"/><path d="m113.251955 94.6147888c-.166921 0-.301898-.1354269-.301898-.3018985 0-.1664715.134977-.3018984.301898-.3018984.166472 0 .301449.1354269.301449.3018984 0 .1664716-.134977.3018985-.301449.3018985" fill="#ea8d6a"/><path d="m113.855302 96.4522749c-.166921 0-.301898-.1354269-.301898-.3018984 0-.1664716.134977-.3018985.301898-.3018985.166472 0 .301449.1354269.301449.3018985 0 .1664715-.134977.3018984-.301449.3018984" fill="#ea8d6a"/><path d="m113.274451 99.05688c-.166471 0-.301448-.1354269-.301448-.3018984 0-.1664716.134977-.3018985.301448-.3018985.166922 0 .301899.1354269.301899.3018985 0 .1664715-.134977.3018984-.301899.3018984" fill="#ea8d6a"/><path d="m114.743901 89.5751996h-2.335102c-.273553 0-.495365-.2218121-.495365-.4949155 0-.2735532.221812-.4949154.495365-.4949154h2.335102c.273553 0 .495365.2213622.495365.4949154 0 .2731034-.221812.4949155-.495365.4949155" fill="#c2e4e8"/><path d="m108.25061 99.2125534v-8.1715042h2.174928v3.8387443c-.219112.0341942-.433726.0899846-.554305.0899846-.386484-.0044992-.580401-.2578059-.920093-.3437413-.032394-.0085485-.067489-.0121479-.103932-.0121479-.190768 0-.426977.1012327-.596598.1840186z" fill="#c2e4e8"/><path d="m109.338074 100.304517c-.601547 0-1.087464-.4904163-1.087464-1.0919636v-4.4146459c.169621-.0827859.40583-.1840186.596598-.1840186.036443 0 .071538.0035994.103932.0121479.339692.0859354.533609.3392421.920093.3437413.120579 0 .335193-.0557904.554305-.0899846v4.3327599c0 .6015473-.485467 1.0919636-1.087464 1.0919636m.141276-1.7502011c-.166472 0-.301449.1349769-.301449.3018984 0 .1664716.134977.3014485.301449.3014485.166921 0 .301898-.1349769.301898-.3014485 0-.1669215-.134977-.3018984-.301898-.3018984m-.46792-1.5130916c-.166472 0-.301899.134977-.301899.3018984 0 .1664716.135427.3014486.301899.3014486.166471 0 .301898-.134977.301898-.3014486 0-.1669214-.135427-.3018984-.301898-.3018984m.769818-1.6705646c-.040043 0-.080986.0080986-.120579.0251957-.152974.0665886-.222712.2443082-.155674.3972821.049042.1138306.159723.181319.276253.181319.040493 0 .081436-.0080986.12058-.0251957.152524-.0665886.222712-.2443082.156123-.3972821-.049492-.1133806-.160173-.181319-.276703-.181319" fill="#38b7bb"/><path d="m109.01143 97.6445713c-.166472 0-.301899-.134977-.301899-.3014486 0-.1669214.135427-.3018984.301899-.3018984.166471 0 .301898.134977.301898.3018984 0 .1664716-.135427.3014486-.301898.3014486" fill="#37b7be"/><path d="m109.781248 95.9744565c-.11653 0-.227211-.0674884-.276253-.181319-.067038-.1529739.0027-.3306935.155674-.3972821.039593-.0170971.080536-.0251957.120579-.0251957.11653 0 .227211.0679384.276703.181319.066589.1529739-.003599.3306935-.156123.3972821-.039144.0170971-.080087.0251957-.12058.0251957" fill="#37b7be"/><path d="m109.47935 99.1576628c-.166472 0-.301449-.1349769-.301449-.3014485 0-.1669215.134977-.3018984.301449-.3018984.166921 0 .301898.1349769.301898.3018984 0 .1664716-.134977.3014485-.301898.3014485" fill="#37b7be"/><path d="m110.503825 89.5751996h-2.335551c-.273554 0-.494916-.2218121-.494916-.4949155 0-.2735532.221362-.4949154.494916-.4949154h2.335551c.273553 0 .494915.2213622.494915.4949154 0 .2731034-.221362.4949155-.494915.4949155" fill="#c2e4e8"/><path d="m116.74021 99.2125534v-8.1715042h2.175378v3.8387443c-.219563.0341942-.434626.0899846-.555205.0899846-.386484-.0044992-.579951-.2578059-.919643-.3437413-.032395-.0085485-.067489-.0121479-.103932-.0121479-.191218 0-.426977.1012327-.596598.1840186z" fill="#c2e4e8"/><path d="m117.827674 100.304517c-.601547 0-1.087464-.4904163-1.087464-1.0919636v-4.4146459c.169621-.0827859.40538-.1840186.596598-.1840186.036443 0 .071537.0035994.103932.0121479.339692.0859354.533159.3392421.919643.3437413.120579 0 .335642-.0557904.555205-.0899846v4.3327599c0 .6015473-.486367 1.0919636-1.087914 1.0919636m.141276-1.7502011c-.166472 0-.301899.1349769-.301899.3018984 0 .1664716.135427.3014485.301899.3014485.166471 0 .301898-.1349769.301898-.3014485 0-.1669215-.135427-.3018984-.301898-.3018984m-.46792-1.5130916c-.166922 0-.301899.134977-.301899.3018984 0 .1664716.134977.3014486.301899.3014486.166471 0 .301448-.134977.301448-.3014486 0-.1669214-.134977-.3018984-.301448-.3018984m.769818-1.6705646c-.040493 0-.081436.0080986-.121029.0251957-.152074.0665886-.222262.2443082-.155674.3972821.049492.1138306.160173.181319.276253.181319.040493 0 .081436-.0080986.121029-.0251957.152524-.0665886.222712-.2443082.155674-.3972821-.049042-.1133806-.160173-.181319-.276253-.181319" fill="#38b7bb"/><path d="m117.50103 97.6445713c-.166922 0-.301899-.134977-.301899-.3014486 0-.1669214.134977-.3018984.301899-.3018984.166471 0 .301448.134977.301448.3018984 0 .1664716-.134977.3014486-.301448.3014486" fill="#37b7be"/><path d="m118.270398 95.9744565c-.11608 0-.226761-.0674884-.276253-.181319-.066588-.1529739.0036-.3306935.155674-.3972821.039593-.0170971.080536-.0251957.121029-.0251957.11608 0 .227211.0679384.276253.181319.067038.1529739-.00315.3306935-.155674.3972821-.039593.0170971-.080536.0251957-.121029.0251957" fill="#37b7be"/><path d="m117.96895 99.1576628c-.166472 0-.301899-.1349769-.301899-.3014485 0-.1669215.135427-.3018984.301899-.3018984.166471 0 .301898.1349769.301898.3018984 0 .1664716-.135427.3014485-.301898.3014485" fill="#37b7be"/><path d="m118.992975 89.5751996h-2.335101c-.273104 0-.495366-.2218121-.495366-.4949155 0-.2735532.222262-.4949154.495366-.4949154h2.335101c.273553 0 .495365.2213622.495365.4949154 0 .2731034-.221812.4949155-.495365.4949155" fill="#c2e4e8"/><path d="m138.076015 103.457578h-15.195254v-.333393c.085035.018897.17277.028795.261405.029245l13.739753.070188h.006299c.444974 0 .857554-.23486 1.084765-.617744.251507-.423378.23306-.954287-.047242-1.360118l-6.564829-9.5059761.239359-6.7339998c.020697-.5777013-.449473-.9812824-.949788-.9812824-.202465 0-.410329.0661387-.592098.2141634l-.00045.0004499c-.260506.1192297-.475569.1615225-.650139.1615225-.428327 0-.610096-.2555564-.610096-.2555564l-.104832 7.5551095-6.536034 8.6992644v-.6172949l6.166647-8.1512576.320795-10.01124-.400431-.0125979c-.384685-.0121479-.686583-.3342929-.674435-.7194271.012148-.3774855.321695-.6748847.696481-.6748847h.022946l4.09925.1313776c.384684.0125978.687032.3347428.674884.719877-.012148.3770356-.321695.6748847-.696931.6748847-.007648 0-.015297-.0004499-.022946-.0004499l-.399981-.0130478-.316296 9.8731136 6.910369 9.488879c.599748.82336.300549 1.895526-.461171 2.370195" fill="#e4f3f4"/><path d="m122.880761 103.457578h-.800414c-1.009177-.342841-1.477547-1.621973-.774317-2.551064l.850804-1.1243579v.6172949l-.249707.332043c-.304148.404481-.336543.951587-.083236 1.389363l.23396.403131c.17952.310447.480518.52596.82291.600197z" fill="#b1dbd4"/><path d="m136.888218 103.223618c-.00225 0-.004049 0-.006299 0l-13.739753-.070188c-.088635-.00045-.17637-.010348-.261405-.029245v-1.081165h-.723927v-1.643569l6.536034-8.6992644.104832-7.5551095s.181769.2555564.610096.2555564c.17457 0 .389633-.0422928.650139-.1615225l.00045-.0004499c.181769-.1480247.389633-.2141634.592098-.2141634.500315 0 .970485.4035811.949788.9812824l-.239359 6.7339998 6.564829 9.5059761c.280302.405831.298749.93674.047242 1.360118-.227211.382884-.639791.617744-1.084765.617744m-1.418608-3.3861213c-.061189 0-.122829.0040493-.185368.0121479-.768919.1016826-1.309726.8067124-1.208044 1.5756304.092685.70638.696031 1.220642 1.389813 1.220642.061189 0 .123279-.004049.185368-.012598.768919-.101233 1.309727-.806712 1.208494-1.575631-.093134-.705929-.696481-1.2201913-1.390263-1.2201913m-5.396378.5633033c-.026995 0-.054441.0018-.081886.0054-.338792.044992-.576801.355439-.532709.694231.041393.311347.307298.538108.612795.538108.026996 0 .054441-.0018.081886-.005399.338793-.044542.576802-.355439.532709-.694231-.041393-.311347-.307297-.538109-.612795-.538109m-6.580126.571403c-.087285 0-.17412.039143-.23126.11428-.098084.127329-.073788.309997.05354.408081.053091.040493.115181.060289.17727.060289.087285 0 .17412-.039593.231261-.11428.097633-.127328.073337-.309997-.053991-.40808-.052641-.040494-.11518-.06029-.17682-.06029m3.008186-2.301357c-.061189 0-.123279.0040493-.185368.0121479-.768469.1016826-1.309726.8067122-1.208494 1.5751811.093584.706829.696931 1.221091 1.390713 1.221091.061189 0 .122829-.004049.184918-.012148.768469-.101682 1.309726-.807162 1.208494-1.5756305-.093134-.7068293-.696481-1.2206415-1.390263-1.2206415m6.126604-.8148109c-.028345 0-.057141.0017997-.085936.005849-.355439.046792-.605596.3725364-.558354.7279757.043192.3266442.321245.5642036.64204.5642036.028345 0 .05669-.0017997.085935-.005849.35544-.046792.605147-.3729863.558355-.7279756-.043193-.3266442-.322145-.5642037-.64204-.5642037m2.148383.0742374c-.087285 0-.174121.0391433-.231261.1138305-.098083.1277782-.073787.3108969.053541.4085302.053091.0404931.11518.0602897.17727.0602897.087285 0 .17412-.0391433.23126-.1142805.097634-.1273282.073338-.309997-.05399-.4080802-.052641-.0404931-.115181-.0602897-.17682-.0602897m-4.308914-1.540087c-.087285 0-.17412.0395933-.231261.1142805-.098083.1277782-.073787.310447.053541.4085302.053091.0404931.11518.0598398.17727.0598398.087285 0 .17367-.0391433.23081-.1142805.098084-.1273282.073788-.309997-.05354-.4080803-.052641-.0404931-.115181-.0602897-.17682-.0602897m-2.98614-1.2422378c-.028345 0-.05669.0017997-.085486.0053991-.354989.0472419-.604696.3734362-.558354.7288755.043192.3261943.322145.5637537.64339.5637537.027895 0 .05624-.0017997.085035-.0053991.35499-.0472419.605147-.3729863.557905-.7284256-.042743-.3266442-.321695-.5642036-.64249-.5642036m3.048679-1.5976771c-.028345 0-.05714.0017997-.085935.005849-.35544.046792-.605597.3725364-.558805.7279757.043193.3266442.322145.5642036.64249.5642036.028346 0 .056691-.0022496.085936-.005849.355439-.046792.605146-.3729863.558354-.7279757-.043192-.3266442-.321695-.5642036-.64204-.5642036m-.977683-1.4595507c-.087735 0-.17412.0391433-.23081.1138306-.098084.1277781-.074238.3104469.05354.4085302.052641.0404931.115181.0598398.17682.0598398.087735 0 .17412-.0391434.231261-.1138306.098083-.1273282.073787-.310447-.053541-.4080803-.053091-.0404931-.11563-.0602897-.17727-.0602897m.378835-3.2992864c-.037793 0-.076037.0026995-.11473.0076487-.475569.0629892-.809862.4989647-.746872.9740836.05714.4368753.430576.754971.859803.754971.037793 0 .076037-.0026995.11428-.0076487.475569-.0629892.809862-.4989647.746873-.9745335-.057141-.4364255-.430577-.7545211-.859354-.7545211m.383785-2.1150888c-.027895 0-.056691.0017997-.085486.0053991-.354989.046792-.605146.3729863-.558354.7279757.043192.3266442.322145.5642036.64249.5642036.028345 0 .05669-.0017997.085485-.0053991.35544-.046792.605597-.3729863.558355-.7284256-.042743-.3261942-.321695-.5637537-.64249-.5637537m-.610996-1.2503364c-.087735 0-.17412.0395933-.23126.1142805-.097634.1273282-.073788.310447.05399.4080803.052641.0404931.115181.0602897.17682.0602897.087735 0 .174121-.0391433.231261-.1138306.098083-.1277781.073787-.3104469-.053541-.4085302-.053091-.0404931-.11563-.0602897-.17727-.0602897" fill="#e15a3c"/><path d="m122.880761 103.124185c-.342392-.074237-.64339-.28975-.82291-.600197l-.23396-.403131c-.253307-.437776-.220912-.984882.083236-1.389363l.249707-.332043v1.643569h.723927z" fill="#bd5436"/><path d="m126.498143 101.479266c-.693782 0-1.297129-.514262-1.390713-1.221091-.101232-.7684689.440025-1.4734985 1.208494-1.5751811.062089-.0080986.124179-.0121479.185368-.0121479.693782 0 1.297129.5138122 1.390263 1.2206415.101232.7684685-.440025 1.4739485-1.208494 1.5756305-.062089.008099-.123729.012148-.184918.012148" fill="#e88460"/><path d="m135.466011 102.645917c-.693782 0-1.297128-.514262-1.389813-1.220642-.101682-.768918.439125-1.4739478 1.208044-1.5756304.062539-.0080986.124179-.0121479.185368-.0121479.693782 0 1.297129.5142623 1.390263 1.2201913.101233.768919-.439575 1.474398-1.208494 1.575631-.062089.008549-.124179.012598-.185368.012598" fill="#e88460"/><path d="m127.480775 96.445976c-.321245 0-.600198-.2375594-.64339-.5637537-.046342-.3554393.203365-.6816336.558354-.7288755.028796-.0035994.057141-.0053991.085486-.0053991.320795 0 .599747.2375594.64249.5642036.047242.3554393-.202915.6811837-.557905.7284256-.028795.0035994-.05714.0053991-.085035.0053991" fill="#e88460"/><path d="m130.466915 96.972836c-.06209 0-.124179-.0193467-.17727-.0598398-.127328-.0980832-.151624-.280752-.053541-.4085302.057141-.0746872.143976-.1142805.231261-.1142805.061639 0 .124179.0197966.17682.0602897.127328.0980833.151624.2807521.05354.4080803-.05714.0751372-.143525.1142805-.23081.1142805" fill="#e88460"/><path d="m129.551771 92.6729205c-.061639 0-.124179-.0193467-.17682-.0598398-.127778-.0980833-.151624-.2807521-.05354-.4085302.05669-.0746873.143075-.1138306.23081-.1138306.06164 0 .124179.0197966.17727.0602897.127328.0976333.151624.2807521.053541.4080803-.057141.0746872-.143526.1138306-.231261.1138306" fill="#e88460"/><path d="m123.492656 101.554853c-.062089 0-.124179-.019796-.17727-.060289-.127328-.098084-.151624-.280752-.05354-.408081.05714-.075137.143975-.11428.23126-.11428.06164 0 .124179.019796.17682.06029.127328.098083.151624.280752.053991.40808-.057141.074687-.143976.11428-.231261.11428" fill="#e88460"/><path d="m129.703395 86.0086588c-.061639 0-.124179-.0197966-.17682-.0602897-.127778-.0976333-.151624-.2807521-.05399-.4080803.05714-.0746872.143525-.1142805.23126-.1142805.06164 0 .124179.0197966.17727.0602897.127328.0980833.151624.2807521.053541.4085302-.05714.0746873-.143526.1138306-.231261.1138306" fill="#e88460"/><path d="m134.775829 98.5129229c-.06209 0-.124179-.0197966-.17727-.0602897-.127328-.0976333-.151624-.280752-.053541-.4085302.05714-.0746872.143976-.1138305.231261-.1138305.061639 0 .124179.0197966.17682.0602897.127328.0980832.151624.280752.05399.4080802-.05714.0751372-.143975.1142805-.23126.1142805" fill="#e88460"/><path d="m130.071432 101.638539c-.305497 0-.571402-.226761-.612795-.538108-.044092-.338792.193917-.649239.532709-.694231.027445-.0036.054891-.0054.081886-.0054.305498 0 .571402.226762.612795.538109.044093.338792-.193916.649689-.532709.694231-.027445.003599-.05489.005399-.081886.005399" fill="#e88460"/><path d="m130.313491 87.9739231c-.320345 0-.599298-.2375594-.64249-.5642036-.046792-.3549894.203365-.6811837.558354-.7279757.028795-.0035994.057591-.0053991.085486-.0053991.320795 0 .599747.2375595.64249.5637537.047242.3554393-.202915.6816336-.558355.7284256-.028795.0035994-.05714.0053991-.085485.0053991" fill="#e88460"/><path d="m130.527654 94.8482989c-.320345 0-.599297-.2375594-.64249-.5642036-.046792-.3554393.203365-.6811837.558805-.7279757.028795-.0040493.05759-.005849.085935-.005849.320345 0 .598848.2375594.64204.5642036.046792.3549894-.202915.6811837-.558354.7279757-.029245.0035994-.05759.005849-.085936.005849" fill="#e88460"/><path d="m132.625646 99.1540634c-.320795 0-.598848-.2375594-.64204-.5642036-.047242-.3554393.202915-.6811837.558354-.7279757.028795-.0040493.057591-.005849.085936-.005849.319895 0 .598847.2375595.64204.5642037.046792.3549893-.202915.6811836-.558355.7279756-.029245.0040493-.05759.005849-.085935.005849" fill="#e88460"/><path d="m129.929257 90.5281368c-.429227 0-.802663-.3180957-.859803-.754971-.06299-.4751189.271303-.9110944.746872-.9740836.038693-.0049492.076937-.0076487.11473-.0076487.428777 0 .802213.3180956.859354.7545211.062989.4755688-.271304.9115443-.746873.9745335-.038243.0049492-.076487.0076487-.11428.0076487" fill="#e88460"/><path d="m140.68017 107.264378h-40.548424c-.1372261-1.250336-.2870506-2.506072-.4508226-3.755508h22.5852426c.106631.022496.218662.035094.334742.036443l14.588309.156574c.006299.00045.012597.00045.018896.00045.327994 0 .622244-.091335.867902-.244759h2.604155c1.051021 0 1.903175.852605 1.903175 1.903625 0 1.051021-.852154 1.903175-1.903175 1.903175m-72.0866865 0h-39.675573c-1.0510205 0-1.9031749-.852154-1.9031749-1.903175 0-1.05102.8521544-1.903625 1.9031749-1.903625h16.5148791c.0395932.030145.0886348.048142.1421757.048142h1.9558159c.0517412 0 .1016827-.017097.1421757-.048142h4.7790837c.0323945.171871.1835687.301449.3648877.301449h.2735533c.1808691 0 .3320433-.129578.3644377-.301449h5.0836817c.0404931.031045.0904345.048142.1421757.048142h1.9558159c.0535409 0 .1025825-.017997.1421757-.048142h8.4621546c-.2321603 1.275532-.4476735 2.547465-.6474394 3.8068" fill="#0e3546"/><path d="m92.1793548 107.264378h-10.4098719l.6132452-3.8068h9.7525342z" fill="#0d1b2a"/><path d="m81.7694829 107.264378h-8.8936309c.2357597-1.327273.4719694-2.595607.7068293-3.8068h8.8000468z" fill="#143a49"/><path d="m72.875852 107.264378h-4.2823685c.1997659-1.259335.4152791-2.531268.6474394-3.8068h4.3417584c-.2348599 1.211193-.4710696 2.479527-.7068293 3.8068" fill="#0d3747"/><path d="m100.131746 107.264378h-7.9523912l-.0440925-3.8068h3.9755209v.051292h3.5701402c.163772 1.249436.3135965 2.505172.4508226 3.755508" fill="#143a49"/><path d="m47.5307812 103.50572h-1.9558159c-.0535409 0-.1025825-.017997-.1421757-.048142h2.2401673c-.040493.031045-.0904345.048142-.1421757.048142" fill="#091523"/><path d="m60.6365926 103.50572h-1.9558159c-.0517412 0-.1016826-.017097-.1421757-.048142h2.2401673c-.0395932.030145-.0886348.048142-.1421757.048142" fill="#091523"/><path d="m53.0904816 103.759027h-.2735533c-.181319 0-.3324932-.129578-.3648877-.301449h1.0028787c-.0323944.171871-.1835686.301449-.3644377.301449" fill="#091523"/><path d="m122.266166 103.50887h-26.1553828v-.051292h25.9695638c.06029.020697.12193.037794.185819.051292" fill="#0a2b36"/><path d="m137.208113 103.702337c-.006299 0-.012597 0-.018896-.00045l-14.588309-.156574c-.11608-.001349-.228111-.013947-.334742-.036443h.614595v-.051292h15.195254c-.245658.153424-.539908.244759-.867902.244759" fill="#113948"/><path d="m122.880761 103.50887h-.614595c-.063889-.013498-.125529-.030595-.185819-.051292h.800414z" fill="#0b3644"/><path d="m135.659028 110.949249h-101.7199752c-2.1024908 0-3.8063498-1.704309-3.8063498-3.8068h109.332675c0 2.102491-1.704309 3.8068-3.80635 3.8068" fill="#091523"/></g></svg>