<svg fill="none" height="11" viewBox="0 0 12 11" width="12" xmlns="http://www.w3.org/2000/svg"><path d="m5.5948.242978c.17493-.3207419.63547-.3207419.8104 0l1.35906 2.492002c.06638.12172.18397.20715.32024.23267l2.79.52248c.3591.06724.5014.50525.2504.77073l-1.95003 2.06261c-.09525.10075-.14016.23898-.12232.37647l.36526 2.81491c.04701.3623-.32558.63305-.65562.47634l-2.56427-1.21724c-.12525-.05945-.27059-.05945-.39584 0l-2.56427 1.21724c-.33004.15671-.70263-.11404-.65562-.47634l.36526-2.81491c.01784-.13749-.02707-.27572-.12232-.37647l-1.950068-2.06261c-.250989-.26548-.108672-.70349.250428-.77073l2.79001-.52248c.13627-.02552.25386-.11095.32024-.23267z" fill="#009d7a"/></svg>