<svg fill="none" height="60" viewBox="0 0 60 60" width="60" xmlns="http://www.w3.org/2000/svg"><path d="m56.639 30 1.784-3.4806-2.5593-2.9568.8973-3.8063-3.1963-2.2534-.0443-3.9103-3.6428-1.4226-.9756-3.78693-3.8766-.51436-1.8504-3.44527-3.8871.42872-2.6244-2.89905-3.6695 1.35237-3.243-2.18515-3.2429 2.18515-3.6696-1.35237-2.6246 2.89905-3.8869-.42859-1.8504 3.44527-3.8768.51435-.9754 3.78711-3.64282 1.4226-.04431 3.9103-3.19619 2.2532.89727 3.8063-2.55934 2.9567 1.78407 3.4806-1.78395 3.4806 2.55922 2.9568-.89727 3.8063 3.19631 2.2534.04432 3.9103 3.64282 1.4226.97557 3.7869 3.8766.5144 1.8504 3.4453 3.8871-.4288 2.6244 2.8991 3.6695-1.3524 3.2429 2.1852 3.243-2.1852 3.6696 1.3524 2.6246-2.8991 3.8869.4286 1.8504-3.4452 3.8767-.5144.9755-3.7871 3.6428-1.4226.0443-3.9103 3.1962-2.2532-.8973-3.8063 2.5594-2.9567z" fill="#ffb849"/><path d="m29.751 52.9046c12.6499 0 22.9046-10.2547 22.9046-22.9046 0-12.6498-10.2547-22.90454-22.9046-22.90454-12.6498 0-22.90452 10.25474-22.90452 22.90454 0 12.6499 10.25472 22.9046 22.90452 22.9046z" fill="#ecf4fa"/><path d="m29.751 44.9378c8.2499 0 14.9378-6.6879 14.9378-14.9378s-6.6879-14.9377-14.9378-14.9377-14.9377 6.6878-14.9377 14.9377 6.6878 14.9378 14.9377 14.9378z" fill="#ffb849"/><path d="m17.6096 38.7028c4.5354 6.3234 13.1653 8.1063 19.8352 4.0979s9.1459-12.4655 5.6909-19.4382c-5.9312 8.5203-15.2188 14.1018-25.5261 15.3403z" fill="#fff" opacity=".2"/><path d="m25.7676 38.9627c-.5283.0007-1.0351-.2093-1.4082-.5835l-3.9834-3.9834c-.5107-.5016-.7129-1.2387-.5297-1.9307s.7236-1.2324 1.4157-1.4156c.692-.1832 1.429.0191 1.9306.5298l2.575 2.5749 9.5461-9.5458c.7798-.7659 2.0311-.7603 2.804.0125.7729.7729.7785 2.0242.0127 2.804l-10.9544 10.9543c-.3731.3742-.88.5842-1.4084.5835z" fill="#ecf4fa"/><g fill="#102b44"><path clip-rule="evenodd" d="m54.5547 16.9825 2.78 1.9599c.3323.2341.489.6465.396 1.0421l-.7805 3.3112 2.2257 2.572c.2657.307.3184.7446.1332 1.1059l-1.5511 3.0264 1.5511 3.0269c.1852.3613.1325.7989-.1332 1.1059l-2.2243 2.5723.7805 3.3112c.0932.3956-.0633.8082-.3955 1.0424l-2.78 1.9599-.0386 3.4011c-.0046.406-.2553.7686-.6335.9163l-3.1679 1.237-.8483 3.2934c-.1013.3933-.4313.6857-.834.7389l-3.3714.4473-1.6092 2.9962c-.1922.358-.5826.5633-.9865.5188l-3.3811-.3735-2.2829 2.5219c-.273.3012-.7016.4064-1.083.266l-3.1915-1.1764-2.8202 1.9006c-.3364.2267-.7767.2267-1.1131 0l-2.8203-1.9006-3.1912 1.1763c-.3814.1407-.8101.0355-1.083-.2659l-2.283-2.5218-3.3811.3729c-.4038.0439-.7939-.1612-.9865-.5188l-1.6092-2.9962-3.3713-.4473c-.4027-.0531-.73273-.3455-.83407-.7388l-.84834-3.2934-3.1683-1.2373c-.37826-.1478-.62893-.5104-.63348-.9165l-.03859-3.401-2.78004-1.96c-.3322-.2341-.48878-.6467-.3956-1.0423l.78049-3.3112-2.225723-2.572c-.2656846-.307-.31838534-.7446-.133195-1.1059l1.551158-3.0264-1.551158-3.0269c-.18519034-.3613-.1324896-.7989.133195-1.1059l2.226103-2.571-.7805-3.3112c-.09326-.3956.06327-.8082.39548-1.0424l2.77941-1.96.03859-3.4011c.00461-.406.25527-.7685.63349-.9163l3.16792-1.2369.84822-3.29344c.1013-.39335.43134-.68576.83404-.73893l3.3718-.44726 1.6092-2.99626c.192-.35817.5826-.56354.9865-.51872l3.381.37282 2.2824-2.52186c.2728-.301439.7015-.406739 1.083-.26602l3.1914 1.17635 2.8203-1.900581c.3364-.2267197.7767-.2267197 1.1131 0l2.8199 1.900581 3.1912-1.17622c.3814-.14097.8102-.03569 1.083.26589l2.283 2.52236 3.3811-.37344c.4038-.04398.7939.16115.9865.51871l1.6092 2.99627 3.3708.44726c.4027.05315.7327.3455.8341.7388l.8483 3.29339 3.1679 1.237c.3783.1477.6289.5103.6335.9164zm1.1981 12.5634 1.4775-2.8829-2.1199-2.4485c-.2093-.2416-.2898-.569-.2164-.8801l.7428-3.1515-2.6465-1.8657c-.2613-.1843-.4182-.4829-.4218-.8027l-.0358-3.2381-3.017-1.1781c-.2982-.1165-.5222-.3692-.602-.6792l-.8081-3.1369-3.2107-.42585c-.3174-.04195-.5953-.23399-.7468-.5161l-1.5323-2.85361-3.2187.35502c-.3176.03467-.6327-.08487-.8473-.32154l-2.1731-2.40049-3.0384 1.12033c-.3002.11067-.6354.07029-.9008-.10855l-2.6865-1.81033-2.6864 1.81058c-.2655.17866-.6005.21908-.9009.10867l-3.0385-1.12033-2.1731 2.40062c-.2147.2366-.5297.35612-.8474.32154l-3.2186-.35502-1.5311 2.85274c-.1515.28211-.4294.47415-.7469.5161l-3.2107.42585-.808 3.13697c-.0798.31-.3038.5627-.60201.6793l-3.01705 1.178-.03735 3.2383c-.00363.3197-.16056.6183-.42186.8025l-2.64648 1.8659.74291 3.1514c.07332.3111-.00715.6385-.21635.8802l-2.11942 2.4486 1.47747 2.8824c.14644.2852.14644.6235 0 .9087l-1.47747 2.8829 2.11992 2.4485c.20927.2416.28976.569.21635.8801l-.74278 3.1515 2.64647 1.8657c.26134.1843.41827.4829.42187.8027l.03572 3.2381 3.01706 1.1781c.2982.1165.5221.3692.602.6792l.8081 3.1369 3.2106.4259c.3175.0419.5954.2339.7469.5161l1.5323 2.8536 3.2187-.3551c.3176-.0347.6327.0848.8473.3216l2.1731 2.4005 3.0383-1.1204c.3003-.1106.6355-.0702.9009.1086l2.6864 1.8103 2.6865-1.8106c.2654-.1786.6005-.219.9008-.1086l3.0386 1.1203 2.1731-2.4006c.2146-.2368.5297-.3564.8474-.3216l3.2185.3551 1.5312-2.8523c.1515-.2821.4294-.4741.7468-.5161l3.2108-.4258.808-3.137c.0798-.31.3038-.5627.602-.6793l3.017-1.178.0374-3.2383c.0036-.3197.1606-.6183.4219-.8025l2.6464-1.8659-.7429-3.1514c-.0733-.3111.0072-.6385.2164-.8802l2.1194-2.4486-1.4775-2.8829c-.1464-.2852-.1464-.6235 0-.9087z" fill-rule="evenodd"/><path d="m47.6764 30v.0418h1.9917v-.0418c-.0001-.6947-.0359-1.389-.1073-2.0801l-1.981.2057c.0642.6227.0965 1.2483.0966 1.8744z"/><path d="m13.3618 37.2717-1.82.8092c.2828.6354.5986 1.2556.9461 1.8581l1.7253-.9951c-.3127-.5422-.5969-1.1003-.8514-1.6722z"/><path d="m16.404 44.7835c.5159.4658 1.0556.9046 1.617 1.3144l1.174-1.6083c-.5054-.3691-.9912-.7641-1.4557-1.1836z"/><path d="m43.0748 18.0082c.4188.4653.8133.952 1.1817 1.4582l1.6105-1.1719c-.4091-.5617-.8471-1.1018-1.312-1.6182z"/><path d="m23.5662 48.9379c.6613.2155 1.3334.3962 2.0136.5415l.4153-1.9479c-.6117-.1306-1.2162-.2932-1.8109-.4871z"/><path d="m47.2886 26.273 1.9486-.4121c-.144-.6806-.3237-1.3531-.5382-2.0148l-1.894.6145c.1928.5952.3543 1.2002.4836 1.8124z"/><path d="m46.1328 22.7101 1.819-.8108c-.2832-.6354-.5995-1.2555-.9476-1.8578l-1.7241.9973c.3132.5419.5978 1.0997.8527 1.6713z"/><path d="m27.6381 49.8061c.6909.0727 1.3852.1096 2.08.1108l.0032-1.9917c-.626-.0009-1.2515-.0342-1.8741-.0996z"/><path d="m15.234 40.5177-1.6119 1.1701c.4084.5626.8458 1.1035 1.3104 1.6205l1.4814-1.3313c-.4183-.4657-.8121-.9528-1.1799-1.4593z"/><path d="m43.0818 15.2018c-.5164-.4654-1.0565-.9036-1.6183-1.3129l-1.1721 1.6102c.5056.3685.9918.7629 1.4564 1.1819z"/><path d="m39.7169 12.752c-.6017-.3481-1.2211-.6645-1.8558-.948l-.812 1.8186c.5711.2552 1.1285.54 1.67.8532z"/><path d="m24.2213 12.9434-.6137-1.8946c-.6617.2147-1.3118.464-1.9474.7469l.8099 1.8196c.5716-.2544 1.1561-.4787 1.7512-.6719z"/><path d="m27.8864 12.1704-.2044-1.9813c-.6915.0716-1.3788.1791-2.0591.3222l.4108 1.949c.612-.129 1.2305-.2257 1.8527-.2899z"/><path d="m31.8423 10.1914c-.6911-.0718-1.3854-.108-2.0802-.1084l-.001 1.9917c.626.0004 1.2515.033 1.8741.0977z"/><path d="m35.915 11.0554c-.6614-.2147-1.3336-.3948-2.0139-.5393l-.4135 1.9482c.6119.1301 1.2165.2922 1.8115.4855z"/><path d="m44.2345 40.5639 1.6083 1.1751c.4099-.5614.7903-1.1437 1.1397-1.7445l-1.7218-1.001c-.3146.5409-.6572 1.0651-1.0262 1.5704z"/><path d="m38.6861 45.5433.9944 1.7258c.6024-.3473 1.1862-.7258 1.7491-1.1338l-1.1688-1.6124c-.5069.3672-1.0325.7078-1.5747 1.0204z"/><path d="m19.766 47.2369c.6013.3489 1.2204.6661 1.8548.9503l.814-1.8174c-.5709-.2557-1.1279-.5411-1.6689-.8551z"/><path d="m41.7204 43.3444 1.3305 1.4813c.5171-.4643 1.0098-.9551 1.4761-1.4705l-1.4772-1.3359c-.4199.4644-.8636.9067-1.3294 1.3251z"/><path d="m46.1164 37.3255 1.8174.8147c.2844-.6346.5353-1.2838.7516-1.9447l-1.8929-.6187c-.1946.5943-.4203 1.178-.6761 1.7487z"/><path d="m35.262 47.0625.6114 1.8955c.6621-.2137 1.3125-.4622 1.9484-.7443l-.8079-1.8205c-.5718.2537-1.1566.4771-1.7519.6693z"/><path d="m12.2176 26.2531-1.9479-.4136c-.1443.6801-.253 1.3672-.32562 2.0586l1.98072.2079c.0652-.6223.163-1.2408.2928-1.8529z"/><path d="m11.8257 30v-.0209h-1.99167v.0209c-.00001.6874.0351 1.3744.10519 2.0583l1.98128-.2038c-.0632-.6162-.0948-1.2351-.0948-1.8545z"/><path d="m31.5959 47.8316.2022 1.9815c.6916-.0708 1.3789-.1776 2.0593-.32l-.4081-1.9493c-.6124.128-1.2311.2241-1.8534.2878z"/><path d="m13.3776 22.6929-1.8184-.8127c-.2836.635-.5337 1.2844-.7492 1.9456l1.8937.6168c.1939-.5946.4189-1.1786.6739-1.7497z"/><path d="m12.2095 33.7075-1.9491.4099c.1433.6808.3222 1.3535.536 2.0155l1.8952-.6127c-.1924-.5953-.3533-1.2004-.4821-1.8127z"/><path d="m47.2803 33.7658 1.9477.4165c.1451-.68.2546-1.367.328-2.0584l-1.9806-.21c-.0661.622-.1646 1.2401-.2951 1.8519z"/><path d="m17.7669 16.6695-1.332-1.4805c-.5166.465-1.0087.9564-1.4745 1.4723l1.4787 1.3342c.4195-.4646.8626-.9071 1.3278-1.326z"/><path d="m15.2561 19.4522-1.6096-1.1734c-.4093.5618-.7891 1.1444-1.138 1.7456l1.7231.9991c.3139-.5412.6559-1.0657 1.0245-1.5713z"/><path d="m20.7988 14.4666-.9958-1.7248c-.602.348-1.1856.7271-1.7482 1.1357l1.1709 1.6113c.5062-.3679 1.0313-.7091 1.5731-1.0222z"/><g clip-rule="evenodd" fill-rule="evenodd"><path d="m29.751 14.0664c8.7999 0 15.9336 7.1337 15.9336 15.9336-.01 8.7958-7.1378 15.9236-15.9336 15.9336-8.7999 0-15.9336-7.1337-15.9336-15.9336s7.1337-15.9336 15.9336-15.9336zm-13.9419 15.9336c0 7.6999 6.242 13.9419 13.9419 13.9419 7.6963-.0087 13.9332-6.2456 13.9419-13.9419 0-7.6999-6.242-13.9419-13.9419-13.9419s-13.9419 6.242-13.9419 13.9419z"/><path d="m34.6094 23.904c1.1676-1.1646 3.0576-1.1646 4.2252 0 .5603.5603.8751 1.3202.8751 2.1126s-.3148 1.5523-.8751 2.1126l-10.9544 10.9543c-.5603.5603-1.3202.8751-2.1126.8751-.7923 0-1.5522-.3148-2.1125-.8751l-3.9834-3.9834c-1.1668-1.1667-1.1668-3.0584 0-4.2251 1.1667-1.1668 3.0584-1.1668 4.2251 0l1.8708 1.8709zm-8.1377 13.771 10.9544-10.9544h.0001c.2589-.25.3627-.6202.2716-.9684-.0912-.3482-.3631-.6201-.7113-.7112-.3481-.0912-.7184.0126-.9684.2715l-9.5461 9.5459c-.3889.3888-1.0194.3888-1.4083 0l-2.5751-2.5749c-.3901-.3816-1.0146-.3781-1.4005.0077-.3858.3858-.3894 1.0102-.0079 1.4004l3.9834 3.9834c.3889.3888 1.0192.3888 1.4081 0z"/><path d="m5.85063 30c0-13.1787 10.72167-23.90042 23.90037-23.90042 13.1788 0 23.9005 10.72172 23.9005 23.90042s-10.7217 23.9004-23.9005 23.9004c-13.1787 0-23.90037-10.7217-23.90037-23.9004zm1.9917 0c0 12.0805 9.82817 21.9087 21.90867 21.9087 12.0806 0 21.9088-9.8282 21.9088-21.9087s-9.8282-21.90872-21.9088-21.90872c-12.0805 0-21.90867 9.82822-21.90867 21.90872z"/></g></g></svg>